<svg width="158" height="150" viewBox="0 0 158 150" fill="none" xmlns="http://www.w3.org/2000/svg">
<path d="M147.512 62.1292C152.163 61.8856 155.746 57.7064 155.516 52.7947C155.285 47.883 151.328 44.0989 146.677 44.3425C142.026 44.5862 138.442 48.7654 138.673 53.6771C138.904 58.5887 142.861 62.3729 147.512 62.1292Z" fill="#EBEBEB"/>
<path fill-rule="evenodd" clip-rule="evenodd" d="M145.95 56.7679C145.726 56.6213 145.533 56.4104 145.232 56.4354C145.121 56.4354 145.144 56.3461 145.144 56.2817C145.144 55.0902 145.144 53.9046 145.144 52.725C145.144 52.6357 145.144 52.5677 145.239 52.5177C146.095 52.0637 146.468 51.1629 146.992 50.3944C147.262 50.0128 147.456 49.5778 147.563 49.1154C147.67 48.653 147.688 48.1726 147.615 47.7027C147.581 47.4382 147.7 47.3167 147.927 47.2631C148.041 47.2214 148.165 47.2197 148.28 47.2583C148.395 47.297 148.496 47.3739 148.566 47.4775C148.813 47.9613 148.979 48.486 149.057 49.0289C149.054 49.4782 149.002 49.9256 148.901 50.3622C148.861 50.6875 148.79 51.0092 148.732 51.3417C148.807 51.3989 148.895 51.3667 148.976 51.3703H151.819C152.222 51.3703 152.415 51.4918 152.473 51.7706C152.503 51.9431 152.479 52.1214 152.404 52.2782C152.33 52.4351 152.209 52.5618 152.06 52.6392C151.988 52.6786 151.86 52.6392 151.85 52.7608C151.84 52.8823 151.975 52.868 152.039 52.918C152.378 53.1647 152.32 53.6794 151.921 53.9904C151.826 54.0619 151.64 54.0297 151.636 54.1763C151.633 54.3229 151.809 54.2943 151.887 54.3765C151.948 54.4599 151.99 54.5572 152.009 54.6607C152.028 54.7641 152.024 54.8709 151.998 54.9725C151.971 55.0742 151.923 55.1678 151.856 55.2462C151.789 55.3245 151.706 55.3853 151.613 55.4238C151.555 55.4421 151.498 55.4648 151.444 55.4917C151.396 55.5239 151.352 55.5632 151.444 55.6312C151.541 55.6782 151.623 55.7537 151.681 55.8488C151.739 55.9438 151.769 56.0544 151.769 56.1673C151.769 56.2803 151.739 56.3908 151.681 56.4859C151.623 56.5809 151.541 56.6565 151.444 56.7035L151.322 56.8C151.171 56.894 150.995 56.9341 150.821 56.9144H146.342C146.271 56.9194 146.199 56.9089 146.132 56.8838C146.064 56.8586 146.002 56.8191 145.95 56.7679Z" fill="white"/>
<path fill-rule="evenodd" clip-rule="evenodd" d="M141.719 54.6767C141.719 53.9225 141.719 53.1683 141.719 52.414C141.719 52.2639 141.719 52.1888 141.912 52.1888C142.783 52.1888 143.653 52.1888 144.521 52.1888C144.694 52.1888 144.718 52.2496 144.718 52.4105C144.718 53.9261 144.718 55.4417 144.718 56.9609C144.718 57.1539 144.67 57.2075 144.488 57.204C143.641 57.204 142.797 57.204 141.956 57.204C141.746 57.204 141.715 57.1289 141.719 56.9323C141.725 56.1924 141.719 55.431 141.719 54.6767Z" fill="white"/>
<path d="M50.269 36.8396H11.6237V10.6737H50.269V36.8396ZM11.9622 36.4822H49.9305V11.0312H11.9622V36.4822Z" fill="#EBEBEB"/>
<path d="M50.269 14.4628H11.6237V10.6737H50.269V14.4628ZM11.9622 14.1053H49.9305V11.0312H11.9622V14.1053Z" fill="#EBEBEB"/>
<path d="M14.8394 12.5825C14.8394 12.7538 14.7912 12.9212 14.7011 13.0635C14.6109 13.2058 14.4828 13.3167 14.3329 13.3821C14.183 13.4474 14.0182 13.4643 13.8592 13.4307C13.7002 13.397 13.5542 13.3143 13.4398 13.1929C13.3254 13.0716 13.2476 12.9171 13.2164 12.7491C13.1852 12.581 13.2019 12.407 13.2644 12.249C13.3269 12.091 13.4325 11.9561 13.5676 11.8615C13.7028 11.7669 13.8615 11.7168 14.0236 11.7175C14.131 11.7175 14.2374 11.7399 14.3366 11.7834C14.4358 11.8269 14.5259 11.8907 14.6016 11.9711C14.6774 12.0514 14.7375 12.1468 14.7783 12.2518C14.8191 12.3567 14.8398 12.4691 14.8394 12.5825Z" fill="#C7C7C7"/>
<path d="M18.1735 12.5825C18.1728 12.7527 18.1244 12.9189 18.0344 13.0601C17.9443 13.2013 17.8167 13.3112 17.6676 13.3759C17.5185 13.4405 17.3545 13.4571 17.1965 13.4234C17.0385 13.3898 16.8935 13.3075 16.7797 13.1868C16.666 13.0662 16.5886 12.9127 16.5574 12.7457C16.5262 12.5787 16.5426 12.4057 16.6044 12.2484C16.6662 12.0912 16.7708 11.9569 16.9049 11.8624C17.039 11.7679 17.1965 11.7175 17.3577 11.7175C17.4652 11.7175 17.5715 11.7399 17.6707 11.7834C17.7699 11.8269 17.86 11.8907 17.9358 11.9711C18.0116 12.0514 18.0716 12.1468 18.1124 12.2517C18.1532 12.3567 18.1739 12.4691 18.1735 12.5825Z" fill="#EBEBEB"/>
<path d="M20.6952 13.4547C21.1458 13.4547 21.511 13.069 21.511 12.5932C21.511 12.1174 21.1458 11.7317 20.6952 11.7317C20.2447 11.7317 19.8795 12.1174 19.8795 12.5932C19.8795 13.069 20.2447 13.4547 20.6952 13.4547Z" fill="#DD6A57"/>
<path d="M8.59086 68.8821C8.19531 67.1713 8.28902 65.375 8.86015 63.7205C9.43128 62.0659 10.4542 60.6274 11.7995 59.5867C13.1448 58.5461 14.7521 57.95 16.4182 57.874C18.0842 57.7981 19.7342 58.2455 21.1595 59.1598C22.5847 60.074 23.7213 61.4141 24.4254 63.0105C25.1294 64.6069 25.3695 66.3879 25.1151 68.1284C24.8607 69.8688 24.1233 71.4905 22.9962 72.7884C21.869 74.0863 20.4028 75.0021 18.7828 75.42C17.707 75.698 16.59 75.7493 15.4954 75.5712C14.4009 75.393 13.3503 74.9887 12.4038 74.3816C11.4573 73.7744 10.6333 72.9762 9.9791 72.0325C9.32485 71.0889 8.85311 70.0184 8.59086 68.8821Z" fill="#EBEBEB"/>
<path d="M21.0845 67.8812C19.8118 70.5943 16.7789 72.2029 16.7789 72.2029C16.7789 72.2029 13.7325 70.5943 12.4767 67.8812C11.4172 65.6185 12.0875 63.1735 13.763 62.6373C16.1629 61.8723 16.7789 66.287 16.7789 66.287C16.7789 66.287 17.395 61.8723 19.7982 62.6373C21.4738 63.1735 22.144 65.6185 21.0845 67.8812Z" fill="white"/>
<path d="M126.328 16.6539C124.994 17.5203 123.459 17.979 121.893 17.979C120.328 17.979 118.793 17.5203 117.459 16.6539C115.899 15.6352 114.696 14.1069 114.032 12.3009C113.369 10.4949 113.281 8.5097 113.783 6.64633C114.284 4.78297 115.347 3.14311 116.811 1.97548C118.275 0.807839 120.059 0.176117 121.893 0.176117C123.728 0.176117 125.512 0.807839 126.976 1.97548C128.439 3.14311 129.503 4.78297 130.004 6.64633C130.505 8.5097 130.418 10.4949 129.754 12.3009C129.091 14.1069 127.888 15.6352 126.328 16.6539Z" fill="#EBEBEB"/>
<path d="M121.893 10.7702C123.31 10.7702 124.459 9.5571 124.459 8.06066C124.459 6.56423 123.31 5.35114 121.893 5.35114C120.476 5.35114 119.328 6.56423 119.328 8.06066C119.328 9.5571 120.476 10.7702 121.893 10.7702Z" fill="white"/>
<path d="M126.328 15.5351V16.654C124.994 17.5204 123.459 17.9791 121.893 17.9791C120.328 17.9791 118.793 17.5204 117.459 16.654V15.5351C117.459 14.2932 117.926 13.1021 118.758 12.2239C119.589 11.3458 120.717 10.8524 121.893 10.8524C123.069 10.8524 124.197 11.3458 125.029 12.2239C125.86 13.1021 126.328 14.2932 126.328 15.5351Z" fill="white"/>
<path d="M15.9462 129.407L31.686 129.321L47.4291 129.289L78.9086 129.228L110.388 129.289L126.131 129.321L141.871 129.407L126.131 129.493L110.388 129.525L78.9086 129.586L47.4291 129.525L31.686 129.493L15.9462 129.407Z" fill="#263238"/>
<path d="M43.9257 150C65.2035 150 82.4526 147.377 82.4526 144.141C82.4526 140.906 65.2035 138.283 43.9257 138.283C22.648 138.283 5.3989 140.906 5.3989 144.141C5.3989 147.377 22.648 150 43.9257 150Z" fill="#EBEBEB"/>
<path d="M117.422 150C138.7 150 155.949 147.377 155.949 144.141C155.949 140.906 138.7 138.283 117.422 138.283C96.1441 138.283 78.8951 140.906 78.8951 144.141C78.8951 147.377 96.1441 150 117.422 150Z" fill="#EBEBEB"/>
<path d="M136.398 21.8371H22.8277V111.091H136.398V21.8371Z" fill="#37474F"/>
<path d="M130.664 27.6422H28.5651V91.7344H130.664V27.6422Z" fill="white"/>
<path d="M136.398 97.9256H22.8277V111.091H136.398V97.9256Z" fill="#C7C7C7"/>
<path d="M103.835 127.18H55.3938V131.455H103.835V127.18Z" fill="#37474F"/>
<path d="M98.0637 127.183H61.1616L62.0992 119.763L62.1432 119.412L62.2312 118.719L62.2752 118.369L62.3633 117.672L62.3768 117.564L62.4073 117.321L62.4987 116.624L62.5393 116.277L63.1959 111.094H96.0294L96.6454 115.981L96.6793 116.217L96.7808 117.028L96.8079 117.264L96.8485 117.564L96.9129 118.075L96.9399 118.308L97.0415 119.123L97.0753 119.355L98.0637 127.183Z" fill="#C7C7C7"/>
<path d="M130.664 27.6422H28.5651V31.1096H130.664V27.6422Z" fill="#263238"/>
<path d="M31.1816 29.383C31.1816 29.5536 31.1337 29.7203 31.0439 29.862C30.9541 30.0038 30.8265 30.1142 30.6772 30.1793C30.528 30.2444 30.3638 30.2612 30.2055 30.2277C30.0471 30.1941 29.9018 30.1117 29.7878 29.9909C29.6739 29.8701 29.5965 29.7162 29.5654 29.5489C29.5343 29.3815 29.5509 29.2082 29.6132 29.0509C29.6754 28.8935 29.7805 28.7592 29.9151 28.665C30.0497 28.5708 30.2078 28.5208 30.3692 28.5216C30.4762 28.5216 30.5821 28.5439 30.6809 28.5872C30.7797 28.6305 30.8694 28.694 30.9449 28.7741C31.0204 28.8541 31.0801 28.9491 31.1208 29.0536C31.1614 29.1581 31.1821 29.2701 31.1816 29.383Z" fill="#C7C7C7"/>
<path d="M34.4954 29.383C34.4954 29.5536 34.4475 29.7203 34.3577 29.862C34.2679 30.0038 34.1403 30.1142 33.9911 30.1793C33.8418 30.2444 33.6776 30.2612 33.5193 30.2277C33.3609 30.1941 33.2156 30.1117 33.1016 29.9909C32.9877 29.8701 32.9103 29.7162 32.8792 29.5489C32.8481 29.3815 32.8647 29.2082 32.927 29.0509C32.9892 28.8935 33.0943 28.7592 33.2289 28.665C33.3635 28.5708 33.5216 28.5208 33.6831 28.5216C33.79 28.5216 33.8959 28.5439 33.9947 28.5872C34.0935 28.6305 34.1832 28.694 34.2587 28.7741C34.3342 28.8541 34.3939 28.9491 34.4346 29.0536C34.4752 29.1581 34.4959 29.2701 34.4954 29.383Z" fill="white"/>
<path d="M37.8228 29.383C37.8228 29.5534 37.775 29.72 37.6853 29.8616C37.5957 30.0033 37.4683 30.1137 37.3192 30.1789C37.1702 30.2441 37.0061 30.2612 36.8479 30.2279C36.6896 30.1947 36.5443 30.1127 36.4302 29.9922C36.3161 29.8717 36.2384 29.7182 36.207 29.5511C36.1755 29.384 36.1916 29.2108 36.2534 29.0533C36.3151 28.8959 36.4197 28.7614 36.5538 28.6667C36.688 28.5721 36.8457 28.5215 37.007 28.5215C37.2234 28.5215 37.4309 28.6123 37.5839 28.7739C37.7368 28.9354 37.8228 29.1545 37.8228 29.383Z" fill="#DD6A57"/>
<path d="M81.6334 103.623C81.6328 104.054 81.5112 104.474 81.2843 104.831C81.0573 105.188 80.735 105.466 80.3583 105.63C79.9816 105.793 79.5674 105.835 79.1681 105.75C78.7689 105.665 78.4025 105.457 78.1154 105.152C77.8283 104.846 77.6335 104.458 77.5555 104.036C77.4775 103.614 77.5199 103.177 77.6773 102.78C77.8348 102.383 78.1001 102.045 78.4398 101.807C78.7795 101.57 79.1783 101.444 79.5856 101.447C80.1302 101.449 80.6516 101.68 81.0355 102.088C81.4193 102.496 81.6343 103.048 81.6334 103.623Z" fill="#37474F"/>
<path d="M96.8485 117.564H62.3768L62.4073 117.321L62.4986 116.624L62.5393 116.277L63.1959 111.094H96.0294L96.6454 115.981L96.6793 116.217L96.7808 117.028L96.8079 117.264L96.8485 117.564Z" fill="#A6A6A6"/>
<path d="M130.664 31.106H28.5651V45.4722H130.664V31.106Z" fill="#DD6A57"/>
<path d="M124.754 86.0937H83.4985V55.4775H124.754V86.0937ZM83.837 85.7363H124.415V55.8349H83.837V85.7363Z" fill="#EBEBEB"/>
<path d="M83.4148 55.2068L83.2219 55.4999L124.182 85.5674L124.375 85.2743L83.4148 55.2068Z" fill="#EBEBEB"/>
<path d="M83.7659 86.0616L83.5696 85.7684C83.9623 85.4789 122.875 56.7929 124.483 55.5132L124.686 55.7992C123.075 57.0824 84.1586 85.772 83.7659 86.0616Z" fill="#EBEBEB"/>
<path d="M98.9844 31.106H60.2409V43.6527H98.9844V31.106Z" fill="#263238"/>
<path d="M76.1804 49.4221H49.301V50.0012H76.1804V49.4221Z" fill="#EBEBEB"/>
<path d="M70.074 50.8805H49.301V51.4596H70.074V50.8805Z" fill="#EBEBEB"/>
<path d="M74.5692 52.339H49.301V52.918H74.5692V52.339Z" fill="#EBEBEB"/>
<path d="M76.7795 53.7974H49.301V54.3765H76.7795V53.7974Z" fill="#EBEBEB"/>
<path d="M63.548 55.2558H49.301V55.8349H63.548V55.2558Z" fill="#EBEBEB"/>
<path d="M76.265 56.7178H49.301V57.2969H76.265V56.7178Z" fill="#EBEBEB"/>
<path d="M71.7462 58.1763H49.301V58.7553H71.7462V58.1763Z" fill="#EBEBEB"/>
<path d="M77.514 59.6347H49.301V60.2138H77.514V59.6347Z" fill="#EBEBEB"/>
<path d="M76.265 61.0931H49.301V61.6722H76.265V61.0931Z" fill="#EBEBEB"/>
<path d="M77.514 62.5516H49.301V63.1307H77.514V62.5516Z" fill="#EBEBEB"/>
<path d="M38.6047 35.0344H34.641V35.6135H38.6047V35.0344Z" fill="white"/>
<path d="M38.6047 36.4929H34.641V37.0719H38.6047V36.4929Z" fill="white"/>
<path d="M38.6047 37.9513H34.641V38.5304H38.6047V37.9513Z" fill="white"/>
<path d="M124.584 49.4221H83.6678V52.6285H124.584V49.4221Z" fill="#DD6A57"/>
<path d="M47.6221 49.4185H34.641V63.1306H47.6221V49.4185Z" fill="#A6A6A6"/>
<path d="M41.1332 56.2746C42.4287 56.2746 43.479 55.1655 43.479 53.7974C43.479 52.4293 42.4287 51.3202 41.1332 51.3202C39.8377 51.3202 38.7875 52.4293 38.7875 53.7974C38.7875 55.1655 39.8377 56.2746 41.1332 56.2746Z" fill="white"/>
<path d="M45.1883 60.6356V63.1378H37.0646V60.6356C37.0646 59.4979 37.4925 58.4069 38.2543 57.6024C39.016 56.798 40.0492 56.3461 41.1265 56.3461C42.2037 56.3461 43.2369 56.798 43.9986 57.6024C44.7604 58.4069 45.1883 59.4979 45.1883 60.6356Z" fill="white"/>
<path d="M68.3478 40.7681V38.2659C68.3473 38.2351 68.3527 38.2045 68.3635 38.1759C68.3744 38.1473 68.3905 38.1212 68.411 38.0993C68.4315 38.0773 68.4559 38.0599 68.4828 38.048C68.5097 38.0361 68.5386 38.03 68.5678 38.03H69.1398C69.3427 38.03 69.5373 38.1151 69.6808 38.2666C69.8242 38.4181 69.9048 38.6236 69.9048 38.8378C69.9051 39.0136 69.8503 39.1845 69.7491 39.324C69.9082 39.4279 70.0309 39.5839 70.0985 39.7682C70.1661 39.9524 70.1749 40.155 70.1236 40.345C70.0723 40.5351 69.9636 40.7022 69.8142 40.8212C69.6648 40.9401 69.4827 41.0043 69.2955 41.004H68.5678C68.5386 41.004 68.5097 40.9979 68.4828 40.986C68.4559 40.9741 68.4315 40.9567 68.411 40.9347C68.3905 40.9128 68.3744 40.8867 68.3635 40.8581C68.3527 40.8295 68.3473 40.7989 68.3478 40.7681ZM68.7912 39.1774H69.1297C69.2159 39.1719 69.2968 39.1319 69.356 39.0654C69.4151 38.999 69.448 38.9111 69.4478 38.8199C69.4478 38.7308 69.4143 38.6454 69.3547 38.5824C69.295 38.5193 69.2141 38.4839 69.1297 38.4839H68.7912V39.1774ZM68.7912 40.5286H69.2955C69.35 40.5286 69.404 40.5172 69.4543 40.4951C69.5047 40.4729 69.5503 40.4405 69.5887 40.3996C69.6271 40.3587 69.6575 40.3102 69.678 40.2569C69.6986 40.2036 69.7089 40.1465 69.7085 40.0889C69.7085 39.9729 69.6651 39.8616 69.5877 39.7793C69.5104 39.6969 69.4054 39.6502 69.2955 39.6493H68.7912V40.5286Z" fill="white"/>
<path d="M70.7375 40.7681V38.2659C70.737 38.2351 70.7424 38.2045 70.7532 38.1759C70.7641 38.1473 70.7802 38.1212 70.8007 38.0993C70.8212 38.0773 70.8456 38.0599 70.8725 38.048C70.8994 38.0361 70.9283 38.03 70.9575 38.03C71.0167 38.03 71.0736 38.0548 71.1155 38.0991C71.1574 38.1433 71.1809 38.2033 71.1809 38.2659V40.5322H72.2742C72.3332 40.534 72.3891 40.5601 72.4302 40.6048C72.4713 40.6495 72.4943 40.7094 72.4942 40.7717C72.4934 40.833 72.4699 40.8916 72.4288 40.9349C72.3878 40.9783 72.3323 41.0031 72.2742 41.004H70.9575C70.9282 41.0045 70.8991 40.9987 70.8719 40.987C70.8448 40.9753 70.8202 40.9579 70.7997 40.9358C70.7791 40.9137 70.763 40.8875 70.7523 40.8587C70.7416 40.8299 70.7366 40.799 70.7375 40.7681Z" fill="white"/>
<path d="M75.06 38.3981C75.32 38.6876 75.4649 39.0715 75.4649 39.4705C75.4649 39.8695 75.32 40.2533 75.06 40.5429C74.938 40.6843 74.7896 40.7976 74.6242 40.8757C74.4588 40.9539 74.2799 40.9951 74.0987 40.9968C73.9139 40.9962 73.7311 40.9555 73.5617 40.8775C73.3923 40.7994 73.2398 40.6855 73.1137 40.5429C72.8582 40.2509 72.7163 39.868 72.7163 39.4705C72.7163 39.073 72.8582 38.69 73.1137 38.3981C73.2389 38.2542 73.3912 38.1396 73.5608 38.0614C73.7305 37.9832 73.9136 37.9433 74.0987 37.9441C74.2801 37.9441 74.4596 37.9846 74.6252 38.0628C74.7909 38.141 74.939 38.2553 75.06 38.3981ZM75.0092 39.4705C75.0084 39.1953 74.9107 38.9303 74.735 38.727C74.6535 38.6324 74.5542 38.5569 74.4435 38.5053C74.3327 38.4536 74.213 38.4269 74.0919 38.4269C73.9709 38.4269 73.8511 38.4536 73.7404 38.5053C73.6296 38.5569 73.5303 38.6324 73.4488 38.727C73.2702 38.9283 73.172 39.1946 73.1746 39.4705C73.1729 39.7451 73.2711 40.0099 73.4488 40.2104C73.5292 40.3069 73.6281 40.3843 73.739 40.4372C73.8499 40.4902 73.9702 40.5176 74.0919 40.5176C74.2136 40.5176 74.334 40.4902 74.4449 40.4372C74.5558 40.3843 74.6547 40.3069 74.735 40.2104C74.9128 40.0099 75.0109 39.7451 75.0092 39.4705Z" fill="white"/>
<path d="M76.1364 39.4776C76.1382 39.2741 76.1779 39.0729 76.2534 38.8856C76.3289 38.6983 76.4387 38.5285 76.5764 38.3861C76.7141 38.2436 76.8771 38.1313 77.056 38.0554C77.2349 37.9796 77.4262 37.9418 77.619 37.9441C77.9509 37.943 78.2736 38.0587 78.5363 38.273C78.5633 38.2912 78.5864 38.3151 78.6042 38.3432C78.6219 38.3714 78.6339 38.4031 78.6394 38.4364C78.6449 38.4697 78.6437 38.5039 78.636 38.5367C78.6282 38.5695 78.6141 38.6003 78.5945 38.627C78.5749 38.6537 78.5502 38.6758 78.522 38.6919C78.4938 38.7079 78.4628 38.7176 78.4309 38.7203C78.3989 38.723 78.3668 38.7186 78.3366 38.7074C78.3064 38.6963 78.2787 38.6786 78.2553 38.6555C78.0726 38.5078 77.8491 38.4275 77.619 38.4267C77.4848 38.4254 77.3516 38.4522 77.2273 38.5056C77.103 38.559 76.9899 38.6379 76.8946 38.7377C76.7996 38.832 76.7239 38.9458 76.6722 39.0721C76.6204 39.1984 76.5937 39.3346 76.5937 39.4723C76.5937 39.6099 76.6204 39.7461 76.6722 39.8724C76.7239 39.9988 76.7996 40.1126 76.8946 40.2068C76.9899 40.3067 77.103 40.3855 77.2273 40.4389C77.3516 40.4923 77.4848 40.5191 77.619 40.5178C77.8129 40.5154 78.003 40.46 78.1707 40.357V39.7743H77.5953C77.5345 39.7734 77.4765 39.7475 77.4335 39.7021C77.3905 39.6567 77.366 39.5954 77.3651 39.5312C77.3651 39.4997 77.3711 39.4684 77.3827 39.4393C77.3944 39.4102 77.4114 39.3838 77.4329 39.3618C77.4544 39.3398 77.4798 39.3226 77.5077 39.3112C77.5356 39.2998 77.5654 39.2944 77.5953 39.2953H78.3975C78.4274 39.2944 78.4572 39.2998 78.4851 39.3112C78.513 39.3226 78.5384 39.3398 78.5599 39.3618C78.5813 39.3838 78.5984 39.4102 78.61 39.4393C78.6217 39.4684 78.6277 39.4997 78.6277 39.5312V40.4642C78.6295 40.488 78.6295 40.5119 78.6277 40.5357V40.5572C78.6123 40.5993 78.5852 40.6354 78.5498 40.6608C78.2882 40.8746 77.9667 40.9903 77.6359 40.9897C77.4433 40.9949 77.2516 40.9599 77.0719 40.8866C76.8921 40.8134 76.7279 40.7033 76.5885 40.5628C76.4492 40.4223 76.3375 40.2541 76.2599 40.0679C76.1823 39.8816 76.1403 39.6811 76.1364 39.4776Z" fill="white"/>
<path d="M81.6842 39.8458H81.1866V40.7681C81.1866 40.8307 81.1631 40.8907 81.1212 40.9349C81.0793 40.9791 81.0225 41.004 80.9632 41.004C80.904 41.004 80.8472 40.9791 80.8053 40.9349C80.7634 40.8907 80.7398 40.8307 80.7398 40.7681V38.2659C80.7398 38.2033 80.7634 38.1433 80.8053 38.0991C80.8472 38.0548 80.904 38.03 80.9632 38.03H81.6842C81.8019 38.0222 81.9198 38.0399 82.0308 38.0821C82.1417 38.1243 82.2432 38.19 82.3292 38.2753C82.4151 38.3605 82.4836 38.4635 82.5304 38.5777C82.5772 38.692 82.6014 38.8152 82.6014 38.9397C82.6014 39.0642 82.5772 39.1874 82.5304 39.3016C82.4836 39.4159 82.4151 39.5188 82.3292 39.6041C82.2432 39.6893 82.1417 39.7551 82.0308 39.7973C81.9198 39.8395 81.8019 39.8572 81.6842 39.8494V39.8458ZM81.1866 39.3919H81.6842C81.7418 39.3974 81.7999 39.3901 81.8547 39.3706C81.9095 39.3511 81.9599 39.3198 82.0026 39.2786C82.0452 39.2374 82.0793 39.1872 82.1027 39.1314C82.126 39.0755 82.1381 39.0151 82.1381 38.954C82.1381 38.8929 82.126 38.8325 82.1027 38.7766C82.0793 38.7207 82.0452 38.6706 82.0026 38.6294C81.9599 38.5882 81.9095 38.5568 81.8547 38.5373C81.7999 38.5178 81.7418 38.5106 81.6842 38.5161H81.1866V39.3919Z" fill="white"/>
<path d="M85.3061 38.3981C85.566 38.6876 85.711 39.0715 85.711 39.4705C85.711 39.8695 85.566 40.2533 85.3061 40.5428C85.184 40.6843 85.0357 40.7976 84.8703 40.8757C84.7048 40.9538 84.5259 40.9951 84.3448 40.9968C84.1599 40.9962 83.9772 40.9555 83.8078 40.8775C83.6384 40.7994 83.4859 40.6855 83.3598 40.5428C83.1043 40.2509 82.9624 39.868 82.9624 39.4705C82.9624 39.0729 83.1043 38.69 83.3598 38.3981C83.4859 38.2554 83.6384 38.1416 83.8078 38.0635C83.9772 37.9854 84.1599 37.9448 84.3448 37.9441C84.5262 37.9441 84.7056 37.9845 84.8713 38.0628C85.0369 38.141 85.1851 38.2553 85.3061 38.3981ZM85.2553 39.4705C85.2545 39.1953 85.1568 38.9302 84.9811 38.727C84.8996 38.6324 84.8003 38.5569 84.6895 38.5053C84.5788 38.4536 84.4591 38.4269 84.338 38.4269C84.2169 38.4269 84.0972 38.4536 83.9864 38.5053C83.8757 38.5569 83.7764 38.6324 83.6949 38.727C83.5163 38.9283 83.4181 39.1946 83.4207 39.4705C83.419 39.7451 83.5171 40.0099 83.6949 40.2104C83.7752 40.3069 83.8742 40.3843 83.9851 40.4372C84.096 40.4902 84.2163 40.5176 84.338 40.5176C84.4597 40.5176 84.58 40.4902 84.6909 40.4372C84.8018 40.3843 84.9008 40.3069 84.9811 40.2104C85.1589 40.0099 85.257 39.7451 85.2553 39.4705Z" fill="white"/>
<path d="M86.396 40.264C86.4311 40.2187 86.4818 40.1898 86.537 40.1838C86.5922 40.1777 86.6474 40.195 86.6905 40.2319C86.9063 40.4262 87.1758 40.5416 87.4589 40.5607C87.6383 40.5643 87.8144 40.5093 87.9632 40.4034C88.0131 40.3705 88.0549 40.3253 88.0849 40.2719C88.1149 40.2184 88.1324 40.1581 88.1359 40.096C88.1361 40.0479 88.1231 40.0007 88.0986 39.9602C88.0684 39.9087 88.028 39.8648 87.9801 39.8315C87.8084 39.7328 87.6217 39.6663 87.4284 39.6349C87.2497 39.6026 87.0756 39.5462 86.9105 39.4669C86.7587 39.3964 86.6286 39.2825 86.5348 39.138C86.4739 39.03 86.4423 38.9063 86.4434 38.7806C86.4472 38.6581 86.4783 38.5382 86.5341 38.4307C86.59 38.3233 86.6691 38.2313 86.765 38.1622C86.9691 38.0113 87.2132 37.9325 87.4623 37.937C87.7823 37.9582 88.0884 38.083 88.3389 38.2944C88.384 38.3264 88.4153 38.3759 88.4261 38.4321C88.4368 38.4883 88.4262 38.5467 88.3965 38.5947C88.3821 38.6194 88.363 38.6408 88.3405 38.6575C88.3181 38.6742 88.2926 38.686 88.2657 38.692C88.2388 38.698 88.211 38.6982 88.184 38.6925C88.1571 38.6869 88.1315 38.6755 88.1088 38.659C87.9251 38.5 87.6992 38.4051 87.4623 38.3874C87.3016 38.3835 87.144 38.4335 87.0121 38.5304C86.9691 38.5599 86.9331 38.5994 86.9067 38.6459C86.8803 38.6923 86.8642 38.7445 86.8597 38.7985C86.857 38.8398 86.8665 38.881 86.8868 38.9164C86.9151 38.961 86.952 38.9988 86.9951 39.0272C87.1496 39.1252 87.3211 39.1896 87.4995 39.2167C87.6913 39.2499 87.8779 39.31 88.0546 39.3954C88.2188 39.4708 88.3588 39.595 88.4574 39.7529C88.5195 39.8606 88.5523 39.9842 88.5522 40.1103C88.5499 40.2406 88.518 40.3684 88.4591 40.4829C88.4001 40.5973 88.316 40.6952 88.2137 40.768C87.9964 40.9309 87.7355 41.0161 87.469 41.0111C87.0958 40.9894 86.7394 40.8401 86.4536 40.5857C86.4291 40.5692 86.4081 40.5476 86.3919 40.5221C86.3757 40.4967 86.3645 40.4681 86.3591 40.438C86.3538 40.4079 86.3542 40.3769 86.3606 40.347C86.3669 40.3171 86.379 40.2888 86.396 40.264Z" fill="white"/>
<path d="M90.8302 38.4982H90.1904V40.7681C90.1904 40.8297 90.1673 40.8888 90.126 40.9324C90.0847 40.9759 90.0288 41.0004 89.9704 41.0004C89.9121 41.0004 89.8561 40.9759 89.8148 40.9324C89.7736 40.8888 89.7504 40.8297 89.7504 40.7681V38.4982H89.114C89.0551 38.4973 88.9987 38.4721 88.957 38.4281C88.9153 38.384 88.8915 38.3246 88.8906 38.2623C88.8902 38.2312 88.8956 38.2003 88.9067 38.1714C88.9178 38.1426 88.9342 38.1164 88.9551 38.0944C88.9759 38.0724 89.0007 38.055 89.028 38.0433C89.0553 38.0317 89.0846 38.0259 89.114 38.0264H90.8302C90.8894 38.0264 90.9463 38.0512 90.9881 38.0955C91.03 38.1397 91.0536 38.1997 91.0536 38.2623C91.0527 38.3246 91.0289 38.384 90.9872 38.4281C90.9455 38.4721 90.8892 38.4973 90.8302 38.4982Z" fill="white"/>
<path d="M95.0647 41.8905H64.1573V42.323H95.0647V41.8905Z" fill="white"/>
<path d="M54.5002 65.1216H34.641V86.0937H54.5002V65.1216Z" fill="#EBEBEB"/>
<path d="M34.641 79.8025H54.4968V65.1181H34.641V79.8025Z" fill="#EBEBEB"/>
<path d="M36.963 69.2932C36.963 69.6368 37.0595 69.9727 37.2403 70.2583C37.421 70.544 37.678 70.7667 37.9786 70.8982C38.2792 71.0297 38.6099 71.0641 38.929 70.9971C39.2481 70.93 39.5413 70.7646 39.7713 70.5216C40.0014 70.2786 40.1581 69.9691 40.2216 69.6321C40.285 69.2951 40.2524 68.9458 40.1279 68.6284C40.0034 68.3109 39.7926 68.0396 39.5221 67.8487C39.2515 67.6578 38.9335 67.5559 38.6081 67.5559C38.3919 67.5555 38.1778 67.6001 37.978 67.6872C37.7783 67.7744 37.5967 67.9023 37.4439 68.0637C37.291 68.2251 37.1699 68.4168 37.0874 68.6278C37.0048 68.8388 36.9626 69.0649 36.963 69.2932Z" fill="#DBDBDB"/>
<path d="M43.4587 76.6104H54.5002L48.9794 68.707L43.4587 76.6104Z" fill="#C7C7C7"/>
<path d="M39.1294 76.6461H48.2449L43.6888 71.5023L39.1294 76.6461Z" fill="#DBDBDB"/>
<path d="M54.4968 76.6389H34.641V79.8025H54.4968V76.6389Z" fill="#DBDBDB"/>
<path d="M53.092 81.2609H36.0525V81.8399H53.092V81.2609Z" fill="white"/>
<path d="M47.859 82.7193H36.0525V83.2984H47.859V82.7193Z" fill="white"/>
<path d="M50.4112 84.1777H36.0525V84.7568H50.4112V84.1777Z" fill="white"/>
<path d="M77.514 65.1216H57.6549V86.0937H77.514V65.1216Z" fill="#EBEBEB"/>
<path d="M57.6549 79.8025H77.5106V65.1181H57.6549V79.8025Z" fill="#DBDBDB"/>
<path d="M67.5828 76.6461C69.669 76.6461 71.3603 74.8601 71.3603 72.6569C71.3603 70.4537 69.669 68.6676 67.5828 68.6676C65.4965 68.6676 63.8052 70.4537 63.8052 72.6569C63.8052 74.8601 65.4965 76.6461 67.5828 76.6461Z" fill="#EBEBEB"/>
<path d="M65.7752 70.4907V74.8231L70.1181 72.6569L65.7752 70.4907Z" fill="white"/>
<path d="M76.1059 81.2609H59.0664V81.8399H76.1059V81.2609Z" fill="white"/>
<path d="M70.8729 82.7193H59.0664V83.2984H70.8729V82.7193Z" fill="white"/>
<path d="M73.4251 84.1777H59.0664V84.7568H73.4251V84.1777Z" fill="white"/>
<path d="M124.601 35.0344H104.228V38.5304H124.601V35.0344Z" fill="white"/>
<path d="M124.601 35.0344H121.291V38.5304H124.601V35.0344Z" fill="#263238"/>
<path d="M123.054 36.4469L122.749 36.6909L123.688 37.9986L123.993 37.7547L123.054 36.4469Z" fill="white"/>
<path d="M123.393 35.9031C123.492 36.0413 123.551 36.2076 123.561 36.381C123.571 36.5543 123.532 36.7269 123.45 36.8771C123.367 37.0272 123.244 37.1482 123.097 37.2247C122.949 37.3011 122.783 37.3297 122.62 37.3069C122.457 37.284 122.304 37.2106 122.181 37.0961C122.057 36.9815 121.968 36.8308 121.926 36.6631C121.883 36.4954 121.888 36.3181 121.941 36.1535C121.994 35.989 122.091 35.8446 122.222 35.7386C122.398 35.5966 122.62 35.5342 122.839 35.565C123.059 35.5958 123.258 35.7174 123.393 35.9031Z" fill="white"/>
<path d="M123.129 36.1176C123.19 36.2004 123.226 36.3005 123.232 36.405C123.239 36.5095 123.216 36.6138 123.167 36.7046C123.118 36.7955 123.044 36.8688 122.955 36.9153C122.866 36.9618 122.766 36.9794 122.668 36.9658C122.569 36.9523 122.477 36.9082 122.402 36.8392C122.328 36.7702 122.274 36.6793 122.249 36.5781C122.223 36.4769 122.226 36.37 122.258 36.2708C122.29 36.1716 122.349 36.0847 122.428 36.0211C122.533 35.9361 122.666 35.8986 122.797 35.9166C122.929 35.9347 123.048 36.007 123.129 36.1176Z" fill="#263238"/>
<path d="M68.6964 144.62C68.0533 144.846 49.741 144.788 49.0302 144.324C48.7661 144.148 48.6172 141.325 48.5326 137.914C48.5123 137.178 48.4987 136.42 48.4852 135.645C48.4852 134.729 48.4615 133.804 48.4547 132.903C48.4344 128.86 48.4852 125.3 48.4852 125.3H60.4169V132.903V135.645L60.356 137.914C60.356 137.914 67.3628 141.253 68.0736 141.846C68.7844 142.44 69.3361 144.399 68.6964 144.62Z" fill="#F7A9A0"/>
<path d="M68.6964 144.62C68.0533 144.845 49.741 144.788 49.0302 144.324C48.7662 144.148 48.6172 141.325 48.5326 137.914C48.5123 137.178 48.4987 136.42 48.4852 135.644C48.4852 134.729 48.4615 133.804 48.4547 132.903H60.4102V135.644L60.3493 137.914C60.3493 137.914 67.356 141.253 68.0668 141.846C68.7776 142.44 69.3361 144.399 68.6964 144.62Z" fill="white"/>
<path d="M68.7539 144.649C68.3376 144.795 60.532 144.824 54.8488 144.699C53.5321 144.67 52.3304 144.631 51.359 144.588C50.0219 144.524 49.1249 144.445 48.9895 144.349C48.668 144.131 48.5123 139.991 48.4412 135.623H60.4271L60.3662 137.904C60.3662 137.904 67.4 141.267 68.1176 141.864C68.8352 142.461 69.3937 144.424 68.7539 144.649Z" fill="#DD6A57"/>
<path d="M68.4899 143.87C65.3995 143.78 52.9194 143.727 49.873 143.888C49.8493 143.888 49.8493 143.905 49.873 143.909C52.9194 144.066 65.3995 144.013 68.4899 143.909C68.5542 143.923 68.5542 143.873 68.4899 143.87Z" fill="#263238"/>
<path d="M60.7927 137.182C59.5775 136.939 58.0848 137.132 57.1573 138.043C57.1235 138.079 57.1573 138.132 57.2115 138.118C58.3731 137.723 59.5714 137.461 60.7859 137.335C60.801 137.33 60.8142 137.32 60.8238 137.307C60.8334 137.294 60.8389 137.278 60.8396 137.261C60.8404 137.244 60.8363 137.228 60.8279 137.214C60.8195 137.199 60.8072 137.188 60.7927 137.182Z" fill="#263238"/>
<path d="M61.6694 137.743C60.4542 137.5 58.9615 137.693 58.034 138.604C57.9968 138.64 58.034 138.694 58.0848 138.679C59.248 138.288 60.4474 138.03 61.6626 137.907C61.6728 137.908 61.683 137.906 61.6926 137.902C61.7023 137.899 61.7111 137.893 61.7186 137.886C61.7262 137.878 61.7323 137.87 61.7366 137.86C61.7409 137.85 61.7434 137.839 61.7438 137.829C61.7443 137.818 61.7427 137.807 61.7392 137.797C61.7357 137.787 61.7303 137.777 61.7234 137.769C61.7165 137.761 61.7082 137.755 61.6989 137.75C61.6896 137.746 61.6796 137.743 61.6694 137.743Z" fill="#263238"/>
<path d="M62.5427 138.304C61.3275 138.061 59.8347 138.254 58.9107 139.166C58.8734 139.201 58.9107 139.255 58.9614 139.241C60.1247 138.85 61.3241 138.591 62.5393 138.468C62.5599 138.469 62.5799 138.461 62.5948 138.446C62.6097 138.431 62.6184 138.41 62.6188 138.388C62.6193 138.366 62.6115 138.345 62.5972 138.329C62.5829 138.314 62.5633 138.305 62.5427 138.304Z" fill="#263238"/>
<path d="M63.4193 138.865C62.2042 138.622 60.7114 138.815 59.7873 139.727C59.7501 139.762 59.7874 139.816 59.8381 139.802C61.0004 139.411 62.1986 139.151 63.4126 139.026C63.4302 139.023 63.4464 139.014 63.4583 139C63.4702 138.985 63.4772 138.967 63.478 138.949C63.4788 138.93 63.4734 138.911 63.4627 138.896C63.452 138.881 63.4367 138.87 63.4193 138.865Z" fill="#263238"/>
<path d="M63.0436 134.222C62.5697 133.507 61.6897 133.836 61.1718 134.283C60.3109 135.069 59.6617 136.081 59.2898 137.217C59.2882 137.223 59.2878 137.228 59.2886 137.233C59.2893 137.239 59.2913 137.244 59.2942 137.248C59.2972 137.253 59.301 137.257 59.3055 137.259C59.3101 137.262 59.3151 137.263 59.3202 137.264C59.3195 137.289 59.3243 137.313 59.3341 137.336C59.344 137.359 59.3587 137.378 59.3771 137.394C59.3954 137.41 59.417 137.421 59.44 137.426C59.4631 137.431 59.4869 137.431 59.5098 137.425C60.5253 137.035 61.6321 136.749 62.4953 136.048C62.9996 135.637 63.4938 134.88 63.0436 134.222ZM60.9179 136.506C60.4271 136.71 59.9329 136.888 59.4489 137.11C59.7998 136.528 60.1783 135.965 60.5828 135.423C60.7829 135.17 60.9989 134.931 61.2293 134.708C61.5915 134.351 63.0267 133.636 62.8067 135.033C62.6882 135.791 61.5001 136.263 60.9179 136.506Z" fill="#263238"/>
<path d="M56.2028 136.874C57.2182 137.328 58.3556 137.307 59.4184 137.421C59.4422 137.421 59.4656 137.415 59.4868 137.404C59.508 137.393 59.5264 137.376 59.5405 137.356C59.5546 137.336 59.5641 137.313 59.5682 137.288C59.5723 137.263 59.5708 137.238 59.564 137.214C59.5688 137.212 59.5733 137.209 59.5769 137.205C59.5805 137.201 59.5832 137.197 59.5849 137.191C59.5865 137.186 59.587 137.181 59.5863 137.175C59.5856 137.17 59.5838 137.165 59.5809 137.16C58.9526 136.16 58.0865 135.351 57.0693 134.815C56.4702 134.515 55.5326 134.458 55.2381 135.248C54.9436 136.038 55.6172 136.62 56.2028 136.874ZM55.6544 135.956C55.1128 134.651 56.6699 134.983 57.1065 135.223C57.3894 135.383 57.662 135.564 57.9223 135.762C58.4571 136.166 58.9378 136.645 59.4184 137.099C58.9005 137.01 58.3759 136.971 57.8546 136.903C57.2148 136.821 55.9557 136.678 55.6544 135.956Z" fill="#263238"/>
<path d="M44.5079 71.6131C44.5079 71.6131 47.7304 105.289 47.8082 105.715C47.8082 105.772 47.8421 106.43 47.8725 107.477C48.0452 113.275 48.475 131.351 48.475 131.351H61.6457C61.6457 131.351 60.7893 109.94 60.2917 104.946C59.6621 98.5762 55.7052 71.6131 55.7052 71.6131H44.5079Z" fill="#455A64"/>
<path d="M49.3754 106.905C48.9692 99.6056 48.3588 92.3254 47.5442 85.0643C47.0839 80.9714 46.5287 76.8964 45.977 72.8178C45.977 72.782 45.9161 72.782 45.9228 72.8178C46.9383 80.0777 47.6627 87.3949 48.2923 94.7013C48.9219 102.008 49.3483 109.314 49.6293 116.639C49.7918 120.789 49.9102 124.939 50.0389 129.089C50.0425 129.106 50.0517 129.122 50.0649 129.133C50.0781 129.145 50.0946 129.151 50.1116 129.151C50.1287 129.151 50.1451 129.145 50.1584 129.133C50.1716 129.122 50.1808 129.106 50.1844 129.089C49.9881 121.689 49.7985 114.29 49.3754 106.905Z" fill="#263238"/>
<path d="M60.7994 129.114C60.4439 129.079 60.0869 129.063 59.7298 129.067C59.3372 129.067 58.9411 129.049 58.5451 129.032C57.7846 129.003 57.023 128.983 56.2603 128.971C54.7236 128.942 53.1834 128.953 51.6501 129.003L50.3841 129.049C49.9339 129.067 49.4804 129.11 49.0302 129.11C48.9963 129.11 48.9997 129.153 49.0302 129.153C49.8019 129.153 50.5838 129.221 51.359 129.253C52.1341 129.285 52.8822 129.296 53.6438 129.307C55.1771 129.328 56.7206 129.307 58.254 129.257C58.6737 129.257 59.0968 129.232 59.5199 129.217L60.1969 129.189C60.3968 129.192 60.5968 129.185 60.7961 129.167C60.8 129.169 60.8044 129.17 60.8087 129.17C60.8131 129.169 60.8173 129.168 60.821 129.166C60.8247 129.163 60.8279 129.16 60.8301 129.156C60.8324 129.152 60.8337 129.148 60.834 129.143C60.8343 129.139 60.8335 129.134 60.8318 129.13C60.83 129.126 60.8274 129.122 60.824 129.119C60.8206 129.116 60.8166 129.114 60.8123 129.113C60.808 129.112 60.8036 129.112 60.7994 129.114Z" fill="#263238"/>
<path d="M44.5079 71.6131C44.5079 71.6131 47.7304 105.289 47.8082 105.715C47.8082 105.772 47.8421 106.43 47.8725 107.477L54.0737 71.6131H44.5079Z" fill="#263238"/>
<path d="M22.3234 135.548C21.7412 135.191 9.79926 120.495 9.69094 119.63C9.64355 119.302 11.5696 117.343 13.9593 115.048C14.4738 114.547 14.9748 114.011 15.557 113.525C16.2678 112.914 16.9888 112.306 17.6894 111.738C20.7358 109.236 23.3727 107.262 23.3727 107.262L30.9447 116.531L25.5559 121.16L23.3456 123.062L21.6768 124.492C21.6768 124.492 23.8635 132.274 23.8973 133.235C23.9312 134.197 22.9022 135.905 22.3234 135.548Z" fill="#F7A9A0"/>
<path d="M22.3234 135.548C21.7412 135.191 9.79926 120.496 9.69094 119.63C9.64355 119.302 11.5696 117.343 13.9593 115.048C14.4738 114.547 14.9748 114.011 15.557 113.525C16.2678 112.914 16.9888 112.306 17.6894 111.738C20.0352 114.597 23.4438 118.64 25.5559 121.16L23.3456 123.062L21.6768 124.492C21.6768 124.492 23.8635 132.274 23.8973 133.235C23.9312 134.197 22.9022 135.906 22.3234 135.548Z" fill="white"/>
<path d="M22.3403 135.616C21.7581 135.258 9.75864 120.478 9.63678 119.609C9.58263 119.205 12.4496 116.392 15.5367 113.468L23.3659 123.037L21.6735 124.467C21.6735 124.467 23.8703 132.292 23.9075 133.26C23.9447 134.229 22.9225 135.984 22.3403 135.616Z" fill="#DD6A57"/>
<path d="M22.7194 134.897C20.7663 132.367 12.6595 122.365 10.5338 120.024C10.5169 120.006 10.5033 120.024 10.5338 120.024C12.4158 122.572 20.6005 132.506 22.6822 134.915C22.7194 134.983 22.7668 134.947 22.7194 134.897Z" fill="#263238"/>
<path d="M22.4926 124.374C21.8766 123.241 20.7663 122.179 19.5037 122.029C19.453 122.029 19.4462 122.097 19.4834 122.122C20.526 122.792 21.4974 123.578 22.3809 124.467C22.3942 124.474 22.4093 124.477 22.4243 124.476C22.4392 124.474 22.4535 124.468 22.4653 124.459C22.4771 124.449 22.486 124.436 22.4908 124.421C22.4957 124.405 22.4963 124.389 22.4926 124.374Z" fill="#263238"/>
<path d="M22.6652 125.439C22.0458 124.31 20.9356 123.244 19.673 123.098C19.6256 123.098 19.6188 123.166 19.6527 123.187C20.6931 123.86 21.6622 124.648 22.5434 125.539C22.5568 125.553 22.5746 125.562 22.5935 125.563C22.6123 125.564 22.631 125.558 22.6459 125.546C22.6608 125.533 22.671 125.516 22.6745 125.496C22.6781 125.477 22.6748 125.456 22.6652 125.439Z" fill="#263238"/>
<path d="M22.8345 126.508C22.2151 125.375 21.1048 124.313 19.8422 124.163C19.7949 124.163 19.7881 124.231 19.8219 124.256C20.8656 124.928 21.8371 125.718 22.7194 126.612C22.7335 126.622 22.7507 126.628 22.7681 126.627C22.7855 126.626 22.8022 126.619 22.8155 126.607C22.8288 126.595 22.8378 126.579 22.8413 126.561C22.8447 126.543 22.8423 126.524 22.8345 126.508Z" fill="#263238"/>
<path d="M23.0037 127.573C22.3843 126.444 21.274 125.378 20.0115 125.232C19.9641 125.232 19.9573 125.3 19.9912 125.321C21.0331 125.997 22.0033 126.789 22.8852 127.684C22.8921 127.692 22.9005 127.699 22.9098 127.704C22.9192 127.708 22.9293 127.711 22.9397 127.712C22.9501 127.713 22.9605 127.711 22.9703 127.708C22.9801 127.704 22.9892 127.698 22.997 127.691C23.0047 127.684 23.0111 127.675 23.0156 127.665C23.0202 127.655 23.0228 127.645 23.0235 127.634C23.0241 127.623 23.0227 127.612 23.0193 127.601C23.0159 127.591 23.0106 127.581 23.0037 127.573Z" fill="#263238"/>
<path d="M26.1043 124.238C26.2905 123.405 25.4882 122.894 24.835 122.78C23.7084 122.608 22.5588 122.751 21.5008 123.194C21.4972 123.198 21.4944 123.202 21.4924 123.206C21.4904 123.211 21.4894 123.216 21.4894 123.221C21.4894 123.226 21.4904 123.231 21.4924 123.236C21.4944 123.24 21.4972 123.245 21.5008 123.248C21.4819 123.263 21.4666 123.282 21.456 123.305C21.4454 123.327 21.4399 123.352 21.4399 123.377C21.4399 123.402 21.4454 123.426 21.456 123.449C21.4666 123.471 21.4819 123.49 21.5008 123.505C22.4385 124.056 23.3727 124.764 24.4423 124.992C25.0448 125.128 25.9114 125.028 26.1043 124.238ZM23.0579 124.031C22.5908 123.773 22.1406 123.491 21.6667 123.251C22.3166 123.173 22.9597 123.066 23.6164 123.055C23.9328 123.045 24.2495 123.058 24.5642 123.094C25.0482 123.159 26.5139 123.809 25.3596 124.567C24.73 124.978 23.6164 124.338 23.0579 124.031Z" fill="#263238"/>
<path d="M19.717 120.499C20.0555 121.596 20.8103 122.504 21.4264 123.43C21.4418 123.449 21.4613 123.464 21.4832 123.474C21.5051 123.483 21.5288 123.488 21.5525 123.486C21.5761 123.484 21.5991 123.477 21.6195 123.464C21.6399 123.451 21.6572 123.433 21.6701 123.412C21.6768 123.414 21.6838 123.413 21.6899 123.41C21.6961 123.406 21.701 123.401 21.7039 123.394C22.0117 122.238 22.0257 121.016 21.7445 119.852C21.5685 119.176 21.0032 118.386 20.2383 118.672C19.4733 118.958 19.524 119.859 19.717 120.499ZM20.0115 119.462C20.5903 118.172 21.3654 119.641 21.4839 120.145C21.5494 120.472 21.5946 120.803 21.6193 121.135C21.6599 121.824 21.6667 122.515 21.6396 123.205C21.362 122.73 21.0506 122.286 20.7595 121.822C20.4177 121.275 19.6967 120.177 20.0115 119.462Z" fill="#263238"/>
<path d="M55.6882 71.6131C55.6882 71.6131 54.8792 76.7069 51.7787 79.3342C51.7787 79.3342 44.5046 102.63 42.873 105.125C40.1651 109.257 26.7 120.206 26.7 120.206L18.0008 109.554C18.0008 109.554 31.0598 99.7558 32.082 98.2652C32.759 97.275 37.8566 82.294 37.7652 81.7757C36.7091 75.5988 39.3494 71.5988 39.3494 71.5988L55.6882 71.6131Z" fill="#455A64"/>
<path d="M40.3784 72.5211C39.8024 73.7501 39.3911 75.0579 39.1564 76.4066C39.045 77.0879 38.9873 77.7778 38.9838 78.4692C38.9838 79.2127 39.0583 79.9526 39.0819 80.6926C39.1116 81.4503 39.0387 82.2086 38.8653 82.9445C38.6995 83.6595 38.4896 84.3744 38.2899 85.0678C37.8769 86.4977 37.4391 87.9275 36.9765 89.3573C36.0559 92.1955 35.0404 94.9944 33.9301 97.754C33.7005 98.4016 33.3724 99.0053 32.9587 99.5413C32.4769 100.052 31.9485 100.512 31.3813 100.914L27.8678 103.695L20.8001 109.296V109.314C20.7223 109.375 20.8001 109.514 20.8814 109.454C23.2508 107.584 24.7435 106.394 27.113 104.524L30.6976 101.697C31.2628 101.25 31.8383 100.814 32.39 100.353C32.8773 99.964 33.2879 99.4782 33.5984 98.9229C33.9073 98.3111 34.1797 97.6796 34.4142 97.032C34.6917 96.317 34.9659 95.6271 35.2299 94.923C35.7512 93.5432 36.2477 92.1538 36.7193 90.755C37.1909 89.3561 37.6422 87.9263 38.0732 86.4655C38.2865 85.7506 38.4964 85.0142 38.6995 84.2886C38.9113 83.5947 39.0786 82.8865 39.2004 82.1689C39.4103 80.6997 39.1023 79.2163 39.17 77.74C39.2277 76.3113 39.502 74.9018 39.9823 73.5648C40.11 73.2176 40.2547 72.8776 40.4156 72.5461C40.4393 72.5139 40.3919 72.4853 40.3784 72.5211Z" fill="#263238"/>
<path d="M44.9141 72.6962C44.6852 73.6811 44.1573 74.5599 43.4112 75.1984C42.5837 75.8838 41.5852 76.2999 40.5375 76.3959C40.3615 76.421 40.3581 76.7033 40.5375 76.6962C42.6801 76.6068 44.7821 75.0555 44.9954 72.6927C45.0055 72.6355 44.9243 72.6355 44.9141 72.6962Z" fill="#263238"/>
<path d="M53.7656 77.6935C53.003 78.0615 52.2792 78.5132 51.6061 79.0411C50.8919 79.5594 50.2352 80.1528 49.5481 80.7069C49.5434 80.7116 49.5404 80.7179 49.5398 80.7247C49.5391 80.7315 49.5408 80.7383 49.5444 80.7439C49.5481 80.7495 49.5536 80.7535 49.5598 80.7553C49.5661 80.757 49.5727 80.7563 49.5785 80.7533C50.3029 80.2672 51.0611 79.8383 51.7787 79.3235C52.4983 78.8609 53.1779 78.3322 53.8096 77.7435C53.8116 77.7369 53.8119 77.7299 53.8104 77.7231C53.809 77.7164 53.8059 77.7101 53.8014 77.705C53.7969 77.7 53.7913 77.6962 53.785 77.6942C53.7787 77.6922 53.772 77.6919 53.7656 77.6935Z" fill="#263238"/>
<path d="M53.8604 72.9643C53.769 73.4862 53.6472 74.0045 53.5422 74.5264C53.4373 75.0483 53.3662 75.513 53.2443 75.9955C53.144 76.463 52.9197 76.8908 52.5978 77.2288C52.4151 77.4075 52.2153 77.5648 52.0224 77.7256C51.9175 77.815 51.8058 77.9008 51.6839 77.9902C51.6839 77.9187 51.7076 77.8507 51.7211 77.7793C51.7516 77.5791 51.7855 77.3789 51.8159 77.1823C51.887 76.739 51.9547 76.2994 52.0156 75.8561C52.1443 74.9875 52.2593 74.1082 52.432 73.2467C52.432 73.2145 52.388 73.2002 52.3778 73.2467C52.1747 74.0974 51.9479 74.941 51.7685 75.8025C51.6805 76.2243 51.3691 78.3047 51.3556 78.4548C51.342 78.605 51.3285 78.7587 51.3251 78.9124C51.3048 79.0665 51.3048 79.2229 51.3251 79.3771C51.3251 79.4164 51.3759 79.4093 51.3894 79.3771C51.4484 79.2329 51.4905 79.0817 51.5147 78.9267C51.5519 78.7766 51.5824 78.6264 51.6094 78.4763C51.6094 78.4227 51.6094 78.3655 51.6331 78.3083C51.8261 78.1868 52.0055 78.0187 52.1883 77.8829C52.371 77.7471 52.5843 77.5862 52.7671 77.4218C53.1107 77.1172 53.3586 76.7096 53.4779 76.2529C53.5968 75.7619 53.6738 75.2607 53.7081 74.7552C53.7724 74.1654 53.8164 73.5684 53.8942 72.9679C53.8898 72.9633 53.8841 72.9604 53.8779 72.9598C53.8718 72.9591 53.8656 72.9607 53.8604 72.9643Z" fill="#263238"/>
<path d="M27.9254 118.143C27.7324 117.836 27.4785 117.55 27.2484 117.26C27.0182 116.971 26.7406 116.621 26.4935 116.295C26.0163 115.666 25.5322 115.048 25.0414 114.429C24.0733 113.189 23.0579 111.956 22.0052 110.776C21.7175 110.447 21.4297 110.122 21.1386 109.797C20.8475 109.471 20.5057 109.118 20.2112 108.757C20.1909 108.732 20.1604 108.757 20.1807 108.789C20.6918 109.4 21.1522 110.076 21.6362 110.708C22.1203 111.341 22.6043 111.952 23.0985 112.567C24.0869 113.807 25.1091 115.026 26.1449 116.21C26.436 116.535 26.7169 116.867 27.0047 117.196C27.157 117.371 27.3127 117.554 27.4684 117.714C27.6241 117.875 27.7256 118.04 27.878 118.183C27.8829 118.189 27.8901 118.194 27.8981 118.195C27.906 118.196 27.914 118.193 27.9203 118.188C27.9266 118.183 27.9306 118.175 27.9316 118.167C27.9325 118.158 27.9303 118.15 27.9254 118.143Z" fill="#263238"/>
<path d="M51.711 63.9242C50.8664 64.3325 49.9806 64.6383 49.0708 64.8357C50.8275 62.9412 51.8058 57.8831 51.4876 58.5587C49.9678 61.7759 47.0635 64.993 46.2478 64.993C44.2675 64.7237 42.4244 63.78 40.9978 62.3049C43.1844 60.2138 44.3048 55.1057 44.122 55.3881C42.1724 58.4015 39.2884 59.7098 38.8687 59.5954C37.6772 57.6151 37.2169 55.8278 37.4741 55.7241C39.3629 54.9842 41.4412 52.3461 43.4214 49.5008C45.3778 46.6983 46.6878 43.8923 49.0674 41.5545C51.2405 39.4097 54.5137 39.7493 55.9996 41.5187C59.8889 46.1478 52.9058 63.3415 51.711 63.9242Z" fill="#263238"/>
<path d="M51.9581 40.6072C50.5804 40.6072 49.2163 41.5759 48.2652 42.5625C46.9992 43.878 45.9939 45.4758 44.8633 46.9164C42.6663 49.7702 40.0614 52.245 37.1424 54.2514C37.1289 54.2595 37.1191 54.2728 37.1149 54.2886C37.1108 54.3043 37.1128 54.3212 37.1204 54.3354C37.128 54.3496 37.1407 54.3601 37.1556 54.3644C37.1705 54.3688 37.1865 54.3667 37.2 54.3586C40.1922 53.0039 42.5955 50.5696 44.7043 47.9744C45.7807 46.6447 46.7352 45.2077 47.7507 43.853C48.3056 43.097 48.9559 42.4247 49.6834 41.8548C50.3761 41.3647 51.1557 41.0279 51.975 40.8646C52.0022 40.856 52.0258 40.8378 52.042 40.8131C52.0581 40.7885 52.0659 40.7587 52.0639 40.7288C52.0619 40.6989 52.0504 40.6705 52.0312 40.6484C52.0119 40.6263 51.9862 40.6118 51.9581 40.6072Z" fill="#263238"/>
<path d="M51.9378 55.7956C52.8585 57.8081 59.2492 64.2495 64.5059 66.2477C66.4353 66.9805 74.7553 64.8715 76.7254 63.9921C79.0305 62.9591 77.4971 56.8859 76.0247 56.893C74.1833 56.893 66.2931 58.8983 64.6074 58.8554C62.5562 58.8018 57.797 55.4918 53.7521 53.8296C51.667 52.9753 51.227 54.2407 51.9378 55.7956Z" fill="#F7A9A0"/>
<path d="M76.7254 63.9921C77.4667 63.7062 80.7568 62.0761 81.5759 61.4077C82.3951 60.7393 84.6223 58.6338 84.2026 57.9189C83.7829 57.204 83.0822 57.7652 83.0822 57.7652C83.0822 57.7652 83.8878 56.7179 83.4004 56.0387C82.9129 55.3595 81.8569 56.271 81.8569 56.271C81.8569 56.271 82.6083 55.1343 82.0803 54.4837C81.5522 53.8332 80.6281 54.9449 80.6281 54.9449C80.6281 54.9449 81.3627 53.9404 80.7161 53.608C79.9376 53.204 78.78 55.2237 77.8221 55.8921C77.6054 56.0423 73.2085 58.6303 73.2085 58.6303L76.7254 63.9921Z" fill="#F7A9A0"/>
<path d="M80.7094 54.8626C79.853 56.3461 79.2369 56.8394 77.7882 57.5972C77.7611 57.5972 77.7882 57.6615 77.8051 57.6472C79.2877 57.0395 80.1475 56.5427 80.7771 54.9055C80.8109 54.8233 80.75 54.7947 80.7094 54.8626Z" fill="#263238"/>
<path d="M81.9212 56.1531C80.9057 57.6115 80.2287 58.1513 78.78 59.0628C78.7597 59.0628 78.78 59.1164 78.8003 59.1057C80.3032 58.3336 81.1494 57.8153 81.9821 56.2174C82.0193 56.1459 81.955 56.0852 81.9212 56.1531Z" fill="#263238"/>
<path d="M83.0043 57.8081C81.9245 59.145 81.2205 59.7706 79.6939 60.464C79.6901 60.4654 79.6866 60.4676 79.6837 60.4705C79.6807 60.4733 79.6782 60.4767 79.6765 60.4805C79.6748 60.4843 79.6738 60.4885 79.6736 60.4927C79.6734 60.4969 79.6739 60.5012 79.6753 60.5051C79.6766 60.5091 79.6787 60.5128 79.6813 60.516C79.684 60.5191 79.6873 60.5217 79.6909 60.5235C79.6945 60.5253 79.6984 60.5264 79.7024 60.5266C79.7064 60.5268 79.7104 60.5262 79.7142 60.5248C81.1136 60.1292 82.3091 59.1673 83.0415 57.8474C83.0957 57.7545 83.072 57.7259 83.0043 57.8081Z" fill="#263238"/>
<path d="M71.9053 58.38C72.5274 57.5608 73.2063 56.7913 73.9362 56.078C74.6606 55.4668 78.1504 54.2407 78.4449 55.0056C78.824 56.0137 76.942 57.1504 75.9502 57.565C75.9502 57.565 76.8303 59.8957 75.6422 61.0145C74.4541 62.1333 71.9053 58.38 71.9053 58.38Z" fill="#F7A9A0"/>
<path d="M78.4517 55.3345C78.1673 56.5177 76.8337 56.986 75.9028 57.4792C75.8889 57.4857 75.8766 57.4956 75.867 57.5082C75.8575 57.5207 75.8509 57.5355 75.8479 57.5513C75.845 57.5671 75.8456 57.5834 75.8499 57.5989C75.8541 57.6143 75.8618 57.6285 75.8724 57.6401C76.177 58.6446 76.3327 60.1423 75.6964 61.0395C75.6761 61.0645 75.6964 61.0967 75.7302 61.0753C76.5392 60.2209 76.4986 58.7268 76.0958 57.6508C77.0605 57.1647 78.3772 56.6321 78.4652 55.3416C78.4618 55.3309 78.4517 55.3274 78.4517 55.3345Z" fill="#263238"/>
<path d="M68.3274 58.28C68.3274 58.28 69.546 57.8939 69.6577 58.2514C69.7694 58.6088 69.1466 59.1236 69.1466 59.1236C69.1466 59.1236 69.9962 59.1236 70.1045 59.6919C70.2128 60.2603 69.3226 60.6213 69.3226 60.6213C69.3226 60.6213 70.2433 60.9001 70.2737 61.3041C70.3143 61.8474 69.529 62.1334 69.529 62.1334C69.529 62.1334 70.4227 62.2084 70.4565 62.741C70.4904 63.2736 69.678 63.5346 69.678 63.5346C69.678 63.5346 70.619 63.6597 70.7104 64.06C70.8153 64.5355 69.8912 64.9608 69.8912 64.9608C69.8912 64.9608 70.7815 65.1146 70.8356 65.5256C70.8898 65.9367 70.0097 66.2763 69.5494 66.2799L68.3274 58.28Z" fill="white"/>
<path d="M69.7051 66.3478C69.7051 66.3478 65.1863 66.6194 64.5499 66.3799C63.8572 66.1167 63.1791 65.8124 62.519 65.4684C57.5127 62.8912 53.5456 58.3729 52.3338 56.7179C51.0577 54.9699 51.0543 52.8645 53.2037 53.5222C53.3628 53.5722 53.5422 53.6366 53.7149 53.7152C56.3686 54.877 63.6766 58.6767 64.4348 58.7375C65.193 58.7983 68.561 58.0977 68.561 58.0977L69.7051 66.3478Z" fill="#DD6A57"/>
<path d="M62.5122 65.4863C57.5059 62.909 53.5388 58.3907 52.327 56.7357C51.0509 54.9877 51.0476 52.8823 53.197 53.54L62.5122 65.4863Z" fill="#263238"/>
<path d="M56.3348 67.0198L56.4228 75.2127C55.478 75.2682 54.531 75.2682 53.5862 75.2127C51.0915 75.0887 48.6053 74.8166 46.1395 74.3977C43.699 73.9938 40.8252 73.4076 37.5249 72.5568C37.5249 72.5568 43.4011 58.0512 48.0181 53.7259C48.1241 53.6259 48.2291 53.5329 48.3329 53.4471L48.3938 53.3935C50.5094 51.6384 52.652 52.6 53.9653 54.1656C54.3038 54.5552 57.6887 60.9037 57.7801 63.145C57.8444 65.1288 56.3348 67.0198 56.3348 67.0198Z" fill="#DD6A57"/>
<path d="M53.5862 75.2199C51.0915 75.0958 48.6053 74.8237 46.1395 74.4049C46.478 70.5836 47.6356 57.6043 48.0079 53.7331C48.114 53.633 48.2189 53.54 48.3227 53.4543L53.5862 75.2199Z" fill="#263238"/>
<path d="M47.1482 56.7786C47.7845 61.4578 49.3923 70.9197 51.887 73.2217C55.1636 76.2494 62.7457 76.7963 64.9933 76.9678C65.9715 77.0429 66.8212 70.2047 66.0934 69.4112C65.3656 68.6176 57.5838 68.346 56.9068 67.9635C56.2298 67.581 52.8449 60.5033 51.1762 56.8823C49.064 52.3533 46.8977 54.9341 47.1482 56.7786Z" fill="#F7A9A0"/>
<path d="M72.0508 70.5979C73.2761 70.623 74.911 69.5863 75.1615 70.5121C75.3849 71.3379 74.1867 71.942 74.1867 71.942C74.1867 71.942 75.7437 71.7239 75.7471 72.6855C75.7505 73.647 74.3051 74.0188 74.3051 74.0188C74.3051 74.0188 75.7471 73.9008 75.6862 74.8588C75.6252 75.8168 74.2984 76.2493 74.2984 76.2493C74.2984 76.2493 74.7113 76.4459 74.3796 77.1001C73.9023 78.0366 71.7597 78.4334 70.5919 78.3619C69.4241 78.2904 65.2099 77.1072 64.5668 76.9321L64.9493 69.0251C64.9493 69.0251 67.0784 68.1458 68.2123 67.8384C69.3463 67.5309 73.3404 67.6132 73.3878 68.6605C73.4352 69.7079 70.6122 69.6006 69.9183 69.7329C69.2244 69.8651 69.133 70.0582 69.4884 70.2583C70.3317 70.4491 71.189 70.5627 72.0508 70.5979Z" fill="#F7A9A0"/>
<path d="M74.119 71.9384C72.3927 72.6533 71.5194 72.6533 69.7186 72.2959C69.6848 72.2959 69.6645 72.3423 69.7186 72.353C71.4415 72.8785 72.5349 73.0465 74.163 72.0349C74.2341 71.9741 74.2002 71.9205 74.119 71.9384Z" fill="#263238"/>
<path d="M74.3729 73.9688C72.5179 74.5443 71.5736 74.5514 69.6712 74.3262C69.6442 74.3262 69.6374 74.3691 69.6712 74.3763C71.5194 74.7695 72.6127 74.916 74.3932 74.0832C74.4676 74.0331 74.4575 73.9402 74.3729 73.9688Z" fill="#263238"/>
<path d="M74.2747 76.2351C72.4435 76.6569 71.4043 76.7105 69.5866 76.2351C69.5776 76.2322 69.568 76.2333 69.5597 76.238C69.5515 76.2427 69.5453 76.2506 69.5426 76.2601C69.5399 76.2696 69.5409 76.2798 69.5453 76.2885C69.5498 76.2972 69.5573 76.3037 69.5663 76.3066C71.0775 76.958 72.7703 76.958 74.2815 76.3066C74.3898 76.2529 74.3898 76.2101 74.2747 76.2351Z" fill="#263238"/>
<path d="M60.0683 67.8777C60.0683 67.8777 61.4527 67.9134 61.4561 68.3245C61.4595 68.7356 60.6471 69.0394 60.6471 69.0394C60.6471 69.0394 61.5204 69.3576 61.4561 69.9724C61.3918 70.5872 60.3492 70.6551 60.3492 70.6551C60.3492 70.6551 61.2158 71.2735 61.1176 71.7061C60.989 72.2816 60.0818 72.2994 60.0818 72.2994C60.0818 72.2994 60.9856 72.6962 60.8468 73.261C60.708 73.8258 59.7873 73.8043 59.7873 73.8043C59.7873 73.8043 60.7216 74.269 60.6877 74.7159C60.6471 75.2449 59.5538 75.3593 59.5538 75.3593C59.5538 75.3593 60.4237 75.8347 60.3492 76.2815C60.2748 76.7283 59.2525 76.7641 58.7753 76.6032L60.0683 67.8777Z" fill="white"/>
<path d="M60.6471 67.8134L59.1205 76.7498C59.1205 76.7498 52.7298 75.0233 51.3725 72.8821C49.6801 70.2083 47.4765 61.8009 46.9958 57.322C46.5152 52.843 49.5074 52.7179 51.2506 56.3819C52.9431 59.9386 56.5379 67.0019 56.8188 67.3058C57.1844 67.7133 60.6471 67.8134 60.6471 67.8134Z" fill="#DD6A57"/>
<path d="M56.3754 66.3978C56.2027 66.0404 55.8609 65.2861 55.6984 64.968C55.3599 64.3103 55.0045 63.6525 54.6491 62.9984C54.2937 62.3443 53.945 61.6865 53.5795 61.0395C53.5151 60.9323 53.4576 60.8179 53.3933 60.7071C53.3933 60.6285 53.1225 59.7205 53.0819 59.4917C53.0819 59.456 53.021 59.4667 53.0311 59.4917C53.0859 59.7161 53.1255 59.9442 53.1496 60.1745C53.1496 60.2174 53.1496 60.2603 53.1767 60.3032C52.9431 59.8778 52.7095 59.4489 52.4726 59.0378C52.4557 59.0056 52.4083 59.0378 52.4252 59.0628C52.8957 59.9564 53.153 60.5284 53.5084 61.2576C53.8638 61.9868 54.2226 62.6624 54.5848 63.3594C54.947 64.0565 55.3261 64.7499 55.6984 65.4398C55.9147 65.8538 56.1508 66.2559 56.4058 66.6445C56.5683 66.8875 56.5683 66.7517 56.3754 66.3978Z" fill="#263238"/>
<path d="M50.198 53.1218C50.2724 53.4293 51.7008 55.4167 53.0413 55.3309C53.4779 55.2988 53.4305 52.7751 53.4305 52.7751L53.4678 52.5892L53.9823 49.9691L51.0476 48.0495L50.6245 47.7957C50.6245 47.7957 50.5297 48.5106 50.418 49.4293C50.418 49.4722 50.418 49.5151 50.418 49.558C50.4081 49.6063 50.4013 49.6553 50.3977 49.7045C50.3774 49.8404 50.3604 49.9798 50.3435 50.1156C50.3266 50.2515 50.3198 50.3229 50.313 50.4338C50.3063 50.5446 50.2927 50.6518 50.2792 50.7626C50.2002 51.5461 50.173 52.3344 50.198 53.1218Z" fill="#F7A9A0"/>
<path d="M50.418 49.4293C50.678 50.158 51.0852 50.8182 51.6113 51.3639C52.1374 51.9096 52.7698 52.3277 53.4644 52.5892L53.9789 49.9691L51.0442 48.0495L50.6211 47.7957C50.6211 47.7957 50.5297 48.5249 50.418 49.4293Z" fill="#263238"/>
<path d="M50.1979 47.3417C50.1979 47.3417 49.1825 45.9119 48.5766 46.2693C47.9707 46.6268 48.7255 48.7715 49.4702 49.0289C49.5633 49.0711 49.6635 49.093 49.7648 49.0932C49.8661 49.0935 49.9664 49.0721 50.0597 49.0303C50.1529 48.9886 50.2373 48.9274 50.3076 48.8503C50.3779 48.7733 50.4327 48.6821 50.4687 48.5821L50.1979 47.3417Z" fill="#F7A9A0"/>
<path d="M48.8135 46.8734C48.8135 46.8734 48.7966 46.8734 48.8135 46.8949C49.0552 47.0138 49.2704 47.1851 49.4454 47.3975C49.6203 47.61 49.751 47.8589 49.829 48.1281C49.7973 48.0746 49.7552 48.0289 49.7055 47.9939C49.6558 47.959 49.5995 47.9357 49.5406 47.9255C49.4816 47.9154 49.4213 47.9186 49.3636 47.9351C49.306 47.9515 49.2523 47.9808 49.2062 48.0209C49.2062 48.0209 49.2062 48.0566 49.2062 48.0531C49.2963 48.0201 49.3939 48.0176 49.4855 48.0458C49.577 48.0739 49.658 48.1314 49.7173 48.2103C49.8153 48.344 49.9003 48.4877 49.9712 48.6393C49.9949 48.6893 50.0795 48.6607 50.0592 48.6035C50.0558 47.8958 49.5244 46.9271 48.8135 46.8734Z" fill="#263238"/>
<path d="M57.2859 45.7404C57.7598 50.4088 55.1636 51.2381 54.209 51.3417C53.3459 51.4418 50.3875 51.6527 49.4702 47.0522C48.5529 42.4517 50.4484 40.7502 52.415 40.4178C54.3817 40.0854 56.812 41.072 57.2859 45.7404Z" fill="#F7A9A0"/>
<path d="M56.3991 45.1112C56.2967 45.0988 56.195 45.0809 56.0944 45.0575C55.9856 45.0537 55.881 45.0123 55.7966 44.9396C55.7754 44.9103 55.764 44.8745 55.764 44.8377C55.764 44.8009 55.7754 44.7651 55.7966 44.7358C55.8447 44.6822 55.9056 44.6433 55.9729 44.6232C56.0403 44.6031 56.1115 44.6025 56.1791 44.6214C56.3216 44.639 56.453 44.7116 56.548 44.8252C56.5694 44.8523 56.5826 44.8855 56.5858 44.9206C56.589 44.9557 56.5822 44.991 56.5661 45.0219C56.55 45.0528 56.5254 45.0779 56.4956 45.0938C56.4658 45.1097 56.4322 45.1158 56.3991 45.1112Z" fill="#263238"/>
<path d="M53.3256 45.3435C53.4305 45.3257 53.5219 45.2899 53.6235 45.2649C53.7326 45.2517 53.8347 45.2016 53.9146 45.1219C53.9357 45.0926 53.9471 45.0569 53.9471 45.02C53.9471 44.9832 53.9357 44.9474 53.9146 44.9182C53.8624 44.8692 53.7989 44.8357 53.7305 44.8213C53.6621 44.8068 53.5912 44.8119 53.5253 44.836C53.3904 44.8677 53.2705 44.9487 53.1868 45.0647C53.1697 45.0915 53.1597 45.1227 53.158 45.155C53.1563 45.1872 53.163 45.2194 53.1772 45.248C53.1915 45.2766 53.2128 45.3006 53.2389 45.3174C53.265 45.3342 53.295 45.3433 53.3256 45.3435Z" fill="#263238"/>
<path d="M53.9586 46.5017C53.9586 46.5017 53.9349 46.5196 53.9383 46.5339C53.9654 46.852 53.9383 47.2202 53.6776 47.3453V47.3632C54.0127 47.2917 54.033 46.7984 53.9586 46.5017Z" fill="#263238"/>
<path d="M53.6709 46.1836C53.1834 46.1836 53.2037 47.2059 53.6539 47.213C54.1041 47.2202 54.0804 46.1836 53.6709 46.1836Z" fill="#263238"/>
<path d="M53.4779 46.2443C53.3967 46.3051 53.3154 46.4123 53.2105 46.4231C53.1056 46.4338 53.0006 46.3337 52.9194 46.23H52.9025C52.9025 46.4266 52.9803 46.6268 53.1834 46.6518C53.3865 46.6769 53.4948 46.4981 53.5219 46.2944C53.5456 46.2765 53.5219 46.2229 53.4779 46.2443Z" fill="#263238"/>
<path d="M55.8507 46.3158C55.8507 46.3158 55.8778 46.3158 55.8744 46.3444C55.8744 46.6625 55.915 47.0307 56.1892 47.1308C56.1892 47.1308 56.1892 47.1522 56.1892 47.1308C55.8541 47.1058 55.7999 46.6161 55.8507 46.3158Z" fill="#263238"/>
<path d="M56.1181 45.9762C56.6056 45.9334 56.6563 46.9628 56.2061 47.0057C55.7559 47.0486 55.7119 46.0156 56.1181 45.9762Z" fill="#263238"/>
<path d="M56.3246 46.0334C56.4059 46.0835 56.4871 46.18 56.5785 46.18C56.6699 46.18 56.7579 46.0656 56.8222 45.9548C56.8222 45.9548 56.8222 45.9548 56.8391 45.9548C56.8391 46.1514 56.8019 46.3623 56.6225 46.4088C56.4431 46.4552 56.3348 46.2908 56.284 46.0942C56.2705 46.0692 56.2942 46.012 56.3246 46.0334Z" fill="#263238"/>
<path d="M54.1583 48.9503C54.2294 49.029 54.2971 49.1326 54.4088 49.1469C54.5251 49.1483 54.6404 49.124 54.7473 49.0754C54.7473 49.0754 54.7676 49.0754 54.7473 49.0754C54.7024 49.1373 54.6426 49.1853 54.5741 49.2142C54.5055 49.2432 54.4309 49.252 54.358 49.2399C54.2978 49.2192 54.2444 49.181 54.2037 49.1299C54.163 49.0787 54.1367 49.0165 54.1278 48.9503C54.1244 48.9468 54.1481 48.9396 54.1583 48.9503Z" fill="#263238"/>
<path d="M55.387 47.7528C55.387 47.7528 55.4649 48.2282 55.4716 48.4677C55.4716 48.4891 55.4209 48.4999 55.3464 48.507C55.1624 48.5532 54.9698 48.5442 54.7904 48.4811C54.611 48.4179 54.4519 48.3031 54.3309 48.1496C54.3309 48.1281 54.3309 48.1031 54.3648 48.1174C54.6416 48.3039 54.9682 48.3904 55.2956 48.364C55.2956 48.3033 55.1399 47.5562 55.1738 47.5526C55.3398 47.5623 55.5038 47.5959 55.6612 47.6527C55.5258 46.6554 55.2415 45.6938 55.123 44.7001C55.1251 44.6938 55.129 44.6883 55.1341 44.6844C55.1393 44.6806 55.1454 44.6785 55.1518 44.6785C55.1581 44.6785 55.1643 44.6806 55.1694 44.6844C55.1746 44.6883 55.1784 44.6938 55.1805 44.7001C55.513 45.7227 55.7488 46.7776 55.8846 47.8493C55.915 47.9422 55.4716 47.7885 55.387 47.7528Z" fill="#263238"/>
<path d="M49.7308 47.3632C50.462 47.3632 50.5127 45.7368 50.5127 45.7368C50.5127 45.7368 51.9885 45.6224 52.3135 43.3382C52.3204 44.0141 52.1404 44.6775 51.7956 45.247C51.7956 45.247 54.3783 44.743 55.3091 42.3516C55.3091 42.3516 54.9706 43.5598 54.5746 44.0102C55.2207 43.743 55.7622 43.253 56.1113 42.6197C56.1113 42.6197 56.6631 43.9102 57.0422 44.2497C57.0422 44.2497 56.5818 39.4419 52.3947 40.2998C52.3947 40.2998 49.7647 40.7002 48.976 42.9879C48.1873 45.2756 49.7308 47.3632 49.7308 47.3632Z" fill="#263238"/>
<path d="M50.4755 52.4606C49.9339 52.5142 49.0336 52.7215 47.903 53.8439C47.903 53.8439 50.6752 55.742 53.0616 55.4882C53.9146 55.3989 54.077 53.8832 54.077 53.8832C53.6114 53.383 53.0477 52.9964 52.4255 52.7507C51.8033 52.5049 51.1378 52.4059 50.4755 52.4606Z" fill="#F7A9A0"/>
<path d="M105.24 144.699C105.883 144.928 124.293 144.996 124.997 144.531C125.265 144.356 125.431 141.525 125.539 138.097C125.563 137.357 125.583 136.592 125.596 135.816L127.089 125.45L114.788 125.364L113.627 135.73L113.675 138.014C113.675 138.014 106.614 141.317 105.89 141.914C105.165 142.511 104.597 144.484 105.24 144.699Z" fill="#DD6A57"/>
<path d="M105.24 144.699C105.883 144.928 124.293 144.996 124.997 144.531C125.336 144.316 125.498 140.181 125.596 135.816L113.621 135.734L113.668 138.018C113.668 138.018 106.607 141.321 105.883 141.918C105.158 142.515 104.597 144.484 105.24 144.699Z" fill="white"/>
<path d="M105.24 144.699C105.883 144.928 124.293 144.996 124.997 144.531C125.265 144.356 125.431 141.525 125.539 138.097L113.668 138.018C113.668 138.018 106.607 141.321 105.883 141.918C105.158 142.515 104.597 144.484 105.24 144.699Z" fill="#DD6A57"/>
<path d="M105.507 143.92C108.591 143.852 121.047 143.884 124.104 144.063C124.127 144.063 124.127 144.084 124.104 144.084C121.057 144.224 108.591 144.084 105.507 143.973C105.439 143.973 105.439 143.923 105.507 143.92Z" fill="#263238"/>
<path d="M107.074 141.224C107.417 141.216 107.758 141.283 108.076 141.421C108.393 141.559 108.68 141.764 108.919 142.025C109.348 142.493 109.591 143.118 109.596 143.77C109.596 143.787 109.562 143.787 109.559 143.77C109.455 143.124 109.157 142.531 108.708 142.08C108.259 141.629 107.683 141.344 107.068 141.267C107.062 141.266 107.057 141.263 107.054 141.258C107.051 141.254 107.05 141.248 107.051 141.242C107.051 141.237 107.054 141.232 107.059 141.228C107.063 141.225 107.069 141.223 107.074 141.224Z" fill="#263238"/>
<path d="M112.47 138.336C113.705 138.336 115.137 138.79 115.899 139.859C115.929 139.898 115.872 139.945 115.838 139.923C114.761 139.322 113.626 138.842 112.453 138.493C112.437 138.487 112.424 138.475 112.415 138.459C112.407 138.444 112.403 138.426 112.405 138.408C112.407 138.39 112.414 138.374 112.426 138.361C112.438 138.348 112.453 138.339 112.47 138.336Z" fill="#263238"/>
<path d="M111.515 138.726C112.751 138.726 114.183 139.176 114.944 140.249C114.975 140.288 114.917 140.334 114.883 140.313C113.806 139.711 112.671 139.231 111.498 138.883C111.483 138.876 111.469 138.864 111.461 138.849C111.452 138.833 111.448 138.816 111.45 138.798C111.452 138.78 111.46 138.763 111.471 138.75C111.483 138.737 111.498 138.729 111.515 138.726Z" fill="#263238"/>
<path d="M110.561 139.123C111.796 139.123 113.225 139.573 113.99 140.645C114.02 140.685 113.963 140.728 113.925 140.71C112.849 140.107 111.714 139.627 110.54 139.28C110.525 139.273 110.512 139.261 110.503 139.245C110.495 139.229 110.491 139.211 110.494 139.193C110.496 139.175 110.504 139.159 110.516 139.146C110.528 139.133 110.544 139.125 110.561 139.123Z" fill="#263238"/>
<path d="M109.606 139.505C110.842 139.505 112.27 139.955 113.035 141.024C113.066 141.067 113.008 141.11 112.971 141.092C111.895 140.488 110.76 140.008 109.586 139.662C109.57 139.655 109.557 139.643 109.549 139.627C109.54 139.612 109.537 139.593 109.539 139.575C109.541 139.558 109.549 139.541 109.561 139.528C109.573 139.516 109.589 139.507 109.606 139.505Z" fill="#263238"/>
<path d="M123.329 140.967C124.713 140.967 124.703 143.248 123.312 143.241C121.92 143.233 121.937 140.956 123.329 140.967Z" fill="#263238"/>
<path d="M111.238 136.763C111.915 137.675 112.93 138.25 113.793 138.908C113.814 138.92 113.837 138.927 113.861 138.929C113.884 138.93 113.908 138.925 113.93 138.915C113.951 138.905 113.97 138.89 113.986 138.871C114.001 138.852 114.011 138.829 114.017 138.804C114.022 138.806 114.027 138.806 114.031 138.804C114.036 138.803 114.041 138.8 114.044 138.797C114.048 138.793 114.051 138.789 114.052 138.784C114.054 138.779 114.055 138.774 114.054 138.769C113.967 137.571 113.584 136.419 112.944 135.426C112.561 134.858 111.773 134.318 111.146 134.865C110.52 135.412 110.852 136.231 111.238 136.763ZM111.184 135.691C111.312 134.261 112.521 135.366 112.788 135.798C112.957 136.08 113.107 136.374 113.238 136.678C113.516 137.307 113.709 137.964 113.915 138.615C113.502 138.258 113.066 137.964 112.642 137.636C112.148 137.239 111.116 136.463 111.184 135.684V135.691Z" fill="#263238"/>
<path d="M118.444 137.939C118.349 137.085 117.429 136.899 116.779 137.028C115.661 137.27 114.624 137.82 113.773 138.622C113.769 138.625 113.765 138.629 113.763 138.634C113.761 138.638 113.759 138.644 113.759 138.649C113.759 138.654 113.761 138.659 113.763 138.664C113.765 138.669 113.769 138.673 113.773 138.676C113.761 138.697 113.753 138.721 113.751 138.746C113.749 138.771 113.753 138.796 113.762 138.82C113.771 138.843 113.784 138.864 113.802 138.88C113.82 138.897 113.841 138.909 113.864 138.915C114.92 139.09 116.027 139.419 117.104 139.248C117.75 139.148 118.532 138.744 118.444 137.939ZM115.533 138.837C115.012 138.762 114.497 138.661 113.973 138.608C114.558 138.3 115.127 137.968 115.743 137.721C116.036 137.596 116.337 137.493 116.643 137.414C117.121 137.296 118.708 137.392 117.869 138.508C117.408 139.123 116.142 138.926 115.533 138.837Z" fill="#263238"/>
<path d="M145.175 77.5111C145.175 77.5111 130.884 103.191 130.501 104.992C129.912 107.763 126.795 135.119 126.795 135.119L111.921 134.833C111.921 134.833 114.487 110.712 116.914 102.766C118.664 97.0462 131.276 78.058 131.276 78.058L145.175 77.5111Z" fill="#DD6A57"/>
<path d="M113.275 132.431C115.411 132.431 122.98 132.324 125.823 132.603C125.829 132.603 125.834 132.605 125.838 132.609C125.841 132.613 125.844 132.618 125.844 132.624C125.844 132.63 125.841 132.635 125.838 132.639C125.834 132.643 125.829 132.645 125.823 132.645C124.842 132.796 115.408 132.563 113.275 132.492C113.271 132.493 113.266 132.494 113.261 132.493C113.256 132.492 113.252 132.491 113.248 132.488C113.244 132.485 113.241 132.481 113.238 132.476C113.236 132.472 113.235 132.466 113.235 132.461C113.235 132.456 113.236 132.451 113.238 132.447C113.241 132.442 113.244 132.438 113.248 132.435C113.252 132.432 113.256 132.43 113.261 132.429C113.266 132.429 113.271 132.429 113.275 132.431Z" fill="#263238"/>
<path d="M142.738 79.8668C141.8 81.4181 140.812 82.9373 139.854 84.478C138.896 86.0186 137.941 87.5557 137 89.1035C135.114 92.2015 133.274 95.3268 131.483 98.4796C130.611 99.9304 129.865 101.462 129.255 103.055C128.691 104.654 128.267 106.304 127.99 107.984C127.698 109.668 127.506 111.37 127.313 113.071C127.121 114.885 126.929 116.697 126.737 118.508L125.563 129.628C125.512 130.082 125.464 130.536 125.424 130.994C125.424 131.058 125.529 131.073 125.539 130.994C125.976 127.312 126.338 123.616 126.737 119.913C126.933 118.075 127.131 116.239 127.329 114.404C127.512 112.696 127.688 110.987 127.939 109.289C128.171 107.615 128.522 105.961 128.988 104.342C129.502 102.665 130.191 101.053 131.043 99.5377C132.766 96.3992 134.59 93.3143 136.415 90.2438C138.239 87.1732 140.111 84.0455 142.033 80.9963C142.274 80.6174 142.511 80.2421 142.758 79.8739C142.802 79.8668 142.754 79.8382 142.738 79.8668Z" fill="#263238"/>
<path d="M132.539 146.858C133.216 146.904 151.494 141.818 152.053 141.178C152.077 141.139 152.092 141.095 152.097 141.049C152.168 140.417 151.234 138.047 150.577 135.015C150.536 134.822 150.194 133.9 149.71 132.66C148.387 129.242 146.021 123.384 146.021 123.384L134.082 126.612L138.483 135.934L139.078 138.129C139.078 138.129 133.067 143.223 132.498 143.995C131.93 144.767 131.865 146.808 132.539 146.858Z" fill="#DD6A57"/>
<path d="M132.539 146.858C133.216 146.904 151.494 141.818 152.053 141.178C152.077 141.139 152.092 141.095 152.097 141.049C152.168 140.417 151.234 138.047 150.577 135.015C150.536 134.822 150.194 133.9 149.71 132.66L138.483 135.934L139.078 138.129C139.078 138.129 133.067 143.223 132.498 143.995C131.93 144.767 131.865 146.808 132.539 146.858Z" fill="white"/>
<path d="M132.542 146.854C133.219 146.904 151.498 141.818 152.053 141.178C152.269 140.938 151.795 138.318 150.58 135.015L139.072 138.129C139.072 138.129 133.067 143.223 132.498 143.995C131.93 144.767 131.865 146.808 132.542 146.854Z" fill="#DD6A57"/>
<path d="M132.613 146.032C135.578 145.139 147.632 141.818 150.631 141.171C150.655 141.171 150.658 141.171 150.631 141.192C147.71 142.147 135.633 145.364 132.62 146.086C132.559 146.1 132.549 146.054 132.613 146.032Z" fill="#263238"/>
<path d="M133.48 143.001C133.81 142.902 134.156 142.876 134.496 142.924C134.836 142.973 135.163 143.095 135.457 143.283C135.986 143.618 136.373 144.156 136.536 144.785C136.536 144.803 136.509 144.813 136.499 144.785C136.245 144.188 135.814 143.694 135.272 143.377C134.729 143.061 134.104 142.939 133.49 143.03C133.463 143.055 133.456 143.012 133.48 143.001Z" fill="#263238"/>
<path d="M137.999 138.765C139.19 138.408 140.686 138.483 141.685 139.312C141.722 139.344 141.685 139.401 141.637 139.394C140.451 139.101 139.238 138.944 138.019 138.926C138 138.925 137.983 138.918 137.969 138.905C137.955 138.892 137.946 138.874 137.944 138.855C137.942 138.835 137.946 138.816 137.956 138.799C137.966 138.783 137.981 138.771 137.999 138.765Z" fill="#263238"/>
<path d="M137.169 139.394C138.361 139.037 139.857 139.115 140.856 139.941C140.893 139.973 140.856 140.034 140.808 140.023C139.621 139.73 138.408 139.573 137.19 139.555C137.171 139.555 137.154 139.547 137.14 139.534C137.126 139.521 137.117 139.503 137.115 139.484C137.112 139.464 137.117 139.445 137.127 139.428C137.137 139.412 137.152 139.4 137.169 139.394Z" fill="#263238"/>
<path d="M136.34 140.027C137.532 139.669 139.028 139.748 140.026 140.577C140.063 140.606 140.026 140.667 139.979 140.656C138.791 140.363 137.577 140.206 136.357 140.188C136.339 140.187 136.322 140.178 136.308 140.165C136.295 140.152 136.287 140.134 136.285 140.115C136.283 140.096 136.287 140.076 136.297 140.06C136.307 140.044 136.323 140.032 136.34 140.027Z" fill="#263238"/>
<path d="M135.511 140.66C136.702 140.302 138.198 140.381 139.194 141.21C139.234 141.242 139.194 141.3 139.15 141.289C137.962 140.995 136.747 140.838 135.528 140.821C135.509 140.819 135.492 140.811 135.479 140.798C135.466 140.785 135.458 140.767 135.456 140.748C135.454 140.728 135.458 140.709 135.468 140.693C135.478 140.677 135.493 140.665 135.511 140.66Z" fill="#263238"/>
<path d="M149.135 138.383C150.489 138.025 151.014 140.224 149.67 140.588C148.326 140.953 147.788 138.765 149.135 138.383Z" fill="#263238"/>
<path d="M136.431 137.571C137.291 138.286 138.412 138.554 139.414 138.944C139.436 138.95 139.46 138.95 139.483 138.945C139.506 138.94 139.528 138.929 139.546 138.913C139.565 138.898 139.579 138.878 139.589 138.855C139.599 138.833 139.604 138.808 139.603 138.783C139.608 138.783 139.613 138.781 139.618 138.778C139.622 138.776 139.626 138.772 139.629 138.768C139.632 138.763 139.634 138.758 139.635 138.753C139.636 138.747 139.635 138.742 139.634 138.737C139.261 137.603 138.613 136.592 137.755 135.805C137.244 135.359 136.354 135.048 135.88 135.745C135.406 136.442 135.927 137.16 136.431 137.571ZM136.117 136.538C135.9 135.133 137.332 135.866 137.694 136.213C137.925 136.441 138.141 136.686 138.341 136.946C138.745 137.486 139.124 138.048 139.474 138.629C138.99 138.408 138.496 138.229 138.005 138.025C137.423 137.782 136.239 137.314 136.113 136.538H136.117Z" fill="#263238"/>
<path d="M143.682 136.767C143.384 135.97 142.45 136.034 141.854 136.334C140.836 136.871 139.97 137.681 139.342 138.683C139.339 138.686 139.336 138.69 139.334 138.694C139.332 138.698 139.331 138.703 139.331 138.708C139.331 138.713 139.332 138.717 139.334 138.722C139.336 138.726 139.339 138.73 139.342 138.733C139.336 138.757 139.334 138.782 139.338 138.807C139.342 138.832 139.352 138.855 139.366 138.875C139.38 138.895 139.398 138.912 139.42 138.923C139.441 138.934 139.464 138.94 139.488 138.94C140.551 138.826 141.702 138.844 142.7 138.39C143.303 138.125 143.963 137.525 143.682 136.767ZM141.086 138.408C140.561 138.479 140.04 138.518 139.522 138.608C140.013 138.154 140.483 137.678 141.015 137.274C141.269 137.076 141.536 136.896 141.813 136.735C142.247 136.495 143.807 136.159 143.266 137.45C142.964 138.193 141.705 138.34 141.086 138.408Z" fill="#263238"/>
<path d="M137.67 135.337L151.03 131.634C151.03 131.634 138.239 105.046 138.344 103.209C138.435 101.582 147.713 87.3126 148.228 84.6424C149.067 80.2707 147.05 76.3673 145.097 73.9473L131.276 78.0616C132.019 79.6589 133.084 81.0647 134.397 82.1795C134.397 82.1795 125.711 97.4966 125.491 102.533C125.271 107.57 137.67 135.337 137.67 135.337Z" fill="#DD6A57"/>
<path d="M137.413 132.706C139.353 132.12 138.787 132.259 140.734 131.698C141.685 131.423 147.94 129.618 148.857 129.525C148.878 129.525 148.884 129.557 148.857 129.564C148.004 129.972 141.722 131.659 140.764 131.916C138.811 132.442 139.366 132.274 137.406 132.767C137.393 132.778 137.379 132.72 137.413 132.706Z" fill="#263238"/>
<path d="M132.275 81.5933C133.604 82.1111 134.888 82.7485 136.113 83.4986C136.121 83.505 136.127 83.5142 136.13 83.5247C136.132 83.5351 136.131 83.5461 136.127 83.5558C136.122 83.5655 136.115 83.5733 136.106 83.5778C136.096 83.5824 136.086 83.5834 136.076 83.5808C134.786 82.9838 133.47 82.4155 132.214 81.7506C132.197 81.7402 132.184 81.7237 132.178 81.7041C132.172 81.6845 132.172 81.6631 132.18 81.644C132.187 81.6248 132.201 81.6091 132.218 81.5998C132.236 81.5905 132.256 81.5882 132.275 81.5933Z" fill="#263238"/>
<path d="M133.9 81.2322C133.998 81.4884 134.081 81.7511 134.147 82.0187C134.218 82.2259 134.251 82.4454 134.245 82.6657C134.245 82.705 134.184 82.7086 134.164 82.6657C134.047 82.4715 133.96 82.2592 133.906 82.0365C133.822 81.7935 133.73 81.5504 133.656 81.3216C133.645 81.2875 133.647 81.25 133.662 81.2175C133.677 81.185 133.703 81.1601 133.735 81.1483C133.768 81.1364 133.803 81.1386 133.834 81.1544C133.865 81.1701 133.888 81.1981 133.9 81.2322Z" fill="#263238"/>
<path d="M133.9 79.9097C133.845 79.6881 133.788 79.4629 133.73 79.2413C133.673 79.0196 133.591 78.7801 133.547 78.5478C133.547 78.5085 133.487 78.5263 133.493 78.5478C133.547 78.773 133.575 79.0089 133.612 79.2377C133.649 79.4665 133.69 79.6917 133.734 79.9204C133.815 80.3474 133.917 80.7698 134.038 81.1858C133.821 81.1686 133.611 81.1002 133.422 80.9857C133.239 80.8246 133.108 80.6072 133.047 80.3637C132.962 80.1099 132.884 79.8525 132.793 79.5987C132.682 79.3233 132.592 79.0387 132.525 78.748C132.525 78.7087 132.464 78.7265 132.471 78.748C132.579 79.3596 132.745 79.9583 132.965 80.5353C133.06 80.764 133.131 80.9964 133.344 81.1108C133.579 81.2155 133.831 81.2678 134.086 81.2645C134.113 81.2645 134.157 81.2645 134.15 81.2216C134.087 80.7801 134.004 80.3423 133.9 79.9097Z" fill="#263238"/>
<path d="M134.13 82.68C133.605 83.6845 133.003 84.646 132.437 85.6255C131.872 86.6049 131.368 87.5557 130.853 88.5387C129.82 90.5191 128.865 92.5447 127.99 94.6155C127.556 95.6379 127.148 96.6709 126.764 97.7147C126.352 98.7596 126.013 99.8348 125.749 100.932C125.503 102.021 125.457 103.149 125.613 104.256C125.805 105.383 126.078 106.493 126.429 107.577C127.146 110.075 128.018 112.521 129.039 114.898C129.073 114.976 129.198 114.916 129.171 114.837C128.44 112.66 127.682 110.494 127.028 108.292C126.392 106.147 125.637 103.942 125.989 101.675C126.182 100.586 126.476 99.5193 126.866 98.4904C127.238 97.418 127.641 96.3849 128.064 95.3519C128.903 93.3108 129.848 91.3305 130.809 89.3537C131.347 88.2456 131.916 87.1554 132.461 86.0508C133.006 84.9463 133.544 83.8024 134.153 82.7301C134.194 82.6764 134.147 82.6443 134.13 82.68Z" fill="#263238"/>
<path d="M144.193 80.5388C143.976 80.4209 143.645 80.5388 143.408 80.5388C143.103 80.5507 142.797 80.5412 142.494 80.5102C142.194 80.4797 141.897 80.4295 141.604 80.3601C141.306 80.3094 141.023 80.1871 140.778 80.0026C140.386 79.6111 140.066 79.1456 139.837 78.63C139.548 78.099 139.326 77.5307 139.177 76.9392C139.177 76.9035 139.122 76.9392 139.126 76.9571C139.183 77.2895 139.214 77.6255 139.298 77.9544C139.38 78.2659 139.487 78.5697 139.617 78.8623C139.813 79.4429 140.145 79.9618 140.581 80.3708C141.072 80.7604 141.752 80.8319 142.345 80.8784C142.683 80.9045 143.022 80.9045 143.36 80.8784C143.607 80.857 144.017 80.8784 144.2 80.6675C144.209 80.6597 144.217 80.6496 144.222 80.6381C144.227 80.6265 144.229 80.6139 144.228 80.6013C144.227 80.5887 144.224 80.5764 144.218 80.5655C144.212 80.5546 144.203 80.5455 144.193 80.5388Z" fill="#263238"/>
<path d="M147.713 128.585C146.032 124.967 144.389 121.327 142.785 117.664C141.18 114.002 139.611 110.311 138.076 106.594C137.656 105.722 137.321 104.807 137.078 103.863C136.868 102.826 137.173 101.893 137.586 100.964C138.36 99.267 139.224 97.6177 140.175 96.0239C141.116 94.4153 142.108 92.8461 143.086 91.2661C144.103 89.7221 145.035 88.1181 145.879 86.4619C146.679 84.9004 147.016 83.1202 146.843 81.3538C146.627 79.5665 145.896 77.8972 145.114 76.3244L144.484 75.0804C144.484 75.0483 144.423 75.0804 144.44 75.109C145.313 76.7605 146.153 78.4942 146.559 80.3458C146.77 81.261 146.835 82.2069 146.752 83.1447C146.644 84.0932 146.39 85.0168 146.001 85.8792C145.276 87.5664 144.264 89.1178 143.293 90.6656C142.321 92.2134 141.319 93.8148 140.368 95.4126C139.399 97.0144 138.511 98.6694 137.708 100.371C137.303 101.116 137.024 101.93 136.882 102.776C136.787 103.709 137.108 104.606 137.45 105.45C138.936 109.128 140.497 112.774 142.088 116.406C143.678 120.038 145.324 123.67 146.996 127.276L147.632 128.638C147.663 128.696 147.74 128.642 147.713 128.585Z" fill="#263238"/>
<path d="M133.47 61.4398C132.251 63.27 125.491 69.2646 119.47 69.6149C117.422 69.7364 107.89 63.3773 106.079 62.1726C103.96 60.7642 108.178 54.8805 109.633 55.1379C111.448 55.4596 118.908 62.1869 120.184 62.2227C122.235 62.2799 127.732 60.1423 131.977 59.195C134.164 58.6946 134.421 60.0315 133.47 61.4398Z" fill="#DD6A57"/>
<path d="M133.48 62.0904C131.984 64.4604 126.974 68.3459 126.974 68.3459L126.297 66.7302L123.958 61.3684C123.958 61.3684 128.558 59.7991 131.588 59.0949C131.945 59.0065 132.308 58.9491 132.674 58.9234C134.593 58.7911 134.759 60.0529 133.48 62.0904Z" fill="#EBEBEB"/>
<path d="M127.77 60.4497C127.829 60.6729 127.858 60.9041 127.854 61.136C127.859 61.368 127.831 61.5995 127.77 61.8223C127.657 61.3725 127.657 60.8995 127.77 60.4497Z" fill="white"/>
<path d="M127.15 63.2235C126.725 63.3427 126.278 63.3427 125.854 63.2235C126.278 63.1044 126.725 63.1044 127.15 63.2235Z" fill="white"/>
<path d="M133.717 59.3881C133.505 59.4511 133.286 59.4812 133.067 59.4774C132.847 59.483 132.628 59.4528 132.417 59.3881C132.843 59.269 133.291 59.269 133.717 59.3881Z" fill="white"/>
<path d="M130.136 62.1726C130.325 62.2879 130.5 62.4298 130.653 62.5944C130.811 62.755 130.946 62.9393 131.053 63.1414C130.673 62.9073 130.357 62.5736 130.136 62.1726Z" fill="white"/>
<path d="M127.651 65.4398C127.841 65.5551 128.015 65.697 128.169 65.8616C128.327 66.0222 128.461 66.2065 128.568 66.4085C128.378 66.2957 128.203 66.1549 128.05 65.9903C127.893 65.8275 127.759 65.6422 127.651 65.4398Z" fill="white"/>
<path d="M133.48 62.0904C131.984 64.4603 126.974 68.3459 126.974 68.3459L126.297 66.7302C128.155 64.421 131.036 60.9251 132.674 58.9126C134.593 58.7911 134.759 60.0529 133.48 62.0904Z" fill="#C7C7C7"/>
<path d="M127.885 67.2736C127.499 66.287 125.769 62.3013 125.339 61.4684C125.309 61.4077 125.268 61.4148 125.292 61.4684C126.045 63.4504 126.898 65.3883 127.847 67.2736C127.861 67.295 127.895 67.2736 127.885 67.2736Z" fill="#263238"/>
<path d="M129.357 66.7946C129.357 66.7755 129.357 66.7563 129.357 66.7371C129.357 66.7372 129.357 66.7373 129.357 66.7374V66.7946Z" fill="#263238"/>
<path d="M130.542 78.8051C131.219 79.3092 132.075 80.0598 136.421 79.8025C136.692 79.7846 136.966 79.756 137.244 79.7131C141.377 79.0375 146.786 74.8088 147.097 74.5014C147.097 74.5014 142.223 62.7875 134.61 58.212C133.669 57.6472 131.902 58.212 130.867 59.0842C130.494 59.3952 129.435 61.9439 129.425 64.1208C129.415 66.2977 129.861 78.3047 130.542 78.8051Z" fill="#EBEBEB"/>
<path d="M133.009 64.4318C133.069 64.655 133.098 64.8862 133.094 65.1181C133.098 65.3488 133.069 65.5789 133.009 65.8008C132.951 65.5785 132.923 65.3487 132.925 65.1181C132.923 64.8863 132.951 64.6553 133.009 64.4318Z" fill="white"/>
<path d="M134.759 72.2958C134.872 72.7456 134.872 73.2187 134.759 73.6685C134.647 73.2187 134.647 72.7456 134.759 72.2958Z" fill="white"/>
<path d="M140.175 67.4308C140.288 67.8806 140.288 68.3537 140.175 68.8035C140.062 68.3537 140.062 67.8806 140.175 67.4308Z" fill="white"/>
<path d="M130.274 71.2556C130.334 71.4789 130.363 71.7101 130.359 71.942C130.363 72.1727 130.334 72.4028 130.274 72.6247C130.216 72.4024 130.188 72.1726 130.19 71.942C130.188 71.7102 130.216 71.4792 130.274 71.2556Z" fill="white"/>
<path d="M137.081 66.0046C136.87 66.0676 136.651 66.0977 136.431 66.0939C136.213 66.0977 135.995 66.0676 135.785 66.0046C135.996 65.9435 136.213 65.9134 136.431 65.9152C136.651 65.9131 136.87 65.9431 137.081 66.0046Z" fill="white"/>
<path d="M141.681 72.0921C141.257 72.2112 140.81 72.2112 140.385 72.0921C140.81 71.973 141.257 71.973 141.681 72.0921Z" fill="white"/>
<path d="M134.688 76.9249C134.263 77.0441 133.817 77.0441 133.392 76.9249C133.817 76.8058 134.263 76.8058 134.688 76.9249Z" fill="white"/>
<path d="M142.832 75.992C142.622 76.0531 142.404 76.0831 142.186 76.0813C141.966 76.0835 141.748 76.0534 141.536 75.992C141.747 75.9289 141.966 75.8988 142.186 75.9026C142.404 75.8988 142.622 75.9289 142.832 75.992Z" fill="white"/>
<path d="M133.717 59.3881C133.505 59.4511 133.286 59.4812 133.067 59.4774C132.847 59.483 132.628 59.4528 132.417 59.3881C132.843 59.269 133.291 59.269 133.717 59.3881Z" fill="white"/>
<path d="M135.974 60.2781C136.354 60.5122 136.67 60.8459 136.892 61.2469C136.7 61.1349 136.525 60.9926 136.374 60.8251C136.216 60.6645 136.081 60.4802 135.974 60.2781Z" fill="white"/>
<path d="M142.731 67.9135C143.11 68.1475 143.426 68.4812 143.648 68.8822C143.266 68.6507 142.95 68.3164 142.731 67.9135Z" fill="white"/>
<path d="M131.926 68.732C132.306 68.9661 132.622 69.2998 132.843 69.7007C132.652 69.5888 132.477 69.4465 132.326 69.2789C132.168 69.1184 132.033 68.9341 131.926 68.732Z" fill="white"/>
<path d="M138.124 74.2476C138.314 74.3619 138.489 74.5039 138.642 74.6694C138.8 74.8299 138.934 75.0142 139.041 75.2163C138.851 75.1034 138.676 74.9626 138.523 74.798C138.367 74.6343 138.233 74.4492 138.124 74.2476Z" fill="white"/>
<path d="M130.136 62.1726C130.325 62.2879 130.5 62.4298 130.653 62.5944C130.811 62.755 130.946 62.9393 131.053 63.1414C130.673 62.9073 130.357 62.5736 130.136 62.1726Z" fill="white"/>
<path d="M129.587 67.4308C129.695 67.2295 129.83 67.0454 129.987 66.8839C130.14 66.7193 130.315 66.5774 130.504 66.4621C130.398 66.6653 130.263 66.8508 130.105 67.0126C129.952 67.1772 129.778 67.318 129.587 67.4308Z" fill="white"/>
<path d="M144.257 73.2645C144.365 73.0631 144.5 72.8789 144.657 72.7176C144.811 72.553 144.985 72.4111 145.175 72.2958C145.069 72.4996 144.934 72.6852 144.775 72.8463C144.622 73.0109 144.448 73.1517 144.257 73.2645Z" fill="white"/>
<path d="M130.386 75.6023C130.608 75.2014 130.924 74.8677 131.303 74.6336C131.196 74.8368 131.062 75.0223 130.904 75.1841C130.751 75.3487 130.577 75.4895 130.386 75.6023Z" fill="white"/>
<path d="M138.669 64.3495C138.776 64.1484 138.909 63.9642 139.065 63.8026C139.218 63.6358 139.394 63.4937 139.586 63.3808C139.365 63.7818 139.049 64.1155 138.669 64.3495Z" fill="white"/>
<path d="M136.614 79.0089C136.721 78.8069 136.856 78.6226 137.014 78.462C137.167 78.2974 137.342 78.1555 137.532 78.0402C137.426 78.2429 137.291 78.4273 137.132 78.5871C136.98 78.7539 136.806 78.896 136.614 79.0089Z" fill="white"/>
<path d="M136.621 70.1833C136.843 69.7823 137.159 69.4486 137.538 69.2146C137.322 69.6196 137.005 69.9545 136.621 70.1833Z" fill="white"/>
<path d="M131.97 62.1726C133.023 62.1226 134.289 60.0279 134.607 58.5266C134.384 57.8112 134.127 57.1084 133.835 56.4211C133.588 55.7455 133.328 54.9913 133.135 54.2764C133.097 54.1298 132.698 54.5409 132.698 54.5409L131.889 55.0235L129.215 56.6249C129.694 57.4386 130.077 58.3113 130.356 59.2236C130.382 59.3217 130.399 59.4223 130.406 59.5239C130.406 59.5239 130.406 59.556 130.406 59.5739C130.477 60.1566 130.951 62.2191 131.97 62.1726Z" fill="#DD6A57"/>
<path d="M130.406 59.5275C130.406 59.5275 130.406 59.5596 130.406 59.5775C130.556 59.5569 130.703 59.521 130.846 59.4703C133.663 58.5516 132.989 54.6375 132.989 54.6375L131.882 55.0271L129.208 56.6285C129.688 57.4422 130.071 58.3149 130.349 59.2272C130.377 59.3251 130.396 59.4256 130.406 59.5275Z" fill="#263238"/>
<path d="M133.405 49.8725C133.933 51.4954 133.267 56.2603 132.197 57.3541C130.647 58.9412 128.034 59.1843 126.737 57.1969C125.478 55.2702 126.449 49.079 127.651 48.0781C129.408 46.5982 132.613 47.4776 133.405 49.8725Z" fill="#DD6A57"/>
<path d="M129.222 53.1039C129.222 53.1039 129.242 53.1254 129.239 53.1361C129.188 53.4578 129.178 53.851 129.438 53.9797C129.438 53.9797 129.438 54.0011 129.438 53.9976C129.103 53.8975 129.12 53.4006 129.222 53.1039Z" fill="#263238"/>
<path d="M129.536 52.8108C130.031 52.8465 129.929 53.8832 129.472 53.8546C129.015 53.826 129.123 52.7822 129.536 52.8108Z" fill="#263238"/>
<path d="M127.35 52.8573C127.35 52.8573 127.326 52.8573 127.323 52.8859C127.302 53.2076 127.225 53.5758 126.94 53.6508V53.6687C127.282 53.658 127.38 53.1683 127.35 52.8573Z" fill="#263238"/>
<path d="M127.109 52.4927C126.622 52.3998 126.483 53.4364 126.933 53.5222C127.384 53.608 127.519 52.5678 127.109 52.4927Z" fill="#263238"/>
<path d="M129.973 52.3783C129.847 52.3236 129.724 52.2615 129.604 52.1924C129.468 52.1454 129.349 52.0541 129.266 51.9315C129.246 51.8865 129.242 51.8361 129.253 51.7882C129.264 51.7402 129.29 51.6976 129.327 51.6669C129.406 51.6176 129.497 51.5916 129.589 51.5916C129.681 51.5916 129.772 51.6176 129.851 51.6669C130.029 51.7407 130.174 51.8824 130.257 52.0637C130.275 52.1063 130.28 52.1534 130.272 52.1991C130.265 52.2448 130.244 52.2871 130.214 52.3207C130.184 52.3543 130.145 52.3776 130.102 52.3879C130.059 52.3981 130.014 52.3948 129.973 52.3783Z" fill="#263238"/>
<path d="M126.781 51.9243C126.917 51.9116 127.051 51.8902 127.184 51.86C127.328 51.8596 127.467 51.8079 127.58 51.7134C127.608 51.6743 127.623 51.6266 127.623 51.5776C127.623 51.5286 127.608 51.4809 127.58 51.4418C127.516 51.3704 127.435 51.3182 127.346 51.2906C127.257 51.263 127.162 51.2608 127.072 51.2845C126.884 51.3014 126.709 51.3919 126.581 51.5383C126.552 51.5746 126.534 51.6194 126.53 51.6668C126.525 51.7141 126.535 51.7618 126.556 51.8035C126.578 51.8453 126.611 51.8791 126.651 51.9007C126.691 51.9223 126.736 51.9305 126.781 51.9243Z" fill="#263238"/>
<path d="M128.971 55.0199C128.881 55.1393 128.769 55.2378 128.642 55.3091C128.514 55.3805 128.374 55.4232 128.23 55.4345C128.104 55.4453 127.978 55.4381 127.854 55.4131H127.783L127.715 55.3952C127.7 55.3894 127.686 55.3788 127.677 55.3648C127.667 55.3507 127.662 55.3339 127.661 55.3166C127.66 55.3059 127.66 55.2951 127.661 55.2844V55.2594C127.682 55.0092 127.739 54.6338 127.739 54.6338C127.651 54.6696 127.191 54.8304 127.211 54.7018C127.347 53.5847 127.591 52.4851 127.939 51.4203C127.939 51.4127 127.942 51.4054 127.947 51.4001C127.952 51.3947 127.959 51.3917 127.966 51.3917C127.973 51.3917 127.98 51.3947 127.985 51.4001C127.99 51.4054 127.993 51.4127 127.993 51.4203C127.871 52.4533 127.58 53.4578 127.445 54.4909C127.608 54.4329 127.777 54.3981 127.949 54.3872C127.983 54.3872 127.824 55.1021 127.824 55.2236C128.014 55.2655 128.211 55.2661 128.402 55.2256C128.592 55.1851 128.774 55.1041 128.934 54.9877C128.971 54.9734 129.005 54.9984 128.971 55.0199Z" fill="#263238"/>
<path d="M127.99 55.3023C128.102 55.4938 128.259 55.6513 128.446 55.7599C128.551 55.8157 128.669 55.8357 128.785 55.8171C129.035 55.7777 129.063 55.5418 129.039 55.3345C129.025 55.2244 128.999 55.1165 128.961 55.0128C128.675 55.2165 128.334 55.3179 127.99 55.3023Z" fill="#263238"/>
<path d="M128.46 55.7599C128.564 55.8157 128.683 55.8357 128.799 55.817C129.049 55.7777 129.076 55.5418 129.052 55.3345C128.923 55.3236 128.793 55.3598 128.685 55.4371C128.578 55.5145 128.498 55.6283 128.46 55.7599Z" fill="#FF99BA"/>
<path d="M132.999 53.8474C132.224 53.7759 132.353 51.767 132.353 51.767C132.353 51.767 131.171 51.5061 130.637 49.7653C130.637 49.7653 129.079 50.734 127.803 50.448C125.806 50.0012 125.935 47.2309 126.703 46.7054C127.79 45.944 129.658 47.1594 129.658 47.1594C129.658 47.1594 132.552 46.4016 133.351 48.482C133.722 48.5208 134.066 48.7069 134.312 49.0029C134.559 49.2988 134.689 49.6824 134.678 50.0763C134.725 51.574 133.578 53.9011 132.999 53.8474Z" fill="#263238"/>
<path d="M132.623 52.0101C132.049 51.8883 131.53 51.5675 131.148 51.0986C130.943 50.8439 130.8 50.5413 130.729 50.216C130.658 49.8907 130.663 49.5523 130.741 49.2291C130.74 49.2236 130.736 49.2189 130.732 49.2155C130.727 49.2122 130.722 49.2104 130.716 49.2104C130.711 49.2104 130.705 49.2122 130.701 49.2155C130.696 49.2189 130.693 49.2236 130.691 49.2291C130.591 49.5661 130.563 49.9221 130.609 50.2718C130.655 50.6215 130.773 50.9562 130.955 51.2523C131.138 51.5336 131.389 51.7588 131.681 51.905C131.974 52.0513 132.298 52.1134 132.62 52.0852C132.629 52.0856 132.639 52.0821 132.646 52.0754C132.653 52.0687 132.657 52.0594 132.657 52.0494C132.658 52.0395 132.654 52.0297 132.648 52.0223C132.642 52.015 132.633 52.0106 132.623 52.0101Z" fill="#263238"/>
<path d="M134.807 49.2041C134.424 48.6607 133.822 48.5607 133.226 48.5642C133.192 48.5642 133.192 48.625 133.226 48.6214C133.523 48.6187 133.816 48.7006 134.074 48.8584C134.331 49.0163 134.543 49.2443 134.688 49.5187C134.805 49.7777 134.872 50.059 134.884 50.3457C134.896 50.6324 134.854 50.9189 134.759 51.188C134.503 52.2436 133.884 53.1609 133.023 53.7617C133.023 53.7617 133.023 53.7974 133.023 53.7867C133.512 53.482 133.938 53.0751 134.273 52.5907C134.608 52.1064 134.846 51.5549 134.973 50.9699C135.098 50.4016 135.155 49.7045 134.807 49.2041Z" fill="#263238"/>
<path d="M129.733 47.2559C129.492 46.8183 129.108 46.4889 128.653 46.3301C128.1 46.1536 127.504 46.1995 126.981 46.4588C126.772 46.568 126.595 46.7338 126.467 46.9392C126.339 47.1446 126.265 47.3822 126.253 47.6277C126.239 48.1984 126.409 48.7571 126.737 49.2112C126.737 49.2112 126.764 49.2112 126.757 49.2112C126.497 48.7865 126.367 48.2871 126.385 47.7814C126.397 47.5393 126.474 47.3058 126.606 47.1077C126.738 46.9097 126.921 46.7554 127.133 46.6625C127.969 46.3051 129.164 46.4016 129.689 47.3024C129.706 47.3238 129.75 47.2917 129.733 47.2559Z" fill="#263238"/>
<path d="M132.559 53.7652C132.559 53.7652 133.551 52.221 134.214 52.5927C134.878 52.9645 134.147 55.195 133.378 55.5096C133.282 55.5569 133.178 55.5833 133.073 55.5873C132.967 55.5912 132.861 55.5726 132.762 55.5326C132.663 55.4926 132.573 55.4319 132.497 55.3543C132.421 55.2766 132.36 55.1836 132.319 55.0806L132.559 53.7652Z" fill="#DD6A57"/>
<path d="M81.7824 86.1188H122.909V55.7063H81.7824V86.1188Z" fill="#263238"/>
<path d="M89.9941 67.9491C91.8766 67.9491 93.4027 66.3375 93.4027 64.3495C93.4027 62.3615 91.8766 60.7499 89.9941 60.7499C88.1116 60.7499 86.5855 62.3615 86.5855 64.3495C86.5855 66.3375 88.1116 67.9491 89.9941 67.9491Z" fill="#DD6A57"/>
<path d="M100.04 79.5022H122.912L111.475 63.1306L100.04 79.5022Z" fill="#C7C7C7"/>
<path d="M91.0773 79.5773H109.958L100.518 68.9214L91.0773 79.5773Z" fill="white"/>
<path d="M122.905 79.563H81.779V86.1152H122.905V79.563Z" fill="#DD6A57"/>
<path d="M137.267 61.9117C138.334 65.0609 136.811 76.6139 135.006 79.0482C132.329 82.6728 127.038 86.0079 125.014 87.0481C124.134 87.5021 120.17 80.8141 121.034 80.1885C122.885 78.8445 128.798 75.6416 129.299 75.0054C129.8 74.3691 132.495 68.2566 133.575 64.8142C135.023 60.1959 136.729 60.3138 137.267 61.9117Z" fill="#DD6A57"/>
<path d="M125.011 87.066C122.205 88.7568 116.623 88.4958 115.872 88.2599C115.225 88.0562 114.89 87.9418 114.89 87.9418C113.719 87.5843 113.404 86.9087 113.404 86.9087C113.404 86.9087 111.938 86.9302 111.779 85.9936C111.6 84.9498 113.692 85.125 114.9 84.478C117.669 82.9981 121.213 80.0741 121.971 79.563L125.011 87.066Z" fill="#DD6A57"/>
<path d="M118.827 85.0786C118.021 85.5238 117.188 85.9096 116.332 86.2331C115.376 86.5236 114.4 86.7399 113.414 86.8801C113.408 86.8801 113.402 86.8828 113.397 86.8875C113.393 86.8922 113.391 86.8985 113.391 86.9052C113.391 86.9118 113.393 86.9182 113.397 86.9229C113.402 86.9275 113.408 86.9302 113.414 86.9302C115.346 86.8706 117.226 86.2538 118.85 85.1465C118.854 85.1407 118.857 85.134 118.858 85.1268C118.859 85.1197 118.859 85.1124 118.856 85.1056C118.854 85.0989 118.85 85.0928 118.845 85.0881C118.84 85.0834 118.833 85.0801 118.827 85.0786Z" fill="#263238"/>
<path d="M119.913 86.7157C118.315 87.4248 116.611 87.829 114.88 87.9096C114.88 87.9096 114.88 87.9096 114.88 87.9096C116.638 88.0391 118.396 87.6506 119.957 86.7872C119.994 86.7765 119.971 86.6907 119.913 86.7157Z" fill="#263238"/>
<path d="M118.119 82.4727C118.407 82.1152 118.241 81.9651 117.479 82.1152C116.718 82.2654 113.827 83.52 113.495 82.4191C113.164 81.3181 117.27 79.6023 118.552 79.4593C119.712 79.3962 120.875 79.4321 122.029 79.5666C121.294 80.067 119.551 81.4647 118.119 82.4727Z" fill="#DD6A57"/>
<path d="M134.285 62.6981C136.157 58.5444 137.863 59.6454 138.009 63.7705C138.066 66.6258 137.946 69.482 137.65 72.3208L130.88 70.269L134.285 62.6981Z" fill="#EBEBEB"/>
<path d="M133.009 64.4318C133.069 64.655 133.098 64.8862 133.094 65.1181C133.098 65.3488 133.069 65.5789 133.009 65.8008C132.951 65.5785 132.923 65.3487 132.925 65.1181C132.923 64.8863 132.951 64.6553 133.009 64.4318Z" fill="white"/>
<path d="M137.081 66.0046C136.87 66.0676 136.651 66.0977 136.431 66.0939C136.213 66.0977 135.995 66.0676 135.785 66.0046C135.996 65.9435 136.213 65.9134 136.431 65.9152C136.651 65.9131 136.87 65.9431 137.081 66.0046Z" fill="white"/>
<path d="M135.974 60.2781C136.354 60.5122 136.67 60.8459 136.892 61.2469C136.7 61.1349 136.525 60.9926 136.374 60.8251C136.216 60.6645 136.081 60.4802 135.974 60.2781Z" fill="white"/>
<path d="M131.926 68.732C132.306 68.9661 132.622 69.2998 132.843 69.7007C132.652 69.5888 132.477 69.4465 132.326 69.2789C132.168 69.1184 132.033 68.9341 131.926 68.732Z" fill="white"/>
<path d="M136.621 70.1833C136.843 69.7823 137.159 69.4486 137.538 69.2146C137.322 69.6196 137.005 69.9545 136.621 70.1833Z" fill="white"/>
<path d="M133.639 63.9671C133.385 64.5104 133.118 65.0395 132.85 65.5864C132.898 65.329 132.935 65.0752 132.962 64.8143H132.945C132.904 65.018 132.86 65.2182 132.823 65.4219L132.772 65.715C132.771 65.7365 132.771 65.758 132.772 65.7794C132.566 66.1976 132.359 66.6194 132.166 67.0448C131.933 67.5524 131.713 68.0635 131.49 68.5783C131.266 69.093 131.06 69.7186 130.813 70.2369C131.026 70.3287 131.247 70.3981 131.473 70.4442C131.534 70.4692 131.564 70.4049 131.5 70.3977C131.435 70.3906 130.934 70.1725 130.928 70.169C131.148 69.6507 131.425 69.1609 131.662 68.6534C131.899 68.1458 132.136 67.6417 132.359 67.127C132.82 66.0868 133.223 65.0216 133.676 63.9778C133.663 63.9599 133.642 63.9528 133.639 63.9671Z" fill="#263238"/>
<path d="M138.31 66.4407C138.246 66.6552 138.175 66.8661 138.124 67.0841L138.063 67.3522C138.087 66.6087 138.11 65.8688 138.131 65.1252C138.036 66.337 137.934 67.5488 137.86 68.7642C137.753 69.9272 137.702 71.0952 137.708 72.2637C137.504 72.2115 137.297 72.1768 137.088 72.16C137.31 72.2633 137.545 72.3342 137.785 72.3709C137.925 71.1583 138.005 69.939 138.026 68.7177C138.026 68.3817 138.049 68.0492 138.063 67.7168C138.1 67.5095 138.154 67.3057 138.209 67.102C138.263 66.8982 138.3 66.6659 138.344 66.4478C138.334 66.4335 138.313 66.43 138.31 66.4407Z" fill="#263238"/>
<path d="M137.386 71.2056C136.431 70.8481 132.475 69.5291 131.601 69.3039C131.54 69.286 131.517 69.3039 131.578 69.3468C133.475 70.0902 135.41 70.7238 137.372 71.2449C137.377 71.2455 137.382 71.2445 137.386 71.2419C137.39 71.2394 137.393 71.2355 137.394 71.231C137.396 71.2264 137.396 71.2214 137.394 71.2168C137.393 71.2122 137.39 71.2082 137.386 71.2056Z" fill="#263238"/>
<path d="M102.295 60.8072C103.229 61.1074 103.033 59.7705 103.033 59.7705C103.033 59.7705 103.757 61.6222 104.837 61.5578C105.917 61.4935 105.582 59.867 105.565 59.7527C105.602 59.8492 106.313 61.5399 107.389 61.3326C108.465 61.1253 107.951 59.5453 107.914 59.4631C107.978 59.5417 108.848 60.5855 109.63 60.2352C110.984 59.6347 108.828 56.9037 108.983 55.6633L110.879 55.7241C110.94 55.7241 111.004 55.7241 111.065 55.6919L111.136 54.6696C110.53 54.4096 109.945 54.0988 109.386 53.7402C108.672 53.3184 107.981 52.9324 107.47 52.9216C107.24 52.9085 107.011 52.9741 106.819 53.1086C106.626 53.2431 106.479 53.4395 106.401 53.6687C106.401 53.6687 105.846 52.7393 104.993 52.8716C104.556 52.9395 104.272 53.7402 104.272 53.7402C104.136 53.5369 103.95 53.3772 103.733 53.2788C103.517 53.1804 103.279 53.1471 103.046 53.1826C102.447 53.3113 102.251 54.0941 102.251 54.0941C102.251 54.0941 101.493 53.6223 100.921 53.9654C99.7663 54.6374 100.291 60.1566 102.295 60.8072Z" fill="#DD6A57"/>
<path d="M109.227 55.5453L110.879 55.7062C110.94 55.7062 111.004 55.7062 111.065 55.674C113.15 55.2737 114.45 52.7572 112.937 52.5749C111.786 52.4355 110.547 54.044 109.386 53.7223L109.227 55.5453Z" fill="#DD6A57"/>
<path d="M104.258 53.6901C104.258 53.6687 104.224 53.6687 104.221 53.6901C103.95 55.8227 104.411 57.9873 105.521 59.7919C105.561 59.8527 105.656 59.867 105.615 59.7919C104.915 58.5373 104.295 55.4774 104.258 53.6901Z" fill="#263238"/>
<path d="M108.036 59.5417C106.969 57.7544 106.546 55.8063 106.387 53.7295C106.387 53.7009 106.35 53.708 106.343 53.7295C106.16 54.7697 106.394 56.0815 106.655 57.086C106.882 58.0275 107.338 58.8899 107.978 59.5882C108.019 59.6061 108.059 59.5775 108.036 59.5417Z" fill="#263238"/>
</svg>
