<svg width="187" height="158" viewBox="0 0 187 158" fill="none" xmlns="http://www.w3.org/2000/svg">
<path d="M31.8519 92.029H31.3374V91.7429H31.5075V91.5998H31.8519V92.029Z" fill="#EBEBEB"/>
<path d="M30.6572 92.029H29.977V91.7429H30.6572V92.029ZM29.2967 92.029H28.6165V91.7429H29.2967V92.029ZM27.932 92.029H27.2518V91.7429H27.932V92.029ZM26.5716 92.029H25.8913V91.7429H26.5716V92.029ZM25.2111 92.029H24.5266V91.7429H25.2111V92.029ZM23.8464 92.029H23.1662V91.7429H23.8464V92.029ZM22.4859 92.029H21.8057V91.7429H22.4859V92.029ZM21.1212 92.029H20.441V91.7429H21.1212V92.029ZM19.7607 92.029H19.0805V91.7429H19.7607V92.029ZM18.4003 92.029H17.7158V91.7429H18.4003V92.029ZM17.0356 92.029H16.3553V91.7429H17.0356V92.029ZM15.6751 92.029H14.9949V91.7429H15.6751V92.029ZM14.3104 92.029H13.6302V91.7429H14.3104V92.029ZM12.9499 92.029H12.2697V91.7429H12.9499V92.029ZM11.5895 92.029H10.905V91.7429H11.5895V92.029ZM10.2247 92.029H9.54451V91.7429H10.2247V92.029ZM8.86428 92.029H8.18405V91.7429H8.86428V92.029Z" fill="#EBEBEB"/>
<path d="M7.49957 92.029H6.9894V91.5998H7.32951V91.7429H7.49957V92.029Z" fill="#EBEBEB"/>
<path d="M7.32951 91.0276H6.9894V90.4553H7.32951V91.0276ZM7.32951 89.8795H6.9894V89.3073H7.32951V89.8795ZM7.32951 88.7351H6.9894V88.1628H7.32951V88.7351ZM7.32951 87.5906H6.9894V87.0148H7.32951V87.5906ZM7.32951 86.4426H6.9894V85.8703H7.32951V86.4426ZM7.32951 85.2981H6.9894V84.7259H7.32951V85.2981ZM7.32951 84.1501H6.9894V83.5778H7.32951V84.1501ZM7.32951 83.0056H6.9894V82.4334H7.32951V83.0056ZM7.32951 81.8611H6.9894V81.2853H7.32951V81.8611ZM7.32951 80.7131H6.9894V80.1409H7.32951V80.7131ZM7.32951 79.5686H6.9894V78.9964H7.32951V79.5686ZM7.32951 78.4206H6.9894V77.8484H7.32951V78.4206ZM7.32951 77.2761H6.9894V76.7039H7.32951V77.2761ZM7.32951 76.1317H6.9894V75.5559H7.32951V76.1317ZM7.32951 74.9836H6.9894V74.4114H7.32951V74.9836ZM7.32951 73.8392H6.9894V73.2526H7.32951V73.8392ZM7.32951 72.6911H6.9894V72.1189H7.32951V72.6911Z" fill="#EBEBEB"/>
<path d="M7.32951 71.5467H6.9894V71.1175H7.49957V71.4036H7.32951V71.5467Z" fill="#EBEBEB"/>
<path d="M30.6572 71.4036H29.977V71.1068H30.6572V71.4036ZM29.2967 71.4036H28.6165V71.1068H29.2967V71.4036ZM27.932 71.4036H27.2518V71.1068H27.932V71.4036ZM26.5716 71.4036H25.8913V71.1068H26.5716V71.4036ZM25.2111 71.4036H24.5266V71.1068H25.2111V71.4036ZM23.8464 71.4036H23.1662V71.1068H23.8464V71.4036ZM22.4859 71.4036H21.8057V71.1068H22.4859V71.4036ZM21.1212 71.4036H20.441V71.1068H21.1212V71.4036ZM19.7607 71.4036H19.0805V71.1068H19.7607V71.4036ZM18.4003 71.4036H17.7158V71.1068H18.4003V71.4036ZM17.0356 71.4036H16.3553V71.1068H17.0356V71.4036ZM15.6751 71.4036H14.9949V71.1068H15.6751V71.4036ZM14.3104 71.4036H13.6302V71.1068H14.3104V71.4036ZM12.9499 71.4036H12.2697V71.1068H12.9499V71.4036ZM11.5895 71.4036H10.905V71.1068H11.5895V71.4036ZM10.2247 71.4036H9.54451V71.1068H10.2247V71.4036ZM8.86428 71.4036H8.18405V71.1068H8.86428V71.4036Z" fill="#EBEBEB"/>
<path d="M31.8519 71.5467H31.5075V71.4036H31.3374V71.1175H31.8519V71.5467Z" fill="#EBEBEB"/>
<path d="M31.8519 91.0276H31.5075V90.4553H31.8519V91.0276ZM31.8519 89.8795H31.5075V89.3073H31.8519V89.8795ZM31.8519 88.7351H31.5075V88.1628H31.8519V88.7351ZM31.8519 87.5906H31.5075V87.0148H31.8519V87.5906ZM31.8519 86.4426H31.5075V85.8703H31.8519V86.4426ZM31.8519 85.2981H31.5075V84.7259H31.8519V85.2981ZM31.8519 84.1501H31.5075V83.5778H31.8519V84.1501ZM31.8519 83.0056H31.5075V82.4334H31.8519V83.0056ZM31.8519 81.8611H31.5075V81.2853H31.8519V81.8611ZM31.8519 80.7131H31.5075V80.1409H31.8519V80.7131ZM31.8519 79.5686H31.5075V78.9964H31.8519V79.5686ZM31.8519 78.4206H31.5075V77.8484H31.8519V78.4206ZM31.8519 77.2761H31.5075V76.7039H31.8519V77.2761ZM31.8519 76.1317H31.5075V75.5559H31.8519V76.1317ZM31.8519 74.9836H31.5075V74.4114H31.8519V74.9836ZM31.8519 73.8392H31.5075V73.2526H31.8519V73.8392ZM31.8519 72.6947H31.5075V72.1189H31.8519V72.6947Z" fill="#EBEBEB"/>
<path d="M8.68997 90.602H5.63318V93.1735H8.68997V90.602Z" fill="white"/>
<path d="M8.84303 93.3129H5.44187V90.4518H8.84303V93.3129ZM5.78624 93.0268H8.50291V90.745H5.80324L5.78624 93.0268Z" fill="#EBEBEB"/>
<path d="M8.70273 80.2875H5.64593V82.859H8.70273V80.2875Z" fill="white"/>
<path d="M8.84303 83.002H5.44187V80.1409H8.84303V83.002ZM5.78624 82.7159H8.50291V80.4306H5.80324L5.78624 82.7159Z" fill="#EBEBEB"/>
<path d="M8.70273 69.9766H5.64593V72.5481H8.70273V69.9766Z" fill="white"/>
<path d="M8.84303 72.6876H5.44187V69.8264H8.84303V72.6876ZM5.78624 72.4015H8.50291V70.1197H5.80324L5.78624 72.4015Z" fill="#EBEBEB"/>
<path d="M33.2208 90.602H30.1641V93.1735H33.2208V90.602Z" fill="white"/>
<path d="M33.3781 93.3129H29.977V90.4518H33.3781V93.3129ZM30.3214 93.0268H33.038V90.745H30.3214V93.0268Z" fill="#EBEBEB"/>
<path d="M33.2208 80.2875H30.1641V82.859H33.2208V80.2875Z" fill="white"/>
<path d="M33.3781 83.002H29.977V80.1409H33.3781V83.002ZM30.3214 82.7159H33.038V80.4306H30.3214V82.7159Z" fill="#EBEBEB"/>
<path d="M33.2208 69.9766H30.1641V72.5481H33.2208V69.9766Z" fill="white"/>
<path d="M33.3781 72.6876H29.977V69.8264H33.3781V72.6876ZM30.3214 72.4015H33.038V70.1197H30.3214V72.4015Z" fill="#EBEBEB"/>
<path d="M20.9639 69.9766H17.9071V72.5481H20.9639V69.9766Z" fill="white"/>
<path d="M21.1169 72.6876H17.7158V69.8264H21.1169V72.6876ZM18.0644 72.4015H20.7768V70.1197H18.0644V72.4015Z" fill="#EBEBEB"/>
<path d="M20.9512 90.602H17.8944V93.1735H20.9512V90.602Z" fill="white"/>
<path d="M21.1169 93.3129H17.7158V90.4518H21.1169V93.3129ZM18.0644 93.0268H20.7768V90.745H18.0644V93.0268Z" fill="#EBEBEB"/>
<path d="M178.71 48.1604H178.199V47.8707H178.37V47.7276H178.71V48.1604Z" fill="#EBEBEB"/>
<path d="M177.519 48.1603H176.835V47.8599H177.519V48.1603ZM176.155 48.1603H175.474V47.8599H176.155V48.1603ZM174.794 48.1603H174.114V47.8599H174.794V48.1603ZM173.429 48.1603H172.749V47.8599H173.429V48.1603ZM172.069 48.1603H171.389V47.8599H172.069V48.1603ZM170.708 48.1603H170.024V47.8599H170.708V48.1603ZM169.344 48.1603H168.664V47.8599H169.344V48.1603ZM167.983 48.1603H167.303V47.8599H167.983V48.1603ZM166.619 48.1603H165.938V47.8599H166.619V48.1603ZM165.258 48.1603H164.578V47.8599H165.258V48.1603ZM163.898 48.1603H163.213V47.8599H163.898V48.1603ZM162.533 48.1603H161.853V47.8599H162.533V48.1603ZM161.172 48.1603H160.492V47.8599H161.172V48.1603ZM159.808 48.1603H159.128V47.8599H159.808V48.1603ZM158.447 48.1603H157.767V47.8599H158.447V48.1603ZM157.087 48.1603H156.402V47.8599H157.087V48.1603ZM155.722 48.1603H155.042V47.8599H155.722V48.1603Z" fill="#EBEBEB"/>
<path d="M154.362 48.1604H153.851V47.7276H154.192V47.8707H154.362V48.1604Z" fill="#EBEBEB"/>
<path d="M154.192 47.1446H153.851V46.5724H154.192V47.1446ZM154.192 46.0002H153.851V45.4279H154.192V46.0002ZM154.192 44.8521H153.851V44.2835H154.192V44.8521ZM154.192 43.7077H153.851V43.1354H154.192V43.7077ZM154.192 42.5632H153.851V41.9874H154.192V42.5632ZM154.192 41.4152H153.851V40.8429H154.192V41.4152ZM154.192 40.2707H153.851V39.6985H154.192V40.2707ZM154.192 39.1227H153.851V38.5612H154.192V39.1227ZM154.192 37.9782H153.851V37.406H154.192V37.9782ZM154.192 36.8337H153.851V36.2579H154.192V36.8337ZM154.192 35.6857H153.851V35.1135H154.192V35.6857ZM154.192 34.5412H153.851V33.969H154.192V34.5412ZM154.192 33.3968H153.851V32.8389H154.192V33.3968ZM154.192 32.2487H153.851V31.6765H154.192V32.2487ZM154.192 31.1043H153.851V30.5321H154.192V31.1043ZM154.192 29.9563H153.851V29.384H154.192V29.9563ZM154.192 28.8118H153.851V28.2396H154.192V28.8118Z" fill="#EBEBEB"/>
<path d="M154.192 27.6781H153.851V27.2453H154.362V27.535H154.192V27.6781Z" fill="#EBEBEB"/>
<path d="M177.519 27.5314H176.835V27.2453H177.519V27.5314ZM176.155 27.5314H175.474V27.2453H176.155V27.5314ZM174.794 27.5314H174.114V27.2453H174.794V27.5314ZM173.429 27.5314H172.749V27.2453H173.429V27.5314ZM172.069 27.5314H171.389V27.2453H172.069V27.5314ZM170.708 27.5314H170.024V27.2453H170.708V27.5314ZM169.344 27.5314H168.664V27.2453H169.344V27.5314ZM167.983 27.5314H167.303V27.2453H167.983V27.5314ZM166.619 27.5314H165.938V27.2453H166.619V27.5314ZM165.258 27.5314H164.578V27.2453H165.258V27.5314ZM163.898 27.5314H163.213V27.2453H163.898V27.5314ZM162.533 27.5314H161.853V27.2453H162.533V27.5314ZM161.172 27.5314H160.492V27.2453H161.172V27.5314ZM159.808 27.5314H159.128V27.2453H159.808V27.5314ZM158.447 27.5314H157.767V27.2453H158.447V27.5314ZM157.087 27.5314H156.402V27.2453H157.087V27.5314ZM155.722 27.5314H155.042V27.2453H155.722V27.5314Z" fill="#EBEBEB"/>
<path d="M178.71 27.6781H178.37V27.535H178.199V27.2453H178.71V27.6781Z" fill="#EBEBEB"/>
<path d="M178.71 47.1446H178.37V46.5724H178.71V47.1446ZM178.71 46.0002H178.37V45.4279H178.71V46.0002ZM178.71 44.8521H178.37V44.2835H178.71V44.8521ZM178.71 43.7077H178.37V43.1354H178.71V43.7077ZM178.71 42.5632H178.37V41.9874H178.71V42.5632ZM178.71 41.4152H178.37V40.8429H178.71V41.4152ZM178.71 40.2707H178.37V39.6985H178.71V40.2707ZM178.71 39.1227H178.37V38.5612H178.71V39.1227ZM178.71 37.9782H178.37V37.406H178.71V37.9782ZM178.71 36.8337H178.37V36.2579H178.71V36.8337ZM178.71 35.6857H178.37V35.1135H178.71V35.6857ZM178.71 34.5412H178.37V33.969H178.71V34.5412ZM178.71 33.3968H178.37V32.8389H178.71V33.3968ZM178.71 32.2487H178.37V31.6765H178.71V32.2487ZM178.71 31.1043H178.37V30.5321H178.71V31.1043ZM178.71 29.9563H178.37V29.384H178.71V29.9563ZM178.71 28.8118H178.37V28.2396H178.71V28.8118Z" fill="#EBEBEB"/>
<path d="M155.548 46.7298H152.491V49.3012H155.548V46.7298Z" fill="white"/>
<path d="M155.718 49.4443H152.317V46.5831H155.718V49.4443ZM152.661 49.1582H155.378V46.8728H152.661V49.1582Z" fill="#EBEBEB"/>
<path d="M155.561 36.4189H152.504V38.9904H155.561V36.4189Z" fill="white"/>
<path d="M155.718 39.1298H152.317V36.2687H155.718V39.1298ZM152.661 38.8437H155.378V36.5619H152.661V38.8437Z" fill="#EBEBEB"/>
<path d="M155.561 26.1044H152.504V28.6759H155.561V26.1044Z" fill="white"/>
<path d="M155.718 28.819H152.317V25.9578H155.718V28.819ZM152.661 28.5329H155.378V26.2475H152.661V28.5329Z" fill="#EBEBEB"/>
<path d="M180.083 46.7298H177.026V49.3012H180.083V46.7298Z" fill="white"/>
<path d="M180.236 49.4443H176.835V46.5831H180.236V49.4443ZM177.183 49.1582H179.896V46.8728H177.2L177.183 49.1582Z" fill="#EBEBEB"/>
<path d="M180.083 36.4189H177.026V38.9904H180.083V36.4189Z" fill="white"/>
<path d="M180.236 39.1298H176.835V36.2687H180.236V39.1298ZM177.183 38.8437H179.896V36.5619H177.2L177.183 38.8437Z" fill="#EBEBEB"/>
<path d="M180.083 26.1044H177.026V28.6759H180.083V26.1044Z" fill="white"/>
<path d="M180.236 28.819H176.835V25.9578H180.236V28.819ZM177.2 28.5472H179.913V26.2618H177.2V28.5472Z" fill="#EBEBEB"/>
<path d="M167.822 26.1044H164.765V28.6759H167.822V26.1044Z" fill="white"/>
<path d="M167.979 28.819H164.578V25.9578H167.979V28.819ZM164.922 28.5329H167.639V26.2475H164.922V28.5329Z" fill="#EBEBEB"/>
<path d="M167.809 46.7298H164.752V49.3012H167.809V46.7298Z" fill="white"/>
<path d="M167.979 49.4443H164.578V46.5831H167.979V49.4443ZM164.922 49.1582H167.639V46.8728H164.922V49.1582Z" fill="#EBEBEB"/>
<path d="M64.6731 33.9333H10.8327V2.94697H64.6731V33.9333ZM11.2579 33.5756H64.2479V3.30462H11.2579V33.5756Z" fill="#EBEBEB"/>
<path d="M15.0416 4.94262C15.0416 5.12087 14.9788 5.29512 14.8611 5.44333C14.7433 5.59154 14.576 5.70706 14.3803 5.77528C14.1845 5.84349 13.9691 5.86134 13.7612 5.82656C13.5534 5.79179 13.3625 5.70595 13.2127 5.57991C13.0629 5.45386 12.9608 5.29327 12.9195 5.11845C12.8781 4.94362 12.8994 4.7624 12.9804 4.59772C13.0615 4.43304 13.1989 4.29228 13.375 4.19325C13.5512 4.09421 13.7584 4.04136 13.9703 4.04136C14.2544 4.04136 14.5269 4.13631 14.7278 4.30533C14.9288 4.47435 15.0416 4.70359 15.0416 4.94262Z" fill="#A6A6A6"/>
<path d="M19.4164 4.94262C19.4164 5.12087 19.3535 5.29512 19.2358 5.44333C19.1181 5.59154 18.9508 5.70706 18.755 5.77528C18.5592 5.84349 18.3438 5.86134 18.136 5.82656C17.9282 5.79179 17.7373 5.70595 17.5874 5.57991C17.4376 5.45386 17.3356 5.29327 17.2942 5.11845C17.2529 4.94362 17.2741 4.7624 17.3552 4.59772C17.4363 4.43304 17.5736 4.29228 17.7498 4.19325C17.926 4.09421 18.1331 4.04136 18.345 4.04136C18.6292 4.04136 18.9017 4.13631 19.1026 4.30533C19.3035 4.47435 19.4164 4.70359 19.4164 4.94262Z" fill="#EBEBEB"/>
<path d="M23.7954 4.94262C23.7954 5.12087 23.7325 5.29512 23.6148 5.44333C23.4971 5.59154 23.3298 5.70706 23.134 5.77528C22.9382 5.84349 22.7228 5.86134 22.515 5.82656C22.3072 5.79179 22.1163 5.70595 21.9664 5.57991C21.8166 5.45386 21.7146 5.29327 21.6732 5.11845C21.6319 4.94362 21.6531 4.7624 21.7342 4.59772C21.8153 4.43304 21.9526 4.29228 22.1288 4.19325C22.305 4.09421 22.5121 4.04136 22.724 4.04136C23.0081 4.04136 23.2807 4.13631 23.4816 4.30533C23.6825 4.47435 23.7954 4.70359 23.7954 4.94262Z" fill="#FFC727"/>
<path d="M64.4605 6.53059H11.0453V6.88823H64.4605V6.53059Z" fill="#EBEBEB"/>
<path d="M9.21714 63.4818C9.36134 63.4064 9.52775 63.3664 9.69756 63.3664C9.86736 63.3664 10.0338 63.4064 10.178 63.4818L10.4203 63.5963L10.6754 63.7072C10.8287 63.7655 10.9596 63.8587 11.0535 63.9762C11.1474 64.0937 11.2005 64.2309 11.2068 64.3724L11.2451 65.3595L15.0714 65.2593L15.0331 64.2722C15.0346 64.133 15.0808 63.9966 15.1669 63.8776C15.253 63.7586 15.3757 63.6614 15.522 63.5963C15.6904 63.5205 15.8536 63.4369 16.011 63.3459C16.148 63.2633 16.3098 63.2145 16.478 63.205C16.6463 63.1955 16.8144 63.2257 16.9633 63.2923L17.9964 63.7608L19.8118 60.8997L18.7744 60.4347C18.6269 60.3661 18.5045 60.2649 18.4206 60.1419C18.3366 60.019 18.2943 59.8791 18.2982 59.7373C18.3088 59.5777 18.3088 59.4177 18.2982 59.2581C18.2838 59.1175 18.3159 58.9762 18.3909 58.85C18.466 58.7238 18.581 58.6174 18.7234 58.5428L19.7225 58.0206L17.703 55.2811L16.6954 55.8032C16.5524 55.8776 16.3875 55.917 16.2193 55.917C16.0511 55.917 15.8862 55.8776 15.7431 55.8032L15.5008 55.6888C15.4158 55.6506 15.3307 55.6149 15.2457 55.5815C15.0923 55.5221 14.9615 55.4283 14.8677 55.3102C14.7739 55.1922 14.7208 55.0546 14.7143 54.9127L14.676 53.922L10.8497 54.0222L10.8837 55.0093C10.8933 55.1546 10.8531 55.2993 10.768 55.426C10.6828 55.5528 10.5563 55.6564 10.4033 55.7245C10.2359 55.8011 10.0741 55.8858 9.91863 55.9785C9.78077 56.0598 9.6189 56.1075 9.45085 56.1163C9.28281 56.1252 9.11513 56.0948 8.96631 56.0285L7.92895 55.5636L6.11784 58.4247L7.14243 58.8396C7.29359 58.9092 7.41841 59.0133 7.50261 59.1397C7.58682 59.2662 7.62701 59.4101 7.6186 59.5549C7.60799 59.7157 7.60799 59.8769 7.6186 60.0377C7.63302 60.1783 7.60094 60.3196 7.52591 60.4458C7.45088 60.572 7.33582 60.6784 7.19345 60.753L6.19436 61.2716L8.2138 64.0147L9.21714 63.4818ZM10.178 58.389C10.4721 57.9283 10.9222 57.5513 11.4711 57.3059C12.02 57.0604 12.6432 56.9575 13.2617 57.01C13.8802 57.0626 14.4663 57.2684 14.9457 57.6013C15.4252 57.9342 15.7765 58.3793 15.9551 58.8802C16.1337 59.3811 16.1317 59.9153 15.9493 60.4153C15.7668 60.9152 15.4122 61.3584 14.9302 61.6887C14.4483 62.019 13.8606 62.2216 13.2417 62.2709C12.6228 62.3201 12.0005 62.2138 11.4534 61.9654C10.7211 61.6329 10.1756 61.0696 9.93646 60.3991C9.69735 59.7286 9.7842 59.0057 10.178 58.389Z" fill="#EBEBEB"/>
<path d="M19.021 51.1431C19.0799 51.0567 19.1666 50.986 19.2712 50.9392C19.3757 50.8924 19.4938 50.8713 19.612 50.8785H20.0116C20.1291 50.8722 20.2463 50.8933 20.3506 50.9393C20.4548 50.9853 20.542 51.0546 20.6025 51.1395L21.0277 51.7404L23.3532 50.6138L22.9281 50.013C22.8694 49.9261 22.8406 49.8272 22.8451 49.7274C22.8497 49.6275 22.8872 49.5307 22.9536 49.4479C23.0261 49.3531 23.0928 49.2552 23.1534 49.1546C23.2063 49.0663 23.287 48.992 23.3868 48.9396C23.4865 48.8873 23.6013 48.859 23.7189 48.8578H24.5436V46.5975H23.7231C23.6055 46.5967 23.4904 46.5685 23.3906 46.5161C23.2908 46.4637 23.2102 46.3891 23.1577 46.3006C23.0939 46.2005 23.0301 46.1039 22.9578 46.0109C22.8915 45.9281 22.8539 45.8313 22.8494 45.7314C22.8449 45.6316 22.8736 45.5327 22.9323 45.4458L23.3575 44.845L21.0319 43.7148L20.6068 44.3193C20.5469 44.4047 20.4599 44.4745 20.3555 44.5206C20.2511 44.5667 20.1335 44.5874 20.0158 44.5803H19.6205C19.5028 44.5874 19.3852 44.5667 19.2808 44.5206C19.1764 44.4745 19.0894 44.4047 19.0295 44.3193L18.6044 43.7148L16.2746 44.845L16.6997 45.4458C16.7623 45.53 16.7955 45.6273 16.7955 45.7266C16.7955 45.8259 16.7623 45.9232 16.6997 46.0073C16.6274 46.1039 16.5594 46.2005 16.4999 46.3006C16.447 46.3897 16.3657 46.4646 16.2651 46.5171C16.1645 46.5695 16.0485 46.5973 15.9302 46.5975H15.0799V48.8578H15.9004C16.0191 48.8586 16.1352 48.8872 16.2358 48.9402C16.3363 48.9932 16.4175 49.0687 16.4701 49.1582C16.5301 49.2579 16.5968 49.3546 16.67 49.4479C16.7325 49.5327 16.7656 49.6306 16.7656 49.7304C16.7656 49.8302 16.7325 49.9281 16.67 50.013L16.2448 50.6138L18.6214 51.7404L19.021 51.1431ZM17.6095 47.7312C17.6087 47.3646 17.7371 47.0061 17.9786 46.701C18.2201 46.3958 18.5637 46.1578 18.9661 46.0171C19.3684 45.8763 19.8113 45.8391 20.2388 45.9102C20.6663 45.9813 21.0591 46.1574 21.3675 46.4164C21.6759 46.6753 21.8861 47.0054 21.9714 47.3649C22.0567 47.7243 22.0133 48.097 21.8468 48.4357C21.6802 48.7745 21.398 49.064 21.0357 49.2677C20.6735 49.4715 20.2475 49.5802 19.8118 49.5802C19.2284 49.5802 18.6689 49.3855 18.256 49.0389C17.8432 48.6922 17.6106 48.2219 17.6095 47.7312Z" fill="#EBEBEB"/>
<path d="M172.099 111.256C171.996 111.205 171.912 111.132 171.856 111.043C171.801 110.955 171.776 110.855 171.784 110.755C171.784 110.702 171.784 110.648 171.784 110.591C171.784 110.534 171.784 110.48 171.784 110.423C171.776 110.324 171.8 110.225 171.855 110.137C171.91 110.049 171.993 109.976 172.094 109.926L172.809 109.568L171.469 107.612L170.755 107.969C170.652 108.018 170.534 108.042 170.416 108.038C170.297 108.034 170.182 108.003 170.083 107.948C169.972 107.885 169.855 107.829 169.735 107.78C169.63 107.734 169.542 107.666 169.481 107.581C169.419 107.497 169.386 107.4 169.386 107.3V106.61H166.699V107.3C166.699 107.4 166.666 107.498 166.604 107.582C166.541 107.667 166.452 107.735 166.346 107.78C166.228 107.83 166.113 107.886 166.002 107.948C165.903 108.003 165.788 108.034 165.67 108.038C165.551 108.042 165.434 108.018 165.33 107.969L164.616 107.612L163.273 109.568L163.991 109.926C164.092 109.976 164.175 110.048 164.229 110.135C164.284 110.222 164.309 110.321 164.301 110.419C164.301 110.476 164.301 110.53 164.301 110.587C164.301 110.644 164.301 110.698 164.301 110.752C164.309 110.851 164.284 110.95 164.23 111.039C164.175 111.127 164.092 111.201 163.991 111.252L163.273 111.61L164.616 113.566L165.33 113.209C165.433 113.16 165.55 113.136 165.668 113.14C165.786 113.144 165.9 113.175 165.998 113.23C166.113 113.291 166.227 113.348 166.346 113.398C166.452 113.443 166.541 113.511 166.604 113.596C166.666 113.68 166.699 113.778 166.699 113.877V114.568H169.39V113.881C169.391 113.781 169.424 113.684 169.486 113.599C169.548 113.515 169.637 113.446 169.743 113.402C169.862 113.351 169.977 113.295 170.088 113.234C170.187 113.179 170.302 113.148 170.42 113.144C170.538 113.14 170.656 113.164 170.759 113.212L171.474 113.57L172.813 111.614L172.099 111.256ZM168.043 112.443C167.607 112.444 167.181 112.336 166.818 112.133C166.455 111.93 166.172 111.641 166.005 111.302C165.838 110.964 165.794 110.591 165.878 110.231C165.963 109.872 166.172 109.541 166.48 109.282C166.788 109.023 167.18 108.846 167.607 108.774C168.035 108.702 168.478 108.739 168.88 108.879C169.283 109.019 169.627 109.256 169.869 109.561C170.111 109.866 170.241 110.224 170.241 110.591C170.241 111.081 170.01 111.551 169.599 111.898C169.188 112.245 168.63 112.441 168.047 112.443H168.043Z" fill="#EBEBEB"/>
<path d="M97.3795 158C138.392 158 171.64 155.305 171.64 151.981C171.64 148.657 138.392 145.962 97.3795 145.962C56.3668 145.962 23.1194 148.657 23.1194 151.981C23.1194 155.305 56.3668 158 97.3795 158Z" fill="#EBEBEB"/>
<path d="M5.85847 143.755L27.4388 143.666L49.0149 143.637L92.1714 143.576L135.328 143.637L156.904 143.666L178.48 143.755L156.904 143.841L135.328 143.873L92.1714 143.934L49.0149 143.873L27.4388 143.841L5.85847 143.755Z" fill="#263238"/>
<path d="M164.922 8.48166H19.4206V140.696H164.922V8.48166Z" fill="white"/>
<path d="M165.029 140.783H19.3143V8.39034H165.029V140.783ZM19.5269 140.604H164.816V8.56916H19.5269V140.604Z" fill="#DBDBDB"/>
<path d="M164.922 8.48166H19.4206V11.4608H164.922V8.48166Z" fill="#DD6A57"/>
<path d="M22.2351 9.9711C22.2359 10.1178 22.1849 10.2615 22.0885 10.3837C21.9922 10.506 21.8548 10.6015 21.6938 10.658C21.5328 10.7144 21.3555 10.7294 21.1844 10.7009C21.0133 10.6725 20.8561 10.6019 20.7328 10.4982C20.6094 10.3944 20.5255 10.2622 20.4917 10.1182C20.4579 9.97428 20.4757 9.82513 20.5428 9.68971C20.6099 9.55429 20.7234 9.43871 20.8688 9.35763C21.0141 9.27656 21.1849 9.23365 21.3593 9.23435C21.5916 9.23435 21.8143 9.31198 21.9786 9.45014C22.1428 9.58831 22.2351 9.7757 22.2351 9.9711Z" fill="#263238"/>
<path d="M25.8233 9.97109C25.8241 10.1177 25.7732 10.2611 25.6771 10.3834C25.5809 10.5056 25.4437 10.601 25.283 10.6576C25.1223 10.7142 24.9452 10.7294 24.7742 10.7012C24.6032 10.673 24.446 10.6028 24.3225 10.4994C24.199 10.396 24.1147 10.2641 24.0804 10.1204C24.0461 9.97671 24.0633 9.82768 24.1298 9.69219C24.1963 9.55671 24.3091 9.44087 24.4539 9.35937C24.5987 9.27786 24.769 9.23435 24.9433 9.23435C25.1759 9.23434 25.3991 9.31185 25.564 9.44992C25.729 9.58798 25.8222 9.77537 25.8233 9.97109Z" fill="white"/>
<path d="M29.4115 9.97109C29.4124 10.1177 29.3615 10.2611 29.2653 10.3834C29.1691 10.5056 29.0319 10.601 28.8712 10.6576C28.7105 10.7142 28.5334 10.7294 28.3624 10.7012C28.1914 10.673 28.0342 10.6028 27.9107 10.4994C27.7872 10.396 27.703 10.2641 27.6687 10.1204C27.6344 9.97671 27.6515 9.82768 27.718 9.69219C27.7845 9.55671 27.8973 9.44087 28.0421 9.35937C28.1869 9.27786 28.3572 9.23435 28.5315 9.23435C28.7641 9.23434 28.9873 9.31185 29.1523 9.44992C29.3172 9.58798 29.4104 9.77537 29.4115 9.97109Z" fill="#455A64"/>
<path d="M161.819 14.0089H123.615V18.3936H161.819V14.0089Z" fill="white"/>
<path d="M161.87 18.4401H123.56V13.966H161.87V18.4401ZM123.666 18.3507H161.763V14.059H123.666V18.3507Z" fill="#C7C7C7"/>
<path d="M161.874 13.966H156.551V18.4437H161.874V13.966Z" fill="#DD6A57"/>
<path d="M160.862 17.4316L160.382 17.7391L159.489 16.7449L159.166 16.3872C159.232 16.3637 159.295 16.3337 159.353 16.2978C159.461 16.2259 159.545 16.1325 159.599 16.026L159.944 16.4123L160.862 17.4316Z" fill="white"/>
<path d="M159.918 15.0997C159.766 14.9325 159.56 14.8056 159.324 14.7337C159.088 14.6619 158.833 14.6483 158.589 14.6944C158.344 14.7405 158.121 14.8445 157.944 14.994C157.768 15.1436 157.646 15.3325 157.592 15.5385C157.539 15.7444 157.557 15.9589 157.644 16.1565C157.731 16.3542 157.884 16.5268 158.084 16.654C158.283 16.7811 158.522 16.8576 158.772 16.8744C159.022 16.8911 159.272 16.8474 159.493 16.7484C159.558 16.7206 159.619 16.687 159.676 16.6483C159.953 16.4704 160.134 16.2073 160.18 15.917C160.227 15.6266 160.134 15.3326 159.923 15.0997H159.918ZM159.344 16.2978C159.286 16.3337 159.224 16.3637 159.157 16.3872C158.989 16.4459 158.802 16.4537 158.628 16.4093C158.454 16.3649 158.303 16.2711 158.202 16.1438C158.101 16.0165 158.055 15.8637 158.073 15.7113C158.091 15.5589 158.171 15.4165 158.3 15.3082C158.428 15.2 158.598 15.1326 158.779 15.1176C158.96 15.1026 159.142 15.1409 159.293 15.226C159.444 15.3111 159.556 15.4377 159.609 15.5842C159.661 15.7308 159.652 15.8882 159.582 16.0296C159.53 16.134 159.449 16.2261 159.344 16.2978Z" fill="white"/>
<path d="M124.984 14.8708H124.704V17.5317H124.984V14.8708Z" fill="#C7C7C7"/>
<path d="M121.655 14.0089H36.3839V18.3936H121.655V14.0089Z" fill="white"/>
<path d="M121.706 18.4401H36.3286V13.966H121.706V18.4401ZM36.4349 18.3507H121.6V14.059H36.4349V18.3507Z" fill="#C7C7C7"/>
<path d="M37.7529 14.8708H37.4723V17.5317H37.7529V14.8708Z" fill="#C7C7C7"/>
<path d="M28.4847 13.966H23.1619V18.4437H28.4847V13.966Z" fill="#DD6A57"/>
<path d="M26.546 17.7034L24.6456 16.2335L26.5418 14.7063L26.8351 14.9638L25.2664 16.2299L26.8309 17.4387L26.546 17.7034Z" fill="white"/>
<path d="M29.1862 18.4401H34.509V13.9624H29.1862V18.4401Z" fill="#DD6A57"/>
<path d="M31.1291 14.7028L33.0253 16.1727L31.1291 17.6998L30.8358 17.4423L32.4046 16.1762L30.84 14.9638L31.1291 14.7028Z" fill="white"/>
<path d="M161.819 35.861V20.7934L23.2384 20.7934V35.861L161.819 35.861Z" fill="white"/>
<path d="M161.925 35.9468H23.1322V20.704H161.925V35.9468ZM23.3277 35.768H161.712V20.8828H23.3447L23.3277 35.768Z" fill="#DBDBDB"/>
<path d="M23.2447 20.7052L23.2174 20.8825L161.799 35.9407L161.826 35.7633L23.2447 20.7052Z" fill="#DBDBDB"/>
<path d="M161.797 20.6545L23.2316 35.8143L23.259 35.9916L161.824 20.8318L161.797 20.6545Z" fill="#DBDBDB"/>
<path d="M45.8561 137.371H23.1322V128.584H45.8561V137.371ZM23.3447 137.192H45.6436V128.763H23.3447V137.192Z" fill="#DBDBDB"/>
<path d="M23.2789 128.601L23.1909 128.764L45.7017 137.37L45.7897 137.207L23.2789 128.601Z" fill="#DBDBDB"/>
<path d="M45.7068 128.588L23.1995 137.201L23.2875 137.364L45.7948 128.751L45.7068 128.588Z" fill="#DBDBDB"/>
<path d="M161.925 137.371H139.201V128.584H161.925V137.371ZM139.414 137.192H161.712V128.763H139.414V137.192Z" fill="#DBDBDB"/>
<path d="M139.352 128.605L139.264 128.768L161.775 137.374L161.863 137.211L139.352 128.605Z" fill="#DBDBDB"/>
<path d="M161.772 128.586L139.266 137.202L139.354 137.365L161.86 128.749L161.772 128.586Z" fill="#DBDBDB"/>
<path d="M133.019 137.371H110.291V128.584H133.019V137.371ZM110.487 137.192H132.79V128.763H110.504L110.487 137.192Z" fill="#DBDBDB"/>
<path d="M110.442 128.601L110.354 128.764L132.865 137.37L132.953 137.207L110.442 128.601Z" fill="#DBDBDB"/>
<path d="M132.87 128.585L110.363 137.197L110.451 137.36L132.958 128.747L132.87 128.585Z" fill="#DBDBDB"/>
<path d="M74.4641 137.371H51.7401V128.584H74.4641V137.371ZM51.9527 137.192H74.2516V128.763H51.9527V137.192Z" fill="#DBDBDB"/>
<path d="M51.8914 128.601L51.8034 128.764L74.3142 137.37L74.4022 137.207L51.8914 128.601Z" fill="#DBDBDB"/>
<path d="M74.3183 128.585L51.8128 137.201L51.9008 137.364L74.4063 128.748L74.3183 128.585Z" fill="#DBDBDB"/>
<path d="M103.536 137.371H80.8073V128.584H103.536V137.371ZM81.0029 137.192H103.306V128.763H81.0199L81.0029 137.192Z" fill="#DBDBDB"/>
<path d="M80.9574 128.603L80.8695 128.766L103.38 137.372L103.468 137.209L80.9574 128.603Z" fill="#DBDBDB"/>
<path d="M103.381 128.589L80.8752 137.205L80.9633 137.368L103.469 128.752L103.381 128.589Z" fill="#DBDBDB"/>
<path d="M23.2384 62.0834H54.5844V38.225H23.2384L23.2384 62.0834Z" fill="#EBEBEB"/>
<path d="M27.2858 43.4394C27.1447 44.034 27.2347 44.651 27.5425 45.1993C27.8502 45.7476 28.3595 46.198 28.9951 46.484C29.6306 46.77 30.3586 46.8765 31.0716 46.7876C31.7846 46.6988 32.4447 46.4193 32.9544 45.9906C33.464 45.5618 33.7962 45.0066 33.9018 44.4068C34.0075 43.807 33.8809 43.1945 33.5409 42.6599C33.2009 42.1253 32.6655 41.6969 32.0137 41.4379C31.362 41.179 30.6285 41.1033 29.9217 41.2221C29.2712 41.3313 28.6736 41.6003 28.2045 41.9949C27.7354 42.3895 27.4157 42.8922 27.2858 43.4394Z" fill="#DBDBDB"/>
<path d="M32.0602 56.9405H54.5844L43.3223 44.1011L32.0602 56.9405Z" fill="#C7C7C7"/>
<path d="M23.2384 56.9548H41.8343L32.5363 48.5895L23.2384 56.9548Z" fill="#DBDBDB"/>
<path d="M54.5844 56.9405H23.2384V62.0799H54.5844V56.9405Z" fill="#DBDBDB"/>
<path d="M79.923 38.2429H58.9208V39.7307H79.923V38.2429Z" fill="#A6A6A6"/>
<path d="M119.704 41.6942H58.9208V43.182H119.704V41.6942Z" fill="#EBEBEB"/>
<path d="M119.704 44.963H58.9208V46.4508H119.704V44.963Z" fill="#EBEBEB"/>
<path d="M119.704 48.2355H58.9208V49.7233H119.704V48.2355Z" fill="#EBEBEB"/>
<path d="M119.704 51.5043H58.9208V52.9921H119.704V51.5043Z" fill="#EBEBEB"/>
<path d="M119.704 54.7767H58.9208V56.2645H119.704V54.7767Z" fill="#EBEBEB"/>
<path d="M111.511 65.4453H90.5091V66.9331H111.511V65.4453Z" fill="#A6A6A6"/>
<path d="M119.708 68.893H90.5091V70.3808H119.708V68.893Z" fill="#EBEBEB"/>
<path d="M119.708 72.1654H90.5091V73.6532H119.708V72.1654Z" fill="#EBEBEB"/>
<path d="M119.708 75.4343H90.5091V76.9221H119.708V75.4343Z" fill="#EBEBEB"/>
<path d="M119.708 78.7067H90.5091V80.1945H119.708V78.7067Z" fill="#EBEBEB"/>
<path d="M119.708 81.9756H90.5091V83.4634H119.708V81.9756Z" fill="#EBEBEB"/>
<path d="M119.704 58.0242H58.9208V62.0799H119.704V58.0242Z" fill="#DD6A57"/>
<path d="M161.819 44.963H123.615V125.819H161.819V44.963Z" fill="white"/>
<path d="M161.925 125.909H123.509V44.8736H161.925V125.909ZM123.721 125.73H161.712V45.0524H123.721V125.73Z" fill="#DBDBDB"/>
<path d="M161.774 44.9434L123.446 125.76L123.643 125.826L161.971 45.0096L161.774 44.9434Z" fill="#DBDBDB"/>
<path d="M123.715 44.9212L123.517 44.9872L161.728 125.843L161.926 125.777L123.715 44.9212Z" fill="#DBDBDB"/>
<path d="M161.819 38.2429H123.615V44.963H161.819V38.2429Z" fill="#DD6A57"/>
<path d="M68.8182 125.386V103.345H5.86272V125.386H68.8182Z" fill="white"/>
<path d="M68.9245 125.469H5.75647V103.255H68.9245V125.469ZM5.96904 125.29H68.7119V103.434H5.96904V125.29Z" fill="#DBDBDB"/>
<path d="M68.7754 125.469L5.81991 103.427L5.90068 103.263L68.8562 125.304L68.7754 125.469Z" fill="#DBDBDB"/>
<path d="M5.90068 125.469L5.81991 125.304L68.7754 103.263L68.8562 103.427L5.90068 125.469Z" fill="#DBDBDB"/>
<path d="M178.48 105.587V83.5671H127.522V105.587H178.48Z" fill="white"/>
<path d="M178.586 105.677H127.416V83.4777H178.586V105.677ZM127.629 105.498H178.374V83.6565H127.629V105.498Z" fill="#DBDBDB"/>
<path d="M130.605 102.723H152.011V86.4283H130.605V102.723Z" fill="#EBEBEB"/>
<path d="M133.368 89.994C133.273 90.3995 133.335 90.8201 133.545 91.1938C133.755 91.5674 134.103 91.8742 134.536 92.069C134.97 92.2637 135.466 92.336 135.953 92.2753C136.439 92.2145 136.889 92.0239 137.236 91.7316C137.584 91.4393 137.81 91.0607 137.883 90.6517C137.955 90.2428 137.869 89.8252 137.637 89.4605C137.406 89.0958 137.041 88.8034 136.597 88.6264C136.153 88.4494 135.653 88.3972 135.171 88.4776C134.726 88.5522 134.317 88.736 133.996 89.0059C133.675 89.2758 133.457 89.6196 133.368 89.994Z" fill="#DBDBDB"/>
<path d="M136.629 99.2105H152.011L144.32 90.4446L136.629 99.2105Z" fill="#C7C7C7"/>
<path d="M130.605 99.2212H143.304L136.952 93.5096L130.605 99.2212Z" fill="#DBDBDB"/>
<path d="M152.011 99.2104H130.605V102.723H152.011V99.2104Z" fill="#DBDBDB"/>
<path d="M173.829 86.4282H155.594V87.5441H173.829V86.4282Z" fill="#EBEBEB"/>
<path d="M173.829 88.7387H155.594V89.8545H173.829V88.7387Z" fill="#EBEBEB"/>
<path d="M173.829 91.049H155.594V92.1649H173.829V91.049Z" fill="#EBEBEB"/>
<path d="M173.829 93.3594H155.594V94.4753H173.829V93.3594Z" fill="#EBEBEB"/>
<path d="M173.829 95.6698H155.594V96.7856H173.829V95.6698Z" fill="#EBEBEB"/>
<path d="M103.561 130.118C103.561 130.118 103.561 144.581 103.561 144.592C103.561 147.357 103.531 149.781 103.37 151.03C103.372 151.037 103.372 151.044 103.37 151.051C103.371 151.348 103.289 151.64 103.132 151.906C103.133 151.912 103.133 151.918 103.132 151.924C102.158 152.485 75.8884 153.24 74.9615 152.997C74.0347 152.753 74.749 150.525 75.7396 149.81C76.7301 149.095 86.6403 145.025 86.6403 145.025L86.8061 130.569L103.561 130.118Z" fill="#EB9481"/>
<path d="M103.561 141.616C103.561 141.616 103.561 144.578 103.561 144.588C103.561 147.353 103.531 149.778 103.37 151.026C103.372 151.033 103.372 151.04 103.37 151.047C103.332 151.339 103.252 151.626 103.132 151.902C103.133 151.908 103.133 151.914 103.132 151.92C102.158 152.482 75.8884 153.236 74.9615 152.993C74.0347 152.75 74.749 150.522 75.7396 149.806C76.7301 149.091 86.6403 145.021 86.6403 145.021L86.5935 142.006L103.561 141.616Z" fill="white"/>
<path d="M74.9361 153.007C75.8672 153.243 102.145 152.485 103.11 151.934C103.489 151.723 103.578 148.497 103.536 144.599V144.474L86.6021 144.782V145.025C86.6021 145.025 76.7174 149.109 75.7184 149.824C74.7193 150.54 74.0093 152.778 74.9361 153.007Z" fill="#DD6A57"/>
<path d="M75.1996 152.142C79.6254 151.924 97.4942 151.394 101.886 151.459C101.924 151.459 101.924 151.48 101.886 151.484C97.507 151.781 79.6339 152.199 75.2039 152.199C75.1103 152.206 75.1061 152.149 75.1996 152.142Z" fill="#263238"/>
<path d="M85.1948 145.118C86.9294 144.796 89.0679 144.96 90.4411 145.965C90.4964 146.005 90.4411 146.065 90.3731 146.055C88.6897 145.649 86.9593 145.397 85.2118 145.304C85.1825 145.306 85.1535 145.298 85.1312 145.281C85.1088 145.265 85.095 145.242 85.0928 145.218C85.0905 145.193 85.1 145.169 85.1191 145.15C85.1383 145.131 85.1655 145.12 85.1948 145.118Z" fill="#263238"/>
<path d="M83.9662 145.794C85.6965 145.468 87.835 145.633 89.2082 146.638C89.2635 146.677 89.2082 146.741 89.1402 146.727C87.4562 146.325 85.726 146.074 83.9789 145.98C83.9496 145.981 83.9208 145.973 83.8989 145.956C83.877 145.94 83.8637 145.917 83.862 145.892C83.8603 145.867 83.8703 145.843 83.8899 145.825C83.9094 145.806 83.9368 145.795 83.9662 145.794Z" fill="#263238"/>
<path d="M82.7332 146.466C84.4636 146.144 86.6063 146.305 87.9795 147.314C88.0305 147.353 87.9795 147.414 87.9072 147.403C86.2239 146.998 84.4935 146.746 82.746 146.652C82.7167 146.653 82.6879 146.645 82.6659 146.629C82.644 146.612 82.6308 146.589 82.6291 146.564C82.6274 146.54 82.6374 146.515 82.6569 146.497C82.6765 146.479 82.7039 146.467 82.7332 146.466Z" fill="#263238"/>
<path d="M105.07 76.4893L105.053 77.4478L104.411 119.718L104.407 119.879L104.024 145.196L85.637 144.889L89.1869 76.5394L89.2337 75.6274L89.4165 67.6985H104.947L105.07 76.4893Z" fill="#455A64"/>
<path d="M86.4065 142.307C89.2762 142.285 88.4557 142.257 91.3254 142.264C92.7284 142.264 101.954 142.292 103.272 142.489C103.28 142.489 103.287 142.492 103.293 142.496C103.299 142.501 103.302 142.507 103.302 142.514C103.302 142.521 103.299 142.527 103.293 142.532C103.287 142.536 103.28 142.539 103.272 142.539C101.954 142.707 92.7242 142.539 91.3212 142.521C88.4514 142.468 89.2762 142.457 86.4065 142.378C86.3952 142.378 86.3844 142.374 86.3764 142.368C86.3685 142.361 86.364 142.352 86.364 142.342C86.364 142.333 86.3685 142.324 86.3764 142.317C86.3844 142.31 86.3952 142.307 86.4065 142.307Z" fill="#263238"/>
<path d="M100.908 133.723C100.942 131.41 100.986 129.096 101.04 126.781C101.148 122.156 101.25 117.53 101.346 112.905C101.55 103.699 101.726 94.4931 101.873 85.2874C101.967 80.0944 101.967 74.9157 102.124 69.7084H102.15C102.252 74.3327 102.188 78.9642 102.179 83.5886C102.171 88.2129 102.145 92.8444 102.094 97.4723C101.988 106.678 101.835 115.884 101.576 125.09C101.503 127.686 101.427 130.283 101.321 132.875C101.214 135.468 101.146 138.072 100.929 140.661C100.929 140.67 100.925 140.678 100.918 140.684C100.911 140.69 100.901 140.694 100.891 140.694C100.881 140.694 100.871 140.69 100.864 140.684C100.857 140.678 100.853 140.67 100.853 140.661C100.802 138.344 100.87 136.033 100.908 133.723Z" fill="#263238"/>
<path d="M105.066 76.4929L104.411 119.718L92.0864 67.6985H104.943L105.066 76.4929Z" fill="#263238"/>
<path d="M131.684 122.879C131.684 122.879 140.557 135.007 140.561 135.018C142.003 137.503 143.214 139.703 143.712 140.89C143.714 140.897 143.714 140.905 143.712 140.912C143.867 141.179 143.945 141.473 143.937 141.77C143.939 141.777 143.939 141.785 143.937 141.792C143.346 142.654 120.065 152.918 119.109 153.047C118.152 153.175 117.646 150.901 118.169 149.889C118.692 148.877 125.524 141.598 125.524 141.598L116.83 129.403L131.684 122.879Z" fill="#EB9481"/>
<path d="M143.946 141.77C143.948 141.777 143.948 141.785 143.946 141.792C143.355 142.654 120.074 152.918 119.117 153.047C118.161 153.175 117.655 150.901 118.178 149.889C118.7 148.877 125.533 141.598 125.533 141.598L123.972 139.417C127.777 137.711 134.694 134.714 138.988 132.858L140.561 135.004C142.003 137.489 143.214 139.689 143.712 140.876C143.714 140.883 143.714 140.89 143.712 140.898C143.873 141.168 143.953 141.468 143.946 141.77Z" fill="white"/>
<path d="M119.113 153.047C120.069 152.918 143.346 142.653 143.941 141.792C144.171 141.466 142.589 138.523 140.561 135.018L140.498 134.907L125.388 141.387L125.528 141.602C125.528 141.602 118.726 148.88 118.178 149.889C117.629 150.897 118.156 153.179 119.113 153.047Z" fill="#DD6A57"/>
<path d="M118.905 152.17C122.778 150.361 138.606 143.362 142.598 141.82C142.632 141.82 142.64 141.82 142.598 141.842C138.806 143.705 122.909 150.597 118.926 152.213C118.854 152.26 118.824 152.21 118.905 152.17Z" fill="#263238"/>
<path d="M124.291 142.196C125.686 141.273 127.692 140.64 129.452 141.044C129.52 141.044 129.495 141.141 129.452 141.148C127.727 141.398 126.038 141.803 124.414 142.357C124.389 142.37 124.358 142.375 124.329 142.37C124.299 142.364 124.273 142.349 124.257 142.328C124.241 142.307 124.235 142.281 124.242 142.256C124.248 142.231 124.266 142.209 124.291 142.196Z" fill="#263238"/>
<path d="M123.526 143.251C124.92 142.328 126.927 141.695 128.691 142.099C128.759 142.117 128.73 142.196 128.691 142.206C126.959 142.456 125.263 142.86 123.632 143.412C123.607 143.42 123.58 143.42 123.555 143.412C123.53 143.405 123.509 143.39 123.496 143.37C123.483 143.35 123.479 143.328 123.484 143.306C123.49 143.284 123.505 143.264 123.526 143.251Z" fill="#263238"/>
<path d="M122.782 144.309C124.176 143.383 126.183 142.75 127.943 143.158C128.011 143.158 127.986 143.254 127.943 143.262C126.219 143.512 124.531 143.917 122.909 144.47C122.884 144.485 122.853 144.49 122.823 144.485C122.793 144.48 122.767 144.465 122.75 144.444C122.733 144.422 122.727 144.396 122.733 144.371C122.739 144.346 122.757 144.324 122.782 144.309Z" fill="#263238"/>
<path d="M90.9938 67.6877C91.0618 67.9595 92.1502 72.1976 93.2726 75.8349C94.0931 78.4957 94.9349 80.8419 95.3983 81.0744C95.8617 81.3068 98.6081 82.3404 99.5052 82.6551C99.5052 82.6551 105.504 107.84 108.667 115.651C111.592 122.858 123.679 142.117 123.679 142.117L141.22 134.66C141.22 134.66 127.522 115.111 126.081 111.603C123.849 106.167 114.713 79.0572 114.713 79.0572C114.713 79.0572 116.277 72.1404 112.221 67.6627L90.9938 67.6877Z" fill="#455A64"/>
<path d="M123.964 139.252C126.472 138.076 125.732 138.383 128.253 137.228C129.486 136.663 137.607 132.958 138.861 132.604C138.891 132.604 138.912 132.632 138.891 132.647C137.832 133.326 129.644 136.913 128.398 137.457C125.847 138.569 126.566 138.226 124.002 139.317C123.992 139.321 123.98 139.322 123.969 139.319C123.959 139.316 123.95 139.309 123.945 139.301C123.94 139.292 123.939 139.282 123.942 139.273C123.946 139.264 123.954 139.257 123.964 139.252Z" fill="#263238"/>
<path d="M111.01 77.3155C110.529 77.2118 110.015 77.1796 109.526 77.1152C109.13 77.0616 108.735 77.0043 108.344 76.9292C107.593 76.8166 106.882 76.5649 106.261 76.1925C105.638 75.7107 105.172 75.1023 104.909 74.4257C104.713 74.0395 104.513 73.6604 104.309 73.2777L104.007 72.7233C103.87 72.5087 103.746 72.2879 103.638 72.0617C103.638 72.0295 103.561 72.0617 103.578 72.0617C103.644 72.2186 103.7 72.3786 103.744 72.5409C103.812 72.7233 103.876 72.8986 103.944 73.0953C104.063 73.4279 104.182 73.7569 104.314 74.086C104.512 74.6923 104.797 75.276 105.164 75.8241C105.891 76.7933 107.183 77.1832 108.48 77.3226C108.85 77.362 109.224 77.3834 109.598 77.4013C110.068 77.4371 110.54 77.4371 111.01 77.4013C111.018 77.3963 111.024 77.3898 111.028 77.3824C111.033 77.3749 111.035 77.3667 111.035 77.3584C111.035 77.3501 111.033 77.3419 111.028 77.3344C111.024 77.327 111.018 77.3205 111.01 77.3155Z" fill="#263238"/>
<path d="M94.0038 80.4914C95.9063 81.0719 97.7455 81.7899 99.5009 82.6372C99.5133 82.6443 99.5224 82.6548 99.5266 82.6669C99.5307 82.679 99.5297 82.692 99.5236 82.7035C99.5175 82.715 99.5068 82.7244 99.4933 82.7299C99.4798 82.7355 99.4644 82.7368 99.4499 82.7338C97.5963 82.065 95.7086 81.4248 93.9017 80.6702C93.8823 80.6551 93.8692 80.6352 93.8642 80.6134C93.8592 80.5916 93.8627 80.569 93.8741 80.549C93.8856 80.529 93.9043 80.5126 93.9277 80.5022C93.951 80.4918 93.9777 80.488 94.0038 80.4914Z" fill="#263238"/>
<path d="M93.4469 69.8193C93.4469 69.7656 93.5616 69.7549 93.5616 69.8193C93.5616 71.6683 93.6892 73.2956 93.872 75.0266C93.957 75.8277 94.7223 80.2625 96.3804 79.9406C96.6567 79.887 96.8055 79.6545 96.8438 79.304C96.8351 78.8452 96.7609 78.3889 96.6227 77.945C96.4399 77.0151 96.2911 76.0852 96.1975 75.1482C96.0033 73.4021 96.0261 71.6437 96.2656 69.9015C96.2689 69.8918 96.2758 69.8833 96.2854 69.8772C96.295 69.8711 96.3067 69.8678 96.3187 69.8678C96.3307 69.8678 96.3424 69.8711 96.352 69.8772C96.3616 69.8833 96.3686 69.8918 96.3719 69.9015C96.3219 72.3228 96.4896 74.7438 96.8735 77.1438C97.0818 78.299 97.7706 80.0336 96.3378 80.2124C94.9051 80.3912 93.9315 77.4836 93.753 76.6896C93.298 74.4203 93.1951 72.1109 93.4469 69.8193Z" fill="#263238"/>
<path d="M96.3378 80.0479C96.4846 80.3473 96.6081 80.6543 96.7077 80.9671C96.8147 81.2083 96.8667 81.4643 96.8608 81.7217C96.8608 81.7718 96.78 81.7753 96.7502 81.7431C96.5786 81.5163 96.4482 81.2692 96.3634 81.01C96.2401 80.7239 96.104 80.4413 95.9892 80.1552C95.979 80.1178 95.9854 80.0786 96.0071 80.0449C96.0289 80.0112 96.0645 79.9854 96.1073 79.9722C96.1501 79.959 96.1971 79.9594 96.2396 79.9734C96.282 79.9873 96.317 80.0138 96.3378 80.0479Z" fill="#263238"/>
<path d="M136.51 132.228C134.014 128.273 131.442 124.36 128.857 120.426C127.582 118.498 126.255 116.588 125.031 114.632C123.886 112.695 122.957 110.673 122.255 108.592C120.713 104.367 119.25 100.124 117.867 95.863C116.484 91.6022 115.187 87.32 113.977 83.0164C113.671 81.9434 113.339 80.8705 113.093 79.7976C112.874 78.7013 112.874 77.582 113.093 76.4858C113.281 75.4637 113.291 74.4239 113.123 73.3993C112.931 72.3788 112.647 71.3721 112.272 70.388C112.081 69.8658 111.847 69.3544 111.656 68.8394C111.656 68.7821 111.528 68.8072 111.55 68.8644C112.306 70.9459 113.08 73.0524 112.919 75.2555C112.838 76.3284 112.493 77.3585 112.527 78.4242C112.609 79.4833 112.822 80.5323 113.165 81.5536C114.356 85.8787 115.631 90.1848 116.991 94.4717C118.352 98.7587 119.799 103.028 121.332 107.279C122.076 109.343 122.773 111.442 123.828 113.416C124.882 115.39 126.226 117.257 127.488 119.138C130.094 123.04 132.722 126.928 135.409 130.787C135.749 131.278 136.09 131.767 136.433 132.253C136.476 132.289 136.531 132.264 136.51 132.228Z" fill="#263238"/>
<path d="M96.5632 47.8313C96.002 50.6925 92.1459 63.675 86.2322 66.9081C80.7053 69.9302 66.2504 72.541 62.9895 71.7112C61.5695 71.3536 59.7201 62.4876 60.9998 61.6972C62.2795 60.9068 79.281 59.3403 80.4034 59.0184C81.5258 58.6966 88.0986 51.6081 91.7718 47.8743C95.1007 44.4945 97.3327 43.8901 96.5632 47.8313Z" fill="#EB9481"/>
<path d="M84.1362 55.0843L92.9154 59.351C92.9154 59.351 96.5504 52.2554 97.0053 48.5359C97.4602 44.8164 96.3081 43.7721 91.9036 47.3628C89.0464 49.7371 86.447 52.3212 84.1362 55.0843Z" fill="#37474F"/>
<path d="M88.2516 73.2777C88.6768 73.6354 115.206 72.4551 115.338 72.3121C115.682 71.9187 106.41 48.4751 100.207 44.7198C98.8675 43.9116 95.0497 44.6841 94.1271 45.4637C93.5489 45.9537 92.2862 49.0402 91.4657 51.5937C89.8161 56.7009 87.8732 72.9594 88.2516 73.2777Z" fill="#DD6A57"/>
<path d="M104.403 49.6875C104.284 49.4603 104.206 49.2191 104.173 48.9722C104.171 48.9568 104.171 48.9412 104.173 48.9258C104.254 49.0473 104.339 49.1725 104.428 49.2834C104.44 49.4185 104.431 49.5542 104.403 49.6875Z" fill="white"/>
<path d="M96.1083 65.481C96.0682 65.7183 96.0682 65.9591 96.1083 66.1963C96.1433 66.4371 96.2206 66.6721 96.3378 66.8937C96.3775 66.6565 96.3775 66.4157 96.3378 66.1784C96.3033 65.9376 96.2259 65.7025 96.1083 65.481Z" fill="white"/>
<path d="M103.523 61.5434C103.483 61.7806 103.483 62.0214 103.523 62.2587C103.558 62.4993 103.636 62.7343 103.752 62.9561C103.792 62.7188 103.792 62.478 103.752 62.2408C103.713 62.0008 103.636 61.7663 103.523 61.5434Z" fill="white"/>
<path d="M104.016 71.1569C103.976 71.3942 103.976 71.6349 104.016 71.8722C104.055 72.1111 104.132 72.3445 104.246 72.566C104.285 72.3288 104.285 72.088 104.246 71.8507C104.206 71.6119 104.129 71.3786 104.016 71.1569Z" fill="white"/>
<path d="M112.089 66.9903C112.05 67.2276 112.05 67.4683 112.089 67.7056C112.128 67.9445 112.206 68.1779 112.319 68.3994C112.391 67.9133 112.309 67.4197 112.081 66.9689L112.089 66.9903Z" fill="white"/>
<path d="M94.361 53.8755C94.2926 54.362 94.3761 54.8551 94.6033 55.3061C94.6434 55.0689 94.6434 54.8281 94.6033 54.5908C94.5663 54.3434 94.4846 54.1022 94.361 53.8755Z" fill="white"/>
<path d="M94.361 46.4508C94.2926 46.9373 94.3761 47.4304 94.6033 47.8814C94.6429 47.6441 94.6429 47.4034 94.6033 47.1661C94.5662 46.9187 94.4845 46.6775 94.361 46.4508Z" fill="white"/>
<path d="M107.902 56.2932C107.862 56.5304 107.862 56.7712 107.902 57.0085C107.937 57.2481 108.014 57.4819 108.131 57.7023C108.171 57.465 108.171 57.2243 108.131 56.987C108.092 56.7481 108.015 56.5147 107.902 56.2932Z" fill="white"/>
<path d="M100.173 52.0408C100.455 52.0744 100.741 52.0744 101.023 52.0408C101.309 52.0113 101.589 51.9462 101.852 51.8476C101.57 51.8143 101.284 51.8143 101.002 51.8476C100.716 51.8801 100.437 51.9451 100.173 52.0408Z" fill="white"/>
<path d="M96.7162 44.8701C96.9983 44.9037 97.2845 44.9037 97.5665 44.8701C97.8527 44.8406 98.1321 44.7755 98.3956 44.6769C98.1135 44.6436 97.8273 44.6436 97.5453 44.6769C97.2598 44.7094 96.9809 44.7744 96.7162 44.8701Z" fill="white"/>
<path d="M92.3712 51.4042C92.1093 51.5028 91.8313 51.5679 91.5465 51.5973H91.4614C91.4614 51.5365 91.4997 51.4757 91.521 51.4149C91.8023 51.3771 92.0887 51.3735 92.3712 51.4042Z" fill="white"/>
<path d="M93.2216 58.9469C93.5036 58.9803 93.7898 58.9803 94.0718 58.9469C94.3567 58.9175 94.6347 58.8524 94.8966 58.7538C94.6146 58.7201 94.3284 58.7201 94.0463 58.7538C93.7616 58.7836 93.4837 58.8486 93.2216 58.9469Z" fill="white"/>
<path d="M101.397 58.3568C101.679 58.3902 101.965 58.3902 102.247 58.3568C102.533 58.3269 102.813 58.2618 103.076 58.1637C102.795 58.1285 102.508 58.1285 102.226 58.1637C101.94 58.1936 101.661 58.2587 101.397 58.3568Z" fill="white"/>
<path d="M99.3266 69.5153C99.6086 69.5487 99.8948 69.5487 100.177 69.5153C100.463 69.4854 100.742 69.4203 101.006 69.3222C100.724 69.2888 100.438 69.2888 100.156 69.3222C99.8704 69.3554 99.5916 69.4204 99.3266 69.5153Z" fill="white"/>
<path d="M107.574 64.5405C108.152 64.601 108.739 64.5319 109.275 64.3402C108.993 64.3068 108.707 64.3068 108.425 64.3402C108.132 64.3734 107.845 64.4408 107.574 64.5405Z" fill="white"/>
<path d="M90.2881 72.3872C90.5701 72.4206 90.8563 72.4206 91.1384 72.3872C91.4232 72.3578 91.7012 72.2927 91.9631 72.1941C91.6811 72.1607 91.3949 72.1607 91.1128 72.1941C90.8288 72.2269 90.5514 72.2918 90.2881 72.3872Z" fill="white"/>
<path d="M89.6673 66.5326C89.9494 66.5659 90.2356 66.5659 90.5176 66.5326C90.8015 66.4993 91.0789 66.4343 91.3424 66.3394C91.0603 66.306 90.7741 66.306 90.4921 66.3394C90.2081 66.3722 89.9306 66.4372 89.6673 66.5326Z" fill="white"/>
<path d="M100.373 47.0481C100.145 47.195 99.9428 47.3684 99.773 47.5631C99.5968 47.755 99.4537 47.967 99.3479 48.1926C99.5758 48.0444 99.7777 47.8698 99.9474 47.674C100.123 47.4828 100.266 47.2722 100.373 47.0481Z" fill="white"/>
<path d="M91.1298 54.7732C91.023 54.9973 90.88 55.2079 90.7047 55.3991C90.6385 55.4738 90.5675 55.5454 90.4921 55.6137C90.5134 55.4921 90.5389 55.3705 90.5644 55.256C90.7245 55.0732 90.9149 54.9106 91.1298 54.7732Z" fill="white"/>
<path d="M105.304 53.9399C105.076 54.088 104.874 54.2626 104.705 54.4585C104.526 54.6479 104.383 54.8589 104.28 55.0844C104.507 54.9375 104.709 54.7641 104.879 54.5694C105.055 54.3774 105.198 54.1655 105.304 53.9399Z" fill="white"/>
<path d="M98.217 60.6099C97.9902 60.7578 97.7885 60.9311 97.6175 61.1249C97.4413 61.3169 97.2982 61.5288 97.1924 61.7544C97.6463 61.4551 97.9982 61.0603 98.2127 60.6099H98.217Z" fill="white"/>
<path d="M93.872 68.7213C93.6442 68.8682 93.4423 69.0416 93.2726 69.2363C93.0963 69.4283 92.9532 69.6402 92.8474 69.8658C93.0754 69.7176 93.2772 69.543 93.4469 69.3472C93.6237 69.1569 93.7669 68.9461 93.872 68.7213Z" fill="white"/>
<path d="M105.449 66.554C105.221 66.7022 105.019 66.8767 104.849 67.0726C104.674 67.2637 104.531 67.4743 104.424 67.6984C104.652 67.5516 104.854 67.3781 105.024 67.1834C105.2 66.9915 105.343 66.7796 105.449 66.554Z" fill="white"/>
<path d="M113.76 70.5846C113.307 70.8851 112.954 71.2795 112.736 71.7291C112.964 71.5822 113.165 71.4088 113.335 71.2141C113.511 71.0221 113.654 70.8102 113.76 70.5846Z" fill="white"/>
<path d="M90.0839 60.5456C89.9359 60.5002 89.7935 60.4427 89.6588 60.3739L89.6843 60.1951C89.8324 60.2992 89.9664 60.4168 90.0839 60.5456Z" fill="white"/>
<path d="M108.506 60.8066C108.329 60.6149 108.122 60.4451 107.889 60.3024C107.662 60.1549 107.411 60.0346 107.145 59.9447C107.32 60.1364 107.526 60.3062 107.757 60.449C107.985 60.5973 108.237 60.7177 108.506 60.8066Z" fill="white"/>
<path d="M109.177 70.4952C108.819 70.1154 108.35 69.8198 107.817 69.6369C108.173 70.0187 108.642 70.3148 109.177 70.4952Z" fill="white"/>
<path d="M97.0563 51.3112C96.8806 51.1204 96.6746 50.9507 96.4441 50.8069C96.217 50.6574 95.9649 50.5368 95.6959 50.4493C95.8705 50.6409 96.0766 50.8107 96.3081 50.9535C96.5362 51.1018 96.7881 51.2222 97.0563 51.3112Z" fill="white"/>
<path d="M101.014 65.2987C100.837 65.1078 100.63 64.9381 100.398 64.7944C100.171 64.6469 99.9204 64.5266 99.654 64.4368C99.8286 64.6284 100.035 64.7982 100.266 64.941C100.494 65.0893 100.746 65.2097 101.014 65.2987Z" fill="white"/>
<path d="M89.0934 70.2949C88.85 70.2139 88.62 70.1069 88.4089 69.9766C88.4089 69.9051 88.4089 69.8336 88.4089 69.7621L88.4599 69.7907C88.6989 69.9322 88.9123 70.102 89.0934 70.2949Z" fill="white"/>
<path d="M99.4584 56.1716C99.2839 55.9799 99.0777 55.8101 98.8462 55.6673C98.6196 55.5172 98.3673 55.3966 98.098 55.3096C98.2726 55.5013 98.4787 55.6711 98.7102 55.8139C98.9383 55.9622 99.1902 56.0826 99.4584 56.1716Z" fill="white"/>
<path d="M93.5404 63.5033C93.3658 63.3116 93.1597 63.1418 92.9282 62.999C92.7009 62.8496 92.4488 62.7291 92.1799 62.6414C92.3522 62.8347 92.5587 63.0048 92.7921 63.1457C93.0194 63.2951 93.2715 63.4156 93.5404 63.5033Z" fill="white"/>
<path d="M97.6048 72.473C97.4302 72.2813 97.2241 72.1116 96.9926 71.9687C96.7655 71.8192 96.5133 71.6987 96.2443 71.6111C96.4216 71.802 96.629 71.9717 96.8608 72.1154C97.088 72.2628 97.3384 72.3832 97.6048 72.473Z" fill="white"/>
<path d="M94.6713 44.4623C93.6212 45.1168 92.8134 48.5108 95.2197 48.9722C97.6261 49.4336 99.8538 46.2362 100.185 45.2026C100.517 44.169 96.9458 43.0425 94.6713 44.4623Z" fill="#37474F"/>
<path d="M95.3941 48.5073C96.8863 48.6682 99.1481 46.576 99.9474 44.9738C100.003 44.8629 99.6753 43.7828 99.3522 42.4703C99.1609 41.6656 98.9695 40.7643 98.8675 39.931L92.8134 41.7478C93.2983 42.7586 93.6339 43.8156 93.8125 44.8951C93.8264 45.014 93.8264 45.1338 93.8125 45.2527C93.8125 45.2706 93.8125 45.2885 93.8125 45.31C93.7658 45.943 93.9528 48.3499 95.3941 48.5073Z" fill="#EB9481"/>
<path d="M98.5784 39.9918C98.5146 41.0647 98.0385 44.8593 94.4502 45.2456C94.2386 45.2669 94.0256 45.2764 93.8125 45.2742C93.8105 45.254 93.8105 45.2336 93.8125 45.2134C93.8264 45.0945 93.8264 44.9747 93.8125 44.8558C93.6332 43.7763 93.2977 42.7194 92.8134 41.7085L98.5784 39.9918Z" fill="#263238"/>
<path d="M98.4678 33.9118C99.4202 35.7001 99.0758 41.1506 97.6941 42.4953C95.6959 44.4659 92.0142 45.031 89.9224 42.9281C87.8945 40.8895 88.4939 33.7795 90.0712 32.5099C92.401 30.6644 97.0649 31.301 98.4678 33.9118Z" fill="#EB9481"/>
<path d="M93.3916 37.8459C93.3916 37.8459 93.4213 37.8674 93.4213 37.8817C93.3873 38.2393 93.4213 38.6756 93.8082 38.8116C93.8082 38.8116 93.8082 38.8366 93.8082 38.833C93.3235 38.7543 93.2853 38.2036 93.3916 37.8459Z" fill="#263238"/>
<path d="M93.804 37.4883C94.5097 37.4883 94.497 38.6613 93.8423 38.6792C93.1875 38.6971 93.213 37.4883 93.804 37.4883Z" fill="#263238"/>
<path d="M90.8705 37.8459C90.8705 37.8459 90.8365 37.8638 90.8365 37.8781C90.8365 38.2357 90.7855 38.6721 90.3858 38.7901V38.8116C90.896 38.7472 90.9513 38.1821 90.8705 37.8459Z" fill="#263238"/>
<path d="M90.4709 37.4489C89.7651 37.3988 89.6971 38.5862 90.3518 38.6327C91.0065 38.6792 91.0746 37.4883 90.4709 37.4489Z" fill="#263238"/>
<path d="M94.3652 36.9375C94.1738 36.8946 94.0038 36.8266 93.821 36.7694C93.6192 36.7338 93.4369 36.6433 93.3023 36.5119C93.2702 36.4635 93.2578 36.4076 93.267 36.3527C93.2762 36.2978 93.3065 36.2469 93.3533 36.2079C93.4606 36.1431 93.5863 36.1034 93.7177 36.0927C93.8491 36.082 93.9816 36.1008 94.1016 36.1471C94.3608 36.2123 94.583 36.3547 94.7265 36.5477C94.7551 36.5939 94.7673 36.646 94.7616 36.6979C94.756 36.7497 94.7327 36.7991 94.6947 36.8402C94.6566 36.8813 94.6053 36.9123 94.5469 36.9295C94.4885 36.9468 94.4254 36.9495 94.3652 36.9375Z" fill="#263238"/>
<path d="M89.9436 36.8445C90.1333 36.8145 90.3207 36.7751 90.5048 36.7265C90.7106 36.7098 90.9037 36.6355 91.0533 36.5155C91.0933 36.4713 91.1149 36.4173 91.1149 36.3617C91.1149 36.3062 91.0933 36.2521 91.0533 36.2079C90.9548 36.1341 90.8349 36.0836 90.7056 36.0616C90.5764 36.0396 90.4425 36.0469 90.3178 36.0828C90.0487 36.1274 89.8092 36.255 89.646 36.4404C89.6164 36.4826 89.601 36.5307 89.6016 36.5797C89.6022 36.6287 89.6187 36.6766 89.6494 36.7183C89.68 36.7599 89.7237 36.7937 89.7755 36.816C89.8274 36.8382 89.8856 36.8481 89.9436 36.8445Z" fill="#263238"/>
<path d="M92.0524 40.657C92.2545 40.8445 92.5108 40.9849 92.7964 41.0647C92.9525 41.1076 93.1208 41.1076 93.2768 41.0647C93.6169 40.9681 93.5999 40.707 93.5149 40.4746C93.4699 40.3495 93.4071 40.2294 93.3278 40.1169C92.9826 40.4074 92.5354 40.5968 92.0524 40.657Z" fill="#263238"/>
<path d="M92.7964 41.0647C92.9525 41.1076 93.1207 41.1076 93.2768 41.0647C93.6169 40.9681 93.5999 40.7071 93.5149 40.4746C93.3341 40.4915 93.1652 40.5588 93.035 40.6657C92.9048 40.7726 92.8209 40.9131 92.7964 41.0647Z" fill="#F392B9"/>
<path d="M98.5486 38.6702C96.9118 38.5987 96.729 36.0809 96.729 36.0809C96.729 36.0809 93.9358 35.5838 93.6212 33.7848C93.6212 33.7848 90.8705 35.1153 88.8043 34.3928C86.7381 33.6704 87.2865 31.6855 87.5289 31.267C87.7712 30.8486 88.9064 31.689 88.9064 31.689C88.9064 31.689 89.1019 30.5625 89.4675 30.4623C89.8332 30.3622 90.186 31.0596 90.186 31.0596C91.8808 30.6731 93.635 30.5031 95.3898 30.5553C97.8557 30.6948 98.9738 32.8406 98.9738 32.8406C98.9738 32.8406 100.275 33.1268 100.674 33.9136C101.074 34.7004 99.5902 38.7132 98.5486 38.6702Z" fill="#263238"/>
<path d="M93.6722 33.4397C93.6583 33.8044 93.7246 34.1682 93.8678 34.5127C94.0168 34.8442 94.2694 35.1358 94.599 35.3567C94.9469 35.5613 95.3357 35.7116 95.7469 35.8002C95.951 35.8395 96.172 35.8681 96.3804 35.9003C96.5887 35.9325 96.8055 35.9289 97.0308 35.954C96.814 35.9719 96.6057 35.9754 96.3719 35.9862C96.138 35.9969 95.9467 35.9611 95.7086 35.9325C95.2618 35.8692 94.8384 35.7198 94.4715 35.4962C94.1096 35.256 93.8452 34.9274 93.7147 34.5556C93.5897 34.1925 93.575 33.8088 93.6722 33.4397Z" fill="#263238"/>
<path d="M98.9737 33.1214C98.8489 32.5358 98.5457 31.9875 98.0937 31.5299C97.6381 31.0852 97.0236 30.7765 96.3421 30.6501C96.1744 30.6122 96.004 30.5836 95.8319 30.5643L95.309 30.5357C94.9604 30.5357 94.6118 30.5714 94.2589 30.5929C93.906 30.6143 93.5616 30.6859 93.2173 30.761C92.8729 30.8361 92.5328 30.9183 92.1842 30.9899C92.5158 30.879 92.8517 30.7824 93.1875 30.6751C93.5234 30.5678 93.8848 30.5285 94.2334 30.457C94.9463 30.3375 95.6802 30.3375 96.3931 30.457C97.1127 30.5995 97.7549 30.9407 98.217 31.4262C98.6683 31.9134 98.9323 32.5047 98.9737 33.1214Z" fill="#263238"/>
<path d="M97.3412 38.2894C97.3412 38.2894 98.5486 36.4153 99.5477 36.773C100.547 37.1306 99.7773 39.7271 98.7272 40.1706C98.5974 40.2352 98.4535 40.2773 98.304 40.2943C98.1546 40.3112 98.0026 40.3028 97.8571 40.2694C97.7116 40.2361 97.5755 40.1785 97.457 40.1001C97.3384 40.0217 97.2398 39.924 97.1669 39.813L97.3412 38.2894Z" fill="#EB9481"/>
<path d="M99.3096 37.5169C99.3096 37.5169 99.3096 37.5169 99.3096 37.5419C98.5741 37.871 98.2467 38.5076 98.0341 39.1549C98.0677 39.0802 98.1212 39.0131 98.1907 38.9586C98.2601 38.9042 98.3435 38.864 98.4345 38.8412C98.5254 38.8183 98.6213 38.8135 98.7149 38.8269C98.8084 38.8404 98.897 38.8719 98.9737 38.9189C98.9793 38.9189 98.9848 38.9207 98.9887 38.9241C98.9927 38.9274 98.995 38.932 98.995 38.9367C98.995 38.9415 98.9927 38.946 98.9887 38.9494C98.9848 38.9527 98.9793 38.9546 98.9737 38.9546C98.834 38.9311 98.689 38.9446 98.5588 38.9933C98.4286 39.042 98.3196 39.1234 98.2467 39.2264C98.1258 39.3982 98.0275 39.5804 97.9534 39.7701C97.9236 39.8308 97.7961 39.813 97.8131 39.745V39.7271C97.6515 38.9189 98.268 37.6957 99.3096 37.5169Z" fill="#263238"/>
<path d="M122.127 47.7019L59.7442 56.6251L66.7683 91.3758L129.151 82.4526L122.127 47.7019Z" fill="white"/>
<path d="M66.6627 91.4925V91.4031L59.6181 56.5686L59.7244 56.5507L122.221 47.6096L129.278 82.5335L129.159 82.5514L66.6627 91.4925ZM59.8604 56.7116L66.8498 91.2851L129.023 82.3941L122.034 47.8206L59.8604 56.7116Z" fill="#DBDBDB"/>
<path d="M101.525 68.5246C101.767 69.7034 101.588 70.9161 101.011 72.0094C100.434 73.1026 99.4835 74.0271 98.2812 74.6658C97.0788 75.3045 95.6781 75.6287 94.2566 75.5974C92.835 75.566 91.4565 75.1805 90.2955 74.4897C89.1346 73.7988 88.2435 72.8337 87.735 71.7165C87.2265 70.5994 87.1235 69.3804 87.4391 68.2139C87.7547 67.0475 88.4746 65.9861 89.5078 65.1641C90.5409 64.342 91.8408 63.7964 93.2428 63.5963C95.1175 63.3287 97.0419 63.6971 98.5943 64.6209C100.147 65.5447 101.2 66.9484 101.525 68.5246Z" fill="#DD6A57"/>
<path d="M91.9673 72.4837L90.947 67.4481L98.944 68.8965L91.9673 72.4837Z" fill="white"/>
<path d="M128.6 79.7389L66.2167 88.6621L66.7654 91.377L129.149 82.4538L128.6 79.7389Z" fill="#EBEBEB"/>
<path d="M122.697 81.5614L70.1889 89.0721L70.3514 89.876L122.86 82.3653L122.697 81.5614Z" fill="#C7C7C7"/>
<path d="M68.9251 88.7875L66.8839 89.0794L67.231 90.7965L69.2721 90.5045L68.9251 88.7875Z" fill="#C7C7C7"/>
<path d="M67.8065 89.2685L67.4209 89.3237L67.6439 90.4273L68.0295 90.3721L67.8065 89.2685Z" fill="#A6A6A6"/>
<path d="M68.5164 89.1573L68.1308 89.2125L68.3539 90.3161L68.7395 90.2609L68.5164 89.1573Z" fill="#A6A6A6"/>
<path d="M125.48 80.6983L123.439 80.9903L123.786 82.7073L125.828 82.4154L125.48 80.6983Z" fill="#C7C7C7"/>
<path d="M124.277 81.5396L123.878 81.5965L123.963 82.0126L124.361 81.9556L124.277 81.5396Z" fill="#A6A6A6"/>
<path d="M124.861 82.158L124.206 81.9756L124.121 81.5607L124.67 81.2066L124.861 82.158Z" fill="#A6A6A6"/>
<path d="M124.998 81.3247L125.074 81.2317C125.219 81.3194 125.317 81.4513 125.347 81.5991C125.377 81.7469 125.337 81.8988 125.236 82.0221L125.125 81.9577C125.167 81.9093 125.197 81.8542 125.213 81.7958C125.229 81.7375 125.231 81.677 125.219 81.618C125.207 81.559 125.182 81.5026 125.144 81.4522C125.106 81.4018 125.056 81.3584 124.998 81.3247Z" fill="#A6A6A6"/>
<path d="M125.018 81.8933L124.908 81.8361C124.95 81.7852 124.967 81.7222 124.954 81.6609C124.948 81.6307 124.934 81.6019 124.915 81.5761C124.895 81.5503 124.87 81.5281 124.84 81.5107L124.916 81.4212C125 81.4753 125.056 81.5535 125.075 81.6408C125.094 81.728 125.074 81.818 125.018 81.8933Z" fill="#A6A6A6"/>
<path d="M127.911 80.3531L125.87 80.6451L126.217 82.3621L128.258 82.0702L127.911 80.3531Z" fill="#C7C7C7"/>
<path d="M127.095 80.7511L126.253 80.8716L126.396 81.5803L127.238 81.4598L127.095 80.7511Z" fill="#A6A6A6"/>
<path d="M128.6 81.256L127.754 81.3782L127.899 82.0898L128.745 81.9676L128.6 81.256Z" fill="white"/>
<path d="M80.1101 88.0698C80.1357 88.2097 80.2013 88.3423 80.3014 88.4561L70.353 89.8867L70.1914 89.0784L80.1398 87.6478C80.0908 87.7846 80.0806 87.9291 80.1101 88.0698Z" fill="#A6A6A6"/>
<path d="M82.2911 87.7587C82.3211 87.898 82.3124 88.0412 82.2656 88.1772C82.2064 88.3446 82.0925 88.4947 81.9369 88.6104C81.7813 88.7261 81.5903 88.8028 81.3855 88.8317C81.1811 88.8618 80.9707 88.8425 80.7788 88.776C80.5869 88.7095 80.4214 88.5986 80.3014 88.4561C80.2013 88.3424 80.1357 88.2098 80.1101 88.0699C80.0619 87.8272 80.1296 87.5784 80.2984 87.3775C80.4671 87.1765 80.7234 87.0398 81.0114 86.997C81.1547 86.976 81.3015 86.979 81.4433 87.006C81.5852 87.033 81.7192 87.0834 81.8378 87.1542C81.9564 87.225 82.0572 87.3149 82.1342 87.4187C82.2113 87.5225 82.2631 87.638 82.2868 87.7587H82.2911Z" fill="#A6A6A6"/>
<path d="M104.926 46.5617C107.902 48.028 120.928 54.8412 122.497 60.6243C123.964 66.039 118.305 74.2827 116.826 76.8685C116.184 77.9986 107.022 74.8406 106.575 73.5567C106.129 72.2727 111.652 63.5069 111.677 62.5091C111.703 61.5112 105.321 54.1438 101.95 50.2204C98.7442 46.5116 99.3521 43.8221 104.926 46.5617Z" fill="#EB9481"/>
<path d="M103.544 80.8633C102.651 82.2367 100.143 83.424 101.095 84.2573C101.946 84.9977 103.608 84.032 103.608 84.032C103.608 84.032 102.162 85.6271 103.361 86.2029C104.56 86.7787 106.108 85.4125 106.108 85.4125C106.108 85.4125 104.832 86.6929 106.078 87.2008C107.324 87.7086 108.892 86.743 108.892 86.743C108.892 86.743 108.829 87.3188 109.896 87.3438C111.422 87.376 113.526 85.2409 114.313 83.9069C115.1 82.5728 116.804 77.1903 117.047 76.3641L106.898 72.0474C106.898 72.0474 104.199 73.8785 102.966 74.9479C101.733 76.0172 98.8292 80.4914 100.1 81.1745C101.372 81.8576 103.357 78.6709 104.046 77.9735C104.734 77.2761 105.041 77.3012 105.019 77.8162C105.007 78.1488 103.935 80.2553 103.544 80.8633Z" fill="#EB9481"/>
<path d="M103.65 83.957C105.836 82.4727 106.49 81.5071 107.387 79.3076C107.387 79.2647 107.481 79.2754 107.468 79.3076C106.826 81.5321 106.214 82.8447 103.727 84.0392C103.616 84.1072 103.553 84.0249 103.65 83.957Z" fill="#263238"/>
<path d="M105.997 85.4555C108.123 83.7495 108.829 82.7052 109.968 80.4485C109.968 80.4199 110.049 80.4485 110.036 80.4699C109.139 82.7553 108.493 84.0464 106.116 85.5234C106.01 85.5985 105.899 85.5342 105.997 85.4555Z" fill="#263238"/>
<path d="M108.897 86.7072C110.801 84.919 111.647 83.8139 112.421 81.5107C112.425 81.4993 112.433 81.4895 112.445 81.4835C112.457 81.4774 112.471 81.4756 112.485 81.4785C112.498 81.4813 112.51 81.4886 112.517 81.4986C112.524 81.5087 112.527 81.5207 112.523 81.5321C112.009 83.9426 110.963 85.341 108.969 86.7501C108.833 86.8431 108.778 86.8181 108.897 86.7072Z" fill="#263238"/>
<path d="M108.14 58.2316L115.367 52.2626C115.367 52.2626 108.221 47.4093 104.084 46.0396C99.9473 44.6698 98.4423 45.3243 101.367 49.8663C103.326 52.8181 105.592 55.6176 108.14 58.2316Z" fill="#37474F"/>
<path d="M59.499 59.6157C58.8273 61.2788 56.8631 63.4604 56.8589 64.7658C56.8444 65.088 56.9536 65.4056 57.1703 65.6716C57.3869 65.9376 57.6996 66.1379 58.0621 66.2429C58.0621 66.2429 56.6251 67.0332 56.8546 68.2206C56.9694 68.8286 58.2321 69.2077 58.2321 69.2077C58.2321 69.2077 57.114 69.8837 57.3818 70.928C57.6072 71.7613 58.8401 72.0009 58.8401 72.0009C58.8401 72.0009 58.1258 73.0739 58.6743 73.8571C59.7924 75.4522 68.4526 74.5938 69.3964 71.7828C69.8216 70.4738 67.7469 70.7778 67.7469 70.7778C67.7469 70.7778 70.6378 69.7263 70.472 68.2242C70.3062 66.7221 67.6108 67.255 67.6108 67.255C67.6108 67.255 70.404 66.2142 70.0426 64.6692C69.6728 63.0634 67.0666 63.9861 67.0666 63.9861C67.0666 63.9861 68.8352 62.6986 68.24 61.5684C67.2579 59.7051 62.8492 62.7594 60.8935 62.5699L60.3536 59.6622L59.499 59.6157Z" fill="#EB9481"/>
<path d="M57.9643 62.2694C58.3044 60.6207 55.1371 58.7717 55.1966 57.1587C55.2731 54.9771 59.6394 56.658 60.3749 59.6622L60.9233 62.5734L57.9643 62.2694Z" fill="#EB9481"/>
<path d="M59.0399 72.0796C59.0102 72.0796 59.0059 72.1154 59.0399 72.1154C62.0794 72.4386 65.1637 71.9758 67.8829 70.7885C67.968 70.7492 67.9254 70.6133 67.8234 70.6419C64.9938 71.4766 62.0351 71.9609 59.0399 72.0796Z" fill="#263238"/>
<path d="M58.1938 69.2256C58.1873 69.2276 58.1817 69.2313 58.1778 69.2361C58.1738 69.2409 58.1717 69.2466 58.1717 69.2524C58.1717 69.2583 58.1738 69.264 58.1778 69.2688C58.1817 69.2736 58.1873 69.2772 58.1938 69.2792C61.2081 69.5761 64.9366 69.011 67.7298 67.3229C67.8276 67.2657 67.8446 67.1334 67.7298 67.1942C65.7742 68.1956 61.0041 69.1505 58.1938 69.2256Z" fill="#263238"/>
<path d="M67.2537 63.8252C64.4987 65.3559 61.4377 65.9889 58.1853 66.2571C58.1428 66.2571 58.1513 66.3108 58.1853 66.3179C59.8179 66.5504 61.8713 66.1963 63.4444 65.8065C64.9088 65.4663 66.2424 64.8105 67.3132 63.9038C67.3599 63.8681 67.3132 63.7894 67.2537 63.8252Z" fill="#263238"/>
<path d="M170.492 120.998C165.73 126.424 160.764 132.722 159.553 139.528C159.553 139.628 159.735 139.664 159.765 139.56C160.312 137.705 161.016 135.884 161.87 134.113C164.999 133.398 168.073 132.793 169.718 130.179C171.418 127.489 171.185 123.984 170.866 121.059C170.823 120.902 170.589 120.894 170.492 120.998Z" fill="#DD6A57"/>
<path d="M161.916 134.052C164.042 130.011 166.801 125.955 170.296 122.636C170.317 122.611 170.356 122.636 170.334 122.668C168.047 125.032 166.308 127.607 164.612 130.229C166.189 128.884 167.919 127.675 169.412 126.248C169.442 126.22 169.488 126.248 169.463 126.288C167.979 127.786 166.359 129.414 164.425 130.522C163.906 131.328 163.383 132.134 162.856 132.94C162.984 132.879 163.12 132.822 163.251 132.768C163.273 132.768 163.294 132.786 163.273 132.797C163.124 132.861 162.979 132.926 162.826 132.979C162.575 133.362 162.329 133.745 162.07 134.127C162.01 134.22 161.87 134.145 161.916 134.052Z" fill="#263238"/>
<path d="M163.506 132.654C164.787 132.049 166.009 131.362 167.163 130.597C167.197 130.597 167.239 130.615 167.209 130.637C166.093 131.45 164.869 132.152 163.562 132.729C163.502 132.754 163.451 132.679 163.506 132.654Z" fill="#263238"/>
<path d="M159.004 138.516C159.004 138.598 159.179 138.594 159.174 138.516C159.2 136.273 159.174 134.024 159.217 131.77C159.901 130.615 161.368 129.982 162.384 129.045C163.118 128.367 163.755 127.619 164.285 126.817C165.511 124.905 166.261 122.802 166.487 120.637C166.772 118.241 165.688 110.33 164.489 110.605C163.864 110.748 161.848 114.664 161.313 115.97C160.446 118.106 159.811 120.304 159.417 122.536C158.443 127.793 158.524 133.208 159.004 138.516Z" fill="#DD6A57"/>
<path d="M158.983 128.848C159.128 126.016 159.889 123.151 160.599 120.401C161.364 117.44 162.261 114.65 164.072 112.007C164.075 112.002 164.08 111.998 164.085 111.994C164.09 111.991 164.097 111.988 164.103 111.987C164.11 111.985 164.116 111.985 164.123 111.986C164.13 111.986 164.136 111.988 164.142 111.991C164.148 111.994 164.153 111.997 164.157 112.002C164.161 112.006 164.164 112.012 164.166 112.017C164.168 112.023 164.168 112.028 164.168 112.034C164.167 112.04 164.165 112.045 164.161 112.05C162.954 114.103 162.019 116.262 161.372 118.487C161.491 118.327 161.64 118.176 161.768 118.026C161.814 117.965 161.934 118.026 161.882 118.083C161.722 118.323 161.532 118.549 161.317 118.756C161.314 118.757 161.31 118.758 161.306 118.758C161.303 118.758 161.299 118.757 161.296 118.756C160.671 120.873 160.224 123.047 159.838 125.193C159.867 125.168 159.897 125.136 159.923 125.111C159.927 125.106 159.933 125.103 159.939 125.102C159.946 125.101 159.953 125.102 159.959 125.106C159.964 125.109 159.968 125.114 159.969 125.12C159.971 125.125 159.969 125.131 159.965 125.136C159.918 125.208 159.863 125.279 159.812 125.351C159.616 126.449 159.438 127.543 159.259 128.627C161.581 126.957 163.562 124.989 164.68 122.565C164.68 122.565 164.71 122.565 164.701 122.565C163.609 125.068 161.878 127.314 159.221 128.838C159.174 129.131 159.123 129.424 159.077 129.714C159.077 129.775 158.949 129.76 158.949 129.714C158.949 129.456 158.949 129.199 158.979 128.938C158.972 128.932 158.966 128.925 158.962 128.917C158.959 128.909 158.957 128.901 158.958 128.892C158.958 128.884 158.96 128.876 158.965 128.868C158.969 128.861 158.975 128.854 158.983 128.848Z" fill="#263238"/>
<path d="M160.076 124.753C161.889 122.59 163.472 120.297 164.807 117.901C164.807 117.876 164.875 117.901 164.863 117.922C163.77 120.369 162.24 122.847 160.165 124.811C160.156 124.821 160.142 124.827 160.128 124.829C160.113 124.831 160.098 124.827 160.086 124.82C160.074 124.812 160.067 124.801 160.065 124.788C160.063 124.776 160.067 124.763 160.076 124.753Z" fill="#263238"/>
<path d="M162.435 117.336C163.171 116.245 163.944 115.19 164.637 114.063C164.637 114.031 164.705 114.063 164.688 114.092C164.128 115.255 163.415 116.363 162.563 117.393C162.558 117.4 162.552 117.406 162.545 117.411C162.537 117.417 162.529 117.42 162.52 117.423C162.502 117.427 162.482 117.426 162.465 117.418C162.448 117.411 162.435 117.398 162.43 117.382C162.424 117.367 162.426 117.35 162.435 117.336Z" fill="#263238"/>
<path d="M162.147 117.812V117.837C162.147 117.837 162.132 117.812 162.147 117.812Z" fill="#263238"/>
<path d="M157.219 132.035C157.185 133.52 156.977 134.998 156.598 136.448C156.623 136.609 156.653 136.767 156.679 136.931C157.224 135.328 157.54 133.676 157.618 132.01C157.634 131.987 157.642 131.961 157.642 131.935C157.642 131.909 157.634 131.883 157.618 131.86C157.695 129.627 157.498 127.393 157.032 125.193C156.207 121.077 154.404 117.121 150.99 114.035C150.962 114.015 150.928 114.001 150.892 113.993C150.856 113.986 150.818 113.985 150.781 113.992C150.745 113.998 150.711 114.012 150.682 114.031C150.652 114.05 150.628 114.075 150.612 114.103C149.234 117.05 149.715 120.565 150.888 123.505C151.523 125.097 152.431 126.602 153.584 127.972C154.753 129.349 156.249 130.522 157.219 132.035Z" fill="#DD6A57"/>
<path d="M151.381 115.408C154.617 119.825 156.866 125.065 157.142 130.283C157.142 130.376 156.964 130.401 156.947 130.304C156.87 129.836 156.785 129.371 156.696 128.909C155.356 127.836 153.983 126.692 153.022 125.333C153.022 125.308 153.048 125.279 153.069 125.301C154.181 126.447 155.372 127.537 156.636 128.566C156.402 127.414 156.13 126.277 155.786 125.158L155.531 124.904C155.476 124.85 155.569 124.768 155.629 124.825L155.705 124.896C155.247 123.363 154.679 121.855 154.005 120.379C153.18 119.553 152.261 118.838 151.662 117.84C151.662 117.819 151.662 117.797 151.704 117.822C152.185 118.391 152.653 118.963 153.201 119.492C153.418 119.703 153.656 119.9 153.881 120.104C153.148 118.502 152.274 116.948 151.267 115.455C151.267 115.444 151.271 115.433 151.278 115.424C151.286 115.415 151.296 115.407 151.307 115.403C151.319 115.398 151.332 115.396 151.345 115.397C151.358 115.398 151.371 115.402 151.381 115.408Z" fill="#263238"/>
<path d="M152.036 120.859C153.082 122.042 154.272 123.173 155.246 124.396C155.253 124.403 155.256 124.413 155.254 124.422C155.252 124.432 155.246 124.44 155.237 124.446C155.233 124.449 155.228 124.451 155.222 124.452C155.217 124.453 155.211 124.453 155.206 124.453C155.195 124.451 155.185 124.446 155.178 124.439C153.936 123.373 152.857 122.181 151.964 120.891C151.934 120.855 152.002 120.819 152.036 120.859Z" fill="#263238"/>
<path d="M155.39 124.671L155.437 124.707C155.443 124.713 155.446 124.721 155.446 124.729C155.445 124.736 155.441 124.744 155.435 124.749C155.428 124.754 155.419 124.757 155.41 124.757C155.401 124.756 155.392 124.753 155.386 124.747L155.344 124.711C155.314 124.686 155.361 124.642 155.39 124.671Z" fill="#263238"/>
<path d="M146.309 123.902C146.689 126.368 147.866 128.698 149.711 130.64C150.475 131.401 151.419 132.02 152.483 132.457C153.681 132.958 154.936 133.53 156.177 133.941C156.766 135.205 157.205 136.514 157.486 137.85C157.525 137.736 157.563 137.618 157.606 137.493C156.81 131.738 152.38 126.821 146.722 123.663C146.676 123.64 146.624 123.629 146.572 123.631C146.519 123.632 146.468 123.647 146.425 123.672C146.381 123.697 146.348 123.732 146.327 123.773C146.307 123.814 146.301 123.859 146.309 123.902Z" fill="#DD6A57"/>
<path d="M148.265 125.601C148.227 125.572 148.265 125.512 148.325 125.537C151.441 127.482 153.926 130.055 155.552 133.019C155.595 133.097 155.463 133.165 155.412 133.087C155.148 132.7 154.88 132.321 154.608 131.953C153.333 131.745 152.091 130.98 151.131 130.254C151.105 130.236 151.131 130.204 151.169 130.222C151.664 130.601 152.214 130.927 152.806 131.191C153.333 131.413 153.898 131.549 154.447 131.738C153.968 131.099 153.469 130.483 152.95 129.889C151.553 129.443 150.244 128.823 149.064 128.051C149.06 128.049 149.057 128.046 149.054 128.043C149.052 128.04 149.05 128.036 149.049 128.032C149.048 128.028 149.048 128.024 149.049 128.021C149.049 128.017 149.051 128.013 149.054 128.01C149.056 128.006 149.059 128.004 149.063 128.001C149.067 127.999 149.071 127.998 149.076 127.997C149.08 127.996 149.085 127.996 149.09 127.997C149.094 127.997 149.099 127.999 149.103 128.001C150.271 128.594 151.476 129.136 152.712 129.625C151.924 128.747 151.072 127.911 150.161 127.121C149.736 126.924 149.277 126.728 148.852 126.52C148.818 126.502 148.852 126.452 148.877 126.463C149.231 126.569 149.57 126.709 149.885 126.881C149.358 126.449 148.83 126.019 148.265 125.601Z" fill="#263238"/>
<path d="M148.388 127.59C148.465 127.627 148.537 127.67 148.605 127.718C148.626 127.718 148.605 127.758 148.58 127.747C148.499 127.718 148.422 127.682 148.35 127.64C148.342 127.635 148.337 127.629 148.335 127.621C148.333 127.613 148.334 127.605 148.339 127.599C148.345 127.592 148.353 127.587 148.362 127.586C148.371 127.584 148.38 127.585 148.388 127.59Z" fill="#263238"/>
<path d="M166.453 150.314H150.939L152.193 138.426L152.466 135.805H164.927L165.203 138.426L166.453 150.314Z" fill="#455A64"/>
<path d="M165.203 138.426H152.193L152.465 135.805H164.926L165.203 138.426Z" fill="#263238"/>
<path d="M165.67 133.973H151.726V136.566H165.67V133.973Z" fill="#455A64"/>
</svg>
