<svg width="154" height="150" viewBox="0 0 154 150" fill="none" xmlns="http://www.w3.org/2000/svg">
<path d="M79.299 28.9782C79.6642 28.8489 80.0173 28.6878 80.3543 28.4967C80.8243 28.2071 81.2317 27.8266 81.5528 27.3776C81.8739 26.9285 82.1021 26.4199 82.2241 25.8815C82.3026 25.5121 82.3336 25.1342 82.3165 24.757C82.2769 24.3408 82.1952 23.9298 82.0724 23.5302C81.8449 22.676 81.5975 21.7461 81.3304 20.7534L79.5298 13.9797L77.3533 5.76816C77.1587 5.02945 76.9608 4.28085 76.7564 3.51576C76.5944 2.7512 76.2194 2.04807 75.6747 1.4876C75.1123 0.915381 74.3906 0.525808 73.6037 0.369647C72.786 0.228825 71.9456 0.305012 71.1666 0.5906L49.5626 6.28262C48.6384 6.52905 47.8326 7.09743 47.2904 7.88536C46.7527 8.66123 46.5127 9.60491 46.6144 10.5434C46.6825 11.0112 46.7861 11.4731 46.9244 11.9252C47.0464 12.3902 47.1651 12.8519 47.2871 13.3103C47.529 14.2292 47.7675 15.1405 48.0027 16.0441C48.9492 19.6717 49.8594 23.1443 50.73 26.4685C51.1697 28.1306 51.5919 29.7487 51.9964 31.3229C52.133 32.0954 52.4657 32.8199 52.9627 33.4269C53.453 34.0025 54.0969 34.4269 54.8193 34.6504C56.2638 35.1583 57.6983 34.469 59.0669 34.1722L63.0243 33.1466L74.9327 30.073L78.1744 29.2519L79.0187 29.0474C79.2099 29.0012 79.3089 28.9881 79.3089 28.9881C79.3089 28.9881 79.2165 29.0243 79.0286 29.0771L78.1909 29.3145L74.9624 30.1918L63.0902 33.3642L59.1329 34.4097L57.0355 34.9604C56.2652 35.1559 55.4557 35.1323 54.6982 34.8922C53.9407 34.6521 53.2653 34.2051 52.7483 33.6017C52.2208 32.9656 51.8654 32.2049 51.7161 31.3922C51.3006 29.8224 50.874 28.2054 50.4365 26.5411C49.5626 23.2202 48.6425 19.7377 47.6928 16.1233C47.4553 15.2197 47.2157 14.3084 46.9738 13.3894C46.8507 12.9321 46.7287 12.4704 46.6078 12.0043C46.4613 11.5375 46.351 11.0601 46.278 10.5764C46.1685 9.56248 46.4272 8.54303 47.0068 7.70398C47.5938 6.84182 48.4719 6.22011 49.4802 5.95284L71.0874 0.293797C71.9104 -0.000152672 72.7957 -0.0751562 73.6564 0.0761418C74.4971 0.251635 75.2657 0.675578 75.8627 1.29303C76.4382 1.89085 76.8347 2.63805 77.007 3.4498C77.2049 4.2116 77.4027 4.9635 77.594 5.70221C78.3624 8.67024 79.078 11.4074 79.731 13.9236C80.384 16.4399 80.971 18.7088 81.4887 20.7072C81.746 21.7076 81.9856 22.6354 82.2076 23.4906C82.3313 23.9015 82.4152 24.3234 82.4583 24.7504C82.4726 25.1406 82.4349 25.5309 82.3462 25.9112C82.2156 26.4604 81.975 26.9774 81.6389 27.4308C81.3027 27.8843 80.8781 28.2649 80.3906 28.5494C80.1397 28.6978 79.8717 28.8152 79.5925 28.899C79.3979 28.9584 79.299 28.9782 79.299 28.9782Z" fill="#E0E0E0"/>
<path d="M70.6123 20.5357C70.5475 20.5648 70.4802 20.588 70.4112 20.605L69.8308 20.7699L67.6674 21.3668L60.4122 23.3191H60.3528L60.3265 23.263L59.8252 22.1121L56.313 13.6961L56.3658 13.7192L54.4267 14.2138L53.9089 14.3392L53.7275 14.3754C53.7838 14.3501 53.8423 14.3303 53.9023 14.3161L54.4135 14.1677L56.346 13.6334H56.3856V13.6697L59.9439 22.0692L60.432 23.2334L60.3495 23.1905L67.6311 21.2843L69.8044 20.7303L70.3914 20.5885C70.4635 20.5649 70.5374 20.5472 70.6123 20.5357Z" fill="#E0E0E0"/>
<path d="M59.522 21.2085C59.522 21.2085 59.5385 21.2085 59.5714 21.1887L59.7198 21.1425L60.3035 20.9777L62.4867 20.3775L70.0321 18.3493L69.9826 18.4219C69.8705 17.1027 69.7485 15.655 69.6199 14.1644C69.5572 13.3993 69.4912 12.6474 69.4319 11.9285L69.5209 11.9911L60.6168 14.326L57.9786 15.0053L57.2663 15.1834L57.0816 15.223C57.0387 15.223 57.0189 15.223 57.0156 15.223L57.0783 15.2032L57.2597 15.1471L57.9687 14.946L60.6069 14.227L69.511 11.846L69.5902 11.8229V11.9054C69.6495 12.6243 69.7122 13.3762 69.7782 14.1413C69.9035 15.6319 70.0222 17.0698 70.1343 18.4021V18.4581H70.0783L62.5197 20.4368L60.3266 20.9974L59.7363 21.1425L59.5846 21.1788L59.522 21.2085Z" fill="#E0E0E0"/>
<path d="M63.6606 25.3473C63.6606 25.3473 63.6243 25.2615 63.5386 25.1197C63.4183 24.9226 63.2363 24.7708 63.0208 24.6877C62.865 24.6279 62.6967 24.6075 62.5311 24.6282C62.3654 24.6489 62.2074 24.7101 62.0711 24.8064C61.9687 24.8937 61.8852 25.0008 61.8257 25.1214C61.7662 25.242 61.7319 25.3735 61.7249 25.5078C61.7179 25.6421 61.7383 25.7764 61.785 25.9025C61.8316 26.0286 61.9035 26.1439 61.9962 26.2413C62.0889 26.3387 62.2005 26.4162 62.3241 26.4691C62.4478 26.5219 62.5809 26.549 62.7154 26.5487C62.8499 26.5483 62.9829 26.5206 63.1063 26.4671C63.2297 26.4136 63.3408 26.3356 63.4331 26.2377C63.5783 26.0592 63.6606 25.8378 63.6672 25.6078C63.6672 25.4429 63.6474 25.3506 63.6672 25.3473C63.7095 25.4275 63.731 25.5171 63.7299 25.6078C63.7431 25.8563 63.6684 26.1015 63.5188 26.3003C63.4054 26.4522 63.2548 26.5723 63.0815 26.6491C62.9082 26.7259 62.7181 26.7568 62.5295 26.7389C62.299 26.7195 62.0803 26.6293 61.9031 26.4807C61.7259 26.3321 61.5991 26.1323 61.5398 25.9088C61.4806 25.6853 61.492 25.4489 61.5723 25.2321C61.6526 25.0153 61.798 24.8286 61.9886 24.6976C62.1422 24.5914 62.3204 24.5263 62.5063 24.5084C62.6921 24.4905 62.8795 24.5204 63.0505 24.5954C63.2786 24.6954 63.4651 24.8714 63.5782 25.0933C63.6262 25.1699 63.6545 25.2571 63.6606 25.3473Z" fill="#E0E0E0"/>
<path d="M70.2564 23.6027C70.2564 23.6027 70.2201 23.5137 70.1344 23.3752C70.0131 23.1789 69.8314 23.0273 69.6166 22.9432C69.4464 22.878 69.2615 22.8611 69.0824 22.8943C68.9032 22.9275 68.7367 23.0096 68.6012 23.1315C68.4657 23.2533 68.3665 23.4103 68.3145 23.5849C68.2625 23.7596 68.2598 23.9452 68.3067 24.1213C68.3535 24.2975 68.4481 24.4572 68.5799 24.583C68.7118 24.7088 68.8759 24.7957 69.054 24.8341C69.2321 24.8726 69.4174 24.8611 69.5894 24.8009C69.7614 24.7407 69.9135 24.6342 70.0288 24.4931C70.1741 24.3134 70.2564 24.091 70.263 23.8599C70.263 23.6984 70.2432 23.606 70.263 23.6027C70.3057 23.6816 70.3272 23.7702 70.3256 23.8599C70.3397 24.1085 70.2649 24.354 70.1146 24.5525C70.0027 24.7018 69.8547 24.8204 69.6846 24.897C69.5145 24.9737 69.3277 25.0061 69.1417 24.9911C68.9116 24.9715 68.6933 24.8811 68.5167 24.7324C68.34 24.5837 68.2137 24.384 68.1552 24.1607C68.0966 23.9373 68.1087 23.7013 68.1897 23.4851C68.2707 23.2688 68.4166 23.083 68.6075 22.9531C68.7617 22.8469 68.9404 22.7818 69.1268 22.7639C69.3132 22.746 69.5011 22.7759 69.6727 22.8508C69.9014 22.9499 70.0881 23.1262 70.2003 23.3488C70.2394 23.4276 70.2586 23.5148 70.2564 23.6027Z" fill="#E0E0E0"/>
<path d="M130.171 147.314C122.768 143.686 119.918 135.237 118.985 127.405C118.83 126.086 118.474 124.766 118.919 123.513C119.364 122.26 120.683 121.274 121.933 121.643C122.969 121.95 123.562 123.009 124.242 123.853C125.155 124.981 126.368 125.829 127.741 126.3C128.635 126.6 129.7 126.705 130.448 126.128C131.477 125.337 131.368 123.767 131.164 122.474L130.006 115.249C129.799 113.956 129.591 112.637 129.805 111.348C130.02 110.058 130.732 108.782 131.909 108.248C133.087 107.713 134.719 108.188 135.171 109.415C135.362 109.923 135.339 110.487 135.458 111.018C135.576 111.549 135.916 112.106 136.447 112.179C136.978 112.251 137.436 111.803 137.766 111.364C138.901 109.854 139.547 108.033 140.137 106.229C140.728 104.425 141.285 102.585 142.278 100.976C143.27 99.3666 144.771 97.9783 146.608 97.5858C148.444 97.1934 150.595 98.0376 151.343 99.7822C152.092 101.527 151.33 103.548 150.393 105.217C149.014 107.671 147.287 109.912 145.265 111.872C144.903 112.225 144.507 112.604 144.424 113.109C144.276 114.012 145.226 114.758 146.12 114.896C147.135 115.071 148.164 114.81 149.193 114.771C150.222 114.731 151.38 115.011 151.907 115.908C152.643 117.148 151.749 118.705 150.799 119.78C148.897 121.929 146.641 123.735 144.128 125.119C143.227 125.611 142.274 126.072 141.608 126.857C140.942 127.642 140.662 128.879 141.278 129.72C141.895 130.561 143.115 130.669 144.085 130.33C145.054 129.99 145.862 129.314 146.756 128.809C148.431 127.863 150.746 127.632 152.122 128.994C153.025 129.891 153.305 131.286 153.111 132.549C152.916 133.812 152.309 134.963 151.64 136.045C149.305 139.827 146.073 143.079 142.169 145.144C138.264 147.208 134.501 148.184 130.175 147.314" fill="#F5F5F5"/>
<path d="M131.431 142.119C132.071 137.675 132.966 133.27 134.112 128.928C134.409 127.772 134.702 126.631 134.992 125.505C135.283 124.384 135.573 123.272 135.922 122.207C136.599 120.153 137.389 118.137 138.287 116.169C139.131 114.286 140.002 112.541 140.826 110.892C141.651 109.244 142.459 107.746 143.25 106.401C144.485 104.271 145.888 102.243 147.445 100.336C147.992 99.6766 148.434 99.1523 148.741 98.8126L149.09 98.4268C149.128 98.3808 149.17 98.3387 149.216 98.3015C149.184 98.351 149.148 98.3983 149.11 98.4433L148.78 98.8456C148.49 99.1952 148.058 99.7129 147.521 100.399C145.996 102.323 144.618 104.359 143.398 106.49C142.62 107.835 141.829 109.349 141.008 110.985C140.186 112.621 139.329 114.385 138.491 116.261C137.603 118.225 136.821 120.235 136.15 122.283C135.804 123.348 135.52 124.45 135.226 125.581C134.933 126.712 134.646 127.847 134.349 129.001C133.206 133.333 132.305 137.726 131.652 142.159" fill="#E0E0E0"/>
<path d="M135.988 122.187C135.9 122.018 135.83 121.84 135.777 121.657C135.655 121.307 135.494 120.799 135.306 120.169C134.923 118.909 134.458 117.152 133.95 115.222C133.442 113.293 132.961 111.536 132.552 110.276C132.354 109.649 132.189 109.145 132.07 108.795C131.998 108.619 131.945 108.435 131.912 108.248C132.013 108.409 132.096 108.582 132.159 108.762C132.305 109.092 132.489 109.6 132.713 110.22C133.155 111.463 133.673 113.208 134.181 115.15C134.689 117.092 135.124 118.797 135.467 120.123C135.625 120.72 135.761 121.225 135.869 121.627C135.93 121.809 135.97 121.997 135.988 122.187Z" fill="#E0E0E0"/>
<path d="M152.144 116.522C151.93 116.602 151.709 116.663 151.484 116.703C151.066 116.805 150.456 116.954 149.707 117.158C148.21 117.557 146.159 118.181 143.926 118.966C141.693 119.75 139.708 120.558 138.287 121.182C137.574 121.485 137.004 121.749 136.608 121.927C136.407 122.032 136.198 122.12 135.981 122.187C136.166 122.06 136.361 121.95 136.565 121.858C136.951 121.65 137.512 121.363 138.214 121.037C139.622 120.377 141.608 119.543 143.843 118.751C145.751 118.07 147.693 117.486 149.661 117.003C150.416 116.819 151.033 116.697 151.461 116.624C151.685 116.569 151.914 116.534 152.144 116.522Z" fill="#E0E0E0"/>
<path d="M131.595 141.783C131.538 141.729 131.489 141.667 131.45 141.598L131.071 141.041C130.741 140.553 130.296 139.837 129.752 138.947C128.657 137.166 127.219 134.66 125.672 131.867C124.126 129.073 122.704 126.557 121.659 124.753L120.383 122.623C120.247 122.392 120.135 122.201 120.053 122.042C120.008 121.976 119.972 121.904 119.947 121.828C120.002 121.885 120.051 121.948 120.092 122.016C120.195 122.168 120.32 122.346 120.468 122.573C120.798 123.058 121.247 123.774 121.787 124.664C122.882 126.448 124.317 128.951 125.867 131.748C127.417 134.544 128.835 137.057 129.88 138.858L131.137 140.988L131.467 141.572C131.518 141.637 131.562 141.707 131.595 141.783Z" fill="#E0E0E0"/>
<path d="M152.593 131.27C152.531 131.322 152.462 131.364 152.388 131.395L151.778 131.708L149.529 132.839C147.633 133.796 145.024 135.148 142.145 136.638C139.266 138.129 136.644 139.461 134.725 140.378C133.765 140.837 132.987 141.199 132.443 141.44L131.813 141.714C131.742 141.749 131.667 141.776 131.589 141.793C131.652 141.743 131.72 141.701 131.793 141.668L132.403 141.354L134.649 140.223C136.549 139.27 139.157 137.915 142.036 136.424C144.915 134.934 147.537 133.601 149.453 132.684C150.413 132.226 151.194 131.863 151.738 131.623L152.365 131.352C152.437 131.314 152.513 131.287 152.593 131.27Z" fill="#E0E0E0"/>
<path d="M3.4657 27.9459C3.4657 27.9459 -0.211359 28.8396 2.7072 36.8005C5.62577 44.7615 7.82541 48.7947 7.82541 48.7947C7.82541 48.7947 8.2937 50.6184 6.79319 50.7107C5.29269 50.803 2.13338 49.8994 1.26276 51.611C0.359162 53.3885 1.5002 55.3079 4.05271 57.1777C6.60522 59.0476 12.0466 63.3512 12.5446 63.7437C13.0425 64.1361 13.4482 65.0001 12.439 65.2277C11.4299 65.4552 4.07909 65.3332 4.23079 68.8223C4.38249 72.3114 12.3434 76.3578 13.2041 76.8162C14.0649 77.2746 14.2364 77.6835 14.1044 78.1716C13.9725 78.6596 11.5025 78.3859 9.41165 78.4354C7.32084 78.4849 4.90355 78.9136 5.16077 80.9219C5.418 82.9303 9.85686 87.6165 21.7026 90.2416L27.2693 91.099L30.8969 86.7426C38.063 76.9547 38.3071 70.5009 37.1627 68.8223C36.0184 67.1437 33.9342 68.4199 32.3281 69.7622C30.7221 71.1044 29.0501 72.938 28.628 72.6609C28.2059 72.3839 28.0641 71.9618 28.407 71.0483C28.75 70.1348 32.0709 61.8408 29.8812 59.1168C27.6914 56.3928 22.25 61.3363 21.3398 61.8342C20.4296 62.3322 20.1724 61.3923 20.2812 60.7855C20.3901 60.1787 21.6399 53.3457 22.3259 50.2556C23.0118 47.1656 22.5963 44.9791 20.7462 44.2338C18.9621 43.5182 17.1813 46.2883 15.9941 47.2018C14.8069 48.1153 13.956 46.4433 13.956 46.4433C13.956 46.4433 12.9469 41.9616 9.88654 34.0535C6.82617 26.1453 3.39315 27.9657 3.39315 27.9657" fill="#EBEBEB"/>
<path d="M27.4014 92.4478C25.1754 86.6338 21.3928 76.2292 18.0983 67.3152C14.8038 58.4012 11.816 50.3381 9.61961 44.5108C8.52144 41.6055 7.64093 39.2343 7.01105 37.6151C6.70765 36.8039 6.46691 36.174 6.30531 35.7387C6.22617 35.5276 6.1668 35.366 6.12393 35.2473C6.08106 35.1286 6.06787 35.0791 6.06787 35.0791C6.06787 35.0791 6.09425 35.1319 6.14042 35.2407L6.33829 35.7255L7.077 37.5887C7.71348 39.208 8.62367 41.5461 9.73504 44.468C11.9611 50.282 14.9687 58.3419 18.2632 67.2558C21.5577 76.1698 25.3205 86.5777 27.5168 92.4049" fill="#E0E0E0"/>
<path d="M5.63916 53.0555C5.7696 53.0952 5.89558 53.1482 6.01511 53.2138C6.25255 53.3226 6.59223 53.4908 7.00445 53.7018C7.8355 54.1273 8.98314 54.7473 10.2165 55.4497L13.389 57.2635L14.352 57.8076C14.4692 57.8659 14.5798 57.9366 14.6818 58.0187C14.5507 57.9838 14.4244 57.9328 14.3058 57.867C14.0684 57.7582 13.7287 57.59 13.3165 57.3723C12.4854 56.937 11.3576 56.3071 10.1176 55.6014L6.9385 53.8107L5.97224 53.2731C5.85206 53.2157 5.74006 53.1425 5.63916 53.0555Z" fill="#E0E0E0"/>
<path d="M15.13 57.7087C15.0872 57.6856 16.2579 55.2881 17.7419 52.3497C19.2259 49.4114 20.4692 47.0501 20.5121 47.0732C20.5549 47.0963 19.3842 49.4938 17.9002 52.4322C16.4162 55.3705 15.1828 57.7285 15.13 57.7087Z" fill="#E0E0E0"/>
<path d="M19.5723 71.6254C19.6472 71.5048 19.7369 71.394 19.8394 71.2957L20.6111 70.4712C21.2706 69.7721 22.1577 68.8223 23.1042 67.701C24.0507 66.5798 24.8817 65.5706 25.472 64.822L26.1745 63.9349C26.2548 63.8215 26.3465 63.7165 26.4482 63.6216C26.3882 63.7466 26.3153 63.8648 26.2305 63.9745C26.0788 64.1955 25.8579 64.5121 25.571 64.8979C25.0038 65.6663 24.1925 66.7084 23.2394 67.8165C22.2864 68.9245 21.3762 69.8809 20.7001 70.5569C20.3703 70.8867 20.0867 71.1637 19.8889 71.3451C19.7928 71.4487 19.6868 71.5426 19.5723 71.6254Z" fill="#E0E0E0"/>
<path d="M10.0581 69.3071C10.1874 69.308 10.316 69.3257 10.4407 69.3598L11.4663 69.5676C12.327 69.749 13.5175 70.0128 14.83 70.3162C16.1426 70.6196 17.3298 70.8999 18.1839 71.1143L19.1963 71.3748C19.3224 71.4006 19.4452 71.4404 19.5624 71.4935C19.4342 71.4927 19.3067 71.4749 19.1831 71.4408L18.1509 71.2495C17.2869 71.0681 16.0964 70.8043 14.7839 70.5009C13.4713 70.1975 12.2874 69.9172 11.43 69.7028L10.4176 69.4423C10.2927 69.4119 10.172 69.3665 10.0581 69.3071Z" fill="#E0E0E0"/>
<path d="M12.4194 82.0894C12.5827 82.1008 12.7448 82.125 12.9042 82.1619L14.2233 82.4224C15.3314 82.65 16.8616 82.9765 18.5435 83.3491C20.2254 83.7218 21.7555 84.0648 22.8537 84.322L24.1728 84.6518C24.3349 84.6839 24.4938 84.7302 24.6477 84.7903C24.4829 84.7832 24.3193 84.7589 24.1596 84.7177L22.8405 84.4572C21.7325 84.2296 20.2023 83.9031 18.5204 83.5305C16.8385 83.1578 15.2951 82.7918 14.1937 82.5445L12.8745 82.2147C12.7189 82.1887 12.5664 82.1467 12.4194 82.0894Z" fill="#E0E0E0"/>
<path d="M24.354 84.632C24.4506 84.4845 24.5611 84.3464 24.6838 84.2198L25.6237 83.1381C26.4184 82.2213 27.5067 80.9549 28.6741 79.5105C29.8416 78.0661 30.8639 76.7535 31.596 75.7906L32.4666 74.6495C32.5647 74.5051 32.675 74.3694 32.7964 74.2439C32.7172 74.4001 32.6245 74.549 32.5194 74.6891C32.3281 74.9727 32.0478 75.375 31.6916 75.8664C30.9826 76.8558 29.9735 78.1749 28.806 79.6226C27.6386 81.0704 26.5306 82.3136 25.7127 83.2106C25.3038 83.6558 24.9674 84.0153 24.7234 84.2561C24.6097 84.3904 24.4863 84.516 24.354 84.632Z" fill="#E0E0E0"/>
<path d="M146.152 147.917C146.152 147.966 114.384 148.003 75.2063 148.003C36.0283 148.003 4.25391 147.966 4.25391 147.917C4.25391 147.868 36.0151 147.831 75.2063 147.831C114.398 147.831 146.152 147.871 146.152 147.917Z" fill="#263238"/>
<path d="M130.804 12.0802H121.24C120.613 12.0966 120.017 12.3614 119.584 12.8164C119.151 13.2715 118.917 13.8796 118.932 14.5074V16.242C118.947 16.8698 118.712 17.478 118.28 17.933C117.847 18.3881 117.251 18.6528 116.623 18.6692H97.9743C97.3442 18.6537 96.7459 18.3893 96.3103 17.9338C95.8746 17.4783 95.637 16.8689 95.6494 16.2388V14.4876C95.6618 13.8606 95.4264 13.2539 94.9941 12.7994C94.5619 12.345 93.9678 12.0794 93.3409 12.0604H89.9771H81.604C79.6066 12.0604 77.6909 12.8534 76.2779 14.2652C74.8649 15.6769 74.0702 17.5919 74.0685 19.5893L74.0454 140.345C74.0454 142.341 74.8382 144.256 76.2494 145.668C77.6606 147.08 79.5748 147.873 81.571 147.874L130.821 147.904C131.809 147.905 132.789 147.711 133.702 147.333C134.616 146.955 135.447 146.401 136.146 145.702C136.846 145.003 137.401 144.173 137.779 143.26C138.158 142.346 138.353 141.367 138.353 140.378L138.376 19.619C138.377 18.6258 138.182 17.6422 137.801 16.7248C137.421 15.8074 136.863 14.9744 136.159 14.2736C135.455 13.5729 134.62 13.0183 133.701 12.6419C132.782 12.2655 131.797 12.0746 130.804 12.0802Z" fill="white"/>
<path d="M130.804 12.0802C130.804 12.0802 130.89 12.0802 131.061 12.0802C131.316 12.0798 131.571 12.0985 131.823 12.1363C132.824 12.2625 133.788 12.5997 134.649 13.1256C135.288 13.5002 135.866 13.9694 136.364 14.5173C136.973 15.1747 137.459 15.9366 137.799 16.7664C138.19 17.7372 138.382 18.7769 138.363 19.8234C138.363 20.9348 138.363 22.1319 138.363 23.3719C138.363 33.4038 138.379 47.9175 138.389 65.8477C138.399 83.7779 138.389 105.138 138.389 128.836V140.121C138.407 140.9 138.31 141.678 138.102 142.429C137.892 143.183 137.567 143.899 137.139 144.553C136.703 145.205 136.175 145.79 135.573 146.291C134.334 147.294 132.813 147.884 131.223 147.98C129.646 148.026 128.077 147.98 126.494 147.999H116.917H97.2389H82.092C80.3481 148.088 78.6232 147.603 77.1816 146.618C75.7554 145.618 74.7094 144.165 74.2136 142.495C73.9784 141.668 73.8727 140.809 73.9003 139.95V137.41C73.9003 134.033 73.9003 130.677 73.9003 127.342C73.9003 120.68 73.9003 114.12 73.9003 107.661C73.9003 94.7563 73.9003 82.3104 73.9003 70.4514C73.9003 58.5925 73.9003 47.3272 73.9003 36.7808C73.9003 31.5043 73.9003 26.4191 73.9003 21.5251C73.9003 20.9117 73.9003 20.3016 73.9003 19.6981C73.9003 19.3947 73.9266 19.088 73.9431 18.7846C73.9596 18.4812 74.019 18.1811 74.0948 17.8876C74.3667 16.7142 74.91 15.6208 75.6811 14.6954C76.4298 13.8052 77.3718 13.0976 78.4354 12.6267C79.4989 12.1558 80.656 11.9339 81.8183 11.978H88.381H93.0836C93.61 11.9499 94.1312 12.0946 94.5676 12.3902C94.9921 12.6888 95.3136 13.1116 95.4877 13.6005C95.6323 14.0821 95.6838 14.5869 95.6394 15.0878V15.8463C95.6321 16.0862 95.6398 16.3263 95.6625 16.5652C95.733 17.0361 95.9433 17.4749 96.266 17.825C96.566 18.1766 96.9684 18.4257 97.417 18.5373C97.6382 18.5903 97.8656 18.6136 98.093 18.6066H101.506H111.433H115.809C116.155 18.6066 116.508 18.6066 116.834 18.6066C117.162 18.5656 117.476 18.453 117.755 18.2768C118.023 18.1069 118.254 17.8852 118.435 17.6247C118.616 17.3642 118.744 17.0701 118.81 16.7598C118.864 16.4574 118.884 16.1498 118.869 15.843C118.869 15.5396 118.869 15.2395 118.869 14.9427C118.856 14.6497 118.869 14.3561 118.909 14.0655C118.956 13.7829 119.052 13.5107 119.192 13.2608C119.459 12.7879 119.879 12.4202 120.383 12.2187C120.866 12.0663 121.375 12.0125 121.88 12.0604H126.764H129.765H130.791H129.765H126.764H121.88C121.399 12.0604 120.891 12.0109 120.409 12.222C119.914 12.421 119.502 12.7858 119.245 13.2542C119.112 13.4991 119.019 13.7643 118.971 14.0391C118.936 14.3256 118.924 14.6146 118.935 14.9031C118.935 15.1999 118.935 15.5 118.935 15.8034C118.948 16.1157 118.928 16.4285 118.876 16.7367C118.808 17.0581 118.677 17.3627 118.49 17.6328C118.303 17.9029 118.064 18.1331 117.788 18.3098C117.496 18.4895 117.168 18.6021 116.828 18.6395C116.478 18.6692 116.142 18.6395 115.792 18.6395H98.093C97.8546 18.6489 97.6161 18.6256 97.384 18.5703C96.9102 18.4542 96.4853 18.1909 96.1704 17.8184C95.8465 17.4467 95.6389 16.9879 95.5735 16.4993C95.5529 16.2822 95.5452 16.0642 95.5504 15.8463V15.101C95.5913 14.6156 95.541 14.1267 95.402 13.6598C95.238 13.1971 94.9336 12.797 94.5314 12.5155C94.1165 12.2368 93.6223 12.1002 93.1232 12.1264H81.8579C80.7174 12.0834 79.5823 12.3017 78.5392 12.7647C77.496 13.2277 76.5726 13.923 75.8394 14.7976C75.0864 15.7044 74.5567 16.7752 74.2927 17.9239C74.2169 18.2108 74.1938 18.5076 74.141 18.8011C74.0882 19.0946 74.1047 19.3947 74.1014 19.6981V21.5251C74.1014 26.4191 74.1014 31.5043 74.1014 36.7808C74.1014 47.3338 74.1014 58.5958 74.1014 70.4514V107.661C74.1014 114.111 74.1014 120.672 74.1014 127.342V139.95C74.0728 140.789 74.1752 141.628 74.4048 142.436C74.8925 144.061 75.9153 145.473 77.3069 146.443C78.7126 147.396 80.3931 147.86 82.0887 147.762H87.174H97.2356H116.914H126.504C128.083 147.762 129.666 147.788 131.223 147.742C132.771 147.648 134.251 147.072 135.454 146.093C136.042 145.606 136.556 145.036 136.981 144.402C137.397 143.765 137.713 143.069 137.917 142.337C138.119 141.607 138.214 140.852 138.198 140.095C138.198 139.33 138.198 138.571 138.198 137.809C138.198 134.775 138.198 131.775 138.198 128.81C138.198 105.102 138.221 83.7449 138.231 65.8213C138.241 47.8977 138.264 33.3775 138.274 23.3455C138.274 22.0923 138.274 20.9084 138.274 19.7971C138.295 18.7591 138.108 17.7273 137.723 16.7631C137.389 15.9392 136.91 15.1819 136.308 14.5272C135.131 13.2307 133.537 12.3881 131.803 12.1461C131.552 12.1072 131.299 12.0841 131.045 12.0769C130.89 12.0901 130.804 12.0802 130.804 12.0802Z" fill="#263238"/>
<path d="M86.2144 24.2755C86.2144 24.3052 84.9678 24.3448 83.4343 24.3547C81.9009 24.3646 80.6543 24.3547 80.6543 24.3217C80.6543 24.2887 81.8976 24.2524 83.4343 24.2392C84.9711 24.226 86.2144 24.2425 86.2144 24.2755Z" fill="#263238"/>
<path d="M86.2243 25.6968C86.2243 25.7298 84.981 25.7661 83.4475 25.7793C81.9141 25.7925 80.6675 25.7793 80.6675 25.743C80.6675 25.7067 81.9107 25.6738 83.4442 25.6606C84.9777 25.6474 86.2243 25.6639 86.2243 25.6968Z" fill="#263238"/>
<path d="M86.2374 27.1182C86.2374 27.1512 84.9941 27.1875 83.4573 27.2007C81.9205 27.2139 80.6772 27.2007 80.6772 27.1644C80.6772 27.1281 81.9205 27.0951 83.4573 27.0819C84.9941 27.0688 86.2374 27.0852 86.2374 27.1182Z" fill="#263238"/>
<path d="M104.468 117.386H79.7178V142.136H104.468V117.386Z" fill="#F5F5F5"/>
<path d="M101.546 131.547C99.5308 128.734 95.2536 126.808 91.7777 127.325C88.9613 127.744 86.4682 129.054 85.1029 131.85C85.0114 132.033 84.9653 132.235 84.9684 132.439C84.9716 132.643 85.0239 132.843 85.121 133.023C85.2181 133.202 85.3571 133.356 85.5261 133.47C85.6952 133.585 85.8894 133.657 86.0922 133.68C90.7847 134.241 95.5281 134.225 100.217 133.634C100.939 133.542 101.8 133.341 101.849 132.447C101.854 132.121 101.747 131.803 101.546 131.547Z" fill="#FF725E"/>
<g opacity="0.5">
<path opacity="0.5" d="M101.546 131.547C99.531 128.734 95.2537 126.808 91.7778 127.325C88.9615 127.744 86.4683 129.054 85.103 131.85" fill="white"/>
</g>
<path d="M90.4191 131.405C90.4026 131.405 90.2575 131.276 90.0663 131.012C89.8108 130.664 89.629 130.266 89.532 129.845C89.4496 129.426 89.4142 128.999 89.4265 128.572C89.4117 128.396 89.4262 128.219 89.4694 128.048C89.5242 128.216 89.5509 128.392 89.5485 128.569C89.5707 128.984 89.6203 129.397 89.6969 129.805C89.7949 130.207 89.9527 130.592 90.1652 130.946C90.2689 131.088 90.3543 131.242 90.4191 131.405Z" fill="#F5F5F5"/>
<path d="M93.4035 131.27C93.3541 131.27 93.4266 130.472 93.3211 129.502C93.2156 128.533 92.9913 127.771 93.0342 127.754C93.519 128.859 93.648 130.088 93.4035 131.27Z" fill="#F5F5F5"/>
<path d="M96.4902 130.811C96.4407 130.791 96.6749 130.261 96.731 129.561C96.787 128.862 96.6584 128.298 96.7079 128.285C96.8737 128.693 96.9404 129.135 96.9026 129.574C96.8647 130.013 96.7234 130.437 96.4902 130.811Z" fill="#F5F5F5"/>
<g opacity="0.3">
<path opacity="0.3" d="M92.8564 127.457L92.8828 127.507L92.8564 127.457Z" fill="black"/>
</g>
<path d="M104.755 37.3777H79.7178V74.9101H104.755V37.3777Z" fill="#F5F5F5"/>
<path d="M104.755 77.7396H79.7178V115.272H104.755V77.7396Z" fill="#F5F5F5"/>
<path d="M132.176 70.6526H107.139V105.695H132.176V70.6526Z" fill="#F5F5F5"/>
<path d="M131.972 108.159H106.935V142.133H131.972V108.159Z" fill="#F5F5F5"/>
<path d="M132.176 37.3777H107.139V68.3771H132.176V37.3777Z" fill="#F5F5F5"/>
<path d="M96.1704 48.6001V59.0047C96.1704 59.4598 95.8044 59.9314 95.1316 60.2876C94.2301 60.7109 93.2416 60.9165 92.2461 60.8878H92.2296C89.7727 60.8878 88.3052 59.9182 88.3052 59.0047V48.5804C88.3052 47.5646 89.0538 46.506 89.8057 45.4573C90.3102 44.7582 90.4323 43.7524 90.4652 43.1489C90.4652 43.0796 90.4652 43.0169 90.4652 42.9576H90.396C90.2518 42.9685 90.1091 42.9219 89.9991 42.828C89.8891 42.7341 89.8208 42.6005 89.809 42.4563V42.0177C89.82 41.8727 89.8878 41.7379 89.9978 41.6428C90.1078 41.5476 90.2509 41.4999 90.396 41.5098H94.0862C94.1958 41.5067 94.3041 41.5336 94.3995 41.5877C94.4948 41.6418 94.5735 41.7209 94.6271 41.8165C94.6574 41.8793 94.6732 41.948 94.6732 42.0177V42.4563C94.6606 42.6001 94.592 42.7332 94.4823 42.827C94.3725 42.9208 94.2303 42.9676 94.0862 42.9576H94.0005C94.0005 43.0169 94.0005 43.0796 94.0005 43.1489C94.0236 43.7425 94.1456 44.7483 94.6601 45.4573C95.412 46.506 96.1573 47.5646 96.1606 48.5804L96.1704 48.6001Z" fill="#FAFAFA"/>
<path d="M96.1702 48.6002V48.4947C96.1613 48.3907 96.147 48.2872 96.1273 48.1847C96.039 47.7913 95.8923 47.4133 95.692 47.0634C95.3702 46.5068 95.0144 45.9704 94.6268 45.4574C94.173 44.7077 93.9441 43.8435 93.9673 42.9675V42.9082H94.0002C94.1302 42.9279 94.2629 42.8986 94.3725 42.8261C94.4822 42.7536 94.561 42.643 94.5938 42.5157C94.5938 42.3838 94.5938 42.2222 94.5938 42.0738C94.6018 42.0058 94.5923 41.9368 94.5664 41.8733C94.5404 41.8099 94.4988 41.7541 94.4454 41.7111C94.3328 41.6205 94.1907 41.5747 94.0464 41.5825H92.5591H90.4353C90.3526 41.5751 90.2692 41.5855 90.1908 41.6128C90.1123 41.64 90.0405 41.6837 89.9802 41.7408C89.9255 41.7982 89.8888 41.8704 89.8747 41.9485C89.8695 42.0386 89.8695 42.1289 89.8747 42.2189C89.8747 42.3113 89.8747 42.4201 89.8747 42.496C89.8851 42.5764 89.9209 42.6515 89.9769 42.7103C90.0383 42.7722 90.1129 42.8195 90.1952 42.8486C90.2774 42.8777 90.3651 42.8879 90.4518 42.8785H90.5276V42.9609C90.5238 43.3866 90.4774 43.8109 90.3891 44.2273C90.3035 44.6644 90.1344 45.081 89.8912 45.4541C89.3365 46.1595 88.8784 46.9359 88.5292 47.7626C88.4548 47.9759 88.4061 48.1973 88.3841 48.4221C88.3841 48.6431 88.3841 48.8871 88.3841 49.1213V50.5525C88.3841 51.5199 88.3841 52.5004 88.3841 53.4942C88.3841 55.242 88.3841 56.9503 88.3841 58.5992C88.374 58.7974 88.3828 58.9962 88.4104 59.1928C88.4583 59.3772 88.5525 59.5463 88.6842 59.6841C88.9526 59.9693 89.2786 60.1942 89.6405 60.3437C90.3534 60.6295 91.1119 60.7848 91.8797 60.8021C92.6108 60.8401 93.3436 60.7746 94.0563 60.6075C94.729 60.4745 95.3468 60.1438 95.8305 59.6578C95.9341 59.5383 96.0127 59.3993 96.0614 59.2488C96.0984 59.0957 96.1117 58.9377 96.1009 58.7805V57.8242C96.1009 57.1976 96.1009 56.5974 96.1009 56.0236C96.1009 53.7382 96.1207 51.8881 96.1273 50.5954C96.1273 49.9622 96.1273 49.4675 96.1273 49.118C96.1273 48.7684 96.1438 48.6035 96.1438 48.6035C96.1611 48.7744 96.1677 48.9462 96.1636 49.118C96.1636 49.4675 96.1636 49.9622 96.1801 50.5954C96.1801 51.8881 96.1801 53.7382 96.2065 56.0236C96.2065 56.5974 96.2065 57.1976 96.2065 57.8242V58.7805C96.2191 58.9509 96.2058 59.1221 96.1669 59.2884C96.1132 59.4581 96.0257 59.6151 95.9097 59.7501C95.4083 60.2591 94.7644 60.604 94.0629 60.7394C93.3368 60.9141 92.5894 60.9841 91.8435 60.9472C91.052 60.9317 90.2699 60.7731 89.535 60.4789C89.1508 60.3249 88.8044 60.0898 88.5193 59.7897C88.3698 59.6305 88.2621 59.4367 88.206 59.2257C88.174 59.0163 88.163 58.8042 88.173 58.5926C88.173 56.9437 88.173 55.2354 88.173 53.4876C88.173 52.4916 88.173 51.5111 88.173 50.5459V49.1147C88.173 48.8739 88.173 48.6497 88.173 48.4023C88.1945 48.1639 88.2455 47.9291 88.3247 47.7032C88.6797 46.8626 89.1467 46.0739 89.7131 45.3585C90.1378 44.6312 90.3503 43.7995 90.3265 42.9576L90.4056 43.0368C90.2975 43.046 90.1887 43.0309 90.0871 42.9927C89.9856 42.9545 89.8938 42.894 89.8186 42.8158C89.7419 42.7339 89.6923 42.6302 89.6768 42.519C89.6768 42.4036 89.6768 42.3212 89.6768 42.2222C89.6705 42.1245 89.6705 42.0265 89.6768 41.9287C89.6963 41.8203 89.748 41.7204 89.8252 41.6418C89.8988 41.5699 89.9869 41.5145 90.0835 41.4793C90.1802 41.444 90.2832 41.4297 90.3858 41.4374H92.5096H93.9969C94.1705 41.4323 94.3402 41.4896 94.4751 41.5989C94.5409 41.6549 94.5925 41.7255 94.6257 41.8052C94.659 41.8849 94.6729 41.9713 94.6664 42.0573C94.6664 42.2123 94.6664 42.3508 94.6664 42.5157C94.6301 42.6707 94.5373 42.8066 94.4062 42.8968C94.2751 42.9871 94.1151 43.0252 93.9574 43.0038L94.0134 42.9477C93.9819 43.8038 94.1971 44.6509 94.6334 45.3881C95.0163 45.909 95.3666 46.453 95.6821 47.0173C95.8793 47.3741 96.0174 47.7606 96.091 48.1616C96.108 48.2652 96.1179 48.3699 96.1207 48.4749C96.1451 48.5131 96.1619 48.5556 96.1702 48.6002Z" fill="#263238"/>
<path d="M93.8056 42.9444C92.7094 43.0597 91.6041 43.0597 90.5078 42.9444C91.6041 42.8292 92.7094 42.8292 93.8056 42.9444Z" fill="#263238"/>
<path d="M95.8405 49.9885C95.6638 49.9022 95.4683 49.8615 95.2719 49.8702C95.0755 49.8788 94.8843 49.9365 94.7159 50.038C94.379 50.243 94.0148 50.3995 93.6342 50.503C93.1699 50.546 92.7047 50.4297 92.3151 50.1732C91.9264 49.9196 91.5171 49.699 91.0916 49.5137C90.6692 49.37 90.2148 49.3479 89.7804 49.4499C89.346 49.552 88.9491 49.774 88.6348 50.0908V58.9949C88.6348 58.9949 89.1261 60.5152 92.5756 60.2777C96.0252 60.0403 95.7514 58.5167 95.7514 58.5167L95.8405 49.9885Z" fill="#FF725E"/>
<path d="M122.497 120.799V131.118C122.497 131.573 122.134 132.038 121.461 132.394C120.567 132.817 119.585 133.021 118.596 132.991C116.152 132.991 114.694 132.025 114.694 131.118V120.812C114.694 120.812 114.694 120.812 114.694 120.789C114.694 119.78 115.44 118.728 116.185 117.689C116.69 116.993 116.808 115.991 116.845 115.404C116.845 115.335 116.845 115.272 116.845 115.216H116.755C116.612 115.226 116.47 115.179 116.361 115.085C116.251 114.991 116.184 114.858 116.172 114.715V114.279C116.183 114.136 116.25 114.002 116.36 113.908C116.469 113.814 116.612 113.767 116.755 113.778H120.423C120.531 113.775 120.639 113.801 120.734 113.854C120.829 113.908 120.907 113.987 120.96 114.082C120.989 114.143 121.004 114.211 121.003 114.279V114.715C120.992 114.858 120.925 114.991 120.816 115.085C120.707 115.179 120.566 115.226 120.423 115.216H120.353C120.353 115.272 120.353 115.335 120.353 115.404C120.376 115.991 120.495 116.993 120.996 117.689C121.745 118.728 122.484 119.78 122.49 120.789C122.5 120.786 122.497 120.793 122.497 120.799Z" fill="#FAFAFA"/>
<path d="M122.497 120.799C122.499 120.764 122.499 120.729 122.497 120.694C122.489 120.59 122.476 120.486 122.457 120.384C122.369 119.994 122.223 119.619 122.025 119.272C121.706 118.718 121.351 118.185 120.963 117.676C120.511 116.932 120.282 116.073 120.303 115.203V115.14H120.36C120.489 115.159 120.62 115.13 120.729 115.057C120.838 114.985 120.915 114.874 120.947 114.748C120.947 114.619 120.947 114.457 120.947 114.309C120.953 114.242 120.942 114.174 120.917 114.111C120.891 114.048 120.85 113.993 120.798 113.95C120.686 113.861 120.545 113.815 120.402 113.821H118.925H116.814C116.732 113.814 116.649 113.824 116.571 113.851C116.493 113.879 116.422 113.922 116.363 113.979C116.307 114.036 116.27 114.109 116.257 114.187C116.252 114.276 116.252 114.365 116.257 114.454C116.257 114.543 116.257 114.652 116.257 114.728C116.268 114.808 116.303 114.883 116.359 114.942C116.42 115.003 116.494 115.049 116.575 115.078C116.656 115.106 116.742 115.116 116.828 115.107H116.907V115.19C116.903 115.612 116.856 116.033 116.768 116.446C116.684 116.88 116.516 117.293 116.274 117.663C115.721 118.368 115.266 119.145 114.921 119.971C114.846 120.184 114.798 120.406 114.78 120.631C114.78 120.849 114.78 121.093 114.78 121.323C114.78 121.792 114.78 122.267 114.78 122.748V125.663C114.78 127.401 114.78 129.1 114.78 130.739C114.77 130.935 114.778 131.131 114.806 131.326C114.855 131.51 114.949 131.679 115.08 131.817C115.347 132.101 115.67 132.326 116.029 132.477C116.734 132.753 117.482 132.903 118.239 132.919C118.966 132.956 119.694 132.891 120.402 132.724C121.071 132.594 121.685 132.265 122.163 131.781C122.267 131.663 122.345 131.525 122.394 131.375C122.43 131.223 122.442 131.066 122.431 130.91C122.431 130.58 122.431 130.27 122.431 129.96C122.431 129.337 122.431 128.744 122.431 128.173C122.431 125.901 122.45 124.061 122.457 122.778C122.457 122.148 122.457 121.657 122.473 121.314C122.49 120.971 122.473 120.802 122.473 120.802C122.493 120.972 122.5 121.143 122.493 121.314C122.493 121.643 122.493 122.148 122.493 122.778C122.493 124.061 122.51 125.901 122.523 128.173C122.523 128.744 122.523 129.337 122.523 129.96C122.523 130.27 122.523 130.587 122.523 130.91C122.536 131.08 122.521 131.25 122.48 131.415C122.427 131.583 122.341 131.739 122.226 131.873C121.729 132.38 121.09 132.725 120.393 132.862C119.671 133.037 118.928 133.107 118.186 133.07C117.404 133.054 116.631 132.896 115.904 132.605C115.54 132.449 115.212 132.219 114.941 131.929C114.793 131.771 114.687 131.578 114.631 131.369C114.599 131.161 114.588 130.951 114.598 130.742V121.317C114.598 121.079 114.598 120.855 114.598 120.611C114.62 120.373 114.671 120.138 114.75 119.912C115.102 119.078 115.566 118.296 116.128 117.587C116.549 116.864 116.76 116.039 116.739 115.203L116.814 115.279C116.708 115.287 116.6 115.272 116.5 115.235C116.399 115.197 116.309 115.138 116.234 115.061C116.157 114.98 116.108 114.875 116.095 114.764C116.095 114.652 116.095 114.57 116.095 114.471C116.089 114.373 116.089 114.275 116.095 114.177C116.116 114.07 116.168 113.972 116.244 113.893C116.317 113.822 116.405 113.767 116.501 113.732C116.597 113.696 116.699 113.682 116.801 113.689H118.912H120.389C120.562 113.683 120.731 113.741 120.864 113.851C120.93 113.906 120.981 113.976 121.014 114.055C121.048 114.134 121.062 114.22 121.055 114.306C121.055 114.461 121.055 114.599 121.055 114.761C121.015 114.913 120.922 115.046 120.793 115.135C120.663 115.225 120.506 115.265 120.35 115.249L120.406 115.193C120.375 116.042 120.588 116.882 121.019 117.613C121.402 118.129 121.75 118.67 122.061 119.233C122.258 119.587 122.396 119.972 122.47 120.37C122.488 120.473 122.497 120.576 122.497 120.68C122.506 120.763 122.503 120.799 122.497 120.799Z" fill="#263238"/>
<path d="M120.149 115.176C119.063 115.291 117.969 115.291 116.884 115.176C117.969 115.062 119.063 115.062 120.149 115.176Z" fill="#263238"/>
<path d="M122.171 122.178C121.995 122.091 121.801 122.05 121.606 122.058C121.41 122.066 121.22 122.123 121.053 122.224C120.719 122.428 120.358 122.584 119.981 122.689C119.517 122.73 119.052 122.614 118.662 122.359C118.276 122.105 117.869 121.884 117.445 121.699C117.025 121.557 116.574 121.536 116.144 121.638C115.713 121.74 115.319 121.961 115.008 122.277V131.134C115.008 131.134 115.493 132.648 118.919 132.411C122.345 132.173 122.078 130.66 122.078 130.66L122.171 122.178Z" fill="#FF725E"/>
<g opacity="0.5">
<path opacity="0.5" d="M122.171 122.178C121.995 122.091 121.801 122.05 121.606 122.058C121.41 122.066 121.22 122.123 121.053 122.224C120.719 122.428 120.358 122.584 119.981 122.689C119.517 122.73 119.052 122.614 118.662 122.359C118.276 122.105 117.869 121.884 117.445 121.699C117.025 121.557 116.574 121.536 116.144 121.638C115.713 121.74 115.319 121.961 115.008 122.277V131.134C115.008 131.134 115.493 132.648 118.919 132.411C122.345 132.173 122.078 130.66 122.078 130.66L122.171 122.178Z" fill="white"/>
</g>
<path d="M127.865 83.2998C127.753 83.2537 127.63 83.2369 127.509 83.2507C127.388 83.2645 127.272 83.3086 127.173 83.3789C127.123 83.4119 127.071 83.4514 127.021 83.491C125.347 84.729 123.312 85.3814 121.23 85.3477C117.177 85.3477 113.82 83.0755 113.22 80.1075V79.5468C113.225 79.4907 113.218 79.4342 113.2 79.3808C113.182 79.3274 113.153 79.2783 113.115 79.2367C113.077 79.1951 113.031 79.1619 112.979 79.1391C112.928 79.1164 112.872 79.1047 112.816 79.1047C112.759 79.1047 112.704 79.1164 112.652 79.1391C112.601 79.1619 112.554 79.1951 112.516 79.2367C112.478 79.2783 112.449 79.3274 112.431 79.3808C112.413 79.4342 112.407 79.4907 112.412 79.5468V81.1166C112.414 81.1538 112.422 81.1904 112.435 81.2254C112.156 81.8413 112.009 82.5084 112.003 83.1843C112.003 86.6108 115.631 89.3941 120.119 89.3941C123.882 89.3941 127.044 87.4385 127.968 84.7772C127.979 84.7655 127.986 84.7504 127.987 84.7343C128.094 84.522 128.154 84.2891 128.162 84.0517C128.187 83.9111 128.172 83.7666 128.12 83.6339C128.067 83.5013 127.979 83.3856 127.865 83.2998Z" fill="#FF725E"/>
<g opacity="0.3">
<path opacity="0.3" d="M112.917 81.6376C112.917 81.6376 116.739 90.4296 127.098 84.2759C127.098 84.2759 124.43 87.046 120.95 87.7188C117.798 88.3223 113.128 86.5448 112.917 81.6376Z" fill="black"/>
</g>
<path d="M128.149 83.7417C128.087 83.8934 127.839 83.9362 127.599 83.834C127.358 83.7318 127.213 83.524 127.269 83.3723C127.325 83.2206 127.579 83.181 127.82 83.2833C128.06 83.3855 128.215 83.59 128.149 83.7417Z" fill="#263238"/>
<path d="M132.011 27.0588C131.984 27.0636 131.956 27.0636 131.928 27.0588H131.694H130.827L127.915 27.0852H127.892V27.0621C127.869 26.9071 127.846 26.7323 127.819 26.5806C127.618 25.1692 127.44 23.9094 127.321 23.085H127.338H126.349C126.326 23.0878 126.302 23.0878 126.279 23.085H126.349H126.556H127.331H127.348V23.1015C127.47 23.9226 127.658 25.1824 127.869 26.5905C127.892 26.7554 127.915 26.9203 127.938 27.072L127.912 27.0489H130.824H132.008L132.011 27.0588Z" fill="#263238"/>
<path d="M127.79 26.2344C127.79 26.2344 127.79 26.2344 127.813 26.2344H127.873H128.107H128.984L132.005 26.2047L131.978 26.2278C132.064 25.7167 132.16 25.1659 132.255 24.5987C132.305 24.3052 132.354 24.015 132.404 23.7413L132.43 23.7742H128.869H127.454C127.437 23.7742 127.431 23.7742 127.431 23.7742H127.53H127.813H128.869L132.43 23.7446H132.463V23.7775L132.318 24.6317C132.219 25.2022 132.123 25.7529 132.038 26.2806V26.3004H132.015H128.994H127.8L127.79 26.2344Z" fill="#263238"/>
<path d="M128.957 28.1867C128.957 28.1867 128.957 28.1504 128.934 28.0878C128.909 28.0022 128.856 27.9278 128.783 27.8767C128.73 27.8396 128.669 27.8157 128.606 27.8071C128.542 27.7985 128.477 27.8054 128.417 27.8273C128.343 27.8549 128.28 27.9043 128.235 27.9688C128.191 28.0333 128.167 28.1099 128.167 28.1884C128.167 28.2668 128.191 28.3434 128.235 28.4079C128.28 28.4725 128.343 28.5218 128.417 28.5495C128.477 28.5727 128.542 28.58 128.606 28.5707C128.671 28.5615 128.731 28.536 128.783 28.4967C128.854 28.4446 128.906 28.3704 128.931 28.2857C128.951 28.223 128.951 28.1867 128.954 28.1867C128.963 28.2203 128.963 28.2554 128.954 28.289C128.934 28.3838 128.881 28.4687 128.806 28.5297C128.749 28.5738 128.682 28.6032 128.612 28.6153C128.541 28.6274 128.468 28.6217 128.4 28.5989C128.315 28.5699 128.241 28.5148 128.188 28.4415C128.136 28.3681 128.107 28.2802 128.107 28.19C128.107 28.0998 128.136 28.0119 128.188 27.9386C128.241 27.8652 128.315 27.8102 128.4 27.7811C128.468 27.7569 128.542 27.7503 128.613 27.7619C128.684 27.7734 128.752 27.8027 128.809 27.847C128.885 27.9063 128.937 27.9903 128.957 28.0845C128.967 28.1179 128.967 28.1533 128.957 28.1867Z" fill="#263238"/>
<path d="M131.595 28.1702C131.595 28.1702 131.595 28.1339 131.572 28.0746C131.548 27.9887 131.494 27.914 131.42 27.8635C131.368 27.8256 131.308 27.8012 131.244 27.7926C131.18 27.7839 131.115 27.7913 131.054 27.814C131 27.8314 130.95 27.8607 130.908 27.8998C130.866 27.9389 130.834 27.9868 130.813 28.04C130.791 28.0932 130.783 28.1505 130.786 28.2076C130.79 28.2647 130.807 28.3203 130.835 28.3702C130.863 28.4202 130.901 28.4633 130.948 28.4964C130.995 28.5295 131.048 28.5519 131.105 28.5618C131.161 28.5716 131.219 28.5689 131.274 28.5536C131.329 28.5384 131.38 28.511 131.424 28.4736C131.495 28.4196 131.548 28.3447 131.575 28.2592C131.592 28.1966 131.592 28.1603 131.595 28.1603C131.604 28.1939 131.604 28.229 131.595 28.2625C131.576 28.3572 131.525 28.4423 131.45 28.5033C131.387 28.5529 131.311 28.584 131.232 28.5931C131.152 28.6022 131.071 28.5888 130.999 28.5546C130.926 28.5203 130.864 28.4665 130.821 28.3992C130.777 28.3319 130.753 28.2538 130.751 28.1735C130.751 28.0837 130.778 27.996 130.83 27.9223C130.881 27.8485 130.954 27.7923 131.038 27.7613C131.106 27.7371 131.178 27.7305 131.249 27.742C131.32 27.7536 131.387 27.7829 131.444 27.8272C131.521 27.885 131.574 27.9697 131.592 28.0647C131.603 28.0988 131.604 28.1354 131.595 28.1702Z" fill="#263238"/>
<path d="M132.449 24.4455C133.079 24.3094 133.48 23.6883 133.344 23.058C133.208 22.4278 132.587 22.0271 131.957 22.1632C131.326 22.2992 130.926 22.9204 131.062 23.5506C131.198 24.1809 131.819 24.5815 132.449 24.4455Z" fill="#FF725E"/>
<path d="M132.348 22.8607V23.7478H132.14V23.0256H131.962V22.8607H132.348Z" fill="white"/>
<path d="M123.193 130.805H89.1032C86.5752 130.805 84.5259 132.854 84.5259 135.382V137.578C84.5259 140.106 86.5752 142.156 89.1032 142.156H123.193C125.721 142.156 127.77 140.106 127.77 137.578V135.382C127.77 132.854 125.721 130.805 123.193 130.805Z" fill="#FF725E"/>
<g opacity="0.3">
<path opacity="0.3" d="M123.193 130.805H89.1032C86.5752 130.805 84.5259 132.854 84.5259 135.382V137.578C84.5259 140.106 86.5752 142.156 89.1032 142.156H123.193C125.721 142.156 127.77 140.106 127.77 137.578V135.382C127.77 132.854 125.721 130.805 123.193 130.805Z" fill="black"/>
</g>
<path d="M121.514 130.805H87.4245C84.8965 130.805 82.8472 132.854 82.8472 135.382V137.578C82.8472 140.106 84.8965 142.156 87.4245 142.156H121.514C124.042 142.156 126.091 140.106 126.091 137.578V135.382C126.091 132.854 124.042 130.805 121.514 130.805Z" fill="#FF725E"/>
<path d="M103.168 135.857C103.168 136.437 102.746 136.79 102.05 136.79H101.391V137.605H101.008V134.92H102.057C102.746 134.92 103.168 135.273 103.168 135.857ZM102.786 135.857C102.786 135.471 102.529 135.253 102.037 135.253H101.378V136.457H102.037C102.529 136.457 102.786 136.239 102.786 135.857Z" fill="white"/>
<path d="M105.309 136.932H103.894L103.6 137.592H103.205L104.421 134.907H104.801L106.018 137.592H105.615L105.309 136.932ZM105.173 136.625L104.596 135.306L104.016 136.625H105.173Z" fill="white"/>
<path d="M107.271 136.675V137.605H106.892V136.668L105.827 134.92H106.236L107.093 136.335L107.957 134.92H108.336L107.271 136.675Z" fill="white"/>
<path d="M93.0705 90.5121C93.1683 89.8797 93.14 89.2343 92.9873 88.6129C92.8345 87.9915 92.5604 87.4065 92.1806 86.8915C91.8008 86.3766 91.3229 85.9418 90.7744 85.6123C90.2259 85.2829 89.6176 85.0651 88.9846 84.9717C88.9147 84.9444 88.8383 84.9386 88.7651 84.9551C88.6919 84.9716 88.6253 85.0096 88.5739 85.0642C88.5225 85.1188 88.4886 85.1875 88.4766 85.2615C88.4645 85.3356 88.4749 85.4115 88.5064 85.4796C88.6218 86.7127 89.1251 87.8774 89.9439 88.8065C90.7628 89.7356 91.8551 90.3812 93.0639 90.6506" fill="#455A64"/>
<path d="M86.2738 99.4655C87.4973 101.988 89.2418 103.687 91.4349 103.769C91.8702 103.769 92.2 103.499 92.6155 103.472C92.8585 103.528 93.0928 103.616 93.3113 103.736C93.4274 103.785 93.5514 103.813 93.6774 103.819C95.9265 103.697 97.8458 102.114 99.1385 99.4655C100.936 95.7555 100.382 91.7718 97.8986 90.5615C97.5718 90.3985 97.2307 90.266 96.8796 90.1657C96.4784 90.0537 96.0623 90.0048 95.6462 90.0206C94.6775 90.0822 93.7246 90.297 92.8232 90.6571L92.7012 90.7033C90.683 89.8096 89.0736 89.8063 87.5072 90.5615C85.0239 91.7718 84.4732 95.7555 86.2738 99.4655Z" fill="#FF725E"/>
<path d="M86.3168 95.7094C86.2003 95.4768 86.1308 95.2235 86.1123 94.9641C86.0386 94.3366 86.1143 93.7006 86.3333 93.108C86.5522 92.5154 86.9082 91.983 87.3721 91.5541C87.553 91.3672 87.7709 91.2201 88.0119 91.1221C88.0284 91.1452 87.781 91.3068 87.4545 91.6399C87.0339 92.0753 86.708 92.5931 86.4975 93.1607C86.2869 93.7283 86.1962 94.3333 86.2311 94.9377C86.264 95.4159 86.3465 95.6995 86.3168 95.7094Z" fill="#FAFAFA"/>
<path d="M86.7716 97.4704C86.7255 97.4704 86.6463 97.3055 86.5936 97.0813C86.5408 96.857 86.5375 96.6624 86.5936 96.6492C86.6496 96.6361 86.7189 96.8141 86.7716 97.0417C86.8244 97.2692 86.8178 97.4605 86.7716 97.4704Z" fill="#FAFAFA"/>
<path d="M98.2051 84.4407C98.2051 84.4737 97.7368 84.6518 97.0377 85.0706C96.63 85.3178 96.2409 85.5945 95.8736 85.8984C95.4343 86.2786 95.0283 86.6956 94.66 87.1449C94.2886 87.5989 93.9576 88.0844 93.6706 88.596C93.4449 89.0151 93.2509 89.4505 93.0902 89.8986C92.8165 90.6703 92.7373 91.1716 92.7044 91.165C92.702 91.045 92.7153 90.9253 92.7439 90.8088C92.7618 90.6696 92.7893 90.5319 92.8264 90.3966C92.8667 90.2161 92.9162 90.0378 92.9748 89.8623C93.1201 89.3992 93.3066 88.95 93.5321 88.5201C94.087 87.4647 94.8498 86.5324 95.7746 85.7796C96.1488 85.4758 96.5482 85.2044 96.9684 84.9684C97.1297 84.8757 97.2959 84.792 97.4664 84.7177C97.5917 84.6554 97.7206 84.6003 97.8522 84.5529C97.9651 84.5019 98.0835 84.4643 98.2051 84.4407Z" fill="#263238"/>
<path d="M128.747 49.9291C126.732 47.1194 122.454 45.1935 118.979 45.7112C116.162 46.1301 113.669 47.4393 112.304 50.2358C112.213 50.4185 112.168 50.6202 112.171 50.8241C112.175 51.028 112.227 51.228 112.324 51.4074C112.421 51.5868 112.56 51.7403 112.728 51.8549C112.897 51.9696 113.091 52.042 113.293 52.0661C117.986 52.6263 122.729 52.6108 127.418 52.02C128.143 51.9276 129.001 51.7265 129.05 50.8327C129.055 50.5058 128.948 50.1871 128.747 49.9291Z" fill="#FF725E"/>
<path d="M117.619 49.7907C117.603 49.7907 117.457 49.6621 117.266 49.3983C117.011 49.049 116.83 48.652 116.732 48.2308C116.65 47.8118 116.614 47.3848 116.626 46.9579C116.614 46.7808 116.628 46.6029 116.669 46.4302C116.725 46.5981 116.752 46.7744 116.748 46.9513C116.772 47.3675 116.823 47.7817 116.9 48.1913C116.995 48.5939 117.153 48.979 117.368 49.3323C117.471 49.4737 117.556 49.6278 117.619 49.7907Z" fill="#263238"/>
<path d="M120.607 49.6522C120.554 49.6522 120.627 48.8541 120.525 47.8846C120.422 46.915 120.195 46.1532 120.238 46.1367C120.504 46.6762 120.659 47.264 120.693 47.8648C120.783 48.4604 120.754 49.068 120.607 49.6522Z" fill="#263238"/>
<path d="M123.681 49.197C123.635 49.1772 123.866 48.643 123.922 47.9439C123.978 47.2447 123.849 46.6808 123.899 46.6709C124.064 47.0792 124.131 47.521 124.093 47.9601C124.055 48.3992 123.914 48.8231 123.681 49.197Z" fill="#263238"/>
<g opacity="0.3">
<path opacity="0.3" d="M120.053 45.8564L120.079 45.9058L120.053 45.8564Z" fill="black"/>
</g>
<g opacity="0.3">
<path opacity="0.3" d="M120.083 45.8926C119.775 46.4569 119.657 47.1054 119.746 47.742C119.835 48.3787 120.126 48.9698 120.577 49.4279C120.869 48.2295 120.692 46.9649 120.083 45.8926Z" fill="black"/>
</g>
<g opacity="0.3">
<path opacity="0.3" d="M117.214 49.296C116.894 48.7158 116.703 48.0736 116.653 47.4129C116.657 47.1212 116.614 46.8308 116.528 46.5522C116.181 46.9836 116.01 47.5302 116.05 48.0824C116.096 48.6625 116.369 49.2011 116.808 49.5829C116.874 49.6442 116.953 49.6894 117.039 49.7148C117.082 49.7254 117.128 49.7226 117.17 49.7067C117.212 49.6908 117.248 49.6625 117.273 49.6257C117.332 49.5235 117.273 49.3982 117.214 49.296Z" fill="black"/>
</g>
<g opacity="0.3">
<path opacity="0.3" d="M123.961 46.9315C123.95 46.8162 123.916 46.7043 123.862 46.6017C123.834 46.5519 123.793 46.511 123.743 46.4841C123.692 46.4572 123.635 46.4454 123.579 46.45C123.424 46.4764 123.348 46.6512 123.302 46.8029C123.042 47.4536 122.964 48.1624 123.074 48.8541C123.11 49.0091 123.213 49.1839 123.374 49.1839C123.536 49.1839 123.579 49.052 123.635 48.9432C123.951 48.3232 124.065 47.6197 123.961 46.9315Z" fill="black"/>
</g>
<path d="M85.5843 68.0474V68.3573H85.3567V68.0507C85.1131 68.0445 84.8772 67.964 84.6807 67.8198L84.8027 67.5428C84.9647 67.6617 85.1564 67.7336 85.3567 67.7506V67.1998C85.05 67.124 84.7202 67.025 84.7202 66.6392C84.7202 66.3589 84.9247 66.1115 85.3567 66.072V65.7422H85.5843V66.0489C85.782 66.0585 85.9745 66.1162 86.1449 66.2171L86.0295 66.4974C85.8931 66.4172 85.7414 66.3667 85.5843 66.349V66.9063C85.891 66.9789 86.224 67.0778 86.224 67.4603C86.224 67.7604 86.0163 68.0012 85.5843 68.0474ZM85.3567 66.8634V66.3721C85.1622 66.4018 85.0764 66.504 85.0764 66.6227C85.0764 66.7414 85.1951 66.8173 85.3567 66.8634ZM85.8712 67.5032C85.8712 67.368 85.7492 67.3021 85.5843 67.2559V67.744C85.7854 67.7143 85.8712 67.6219 85.8712 67.5032Z" fill="#263238"/>
<path d="M87.8763 66.0917V68.0243H87.5168V66.3918H87.1079V66.0917H87.8763Z" fill="#263238"/>
<path d="M88.7008 67.8132C88.6961 67.8968 88.6748 67.9786 88.6381 68.0539L88.4963 68.443H88.272L88.3842 68.0176C88.3441 68.0012 88.3102 67.9727 88.2871 67.936C88.264 67.8993 88.253 67.8564 88.2556 67.8132C88.2517 67.7817 88.2546 67.7497 88.264 67.7194C88.2735 67.6891 88.2892 67.6611 88.3103 67.6374C88.3313 67.6136 88.3572 67.5946 88.3861 67.5815C88.415 67.5685 88.4464 67.5618 88.4782 67.5618C88.5099 67.5618 88.5413 67.5685 88.5702 67.5815C88.5992 67.5946 88.625 67.6136 88.6461 67.6374C88.6671 67.6611 88.6829 67.6891 88.6923 67.7194C88.7017 67.7497 88.7046 67.7817 88.7008 67.8132Z" fill="#263238"/>
<path d="M90.3397 67.4306C90.3397 67.7604 90.0957 68.0539 89.5746 68.0539C89.3151 68.058 89.0611 67.9795 88.8491 67.8297L89.0008 67.5494C89.1642 67.6753 89.3651 67.7426 89.5713 67.7406C89.8253 67.7406 89.9803 67.6285 89.9803 67.4438C89.9803 67.2592 89.8583 67.1437 89.4592 67.1437H88.9942L89.0932 66.0917H90.2276V66.3918H89.3834L89.3405 66.8403H89.5252C90.1122 66.8403 90.3397 67.0877 90.3397 67.4306Z" fill="#263238"/>
<path d="M90.5479 67.058C90.5479 66.4215 90.8974 66.0687 91.3558 66.0687C91.8142 66.0687 92.1638 66.4281 92.1638 67.058C92.1638 67.6879 91.8175 68.0474 91.3558 68.0474C90.8941 68.0474 90.5479 67.6945 90.5479 67.058ZM91.8043 67.058C91.8043 66.5897 91.6196 66.3754 91.3558 66.3754C91.092 66.3754 90.9106 66.5897 90.9106 67.058C90.9106 67.5263 91.092 67.7407 91.3558 67.7407C91.6196 67.7407 91.8043 67.523 91.8043 67.058Z" fill="#263238"/>
<path d="M100.158 70.4877C100.158 70.5372 96.6125 70.5735 92.2429 70.5735C87.8733 70.5735 84.3281 70.5372 84.3281 70.4877C84.3281 70.4383 87.8733 70.402 92.2429 70.402C96.6125 70.402 100.158 70.4416 100.158 70.4877Z" fill="#263238"/>
<path d="M91.6919 71.7772C91.6919 71.8266 90.043 71.8629 88.0148 71.8629C85.9867 71.8629 84.3345 71.8266 84.3345 71.7772C84.3345 71.7277 85.9834 71.6914 88.0148 71.6914C90.0463 71.6914 91.6919 71.731 91.6919 71.7772Z" fill="#263238"/>
<path d="M113.343 60.1391V60.4491H113.128V60.1424C112.891 60.1324 112.662 60.0533 112.469 59.9149L112.591 59.6346C112.751 59.7566 112.944 59.8299 113.145 59.8456V59.2916C112.838 59.2191 112.508 59.1168 112.508 58.7343C112.508 58.454 112.713 58.2066 113.145 58.1638V57.8538H113.372V58.1605C113.571 58.1674 113.764 58.2253 113.933 58.3286L113.818 58.6057C113.681 58.5255 113.53 58.475 113.372 58.4573V59.0146C113.679 59.0904 114.012 59.1861 114.012 59.5719C113.982 59.8522 113.788 60.0963 113.343 60.1391ZM113.115 58.9585V58.4672C112.917 58.4968 112.835 58.5958 112.835 58.7178C112.835 58.8398 112.954 58.9124 113.128 58.9585H113.115ZM113.63 59.595C113.63 59.4598 113.508 59.3971 113.343 59.351V59.839C113.544 59.8094 113.63 59.7071 113.63 59.595Z" fill="#263238"/>
<path d="M116.367 59.816V60.1194H114.939V59.8787L115.707 59.1498C115.895 58.9685 115.928 58.8563 115.928 58.7475C115.928 58.5727 115.806 58.4705 115.569 58.4705C115.483 58.4659 115.397 58.4818 115.319 58.5168C115.24 58.5517 115.171 58.6048 115.117 58.6717L114.866 58.4771C114.954 58.3686 115.066 58.2823 115.193 58.225C115.32 58.1677 115.459 58.1411 115.598 58.1473C116.02 58.1473 116.291 58.3584 116.291 58.7013C116.287 58.8217 116.255 58.9394 116.198 59.0453C116.141 59.1512 116.06 59.2423 115.961 59.3114L115.443 59.8061L116.367 59.816Z" fill="#263238"/>
<path d="M117.042 59.9083C117.037 59.9908 117.016 60.0715 116.98 60.1458L116.838 60.5349H116.614L116.726 60.1128C116.685 60.0965 116.651 60.0681 116.627 60.0315C116.604 59.9949 116.592 59.9519 116.594 59.9083C116.594 59.8489 116.618 59.7918 116.66 59.7498C116.702 59.7077 116.759 59.6841 116.818 59.6841C116.878 59.6841 116.935 59.7077 116.977 59.7498C117.019 59.7918 117.042 59.8489 117.042 59.9083Z" fill="#263238"/>
<path d="M118.705 59.816V60.1194H117.277V59.8787L118.045 59.1499C118.233 58.9685 118.266 58.8564 118.266 58.7475C118.266 58.5727 118.144 58.4705 117.907 58.4705C117.821 58.466 117.735 58.4818 117.656 58.5168C117.578 58.5518 117.509 58.6048 117.455 58.6717L117.204 58.4771C117.292 58.3682 117.405 58.2816 117.532 58.2243C117.66 58.167 117.8 58.1406 117.94 58.1473C118.358 58.1473 118.629 58.3584 118.629 58.7014C118.625 58.8217 118.593 58.9395 118.536 59.0454C118.479 59.1513 118.398 59.2424 118.299 59.3115L117.781 59.8061L118.705 59.816Z" fill="#263238"/>
<path d="M120.317 59.5258C120.317 59.8556 120.073 60.1458 119.552 60.1458C119.292 60.1513 119.037 60.0726 118.826 59.9215L118.978 59.6445C119.141 59.7688 119.34 59.8349 119.545 59.8325C119.802 59.8325 119.954 59.7204 119.954 59.539C119.954 59.3576 119.835 59.2356 119.436 59.2356H118.968L119.07 58.1836H120.205V58.487H119.374L119.331 58.9322H119.515C120.089 58.9322 120.317 59.1828 120.317 59.5258Z" fill="#263238"/>
<path d="M127.915 62.5829C127.915 62.629 124.37 62.6686 120.001 62.6686C115.631 62.6686 112.086 62.629 112.086 62.5829C112.086 62.5367 115.634 62.4971 120.001 62.4971C124.367 62.4971 127.915 62.5367 127.915 62.5829Z" fill="#263238"/>
<path d="M119.456 63.8723C119.456 63.9185 117.807 63.958 115.776 63.958C113.744 63.958 112.099 63.9185 112.099 63.8723C112.099 63.8261 113.748 63.7866 115.776 63.7866C117.804 63.7866 119.456 63.8261 119.456 63.8723Z" fill="#263238"/>
<path d="M84.9514 108.185V108.495H84.7239V108.185C84.4804 108.178 84.2446 108.098 84.0479 107.954L84.1732 107.677C84.3331 107.798 84.5243 107.87 84.7239 107.885V107.334C84.4172 107.258 84.0907 107.159 84.0907 106.777C84.0907 106.493 84.2952 106.249 84.7239 106.206V105.893H84.9514V106.206C85.1492 106.216 85.3417 106.274 85.5121 106.374L85.4 106.655C85.2622 106.575 85.1095 106.525 84.9514 106.506V107.064C85.2581 107.14 85.5912 107.235 85.5912 107.618C85.5912 107.895 85.3868 108.139 84.9514 108.185ZM84.7239 107.001V106.51C84.5293 106.543 84.4469 106.642 84.4469 106.764C84.4469 106.886 84.5656 106.952 84.7239 106.998V107.001ZM85.2384 107.641C85.2384 107.506 85.1163 107.443 84.9514 107.394V107.885C85.1526 107.855 85.2384 107.756 85.2384 107.638V107.641Z" fill="#263238"/>
<path d="M86.5737 107.196C86.5737 106.559 86.9233 106.206 87.3817 106.206C87.8401 106.206 88.1897 106.562 88.1897 107.196C88.1897 107.829 87.8434 108.185 87.3817 108.185C86.92 108.185 86.5737 107.829 86.5737 107.196ZM87.8302 107.196C87.8302 106.731 87.6455 106.513 87.3817 106.513C87.1179 106.513 86.9365 106.731 86.9365 107.196C86.9365 107.661 87.1179 107.878 87.3817 107.878C87.6455 107.878 87.8302 107.661 87.8302 107.196Z" fill="#263238"/>
<path d="M88.8428 107.951C88.8377 108.033 88.8164 108.114 88.7802 108.188L88.6384 108.577H88.4174L88.5263 108.155C88.4868 108.138 88.4533 108.109 88.4304 108.073C88.4075 108.036 88.3961 107.994 88.3976 107.951C88.3938 107.919 88.3967 107.887 88.4061 107.857C88.4156 107.827 88.4313 107.799 88.4524 107.775C88.4734 107.751 88.4992 107.732 88.5282 107.719C88.5571 107.706 88.5885 107.699 88.6202 107.699C88.652 107.699 88.6834 107.706 88.7123 107.719C88.7413 107.732 88.7671 107.751 88.7881 107.775C88.8092 107.799 88.8249 107.827 88.8344 107.857C88.8438 107.887 88.8467 107.919 88.8428 107.951Z" fill="#263238"/>
<path d="M90.4818 107.565C90.4818 107.895 90.2378 108.188 89.7167 108.188C89.457 108.194 89.2025 108.115 88.9912 107.964L89.1429 107.684C89.3053 107.809 89.505 107.877 89.7101 107.875C89.9674 107.875 90.1191 107.763 90.1191 107.578C90.1191 107.394 90.0003 107.278 89.6013 107.278H89.133L89.2352 106.226H90.373V106.536H89.5419L89.4991 106.985H89.6838C90.2543 106.975 90.4818 107.222 90.4818 107.565Z" fill="#263238"/>
<path d="M90.7026 107.196C90.7026 106.559 91.0522 106.206 91.5106 106.206C91.969 106.206 92.3186 106.562 92.3186 107.196C92.3186 107.829 91.9723 108.185 91.5106 108.185C91.0489 108.185 90.7026 107.829 90.7026 107.196ZM91.9591 107.196C91.9591 106.731 91.7744 106.513 91.5106 106.513C91.2468 106.513 91.0654 106.731 91.0654 107.196C91.0654 107.661 91.2468 107.878 91.5106 107.878C91.7744 107.878 91.9459 107.661 91.9459 107.196H91.9591Z" fill="#263238"/>
<path d="M99.5277 110.625C99.5277 110.672 95.9793 110.711 91.613 110.711C87.2467 110.711 83.6982 110.672 83.6982 110.625C83.6982 110.579 87.2434 110.54 91.613 110.54C95.9826 110.54 99.5277 110.576 99.5277 110.625Z" fill="#263238"/>
<path d="M91.0656 111.915C91.0656 111.961 89.4166 112.001 87.3885 112.001C85.3603 112.001 83.7114 111.961 83.7114 111.915C83.7114 111.869 85.3603 111.829 87.3885 111.829C89.4166 111.829 91.0656 111.865 91.0656 111.915Z" fill="#263238"/>
<path d="M112.056 97.7178V98.0278H111.832V97.721C111.587 97.7147 111.35 97.6342 111.152 97.4902L111.278 97.2132C111.439 97.334 111.631 97.4061 111.832 97.4209V96.8702C111.525 96.7944 111.195 96.6954 111.195 96.3129C111.195 96.0293 111.4 95.7852 111.832 95.7424V95.4291H112.056V95.7358C112.254 95.7454 112.446 95.8031 112.617 95.904L112.504 96.1843C112.367 96.1041 112.214 96.0535 112.056 96.0359V96.5932C112.363 96.6691 112.696 96.7647 112.696 97.1472C112.696 97.4308 112.491 97.6749 112.056 97.7178ZM111.832 96.5338V96.0425C111.634 96.0754 111.551 96.1744 111.551 96.2964C111.551 96.4184 111.67 96.4877 111.832 96.5338ZM112.343 97.1736C112.343 97.0384 112.221 96.9757 112.056 96.9263V97.4177C112.257 97.3847 112.343 97.3022 112.343 97.1736Z" fill="#263238"/>
<path d="M114.348 95.7621V97.6947H113.989V96.0622H113.58V95.7621H114.348Z" fill="#263238"/>
<path d="M115.175 97.4869C115.17 97.5694 115.149 97.6501 115.113 97.7244L114.971 98.1135H114.746L114.855 97.6914C114.816 97.6742 114.782 97.6455 114.759 97.609C114.737 97.5725 114.725 97.53 114.727 97.4869C114.727 97.4275 114.75 97.3704 114.792 97.3284C114.834 97.2863 114.891 97.2627 114.951 97.2627C115.01 97.2627 115.067 97.2863 115.11 97.3284C115.152 97.3704 115.175 97.4275 115.175 97.4869Z" fill="#263238"/>
<path d="M115.374 96.7284C115.374 96.0919 115.724 95.7391 116.182 95.7391C116.64 95.7391 116.99 96.0952 116.99 96.7284C116.99 97.3616 116.66 97.7178 116.182 97.7178C115.704 97.7178 115.374 97.3649 115.374 96.7284ZM116.63 96.7284C116.63 96.2634 116.446 96.0458 116.182 96.0458C115.918 96.0458 115.737 96.2634 115.737 96.7284C115.737 97.1934 115.918 97.4111 116.182 97.4111C116.446 97.4111 116.63 97.1967 116.63 96.7284Z" fill="#263238"/>
<path d="M117.233 96.7284C117.233 96.0919 117.583 95.7391 118.041 95.7391C118.5 95.7391 118.849 96.0952 118.849 96.7284C118.849 97.3616 118.503 97.7178 118.041 97.7178C117.58 97.7178 117.233 97.3649 117.233 96.7284ZM118.49 96.7284C118.49 96.2634 118.305 96.0458 118.041 96.0458C117.778 96.0458 117.596 96.2634 117.596 96.7284C117.596 97.1934 117.778 97.4111 118.041 97.4111C118.305 97.4111 118.49 97.1967 118.49 96.7284Z" fill="#263238"/>
<path d="M126.649 100.161C126.649 100.208 123.1 100.247 118.734 100.247C114.368 100.247 110.819 100.208 110.819 100.161C110.819 100.115 114.364 100.072 118.734 100.072C123.104 100.072 126.649 100.112 126.649 100.161Z" fill="#263238"/>
<path d="M118.171 101.451C118.171 101.497 116.522 101.537 114.493 101.537C112.465 101.537 110.816 101.497 110.816 101.451C110.816 101.405 112.465 101.362 114.493 101.362C116.522 101.362 118.171 101.401 118.171 101.451Z" fill="#263238"/>
<path d="M114.698 26.2443C114.698 26.2905 110.876 26.3301 106.163 26.3301C101.45 26.3301 97.625 26.2905 97.625 26.2443C97.625 26.1981 101.447 26.1586 106.163 26.1586C110.879 26.1586 114.698 26.1948 114.698 26.2443Z" fill="#FF725E"/>
<path d="M3.5085 128.648C2.99832 128.669 2.50986 128.86 2.12124 129.191C1.73263 129.523 1.46633 129.974 1.36493 130.475C1.15062 131.279 0.982163 132.095 0.860362 132.919C0.860362 132.919 -1.07545 134.66 0.860362 135.125C2.79618 135.59 3.49861 132.981 3.49861 132.981L3.79541 128.635L3.5085 128.648Z" fill="#FFBE9D"/>
<path d="M22.8931 95.3236C22.8931 95.3236 28.9413 75.0123 29.5579 74.1384C30.5737 72.6907 40.3649 68.3376 40.3649 68.3376L43.0031 62.9819L59.2646 60.3668L63.2978 65.5575L74.6324 73.8878L73.8409 102.618L73.4188 122.679L75.5657 147.722L24.0869 147.627L26.4151 142.35L28.8588 96.801L22.8931 95.3236Z" fill="#FF725E"/>
<path d="M29.8682 92.5831C29.8532 92.5295 29.8465 92.4739 29.8484 92.4182C29.8484 92.2896 29.8484 92.1346 29.822 91.9466C29.822 91.5377 29.7857 90.9573 29.7725 90.2153C29.7462 88.751 29.7462 86.7295 29.8088 84.4969C29.8715 82.2643 29.9902 80.246 30.1023 78.7851C30.1551 78.0562 30.2079 77.4659 30.2507 77.0603L30.3002 76.592C30.3052 76.5374 30.3151 76.4833 30.3299 76.4304C30.3392 76.485 30.3392 76.5407 30.3299 76.5953C30.3299 76.7206 30.3299 76.8756 30.3101 77.0636C30.287 77.4989 30.254 78.0826 30.2144 78.795C30.1353 80.2559 30.0364 82.2708 29.9737 84.5035C29.911 86.7361 29.8913 88.751 29.888 90.2153C29.888 90.9276 29.888 91.5113 29.888 91.9466C29.888 92.1346 29.888 92.2764 29.888 92.4182C29.8893 92.4738 29.8826 92.5294 29.8682 92.5831Z" fill="#263238"/>
<g opacity="0.3">
<path opacity="0.3" d="M41.5288 86.7492C41.5163 86.5217 41.5827 86.2969 41.7167 86.1127C41.9425 85.8361 42.2521 85.6402 42.5988 85.5545C42.9455 85.4689 43.3107 85.4981 43.6393 85.6379C44.5001 86.0501 44.9288 87.0394 45.1036 87.9793C45.2916 89.0082 45.2652 90.0701 45.4597 91.099C45.6543 92.1279 46.1193 93.1767 47.0262 93.7076C48.1442 94.3672 49.6117 94.0704 50.7857 94.6244C52.5335 95.4455 52.9392 97.7177 53.0282 99.6503C53.1931 103.308 53.0282 106.968 52.8765 110.625L51.8674 133.98L50.9473 145.698L46.2116 147.709L39.9458 106.536L41.5288 86.7492Z" fill="black"/>
</g>
<path d="M42.8842 83.4119C42.8487 83.4422 42.8071 83.4647 42.7622 83.4778C42.6334 83.5239 42.4952 83.5375 42.3598 83.5174C42.112 83.4735 41.8809 83.3627 41.6915 83.1971C41.502 83.0314 41.3614 82.8172 41.2848 82.5775C41.183 82.2492 41.1505 81.9033 41.1891 81.5618C41.2328 81.1794 41.2966 80.7997 41.3804 80.424C41.5387 79.626 41.7102 78.7553 41.8949 77.8418C42.2642 76.0116 42.6072 74.3561 42.8644 73.159L43.1942 71.7442C43.2261 71.5695 43.2713 71.3975 43.3294 71.2297C43.3226 71.4074 43.2995 71.584 43.2601 71.7574C43.1909 72.1234 43.1052 72.6049 42.9996 73.1853C42.7721 74.3857 42.4456 76.0445 42.0762 77.8748C41.8883 78.7883 41.7102 79.6589 41.5486 80.4537C41.387 81.2485 41.2188 81.9674 41.4134 82.5412C41.4799 82.7652 41.6047 82.9675 41.7751 83.1274C41.9454 83.2874 42.1552 83.3992 42.3829 83.4514C42.5509 83.4754 42.7221 83.4619 42.8842 83.4119Z" fill="#263238"/>
<path d="M44.5532 75.7708C44.5532 75.7873 44.418 75.7873 44.1938 75.8566C43.8792 75.9606 43.6025 76.1557 43.399 76.4172C43.246 76.6028 43.1431 76.8246 43.1004 77.0614C43.0577 77.2981 43.0765 77.5419 43.155 77.7693C43.2412 78.0515 43.4103 78.3012 43.6402 78.486C43.8702 78.6708 44.1505 78.7822 44.4446 78.8057C44.7387 78.8292 45.0331 78.7636 45.2894 78.6176C45.5458 78.4716 45.7524 78.2519 45.8823 77.987C45.9958 77.7752 46.053 77.5378 46.0484 77.2976C46.0438 77.0573 45.9775 76.8223 45.8559 76.6151C45.6975 76.3238 45.455 76.0871 45.16 75.9357C44.949 75.8302 44.8303 75.8104 44.8303 75.7939C44.8303 75.7774 44.8632 75.7939 44.9259 75.7939C45.0191 75.8065 45.1101 75.832 45.1963 75.8698C45.5213 76.0064 45.7933 76.2448 45.9713 76.5491C46.0974 76.7591 46.1751 76.9946 46.1988 77.2384C46.2247 77.5212 46.1674 77.8055 46.034 78.0562C45.8925 78.3526 45.6645 78.599 45.3801 78.763C45.0956 78.927 44.7681 79.0008 44.4408 78.9747C44.1135 78.9487 43.8018 78.8239 43.5469 78.6169C43.292 78.4099 43.1059 78.1305 43.0132 77.8155C42.9205 77.5466 42.909 77.2565 42.9802 76.9811C43.0564 76.6934 43.2082 76.4312 43.4198 76.2219C43.6315 76.0126 43.8953 75.8637 44.1839 75.7906C44.2753 75.7663 44.3697 75.7552 44.4642 75.7577C44.4944 75.7568 44.5246 75.7612 44.5532 75.7708Z" fill="#263238"/>
<path d="M50.0901 96.768L20.3571 91.386L6.47656 94.4332L37.5353 100.023L50.0901 96.768Z" fill="#FF725E"/>
<g opacity="0.6">
<path opacity="0.6" d="M50.0901 96.768L20.3571 91.386L6.47656 94.4332L37.5353 100.023L50.0901 96.768Z" fill="black"/>
</g>
<path d="M31.0781 109.735C31.4805 104.254 32.9843 90.334 34.1121 84.9552C34.4419 83.3459 34.8376 81.7003 35.761 80.3383C36.6844 78.9763 38.3135 77.9804 39.936 78.231C41.3871 78.4553 42.5545 79.6326 43.1415 80.9781C43.715 82.3394 43.9711 83.8134 43.8901 85.2883C43.6098 91.9367 43.036 99.3832 43.0426 105.547" fill="#455A64"/>
<path d="M41.1464 96.6823C40.7855 96.8177 40.4178 96.9344 40.0449 97.0318C38.2701 97.5803 36.5715 98.3503 34.9893 99.3238C34.6704 99.5412 34.3401 99.7415 34 99.924C34 99.924 34.0758 99.8416 34.2341 99.7162C34.3924 99.5909 34.6266 99.4227 34.9234 99.2216C35.7027 98.7041 36.522 98.2498 37.3737 97.8629C38.2256 97.4756 39.108 97.159 40.0119 96.9164C40.3582 96.8241 40.6418 96.7581 40.8364 96.7218C40.9375 96.6953 41.0417 96.682 41.1464 96.6823Z" fill="#263238"/>
<path d="M41.6411 90.357C41.6411 90.3834 41.1959 90.4824 40.4836 90.7033C38.6243 91.2748 36.8875 92.1873 35.3621 93.3943C34.7784 93.856 34.4387 94.1726 34.4189 94.1528C34.4805 94.0623 34.5525 93.9793 34.6333 93.9055C34.7784 93.7538 34.9994 93.546 35.2929 93.302C36.0392 92.6637 36.8544 92.1106 37.7234 91.6531C38.5925 91.1965 39.5094 90.8371 40.4572 90.5813C40.7427 90.5013 41.0323 90.4364 41.3246 90.3867C41.4279 90.3606 41.5347 90.3506 41.6411 90.357Z" fill="#263238"/>
<path d="M40.975 85.2652C40.975 85.2949 40.6221 85.3114 40.0648 85.4136C39.3401 85.548 38.6376 85.7822 37.9773 86.1095C37.3186 86.4402 36.7083 86.8596 36.1635 87.356C35.7446 87.7386 35.5039 88.0156 35.5039 87.9925C35.5039 87.9694 35.5435 87.9101 35.6391 87.7815C35.7747 87.5993 35.9235 87.4274 36.0843 87.267C37.1516 86.1925 38.5417 85.4974 40.0417 85.2883C40.2668 85.2571 40.4938 85.2416 40.721 85.2421C40.8859 85.2454 40.9717 85.252 40.975 85.2652Z" fill="#263238"/>
<path d="M37.2783 101.121C37.2768 101.131 37.2768 101.141 37.2783 101.151V120.179C37.2783 121.013 36.6187 121.874 35.3688 122.527C34.119 123.18 32.3348 123.625 30.0923 123.629H30.0626C25.5611 123.629 22.8701 121.851 22.8701 120.179V101.151C22.8709 101.141 22.8709 101.131 22.8701 101.121C22.8701 101.121 22.8701 101.098 22.8701 101.085C22.8701 99.2249 24.2453 97.2824 25.6238 95.3631C26.5472 94.0836 26.7681 92.2368 26.811 91.1551C26.811 91.0232 26.811 90.9078 26.811 90.8023H26.6857C26.5546 90.8135 26.4227 90.7985 26.2975 90.7581C26.1723 90.7178 26.0564 90.6529 25.9566 90.5672C25.8568 90.4815 25.7751 90.3768 25.7163 90.2592C25.6574 90.1416 25.6226 90.0134 25.6139 89.8822V89.0775C25.6218 88.9457 25.656 88.8168 25.7144 88.6984C25.7729 88.58 25.8545 88.4745 25.9544 88.3882C26.0543 88.3018 26.1705 88.2363 26.296 88.1955C26.4216 88.1548 26.5541 88.1396 26.6857 88.1508H33.4462C33.6471 88.1443 33.8459 88.1935 34.0205 88.293C34.1951 88.3926 34.3388 88.5385 34.4355 88.7147C34.4895 88.8281 34.5177 88.952 34.518 89.0775V89.8822C34.5093 90.0137 34.4744 90.1422 34.4153 90.26C34.3563 90.3779 34.2742 90.4828 34.1741 90.5685C34.0739 90.6542 33.9577 90.719 33.8321 90.7592C33.7065 90.7993 33.5742 90.814 33.4429 90.8023H33.3209C33.3209 90.9078 33.3209 91.0232 33.3209 91.1551C33.3638 92.2368 33.5847 94.0836 34.5114 95.3631C35.8866 97.2824 37.2552 99.2249 37.2651 101.085C37.2783 101.098 37.2783 101.114 37.2783 101.121Z" fill="#FAFAFA"/>
<path d="M37.278 101.121C37.2824 101.056 37.2824 100.991 37.278 100.927C37.266 100.736 37.2428 100.547 37.2088 100.359C37.0505 99.6357 36.7848 98.9399 36.4206 98.2949C35.8352 97.2708 35.1853 96.285 34.4749 95.3434C34.055 94.7219 33.7552 94.0273 33.5911 93.2954C33.3955 92.4797 33.2937 91.6444 33.2877 90.8056V90.7462H33.347C33.597 90.7629 33.8463 90.7044 34.0627 90.578C34.1714 90.5151 34.265 90.429 34.3368 90.3258C34.4086 90.2227 34.4569 90.105 34.4782 89.9811C34.4782 89.7272 34.4782 89.4403 34.4782 89.1666C34.4896 89.0345 34.4689 88.9016 34.4177 88.7793C34.3666 88.657 34.2867 88.5488 34.1847 88.4641C33.9692 88.2893 33.6968 88.2001 33.4196 88.2135H30.6824H26.7877C26.6278 88.1994 26.4667 88.2197 26.3154 88.2732C26.1641 88.3267 26.026 88.412 25.9105 88.5235C25.8003 88.6379 25.7268 88.7826 25.6994 88.939C25.6909 89.1071 25.6909 89.2755 25.6994 89.4436C25.6994 89.6118 25.6994 89.803 25.6994 89.958C25.7227 90.1183 25.794 90.2678 25.9039 90.3867C26.0217 90.5067 26.1649 90.5986 26.3231 90.6557C26.4812 90.7128 26.6501 90.7336 26.8174 90.7165H26.8965V90.799C26.8911 91.5749 26.8071 92.3484 26.6459 93.1074C26.4859 93.8972 26.177 94.6493 25.7357 95.3236C25.2707 95.9831 24.7925 96.6427 24.3506 97.3418C23.8933 98.0364 23.5171 98.781 23.2293 99.5613C23.0894 99.9574 22.9997 100.37 22.9622 100.788C22.9391 101.2 22.9622 101.642 22.9622 102.071V110.085C22.9622 113.287 22.9622 116.416 22.9622 119.437C22.9443 119.806 22.962 120.176 23.015 120.542C23.1077 120.89 23.2856 121.21 23.5327 121.472C24.0299 122 24.6335 122.417 25.3037 122.695C25.9616 122.971 26.647 123.175 27.3483 123.305C28.0351 123.435 28.7307 123.514 29.4292 123.54C30.7743 123.608 32.1224 123.485 33.4328 123.174C34.0587 123.021 34.6659 122.8 35.2433 122.514C35.8023 122.248 36.3024 121.872 36.7141 121.409C36.9065 121.182 37.0532 120.92 37.1461 120.638C37.2153 120.352 37.2398 120.057 37.2187 119.764V118.009C37.2187 116.865 37.2187 115.763 37.2187 114.711C37.2187 110.517 37.2384 107.126 37.245 104.765C37.2516 102.404 37.2747 101.118 37.2747 101.118C37.2847 101.198 37.2847 101.279 37.2747 101.359C37.2747 101.523 37.2747 101.758 37.2747 102.061C37.2747 102.684 37.2747 103.594 37.2747 104.765C37.2747 107.12 37.2747 110.517 37.3011 114.711C37.3011 115.76 37.3011 116.862 37.3011 118.009V120.212C37.2968 120.37 37.2725 120.526 37.2286 120.677C37.1314 120.978 36.9756 121.257 36.7702 121.498C36.3484 121.978 35.8334 122.368 35.2565 122.643C34.6699 122.928 34.054 123.15 33.4196 123.302C32.1116 123.615 30.7663 123.744 29.4226 123.685C28.7164 123.66 28.013 123.582 27.3186 123.451C26.6051 123.318 25.9076 123.11 25.2377 122.831C24.5436 122.551 23.9181 122.125 23.4041 121.581C23.1382 121.303 22.9465 120.963 22.8468 120.591C22.788 120.213 22.7681 119.83 22.7874 119.447V102.077C22.7874 101.642 22.7874 101.22 22.7874 100.781C22.8274 100.35 22.9204 99.9242 23.0645 99.5151C23.3566 98.7217 23.7395 97.9648 24.2055 97.2594C24.6474 96.557 25.1322 95.8941 25.5972 95.2378C26.0237 94.5783 26.3224 93.8444 26.4777 93.0745C26.6367 92.3283 26.7217 91.5684 26.7316 90.8056L26.8075 90.8814C26.6191 90.8981 26.4294 90.8728 26.252 90.8072C26.0746 90.7416 25.914 90.6374 25.7818 90.5022C25.6502 90.3611 25.566 90.1824 25.5411 89.991C25.5411 89.7964 25.5411 89.6348 25.5411 89.4568C25.5314 89.2799 25.5314 89.1027 25.5411 88.9258C25.5753 88.7405 25.6637 88.5695 25.795 88.4344C25.9253 88.3084 26.0809 88.2114 26.2514 88.15C26.422 88.0886 26.6037 88.0642 26.7844 88.0783H30.6791H33.3998C33.7063 88.0669 34.0065 88.1677 34.244 88.3619C34.359 88.4587 34.449 88.5817 34.5064 88.7207C34.5638 88.8596 34.5869 89.0102 34.5738 89.16C34.5738 89.4436 34.5738 89.7041 34.5738 89.991C34.5507 90.1318 34.4968 90.2657 34.4158 90.3832C34.3349 90.5006 34.2289 90.5987 34.1055 90.6704C33.87 90.8069 33.5987 90.869 33.3272 90.8484L33.38 90.7957C33.4097 92.5336 33.7461 94.143 34.5309 95.284C35.2366 96.2305 35.88 97.2219 36.4569 98.252C36.8192 98.9037 37.0773 99.6081 37.222 100.34C37.2537 100.535 37.2725 100.732 37.278 100.93C37.2895 100.993 37.2895 101.058 37.278 101.121Z" fill="#263238"/>
<path d="M32.9511 90.7561C31.9511 90.843 30.9469 90.8716 29.9435 90.8418C28.9391 90.8716 27.9337 90.8429 26.9326 90.7561C27.9339 90.6712 28.9391 90.6426 29.9435 90.6703C30.9469 90.6425 31.951 90.6711 32.9511 90.7561Z" fill="#263238"/>
<path d="M36.6778 103.664C36.071 103.268 35.2697 103.443 34.6167 103.753C33.9637 104.063 33.347 104.495 32.638 104.607C31.8037 104.742 30.9627 104.409 30.2207 103.99C29.4787 103.571 28.7763 103.054 27.9782 102.767C27.2042 102.505 26.3723 102.466 25.5771 102.654C24.7819 102.841 24.0553 103.248 23.48 103.829V120.166C23.48 120.166 24.377 122.953 30.6956 122.517C37.0142 122.082 36.5162 119.289 36.5162 119.289L36.6778 103.664Z" fill="#FF725E"/>
<path d="M19.9382 92.5436C20.0316 91.9405 20.0046 91.325 19.8587 90.7325C19.7128 90.1399 19.4509 89.5822 19.0881 89.0915C18.7253 88.6009 18.2688 88.187 17.7451 87.8738C17.2214 87.5607 16.6408 87.3544 16.0368 87.2671C15.9262 87.2385 15.8089 87.2514 15.7071 87.3033C15.5719 87.3957 15.5686 87.5902 15.5817 87.7518C15.6922 88.9303 16.1729 90.0436 16.9548 90.9322C17.7368 91.8208 18.78 92.4391 19.9349 92.6985" fill="#455A64"/>
<path d="M13.4513 101.088C14.6187 103.496 16.2973 105.118 18.3782 105.197C18.7938 105.197 19.1071 104.937 19.5028 104.914C19.7329 104.967 19.9547 105.052 20.1624 105.164C20.2666 105.21 20.3784 105.237 20.4921 105.243C22.6423 105.128 24.4726 103.618 25.706 101.088C27.4241 97.5496 26.8932 93.7472 24.5221 92.5897C24.2109 92.4345 23.8864 92.3076 23.5525 92.2105C23.1689 92.1073 22.7723 92.0607 22.3752 92.072C21.4585 92.1373 20.5574 92.3442 19.704 92.6853L19.5885 92.7282C17.6593 91.8774 16.1225 91.8708 14.6418 92.593C12.2575 93.7472 11.7299 97.5496 13.4513 101.088Z" fill="#FF725E"/>
<path d="M13.4909 97.5035C13.3784 97.2815 13.3111 97.0394 13.2931 96.7911C13.2229 96.1921 13.2954 95.585 13.5046 95.0193C13.7138 94.4536 14.0537 93.9454 14.4968 93.5362C14.6715 93.3591 14.8801 93.2189 15.1101 93.124C15.1101 93.1503 14.8925 93.302 14.5792 93.6219C14.1788 94.0407 13.868 94.5367 13.6657 95.0796C13.465 95.6233 13.3796 96.2028 13.4151 96.7812C13.4415 97.2232 13.5338 97.4936 13.4909 97.5035Z" fill="#FAFAFA"/>
<path d="M13.9294 99.1853C13.8833 99.1853 13.8041 99.0303 13.7547 98.8127C13.7052 98.595 13.7019 98.4136 13.7547 98.4037C13.8074 98.3938 13.8767 98.5587 13.9294 98.7764C13.9822 98.9941 13.9756 99.1754 13.9294 99.1853Z" fill="#FAFAFA"/>
<path d="M24.8386 86.7493C24.8386 86.7789 24.3967 86.9504 23.7273 87.3528C23.3378 87.5872 22.9673 87.8518 22.6192 88.1442C22.1957 88.5058 21.804 88.9029 21.4485 89.3314C21.1 89.7661 20.7889 90.2295 20.5185 90.7165C20.3017 91.1159 20.1165 91.5316 19.9644 91.9598C19.7039 92.6919 19.6347 93.1734 19.5918 93.1668C19.5919 93.0559 19.6041 92.9453 19.6281 92.837C19.6442 92.7044 19.6707 92.5731 19.7072 92.4446C19.7453 92.2707 19.7926 92.099 19.849 91.9301C19.9878 91.4887 20.1655 91.0605 20.38 90.6506C20.9071 89.6417 21.6355 88.7516 22.5203 88.0354C22.8794 87.7425 23.2647 87.483 23.6712 87.2604C23.8394 87.1582 24.001 87.0889 24.1461 87.0197C24.2656 86.9599 24.389 86.9081 24.5154 86.8647C24.6182 86.8135 24.7267 86.7748 24.8386 86.7493Z" fill="#263238"/>
<path d="M6.47665 94.4332L2.74023 141.565L37.5651 149.985C37.5651 149.985 49.7143 145.866 49.8792 145.586C50.044 145.305 50.0902 96.7779 50.0902 96.7779L37.5354 100.033L6.47665 94.4332Z" fill="#FF725E"/>
<g opacity="0.4">
<path opacity="0.4" d="M6.47665 94.4332L2.74023 141.565L37.5651 149.985C37.5651 149.985 49.7143 145.866 49.8792 145.586C50.044 145.305 50.0902 96.7779 50.0902 96.7779L37.5354 100.033L6.47665 94.4332Z" fill="black"/>
</g>
<path d="M61.0982 39.5312L59.1558 67.0382C59.0031 69.2027 58.0354 71.2288 56.4479 72.7079C54.8604 74.1871 52.7711 75.0094 50.6013 75.0091C49.4265 75.0116 48.2638 74.7727 47.1852 74.3071C46.1066 73.8416 45.1352 73.1594 44.3312 72.3028C43.5272 71.4463 42.9078 70.4337 42.5114 69.3278C42.1151 68.2219 41.9502 67.0464 42.027 65.8741C42.1985 63.2557 42.3568 61.1088 42.3568 61.1088C42.3568 61.1088 35.6985 60.0733 35.6161 53.415C35.5699 49.5697 36.2327 40.8437 36.8 34.1591C36.9862 31.9757 37.9864 29.9421 39.6022 28.4619C41.2181 26.9817 43.3314 26.163 45.5227 26.1685H49.5427C51.1867 26.2651 52.7947 26.6902 54.2717 27.4187C55.7487 28.1472 57.0646 29.1644 58.1418 30.41C59.2191 31.6557 60.0357 33.1047 60.5435 34.6713C61.0513 36.2379 61.2399 37.8905 61.0982 39.5312Z" fill="#FFBE9D"/>
<path d="M42.3702 61.1088C42.3702 61.1088 46.5683 61.3561 51.0401 58.5464C51.0401 58.5464 48.8966 63.3909 42.2515 62.7907L42.3702 61.1088Z" fill="#EB996E"/>
<path d="M38.0627 41.0251C38.1814 41.1505 38.9003 40.6162 39.926 40.6195C40.9516 40.6228 41.6969 41.134 41.809 41.0086C41.8618 40.9526 41.7431 40.7316 41.4166 40.4909C40.9734 40.1858 40.4475 40.0236 39.9095 40.0259C39.377 40.0266 38.8581 40.1938 38.4255 40.5041C38.1122 40.7481 38.0066 40.9724 38.0627 41.0251Z" fill="#263238"/>
<path d="M49.1504 42.2024C49.1493 42.4499 49.2443 42.6882 49.4152 42.8672C49.5862 43.0461 49.8199 43.1518 50.0672 43.1621C50.1888 43.1724 50.3112 43.1583 50.4273 43.1205C50.5433 43.0828 50.6506 43.0221 50.7428 42.9422C50.8351 42.8623 50.9103 42.7647 50.9642 42.6552C51.0181 42.5457 51.0495 42.4265 51.0565 42.3047C51.0593 42.0567 50.9649 41.8174 50.7936 41.6381C50.6223 41.4588 50.3876 41.3536 50.1397 41.345C50.0181 41.3342 49.8954 41.348 49.7792 41.3856C49.663 41.4232 49.5555 41.4838 49.4631 41.5638C49.3708 41.6438 49.2956 41.7416 49.2418 41.8513C49.1881 41.961 49.157 42.0804 49.1504 42.2024Z" fill="#263238"/>
<path d="M38.9864 42.2024C38.9845 42.4502 39.0791 42.6889 39.2503 42.8681C39.4214 43.0472 39.6556 43.1527 39.9032 43.1621C40.0248 43.1729 40.1475 43.1591 40.2637 43.1215C40.3799 43.0839 40.4874 43.0233 40.5797 42.9433C40.6721 42.8633 40.7473 42.7655 40.8011 42.6558C40.8548 42.5461 40.8859 42.4266 40.8925 42.3047C40.8961 42.057 40.8025 41.8177 40.6317 41.6383C40.4609 41.4589 40.2266 41.3536 39.979 41.345C39.857 41.3332 39.7338 41.3464 39.617 41.3836C39.5002 41.4208 39.3921 41.4813 39.2993 41.5614C39.2065 41.6416 39.1309 41.7397 39.0772 41.8499C39.0234 41.96 38.9925 42.08 38.9864 42.2024Z" fill="#263238"/>
<path d="M48.0192 41.0284C48.138 41.1505 48.8602 40.6162 49.8825 40.6195C50.9048 40.6228 51.6534 41.134 51.7655 41.0086C51.8183 40.9526 51.6996 40.7316 51.3731 40.4909C50.9299 40.1858 50.404 40.0236 49.866 40.0259C49.3336 40.0266 48.8147 40.1938 48.382 40.5041C48.0687 40.7481 47.9632 40.9724 48.0192 41.0284Z" fill="#263238"/>
<path d="M44.3058 48.6134C44.3058 48.5573 43.6759 48.4485 42.6569 48.3166C42.3964 48.2869 42.149 48.2374 42.1062 48.0593C42.0824 47.7895 42.1423 47.519 42.2776 47.2844L43.0526 45.3057C44.1244 42.4729 44.9027 40.1446 44.7873 40.1017C44.6719 40.0589 43.7089 42.3212 42.6371 45.154C42.3623 45.8421 42.115 46.505 41.8951 47.1426C41.7331 47.4586 41.6854 47.8209 41.7599 48.1682C41.7982 48.2605 41.857 48.3429 41.9318 48.4092C42.0067 48.4755 42.0956 48.5239 42.1919 48.5507C42.336 48.5901 42.4845 48.6111 42.6338 48.6134C43.6594 48.6694 44.3025 48.6727 44.3058 48.6134Z" fill="#263238"/>
<path d="M47.3167 49.3224C47.1518 49.3224 47.1485 50.4239 46.1988 51.212C45.249 52.0002 44.0651 51.8716 44.0552 52.0332C44.0552 52.1024 44.319 52.2475 44.8203 52.264C45.4707 52.2723 46.1034 52.0517 46.6077 51.6407C47.0905 51.2436 47.4013 50.6753 47.475 50.0545C47.5179 49.5928 47.3926 49.3158 47.3167 49.3224Z" fill="#263238"/>
<path d="M47.7553 37.7009C47.8575 37.9779 48.8765 37.846 50.0637 37.9911C51.2509 38.1362 52.237 38.4627 52.3953 38.2154C52.4678 38.0966 52.2963 37.8328 51.9072 37.5558C51.3869 37.221 50.7947 37.0142 50.1791 36.9523C49.565 36.8777 48.942 36.9512 48.3621 37.1667C47.9333 37.3513 47.7124 37.569 47.7553 37.7009Z" fill="#263238"/>
<path d="M38.2048 38.0967C38.3862 38.3308 39.092 38.0967 39.9395 38.0769C40.787 38.0571 41.5027 38.2352 41.6708 37.9911C41.7401 37.8724 41.628 37.6383 41.3147 37.4206C40.8938 37.1558 40.4036 37.0225 39.9066 37.0378C39.4096 37.0531 38.9285 37.2162 38.5247 37.5063C38.2246 37.7438 38.1257 37.9845 38.2048 38.0967Z" fill="#263238"/>
<path d="M58.8525 44.5373C58.9679 44.4878 63.4298 43.1851 63.2847 47.7361C63.1396 52.2871 58.5985 51.2021 58.5952 51.0735C58.5919 50.9449 58.8525 44.5373 58.8525 44.5373Z" fill="#FFBE9D"/>
<path d="M60.0327 49.3818C60.0525 49.3818 60.1119 49.4411 60.2438 49.5071C60.4292 49.5932 60.6409 49.6038 60.8341 49.5368C61.3222 49.3752 61.7509 48.6266 61.797 47.8054C61.8232 47.416 61.76 47.0257 61.6124 46.6644C61.5743 46.5205 61.5019 46.3881 61.4013 46.2784C61.3008 46.1687 61.1752 46.085 61.0352 46.0345C60.9447 46.0073 60.8475 46.0129 60.7606 46.0503C60.6738 46.0877 60.6029 46.1545 60.5604 46.2389C60.4944 46.3643 60.5208 46.4566 60.4977 46.4632C60.4746 46.4698 60.4021 46.3841 60.4449 46.1961C60.4752 46.0846 60.5413 45.9861 60.6329 45.9158C60.7612 45.8252 60.9198 45.7885 61.0748 45.8135C61.2605 45.857 61.4321 45.947 61.5735 46.0751C61.7148 46.2032 61.8213 46.3651 61.8828 46.5456C62.0628 46.9471 62.1431 47.386 62.1169 47.8252C62.0576 48.742 61.5596 49.5829 60.8967 49.7544C60.7732 49.7857 60.6442 49.7888 60.5192 49.7637C60.3942 49.7386 60.2764 49.6859 60.1745 49.6093C60.0327 49.484 60.0327 49.3917 60.0327 49.3818Z" fill="#EB996E"/>
<path d="M61.3851 44.3724C60.6925 44.2042 59.4921 44.8473 59.1953 45.4969C58.8985 46.1466 58.8325 46.882 58.5357 47.5317C58.2389 48.1813 57.5728 48.7717 56.8868 48.6068C56.6514 48.5326 56.4399 48.3974 56.2736 48.2149C56.1074 48.0324 55.9924 47.8092 55.9404 47.568C55.8446 47.0835 55.8446 46.5849 55.9404 46.1004C56.2075 43.9733 56.6527 41.866 56.7384 39.7258C56.8242 37.5855 56.5208 35.3595 55.3962 33.5358C54.2717 31.7121 52.2072 30.3699 50.0703 30.5414C48.6555 30.6568 47.3595 31.3955 45.9546 31.5901C45.1186 31.7007 44.2684 31.6196 43.4684 31.3527C42.6685 31.0859 41.9398 30.6404 41.3377 30.05C41.1827 29.8983 40.4736 29.4267 40.4736 29.4267C40.4736 29.3179 40.5759 28.3681 40.9518 28.0218C43.7385 25.4429 48.7643 24.724 52.448 25.6507C56.1316 26.5774 59.5844 29.1761 61.1674 32.6289C62.7503 36.0817 62.2821 40.8734 61.4081 44.3724" fill="#263238"/>
<path d="M36.0845 32.9587C36.6814 34.3404 38.205 35.1451 39.7121 35.2968C41.2192 35.4485 42.7065 35.0594 44.1542 34.6372C45.602 34.2151 49.4901 33.5819 50.9972 33.6281C51.2214 33.6281 51.4918 33.6281 51.6139 33.4401C51.7722 33.1862 51.5182 32.8795 51.2841 32.6981C49.3054 31.1416 44.5005 30.1885 41.981 30.083C39.4614 29.9774 36.8199 31.0723 35.4546 33.1796" fill="#263238"/>
<path d="M36.7407 33.1301C36.7407 33.1301 54.2191 27.5238 61.7645 42.6245C61.7645 42.6245 62.8924 38.8419 62.8924 36.8138C62.8924 35.4617 62.0844 27.3952 53.7871 24.8592C53.7871 24.8592 41.2851 20.0906 36.7407 33.1301Z" fill="#FF725E"/>
<g opacity="0.4">
<path opacity="0.4" d="M36.7407 33.1301C38.1938 31.6 40.1858 30.6962 42.2942 30.6106C47.4487 30.3797 57.0915 33.2785 61.7513 42.6245C61.7513 42.6245 62.8792 38.8419 62.8792 36.8138C62.8792 35.4617 62.0712 27.3952 53.7739 24.8592C53.7871 24.8592 41.2851 20.0906 36.7407 33.1301Z" fill="black"/>
</g>
<path d="M61.0226 40.8536C58.3732 36.9089 54.9014 33.5845 50.8455 31.1086C46.842 28.5989 40.2035 26.119 35.6294 24.9021C34.2576 24.5393 32.8263 24.2194 31.4247 24.4635C30.0232 24.7075 28.6513 25.6375 28.305 27.016C27.8697 28.7407 30.9433 31.4021 32.3712 32.4475C33.7808 33.387 35.2406 34.249 36.7441 35.0297C36.7441 35.0297 36.7045 31.8308 41.826 31.1712C48.7877 30.2742 61.0226 40.8536 61.0226 40.8536Z" fill="#FF725E"/>
<path d="M46.7097 27.8009C46.7097 27.8009 44.1902 26.4092 41.6641 26.086C42.0847 25.7544 42.5457 25.4774 43.036 25.2616C44.4082 25.489 45.7353 25.9343 46.9669 26.5807L46.7097 27.8009Z" fill="#FAFAFA"/>
<path d="M68.6535 73.1755C68.6535 73.1755 63.8783 78.6334 64.4059 86.2283C64.4785 87.2803 64.5313 88.7478 64.6599 89.7965C65.4645 96.313 66.7111 102.361 66.7111 102.361H67.1662L83.8169 98.2488C83.8169 98.2488 81.3072 83.7945 80.7301 81.8752C78.8866 75.7313 72.5647 72.3511 72.5647 72.3511L68.6535 73.1755Z" fill="#FF725E"/>
<path d="M49.8789 145.586C49.8789 145.586 49.8789 145.503 49.8789 145.341C49.8789 145.18 49.8789 144.933 49.8789 144.616C49.8789 143.976 49.8789 143.04 49.8789 141.829C49.8789 139.399 49.8789 135.893 49.8987 131.501C49.9284 122.732 49.9712 110.53 50.0207 96.768L50.1262 96.8505L43.7944 98.4994L37.5747 100.112L37.6374 100.03C37.7231 106.929 37.7001 113.438 37.6671 119.322C37.6341 125.205 37.6011 130.458 37.5747 134.851C37.5484 139.244 37.5747 142.766 37.5747 145.206C37.5747 146.42 37.5747 147.36 37.5747 148.003V148.728C37.5747 148.89 37.5747 148.972 37.5747 148.972C37.5747 148.972 37.5747 148.89 37.5747 148.728C37.5747 148.567 37.5747 148.319 37.5747 148.003C37.5747 147.343 37.5517 146.42 37.5319 145.206C37.5022 142.776 37.4824 139.244 37.4857 134.851C37.489 130.458 37.522 125.202 37.5418 119.322C37.5616 113.442 37.5813 106.929 37.4923 100.033V99.9636L37.5583 99.9471L43.7746 98.3345L50.1097 96.6856L50.2186 96.6559V96.768C50.146 110.53 50.0833 122.735 50.0405 131.501C50.0108 135.88 49.9844 139.399 49.9679 141.829C49.9679 143.04 49.9481 143.976 49.9415 144.616C49.9415 144.946 49.9415 145.173 49.9415 145.341C49.9415 145.51 49.8789 145.586 49.8789 145.586Z" fill="#263238"/>
<path d="M42.1686 63.3612C42.1686 63.3612 41.509 69.6963 43.6394 70.6824C46.0435 71.7904 48.441 70.7054 49.9052 69.7656C53.8329 67.2592 59.67 60.2975 59.67 60.2975L63.6274 65.4355C63.6274 65.4355 53.6614 77.4132 51.6597 77.334C50.3405 77.2846 48.3124 76.0149 47.0427 75.1212C46.3479 74.6359 45.7289 74.0502 45.2058 73.3833L43.4811 71.1902C41.3276 72.2521 39.5864 73.6141 38.3827 75.3586C38.3827 75.3586 37.8089 70.9231 38.8411 68.9114C39.8733 66.8998 41.9311 63.4272 41.9311 63.4272L42.1686 63.3612Z" fill="#FF725E"/>
<path d="M38.7191 69.0829C38.7111 69.1208 38.6978 69.1575 38.6795 69.1917C38.6498 69.2708 38.607 69.3731 38.5509 69.5017C38.414 69.9115 38.3157 70.3333 38.2574 70.7615C38.0659 72.3386 38.0659 73.9331 38.2574 75.5103L38.1387 75.4872C38.6934 74.5501 39.4182 73.7247 40.2756 73.0534C41.2464 72.2643 42.3068 71.5924 43.4349 71.0517L43.4877 71.0253L43.5273 71.0714C44.2231 71.8794 44.9585 72.7203 45.7335 73.5745C46.5086 74.4693 47.3814 75.2745 48.3355 75.9753C48.7913 76.298 49.2867 76.5607 49.8096 76.7569C50.0669 76.8505 50.3317 76.9222 50.6011 76.9712C50.8649 77.014 51.1329 77.024 51.3992 77.0009C52.471 76.902 53.3778 76.2886 54.1298 75.6422L60.9529 68.3672L62.9316 66.2797L63.4626 65.729L63.6011 65.5872L63.6538 65.5443L63.6143 65.5971L63.4823 65.7488L62.9712 66.316L61.0255 68.4365L54.2518 75.751C53.8611 76.0989 53.4344 76.4041 52.9788 76.6612C52.502 76.9317 51.9742 77.1001 51.4288 77.1559C51.1472 77.1789 50.8639 77.169 50.5846 77.1262C50.3049 77.077 50.0301 77.0031 49.7634 76.9053C49.2247 76.7037 48.7139 76.4344 48.2432 76.1039C47.2753 75.3966 46.3903 74.5824 45.6049 73.6767C44.8266 72.8193 44.0912 71.975 43.3987 71.1638L43.4943 71.1836C42.3771 71.7199 41.3258 72.3839 40.3614 73.1623C39.5246 73.8196 38.8149 74.6243 38.2673 75.5367L38.1683 75.7082L38.1486 75.5136C37.9643 73.926 37.982 72.3215 38.2013 70.7384C38.269 70.3096 38.3794 69.8886 38.5311 69.4819C38.5905 69.3434 38.6432 69.2445 38.6762 69.1752C38.6885 69.1435 38.7028 69.1127 38.7191 69.0829Z" fill="#263238"/>
<g opacity="0.3">
<path opacity="0.3" d="M38.9632 74.422C38.8966 74.5882 38.8843 74.7712 38.9281 74.9448C38.972 75.1184 39.0697 75.2737 39.2072 75.3883C39.3446 75.441 39.4937 75.455 39.6385 75.4289C39.7833 75.4027 39.9181 75.3373 40.0283 75.2399C40.2444 75.0422 40.431 74.8145 40.5824 74.5638C40.9768 73.9954 41.451 73.4867 41.9905 73.0535C42.5215 72.6247 43.2503 72.262 43.8604 72.5654C44.2419 72.8175 44.5313 73.1867 44.6849 73.6174C45.5126 75.3092 46.5052 77.0306 48.1245 77.9969C49.7437 78.9631 51.8246 79.006 53.6087 78.3761C55.3824 77.6857 56.9429 76.5403 58.1333 75.0552C59.3145 73.5746 60.3618 71.9921 61.263 70.3262C62.0083 69.0367 62.7635 67.7077 62.9943 66.2369C62.7898 66.3523 62.3084 67.0943 62.1039 67.2097C62.1039 67.2097 54.4167 75.6752 53.6945 76.1138C52.9723 76.5524 50.9804 79.4743 45.3378 73.1458L43.4713 71.1209C43.4713 71.1209 39.9162 72.8457 38.9632 74.422Z" fill="black"/>
</g>
<path d="M59.552 92.6862L51.0996 91.3898L50.7081 93.9421L59.1605 95.2385L59.552 92.6862Z" fill="white"/>
<path d="M82.4186 98.5686L69.2273 101.758L70.7509 114.2L45.4897 133.173C44.4805 133.314 43.445 133.476 42.8712 133.621C41.4894 133.951 39.0491 137.43 38.3598 137.776L33.4362 141.575C33.4362 141.575 33.0042 143.303 35.25 142.957C37.4958 142.611 39.9988 140.886 40.2593 140.886C40.5199 140.886 41.3048 141.41 40.9189 142.535C40.5891 143.524 39.237 146.928 39.237 146.928L37.565 149.995C37.565 149.995 44.7938 150.232 46.7989 147.551C48.1708 145.731 52.4052 140.57 52.4052 140.57C52.4052 140.57 82.1416 125.94 83.9257 122.877C86.3562 118.708 82.4186 98.5686 82.4186 98.5686Z" fill="#FFBE9D"/>
<path d="M76.3373 119.562C76.3551 119.109 76.3352 118.654 76.2779 118.204C76.1183 117.116 75.5851 116.117 74.7697 115.38C73.9544 114.642 72.9078 114.211 71.8094 114.161C71.3552 114.148 70.9007 114.174 70.4507 114.237C70.5633 114.183 70.6834 114.146 70.8068 114.128C71.1384 114.057 71.4772 114.027 71.816 114.039C72.9526 114.057 74.0438 114.489 74.8864 115.252C75.729 116.015 76.2657 117.058 76.3966 118.187C76.4374 118.524 76.4374 118.863 76.3966 119.2C76.3947 119.323 76.3747 119.445 76.3373 119.562Z" fill="#EB996E"/>
<path d="M43.5044 145.348C43.4785 145.631 43.421 145.909 43.3329 146.179C43.164 146.846 42.9183 147.491 42.6008 148.102C42.2844 148.726 41.8031 149.252 41.2091 149.622C41.0276 149.73 40.8308 149.81 40.6254 149.859C40.5513 149.885 40.4722 149.893 40.3945 149.883C40.6547 149.783 40.9062 149.661 41.1464 149.52C41.702 149.135 42.1549 148.62 42.4656 148.019C42.7697 147.417 43.0202 146.789 43.2142 146.143C43.2876 145.87 43.3847 145.604 43.5044 145.348Z" fill="#EB996E"/>
<path d="M47.0066 144.197C46.9567 144.474 46.8714 144.743 46.7527 144.999C46.5045 145.63 46.2159 146.244 45.8886 146.839C45.5603 147.433 45.1946 148.006 44.7938 148.554C44.6416 148.795 44.46 149.017 44.2529 149.213C44.3801 148.963 44.5279 148.723 44.6948 148.497C44.9785 148.065 45.3544 147.459 45.7369 146.769C46.1195 146.08 46.4262 145.45 46.6405 144.966C46.74 144.699 46.8625 144.442 47.0066 144.197Z" fill="#EB996E"/>
<path d="M46.9112 122.662C46.947 122.8 46.9669 122.942 46.9705 123.085C47.0002 123.355 47.0233 123.744 47.0365 124.235C47.0985 126.781 46.7306 129.318 45.9482 131.741C45.7965 132.203 45.6646 132.576 45.5591 132.826C45.514 132.96 45.4555 133.09 45.3843 133.212C45.4063 133.072 45.4439 132.935 45.4964 132.803C45.5821 132.546 45.6976 132.17 45.8262 131.705C46.1804 130.493 46.4493 129.258 46.6308 128.008C46.8092 126.758 46.9018 125.498 46.9079 124.235C46.9079 123.751 46.9079 123.358 46.9079 123.088C46.8956 122.946 46.8967 122.804 46.9112 122.662Z" fill="#263238"/>
<path d="M39.7646 126.623C39.925 126.96 40.0638 127.307 40.1802 127.662C40.4242 128.321 40.7639 129.199 41.1695 130.171C41.5751 131.144 41.9511 132.018 42.2314 132.648C42.3965 132.983 42.5408 133.328 42.6634 133.68C42.4508 133.369 42.2696 133.038 42.1226 132.691C41.8126 132.071 41.4136 131.204 41.0112 130.228C40.6089 129.251 40.289 128.351 40.0746 127.692C39.9386 127.346 39.8349 126.988 39.7646 126.623Z" fill="#263238"/>
<path d="M37.8487 135.161C37.7822 135.19 37.7124 135.209 37.6409 135.22L37.0374 135.366C36.7736 135.428 36.4537 135.501 36.0745 135.563C35.6952 135.626 35.2698 135.718 34.7883 135.778C34.3068 135.837 33.799 135.92 33.2219 135.969C32.6447 136.019 32.0478 136.061 31.4114 136.098C28.6391 136.221 25.8621 136.009 23.1404 135.468C22.5172 135.333 21.9203 135.214 21.3728 135.062C20.8254 134.911 20.3142 134.779 19.8525 134.637C19.3908 134.495 18.9753 134.353 18.6126 134.231C18.2498 134.109 17.953 133.99 17.6925 133.901L17.1153 133.671C17.0473 133.645 16.9811 133.614 16.9175 133.578C16.9902 133.588 17.0612 133.608 17.1285 133.638L17.7156 133.839C17.9662 133.931 18.2795 134.043 18.6422 134.168C19.005 134.294 19.4205 134.426 19.8855 134.548C20.3505 134.67 20.8551 134.825 21.4058 134.95C21.9565 135.075 22.5468 135.211 23.1701 135.339C24.5262 135.592 25.8944 135.775 27.2693 135.887C28.6455 135.985 30.0258 136.012 31.4048 135.966C32.0412 135.933 32.6447 135.91 33.2087 135.854C33.7726 135.798 34.2936 135.745 34.7718 135.685C35.25 135.626 35.6787 135.554 36.058 135.494C36.4372 135.435 36.7604 135.379 37.0242 135.326L37.6343 135.214C37.7035 135.188 37.7754 135.17 37.8487 135.161Z" fill="#263238"/>
<path d="M36.592 129.426C36.0463 129.227 35.5216 128.974 35.0255 128.671C34.5033 128.418 34.0064 128.115 33.5415 127.767C34.0882 127.965 34.6132 128.218 35.108 128.523C35.6315 128.774 36.1287 129.076 36.592 129.426Z" fill="#263238"/>
<path d="M83.8169 98.2487L83.7344 98.2751L83.4904 98.3411L82.5472 98.5818L78.9988 99.459L66.7309 102.427L66.6419 102.447V102.358C66.2956 100.092 65.8207 97.6485 65.3623 95.1026C65.0622 93.4042 64.8017 91.7389 64.6236 90.1229C64.4455 88.507 64.3664 86.9339 64.3433 85.4367C64.3069 84.0197 64.3897 82.6022 64.5906 81.1991C64.7692 79.9714 65.134 78.7782 65.6723 77.6605C66.1329 76.7446 66.7488 75.9156 67.4927 75.2102C68.0524 74.677 68.6951 74.2381 69.3955 73.9109C69.8411 73.7118 70.308 73.5646 70.7872 73.4723L71.1632 73.4261C71.2059 73.4217 71.249 73.4217 71.2918 73.4261C71.25 73.4397 71.2069 73.4486 71.1632 73.4525L70.7938 73.5185C70.3217 73.6203 69.8626 73.7752 69.4252 73.9801C68.7372 74.3185 68.1072 74.7637 67.5587 75.2993C66.8322 76.0036 66.231 76.8267 65.7811 77.7331C65.2578 78.8424 64.9043 80.0241 64.7324 81.2386C64.5388 82.6358 64.4616 84.0466 64.5016 85.4565C64.528 86.9471 64.6137 88.5103 64.7918 90.1229C64.9699 91.7356 65.2337 93.3977 65.5338 95.0927C65.9889 97.6353 66.4605 100.082 66.8068 102.348L66.7045 102.279L78.9889 99.3601L82.5472 98.5291L83.497 98.3147L83.7443 98.2619C83.768 98.2553 83.7923 98.2508 83.8169 98.2487Z" fill="#263238"/>
</svg>
