<svg width="150" height="138" viewBox="0 0 150 138" fill="none" xmlns="http://www.w3.org/2000/svg">
<path opacity="0.5" d="M27.9673 127.841C55.8845 141.286 101.146 141.286 129.063 127.841C156.98 114.396 156.977 92.5996 129.063 79.1444C101.15 65.6892 55.8845 65.6963 27.9673 79.1444C0.0501642 92.5925 0.0536489 114.393 27.9673 127.841Z" fill="#EBEBEB"/>
<path d="M118.435 102.682C129.089 102.682 137.725 98.5213 137.725 93.3889C137.725 88.2564 129.089 84.0957 118.435 84.0957C107.781 84.0957 99.1445 88.2564 99.1445 93.3889C99.1445 98.5213 107.781 102.682 118.435 102.682Z" fill="#E0E0E0"/>
<path d="M89.2623 130.382C84.1085 132.867 75.7536 132.867 70.5997 130.382C65.4459 127.898 65.4459 123.876 70.5997 121.392C75.7536 118.907 84.1085 118.925 89.2623 121.392C94.4162 123.859 94.4301 127.901 89.2623 130.382Z" fill="#E0E0E0"/>
<path d="M19.9475 98.6787L22.7824 97.0259C22.7824 97.0259 24.2784 90.2842 22.0502 81.7206C19.822 73.1569 13.3954 66.7535 10.0443 68.0962C6.69329 69.4389 6.78046 71.9728 8.62859 74.5419C10.1629 76.6564 15.1389 81.8016 17.531 87.7292C18.9561 91.2106 19.7736 94.9152 19.9475 98.6787Z" fill="#FF725E"/>
<path opacity="0.1" d="M19.9475 98.6787L22.7824 97.0259C22.7824 97.0259 24.2784 90.2842 22.0502 81.7206C19.822 73.1569 13.3954 66.7535 10.0443 68.0962C6.69329 69.4389 6.78046 71.9728 8.62859 74.5419C10.1629 76.6564 15.1389 81.8016 17.531 87.7292C18.9561 91.2106 19.7736 94.9152 19.9475 98.6787Z" fill="black"/>
<path d="M21.457 97.9739H21.4326C21.3875 97.9669 21.3469 97.9423 21.3195 97.9054C21.2921 97.8685 21.2801 97.8223 21.2861 97.7765C23.2214 83.68 14.5771 72.2829 10.6437 69.9041C10.6209 69.8941 10.6005 69.8794 10.5838 69.8608C10.5671 69.8422 10.5545 69.8202 10.5469 69.7963C10.5393 69.7724 10.5369 69.7472 10.5397 69.7222C10.5426 69.6973 10.5506 69.6732 10.5634 69.6517C10.5762 69.6302 10.5934 69.6117 10.6138 69.5974C10.6343 69.5831 10.6575 69.5734 10.6819 69.569C10.7064 69.5645 10.7315 69.5654 10.7555 69.5715C10.7796 69.5776 10.8021 69.5889 10.8216 69.6046C14.8142 72.0151 23.5911 83.5637 21.6314 97.8259C21.624 97.8673 21.6026 97.9047 21.5707 97.9318C21.5388 97.9588 21.4986 97.9737 21.457 97.9739Z" fill="#F8F8F8"/>
<path d="M19.9473 98.6787L15.7001 101.146C14.813 100.698 13.8521 100.418 12.8651 100.321C11.0588 100.092 9.85579 98.3298 10.0336 97.0153C10.1522 96.1272 10.4346 95.1158 10.2986 94.2171C10.1801 93.4136 9.40945 92.6912 8.69113 92.4093C8.07978 92.2162 7.44151 92.1246 6.80115 92.1379C5.77945 92.0886 4.70894 91.9723 3.84764 91.4331C2.98634 90.8939 2.3517 89.8155 2.63067 88.8182C2.81826 88.302 3.12278 87.8373 3.51986 87.4614C3.91535 87.0844 4.23608 86.6347 4.46484 86.1363C4.84144 85.1425 4.17542 84.5081 3.38386 84.0465C0.59424 82.4254 -0.661092 81.1461 0.343173 79.9197C1.34744 78.6933 4.10568 78.1576 6.93366 79.6589C9.76164 81.1602 12.1084 79.5497 13.974 79.8668C16.8961 80.3602 17.067 82.4465 16.7043 84.2579C16.3417 86.0693 19.9577 86.8411 20.8539 89.0155C21.5269 90.5943 22.0778 95.7819 19.9473 98.6787Z" fill="#FF725E"/>
<path d="M18.5317 99.6796C18.4866 99.6796 18.4433 99.662 18.4108 99.6305C18.3783 99.5989 18.3591 99.5559 18.3573 99.5104C18.0086 89.449 5.24956 80.6739 2.24025 80.1699C2.21757 80.1665 2.19579 80.1585 2.17615 80.1466C2.1565 80.1346 2.13939 80.1188 2.12579 80.1002C2.11218 80.0815 2.10235 80.0603 2.09686 80.0378C2.09137 80.0153 2.09033 79.9919 2.0938 79.969C2.10231 79.9231 2.12819 79.8823 2.16594 79.8554C2.2037 79.8284 2.25036 79.8173 2.29605 79.8245C5.46576 80.3532 18.3538 89.0613 18.706 99.4963C18.7069 99.5195 18.7034 99.5426 18.6954 99.5643C18.6875 99.586 18.6755 99.606 18.6599 99.623C18.6444 99.64 18.6257 99.6538 18.6048 99.6635C18.584 99.6732 18.5615 99.6787 18.5386 99.6796H18.5317Z" fill="#F8F8F8"/>
<path d="M73.2499 117.854C73.1104 116.092 71.7645 113.082 69.7629 110.939C67.7613 108.797 64.5812 107.768 62.6145 108.627C60.7838 109.431 61.1883 111.912 63.6048 113.381C66.0213 114.851 69.6199 116.648 70.8543 119.429L73.2395 122.766L73.2499 117.854Z" fill="#FF725E"/>
<path opacity="0.1" d="M73.2499 117.854C73.1104 116.092 71.7645 113.082 69.7629 110.939C67.7613 108.797 64.5812 107.768 62.6145 108.627C60.7838 109.431 61.1883 111.912 63.6048 113.381C66.0213 114.851 69.6199 116.648 70.8543 119.429L73.2395 122.766L73.2499 117.854Z" fill="black"/>
<path d="M73.2497 121.082H73.2846C73.3155 121.077 73.3453 121.067 73.3723 121.051C73.3992 121.035 73.4227 121.014 73.4415 120.988C73.4603 120.963 73.474 120.934 73.4818 120.904C73.4895 120.873 73.4913 120.841 73.4868 120.81C72.6186 114.28 66.0525 109.737 63.4407 109.237C63.41 109.231 63.3784 109.231 63.3478 109.237C63.3171 109.243 63.2879 109.256 63.262 109.273C63.2361 109.291 63.2139 109.314 63.1967 109.34C63.1795 109.367 63.1676 109.396 63.1617 109.427C63.1557 109.458 63.1557 109.49 63.1619 109.521C63.1681 109.552 63.1803 109.582 63.1978 109.608C63.2153 109.634 63.2378 109.656 63.2639 109.674C63.29 109.691 63.3193 109.703 63.35 109.709C65.791 110.178 72.1862 114.671 73.0126 120.874C73.0209 120.931 73.0495 120.984 73.093 121.022C73.1365 121.06 73.1921 121.081 73.2497 121.082Z" fill="#F8F8F8"/>
<path d="M72.9919 125.149C72.6432 124.179 71.3042 122.639 69.2573 121.448C66.9942 120.127 64.229 119.658 63.5107 118.548C62.6494 117.209 63.7094 115.796 65.9307 115.891C68.1519 115.986 72.2701 118.71 73.2534 123.231L72.9919 125.149Z" fill="#FF725E"/>
<path d="M73.1593 124.197H73.2047C73.2358 124.191 73.2654 124.179 73.2918 124.161C73.3182 124.144 73.3408 124.121 73.3583 124.094C73.3759 124.068 73.388 124.038 73.3939 124.007C73.3999 123.975 73.3995 123.943 73.393 123.912C72.7339 120.564 67.9323 117.096 64.8288 116.951C64.7662 116.951 64.7058 116.974 64.6594 117.017C64.6129 117.059 64.5838 117.118 64.5777 117.18C64.5758 117.245 64.5988 117.307 64.6418 117.355C64.6848 117.402 64.7444 117.431 64.8079 117.434C67.6882 117.568 72.3155 120.906 72.9257 124.007C72.937 124.061 72.9664 124.109 73.0089 124.144C73.0515 124.179 73.1046 124.197 73.1593 124.197Z" fill="#F8F8F8"/>
<path d="M16.8998 101.29C16.6986 101.154 16.542 100.96 16.4501 100.733C16.3582 100.507 16.3351 100.258 16.3837 100.018L28.7487 44.7099C28.8976 44.1751 29.2333 43.713 29.6937 43.4095L103.27 0.485424C103.495 0.365188 103.745 0.30029 103.999 0.296003C104.254 0.291717 104.506 0.348163 104.735 0.460755C104.933 0.597969 105.086 0.791198 105.176 1.01625C105.266 1.24129 105.288 1.48816 105.24 1.72592L92.8718 57.0338C92.7226 57.5695 92.3854 58.0318 91.9233 58.3342L18.3644 101.258C18.1399 101.38 17.8903 101.446 17.6358 101.451C17.3814 101.457 17.1292 101.401 16.8998 101.29Z" fill="#F0F0F0"/>
<path d="M30.1646 45.5276L17.7996 100.857C17.695 101.329 17.946 101.519 18.3645 101.276L91.9408 58.3519C92.403 58.0495 92.7402 57.5872 92.8893 57.0515L105.24 1.72602C105.345 1.25027 105.094 1.06349 104.675 1.30665L31.0991 44.2307C30.6436 44.5355 30.3118 44.9959 30.1646 45.5276Z" fill="#E6E6E6"/>
<path d="M106.136 1.27841C105.907 1.16635 105.655 1.11051 105.401 1.11541C105.146 1.12031 104.896 1.18581 104.672 1.3066L31.0954 44.2306C30.8819 44.3703 30.7103 44.5662 30.5991 44.7973C30.4878 45.0283 30.4412 45.2857 30.4642 45.5416L40.1477 114.047C40.195 114.307 40.293 114.555 40.4361 114.775C40.5792 114.996 40.7645 115.186 40.9811 115.334C41.2094 115.447 41.4609 115.503 41.715 115.498C41.9691 115.493 42.2183 115.427 42.4422 115.306L116.005 72.3921C116.219 72.2522 116.391 72.0557 116.502 71.8239C116.613 71.5922 116.659 71.334 116.636 71.0776L106.984 2.56472C106.935 2.30386 106.835 2.05557 106.689 1.8346C106.544 1.61362 106.356 1.42448 106.136 1.27841Z" fill="#F0F0F0"/>
<path d="M31.894 46.3698L41.5636 114.876C41.5655 114.978 41.5953 115.077 41.6498 115.163C41.7043 115.249 41.7814 115.319 41.8724 115.363C41.9634 115.408 42.0648 115.426 42.1654 115.416C42.266 115.406 42.3618 115.367 42.4423 115.306L116.005 72.3921C116.219 72.2522 116.391 72.0557 116.502 71.8239C116.613 71.5922 116.66 71.334 116.636 71.0776L106.984 2.56472C106.982 2.46227 106.953 2.36219 106.899 2.27563C106.845 2.18907 106.768 2.11944 106.676 2.0745C106.585 2.02956 106.484 2.01106 106.383 2.02109C106.282 2.03111 106.186 2.06925 106.105 2.13125L32.5287 45.0553C32.314 45.1948 32.1413 45.3911 32.0294 45.6229C31.9175 45.8546 31.8707 46.113 31.894 46.3698Z" fill="#FAFAFA"/>
<path d="M17.8657 100.546L36.6957 89.5547L37.2432 93.537L28.6093 98.5765C28.6093 98.5765 26.3078 99.4011 25.3942 99.6337C24.4806 99.8663 17.8657 100.546 17.8657 100.546Z" fill="#E0E0E0"/>
<path d="M37.2535 93.5405L40.078 113.558L28.6196 98.58L37.2535 93.5405Z" fill="#E6E6E6"/>
<path d="M39.7397 114.224L29.4704 100.744C29.3 100.543 29.0845 100.386 28.8419 100.286C28.5993 100.186 28.3366 100.146 28.0756 100.169L18.4723 101.579C17.9315 101.638 17.3855 101.537 16.8997 101.29C16.5091 101.065 16.5754 100.804 17.0461 100.712L28.0826 98.5659C28.3414 98.5265 28.6058 98.5555 28.8502 98.65C29.0946 98.7445 29.3107 98.9013 29.4774 99.1051L41.1694 115.034C41.4554 115.425 41.3717 115.556 40.9811 115.327C40.5104 115.03 40.091 114.658 39.7397 114.224Z" fill="#E0E0E0"/>
<path d="M105.258 1.45469C105.256 1.25612 105.207 1.06093 105.113 0.886369C105.019 0.711807 104.885 0.563252 104.721 0.453838C104.491 0.342876 104.239 0.28764 103.985 0.292535C103.731 0.29743 103.481 0.362321 103.256 0.482032L29.6798 43.4061C29.4554 43.5482 29.2601 43.7324 29.1044 43.9488C28.9316 44.1739 28.8048 44.4314 28.7313 44.7065L26.9878 52.5195L28.4035 53.3406L103.497 9.53555L105.24 1.72605C105.257 1.63662 105.264 1.54564 105.261 1.45469H105.258Z" fill="#FF725E"/>
<path opacity="0.2" d="M105.24 1.72602C105.345 1.25027 105.094 1.06349 104.675 1.30665L31.0991 44.2307C30.6396 44.5336 30.304 44.9942 30.1542 45.5276L28.4106 53.3406L103.497 9.53552L105.24 1.72602Z" fill="black"/>
<path opacity="0.1" d="M30.5342 44.7734C30.3611 44.9964 30.2353 45.2532 30.1646 45.5275L28.4211 53.3406L27.0054 52.5159L28.7489 44.7029C28.8223 44.4278 28.9492 44.1703 29.122 43.9452L30.5342 44.7734Z" fill="black"/>
<path opacity="0.4" d="M105.258 1.45116C105.223 1.18684 104.996 1.09874 104.672 1.30667L31.0956 44.2272C30.8696 44.3686 30.674 44.5544 30.5202 44.7734L29.1045 43.9453C29.2602 43.7289 29.4555 43.5446 29.6799 43.4025L103.256 0.478492C103.481 0.358781 103.731 0.29389 103.985 0.288995C104.239 0.2841 104.491 0.339338 104.721 0.450299C104.885 0.559713 105.019 0.708268 105.113 0.88283C105.207 1.05739 105.256 1.25259 105.258 1.45116Z" fill="#F8F8F8"/>
<path d="M107.057 3.22021L106.984 2.56472C106.978 2.53265 106.971 2.50089 106.963 2.46957C106.964 2.46023 106.964 2.45071 106.963 2.44137C106.844 1.96714 106.558 1.55335 106.157 1.27841C105.928 1.16635 105.676 1.11051 105.422 1.11541C105.167 1.12031 104.918 1.18581 104.693 1.3066L31.1164 44.2307C30.8937 44.3701 30.7176 44.5739 30.6108 44.8157C30.5019 45.0408 30.4584 45.2925 30.4853 45.5416L31.8801 55.3564L33.2958 56.1845L108.354 12.383L107.057 3.22021Z" fill="#FF725E"/>
<path opacity="0.1" d="M33.2817 56.1811L31.8659 55.353L30.4711 45.5382C30.4442 45.2891 30.4877 45.0374 30.5967 44.8123L32.0159 45.6369C31.9044 45.8612 31.8596 46.1134 31.8869 46.3629L33.2817 56.1811Z" fill="black"/>
<path opacity="0.4" d="M106.942 2.44137C106.922 2.35259 106.88 2.27031 106.82 2.20211C106.761 2.1339 106.685 2.08197 106.6 2.05108C106.516 2.02019 106.425 2.01134 106.336 2.02535C106.247 2.03936 106.162 2.07578 106.091 2.13125L32.5146 45.0553C32.291 45.1937 32.1146 45.3978 32.009 45.6403L30.6177 44.8157C30.7253 44.5735 30.9012 44.3688 31.1233 44.2271L104.7 1.3066C104.924 1.18581 105.174 1.12031 105.429 1.11541C105.683 1.11051 105.935 1.16635 106.164 1.27841C106.555 1.55736 106.831 1.97091 106.942 2.44137Z" fill="#F8F8F8"/>
<path d="M52.8126 103.524L51.9339 97.2832C51.9326 97.2019 51.9093 97.1225 51.8665 97.0537C51.8237 96.9849 51.763 96.9293 51.691 96.8929C51.6191 96.8566 51.5387 96.8409 51.4585 96.8476C51.3783 96.8542 51.3015 96.883 51.2364 96.9308L44.8238 100.673C44.651 100.785 44.5123 100.943 44.423 101.13C44.3337 101.316 44.2975 101.524 44.3182 101.731L45.1934 107.986C45.1934 108.068 45.216 108.148 45.2585 108.218C45.3011 108.287 45.362 108.343 45.4344 108.38C45.5068 108.417 45.5878 108.432 45.6684 108.425C45.7491 108.417 45.8261 108.387 45.8908 108.338L52.3035 104.596C52.4795 104.484 52.6206 104.324 52.7107 104.134C52.8008 103.945 52.8361 103.733 52.8126 103.524Z" fill="#FF725E"/>
<path d="M62.7299 97.7448L61.8477 91.507C61.8477 91.4252 61.8252 91.345 61.7826 91.2754C61.7401 91.2059 61.6792 91.1496 61.6068 91.113C61.5344 91.0765 61.4533 91.061 61.3727 91.0683C61.2921 91.0757 61.2151 91.1055 61.1503 91.1546L54.7377 94.8937C54.5652 95.0058 54.4266 95.1638 54.3374 95.3503C54.2482 95.5369 54.2117 95.7448 54.232 95.951L55.1143 102.192C55.1143 102.274 55.1368 102.354 55.1794 102.424C55.2219 102.493 55.2828 102.55 55.3552 102.586C55.4276 102.623 55.5087 102.638 55.5893 102.631C55.6699 102.624 55.7469 102.594 55.8117 102.545L62.2243 98.802C62.3974 98.6906 62.5364 98.5327 62.6257 98.346C62.715 98.1592 62.7511 97.9511 62.7299 97.7448Z" fill="#EBEBEB"/>
<path d="M72.647 91.9651L71.7648 85.7274C71.7648 85.6456 71.7422 85.5654 71.6997 85.4958C71.6571 85.4262 71.5962 85.37 71.5238 85.3334C71.4514 85.2968 71.3704 85.2813 71.2898 85.2886C71.2091 85.296 71.1321 85.3259 71.0674 85.375L64.6512 89.1211C64.4787 89.2331 64.3402 89.3912 64.251 89.5777C64.1618 89.7643 64.1253 89.9722 64.1456 90.1784L65.0278 96.4196C65.0278 96.5014 65.0504 96.5816 65.0929 96.6512C65.1355 96.7208 65.1964 96.7771 65.2688 96.8136C65.3412 96.8502 65.4222 96.8657 65.5029 96.8584C65.5835 96.851 65.6605 96.8211 65.7252 96.772L72.1379 93.0294C72.3128 92.9179 72.4532 92.759 72.5431 92.5709C72.6331 92.3828 72.6691 92.1729 72.647 91.9651Z" fill="#EBEBEB"/>
<path d="M82.5746 86.1891L81.6924 79.9478C81.6924 79.866 81.6699 79.7858 81.6273 79.7163C81.5848 79.6467 81.5239 79.5904 81.4515 79.5538C81.3791 79.5172 81.298 79.5018 81.2174 79.5091C81.1368 79.5165 81.0598 79.5463 80.995 79.5954L74.5545 83.3451C74.3814 83.4565 74.2424 83.6145 74.1531 83.8012C74.0638 83.9879 74.0277 84.1961 74.0488 84.4024L74.9311 90.6401C74.9311 90.7219 74.9536 90.8021 74.9962 90.8717C75.0387 90.9413 75.0996 90.9975 75.172 91.0341C75.2444 91.0707 75.3255 91.0862 75.4061 91.0788C75.4867 91.0715 75.5637 91.0416 75.6285 90.9925L82.0411 87.2534C82.2199 87.1445 82.3648 86.9869 82.4591 86.7987C82.5535 86.6105 82.5935 86.3992 82.5746 86.1891Z" fill="#EBEBEB"/>
<path d="M92.4813 80.4095L91.5991 74.1541C91.5991 74.0723 91.5765 73.9921 91.534 73.9225C91.4914 73.853 91.4305 73.7967 91.3581 73.7601C91.2857 73.7235 91.2047 73.7081 91.1241 73.7154C91.0434 73.7228 90.9664 73.7526 90.9017 73.8017L84.489 77.5444C84.316 77.6558 84.177 77.8137 84.0877 78.0004C83.9984 78.1872 83.9623 78.3953 83.9834 78.6016L84.8656 84.8393C84.8656 84.9211 84.8882 85.0013 84.9307 85.0709C84.9733 85.1405 85.0342 85.1968 85.1066 85.2333C85.179 85.2699 85.26 85.2854 85.3407 85.2781C85.4213 85.2707 85.4983 85.2408 85.563 85.1918L91.9896 81.4597C92.1584 81.3465 92.2935 81.1888 92.3801 81.0037C92.4668 80.8187 92.5018 80.6132 92.4813 80.4095Z" fill="#EBEBEB"/>
<path d="M102.398 74.63L101.516 68.3888C101.516 68.307 101.494 68.2268 101.451 68.1572C101.408 68.0876 101.348 68.0313 101.275 67.9948C101.203 67.9582 101.122 67.9427 101.041 67.95C100.96 67.9574 100.883 67.9873 100.819 68.0363L94.406 71.779C94.2329 71.8904 94.094 72.0483 94.0047 72.2351C93.9154 72.4218 93.8793 72.6299 93.9004 72.8362L94.7791 79.0881C94.7791 79.1699 94.8017 79.2501 94.8442 79.3197C94.8868 79.3892 94.9477 79.4455 95.0201 79.4821C95.0925 79.5187 95.1735 79.5341 95.2542 79.5268C95.3348 79.5194 95.4118 79.4896 95.4765 79.4405L101.889 75.6978C102.064 75.5857 102.205 75.4263 102.295 75.2375C102.385 75.0488 102.421 74.8383 102.398 74.63Z" fill="#EBEBEB"/>
<path d="M112.316 68.8679L111.433 62.6267C111.433 62.5449 111.411 62.4647 111.368 62.3951C111.326 62.3255 111.265 62.2693 111.192 62.2327C111.12 62.1961 111.039 62.1806 110.958 62.1879C110.878 62.1953 110.801 62.2252 110.736 62.2743L104.323 66.0169C104.151 66.1286 104.012 66.2866 103.923 66.4732C103.833 66.6599 103.797 66.8679 103.818 67.0741L104.696 73.3154C104.698 73.3967 104.721 73.476 104.764 73.5449C104.807 73.6137 104.867 73.6693 104.939 73.7056C105.011 73.742 105.092 73.7577 105.172 73.751C105.252 73.7443 105.329 73.7156 105.394 73.6678L111.806 69.9252C111.98 69.8139 112.119 69.6561 112.209 69.4695C112.299 69.2828 112.336 69.0745 112.316 68.8679Z" fill="#EBEBEB"/>
<path d="M51.09 91.3132L50.2078 85.0789C50.2065 84.9977 50.1832 84.9183 50.1404 84.8495C50.0976 84.7807 50.0369 84.7251 49.965 84.6887C49.893 84.6524 49.8126 84.6367 49.7324 84.6433C49.6523 84.65 49.5755 84.6788 49.5104 84.7265L43.0977 88.4692C42.9249 88.5809 42.7862 88.7389 42.6969 88.9255C42.6077 89.1122 42.5714 89.3202 42.5921 89.5264L43.4708 95.7677C43.4721 95.8489 43.4954 95.9283 43.5382 95.9971C43.581 96.0659 43.6417 96.1215 43.7137 96.1579C43.7856 96.1942 43.866 96.2099 43.9462 96.2033C44.0263 96.1966 44.1031 96.1678 44.1682 96.1201L50.5809 92.3774C50.7543 92.2644 50.8936 92.1053 50.9834 91.9176C51.0732 91.7298 51.1101 91.5207 51.09 91.3132Z" fill="#FF725E"/>
<path d="M61.0075 85.5337L60.1253 79.2924C60.124 79.2112 60.1007 79.1318 60.0579 79.063C60.0151 78.9942 59.9544 78.9386 59.8824 78.9022C59.8105 78.8659 59.7301 78.8502 59.6499 78.8568C59.5697 78.8635 59.4929 78.8923 59.4278 78.94L53.0152 82.6827C52.8424 82.7944 52.7037 82.9524 52.6144 83.139C52.5251 83.3257 52.4889 83.5337 52.5096 83.7399L53.3883 89.9812C53.3896 90.0625 53.4129 90.1418 53.4557 90.2106C53.4985 90.2794 53.5592 90.335 53.6311 90.3714C53.7031 90.4077 53.7835 90.4234 53.8637 90.4168C53.9438 90.4101 54.0206 90.3813 54.0857 90.3336L60.4984 86.591C60.6707 86.4785 60.8092 86.3205 60.899 86.1342C60.9887 85.9478 61.0262 85.7401 61.0075 85.5337Z" fill="#EBEBEB"/>
<path d="M70.9245 79.754L70.0422 73.5128C70.041 73.4315 70.0177 73.3521 69.9749 73.2833C69.932 73.2145 69.8714 73.1589 69.7994 73.1226C69.7275 73.0862 69.6471 73.0705 69.5669 73.0772C69.4867 73.0838 69.4099 73.1126 69.3448 73.1604L62.9322 76.903C62.7594 77.0147 62.6207 77.1727 62.5314 77.3593C62.4421 77.546 62.4058 77.754 62.4266 77.9602L63.3053 84.2015C63.3066 84.2828 63.3299 84.3621 63.3727 84.431C63.4155 84.4998 63.4762 84.5554 63.5481 84.5917C63.6201 84.6281 63.7005 84.6438 63.7807 84.6371C63.8608 84.6304 63.9376 84.6017 64.0027 84.5539L70.4154 80.8113C70.5877 80.6989 70.7262 80.5409 70.816 80.3545C70.9057 80.1681 70.9432 79.9605 70.9245 79.754Z" fill="#EBEBEB"/>
<path d="M80.8309 73.9745L79.9487 67.7332C79.9474 67.652 79.9241 67.5726 79.8813 67.5038C79.8385 67.435 79.7778 67.3794 79.7058 67.343C79.6339 67.3067 79.5535 67.291 79.4733 67.2976C79.3931 67.3043 79.3163 67.3331 79.2512 67.3808L72.8456 71.1305C72.6731 71.2425 72.5346 71.4005 72.4453 71.5871C72.3561 71.7737 72.3196 71.9816 72.34 72.1878L73.2187 78.429C73.2199 78.5103 73.2432 78.5897 73.2861 78.6585C73.3289 78.7273 73.3896 78.7829 73.4615 78.8192C73.5334 78.8556 73.6139 78.8713 73.694 78.8646C73.7742 78.858 73.851 78.8292 73.9161 78.7814L80.3287 75.0388C80.5012 74.9252 80.6393 74.7658 80.7279 74.578C80.8164 74.3902 80.8521 74.1814 80.8309 73.9745Z" fill="#EBEBEB"/>
<path d="M90.7588 68.1948L89.8766 61.9571C89.8766 61.8753 89.8541 61.7951 89.8115 61.7255C89.7689 61.6559 89.7081 61.5997 89.6356 61.5631C89.5632 61.5265 89.4822 61.511 89.4016 61.5184C89.3209 61.5257 89.2439 61.5556 89.1792 61.6047L82.7631 65.3438C82.5905 65.4558 82.452 65.6138 82.3628 65.8004C82.2736 65.987 82.2371 66.1949 82.2574 66.4011L83.1362 72.6423C83.1374 72.7236 83.1607 72.803 83.2035 72.8718C83.2464 72.9406 83.3071 72.9962 83.379 73.0325C83.4509 73.0689 83.5314 73.0846 83.6115 73.0779C83.6917 73.0713 83.7685 73.0425 83.8336 72.9947L90.2462 69.245C90.4183 69.1339 90.5571 68.9773 90.6474 68.7922C90.7378 68.6071 90.7763 68.4005 90.7588 68.1948Z" fill="#EBEBEB"/>
<path d="M100.676 62.4153L99.7934 56.1811C99.7934 56.0993 99.7708 56.0191 99.7283 55.9495C99.6857 55.8799 99.6248 55.8237 99.5524 55.7871C99.48 55.7505 99.399 55.735 99.3183 55.7424C99.2377 55.7497 99.1607 55.7796 99.096 55.8287L92.6868 59.5749C92.5137 59.6863 92.3748 59.8442 92.2855 60.0309C92.1962 60.2177 92.16 60.4258 92.1812 60.6321L93.0599 66.8698C93.0612 66.9511 93.0845 67.0305 93.1273 67.0993C93.1701 67.1681 93.2308 67.2237 93.3027 67.2601C93.3747 67.2964 93.4551 67.3121 93.5353 67.3054C93.6154 67.2988 93.6922 67.27 93.7573 67.2223L100.17 63.4796C100.343 63.3665 100.482 63.2072 100.571 63.0194C100.66 62.8316 100.696 62.6226 100.676 62.4153Z" fill="#EBEBEB"/>
<path d="M110.593 56.6393L109.71 50.398C109.71 50.3162 109.688 50.236 109.645 50.1664C109.603 50.0969 109.542 50.0406 109.469 50.004C109.397 49.9674 109.316 49.952 109.235 49.9593C109.155 49.9666 109.078 49.9965 109.013 50.0456L102.597 53.7883C102.425 53.9004 102.287 54.0586 102.198 54.2452C102.109 54.4318 102.074 54.6396 102.095 54.8455L102.973 61.0832C102.975 61.1645 102.998 61.2439 103.041 61.3127C103.084 61.3815 103.144 61.4371 103.216 61.4735C103.288 61.5098 103.369 61.5255 103.449 61.5188C103.529 61.5122 103.606 61.4834 103.671 61.4357L110.084 57.6965C110.256 57.5838 110.394 57.4258 110.484 57.2395C110.573 57.0532 110.611 56.8457 110.593 56.6393Z" fill="#EBEBEB"/>
<path d="M49.3639 79.0879L48.4852 72.8466C48.4839 72.7654 48.4606 72.686 48.4178 72.6172C48.375 72.5484 48.3143 72.4928 48.2423 72.4564C48.1704 72.4201 48.09 72.4044 48.0098 72.411C47.9297 72.4177 47.8529 72.4465 47.7878 72.4942L41.3681 76.2686C41.1962 76.3812 41.0581 76.5393 40.969 76.7257C40.8798 76.9121 40.843 77.1197 40.8625 77.3258L41.7447 83.5636C41.7447 83.6454 41.7673 83.7256 41.8098 83.7952C41.8524 83.8648 41.9133 83.921 41.9857 83.9576C42.0581 83.9942 42.1391 84.0096 42.2198 84.0023C42.3004 83.995 42.3774 83.9651 42.4421 83.916L48.8583 80.1451C49.0308 80.0331 49.1693 79.8751 49.2585 79.6885C49.3478 79.502 49.3842 79.2941 49.3639 79.0879Z" fill="#FF725E"/>
<path d="M59.2812 73.3225L58.4025 67.0813C58.4013 67 58.378 66.9206 58.3351 66.8518C58.2923 66.783 58.2316 66.7274 58.1597 66.691C58.0878 66.6547 58.0073 66.639 57.9272 66.6457C57.847 66.6523 57.7702 66.6811 57.7051 66.7289L51.2925 70.4715C51.1205 70.5841 50.9824 70.7422 50.8933 70.9286C50.8041 71.115 50.7673 71.3226 50.7868 71.5287L51.6691 77.77C51.6703 77.8513 51.6936 77.9306 51.7364 77.9994C51.7793 78.0682 51.8399 78.1239 51.9119 78.1602C51.9838 78.1966 52.0642 78.2123 52.1444 78.2056C52.2246 78.1989 52.3014 78.1702 52.3665 78.1224L58.7791 74.3798C58.9513 74.2676 59.0893 74.1094 59.1779 73.9228C59.2666 73.7362 59.3023 73.5284 59.2812 73.3225Z" fill="#EBEBEB"/>
<path d="M69.1981 67.5429L68.3193 61.3016C68.3181 61.2203 68.2948 61.141 68.2519 61.0722C68.2091 61.0033 68.1484 60.9477 68.0765 60.9114C68.0046 60.875 67.9241 60.8593 67.844 60.866C67.7638 60.8727 67.687 60.9014 67.6219 60.9492L61.2093 64.6918C61.0376 64.8047 60.8997 64.9629 60.8106 65.1492C60.7215 65.3356 60.6845 65.543 60.7036 65.7491L61.5859 71.9903C61.5871 72.0716 61.6104 72.151 61.6532 72.2198C61.6961 72.2886 61.7567 72.3442 61.8287 72.3806C61.9006 72.4169 61.9811 72.4326 62.0612 72.4259C62.1414 72.4193 62.2182 72.3905 62.2833 72.3427L68.6959 68.6001C68.8681 68.4879 69.0061 68.3298 69.0947 68.1432C69.1834 67.9565 69.2191 67.7488 69.1981 67.5429Z" fill="#EBEBEB"/>
<path d="M79.1155 61.7633L78.2368 55.5221C78.2355 55.4408 78.2122 55.3614 78.1694 55.2926C78.1266 55.2238 78.0659 55.1682 77.994 55.1318C77.922 55.0955 77.8416 55.0798 77.7614 55.0865C77.6813 55.0931 77.6045 55.1219 77.5394 55.1697L71.1267 58.9123C70.9551 59.0252 70.8172 59.1833 70.7281 59.3697C70.639 59.556 70.602 59.7635 70.6211 59.9695L71.5033 66.2108C71.5046 66.2921 71.5279 66.3714 71.5707 66.4402C71.6135 66.509 71.6742 66.5647 71.7462 66.601C71.8181 66.6374 71.8985 66.6531 71.9787 66.6464C72.0588 66.6397 72.1357 66.611 72.2007 66.5632L78.6134 62.8206C78.7856 62.7084 78.9236 62.5502 79.0122 62.3636C79.1009 62.177 79.1366 61.9692 79.1155 61.7633Z" fill="#EBEBEB"/>
<path d="M89.0325 55.9837L88.1538 49.7424C88.1525 49.6611 88.1292 49.5818 88.0864 49.5129C88.0436 49.4441 87.9829 49.3885 87.911 49.3522C87.839 49.3158 87.7586 49.3001 87.6784 49.3068C87.5983 49.3135 87.5215 49.3422 87.4564 49.39L81.0437 53.1326C80.8721 53.2455 80.7342 53.4037 80.6451 53.59C80.556 53.7764 80.519 53.9838 80.5381 54.1899L81.4203 60.4311C81.4216 60.5124 81.4449 60.5918 81.4877 60.6606C81.5305 60.7294 81.5912 60.785 81.6632 60.8213C81.7351 60.8577 81.8155 60.8734 81.8957 60.8667C81.9758 60.8601 82.0527 60.8313 82.1177 60.7835L88.5304 57.0409C88.7025 56.9287 88.8406 56.7706 88.9292 56.584C89.0178 56.3973 89.0536 56.1896 89.0325 55.9837Z" fill="#EBEBEB"/>
<path d="M98.9633 50.1901L98.0846 43.9488C98.0833 43.8675 98.06 43.7882 98.0172 43.7194C97.9744 43.6506 97.9137 43.5949 97.8418 43.5586C97.7698 43.5222 97.6894 43.5065 97.6092 43.5132C97.5291 43.5199 97.4523 43.5487 97.3872 43.5964L90.9432 47.3708C90.7715 47.4836 90.6336 47.6418 90.5445 47.8281C90.4554 48.0145 90.4184 48.2219 90.4375 48.428L91.3197 54.6693C91.321 54.7505 91.3443 54.8299 91.3871 54.8987C91.4299 54.9675 91.4906 55.0231 91.5626 55.0595C91.6345 55.0958 91.7149 55.1115 91.7951 55.1049C91.8753 55.0982 91.9521 55.0694 92.0172 55.0217L98.4438 51.2473C98.6194 51.1377 98.7612 50.9806 98.853 50.7937C98.9448 50.6069 98.983 50.3978 98.9633 50.1901Z" fill="#EBEBEB"/>
<path d="M108.867 44.4246L107.988 38.1869C107.987 38.1056 107.963 38.0262 107.921 37.9574C107.878 37.8886 107.817 37.833 107.745 37.7966C107.673 37.7603 107.593 37.7446 107.513 37.7513C107.432 37.7579 107.356 37.7867 107.291 37.8344L100.878 41.5736C100.706 41.6861 100.568 41.8443 100.479 42.0307C100.39 42.2171 100.353 42.4247 100.372 42.6308L101.255 48.8721C101.256 48.9533 101.279 49.0327 101.322 49.1015C101.365 49.1703 101.425 49.2259 101.497 49.2623C101.569 49.2986 101.65 49.3143 101.73 49.3077C101.81 49.301 101.887 49.2722 101.952 49.2245L108.379 45.4748C108.547 45.3617 108.682 45.204 108.768 45.0188C108.854 44.8336 108.888 44.628 108.867 44.4246Z" fill="#EBEBEB"/>
<path d="M47.6416 66.8874L46.7593 60.6496C46.7593 60.5678 46.7368 60.4876 46.6942 60.418C46.6517 60.3484 46.5908 60.2922 46.5184 60.2556C46.446 60.219 46.3649 60.2035 46.2843 60.2109C46.2037 60.2182 46.1267 60.2481 46.0619 60.2972L39.6493 64.0363C39.4768 64.1483 39.3383 64.3064 39.249 64.4929C39.1598 64.6795 39.1233 64.8874 39.1437 65.0936L40.0329 71.3348C40.0329 71.4166 40.0554 71.4968 40.098 71.5664C40.1405 71.636 40.2014 71.6922 40.2738 71.7288C40.3462 71.7654 40.4273 71.7809 40.5079 71.7736C40.5885 71.7662 40.6655 71.7363 40.7303 71.6872L47.1429 67.9446C47.3147 67.8323 47.4523 67.674 47.5403 67.4873C47.6283 67.3007 47.6634 67.093 47.6416 66.8874Z" fill="#FF725E"/>
<path d="M57.5585 61.1149L56.6762 54.8772C56.6762 54.7954 56.6537 54.7152 56.6111 54.6456C56.5686 54.576 56.5077 54.5197 56.4353 54.4831C56.3629 54.4466 56.2818 54.4311 56.2012 54.4384C56.1206 54.4458 56.0436 54.4757 55.9788 54.5247L49.5662 58.2674C49.3931 58.3788 49.2541 58.5367 49.1648 58.7235C49.0755 58.9102 49.0394 59.1183 49.0606 59.3246L49.9428 65.5624C49.9428 65.6442 49.9653 65.7244 50.0079 65.794C50.0504 65.8635 50.1113 65.9198 50.1837 65.9564C50.2561 65.993 50.3372 66.0084 50.4178 66.0011C50.4984 65.9938 50.5754 65.9639 50.6402 65.9148L57.0528 62.1721C57.2259 62.0607 57.3649 61.9028 57.4542 61.7161C57.5435 61.5293 57.5796 61.3212 57.5585 61.1149Z" fill="#EBEBEB"/>
<path d="M67.4754 55.3318L66.5932 49.0905C66.5932 49.0087 66.5707 48.9285 66.5281 48.8589C66.4856 48.7894 66.4247 48.7331 66.3523 48.6965C66.2799 48.6599 66.1988 48.6445 66.1182 48.6518C66.0376 48.6592 65.9606 48.689 65.8958 48.7381L59.4832 52.4808C59.3101 52.5922 59.1711 52.7501 59.0818 52.9368C58.9925 53.1236 58.9564 53.3317 58.9776 53.538L59.8598 59.7757C59.8598 59.8575 59.8823 59.9377 59.9249 60.0073C59.9674 60.0769 60.0283 60.1332 60.1007 60.1698C60.1731 60.2063 60.2542 60.2218 60.3348 60.2145C60.4154 60.2071 60.4924 60.1772 60.5572 60.1282L66.9698 56.389C67.1423 56.277 67.2809 56.119 67.3701 55.9324C67.4593 55.7459 67.4958 55.538 67.4754 55.3318Z" fill="#EBEBEB"/>
<path d="M77.3929 49.5523L76.5107 43.311C76.5107 43.2292 76.4882 43.149 76.4456 43.0794C76.4031 43.0098 76.3422 42.9536 76.2698 42.917C76.1974 42.8804 76.1163 42.8649 76.0357 42.8723C75.9551 42.8796 75.8781 42.9095 75.8133 42.9586L69.4007 46.7012C69.2276 46.8127 69.0886 46.9706 68.9993 47.1573C68.91 47.344 68.8739 47.5522 68.895 47.7585L69.7738 53.9997C69.775 54.081 69.7983 54.1604 69.8411 54.2292C69.884 54.298 69.9447 54.3536 70.0166 54.3899C70.0885 54.4263 70.169 54.442 70.2491 54.4353C70.3293 54.4287 70.4061 54.3999 70.4712 54.3521L76.8838 50.6095C77.057 50.4979 77.1962 50.3401 77.286 50.1535C77.3759 49.9669 77.4129 49.7588 77.3929 49.5523Z" fill="#EBEBEB"/>
<path d="M87.3099 43.7726L86.4277 37.5313C86.4277 37.4495 86.4052 37.3693 86.3626 37.2997C86.3201 37.2302 86.2592 37.1739 86.1868 37.1373C86.1144 37.1007 86.0333 37.0853 85.9527 37.0926C85.8721 37.0999 85.7951 37.1298 85.7303 37.1789L79.3177 40.9216C79.1446 41.033 79.0056 41.1909 78.9163 41.3776C78.827 41.5644 78.7909 41.7725 78.812 41.9788L79.6908 48.2201C79.692 48.3013 79.7153 48.3807 79.7581 48.4495C79.801 48.5183 79.8616 48.5739 79.9336 48.6103C80.0055 48.6466 80.086 48.6623 80.1661 48.6557C80.2463 48.649 80.3231 48.6202 80.3882 48.5725L86.8008 44.8298C86.9742 44.7186 87.1137 44.5608 87.2036 44.3741C87.2935 44.1874 87.3303 43.9792 87.3099 43.7726Z" fill="#EBEBEB"/>
<path d="M97.2199 37.9929L96.3377 31.7517C96.3377 31.6699 96.3151 31.5897 96.2726 31.5201C96.23 31.4505 96.1691 31.3943 96.0967 31.3577C96.0243 31.3211 95.9433 31.3056 95.8626 31.3129C95.782 31.3203 95.705 31.3502 95.6403 31.3993L89.2276 35.1419C89.0548 35.2536 88.9161 35.4116 88.8268 35.5982C88.7375 35.7849 88.7013 35.9929 88.722 36.1991L89.6042 42.4369C89.6055 42.5182 89.6288 42.5975 89.6716 42.6663C89.7144 42.7351 89.7751 42.7907 89.847 42.8271C89.919 42.8635 89.9994 42.8792 90.0795 42.8725C90.1597 42.8658 90.2365 42.837 90.3016 42.7893L96.7143 39.0467C96.8865 38.9352 97.0249 38.7778 97.1141 38.5918C97.2033 38.4059 97.2399 38.1986 97.2199 37.9929Z" fill="#EBEBEB"/>
<path d="M107.144 32.2169L106.262 25.9757C106.262 25.8939 106.239 25.8137 106.197 25.7441C106.154 25.6745 106.093 25.6182 106.021 25.5817C105.949 25.5451 105.868 25.5296 105.787 25.5369C105.706 25.5443 105.629 25.5742 105.565 25.6233L99.1519 29.3659C98.9791 29.4776 98.8404 29.6356 98.7511 29.8222C98.6619 30.0089 98.6256 30.2169 98.6463 30.4231L99.525 36.6644C99.5263 36.7457 99.5496 36.825 99.5924 36.8938C99.6352 36.9627 99.6959 37.0183 99.7679 37.0546C99.8398 37.091 99.9202 37.1067 100 37.1C100.081 37.0933 100.157 37.0646 100.222 37.0168L106.635 33.2742C106.809 33.1629 106.948 33.0051 107.038 32.8184C107.128 32.6318 107.165 32.4235 107.144 32.2169Z" fill="#EBEBEB"/>
<path d="M46.1175 55.8568L45.8944 54.2639C45.8944 54.1821 45.8718 54.1019 45.8293 54.0323C45.7867 53.9627 45.7258 53.9065 45.6534 53.8699C45.581 53.8333 45.5 53.8178 45.4193 53.8251C45.3387 53.8325 45.2617 53.8624 45.197 53.9115L38.7808 57.6612C38.608 57.7729 38.4693 57.9308 38.38 58.1175C38.2908 58.3041 38.2545 58.5122 38.2752 58.7184L38.4949 60.3113C38.4961 60.3926 38.5195 60.472 38.5623 60.5408C38.6051 60.6096 38.6658 60.6652 38.7377 60.7015C38.8096 60.7379 38.8901 60.7536 38.9702 60.7469C39.0504 60.7403 39.1272 60.7115 39.1923 60.6637L45.6119 56.907C45.7827 56.795 45.9201 56.638 46.0092 56.4529C46.0983 56.2679 46.1357 56.0618 46.1175 55.8568Z" fill="#E6E6E6"/>
<path d="M56.0345 50.0771L55.8114 48.4842C55.8114 48.4024 55.7888 48.3222 55.7463 48.2526C55.7037 48.183 55.6428 48.1268 55.5704 48.0902C55.498 48.0536 55.417 48.0381 55.3363 48.0455C55.2557 48.0528 55.1787 48.0827 55.114 48.1318L48.6978 51.8815C48.525 51.9932 48.3863 52.1512 48.297 52.3378C48.2078 52.5245 48.1715 52.7325 48.1922 52.9387L48.4119 54.5316C48.4131 54.6129 48.4364 54.6923 48.4793 54.7611C48.5221 54.8299 48.5828 54.8855 48.6547 54.9219C48.7266 54.9582 48.8071 54.9739 48.8872 54.9673C48.9674 54.9606 49.0442 54.9318 49.1093 54.8841L55.5254 51.1414C55.6991 51.0287 55.8386 50.8697 55.9285 50.6818C56.0183 50.494 56.055 50.2847 56.0345 50.0771Z" fill="#E6E6E6"/>
<path d="M65.952 44.2976L65.7288 42.7047C65.7276 42.6234 65.7043 42.544 65.6615 42.4752C65.6186 42.4064 65.558 42.3508 65.486 42.3145C65.4141 42.2781 65.3337 42.2624 65.2535 42.2691C65.1733 42.2757 65.0965 42.3045 65.0314 42.3523L58.6153 46.1019C58.4425 46.2137 58.3038 46.3716 58.2145 46.5583C58.1252 46.7449 58.089 46.9529 58.1097 47.1592L58.3294 48.7521C58.3294 48.8339 58.3519 48.9141 58.3945 48.9837C58.437 49.0533 58.4979 49.1095 58.5703 49.1461C58.6427 49.1827 58.7238 49.1982 58.8044 49.1908C58.885 49.1835 58.962 49.1536 59.0268 49.1045L65.4429 45.3619C65.6166 45.2492 65.7561 45.0901 65.846 44.9023C65.9358 44.7145 65.9725 44.5052 65.952 44.2976Z" fill="#E6E6E6"/>
<path d="M75.869 38.5216L75.6458 36.9251C75.6446 36.8439 75.6213 36.7645 75.5785 36.6957C75.5356 36.6269 75.475 36.5713 75.403 36.5349C75.3311 36.4986 75.2506 36.4829 75.1705 36.4895C75.0903 36.4962 75.0135 36.525 74.9484 36.5727L68.5323 40.3224C68.3595 40.4341 68.2208 40.5921 68.1315 40.7787C68.0422 40.9654 68.0059 41.1734 68.0267 41.3797L68.2464 42.9726C68.2464 43.0544 68.2689 43.1346 68.3114 43.2042C68.354 43.2738 68.4149 43.33 68.4873 43.3666C68.5597 43.4032 68.6408 43.4187 68.7214 43.4113C68.802 43.404 68.879 43.3741 68.9438 43.325L75.3599 39.5859C75.533 39.4726 75.6721 39.3134 75.7619 39.1258C75.8516 38.9381 75.8887 38.7291 75.869 38.5216Z" fill="#E6E6E6"/>
<path d="M85.7863 32.742L85.5631 31.1456C85.5619 31.0643 85.5386 30.985 85.4957 30.9161C85.4529 30.8473 85.3922 30.7917 85.3203 30.7554C85.2484 30.719 85.1679 30.7033 85.0878 30.71C85.0076 30.7167 84.9308 30.7454 84.8657 30.7932L78.4496 34.5429C78.2771 34.6549 78.1386 34.8129 78.0493 34.9995C77.9601 35.186 77.9236 35.3939 77.944 35.6001L78.1636 37.193C78.1636 37.2748 78.1862 37.355 78.2287 37.4246C78.2713 37.4942 78.3322 37.5505 78.4046 37.587C78.477 37.6236 78.558 37.6391 78.6387 37.6318C78.7193 37.6244 78.7963 37.5945 78.861 37.5454L85.2772 33.8063C85.4503 33.693 85.5894 33.5339 85.6792 33.3462C85.7689 33.1585 85.806 32.9495 85.7863 32.742Z" fill="#E6E6E6"/>
<path d="M95.7033 26.9624L95.4801 25.3695C95.4801 25.2877 95.4576 25.2075 95.415 25.1379C95.3724 25.0683 95.3116 25.012 95.2392 24.9755C95.1668 24.9389 95.0857 24.9234 95.0051 24.9307C94.9245 24.9381 94.8475 24.968 94.7827 25.0171L88.3666 28.7632C88.1941 28.8752 88.0555 29.0332 87.9663 29.2198C87.8771 29.4064 87.8406 29.6143 87.8609 29.8205L88.0806 31.4169C88.0819 31.4982 88.1052 31.5775 88.148 31.6464C88.1908 31.7152 88.2515 31.7708 88.3235 31.8071C88.3954 31.8435 88.4758 31.8592 88.556 31.8525C88.6361 31.8458 88.7129 31.8171 88.778 31.7693L95.1942 28.0267C95.3676 27.9137 95.5069 27.7546 95.5967 27.5668C95.6865 27.3791 95.7234 27.1699 95.7033 26.9624Z" fill="#E6E6E6"/>
<path d="M105.617 21.1828L105.397 19.5899C105.397 19.5081 105.374 19.4279 105.332 19.3583C105.289 19.2887 105.228 19.2325 105.156 19.1959C105.084 19.1593 105.003 19.1438 104.922 19.1512C104.841 19.1585 104.764 19.1884 104.7 19.2375L98.2869 22.9802C98.1138 23.0916 97.9749 23.2495 97.8856 23.4362C97.7963 23.6229 97.7601 23.8311 97.7813 24.0374L98.0009 25.6303C98.0022 25.7116 98.0255 25.791 98.0683 25.8598C98.1111 25.9286 98.1718 25.9842 98.2438 26.0205C98.3157 26.0569 98.3961 26.0726 98.4763 26.0659C98.5565 26.0592 98.6333 26.0305 98.6984 25.9827L105.115 22.2401C105.286 22.1276 105.424 21.9694 105.513 21.7829C105.601 21.5963 105.637 21.3887 105.617 21.1828Z" fill="#E6E6E6"/>
<path opacity="0.2" d="M38.6377 46.4472C38.6062 45.9816 38.7013 45.5161 38.9127 45.1011C39.1242 44.6862 39.4439 44.3376 39.8373 44.0931C40.6184 43.6385 41.3472 43.9521 41.4692 44.7979C41.5016 45.2641 41.4065 45.7303 41.1943 46.1455C40.9821 46.5607 40.661 46.9089 40.2662 47.1521C39.4886 47.6067 38.7598 47.293 38.6377 46.4472Z" fill="black"/>
<path opacity="0.2" d="M48.5653 40.6748C48.5329 40.2091 48.6277 39.7433 48.8392 39.3282C49.0507 38.9131 49.3709 38.5646 49.7648 38.3207C50.5459 37.8626 51.2747 38.1762 51.3967 39.0255C51.4288 39.4912 51.3336 39.9568 51.1214 40.3713C50.9092 40.7859 50.5883 41.1335 50.1937 41.3761C49.4126 41.8167 48.6838 41.503 48.5653 40.6748Z" fill="black"/>
<path opacity="0.2" d="M58.472 34.8777C58.4397 34.412 58.5344 33.9462 58.7459 33.5311C58.9575 33.116 59.2776 32.7675 59.6715 32.5236C60.4526 32.0655 61.1849 32.3791 61.3035 33.2284C61.3355 33.6937 61.2406 34.1589 61.0291 34.5733C60.8176 34.9878 60.4976 35.3357 60.1039 35.579C59.3228 36.0336 58.5906 35.72 58.472 34.8777Z" fill="black"/>
<path opacity="0.2" d="M78.2996 23.3079C78.2673 22.8422 78.3621 22.3764 78.5736 21.9613C78.7851 21.5462 79.1053 21.1977 79.4992 20.9538C80.2803 20.4992 81.0091 20.8129 81.1276 21.6586C81.1615 22.1246 81.0675 22.591 80.8558 23.0064C80.6441 23.4218 80.3231 23.77 79.9281 24.0128C79.147 24.4639 78.4182 24.1537 78.2996 23.3079Z" fill="black"/>
<path opacity="0.2" d="M88.2238 17.5213C88.1906 17.0554 88.2851 16.5893 88.4966 16.1741C88.7082 15.7588 89.0288 15.4105 89.4233 15.1671C90.2044 14.709 90.9332 15.0227 91.0552 15.872C91.0876 16.3381 90.9925 16.8043 90.7803 17.2195C90.5681 17.6347 90.247 17.9829 89.8522 18.2261C89.0711 18.6772 88.3423 18.3635 88.2238 17.5213Z" fill="black"/>
<path opacity="0.2" d="M98.1302 11.7381C98.0979 11.2723 98.1926 10.8065 98.4042 10.3914C98.6157 9.97634 98.9358 9.62786 99.3297 9.38394C100.111 8.9258 100.843 9.23945 100.962 10.0888C100.994 10.554 100.899 11.0192 100.687 11.4337C100.476 11.8482 100.156 12.196 99.7621 12.4394C98.9636 12.894 98.2662 12.5803 98.1302 11.7381Z" fill="black"/>
<path d="M37.6128 36.9253C36.5666 36.3086 35.5415 36.2205 34.7604 36.6751C33.9793 37.1297 33.5469 38.0601 33.5469 39.297C33.5537 39.8756 33.6381 40.4506 33.7979 41.0063L34.4186 40.6538C34.3072 40.2126 34.2487 39.7594 34.2443 39.3041C34.2443 38.3314 34.5511 37.616 35.1091 37.2918C35.338 37.1626 35.5966 37.097 35.8588 37.1015C36.3533 37.1253 36.8336 37.277 37.2536 37.542C39.1087 38.6275 40.6186 41.2706 40.6186 43.4344C40.6196 43.5886 40.6115 43.7428 40.5942 43.896C40.5856 44.2029 40.5054 44.5034 40.3599 44.7729C40.2144 45.0424 40.0079 45.2733 39.7573 45.4467C39.4376 45.6212 39.0688 45.6808 38.7112 45.6158C38.6408 45.8436 38.6112 46.0823 38.624 46.3207C38.7543 46.3416 38.8861 46.3522 39.018 46.3524C39.4021 46.3572 39.7803 46.2574 40.113 46.0634C40.4243 45.8661 40.6882 45.6011 40.8854 45.2878C41.0826 44.9744 41.2083 44.6206 41.2532 44.252C41.3002 43.9844 41.3235 43.7132 41.323 43.4414C41.3264 41.0274 39.6596 38.12 37.6128 36.9253Z" fill="#F5F5F5"/>
<path d="M47.5371 31.1386C46.491 30.5218 45.4658 30.4337 44.6847 30.8883C43.9036 31.343 43.4712 32.2733 43.4712 33.5103C43.478 34.0889 43.5625 34.6639 43.7223 35.2195L44.3429 34.8671C44.2315 34.4259 44.173 33.9727 44.1686 33.5173C44.1686 32.5447 44.4755 31.8293 45.0334 31.5051C45.2623 31.3759 45.521 31.3102 45.7831 31.3148C46.2777 31.3386 46.7579 31.4903 47.1779 31.7553C49.033 32.8407 50.5429 35.4838 50.5429 37.6476C50.5439 37.8019 50.5358 37.9561 50.5185 38.1093C50.5099 38.4162 50.4297 38.7166 50.2842 38.9861C50.1388 39.2556 49.9323 39.4865 49.6816 39.6599C49.3619 39.8344 48.9931 39.8941 48.6355 39.8291C48.5651 40.0569 48.5356 40.2956 48.5483 40.5339C48.6786 40.5548 48.8104 40.5654 48.9423 40.5656C49.3264 40.5705 49.7046 40.4706 50.0373 40.2767C50.3486 40.0793 50.6125 39.8144 50.8097 39.501C51.007 39.1877 51.1326 38.8338 51.1775 38.4652C51.2245 38.1977 51.2479 37.9264 51.2473 37.6547C51.2508 35.2512 49.584 32.3332 47.5371 31.1386Z" fill="#F5F5F5"/>
<path d="M57.4433 25.3553C56.3972 24.7386 55.372 24.6505 54.5909 25.1051C53.8098 25.5598 53.3774 26.4901 53.3774 27.7271C53.3842 28.3057 53.4687 28.8807 53.6285 29.4363L54.2492 29.0839C54.1378 28.6427 54.0792 28.1895 54.0748 27.7341C54.0748 26.7615 54.3817 26.0461 54.9396 25.7219C55.1685 25.5927 55.4272 25.527 55.6893 25.5316C56.1839 25.5554 56.6642 25.7071 57.0842 25.9721C58.9393 27.0575 60.4491 29.7006 60.4491 31.8644C60.4502 32.0187 60.442 32.1728 60.4247 32.3261C60.4162 32.633 60.3359 32.9334 60.1905 33.2029C60.045 33.4724 59.8385 33.7033 59.5878 33.8767C59.2682 34.0512 58.8993 34.1109 58.5417 34.0459C58.4713 34.2737 58.4418 34.5124 58.4546 34.7507C58.5849 34.7716 58.7166 34.7822 58.8486 34.7824C59.2326 34.7873 59.6109 34.6874 59.9435 34.4935C60.2548 34.2961 60.5187 34.0312 60.716 33.7178C60.9132 33.4045 61.0389 33.0506 61.0838 32.682C61.1308 32.4145 61.1541 32.1432 61.1535 31.8715C61.157 29.468 59.4902 26.55 57.4433 25.3553Z" fill="#F5F5F5"/>
<path d="M77.2744 13.8032C76.2283 13.1865 75.2031 13.0984 74.422 13.553C73.6409 14.0076 73.2085 14.938 73.2085 16.175C73.2153 16.7536 73.2998 17.3285 73.4596 17.8842L74.0803 17.5318C73.9688 17.0905 73.9103 16.6374 73.9059 16.182C73.9059 15.2094 74.2128 14.494 74.7707 14.1697C74.9996 14.0405 75.2583 13.9749 75.5204 13.9794C76.015 14.0033 76.4952 14.155 76.9152 14.42C78.7703 15.5054 80.2802 18.1485 80.2802 20.3123C80.2812 20.4666 80.2731 20.6207 80.2558 20.774C80.2472 21.0808 80.167 21.3813 80.0215 21.6508C79.8761 21.9203 79.6696 22.1512 79.4189 22.3246C79.0992 22.4991 78.7304 22.5587 78.3728 22.4938C78.3024 22.7216 78.2729 22.9603 78.2856 23.1986C78.4159 23.2195 78.5477 23.2301 78.6796 23.2303C79.0637 23.2351 79.4419 23.1353 79.7746 22.9413C80.0859 22.744 80.3498 22.479 80.547 22.1657C80.7443 21.8524 80.8699 21.4985 80.9148 21.1299C80.9618 20.8624 80.9852 20.5911 80.9846 20.3194C80.9881 17.9159 79.3213 14.9979 77.2744 13.8032Z" fill="#F5F5F5"/>
<path d="M87.1982 8.01319C86.1521 7.39646 85.1269 7.30836 84.3458 7.76297C83.5647 8.21759 83.1323 9.14796 83.1323 10.3849C83.1391 10.9635 83.2236 11.5385 83.3834 12.0941L84.0041 11.7417C83.8926 11.3005 83.8341 10.8473 83.8297 10.392C83.8297 9.41932 84.1366 8.70392 84.6945 8.3797C84.9234 8.25051 85.1821 8.18485 85.4442 8.18939C85.9388 8.21324 86.419 8.36491 86.839 8.62991C88.6941 9.71535 90.204 12.3585 90.204 14.5223C90.2051 14.6765 90.1969 14.8307 90.1796 14.9839C90.1711 15.2908 90.0908 15.5913 89.9453 15.8608C89.7999 16.1303 89.5934 16.3612 89.3427 16.5346C89.023 16.7091 88.6542 16.7687 88.2966 16.7037C88.2262 16.9315 88.1967 17.1702 88.2094 17.4086C88.3398 17.4295 88.4715 17.4401 88.6035 17.4403C88.9875 17.4451 89.3657 17.3453 89.6984 17.1513C90.0097 16.954 90.2736 16.689 90.4708 16.3757C90.6681 16.0623 90.7938 15.7085 90.8387 15.3399C90.8857 15.0723 90.909 14.8011 90.9084 14.5293C90.9119 12.1294 89.2451 9.20787 87.1982 8.01319Z" fill="#F5F5F5"/>
<path d="M97.105 2.22998C96.0589 1.61326 95.0337 1.52516 94.2526 1.97977C93.4715 2.43438 93.0356 3.36476 93.0356 4.60173C93.0425 5.18032 93.1269 5.7553 93.2867 6.31094L93.9074 5.95852C93.796 5.5173 93.7374 5.06413 93.7331 4.60878C93.7331 3.63612 94.0399 2.92072 94.5978 2.59649C94.8267 2.46731 95.0854 2.40165 95.3475 2.40619C95.8421 2.43003 96.3224 2.58171 96.7424 2.84671C98.5975 3.93214 100.107 6.57525 100.107 8.73907C100.108 8.89332 100.1 9.04748 100.083 9.20074C100.074 9.5076 99.9941 9.80807 99.8487 10.0776C99.7032 10.3471 99.4967 10.578 99.246 10.7514C98.9264 10.9259 98.5575 10.9855 98.1999 10.9205C98.1295 11.1483 98.1 11.387 98.1128 11.6253C98.2431 11.6463 98.3748 11.6569 98.5068 11.6571C98.8908 11.6619 99.2691 11.5621 99.6017 11.3681C99.913 11.1708 100.177 10.9058 100.374 10.5925C100.571 10.2791 100.697 9.92527 100.742 9.55667C100.789 9.28911 100.812 9.01786 100.812 8.74612C100.819 6.34266 99.1519 3.42467 97.105 2.22998Z" fill="#F5F5F5"/>
<path d="M107.409 93.8893L105.065 98.002C104.911 98.259 104.865 98.5674 104.936 98.8591C105.007 99.1509 105.189 99.4023 105.444 99.5579C105.698 99.7135 106.003 99.7607 106.292 99.689C106.581 99.6173 106.829 99.4326 106.983 99.1755L109.34 95.0382C109.567 94.6435 109.323 94.0691 108.793 93.7589C108.263 93.4488 107.635 93.5052 107.409 93.8893Z" fill="#455A64"/>
<path d="M126.057 86.6472L130.127 89.0154C130.252 89.0937 130.391 89.146 130.536 89.1693C130.682 89.1926 130.83 89.1865 130.973 89.1513C131.116 89.1161 131.25 89.0525 131.369 88.9642C131.487 88.8759 131.587 88.7647 131.662 88.637C131.738 88.5094 131.787 88.3678 131.808 88.2206C131.829 88.0734 131.82 87.9235 131.783 87.7797C131.746 87.6358 131.681 87.5008 131.592 87.3826C131.503 87.2644 131.391 87.1654 131.263 87.0912L127.17 84.7265C126.779 84.4975 126.211 84.7441 125.904 85.2798C125.597 85.8155 125.667 86.4181 126.057 86.6472Z" fill="#455A64"/>
<path d="M130.566 68.1067H130.545L120.632 62.3236H120.604C118.428 61.0725 115.429 61.2664 112.12 63.1905C105.47 67.0671 100.079 76.5083 100.079 84.2684C100.079 88.145 101.422 90.8551 103.587 92.1308H103.604L113.518 97.9174H113.543C115.718 99.1756 118.721 98.9747 122.033 97.054C128.68 93.1775 134.071 83.7363 134.071 75.9796C134.071 72.1031 132.732 69.3825 130.566 68.1067Z" fill="#FF725E"/>
<path opacity="0.1" d="M113.357 97.8011L103.594 92.1131H103.573C101.407 90.8339 100.068 88.1132 100.068 84.2508C100.068 80.7901 101.142 76.9981 102.917 73.5162L112.831 79.2994C111.052 82.7812 109.982 86.5732 109.982 90.0339C109.989 93.8047 111.272 96.4901 113.357 97.8011Z" fill="black"/>
<path opacity="0.4" d="M130.546 87.9609C135.248 79.7302 135.248 70.834 130.547 68.0907C125.845 65.3473 118.222 69.7957 113.52 78.0263C108.818 86.2569 108.818 95.1531 113.519 97.8965C118.221 100.64 125.844 96.1915 130.546 87.9609Z" fill="#F8F8F8"/>
<path d="M116.653 96.2399C112.845 96.2399 112.434 91.8911 112.434 90.0198C112.434 83.1759 117.389 74.5136 123.243 71.081C124.736 70.2106 126.172 69.7524 127.4 69.7524C131.208 69.7524 131.619 74.1012 131.619 75.9726C131.619 82.8164 126.664 91.4788 120.809 94.9113C119.314 95.7818 117.877 96.2399 116.653 96.2399Z" fill="#FAFAFA"/>
<path d="M119.362 90.9255C119.344 90.9288 119.325 90.9288 119.307 90.9255C119.263 90.9095 119.227 90.877 119.207 90.8349C119.187 90.7928 119.184 90.7443 119.199 90.6999L121.866 82.9997C121.881 82.9553 121.913 82.9188 121.955 82.8983C121.997 82.8778 122.045 82.875 122.089 82.8904C122.133 82.9059 122.169 82.9383 122.19 82.9806C122.21 83.0229 122.213 83.0716 122.197 83.116L119.537 90.8057C119.525 90.8425 119.502 90.8743 119.47 90.896C119.438 90.9177 119.401 90.9281 119.362 90.9255Z" fill="#FF725E"/>
<path d="M126.029 85.322C125.959 85.3233 125.888 85.3089 125.824 85.2797L121.51 83.3943V75.4861C121.51 75.3459 121.565 75.2115 121.663 75.1123C121.762 75.0132 121.895 74.9575 122.033 74.9575C122.172 74.9575 122.305 75.0132 122.403 75.1123C122.501 75.2115 122.556 75.3459 122.556 75.4861V82.7001L126.239 84.3106C126.348 84.3598 126.437 84.4452 126.491 84.5527C126.546 84.6603 126.562 84.7834 126.538 84.9016C126.513 85.0198 126.449 85.126 126.357 85.2025C126.265 85.279 126.149 85.3212 126.029 85.322Z" fill="#37474F"/>
<path d="M122.033 81.3433C122.815 80.8852 123.449 81.2552 123.449 82.168C123.42 82.6623 123.277 83.1429 123.031 83.5713C122.785 83.9997 122.444 84.3639 122.033 84.6349C121.249 85.093 120.614 84.723 120.614 83.8067C120.644 83.3127 120.788 82.8326 121.035 82.4048C121.281 81.9771 121.623 81.6135 122.033 81.3433Z" fill="#FF725E"/>
<path d="M110.512 75.6695C108.804 78.6544 105.585 80.0077 103.165 78.5945C101.746 77.765 100.71 76.3995 100.287 74.7985C99.8634 73.1974 100.087 71.492 100.907 70.0573C101.728 68.6226 103.079 67.5762 104.663 67.1482C106.248 66.7203 107.935 66.9459 109.355 67.7754C111.768 69.2203 112.214 72.681 110.512 75.6695Z" fill="#455A64"/>
<path d="M103.165 78.5945C105.585 80.0042 108.803 78.6544 110.512 75.6695C110.894 75.0004 111.177 74.2785 111.352 73.5268C111.255 73.6572 108.409 77.3223 104.873 76.2898C101.275 75.2325 100.598 72.4379 100.909 70.0555C100.502 70.7659 100.238 71.5503 100.131 72.3639C100.024 73.1775 100.077 74.0044 100.286 74.7974C100.496 75.5904 100.858 76.3338 101.352 76.9854C101.846 77.6369 102.462 78.1837 103.165 78.5945Z" fill="#37474F"/>
<path d="M102.171 69.4494L100.337 68.3922C100.212 68.3139 100.073 68.2616 99.9274 68.2383C99.7821 68.2149 99.6337 68.221 99.4908 68.2563C99.3479 68.2915 99.2133 68.3551 99.0949 68.4434C98.9765 68.5317 98.8767 68.6429 98.8013 68.7705C98.7259 68.8982 98.6764 69.0397 98.6556 69.1869C98.6349 69.3341 98.6433 69.484 98.6804 69.6279C98.7176 69.7718 98.7826 69.9067 98.8719 70.0249C98.9612 70.1431 99.0728 70.2422 99.2003 70.3163L101.055 71.4018C101.449 71.6308 102.018 71.3842 102.325 70.8485C102.632 70.3128 102.562 69.6785 102.171 69.4494Z" fill="#FF725E"/>
<path d="M129.53 60.5087L130.576 58.6585C130.654 58.5321 130.706 58.3914 130.729 58.2446C130.752 58.0977 130.746 57.9477 130.711 57.8032C130.676 57.6588 130.613 57.5228 130.526 57.4032C130.438 57.2835 130.328 57.1827 130.202 57.1065C130.076 57.0302 129.936 56.9802 129.79 56.9592C129.644 56.9382 129.496 56.9468 129.354 56.9843C129.211 57.0218 129.078 57.0876 128.961 57.1778C128.844 57.268 128.746 57.3808 128.672 57.5097L127.598 59.3845C127.372 59.7792 127.598 60.3537 128.146 60.6638C128.693 60.9739 129.3 60.9069 129.53 60.5087Z" fill="#FF725E"/>
<path d="M120.67 61.2734C121.076 60.5618 121.617 59.9381 122.262 59.4379C122.907 58.9377 123.643 58.5708 124.429 58.3581C125.214 58.1454 126.033 58.0911 126.839 58.1982C127.645 58.3054 128.422 58.572 129.126 58.9827C129.83 59.3934 130.447 59.9403 130.942 60.592C131.437 61.2438 131.8 61.9877 132.011 62.7813C132.221 63.5749 132.275 64.4026 132.169 65.2171C132.063 66.0317 131.799 66.8172 131.393 67.5287L120.67 61.2734Z" fill="#455A64"/>
<path d="M130.033 59.6487C130.381 60.3852 131.33 63.5041 130.033 64.2794C128.735 65.0547 122.745 62.4821 122.745 62.4821L131.392 67.5287C132.113 66.2616 132.371 64.7796 132.123 63.3401C131.874 61.9006 131.135 60.5945 130.033 59.6487Z" fill="#37474F"/>
<path d="M90.8978 77.5056C84.7258 69.1217 82.6963 68.1878 81.5352 67.9023L83.5716 73.541L87.8048 79.0281" fill="#FFA8A7"/>
<path d="M80.9316 67.8106C80.9316 67.8106 82.2428 67.4088 84.1397 69.2872C86.0366 71.1656 88.3241 73.9038 88.3241 73.9038C88.3241 73.9038 87.7069 76.1417 85.7786 76.8359L82.989 73.9038L80.9316 67.8106Z" fill="#FF725E"/>
<path opacity="0.1" d="M80.9316 67.8106C80.9316 67.8106 82.2428 67.4088 84.1397 69.2872C86.0366 71.1656 88.3241 73.9038 88.3241 73.9038C88.3241 73.9038 87.7069 76.1417 85.7786 76.8359L82.989 73.9038L80.9316 67.8106Z" fill="black"/>
<path d="M82.1339 63.1717C84.0382 62.7174 85.2176 60.789 84.7681 58.8644C84.3186 56.9398 82.4105 55.7479 80.5062 56.2021C78.6019 56.6564 77.4225 58.5848 77.8719 60.5094C78.3214 62.434 80.2295 63.6259 82.1339 63.1717Z" fill="#263238"/>
<path d="M72.8382 124.592H75.335V120.275H72.8382V124.592Z" fill="#FFA8A7"/>
<path d="M80.9775 121.455L83.4708 121.543L83.5963 116.972L81.0996 116.884L80.9775 121.455Z" fill="#FFA8A7"/>
<path d="M72.9988 86.0445V103.493C72.9395 104.197 72.4339 105.385 72.3014 108.335C72.134 111.954 72.6814 121.913 72.6814 121.913C72.6814 121.913 73.8496 123.087 75.5024 121.913C75.5024 121.913 77.7167 107.697 78.1665 104.113C78.5571 100.983 79.2126 92.4831 79.2126 92.4831L80.7051 105.286C80.7051 105.286 80.2971 107.637 80.2099 109.293C80.1228 110.95 80.9283 119.806 80.9283 119.806C81.3328 120.061 81.7964 120.205 82.273 120.223C82.7496 120.241 83.2225 120.132 83.6447 119.908C83.6447 119.908 85.3533 106.64 85.6113 105.142C85.8694 103.644 84.6733 86.041 84.6733 86.041L72.9988 86.0445Z" fill="#37474F"/>
<path d="M75.3981 68.6178C75.0486 68.6668 74.7042 68.7482 74.3694 68.861C73.672 69.1323 73.3687 69.9852 73.2048 70.7358C73.0676 71.3654 72.9986 72.0082 72.999 72.6529V86.0447C74.7425 87.9689 80.8518 88.864 84.6736 86.0447C84.6736 86.0447 84.6004 74.2177 84.3249 72.2723C83.8263 68.8962 82.2327 67.6909 80.6217 67.8178L76.7685 68.3746L75.3981 68.6178Z" fill="#FF725E"/>
<path d="M75.1958 62.2284C75.1958 62.2284 75.7712 64.9526 76.0013 65.4001C76.1533 65.6748 76.4024 65.8812 76.6987 65.9781L76.6569 64.0574L75.1958 62.2284Z" fill="#263238"/>
<path d="M75.9179 58.3201C75.7169 58.297 75.5133 58.3201 75.3225 58.3879C75.1316 58.4556 74.9585 58.5662 74.816 58.7113C74.3452 59.2011 74.6102 60.7306 75.196 62.2354L76.2805 62.3588L75.9179 58.3201Z" fill="#263238"/>
<path d="M76.6046 62.3519C76.3849 62.4858 76.0781 62.0629 75.8096 61.781C75.541 61.499 74.6693 61.1114 74.2334 62.0382C73.7975 62.9651 74.617 64.2338 75.3039 64.4523C76.4895 64.8258 76.6674 64.0576 76.6674 64.0576L76.758 68.3782C77.0197 68.9576 77.4194 69.4624 77.9215 69.8474C78.4235 70.2324 79.0122 70.4856 79.6348 70.5843C81.727 70.8697 81.3016 69.1218 80.6112 68.2619V66.9474C81.139 67.0331 81.6744 67.0615 82.2083 67.0319C83.08 66.8945 83.6275 66.2002 83.8925 65.2487C84.3179 63.7157 84.4783 62.4823 84.1191 59.4691C83.7216 56.1705 79.9347 56.1353 77.8739 57.4392C75.813 58.7432 76.6046 62.3519 76.6046 62.3519Z" fill="#FFA8A7"/>
<path d="M76.6043 62.7219C76.4927 62.7219 76.0778 62.0171 75.8093 61.781C75.4362 61.4286 75.9174 58.3203 75.9174 58.3203C75.8175 58.0519 75.7973 57.7599 75.8592 57.4801C75.9212 57.2002 76.0626 56.9448 76.2661 56.745C76.7752 56.1741 77.633 56.1142 79.0941 55.8816C79.8612 55.7582 81.0259 55.5292 81.793 55.3988C82.7066 55.2261 83.4633 55.0463 84.1084 55.6102C84.3628 55.8311 84.5428 56.1266 84.6234 56.4557C84.704 56.7847 84.6813 57.1309 84.5582 57.4463C84.4917 57.5907 84.4035 57.7238 84.2967 57.841C84.1119 58.0489 84.0805 58.3308 83.819 58.4154C83.819 58.4154 83.2645 58.9229 81.8767 59.0921C80.5987 59.1887 79.3144 59.1639 78.041 59.0181C77.6365 58.9617 77.5284 59.0921 77.3122 60.1669C77.1274 61.1149 76.9705 62.7149 76.6043 62.7219Z" fill="#263238"/>
<path d="M75.921 58.5633L74.6099 57.8585C74.6513 57.7692 74.7104 57.6893 74.7834 57.6238C74.8564 57.5583 74.9418 57.5086 75.0345 57.4776C75.1272 57.4466 75.2251 57.435 75.3224 57.4435C75.4197 57.4521 75.5142 57.4806 75.6002 57.5272C75.774 57.6263 75.9039 57.7886 75.9635 57.9811C76.0231 58.1736 76.0079 58.3818 75.921 58.5633Z" fill="#263238"/>
<path d="M80.6077 66.9472C80.6077 66.9472 78.6654 66.5525 77.9854 66.186C77.5853 65.9765 77.2571 65.6498 77.0439 65.2485C77.1475 65.6495 77.3289 66.0256 77.5775 66.3551C78.0761 66.9965 80.6077 67.4723 80.6077 67.4723V66.9472Z" fill="#F28F8F"/>
<path d="M80.2662 62.2214C80.2635 62.2988 80.2383 62.3737 80.1937 62.4367C80.1492 62.4998 80.0873 62.5482 80.0157 62.5759C79.9441 62.6036 79.8661 62.6094 79.7913 62.5927C79.7165 62.5759 79.6482 62.5372 79.5949 62.4815C79.5417 62.4258 79.5059 62.3554 79.4919 62.2793C79.4779 62.2031 79.4864 62.1245 79.5164 62.0532C79.5463 61.9819 79.5963 61.9211 79.6602 61.8783C79.7241 61.8355 79.799 61.8127 79.8757 61.8126C79.928 61.8131 79.9797 61.8241 80.0278 61.8449C80.0759 61.8658 80.1194 61.8962 80.1558 61.9342C80.1921 61.9723 80.2206 62.0173 80.2396 62.0666C80.2585 62.1159 80.2676 62.1685 80.2662 62.2214Z" fill="#263238"/>
<path d="M79.8512 60.738L79.0177 61.2003C78.9594 61.0845 78.9471 60.9504 78.9834 60.8257C79.0197 60.701 79.1019 60.5951 79.213 60.5298C79.2681 60.4996 79.3287 60.4811 79.3911 60.4753C79.4535 60.4694 79.5164 60.4765 79.5761 60.4959C79.6357 60.5154 79.6908 60.5469 79.7381 60.5885C79.7854 60.6301 79.8238 60.681 79.8512 60.738Z" fill="#263238"/>
<path d="M80.4333 64.5824L81.3225 64.9353C81.3034 64.9957 81.2723 65.0515 81.2313 65.0994C81.1902 65.1473 81.1399 65.1863 81.0835 65.214C81.0272 65.2417 80.9658 65.2576 80.9032 65.2606C80.8406 65.2637 80.778 65.2538 80.7193 65.2317C80.658 65.2087 80.6018 65.1734 80.5541 65.1281C80.5064 65.0828 80.4681 65.0283 80.4415 64.9679C80.4149 64.9074 80.4004 64.8422 80.399 64.776C80.3976 64.7098 80.4093 64.644 80.4333 64.5824Z" fill="#F28F8F"/>
<path d="M83.7392 61.0654L82.979 60.4734C83.0147 60.4211 83.0605 60.3768 83.1137 60.3432C83.1669 60.3095 83.2264 60.2872 83.2884 60.2777C83.3505 60.2681 83.4138 60.2715 83.4746 60.2875C83.5353 60.3036 83.5921 60.3321 83.6415 60.3712C83.7431 60.452 83.8099 60.5692 83.8281 60.6985C83.8463 60.8278 83.8144 60.9592 83.7392 61.0654Z" fill="#263238"/>
<path d="M83.5053 62.1122C83.5062 62.1647 83.4968 62.217 83.4776 62.2659C83.4585 62.3148 83.4299 62.3594 83.3936 62.3971C83.3573 62.4347 83.3139 62.4648 83.2661 62.4854C83.2182 62.5061 83.1668 62.517 83.1147 62.5174C83.034 62.5202 82.9544 62.4986 82.886 62.4553C82.8176 62.4119 82.7635 62.3489 82.7309 62.2743C82.6982 62.1997 82.6884 62.1169 82.7027 62.0366C82.7169 61.9563 82.7547 61.8821 82.811 61.8237C82.8673 61.7652 82.9397 61.7251 83.0187 61.7086C83.0978 61.692 83.1799 61.6998 83.2546 61.7308C83.3293 61.7618 83.3931 61.8147 83.4377 61.8827C83.4824 61.9506 83.5059 62.0306 83.5053 62.1122Z" fill="#263238"/>
<path d="M81.3955 61.3756L81.5245 63.7438L82.7485 63.3245L81.3955 61.3756Z" fill="#F28F8F"/>
<path d="M75.3317 123.348V122.995C75.5723 123.097 76.1268 125.24 77.1171 126.167C77.9051 126.893 78.9791 127.728 79.2511 128.539C79.5231 129.349 77.7552 129.846 77.0194 129.712C76.1651 129.561 74.6831 128.951 74.3135 128.387C73.9439 127.823 73.766 126.978 73.4627 126.579C73.1593 126.181 72.4654 125.705 72.3015 125.226C72.2519 124.779 72.3008 124.327 72.4444 123.901C72.5595 123.457 72.6851 122.967 72.835 123.009C72.835 123.062 72.835 123.284 72.835 123.284C73.1917 123.564 73.6316 123.715 74.0834 123.711C74.4495 123.704 75.3352 123.63 75.3317 123.348Z" fill="#263238"/>
<path d="M83.4948 120.764C83.6273 120.764 83.732 120.955 84.0179 121.268C84.4458 121.701 84.9419 122.058 85.4859 122.326C86.4205 122.801 88.2372 123.527 89.0601 123.901C89.5727 124.137 89.5483 124.764 89.0183 125.12C88.4883 125.476 87.205 125.733 85.6672 125.385C84.8269 125.198 83.7354 124.412 83.045 124.454C82.3546 124.497 81.0609 124.489 80.5518 124.134C80.0427 123.778 80.2449 123.02 80.3879 122.371C80.5448 121.667 80.7715 120.571 81.0051 120.609V120.835C81.3085 121.293 82.8358 121.48 83.4948 121.145V120.764Z" fill="#263238"/>
<path d="M79.2129 92.4797C80.5073 92.0758 81.6978 91.3888 82.6999 90.4674C82.6999 90.4674 82.0304 91.7361 80.0358 92.9167L80.0777 99.7923L79.2129 92.4797Z" fill="#263238"/>
<path d="M74.4809 92.3738C74.0694 92.0214 73.8114 91.5668 73.1907 91.1052C72.7411 90.8243 72.3644 90.4389 72.0923 89.981C71.7436 89.3889 71.3949 87.4154 71.2903 85.5405C71.2279 83.4468 71.5192 81.3576 72.1516 79.3627C72.9989 76.998 74.718 73.8263 75.2899 72.4871C75.8618 71.1479 75.5549 70.4748 75.0423 69.7947C74.4425 68.9982 73.3302 68.9947 72.2806 70.8096C70.8822 73.3325 69.7665 76.005 68.954 78.7777C68.4061 80.8521 68.2022 83.004 68.3507 85.1458C68.4658 87.1299 68.8947 88.6453 69.4456 90.5519C69.5991 91.0699 69.5816 91.4928 69.756 92.5183C69.8017 92.9467 69.9098 93.3659 70.0768 93.7624C70.3132 94.2386 70.6149 94.6787 70.973 95.0698C71.4266 95.5664 72.0032 95.9314 72.6432 96.1271C72.995 96.233 73.3666 96.2535 73.7277 96.187C74.0907 96.1208 74.4184 95.9258 74.6518 95.6372C74.7006 95.5797 74.7342 95.5106 74.7494 95.4363C74.7481 95.3047 74.6969 95.1786 74.6064 95.0839C74.1111 94.4974 73.6455 93.8857 73.2116 93.2514C72.8908 92.7051 72.7374 92.2716 72.8629 92.2963C72.9885 92.321 73.1524 92.6487 73.6196 92.9448C74.0869 93.2408 74.6657 93.2302 74.8017 92.9659C74.9377 92.7016 74.9028 92.7333 74.4809 92.3738Z" fill="#FFA8A7"/>
<path d="M74.6517 68.7798C73.6544 68.8397 72.7478 69.0652 71.7505 71.0634C70.7532 73.0616 69.1875 76.8043 69.1875 76.8043C69.5654 77.4878 70.1191 78.0553 70.79 78.4468C71.461 78.8383 72.2242 79.0391 72.9988 79.028C72.9988 79.028 75.2933 74.1858 75.6664 72.9101C76.0395 71.6343 76.2976 69.5727 74.6517 68.7798Z" fill="#FF725E"/>
<path opacity="0.1" d="M74.6517 68.7798C73.6544 68.8397 72.7478 69.0652 71.7505 71.0634C70.7532 73.0616 69.1875 76.8043 69.1875 76.8043C69.5654 77.4878 70.1191 78.0553 70.79 78.4468C71.461 78.8383 72.2242 79.0391 72.9988 79.028C72.9988 79.028 75.2933 74.1858 75.6664 72.9101C76.0395 71.6343 76.2976 69.5727 74.6517 68.7798Z" fill="black"/>
<path d="M87.8046 79.028C87.578 79.6976 85.4021 81.7381 83.8015 82.3865C83.4224 82.5187 83.0147 82.543 82.6229 82.457C82.2477 82.2979 81.8441 82.2187 81.4373 82.2244C80.97 82.2667 80.4958 82.3584 80.0251 82.4147C79.9271 82.4179 79.8308 82.4419 79.7426 82.4852C79.4567 82.6438 79.6206 82.887 79.8472 82.9751C80.2125 83.1082 80.5865 83.2153 80.9666 83.2958V83.398C79.9927 83.742 78.9765 83.9483 77.9468 84.0112C77.7638 84.013 77.5863 84.0748 77.4412 84.1874C77.382 84.2544 77.3405 84.3353 77.3204 84.4227C77.3003 84.5102 77.3023 84.6013 77.3261 84.6878C77.3749 84.8593 77.458 85.0188 77.5702 85.1565C77.9905 85.7993 78.6445 86.2488 79.3904 86.4076C80.1444 86.4657 80.9022 86.3699 81.6186 86.1257C81.965 86.027 82.3067 85.9177 82.6438 85.7979C83.6308 85.4307 84.5919 84.9962 85.5206 84.4975C87.5095 83.4426 89.3544 82.1312 91.0092 80.5963C92.0135 79.606 91.7659 78.6545 90.922 77.5056" fill="#FFA8A7"/>
<path d="M83.5684 82.4501C83.5684 82.4501 83.9171 82.3197 84.3146 82.9646C84.7121 83.6095 84.9632 84.7866 84.4645 85.0192C84.6362 85.0292 84.8076 84.9938 84.9617 84.9166C85.1157 84.8393 85.2472 84.7229 85.3433 84.5786C85.4456 84.1192 85.4175 83.6399 85.262 83.196C85.1065 82.752 84.8301 82.3615 84.4645 82.0695C84.1288 82.0767 83.8084 82.2127 83.5684 82.4501Z" fill="#37474F"/>
<path d="M85.4127 82.6861C85.4874 82.8136 85.5227 82.9607 85.5144 83.1087C85.5061 83.2566 85.4544 83.3987 85.366 83.5169C85.2776 83.6351 85.1564 83.724 85.0178 83.7724C84.8792 83.8208 84.7295 83.8265 84.5877 83.7887C84.446 83.7508 84.3185 83.6713 84.2216 83.5601C84.1247 83.4489 84.0627 83.3111 84.0435 83.1642C84.0243 83.0173 84.0487 82.8679 84.1137 82.7351C84.1787 82.6023 84.2813 82.492 84.4085 82.4182C84.5769 82.3195 84.7771 82.2923 84.9653 82.3425C85.1536 82.3927 85.3145 82.5162 85.4127 82.6861Z" fill="#FF725E"/>
<path d="M85.242 82.7848C85.2963 82.879 85.3217 82.9873 85.3149 83.0961C85.3082 83.2048 85.2696 83.3091 85.2041 83.3956C85.1386 83.4822 85.0491 83.5471 84.9471 83.5822C84.845 83.6172 84.7349 83.6209 84.6308 83.5926C84.5266 83.5643 84.4332 83.5054 84.3623 83.4233C84.2914 83.3412 84.2462 83.2397 84.2324 83.1316C84.2187 83.0235 84.2371 82.9138 84.2852 82.8163C84.3334 82.7188 84.4091 82.6379 84.5027 82.584C84.5643 82.548 84.6323 82.5247 84.7028 82.5153C84.7733 82.5059 84.845 82.5107 84.9136 82.5294C84.9823 82.548 85.0467 82.5802 85.103 82.624C85.1594 82.6679 85.2066 82.7225 85.242 82.7848Z" fill="#FAFAFA"/>
</svg>
