<svg width="150" height="114" viewBox="0 0 150 114" fill="none" xmlns="http://www.w3.org/2000/svg">
<path d="M150 100.264H0V100.339H150V100.264Z" fill="#EBEBEB"/>
<path d="M71.0999 86.7229H13.1729C12.7191 86.7221 12.2842 86.5391 11.9636 86.2141C11.643 85.8891 11.4629 85.4486 11.4629 84.9893V2.58097C11.4668 2.12435 11.6486 1.68775 11.9688 1.366C12.289 1.04425 12.7217 0.863331 13.1729 0.862549H71.0999C71.5542 0.862549 71.9899 1.0452 72.3112 1.37031C72.6324 1.69542 72.8129 2.13637 72.8129 2.59615V84.9893C72.8129 85.4491 72.6324 85.8901 72.3112 86.2152C71.9899 86.5403 71.5542 86.7229 71.0999 86.7229ZM13.1729 0.923271C12.739 0.924075 12.3231 1.09908 12.0166 1.40987C11.7101 1.72066 11.5379 2.14185 11.5379 2.58097V84.9893C11.5379 85.4285 11.7101 85.8497 12.0166 86.1604C12.3231 86.4712 12.739 86.6462 13.1729 86.647H71.0999C71.5341 86.6462 71.9502 86.4713 72.2573 86.1606C72.5643 85.8499 72.7371 85.4287 72.7379 84.9893V2.58097C72.7371 2.14157 72.5643 1.72039 72.2573 1.40969C71.9502 1.09898 71.5341 0.924073 71.0999 0.923271H13.1729Z" fill="#EBEBEB"/>
<path d="M135.993 86.7229H78.0631C77.609 86.7221 77.1738 86.5392 76.8527 86.2143C76.5316 85.8894 76.3509 85.4489 76.3501 84.9893V2.58097C76.3548 2.12408 76.5373 1.68748 76.858 1.36581C77.1786 1.04414 77.6116 0.863323 78.0631 0.862549H135.993C136.444 0.864129 136.876 1.0454 137.195 1.36706C137.515 1.68873 137.696 2.12488 137.7 2.58097V84.9893C137.7 85.4481 137.52 85.8881 137.2 86.213C136.881 86.538 136.446 86.7213 135.993 86.7229ZM78.0631 0.923271C77.6289 0.924073 77.2127 1.09898 76.9057 1.40969C76.5987 1.72039 76.4259 2.14157 76.4251 2.58097V84.9893C76.4259 85.4287 76.5987 85.8499 76.9057 86.1606C77.2127 86.4713 77.6289 86.6462 78.0631 86.647H135.993C136.427 86.6462 136.843 86.4713 137.15 86.1606C137.457 85.8499 137.63 85.4287 137.631 84.9893V2.58097C137.63 2.14157 137.457 1.72039 137.15 1.40969C136.843 1.09898 136.427 0.924073 135.993 0.923271H78.0631Z" fill="#EBEBEB"/>
<path d="M134.97 103.154H125.499V103.229H134.97V103.154Z" fill="#EBEBEB"/>
<path d="M100.602 102.331H90.5791V102.406H100.602V102.331Z" fill="#EBEBEB"/>
<path d="M137.706 105.975H118.977V106.05H137.706V105.975Z" fill="#EBEBEB"/>
<path d="M21.5068 105.465H15.7378V105.54H21.5068V105.465Z" fill="#EBEBEB"/>
<path d="M33.2672 105.465H24.1802V105.54H33.2672V105.465Z" fill="#EBEBEB"/>
<path d="M73.242 104.183H56.874V104.258H73.242V104.183Z" fill="#EBEBEB"/>
<path d="M44.7992 55.8339L130.575 55.8339V7.5055L44.7992 7.5055V55.8339Z" fill="#E0E0E0"/>
<path d="M40.0891 55.8339L130.143 55.8339V7.5055L40.0891 7.5055V55.8339Z" fill="#F5F5F5"/>
<path d="M128.67 54.3462V8.99622L41.5589 8.99622V54.3462L128.67 54.3462Z" fill="#F8F8F8"/>
<path d="M93.3991 54.3462L76.9531 8.99622H104.094L120.543 54.3462H93.3991Z" fill="#F5F5F5"/>
<path d="M67.2722 54.3462L50.8262 8.99622H71.3012L87.7472 54.3462H67.2722Z" fill="#F5F5F5"/>
<path d="M16.2508 39.5361H33.5098V16.0945L16.2508 16.0945L16.2508 39.5361Z" fill="#E6E6E6"/>
<path d="M15.048 39.5361H33.249V16.0945L15.048 16.0945L15.048 39.5361Z" fill="#F0F0F0"/>
<path d="M31.728 37.9907V17.6368H16.578V37.9907H31.728Z" fill="#F8F8F8"/>
<path d="M24.255 33.1968L27.036 30.3823C27.7056 29.6998 28.0814 28.7771 28.0814 27.8153C28.0814 26.8536 27.7056 25.9308 27.036 25.2483L24.255 22.4339C24.2275 22.4062 24.1903 22.3907 24.1515 22.3907C24.1128 22.3907 24.0756 22.4062 24.048 22.4339L21.267 25.2483C20.5975 25.9308 20.2217 26.8536 20.2217 27.8153C20.2217 28.7771 20.5975 29.6998 21.267 30.3823L24.048 33.1968C24.0756 33.2244 24.1128 33.2399 24.1515 33.2399C24.1903 33.2399 24.2275 33.2244 24.255 33.1968ZM24.15 22.7466L26.829 25.4548C27.4455 26.0808 27.7916 26.9285 27.7916 27.8123C27.7916 28.6961 27.4455 29.5438 26.829 30.1698L24.15 32.881L21.474 30.1698C20.8576 29.5438 20.5114 28.6961 20.5114 27.8123C20.5114 26.9285 20.8576 26.0808 21.474 25.4548L24.15 22.7466Z" fill="#F0F0F0"/>
<path d="M120.909 99.1588H124.968V65.2913H120.909V99.1588Z" fill="#F0F0F0"/>
<path d="M67.3558 100.264H124.404V99.1588H67.3558V100.264Z" fill="#F0F0F0"/>
<path d="M120.909 65.2913H66.7949V99.1588H120.909V65.2913Z" fill="#FAFAFA"/>
<path d="M113.856 85.0805H73.8512C72.8168 85.0805 71.8248 84.6646 71.0935 83.9244C70.3621 83.1842 69.9512 82.1803 69.9512 81.1336C69.9512 80.0868 70.3621 79.0828 71.0935 78.3427C71.8248 77.6025 72.8168 77.1866 73.8512 77.1866H113.856C114.891 77.1866 115.882 77.6025 116.614 78.3427C117.345 79.0828 117.756 80.0868 117.756 81.1336C117.756 82.1803 117.345 83.1842 116.614 83.9244C115.882 84.6646 114.891 85.0805 113.856 85.0805ZM73.8512 77.4477C73.3643 77.4336 72.8796 77.5184 72.4257 77.6972C71.9718 77.876 71.5579 78.1451 71.2086 78.4886C70.8593 78.8322 70.5816 79.2431 70.392 79.6971C70.2024 80.1512 70.1047 80.6391 70.1047 81.132C70.1047 81.625 70.2024 82.1129 70.392 82.5669C70.5816 83.021 70.8593 83.4319 71.2086 83.7754C71.5579 84.1189 71.9718 84.3881 72.4257 84.5668C72.8796 84.7456 73.3643 84.8305 73.8512 84.8163H113.856C114.343 84.8305 114.828 84.7456 115.282 84.5668C115.736 84.3881 116.149 84.1189 116.499 83.7754C116.848 83.4319 117.126 83.021 117.315 82.5669C117.505 82.1129 117.603 81.625 117.603 81.132C117.603 80.6391 117.505 80.1512 117.315 79.6971C117.126 79.2431 116.848 78.8322 116.499 78.4886C116.149 78.1451 115.736 77.876 115.282 77.6972C114.828 77.5184 114.343 77.4336 113.856 77.4477H73.8512Z" fill="#F0F0F0"/>
<path d="M113.856 94.9082H73.8512C72.8168 94.9082 71.8248 94.4924 71.0935 93.7522C70.3621 93.012 69.9512 92.0081 69.9512 90.9613C69.9512 89.9145 70.3621 88.9106 71.0935 88.1704C71.8248 87.4302 72.8168 87.0144 73.8512 87.0144H113.856C114.891 87.0144 115.882 87.4302 116.614 88.1704C117.345 88.9106 117.756 89.9145 117.756 90.9613C117.756 92.0081 117.345 93.012 116.614 93.7522C115.882 94.4924 114.891 94.9082 113.856 94.9082ZM73.8512 87.2725C73.3643 87.2583 72.8796 87.3432 72.4257 87.5219C71.9718 87.7007 71.5579 87.9698 71.2086 88.3134C70.8593 88.6569 70.5816 89.0678 70.392 89.5219C70.2024 89.9759 70.1047 90.4638 70.1047 90.9568C70.1047 91.4497 70.2024 91.9376 70.392 92.3916C70.5816 92.8457 70.8593 93.2566 71.2086 93.6001C71.5579 93.9437 71.9718 94.2128 72.4257 94.3916C72.8796 94.5704 73.3643 94.6552 73.8512 94.641H113.856C114.343 94.6552 114.828 94.5704 115.282 94.3916C115.736 94.2128 116.149 93.9437 116.499 93.6001C116.848 93.2566 117.126 92.8457 117.315 92.3916C117.505 91.9376 117.603 91.4497 117.603 90.9568C117.603 90.4638 117.505 89.9759 117.315 89.5219C117.126 89.0678 116.848 88.6569 116.499 88.3134C116.149 87.9698 115.736 87.7007 115.282 87.5219C114.828 87.3432 114.343 87.2583 113.856 87.2725H73.8512Z" fill="#F0F0F0"/>
<path d="M81.504 80.2804H106.2C106.415 80.2796 106.622 80.1927 106.774 80.0386C106.926 79.8844 107.012 79.6756 107.013 79.4577C107.013 79.2392 106.927 79.0296 106.775 78.8748C106.623 78.72 106.416 78.6326 106.2 78.6318H81.504C81.3968 78.6318 81.2907 78.6532 81.1917 78.6947C81.0927 78.7362 81.0028 78.797 80.927 78.8737C80.8512 78.9504 80.7911 79.0414 80.7501 79.1416C80.7091 79.2418 80.688 79.3492 80.688 79.4577C80.6888 79.6761 80.7751 79.8854 80.928 80.0396C81.081 80.1938 81.2881 80.2804 81.504 80.2804Z" fill="#EBEBEB"/>
<path d="M113.856 75.2466H73.8512C72.8168 75.2466 71.8248 74.8308 71.0935 74.0906C70.3621 73.3504 69.9512 72.3465 69.9512 71.2997C69.9512 70.2529 70.3621 69.249 71.0935 68.5088C71.8248 67.7686 72.8168 67.3528 73.8512 67.3528H113.856C114.891 67.3528 115.882 67.7686 116.614 68.5088C117.345 69.249 117.756 70.2529 117.756 71.2997C117.756 72.3465 117.345 73.3504 116.614 74.0906C115.882 74.8308 114.891 75.2466 113.856 75.2466ZM73.8512 67.623C73.3643 67.6089 72.8796 67.6937 72.4257 67.8725C71.9718 68.0513 71.5579 68.3204 71.2086 68.6639C70.8593 69.0074 70.5816 69.4183 70.392 69.8724C70.2024 70.3264 70.1047 70.8143 70.1047 71.3073C70.1047 71.8002 70.2024 72.2881 70.392 72.7422C70.5816 73.1962 70.8593 73.6072 71.2086 73.9507C71.5579 74.2942 71.9718 74.5633 72.4257 74.7421C72.8796 74.9209 73.3643 75.0057 73.8512 74.9916H113.856C114.343 75.0057 114.828 74.9209 115.282 74.7421C115.736 74.5633 116.149 74.2942 116.499 73.9507C116.848 73.6072 117.126 73.1962 117.315 72.7422C117.505 72.2881 117.603 71.8002 117.603 71.3073C117.603 70.8143 117.505 70.3264 117.315 69.8724C117.126 69.4183 116.848 69.0074 116.499 68.6639C116.149 68.3204 115.736 68.0513 115.282 67.8725C114.828 67.6937 114.343 67.6089 113.856 67.623H73.8512Z" fill="#F0F0F0"/>
<path d="M81.5042 70.4556H106.2C106.416 70.4548 106.623 70.3674 106.775 70.2126C106.928 70.0579 107.013 69.8483 107.013 69.6298C107.012 69.4118 106.926 69.203 106.774 69.0489C106.622 68.8947 106.416 68.8078 106.2 68.807H81.5042C81.2904 68.8102 81.0863 68.8982 80.936 69.052C80.7856 69.2059 80.701 69.4134 80.7002 69.6298C80.7002 69.8467 80.7845 70.0549 80.9349 70.2095C81.0854 70.364 81.2899 70.4524 81.5042 70.4556Z" fill="#EBEBEB"/>
<path d="M81.504 90.1051H106.2C106.415 90.1043 106.622 90.0174 106.774 89.8633C106.926 89.7091 107.012 89.5003 107.013 89.2824C107.012 89.0641 106.926 88.855 106.774 88.7004C106.622 88.5458 106.416 88.4581 106.2 88.4565H81.504C81.2878 88.4573 81.0807 88.5446 80.9279 88.6993C80.775 88.854 80.6888 89.0636 80.688 89.2824C80.6888 89.5009 80.7751 89.7101 80.928 89.8643C81.081 90.0185 81.2881 90.1051 81.504 90.1051Z" fill="#EBEBEB"/>
<path d="M66.0571 65.2913H120.912V63.5698L66.0571 63.5698V65.2913Z" fill="#F0F0F0"/>
<path d="M125.763 63.5698H120.909V65.2913H125.763V63.5698Z" fill="#E6E6E6"/>
<path d="M25.7158 86.3222H39.9478L41.3038 62.4708C41.3134 62.3331 41.2946 62.1948 41.2487 62.0649C41.2028 61.9349 41.1308 61.8159 41.0373 61.7155C40.9437 61.6151 40.8305 61.5354 40.705 61.4814C40.5794 61.4275 40.4442 61.4004 40.3078 61.402H28.1998C27.9149 61.4059 27.6418 61.5178 27.4346 61.7158C27.2273 61.9137 27.1011 62.1831 27.0808 62.4708L25.7158 86.3222Z" fill="#E6E6E6"/>
<path d="M24.2788 86.3222H38.5108L39.8668 62.4708C39.8764 62.3331 39.8576 62.1948 39.8117 62.0649C39.7658 61.9349 39.6938 61.8159 39.6002 61.7155C39.5067 61.6151 39.3935 61.5354 39.268 61.4814C39.1424 61.4275 39.0072 61.4004 38.8708 61.402H26.7538C26.4689 61.4059 26.1958 61.5178 25.9886 61.7158C25.7813 61.9137 25.6551 62.1831 25.6348 62.4708L24.2788 86.3222Z" fill="#F5F5F5"/>
<path d="M39.2822 86.3253H28.3172V83.35H38.2172C38.4968 83.3475 38.7659 83.4574 38.9655 83.6554C39.1652 83.8535 39.2791 84.1236 39.2822 84.4065V86.3101V86.3253Z" fill="#E6E6E6"/>
<path d="M31.5601 86.3253H16.8331V84.4065C16.8331 84.1231 16.9443 83.8512 17.1424 83.6508C17.3404 83.4504 17.609 83.3378 17.8891 83.3378H30.4891C30.629 83.3358 30.7679 83.362 30.8978 83.4148C31.0276 83.4676 31.1458 83.546 31.2455 83.6454C31.3451 83.7448 31.4243 83.8633 31.4783 83.994C31.5323 84.1247 31.5601 84.2649 31.5601 84.4065V86.3101V86.3253Z" fill="#F5F5F5"/>
<path d="M38.9732 100.264H39.9482V86.3253H38.9732V100.264Z" fill="#E6E6E6"/>
<path d="M31.8121 100.264H32.7871V86.3253H31.8121V100.264Z" fill="#E6E6E6"/>
<path d="M24.2188 100.264H25.1938V86.3253H24.2188V100.264Z" fill="#E6E6E6"/>
<path d="M17.0582 100.264H18.0332V86.3253H17.0582V100.264Z" fill="#E6E6E6"/>
<path d="M43.9321 86.3222H58.1641L59.5201 62.4708C59.5297 62.3331 59.5109 62.1948 59.465 62.0649C59.4192 61.9349 59.3471 61.8159 59.2536 61.7155C59.16 61.6151 59.0468 61.5354 58.9213 61.4814C58.7957 61.4275 58.6605 61.4004 58.5241 61.402H46.4071C46.1222 61.4059 45.8491 61.5178 45.6419 61.7158C45.4347 61.9137 45.3084 62.1831 45.2881 62.4708L43.9321 86.3222Z" fill="#E6E6E6"/>
<path d="M42.4951 86.3223H56.7271L58.0831 62.4708C58.0931 62.333 58.0747 62.1946 58.029 62.0644C57.9833 61.9342 57.9113 61.8151 57.8176 61.7145C57.7239 61.614 57.6106 61.5343 57.4848 61.4805C57.3591 61.4268 57.2236 61.4 57.0871 61.4021H44.9701C44.6855 61.406 44.4128 61.518 44.206 61.716C43.9993 61.914 43.8737 62.1834 43.8541 62.4708L42.4951 86.3223Z" fill="#F5F5F5"/>
<path d="M57.498 86.3253H46.533V83.35H56.433C56.7131 83.35 56.9817 83.4626 57.1798 83.663C57.3778 83.8634 57.489 84.1352 57.489 84.4187V86.3223L57.498 86.3253Z" fill="#E6E6E6"/>
<path d="M49.7759 86.3253H35.0489V84.4065C35.0489 84.1231 35.1601 83.8512 35.3582 83.6508C35.5562 83.4504 35.8248 83.3378 36.1049 83.3378H48.7049C48.9849 83.3378 49.2535 83.4504 49.4516 83.6508C49.6496 83.8512 49.7609 84.1231 49.7609 84.4065V86.3101L49.7759 86.3253Z" fill="#F5F5F5"/>
<path d="M57.1891 100.264H58.1641V86.3253H57.1891V100.264Z" fill="#E6E6E6"/>
<path d="M50.025 100.264H51V86.3253H50.025V100.264Z" fill="#E6E6E6"/>
<path d="M42.4352 100.264H43.4102V86.3253H42.4352V100.264Z" fill="#E6E6E6"/>
<path d="M35.274 100.264H36.249V86.3253H35.274V100.264Z" fill="#E6E6E6"/>
<path d="M75 113.975C107.125 113.975 133.167 112.436 133.167 110.538C133.167 108.64 107.125 107.101 75 107.101C42.8753 107.101 16.833 108.64 16.833 110.538C16.833 112.436 42.8753 113.975 75 113.975Z" fill="#F5F5F5"/>
<path d="M87.3868 27.5041C87.347 27.5066 87.3079 27.4929 87.2781 27.4661C87.2483 27.4394 87.2302 27.4017 87.2278 27.3615C87.2254 27.3212 87.2389 27.2816 87.2654 27.2514C87.2918 27.2213 87.329 27.203 87.3688 27.2005L92.4478 26.5599C92.4876 26.5551 92.5276 26.5665 92.5591 26.5915C92.5907 26.6166 92.611 26.6533 92.6158 26.6935C92.6206 26.7338 92.6094 26.7743 92.5846 26.8062C92.5598 26.8381 92.5236 26.8587 92.4838 26.8635L87.4078 27.5041H87.3868Z" fill="#FF725E"/>
<path d="M92.4476 28.5121H92.4236L87.3806 27.6407C87.3609 27.6374 87.342 27.6301 87.3251 27.6193C87.3082 27.6086 87.2935 27.5945 87.282 27.578C87.2704 27.5615 87.2622 27.5429 87.2577 27.5232C87.2533 27.5035 87.2527 27.4831 87.2561 27.4631C87.2594 27.4432 87.2666 27.4241 87.2772 27.407C87.2879 27.3899 87.3017 27.3751 87.318 27.3634C87.3343 27.3517 87.3527 27.3433 87.3722 27.3388C87.3917 27.3343 87.4119 27.3337 87.4316 27.3371L92.4746 28.2115C92.5143 28.2152 92.5511 28.2346 92.5767 28.2657C92.6023 28.2967 92.6146 28.3367 92.6111 28.377C92.6075 28.4173 92.5882 28.4544 92.5576 28.4803C92.5269 28.5062 92.4873 28.5188 92.4476 28.5151V28.5121Z" fill="#FF725E"/>
<path d="M80.907 20.1933C79.158 19.5345 76.482 23.7607 77.607 28.2389C79.524 26.6176 82.179 26.2624 83.169 26.9213C84.603 27.8776 83.391 27.8321 84.132 29.8571C84.873 31.8822 91.278 31.4936 88.794 26.9729C92.553 19.2643 82.116 15.621 80.907 20.1933Z" fill="#263238"/>
<path d="M68.6488 36.8553L69.3209 37.4352C69.446 37.542 69.5438 37.6779 69.6059 37.8312C69.6681 37.9844 69.6928 38.1507 69.6778 38.3157L69.5428 39.8823C69.5171 40.1903 69.4186 40.4876 69.2558 40.7491C69.0929 41.0106 68.8703 41.2288 68.6069 41.3851L68.2738 41.5825C67.0949 40.699 66.4739 38.85 66.4739 38.85L66.2368 38.346C66.1857 38.2442 66.1548 38.1331 66.1461 38.0192C66.1374 37.9053 66.151 37.7908 66.1861 37.6822C66.2212 37.5736 66.2772 37.4731 66.3507 37.3864C66.4243 37.2997 66.5141 37.2286 66.6149 37.1771L67.5959 36.6883C67.7687 36.6109 67.9599 36.5854 68.1466 36.615C68.3334 36.6446 68.5077 36.7281 68.6488 36.8553Z" fill="#B55B52"/>
<path d="M79.0346 39.1172C78.9416 39.3571 78.8726 39.524 78.7916 39.7244C78.7106 39.9248 78.6266 40.0918 78.5456 40.2709C78.3776 40.6322 78.1946 40.9814 78.0116 41.3305C77.6367 42.0258 77.2261 42.7007 76.7816 43.3525C76.5596 43.6804 76.3256 44.0023 76.0886 44.3211C75.8516 44.6398 75.5966 44.9465 75.3296 45.2501C74.8034 45.8656 74.2361 46.4438 73.6316 46.9807L73.5506 47.0566C73.4787 47.1232 73.4003 47.1822 73.3166 47.2327C72.9672 47.4411 72.5791 47.5744 72.1766 47.6243C71.7435 47.6774 71.3041 47.6243 70.8956 47.4695C70.3435 47.2462 69.8592 46.8797 69.4916 46.4068C69.2382 46.0905 69.0208 45.7462 68.8436 45.3806C68.6886 45.0659 68.5514 44.7426 68.4326 44.4121C68.2178 43.8009 68.0463 43.1749 67.9196 42.5389C67.7931 41.9179 67.7079 41.289 67.6646 40.6565C67.6481 40.4131 67.7146 40.1713 67.853 39.9716C67.9915 39.7718 68.1934 39.6262 68.4252 39.559C68.657 39.4918 68.9045 39.5072 69.1265 39.6025C69.3484 39.6978 69.5313 39.8673 69.6446 40.0827L69.6746 40.1373C69.9296 40.6201 70.1876 41.1453 70.4516 41.6311C70.7156 42.1169 70.9856 42.5966 71.2676 43.0246C71.3975 43.2272 71.5377 43.4228 71.6876 43.6106C71.8019 43.7571 71.9316 43.8904 72.0746 44.0083C72.1736 44.0903 72.2576 44.0691 72.0746 43.9658C71.9415 43.9075 71.7961 43.8835 71.6516 43.896C71.5387 43.9058 71.4282 43.9345 71.3246 43.981L71.0066 44.23C71.4266 43.7442 71.8376 43.2493 72.2066 42.7119C72.5756 42.1745 72.9536 41.6281 73.2956 41.0542C73.6376 40.4804 73.9706 39.9036 74.2796 39.3085C74.4326 39.0049 74.5796 38.7013 74.7296 38.4128L74.9396 37.9665L75.1286 37.5597L75.1766 37.4534C75.4139 36.9659 75.8267 36.5889 76.3302 36.3999C76.8337 36.211 77.3896 36.2244 77.8837 36.4374C78.3777 36.6505 78.7723 37.047 78.9864 37.5454C79.2004 38.0438 79.2177 38.6063 79.0346 39.1172Z" fill="#B55B52"/>
<path d="M96.2037 101.715C96.6687 99.5899 96.5517 99.0859 96.9297 97.9201C97.1265 97.2578 97.4111 96.6256 97.7757 96.0407C98.1057 95.4183 97.4757 94.9234 96.8517 94.8445C96.3627 94.7808 95.8467 94.7595 95.2467 94.6624L93.9507 97.1064C94.6347 97.9869 95.1807 100.142 94.9407 101.776C94.7697 102.957 96.0177 102.571 96.2037 101.715Z" fill="#263238"/>
<path d="M75.3147 51.0793C75.3147 51.0793 74.9697 69.0742 74.6067 79.0447C73.6527 84.9468 93.7017 97.2308 93.7017 97.2308C94.1307 97.4373 95.2647 95.1876 95.2467 94.6623C95.2467 94.6623 86.6277 81.8106 81.4887 78.7077C87.1737 62.7834 85.6287 51.0793 85.6287 51.0793H75.3147Z" fill="#FF725E"/>
<path opacity="0.2" d="M85.6286 51.0793H79.1216C79.1216 51.0793 80.4236 68.6704 81.8726 77.6026C87.1016 62.2461 85.6286 51.0793 85.6286 51.0793Z" fill="black"/>
<path opacity="0.2" d="M89.6517 87.0295C87.1827 83.9115 84.3267 80.6538 82.0317 79.0629C82.3587 82.1475 82.6947 85.8698 82.9527 89.6892C85.1097 91.4167 87.3477 93.0288 89.2197 94.307C89.5301 91.8943 89.6745 89.4626 89.6517 87.0295Z" fill="black"/>
<path d="M92.4416 96.7846C92.7056 96.9758 93.1676 97.3159 93.5036 97.58C93.5566 97.6221 93.6239 97.6412 93.6908 97.6332C93.7577 97.6253 93.8187 97.5909 93.8606 97.5375C94.5051 96.6415 95.0665 95.6871 95.5376 94.6866C95.5625 94.6372 95.571 94.581 95.5618 94.5263C95.5526 94.4716 95.5262 94.4214 95.4866 94.383L94.6466 93.539C94.6199 93.5119 94.5876 93.4912 94.5521 93.4783C94.5165 93.4654 94.4785 93.4606 94.4409 93.4644C94.4033 93.4682 94.367 93.4804 94.3346 93.5001C94.3022 93.5198 94.2745 93.5466 94.2536 93.5785L92.3816 96.4263C92.3621 96.4537 92.3481 96.4848 92.3405 96.5177C92.333 96.5507 92.3319 96.5848 92.3375 96.6181C92.3431 96.6515 92.3552 96.6834 92.3731 96.7119C92.3909 96.7405 92.4142 96.7652 92.4416 96.7846Z" fill="#FF725E"/>
<path opacity="0.3" d="M92.4416 96.7846C92.7056 96.9758 93.1676 97.3159 93.5036 97.58C93.5566 97.6221 93.6239 97.6412 93.6908 97.6332C93.7577 97.6253 93.8187 97.5909 93.8606 97.5375C94.5051 96.6415 95.0665 95.6871 95.5376 94.6866C95.5625 94.6372 95.571 94.581 95.5618 94.5263C95.5526 94.4716 95.5262 94.4214 95.4866 94.383L94.6466 93.539C94.6199 93.5119 94.5876 93.4912 94.5521 93.4783C94.5165 93.4654 94.4785 93.4606 94.4409 93.4644C94.4033 93.4682 94.367 93.4804 94.3346 93.5001C94.3022 93.5198 94.2745 93.5466 94.2536 93.5785L92.3816 96.4263C92.3621 96.4537 92.3481 96.4848 92.3405 96.5177C92.333 96.5507 92.3319 96.5848 92.3375 96.6181C92.3431 96.6515 92.3552 96.6834 92.3731 96.7119C92.3909 96.7405 92.4142 96.7652 92.4416 96.7846Z" fill="#F8F8F8"/>
<path d="M82.7788 112.004C84.9718 112.004 84.8158 111.971 86.0518 111.928C87.1108 111.892 87.3508 112.023 88.1998 112.004C88.9078 111.989 88.9438 111.303 88.7998 110.514C88.7278 110.119 88.6018 109.633 88.4998 108.996H85.1698C84.8682 109.468 84.4654 109.866 83.9913 110.16C83.5172 110.454 82.9839 110.636 82.4308 110.693C81.2398 110.851 81.8998 112.004 82.7788 112.004Z" fill="#263238"/>
<path d="M78.4077 51.0793C78.4077 51.0793 81.8517 70.2674 83.1147 78.9658C84.4377 88.0983 86.0727 102.923 85.1727 108.993C85.6587 109.296 87.4647 109.311 88.5027 108.993C88.5027 108.993 93.7677 88.1621 89.3697 79.3696C91.8717 57.9955 88.1697 56.8813 87.1497 51.0793H78.4077Z" fill="#FF725E"/>
<path d="M85.0346 107.733C84.9891 108.153 84.9129 108.569 84.8066 108.977C84.7962 109.01 84.793 109.045 84.7972 109.079C84.8014 109.112 84.8129 109.145 84.831 109.174C84.849 109.203 84.8731 109.228 84.9015 109.246C84.93 109.265 84.9621 109.277 84.9956 109.281C86.1956 109.478 87.9956 109.193 88.5566 109.093C88.61 109.081 88.6591 109.055 88.6987 109.017C88.7384 108.979 88.767 108.931 88.7816 108.877L89.0666 107.711C89.0778 107.676 89.0802 107.637 89.0737 107.6C89.0672 107.563 89.0519 107.529 89.0293 107.499C89.0066 107.469 88.9771 107.445 88.9434 107.429C88.9097 107.413 88.8727 107.406 88.8356 107.408L85.3076 107.478C85.2404 107.483 85.1769 107.511 85.1274 107.557C85.0779 107.604 85.0452 107.665 85.0346 107.733Z" fill="#FF725E"/>
<path opacity="0.3" d="M85.0346 107.733C84.9891 108.153 84.9129 108.569 84.8066 108.977C84.7962 109.01 84.793 109.045 84.7972 109.079C84.8014 109.112 84.8129 109.145 84.831 109.174C84.849 109.203 84.8731 109.228 84.9015 109.246C84.93 109.265 84.9621 109.277 84.9956 109.281C86.1956 109.478 87.9956 109.193 88.5566 109.093C88.61 109.081 88.6591 109.055 88.6987 109.017C88.7384 108.979 88.767 108.931 88.7816 108.877L89.0666 107.711C89.0778 107.676 89.0802 107.637 89.0737 107.6C89.0672 107.563 89.0519 107.529 89.0293 107.499C89.0066 107.469 88.9771 107.445 88.9434 107.429C88.9097 107.413 88.8727 107.406 88.8356 107.408L85.3076 107.478C85.2404 107.483 85.1769 107.511 85.1274 107.557C85.0779 107.604 85.0452 107.665 85.0346 107.733Z" fill="#F8F8F8"/>
<path d="M78.1046 34.2594C75.9206 34.6753 75.4586 35.5801 73.8506 38.938C74.3366 41.1452 76.9466 43.0853 76.9466 43.0853C76.9466 43.0853 81.7076 37.1285 78.1046 34.2594Z" fill="#263238"/>
<path d="M74.6427 38.4553C74.6067 39.6333 74.7207 41.0572 74.9817 43.8595C75.1587 46.2338 74.5737 50.7484 75.3147 51.0793H87.1497C87.3867 47.6789 87.2997 45.3381 89.4267 37.7449C89.5544 37.3472 89.5922 36.9255 89.5373 36.511C89.4824 36.0965 89.3363 35.6998 89.1097 35.3501C88.883 35.0005 88.5817 34.7067 88.228 34.4906C87.8742 34.2745 87.477 34.1416 87.0657 34.1016C86.5947 34.053 86.0997 34.0135 85.5867 33.9892C83.798 33.8586 82.0024 33.8586 80.2137 33.9892C79.6287 34.0409 79.0137 34.1168 78.4437 34.1987C77.4204 34.3513 76.4814 34.8596 75.7879 35.6362C75.0944 36.4129 74.6895 37.4096 74.6427 38.4553Z" fill="#263238"/>
<path d="M85.2 27.8837C84.732 29.6355 84.156 32.8416 85.281 34.0105C85.281 34.0105 83.643 33.7615 80.166 35.9384C79.158 34.475 79.905 34.0105 79.905 34.0105C81.87 33.5429 81.927 32.0947 81.69 30.7345L85.2 27.8837Z" fill="#B55B52"/>
<path d="M80.9067 35.489C82.0527 35.656 82.4067 37.4047 82.4067 37.4047C82.4067 37.4047 85.1577 35.4374 86.0277 34.0468C85.6815 33.8497 85.346 33.6338 85.0227 33.4001C85.0227 33.4001 81.5757 34.821 80.9067 35.489Z" fill="#F8F8F8"/>
<path d="M79.8177 35.3039C79.8177 35.3039 78.9178 35.5012 78.4528 36.7824C78.1918 34.2291 79.3888 33.9953 79.3888 33.9953C79.7031 33.8164 80.0721 33.7623 80.4237 33.8435C80.1709 33.9779 79.9722 34.1971 79.8616 34.4636C79.7511 34.73 79.7355 35.0271 79.8177 35.3039Z" fill="#F8F8F8"/>
<path opacity="0.2" d="M83.7807 29.0404L81.7017 30.7254C81.7617 31.0438 81.7938 31.3668 81.7977 31.6909C82.5417 31.5816 83.6157 30.7801 83.7507 29.9846C83.8158 29.6742 83.8259 29.3545 83.7807 29.0404Z" fill="black"/>
<path d="M87.5218 25.549C86.5048 28.2329 86.1298 29.3896 84.3208 30.431C81.5998 31.9976 78.5518 30.3369 78.7558 27.4435C78.9388 24.8416 80.5768 20.8916 83.5738 20.5C84.2145 20.3928 84.8718 20.4612 85.4775 20.6981C86.0832 20.9349 86.6151 21.3316 87.0181 21.847C87.421 22.3623 87.6803 22.9774 87.7689 23.6284C87.8574 24.2795 87.7721 24.9426 87.5218 25.549Z" fill="#B55B52"/>
<path d="M80.9067 20.5637C81.1227 22.0059 85.5147 23.4268 86.3487 23.2537C85.2987 24.1979 86.0157 28.3725 88.2477 27.0913C88.8327 22.2154 86.0187 17.8829 80.9067 20.5637Z" fill="#263238"/>
<path opacity="0.2" d="M83.6997 25.309C84.0631 25.203 84.453 25.2455 84.7857 25.4274C84.4195 25.4614 84.0503 25.4212 83.6997 25.309Z" fill="black"/>
<path opacity="0.2" d="M83.6787 25.5732C83.8488 25.5604 84.0195 25.5853 84.1791 25.6461C84.3387 25.7069 84.4833 25.8023 84.6027 25.9254C84.2731 25.8772 83.9578 25.7571 83.6787 25.5732Z" fill="black"/>
<path d="M83.0996 25.2058C83.0246 25.4335 82.8446 25.5884 82.6976 25.5489C82.5506 25.5094 82.4936 25.2939 82.5686 25.0662C82.6436 24.8385 82.8266 24.6806 82.9736 24.72C83.1206 24.7595 83.1656 24.9751 83.0996 25.2058Z" fill="#263238"/>
<path d="M80.313 24.5167C80.238 24.7475 80.058 24.8993 79.911 24.8628C79.764 24.8264 79.707 24.6048 79.782 24.3771C79.857 24.1493 80.04 23.9945 80.187 24.034C80.334 24.0734 80.4 24.289 80.313 24.5167Z" fill="#263238"/>
<path d="M80.2467 24.0613L79.7607 23.7577C79.7607 23.7577 79.8927 24.2647 80.2467 24.0613Z" fill="#263238"/>
<path d="M80.9578 25.0966C80.5834 25.5664 80.152 25.9867 79.6738 26.3474C79.7638 26.4612 79.878 26.553 80.0078 26.6161C80.1376 26.6791 80.2798 26.7118 80.4238 26.7118L80.9578 25.0966Z" fill="#A02724"/>
<path d="M81.4347 27.8988C81.3043 27.8862 81.1749 27.8638 81.0477 27.832C81.0389 27.83 81.0306 27.8261 81.0234 27.8206C81.0162 27.815 81.0103 27.808 81.006 27.7999C81.0017 27.7919 80.9992 27.783 80.9987 27.7738C80.9981 27.7647 80.9995 27.7556 81.0027 27.747C81.0083 27.729 81.0203 27.7137 81.0364 27.7042C81.0524 27.6947 81.0715 27.6915 81.0897 27.6954C81.3768 27.773 81.6775 27.784 81.9694 27.7278C82.2613 27.6715 82.5369 27.5494 82.7757 27.3705C82.7821 27.3638 82.7898 27.3585 82.7983 27.3549C82.8068 27.3512 82.816 27.3494 82.8252 27.3494C82.8344 27.3494 82.8436 27.3512 82.8521 27.3549C82.8606 27.3585 82.8683 27.3638 82.8747 27.3705C82.8874 27.3841 82.8944 27.402 82.8944 27.4206C82.8944 27.4393 82.8874 27.4572 82.8747 27.4707C82.4632 27.7881 81.9504 27.9405 81.4347 27.8988Z" fill="#263238"/>
<path d="M87.5338 27.8443C87.379 28.0705 87.1793 28.2613 86.9473 28.4046C86.7153 28.5478 86.4562 28.6404 86.1868 28.6762C85.5178 28.7339 85.3678 27.9415 85.7068 27.2371C86.0068 26.6026 86.7328 25.8102 87.3298 26.0804C87.9268 26.3506 87.9688 27.2493 87.5338 27.8443Z" fill="#B55B52"/>
<path d="M84.0297 24.037C84.0124 24.0303 83.9965 24.0201 83.9831 24.0071C83.9697 23.994 83.959 23.9784 83.9517 23.9611C83.8948 23.8001 83.7997 23.6558 83.6746 23.5409C83.5496 23.426 83.3985 23.3441 83.2347 23.3022C83.2172 23.2999 83.2004 23.2937 83.1854 23.2842C83.1704 23.2746 83.1577 23.2619 83.148 23.2469C83.1383 23.232 83.1319 23.215 83.1293 23.1973C83.1267 23.1796 83.1278 23.1615 83.1327 23.1443C83.142 23.1073 83.1648 23.0751 83.1965 23.0543C83.2282 23.0334 83.2665 23.0255 83.3037 23.032C83.5119 23.0812 83.7046 23.1823 83.8644 23.326C84.0241 23.4696 84.146 23.6514 84.2187 23.8548C84.2303 23.8902 84.2276 23.9288 84.2113 23.9623C84.1951 23.9958 84.1665 24.0215 84.1317 24.0339C84.0991 24.047 84.0631 24.048 84.0297 24.037Z" fill="#263238"/>
<path d="M79.8328 22.9985C79.816 22.9953 79.8001 22.9885 79.7861 22.9785C79.7722 22.9686 79.7604 22.9557 79.7518 22.9408C79.7427 22.9251 79.7369 22.9078 79.7345 22.8897C79.7322 22.8717 79.7335 22.8534 79.7382 22.8359C79.743 22.8184 79.7511 22.802 79.7622 22.7877C79.7733 22.7734 79.7871 22.7614 79.8028 22.7526C79.9912 22.6287 80.2051 22.55 80.4282 22.5227C80.6513 22.4953 80.8776 22.52 81.0898 22.5947C81.106 22.6021 81.1206 22.6129 81.1326 22.6263C81.1445 22.6396 81.1536 22.6554 81.1592 22.6725C81.1649 22.6896 81.1669 22.7077 81.1653 22.7257C81.1637 22.7437 81.1584 22.7611 81.1498 22.7769C81.1324 22.8102 81.1035 22.8357 81.0686 22.8486C81.0336 22.8615 80.9952 22.8609 80.9608 22.8467C80.7923 22.79 80.6133 22.7726 80.4372 22.7958C80.2611 22.8189 80.0924 22.882 79.9438 22.9803C79.9106 23.001 79.8707 23.0076 79.8328 22.9985Z" fill="#263238"/>
<path d="M83.0216 24.7505L82.5356 24.4469C82.5356 24.4469 82.6676 24.9509 83.0216 24.7505Z" fill="#263238"/>
<path d="M90.5639 37.1983C90.6689 37.4321 90.7409 37.5991 90.8219 37.7904C90.9029 37.9816 90.9689 38.1638 91.0409 38.352C91.1819 38.7224 91.3019 39.0989 91.4219 39.4754C91.6567 40.2313 91.851 40.9996 92.0039 41.7767C92.0849 42.1653 92.1479 42.56 92.2109 42.9517C92.2739 43.3433 92.3159 43.7471 92.3459 44.1479C92.4166 44.9555 92.4336 45.7669 92.3969 46.5768V46.7073C92.3938 46.8096 92.3807 46.9113 92.3579 47.0109C92.2635 47.4101 92.0889 47.7852 91.8449 48.113C91.5824 48.4668 91.2385 48.7503 90.8429 48.9388C90.3017 49.1857 89.7055 49.2831 89.1149 49.2212C88.714 49.1863 88.3184 49.1048 87.9359 48.9783C87.6042 48.8739 87.2786 48.7503 86.9609 48.6079C86.3775 48.3398 85.814 48.0293 85.2749 47.6789C84.7452 47.3385 84.2381 46.9632 83.7569 46.5555C83.5722 46.3984 83.4464 46.1819 83.4005 45.9421C83.3547 45.7023 83.3916 45.4539 83.5051 45.2384C83.6186 45.0229 83.8018 44.8534 84.024 44.7582C84.2463 44.6631 84.4941 44.648 84.7259 44.7157L84.7859 44.7339C85.3079 44.8826 85.8599 45.0587 86.3879 45.2045C86.9159 45.3502 87.4439 45.4868 87.9449 45.5779C88.1939 45.6234 88.4339 45.6629 88.6529 45.6811C88.8365 45.7002 89.0214 45.7002 89.2049 45.6811C89.3309 45.6811 89.3729 45.59 89.1749 45.6538C89.0398 45.7067 88.9216 45.7959 88.8329 45.9119C88.7591 46.0018 88.7021 46.1047 88.6649 46.2155L88.6199 46.6193C88.5689 45.9756 88.4999 45.332 88.3859 44.6823C88.2719 44.0325 88.1339 43.3858 87.9659 42.7392C87.7979 42.0925 87.6149 41.4488 87.4049 40.8113C87.3029 40.5076 87.1919 40.1737 87.0809 39.861L86.9129 39.3964L86.7539 38.9775L86.7119 38.8682C86.5554 38.3632 86.5906 37.8173 86.8107 37.3373C87.0308 36.8572 87.4199 36.4776 87.902 36.2725C88.3841 36.0675 88.9244 36.0519 89.4173 36.2287C89.9102 36.4056 90.3201 36.7621 90.5669 37.2287L90.5639 37.1983Z" fill="#B55B52"/>
<path d="M87.1739 34.1288C89.1029 34.4324 89.8739 35.0214 91.4489 38.941C90.7349 40.4013 87.3869 41.801 87.3869 41.801C87.3869 41.801 84.7649 36.9918 87.1739 34.1288Z" fill="#263238"/>
<path d="M65.9998 73.601L65.4868 71.3908C64.1968 65.8196 65.7448 60.1907 67.2418 54.75C68.5438 50.0259 69.7708 45.5659 68.8828 41.7434L69.5638 41.5825C70.4908 45.581 69.2398 50.1261 67.9138 54.9413C66.4408 60.2969 64.9138 65.8347 66.1678 71.2299L66.6808 73.4401L65.9998 73.601Z" fill="#FF725E"/>
<path d="M65.2622 41.4347C66.2051 29.4956 57.406 19.0433 45.6087 18.089C33.8114 17.1347 23.4834 26.0397 22.5404 37.9789C21.5974 49.9181 30.3966 60.3703 42.1939 61.3246C53.9912 62.2789 64.3192 53.3739 65.2622 41.4347Z" fill="#FF725E"/>
<path opacity="0.2" d="M65.2622 41.4347C66.2051 29.4956 57.406 19.0433 45.6087 18.089C33.8114 17.1347 23.4834 26.0397 22.5404 37.9789C21.5974 49.9181 30.3966 60.3703 42.1939 61.3246C53.9912 62.2789 64.3192 53.3739 65.2622 41.4347Z" fill="black"/>
<path d="M46.2236 57.2882C44.3369 57.2878 42.4884 56.7493 40.8902 55.7344C39.2921 54.7196 38.0089 53.2694 37.1878 51.5502C36.3668 49.831 36.0411 47.9125 36.2481 46.0146C36.4552 44.1167 37.1866 42.3162 38.3585 40.8198C39.5304 39.3233 41.0952 38.1914 42.8737 37.5538C44.6522 36.9162 46.5722 36.7988 48.4136 37.215C50.2549 37.6312 51.9431 38.5642 53.2845 39.907C54.626 41.2498 55.5663 42.948 55.9976 44.8068C56.3419 46.2978 56.3489 47.8482 56.0183 49.3423C55.6877 50.8364 55.0279 52.2357 54.0882 53.4357C53.1485 54.6356 51.9532 55.6054 50.5914 56.2724C49.2296 56.9395 47.7366 57.2867 46.2236 57.2882ZM46.2236 37.672C44.2838 37.672 42.3921 38.2831 40.811 39.4205C39.23 40.5579 38.038 42.1651 37.4004 44.0192C36.7629 45.8733 36.7115 47.8823 37.2534 49.7673C37.7952 51.6523 38.9034 53.3198 40.4242 54.5385C41.945 55.7572 43.8029 56.4665 45.7402 56.5681C47.6774 56.6697 49.5978 56.1584 51.2349 55.1053C52.872 54.0522 54.1445 52.5095 54.876 50.6913C55.6074 48.8731 55.7614 46.8695 55.3166 44.9586C54.8315 42.8862 53.6702 41.0397 52.0202 39.7176C50.3703 38.3954 48.3282 37.6748 46.2236 37.672Z" fill="#F8F8F8"/>
<path d="M44.5409 21.0041L51.9269 52.8617C52.175 53.9296 52.832 54.8541 53.7535 55.432C54.675 56.0099 55.7855 56.1938 56.8409 55.9433L78.2729 50.8548C79.1274 50.6494 79.8943 50.1719 80.4608 49.4926C81.0272 48.8133 81.3634 47.968 81.4199 47.081C81.7058 42.6718 81.01 38.254 79.3838 34.1533C77.7577 30.0526 75.2426 26.3737 72.0242 23.3878C68.8058 20.402 64.9661 18.1854 60.7884 16.9016C56.6106 15.6178 52.2014 15.2995 47.8859 15.9702C47.3301 16.0588 46.7983 16.2624 46.3239 16.5684C45.8494 16.8745 45.4425 17.2763 45.1285 17.7488C44.8145 18.2213 44.6003 18.7543 44.4992 19.3144C44.3981 19.8745 44.4123 20.4497 44.5409 21.0041Z" fill="#FF725E"/>
<path opacity="0.4" d="M44.5409 21.0041L51.9269 52.8617C52.175 53.9296 52.832 54.8541 53.7535 55.432C54.675 56.0099 55.7855 56.1938 56.8409 55.9433L78.2729 50.8548C79.1274 50.6494 79.8943 50.1719 80.4608 49.4926C81.0272 48.8133 81.3634 47.968 81.4199 47.081C81.7058 42.6718 81.01 38.254 79.3838 34.1533C77.7577 30.0526 75.2426 26.3737 72.0242 23.3878C68.8058 20.402 64.9661 18.1854 60.7884 16.9016C56.6106 15.6178 52.2014 15.2995 47.8859 15.9702C47.3301 16.0588 46.7983 16.2624 46.3239 16.5684C45.8494 16.8745 45.4425 17.2763 45.1285 17.7488C44.8145 18.2213 44.6003 18.7543 44.4992 19.3144C44.3981 19.8745 44.4123 20.4497 44.5409 21.0041Z" fill="#F8F8F8"/>
<path d="M71.4327 78.8899L51.1797 83.6839C50.9345 83.7411 50.6771 83.7096 50.4524 83.5947C50.2277 83.4799 50.0499 83.2891 49.9497 83.0554L48.1497 78.8292C48.0882 78.6836 48.059 78.5263 48.064 78.3681C48.0691 78.2099 48.1083 78.0547 48.1789 77.9135C48.2495 77.7723 48.3499 77.6485 48.4728 77.5507C48.5958 77.4529 48.7385 77.3836 48.8907 77.3476L70.6917 72.168C70.8443 72.1324 71.0027 72.1309 71.1558 72.1637C71.309 72.1965 71.4532 72.2628 71.5784 72.358C71.7036 72.4532 71.8067 72.5749 71.8805 72.7146C71.9543 72.8543 71.9971 73.0087 72.0057 73.1669L72.2547 77.7605C72.271 78.0165 72.1975 78.2702 72.0471 78.4768C71.8968 78.6834 71.6792 78.8297 71.4327 78.8899Z" fill="#FF725E"/>
<path d="M69.9626 82.2295L53.9636 86.0307C53.7138 86.0891 53.4515 86.0551 53.2242 85.9348C52.997 85.8145 52.8198 85.6159 52.7246 85.3749L51.2756 81.7073C51.2185 81.5624 51.1928 81.4068 51.2006 81.251C51.2083 81.0952 51.2491 80.9429 51.3203 80.8045C51.3915 80.6662 51.4914 80.545 51.6131 80.4493C51.7349 80.3536 51.8756 80.2856 52.0256 80.25L69.1586 76.1573C69.3085 76.1214 69.4643 76.1186 69.6153 76.1493C69.7663 76.18 69.9089 76.2434 70.0334 76.3351C70.158 76.4268 70.2614 76.5447 70.3367 76.6806C70.412 76.8166 70.4574 76.9674 70.4696 77.1228L70.7876 81.0697C70.8125 81.3314 70.7425 81.5933 70.5907 81.8067C70.439 82.0201 70.2157 82.1703 69.9626 82.2295Z" fill="#FF725E"/>
<path d="M68.3789 85.3294L56.7509 88.0923C56.4956 88.1521 56.2275 88.1153 55.9971 87.9889C55.7666 87.8625 55.5898 87.6553 55.4999 87.4061L54.3539 84.2182C54.302 84.0744 54.2809 83.9211 54.2919 83.7684C54.3029 83.6157 54.3459 83.4671 54.4179 83.3325C54.49 83.1979 54.5895 83.0803 54.7098 82.9875C54.8301 82.8947 54.9686 82.8289 55.1159 82.7943L67.5149 79.8493C67.6625 79.814 67.8158 79.8108 67.9646 79.8399C68.1135 79.869 68.2546 79.9297 68.3785 80.0181C68.5024 80.1065 68.6064 80.2205 68.6835 80.3526C68.7607 80.4847 68.8092 80.6319 68.8259 80.7844L69.1979 84.1545C69.2283 84.418 69.1615 84.6836 69.0103 84.9004C68.8592 85.1172 68.6344 85.2699 68.3789 85.3294Z" fill="#FF725E"/>
<path d="M62.0998 43.3676C61.5315 40.9286 60.0304 38.8173 57.9259 37.4968C55.8214 36.1763 53.2852 35.7545 50.8738 36.3239L50.7148 35.6378C53.3065 35.0247 56.0326 35.4774 58.2948 36.8964C60.557 38.3155 62.1704 40.585 62.7808 43.2067L62.0998 43.3676Z" fill="#FF725E"/>
<path opacity="0.2" d="M49.5296 19.3007L39.2096 22.8741L39.0566 23.7364L39.9386 24.3497L39.7706 25.2909L40.5206 26.065L40.5146 26.906L50.7116 23.372L51.0116 22.525L50.1086 21.7599L50.1986 20.758L49.4156 20.2145L49.5296 19.3007Z" fill="#F8F8F8"/>
<path d="M59.7839 54.0637C57.2202 54.0606 54.7547 53.0658 52.8921 51.2829C51.0296 49.5 49.911 47.0641 49.7653 44.4737C49.6196 41.8834 50.4579 39.3347 52.1085 37.3494C53.7591 35.3642 56.0971 34.0927 58.6439 33.7951C61.1907 33.4976 63.7535 34.1966 65.8076 35.7491C67.8618 37.3015 69.2518 39.5899 69.6931 42.1457C70.1344 44.7015 69.5935 47.3313 68.1814 49.4968C66.7692 51.6622 64.5925 53.1993 62.0969 53.7935C61.3387 53.9732 60.5626 54.0638 59.7839 54.0637ZM59.8199 34.4446C58.4104 34.4441 57.0191 34.7659 55.7497 35.3857C54.4803 36.0055 53.3656 36.9075 52.4888 38.0243C51.612 39.1411 50.9957 40.4438 50.6859 41.8354C50.3762 43.2269 50.381 44.6712 50.6999 46.0606C50.98 47.2691 51.4926 48.4099 52.2083 49.4179C52.9241 50.4259 53.829 51.2813 54.8714 51.9354C55.9139 52.5895 57.0734 53.0294 58.2838 53.2299C59.4942 53.4305 60.7318 53.3878 61.9259 53.1043C63.12 52.8209 64.2472 52.3021 65.2433 51.5778C66.2393 50.8534 67.0846 49.9376 67.7309 48.8826C68.3772 47.8276 68.8118 46.6542 69.01 45.4292C69.2082 44.2043 69.166 42.9518 68.8859 41.7433C68.4024 39.6733 67.244 37.8286 65.5976 36.5066C63.9511 35.1846 61.9126 34.4625 59.8109 34.4567L59.8199 34.4446Z" fill="#FF725E"/>
<path d="M56.4568 47.5241L63.0268 70.0457L37.7758 77.5935L30.3208 52.0387L46.2688 47.2721L56.4568 47.5241Z" fill="#FF725E"/>
<path opacity="0.8" d="M56.4568 47.5241L63.0268 70.0457L37.7758 77.5935L30.3208 52.0387L46.2688 47.2721L56.4568 47.5241Z" fill="#F8F8F8"/>
<path d="M56.4566 47.5241L50.8046 51.389L46.2686 47.2721L56.4566 47.5241Z" fill="#FF725E"/>
<path d="M38.3998 52.6673C38.5245 53.1056 38.6997 53.5274 38.9218 53.9243C39.1535 54.3214 39.4271 54.692 39.7378 55.0294C40.3648 55.7216 41.1298 56.3471 41.8768 57.0181C42.641 57.6821 43.3652 58.3918 44.0458 59.1433C44.3878 59.5228 44.7118 59.9175 45.0268 60.3213C45.3418 60.7251 45.6268 61.1046 45.9448 61.4902C47.1778 63.0295 48.5308 64.4868 49.7458 66.1202C50.3635 66.9403 50.9134 67.8106 51.3898 68.7221C51.866 69.6435 52.2326 70.6189 52.4818 71.6277C52.5164 71.7485 52.5022 71.8782 52.4423 71.9884C52.3823 72.0986 52.2816 72.1801 52.1623 72.2152C52.0429 72.2502 51.9147 72.2358 51.8059 72.1752C51.697 72.1145 51.6164 72.0126 51.5818 71.8918C50.9525 70.0595 50.0079 68.3543 48.7918 66.855C47.5918 65.3096 46.2808 63.8189 45.0478 62.2158C44.7478 61.8242 44.4328 61.4052 44.1478 61.0226C43.8628 60.6401 43.5478 60.2636 43.2208 59.9023C42.5707 59.1772 41.8795 58.4909 41.1508 57.8469C40.4218 57.185 39.6508 56.5505 38.9308 55.7672C38.5691 55.3683 38.2503 54.9317 37.9798 54.4647C37.7141 53.9854 37.5056 53.4758 37.3588 52.9467C37.3305 52.81 37.3544 52.6676 37.4256 52.548C37.4968 52.4284 37.6101 52.3406 37.7428 52.3021C37.8754 52.2637 38.0175 52.2775 38.1405 52.3407C38.2635 52.4039 38.3583 52.512 38.4058 52.6431L38.3998 52.6673Z" fill="#FF725E"/>
<path d="M62.5557 91.5382C61.6599 91.5375 60.7825 91.2813 60.0239 90.7991C59.2653 90.3169 58.6564 89.6282 58.2668 88.8118C57.8773 87.9954 57.7229 87.0845 57.8214 86.1834C57.9199 85.2824 58.2672 84.4276 58.8237 83.7172C59.3801 83.0067 60.1231 82.4693 60.9675 82.1665C61.8118 81.8638 62.7234 81.8079 63.5977 82.0053C64.472 82.2028 65.2736 82.6455 65.9107 83.2829C66.5478 83.9202 66.9945 84.7263 67.1997 85.6087C67.3622 86.3175 67.3646 87.0542 67.2067 87.764C67.0487 88.4738 66.7346 89.1384 66.2877 89.7084C65.8408 90.2783 65.2725 90.7388 64.6253 91.0556C63.9781 91.3724 63.2687 91.5374 62.5497 91.5382H62.5557ZM62.5737 82.5909C62.2576 82.5912 61.9426 82.6279 61.6347 82.7002C60.8508 82.8863 60.139 83.3035 59.5894 83.899C59.0398 84.4945 58.677 85.2416 58.5469 86.0457C58.4169 86.8499 58.5254 87.6751 58.8587 88.4168C59.192 89.1586 59.7353 89.7837 60.4196 90.213C61.104 90.6423 61.8988 90.8566 62.7036 90.8288C63.5083 90.801 64.2868 90.5322 64.9406 90.0566C65.5944 89.581 66.0942 88.9198 66.3767 88.1568C66.6592 87.3937 66.7117 86.563 66.5277 85.7696C66.3179 84.867 65.8135 84.0623 65.0961 83.4855C64.3786 82.9087 63.49 82.5935 62.5737 82.5909Z" fill="#FF725E"/>
<path d="M81.7466 43.1886L82.6256 43.1036C82.7888 43.0879 82.9532 43.1116 83.1055 43.1729C83.2578 43.2341 83.3936 43.3311 83.5016 43.4557L84.5186 44.6398C84.7199 44.8735 84.8628 45.1526 84.9353 45.4537C85.0079 45.7548 85.008 46.0692 84.9356 46.3704L84.8456 46.7469C83.3966 46.9897 81.6536 46.173 81.6536 46.173L81.1316 45.997C81.0236 45.9637 80.9231 45.9091 80.8361 45.8364C80.749 45.7636 80.677 45.6741 80.6243 45.5731C80.5716 45.472 80.5392 45.3614 80.5289 45.2476C80.5187 45.1338 80.5308 45.0191 80.5646 44.91L80.8976 43.8565C80.9608 43.6744 81.0745 43.5146 81.225 43.3962C81.3756 43.2777 81.5567 43.2057 81.7466 43.1886Z" fill="#B55B52"/>
<path d="M104.783 16.1502C105.071 14.3544 103.866 12.6623 102.092 12.3708C100.317 12.0793 98.6455 13.2988 98.3575 15.0946C98.0694 16.8904 99.2744 18.5825 101.049 18.874C102.823 19.1655 104.495 17.946 104.783 16.1502Z" fill="#F8F8F8"/>
<path d="M101.568 19.2704C100.856 19.2704 100.16 19.0567 99.5677 18.6564C98.9757 18.256 98.5143 17.687 98.2418 17.0213C97.9693 16.3556 97.898 15.623 98.0369 14.9163C98.1759 14.2096 98.5187 13.5604 99.0222 13.0509C99.5257 12.5413 100.167 12.1943 100.865 12.0538C101.564 11.9132 102.288 11.9853 102.945 12.2611C103.603 12.5368 104.165 13.0038 104.561 13.603C104.957 14.2021 105.168 14.9065 105.168 15.6271C105.168 16.5933 104.788 17.52 104.113 18.2033C103.438 18.8865 102.523 19.2704 101.568 19.2704ZM101.568 12.679C100.993 12.679 100.431 12.8516 99.9527 13.1748C99.4747 13.4981 99.1021 13.9576 98.8821 14.4952C98.662 15.0327 98.6045 15.6243 98.7166 16.1949C98.8288 16.7656 99.1057 17.2898 99.5122 17.7013C99.9188 18.1127 100.437 18.3929 101.001 18.5064C101.565 18.6199 102.149 18.5617 102.68 18.339C103.211 18.1163 103.665 17.7393 103.985 17.2555C104.304 16.7717 104.475 16.2029 104.475 15.621C104.474 14.841 104.167 14.0931 103.622 13.5416C103.077 12.99 102.339 12.6798 101.568 12.679Z" fill="#FF725E"/>
<path d="M93.8309 21.2165C94.8399 21.2165 95.6579 20.3887 95.6579 19.3675C95.6579 18.3464 94.8399 17.5186 93.8309 17.5186C92.8219 17.5186 92.0039 18.3464 92.0039 19.3675C92.0039 20.3887 92.8219 21.2165 93.8309 21.2165Z" fill="#F8F8F8"/>
<path d="M93.831 21.5717C93.3992 21.5735 92.9766 21.4454 92.617 21.2036C92.2573 20.9618 91.9768 20.6173 91.811 20.2138C91.6452 19.8103 91.6017 19.3661 91.6859 18.9375C91.7701 18.5089 91.9784 18.1153 92.2841 17.8068C92.5898 17.4982 92.9793 17.2886 93.403 17.2045C93.8268 17.1204 94.2656 17.1657 94.6638 17.3346C95.0621 17.5035 95.4017 17.7884 95.6396 18.153C95.8775 18.5177 96.003 18.9457 96 19.3827C95.996 19.9631 95.7661 20.5185 95.36 20.9283C94.9539 21.3381 94.4045 21.5693 93.831 21.5717ZM93.831 17.8707C93.5391 17.8707 93.2538 17.9582 93.0109 18.122C92.768 18.2858 92.5784 18.5186 92.4661 18.7913C92.3537 19.0639 92.3235 19.3641 92.3794 19.654C92.4353 19.9439 92.5746 20.2106 92.78 20.4205C92.9853 20.6305 93.2475 20.7742 93.5334 20.8337C93.8193 20.8931 94.1162 20.8656 94.3867 20.7547C94.6572 20.6437 94.8892 20.4542 95.0535 20.2101C95.2178 19.9659 95.307 19.6781 95.31 19.3827C95.3128 19.1843 95.2766 18.9874 95.2035 18.8034C95.1304 18.6193 95.0219 18.4518 94.8843 18.3105C94.7467 18.1693 94.5827 18.0571 94.4019 17.9806C94.2211 17.904 94.027 17.8646 93.831 17.8646V17.8707Z" fill="#FF725E"/>
<path d="M128.814 18.8058C128.405 17.0437 127.462 15.4552 126.116 14.2635C124.77 13.0718 123.089 12.3366 121.309 12.1611C119.529 11.9856 117.739 12.3786 116.191 13.285C114.643 14.1914 113.414 15.5657 112.677 17.2149C111.984 17.0795 111.268 17.1296 110.6 17.3602C109.932 17.5909 109.335 17.9941 108.868 18.5299C108.402 19.0658 108.081 19.7157 107.939 20.4153C107.797 21.115 107.837 21.8401 108.057 22.5189C106.816 23.7013 106.051 25.3066 105.91 27.0255C105.769 28.7445 106.262 30.4554 107.293 31.8287C108.325 33.2019 109.822 34.1403 111.496 34.463C113.17 34.7857 114.903 34.4698 116.361 33.5763C117.777 34.6406 119.542 35.1157 121.293 34.9039C123.045 34.6922 124.65 33.8097 125.778 32.4378C126.217 32.527 126.663 32.5718 127.11 32.5714C128.807 32.5938 130.452 31.9826 131.732 30.8545C133.012 29.7265 133.836 28.1608 134.047 26.4566C134.257 24.7525 133.84 23.0295 132.875 21.617C131.91 20.2044 130.464 19.2015 128.814 18.7997V18.8058Z" fill="#F8F8F8"/>
<path d="M120.477 35.3039C118.998 35.3081 117.553 34.8512 116.34 33.9954C114.814 34.8444 113.037 35.1099 111.334 34.7434C109.631 34.3768 108.115 33.4027 107.062 31.9988C106.01 30.5949 105.491 28.8549 105.601 27.0961C105.711 25.3374 106.442 23.6773 107.661 22.4188C107.558 22.0367 107.506 21.6427 107.505 21.2469C107.506 20.0666 107.97 18.9349 108.793 18.0992C109.617 17.2635 110.734 16.7917 111.9 16.7869C112.087 16.7871 112.275 16.7993 112.461 16.8233C113.261 15.1684 114.543 13.8013 116.134 12.9058C117.725 12.0103 119.549 11.6294 121.36 11.8142C123.172 11.999 124.884 12.7408 126.266 13.9397C127.649 15.1386 128.635 16.7372 129.093 18.5205C130.774 19.0091 132.225 20.0958 133.178 21.5806C134.131 23.0655 134.522 24.8486 134.279 26.6019C134.036 28.3553 133.176 29.961 131.856 31.1236C130.537 32.2862 128.847 32.9276 127.098 32.9297C126.696 32.9295 126.294 32.896 125.898 32.8295C125.219 33.6068 124.384 34.2293 123.45 34.6558C122.515 35.0824 121.502 35.3033 120.477 35.3039ZM116.361 33.2242C116.435 33.2231 116.508 33.2466 116.568 33.291C117.912 34.3008 119.587 34.7523 121.25 34.5531C122.912 34.3538 124.437 33.5189 125.511 32.2193C125.55 32.1702 125.602 32.133 125.661 32.1116C125.719 32.0902 125.783 32.0854 125.844 32.0978C126.261 32.1823 126.685 32.225 127.11 32.2253C128.71 32.2274 130.256 31.6376 131.456 30.5669C132.657 29.4961 133.429 28.0183 133.628 26.4115C133.827 24.8046 133.439 23.1795 132.537 21.842C131.635 20.5045 130.281 19.5467 128.73 19.1489C128.668 19.1327 128.612 19.0999 128.567 19.0539C128.522 19.008 128.49 18.9506 128.475 18.8878C128.082 17.1982 127.175 15.6755 125.884 14.5334C124.592 13.3914 122.979 12.6872 121.272 12.5198C119.565 12.3524 117.848 12.7301 116.364 13.5999C114.879 14.4697 113.701 15.788 112.995 17.3698C112.962 17.4417 112.906 17.5005 112.837 17.5369C112.767 17.5732 112.688 17.5849 112.611 17.5702C112.38 17.5248 112.146 17.5014 111.912 17.5003C110.928 17.5019 109.986 17.8982 109.291 18.6023C108.595 19.3064 108.205 20.2607 108.204 21.256C108.205 21.6508 108.267 22.0431 108.387 22.4188C108.407 22.482 108.409 22.5496 108.393 22.614C108.377 22.6784 108.344 22.737 108.297 22.7831C107.658 23.4004 107.149 24.143 106.803 24.9657C106.457 25.7884 106.28 26.6739 106.284 27.568C106.285 28.7388 106.592 29.8885 107.174 30.9006C107.755 31.9127 108.591 32.7513 109.596 33.3313C110.601 33.9114 111.74 34.2123 112.896 34.2036C114.053 34.1949 115.187 33.8769 116.184 33.2819C116.236 33.2465 116.298 33.2265 116.361 33.2242Z" fill="#FF725E"/>
<path d="M125.343 21.6292C125.345 22.8663 124.928 24.0666 124.161 25.0297C123.731 25.5665 123.384 26.1664 123.132 26.8088C123.03 27.0715 122.853 27.2972 122.623 27.4568C122.393 27.6165 122.121 27.7027 121.842 27.7044H118.092C117.813 27.7034 117.541 27.6178 117.311 27.4586C117.081 27.2995 116.904 27.0742 116.802 26.8118C116.542 26.1571 116.19 25.5436 115.758 24.9902C114.941 23.9451 114.536 22.6309 114.621 21.3013C114.714 19.8975 115.341 18.5848 116.371 17.6397C117.401 16.6946 118.753 16.1909 120.143 16.2346C121.532 16.2782 122.851 16.8659 123.821 17.8739C124.791 18.8818 125.336 20.2314 125.343 21.6384V21.6292Z" fill="#F8F8F8"/>
<path d="M121.842 28.0568H118.092C117.744 28.0571 117.403 27.9509 117.115 27.7521C116.827 27.5533 116.605 27.2711 116.478 26.9425C116.232 26.3157 115.896 25.7286 115.482 25.1998C114.817 24.3441 114.405 23.316 114.291 22.2335C114.178 21.1511 114.368 20.0582 114.841 19.0804C115.313 18.1026 116.049 17.2796 116.963 16.7058C117.877 16.132 118.932 15.8307 120.008 15.8365C121.083 15.8423 122.136 16.1551 123.043 16.7388C123.951 17.3225 124.678 18.1535 125.14 19.1363C125.603 20.1192 125.782 21.2141 125.657 22.2952C125.532 23.3764 125.108 24.3999 124.434 25.2484C124.025 25.7586 123.696 26.3289 123.456 26.9395C123.33 27.2686 123.108 27.5515 122.82 27.7509C122.532 27.9502 122.191 28.0569 121.842 28.0568ZM119.982 16.55C119.859 16.55 119.736 16.55 119.613 16.55C118.706 16.6168 117.833 16.9321 117.089 17.4623C116.345 17.9926 115.757 18.7176 115.389 19.5599C115.021 20.4022 114.887 21.3299 115 22.2437C115.113 23.1575 115.469 24.023 116.031 24.7474C116.485 25.331 116.853 25.9772 117.126 26.6662C117.202 26.8633 117.335 27.0326 117.507 27.1523C117.679 27.272 117.883 27.3364 118.092 27.3372H121.842C122.052 27.3362 122.256 27.2713 122.428 27.1511C122.6 27.0308 122.733 26.8608 122.808 26.6632C123.074 25.9883 123.439 25.3578 123.891 24.793C124.61 23.8937 125 22.7708 124.995 21.6142C124.994 20.9172 124.852 20.2278 124.578 19.5886C124.303 18.9494 123.902 18.374 123.399 17.898C122.471 17.0246 121.249 16.5425 119.982 16.55Z" fill="#FF725E"/>
<path d="M121.602 28.588H118.353C118.12 28.588 117.93 28.7797 117.93 29.0161V29.2529C117.93 29.4893 118.12 29.681 118.353 29.681H121.602C121.836 29.681 122.025 29.4893 122.025 29.2529V29.0161C122.025 28.7797 121.836 28.588 121.602 28.588Z" fill="#FF725E"/>
<path d="M121.005 30.0575H118.953C118.719 30.0575 118.53 30.2492 118.53 30.4856V30.7224C118.53 30.9588 118.719 31.1505 118.953 31.1505H121.005C121.238 31.1505 121.428 30.9588 121.428 30.7224V30.4856C121.428 30.2492 121.238 30.0575 121.005 30.0575Z" fill="#FF725E"/>
</svg>
