<svg width="3178" height="3164" viewBox="0 0 3178 3164" fill="none" xmlns="http://www.w3.org/2000/svg">
<path d="M1.63907 -12.7367L1156.65 -12.8706V218.586H232.875L232.608 2931.99L1157.16 2932.14L1157.33 3163.37L0 3164L1.63907 -12.7367Z" fill="#131212"/>
<path d="M2020.35 2931.51L2020.19 3162.74L3177.5 3163.37L3175.87 -13.3663L2020.87 -13.5002V217.956H2944.65L2944.91 2931.36L2020.35 2931.51Z" fill="#131212"/>
<path d="M1195.91 2070.33C1239.92 2116.27 1294.78 2152.21 1360.5 2178.12H1360.5C1426.22 2204.04 1502.51 2217 1589.36 2217C1675.02 2217 1750.71 2204.03 1816.44 2178.12C1882.18 2152.21 1937.03 2116.28 1981.03 2070.33C2025.04 2024.38 2058.19 1970.19 2080.5 1907.75C2102.8 1845.31 2113.95 1777 2113.95 1702.77V934.064H1839.34V1692.16C1839.34 1731.05 1833.18 1766.98 1820.84 1799.96C1808.51 1832.93 1791.2 1861.51 1768.91 1885.66C1746.66 1909.79 1719.7 1929.03 1689.7 1942.22C1659.18 1955.75 1625.74 1962.52 1589.36 1962.52C1552.97 1962.54 1519.22 1955.76 1488.14 1942.22C1457.79 1929.2 1430.5 1909.93 1408.04 1885.66C1385.74 1861.51 1368.43 1832.95 1356.1 1799.96C1343.78 1766.98 1337.62 1731.04 1337.62 1692.16V934.064H1063V1702.77C1063.01 1776.99 1074.16 1845.31 1096.45 1907.75C1118.74 1970.19 1151.89 2024.38 1195.91 2070.33Z" fill="#131212"/>
</svg>
