<svg width="551" height="452" viewBox="0 0 551 452" fill="none" xmlns="http://www.w3.org/2000/svg">
<path d="M547.839 429.455H21.083V451.066H547.839V429.455Z" fill="#FF725E"/>
<path opacity="0.5" d="M547.839 429.455H21.083V451.066H547.839V429.455Z" fill="white"/>
<path d="M145.303 197.021C142.727 197.861 140.197 198.84 137.726 199.952C139.077 198.966 140.427 197.939 141.778 196.899C147.791 192.063 153.514 186.876 158.918 181.367C152.577 187.526 145.807 193.227 138.658 198.425C139.643 196.713 140.51 194.935 141.251 193.104C142.602 189.741 142.845 186.351 139.644 184.554C135.686 182.339 130.905 185.648 132.161 191.307C132.928 194.467 134.422 197.404 136.524 199.884C131.858 203.114 126.985 206.033 121.937 208.623L121.464 208.866C122.531 207.017 123.474 205.1 124.287 203.126C125.556 199.776 125.881 196.372 122.666 194.59C118.709 192.361 113.927 195.684 115.197 201.343C115.951 204.46 117.411 207.362 119.465 209.825C113.401 212.81 107.134 215.349 100.894 218.105L99.9886 218.51C101.206 217.202 102.339 215.817 103.379 214.363C105.405 211.392 106.499 208.177 103.797 205.678C100.475 202.599 95.0316 204.706 94.9506 210.541C94.9542 213.761 95.7031 216.937 97.1387 219.82C91.2994 222.548 85.7515 225.861 80.5796 229.707L80.4175 229.842C81.1171 228.733 81.7573 227.588 82.3355 226.411C83.8617 223.156 84.429 219.806 81.3495 217.767C80.7237 217.337 80.0086 217.054 79.2577 216.94C78.5069 216.825 77.74 216.883 77.0146 217.108C76.2892 217.333 75.6243 217.719 75.0697 218.238C74.5151 218.757 74.0854 219.395 73.8128 220.104C73.4069 219.47 72.8559 218.942 72.2056 218.564C69.1126 216.781 66.0736 218.712 63.4668 221.441C62.7915 222.156 62.1161 222.926 61.5354 223.683C63.5462 218.102 66.0739 212.721 69.0855 207.61C71.9535 208.863 75.046 209.52 78.1755 209.541C84.3344 209.541 86.9277 204.409 83.9022 201.221C81.444 198.642 77.9864 199.628 74.7178 201.518C73.6415 202.146 72.6 202.831 71.5978 203.571C74.7288 198.856 78.2822 194.434 82.2139 190.362C84.7903 192.446 87.7842 193.952 90.9932 194.779C96.9766 196.251 100.731 191.915 98.5704 188.093C96.8145 184.986 93.1677 185.108 89.5885 186.148C87.8753 186.66 86.197 187.283 84.5641 188.012C86.1984 186.418 87.8867 184.892 89.602 183.379C91.8441 181.461 94.1672 179.611 96.5309 177.801C99.0722 179.829 102.013 181.297 105.162 182.11C111.145 183.582 114.9 179.246 112.739 175.424C110.983 172.317 107.336 172.439 103.743 173.479C102.906 173.722 102.055 174.019 101.231 174.33C104.351 172.101 107.512 169.927 110.686 167.766L113.617 165.753C116.258 167.965 119.358 169.562 122.693 170.426C128.676 171.899 132.445 167.563 130.284 163.741C128.514 160.634 124.881 160.756 121.288 161.796C119.875 162.228 118.484 162.728 117.115 163.295L118.925 161.944C120.032 161.147 121.14 160.337 122.22 159.486C123.571 158.473 124.854 157.352 126.164 156.271C126.921 155.677 127.636 155.042 128.352 154.394C131.004 156.63 134.124 158.241 137.483 159.108C143.466 160.58 147.221 156.244 145.06 152.422C143.304 149.316 139.657 149.437 136.078 150.477C134.071 151.097 132.104 151.842 130.189 152.706C132.634 150.437 134.998 148.073 137.24 145.615C137.388 145.439 137.523 145.264 137.685 145.102C138.644 144.035 139.59 142.954 140.508 141.833C141.427 140.712 142.615 139.24 143.615 137.889C147.719 132.502 151.098 126.598 153.664 120.33C150.975 126.524 147.482 132.336 143.277 137.619C139.118 142.923 134.474 147.829 129.406 152.274L128.852 152.746C130.003 150.786 131.023 148.751 131.905 146.655C133.188 143.305 133.498 139.901 130.284 138.119C126.34 135.89 121.545 139.213 122.815 144.872C123.63 148.223 125.258 151.322 127.555 153.894L126.367 154.921L125.016 156.082C124.233 156.717 123.422 157.325 122.612 157.933C122.18 158.257 121.761 158.595 121.261 158.919C120.113 159.77 118.952 160.594 117.777 161.404L116.088 162.552L114.17 163.903C115.291 161.989 116.275 159.999 117.115 157.946C118.398 154.583 118.709 151.193 115.508 149.41C111.55 147.182 106.755 150.504 108.025 156.163C108.808 159.414 110.36 162.43 112.55 164.956L111.199 165.875L105.945 169.319L104.905 169.994L101.974 171.953L100.704 172.803C99.3538 173.735 98.0031 174.681 96.6524 175.653C97.7377 173.71 98.6855 171.692 99.4888 169.616C100.839 166.266 101.083 162.863 97.8815 161.08C93.9241 158.851 89.1428 162.174 90.4124 167.833C91.2058 171.127 92.7914 174.178 95.0316 176.72C92.7355 178.409 90.4664 180.138 88.2784 181.947C86.6711 183.298 85.0908 184.649 83.5376 186.107C84.2143 184.856 84.8185 183.566 85.3474 182.245C86.6171 178.881 86.9412 175.491 83.7267 173.708C79.7692 171.48 74.9879 174.802 76.2575 180.462C77.0113 183.579 78.4716 186.481 80.5256 188.944C76.1511 193.291 72.2111 198.054 68.7614 203.166C69.153 201.692 69.4508 200.194 69.6528 198.682C70.085 195.116 69.5718 191.767 66.0195 190.794C61.6434 189.592 57.8076 193.968 60.4143 199.182C61.9139 202.052 64.0592 204.535 66.6814 206.435C63.279 211.992 60.4377 217.874 58.1992 223.993C58.1408 222.713 58.0146 221.438 57.8211 220.171C57.2133 216.619 55.7816 213.553 52.0943 213.62C47.5561 213.715 45.1114 219.023 49.0958 223.264C51.2207 225.479 53.8143 227.192 56.6865 228.275C55.1504 232.999 53.901 237.812 52.9452 242.686C52.7831 243.456 52.6616 244.226 52.513 244.996C52.3509 245.145 52.1888 245.293 52.0403 245.455C51.8782 244.793 51.6891 244.105 51.473 243.47C50.3384 240.066 48.4475 237.243 44.8142 237.892C40.3571 238.675 38.7498 244.267 43.342 247.873C45.6759 249.654 48.3662 250.912 51.2299 251.56C51.2299 251.695 51.3379 251.817 51.4054 251.952C50.9057 255.612 50.5275 259.3 50.2979 263C50.1223 265.702 50.0278 268.525 49.9737 271.293C46.1109 271.293 43.3825 275.534 46.0433 280.127C47.1661 282.031 48.6049 283.73 50.2979 285.151C50.6221 290.351 51.1353 295.551 51.8241 300.711C51.2779 300.206 50.6095 299.851 49.8848 299.683C49.16 299.515 48.404 299.539 47.6911 299.752C45.26 300.414 44.1659 302.372 43.7742 304.776C42.9091 305.671 42.4249 306.867 42.4236 308.112C40.6137 305.411 38.8984 302.71 37.2371 299.86C39.7731 297.916 41.8754 295.464 43.4096 292.661C46.3135 287.258 43.0314 282.517 38.8038 283.665C35.3461 284.611 34.5898 288.123 34.7518 291.891C34.8059 293.32 34.9411 294.745 35.157 296.159L33.3742 293.025C31.8885 290.324 30.6729 287.623 29.2142 284.922C28.863 284.26 28.5523 283.571 28.2687 282.896C31.1142 281.462 33.6303 279.452 35.6568 276.993C39.5332 272.212 37.1965 266.958 32.8204 267.295C29.2547 267.579 27.8365 270.888 27.2422 274.616C27.0106 276.241 26.8663 277.878 26.81 279.519L25.5404 276.588C22.8363 269.939 20.611 263.105 18.8816 256.139C22.1025 254.998 25.028 253.152 27.4448 250.736C31.7804 246.347 29.984 240.904 25.5944 240.796C22.0287 240.715 20.2863 243.862 19.3138 247.549C18.8372 249.506 18.4809 251.491 18.2468 253.492C17.3014 249.494 16.491 245.442 15.8156 241.336C15.3564 238.824 15.0593 236.271 14.7486 233.732C18.2106 233.046 21.4713 231.581 24.2843 229.45C29.1466 225.668 28.0796 219.995 23.7305 219.361C20.2053 218.807 18.0712 221.711 16.6395 225.209C15.8013 227.415 15.0977 229.671 14.5325 231.962C14.2624 229.018 13.9517 226.06 13.8167 223.102C13.4115 216.995 13.4115 210.867 13.8167 204.76C13.2001 210.862 12.988 216.999 13.1819 223.129C13.1819 225.952 13.425 228.761 13.6006 231.584C12.8289 229.665 11.9264 227.801 10.8992 226.006C9.06235 222.913 6.60415 220.603 3.2005 221.954C-1.00004 223.683 -1.36472 229.491 3.90284 232.03C6.99235 233.449 10.3814 234.093 13.7761 233.907C14.0193 236.433 14.2354 238.945 14.6135 241.444C15.1403 245.496 15.8156 249.386 16.6125 253.316C15.7482 251.81 14.7872 250.362 13.7356 248.981C11.507 246.158 8.77871 244.159 5.63168 245.982C1.70127 248.238 2.07946 254.086 7.63066 255.882C10.7718 256.858 14.0988 257.081 17.3419 256.531C18.8828 263.573 20.9092 270.501 23.4063 277.263L24.2032 279.289C23.4886 278.343 22.7173 277.441 21.8936 276.588C19.3949 273.995 16.491 272.279 13.479 274.427C9.7917 277.128 10.7777 282.801 16.4504 284.071C19.5812 284.704 22.8156 284.612 25.905 283.8C26.1887 284.489 26.4723 285.151 26.81 285.853C28.1606 288.636 29.3627 291.486 30.7809 294.214L31.956 296.578C31.2536 295.97 30.5243 295.389 29.7679 294.849C26.8235 292.782 23.6359 291.648 21.0967 294.309C17.9632 297.591 19.9892 303.047 25.824 303.223C28.8617 303.294 31.8776 302.694 34.6573 301.467C36.3321 304.493 38.0474 307.477 39.9114 310.408C40.6002 311.529 41.262 312.637 42.0454 313.745C40.9858 312.776 39.8671 311.874 38.6958 311.043C35.7513 308.977 32.5638 307.842 30.011 310.503C26.891 313.785 28.917 319.242 34.7518 319.417C38.0867 319.457 41.3832 318.703 44.3685 317.216C45.341 318.566 46.3405 319.917 47.367 321.268C45.1924 323.793 45.9083 328.021 50.3249 329.952C52.47 330.846 54.7563 331.354 57.0782 331.452C57.3483 331.668 57.6185 331.884 57.9156 332.086L58.0507 332.194C60.842 342.622 64.1511 352.896 67.978 363.016C69.5988 367.325 71.3411 371.593 73.1375 375.834H56.9296V439.747H106.458V375.78H80.0934C77.8378 370.85 75.6632 365.866 73.6373 360.828C70.3281 352.562 67.3297 344.161 64.7229 335.639C65.1665 335.769 65.6175 335.873 66.0736 335.949C66.6735 336.071 67.2886 336.098 67.897 336.03L67.1946 331.587H66.7219C66.4402 331.547 66.1607 331.493 65.8845 331.425C65.2605 331.246 64.651 331.02 64.0611 330.749L63.3588 330.425C65.9655 329.517 68.3862 328.144 70.5037 326.373C75.1905 322.321 73.8669 316.783 69.4907 316.311C65.952 315.919 63.953 318.918 62.7374 322.47C62.3728 323.483 62.0756 324.536 61.819 325.563C61.5624 324.617 61.3058 323.672 61.0626 322.726C60.3468 319.931 59.712 317.108 59.0637 314.285C61.8925 313.402 64.5216 311.975 66.8029 310.084C71.4897 306.032 70.1526 300.508 65.7899 300.035C62.2377 299.644 60.2522 302.642 59.0367 306.194C58.672 307.221 58.3613 308.288 58.0912 309.341C57.686 307.288 57.2943 305.222 56.9296 303.155C56.673 301.629 56.4299 300.089 56.2003 298.55C56.1192 296.362 56.0787 294.174 56.1057 291.972C56.1057 290.77 56.1057 289.568 56.2138 288.366C58.8619 289.202 61.6391 289.555 64.4123 289.406C70.5713 289.001 72.8404 283.733 69.6258 280.748C67.0055 278.303 63.6154 279.519 60.4683 281.599C59.0571 282.558 57.704 283.6 56.4164 284.719C56.7957 279.578 57.5769 274.475 58.753 269.457C59.4422 266.5 60.3036 263.587 61.3328 260.731C64.1569 261.705 67.1428 262.122 70.1255 261.96C76.2845 261.569 78.5536 256.301 75.3391 253.303C72.7323 250.871 69.3287 252.074 66.1816 254.167C65.0831 254.922 64.0279 255.738 63.0211 256.612C64.2087 253.818 65.5898 251.11 67.1541 248.508C70.2564 243.258 74.1466 238.516 78.6887 234.447C81.0425 236.619 83.8265 238.271 86.8602 239.296C92.722 241.214 96.7875 237.162 94.9641 233.191C93.4379 229.963 89.8451 229.815 86.1443 230.585C84.7182 230.889 83.3111 231.277 81.9303 231.746L82.0248 231.665C87.0648 227.733 92.496 224.329 98.2327 221.508C100.257 224.158 102.827 226.342 105.769 227.91C111.253 230.733 115.913 227.384 114.697 223.169C113.711 219.739 110.186 219.023 106.418 219.118C104.938 219.198 103.463 219.36 102.001 219.604C108.092 216.727 114.306 214.012 120.302 210.838H120.437C123.122 213.156 126.308 214.82 129.744 215.7C135.727 217.186 139.482 212.837 137.321 208.947C135.565 205.841 131.918 205.976 128.339 207.002C127.326 207.299 126.313 207.664 125.327 208.042C129.332 205.714 133.213 203.181 136.956 200.451L137.267 200.789V200.614C139.978 202.952 143.189 204.638 146.654 205.543C152.624 207.016 156.392 202.68 154.231 198.79C152.529 195.859 148.936 195.981 145.303 197.021ZM50.8652 319.404C49.6361 317.972 48.4745 316.473 47.34 314.96C47.6101 314.717 47.9072 314.447 48.2044 314.15C49.8922 314.676 51.639 314.989 53.4044 315.082V315.365L54.2283 315.19C54.6605 317.324 55.1062 319.444 55.579 321.565C55.0301 320.846 54.3133 320.274 53.4914 319.897C52.6695 319.52 51.7677 319.351 50.8652 319.404ZM55.2683 268.552C54.8496 270.145 54.4984 271.739 54.1608 273.346L53.9582 273.063C53.9582 269.767 54.0077 266.481 54.1068 263.203C54.2013 260.907 54.3634 258.624 54.566 256.328C55.6772 257.46 56.8989 258.478 58.2128 259.367C57.0696 262.373 56.0912 265.439 55.2818 268.552H55.2683ZM60.806 253.424C60.8871 252.83 60.9546 252.222 60.9816 251.628V250.723C61.4678 250.574 61.9676 250.399 62.4538 250.196C61.9136 251.263 61.3463 252.344 60.8195 253.424H60.806ZM67.8429 242.011C67.6096 241.477 67.2702 240.995 66.8453 240.596C66.4205 240.197 65.919 239.888 65.3712 239.688C62.0351 238.337 59.3338 240.769 57.1862 243.875L57.0782 244.024H56.8621C56.6356 243.972 56.4052 243.941 56.1733 243.929C56.1573 243.739 56.1898 243.549 56.2678 243.375C57.1229 238.496 58.2777 233.674 59.7255 228.937C62.8261 229.33 65.9743 229.087 68.9775 228.221C70.8329 227.734 72.4467 226.586 73.5157 224.993C74.1102 227.716 75.2445 230.293 76.8518 232.57C73.529 235.396 70.5138 238.565 67.8564 242.025L67.8429 242.011Z" fill="#FF725E"/>
<path opacity="0.3" d="M145.303 197.021C142.727 197.861 140.197 198.84 137.726 199.952C139.077 198.966 140.427 197.939 141.778 196.899C147.791 192.063 153.514 186.876 158.918 181.367C152.577 187.526 145.807 193.227 138.658 198.425C139.643 196.713 140.51 194.935 141.251 193.104C142.602 189.741 142.845 186.351 139.644 184.554C135.686 182.339 130.905 185.648 132.161 191.307C132.928 194.467 134.422 197.404 136.524 199.884C131.858 203.114 126.985 206.033 121.937 208.623L121.464 208.866C122.531 207.017 123.474 205.1 124.287 203.126C125.556 199.776 125.881 196.372 122.666 194.59C118.709 192.361 113.927 195.684 115.197 201.343C115.951 204.46 117.411 207.362 119.465 209.825C113.401 212.81 107.134 215.349 100.894 218.105L99.9886 218.51C101.206 217.202 102.339 215.817 103.379 214.363C105.405 211.392 106.499 208.177 103.797 205.678C100.475 202.599 95.0316 204.706 94.9506 210.541C94.9542 213.761 95.7031 216.937 97.1387 219.82C91.2994 222.548 85.7515 225.861 80.5796 229.707L80.4175 229.842C81.1171 228.733 81.7573 227.588 82.3355 226.411C83.8617 223.156 84.429 219.806 81.3495 217.767C80.7237 217.337 80.0086 217.054 79.2577 216.94C78.5069 216.825 77.74 216.883 77.0146 217.108C76.2892 217.333 75.6243 217.719 75.0697 218.238C74.5151 218.757 74.0854 219.395 73.8128 220.104C73.4069 219.47 72.8559 218.942 72.2056 218.564C69.1126 216.781 66.0736 218.712 63.4668 221.441C62.7915 222.156 62.1161 222.926 61.5354 223.683C63.5462 218.102 66.0739 212.721 69.0855 207.61C71.9535 208.863 75.046 209.52 78.1755 209.541C84.3344 209.541 86.9277 204.409 83.9022 201.221C81.444 198.642 77.9864 199.628 74.7178 201.518C73.6415 202.146 72.6 202.831 71.5978 203.571C74.7288 198.856 78.2822 194.434 82.2139 190.362C84.7903 192.446 87.7842 193.952 90.9932 194.779C96.9766 196.251 100.731 191.915 98.5704 188.093C96.8145 184.986 93.1677 185.108 89.5885 186.148C87.8753 186.66 86.197 187.283 84.5641 188.012C86.1984 186.418 87.8867 184.892 89.602 183.379C91.8441 181.461 94.1672 179.611 96.5309 177.801C99.0722 179.829 102.013 181.297 105.162 182.11C111.145 183.582 114.9 179.246 112.739 175.424C110.983 172.317 107.336 172.439 103.743 173.479C102.906 173.722 102.055 174.019 101.231 174.33C104.351 172.101 107.512 169.927 110.686 167.766L113.617 165.753C116.258 167.965 119.358 169.562 122.693 170.426C128.676 171.899 132.445 167.563 130.284 163.741C128.514 160.634 124.881 160.756 121.288 161.796C119.875 162.228 118.484 162.728 117.115 163.295L118.925 161.944C120.032 161.147 121.14 160.337 122.22 159.486C123.571 158.473 124.854 157.352 126.164 156.271C126.921 155.677 127.636 155.042 128.352 154.394C131.004 156.63 134.124 158.241 137.483 159.108C143.466 160.58 147.221 156.244 145.06 152.422C143.304 149.316 139.657 149.437 136.078 150.477C134.071 151.097 132.104 151.842 130.189 152.706C132.634 150.437 134.998 148.073 137.24 145.615C137.388 145.439 137.523 145.264 137.685 145.102C138.644 144.035 139.59 142.954 140.508 141.833C141.427 140.712 142.615 139.24 143.615 137.889C147.719 132.502 151.098 126.598 153.664 120.33C150.975 126.524 147.482 132.336 143.277 137.619C139.118 142.923 134.474 147.829 129.406 152.274L128.852 152.746C130.003 150.786 131.023 148.751 131.905 146.655C133.188 143.305 133.498 139.901 130.284 138.119C126.34 135.89 121.545 139.213 122.815 144.872C123.63 148.223 125.258 151.322 127.555 153.894L126.367 154.921L125.016 156.082C124.233 156.717 123.422 157.325 122.612 157.933C122.18 158.257 121.761 158.595 121.261 158.919C120.113 159.77 118.952 160.594 117.777 161.404L116.088 162.552L114.17 163.903C115.291 161.989 116.275 159.999 117.115 157.946C118.398 154.583 118.709 151.193 115.508 149.41C111.55 147.182 106.755 150.504 108.025 156.163C108.808 159.414 110.36 162.43 112.55 164.956L111.199 165.875L105.945 169.319L104.905 169.994L101.974 171.953L100.704 172.803C99.3538 173.735 98.0031 174.681 96.6524 175.653C97.7377 173.71 98.6855 171.692 99.4888 169.616C100.839 166.266 101.083 162.863 97.8815 161.08C93.9241 158.851 89.1428 162.174 90.4124 167.833C91.2058 171.127 92.7914 174.178 95.0316 176.72C92.7355 178.409 90.4664 180.138 88.2784 181.947C86.6711 183.298 85.0908 184.649 83.5376 186.107C84.2143 184.856 84.8185 183.566 85.3474 182.245C86.6171 178.881 86.9412 175.491 83.7267 173.708C79.7692 171.48 74.9879 174.802 76.2575 180.462C77.0113 183.579 78.4716 186.481 80.5256 188.944C76.1511 193.291 72.2111 198.054 68.7614 203.166C69.153 201.692 69.4508 200.194 69.6528 198.682C70.085 195.116 69.5718 191.767 66.0195 190.794C61.6434 189.592 57.8076 193.968 60.4143 199.182C61.9139 202.052 64.0592 204.535 66.6814 206.435C63.279 211.992 60.4377 217.874 58.1992 223.993C58.1408 222.713 58.0146 221.438 57.8211 220.171C57.2133 216.619 55.7816 213.553 52.0943 213.62C47.5561 213.715 45.1114 219.023 49.0958 223.264C51.2207 225.479 53.8143 227.192 56.6865 228.275C55.1504 232.999 53.901 237.812 52.9452 242.686C52.7831 243.456 52.6616 244.226 52.513 244.996C52.3509 245.145 52.1888 245.293 52.0403 245.455C51.8782 244.793 51.6891 244.105 51.473 243.47C50.3384 240.066 48.4475 237.243 44.8142 237.892C40.3571 238.675 38.7498 244.267 43.342 247.873C45.6759 249.654 48.3662 250.912 51.2299 251.56C51.2299 251.695 51.3379 251.817 51.4054 251.952C50.9057 255.612 50.5275 259.3 50.2979 263C50.1223 265.702 50.0278 268.525 49.9737 271.293C46.1109 271.293 43.3825 275.534 46.0433 280.127C47.1661 282.031 48.6049 283.73 50.2979 285.151C50.6221 290.351 51.1353 295.551 51.8241 300.711C51.2779 300.206 50.6095 299.851 49.8848 299.683C49.16 299.515 48.404 299.539 47.6911 299.752C45.26 300.414 44.1659 302.372 43.7742 304.776C42.9091 305.671 42.4249 306.867 42.4236 308.112C40.6137 305.411 38.8984 302.71 37.2371 299.86C39.7731 297.916 41.8754 295.464 43.4096 292.661C46.3135 287.258 43.0314 282.517 38.8038 283.665C35.3461 284.611 34.5898 288.123 34.7518 291.891C34.8059 293.32 34.9411 294.745 35.157 296.159L33.3742 293.025C31.8885 290.324 30.6729 287.623 29.2142 284.922C28.863 284.26 28.5523 283.571 28.2687 282.896C31.1142 281.462 33.6303 279.452 35.6568 276.993C39.5332 272.212 37.1965 266.958 32.8204 267.295C29.2547 267.579 27.8365 270.888 27.2422 274.616C27.0106 276.241 26.8663 277.878 26.81 279.519L25.5404 276.588C22.8363 269.939 20.611 263.105 18.8816 256.139C22.1025 254.998 25.028 253.152 27.4448 250.736C31.7804 246.347 29.984 240.904 25.5944 240.796C22.0287 240.715 20.2863 243.862 19.3138 247.549C18.8372 249.506 18.4809 251.491 18.2468 253.492C17.3014 249.494 16.491 245.442 15.8156 241.336C15.3564 238.824 15.0593 236.271 14.7486 233.732C18.2106 233.046 21.4713 231.581 24.2843 229.45C29.1466 225.668 28.0796 219.995 23.7305 219.361C20.2053 218.807 18.0712 221.711 16.6395 225.209C15.8013 227.415 15.0977 229.671 14.5325 231.962C14.2624 229.018 13.9517 226.06 13.8167 223.102C13.4115 216.995 13.4115 210.867 13.8167 204.76C13.2001 210.862 12.988 216.999 13.1819 223.129C13.1819 225.952 13.425 228.761 13.6006 231.584C12.8289 229.665 11.9264 227.801 10.8992 226.006C9.06235 222.913 6.60415 220.603 3.2005 221.954C-1.00004 223.683 -1.36472 229.491 3.90284 232.03C6.99235 233.449 10.3814 234.093 13.7761 233.907C14.0193 236.433 14.2354 238.945 14.6135 241.444C15.1403 245.496 15.8156 249.386 16.6125 253.316C15.7482 251.81 14.7872 250.362 13.7356 248.981C11.507 246.158 8.77871 244.159 5.63168 245.982C1.70127 248.238 2.07946 254.086 7.63066 255.882C10.7718 256.858 14.0988 257.081 17.3419 256.531C18.8828 263.573 20.9092 270.501 23.4063 277.263L24.2032 279.289C23.4886 278.343 22.7173 277.441 21.8936 276.588C19.3949 273.995 16.491 272.279 13.479 274.427C9.7917 277.128 10.7777 282.801 16.4504 284.071C19.5812 284.704 22.8156 284.612 25.905 283.8C26.1887 284.489 26.4723 285.151 26.81 285.853C28.1606 288.636 29.3627 291.486 30.7809 294.214L31.956 296.578C31.2536 295.97 30.5243 295.389 29.7679 294.849C26.8235 292.782 23.6359 291.648 21.0967 294.309C17.9632 297.591 19.9892 303.047 25.824 303.223C28.8617 303.294 31.8776 302.694 34.6573 301.467C36.3321 304.493 38.0474 307.477 39.9114 310.408C40.6002 311.529 41.262 312.637 42.0454 313.745C40.9858 312.776 39.8671 311.874 38.6958 311.043C35.7513 308.977 32.5638 307.842 30.011 310.503C26.891 313.785 28.917 319.242 34.7518 319.417C38.0867 319.457 41.3832 318.703 44.3685 317.216C45.341 318.566 46.3405 319.917 47.367 321.268C45.1924 323.793 45.9083 328.021 50.3249 329.952C52.47 330.846 54.7563 331.354 57.0782 331.452C57.3483 331.668 57.6185 331.884 57.9156 332.086L58.0507 332.194C60.842 342.622 64.1511 352.896 67.978 363.016C69.5988 367.325 71.3411 371.593 73.1375 375.834H56.9296V439.747H106.458V375.78H80.0934C77.8378 370.85 75.6632 365.866 73.6373 360.828C70.3281 352.562 67.3297 344.161 64.7229 335.639C65.1665 335.769 65.6175 335.873 66.0736 335.949C66.6735 336.071 67.2886 336.098 67.897 336.03L67.1946 331.587H66.7219C66.4402 331.547 66.1607 331.493 65.8845 331.425C65.2605 331.246 64.651 331.02 64.0611 330.749L63.3588 330.425C65.9655 329.517 68.3862 328.144 70.5037 326.373C75.1905 322.321 73.8669 316.783 69.4907 316.311C65.952 315.919 63.953 318.918 62.7374 322.47C62.3728 323.483 62.0756 324.536 61.819 325.563C61.5624 324.617 61.3058 323.672 61.0626 322.726C60.3468 319.931 59.712 317.108 59.0637 314.285C61.8925 313.402 64.5216 311.975 66.8029 310.084C71.4897 306.032 70.1526 300.508 65.7899 300.035C62.2377 299.644 60.2522 302.642 59.0367 306.194C58.672 307.221 58.3613 308.288 58.0912 309.341C57.686 307.288 57.2943 305.222 56.9296 303.155C56.673 301.629 56.4299 300.089 56.2003 298.55C56.1192 296.362 56.0787 294.174 56.1057 291.972C56.1057 290.77 56.1057 289.568 56.2138 288.366C58.8619 289.202 61.6391 289.555 64.4123 289.406C70.5713 289.001 72.8404 283.733 69.6258 280.748C67.0055 278.303 63.6154 279.519 60.4683 281.599C59.0571 282.558 57.704 283.6 56.4164 284.719C56.7957 279.578 57.5769 274.475 58.753 269.457C59.4422 266.5 60.3036 263.587 61.3328 260.731C64.1569 261.705 67.1428 262.122 70.1255 261.96C76.2845 261.569 78.5536 256.301 75.3391 253.303C72.7323 250.871 69.3287 252.074 66.1816 254.167C65.0831 254.922 64.0279 255.738 63.0211 256.612C64.2087 253.818 65.5898 251.11 67.1541 248.508C70.2564 243.258 74.1466 238.516 78.6887 234.447C81.0425 236.619 83.8265 238.271 86.8602 239.296C92.722 241.214 96.7875 237.162 94.9641 233.191C93.4379 229.963 89.8451 229.815 86.1443 230.585C84.7182 230.889 83.3111 231.277 81.9303 231.746L82.0248 231.665C87.0648 227.733 92.496 224.329 98.2327 221.508C100.257 224.158 102.827 226.342 105.769 227.91C111.253 230.733 115.913 227.384 114.697 223.169C113.711 219.739 110.186 219.023 106.418 219.118C104.938 219.198 103.463 219.36 102.001 219.604C108.092 216.727 114.306 214.012 120.302 210.838H120.437C123.122 213.156 126.308 214.82 129.744 215.7C135.727 217.186 139.482 212.837 137.321 208.947C135.565 205.841 131.918 205.976 128.339 207.002C127.326 207.299 126.313 207.664 125.327 208.042C129.332 205.714 133.213 203.181 136.956 200.451L137.267 200.789V200.614C139.978 202.952 143.189 204.638 146.654 205.543C152.624 207.016 156.392 202.68 154.231 198.79C152.529 195.859 148.936 195.981 145.303 197.021ZM50.8652 319.404C49.6361 317.972 48.4745 316.473 47.34 314.96C47.6101 314.717 47.9072 314.447 48.2044 314.15C49.8922 314.676 51.639 314.989 53.4044 315.082V315.365L54.2283 315.19C54.6605 317.324 55.1062 319.444 55.579 321.565C55.0301 320.846 54.3133 320.274 53.4914 319.897C52.6695 319.52 51.7677 319.351 50.8652 319.404ZM55.2683 268.552C54.8496 270.145 54.4984 271.739 54.1608 273.346L53.9582 273.063C53.9582 269.767 54.0077 266.481 54.1068 263.203C54.2013 260.907 54.3634 258.624 54.566 256.328C55.6772 257.46 56.8989 258.478 58.2128 259.367C57.0696 262.373 56.0912 265.439 55.2818 268.552H55.2683ZM60.806 253.424C60.8871 252.83 60.9546 252.222 60.9816 251.628V250.723C61.4678 250.574 61.9676 250.399 62.4538 250.196C61.9136 251.263 61.3463 252.344 60.8195 253.424H60.806ZM67.8429 242.011C67.6096 241.477 67.2702 240.995 66.8453 240.596C66.4205 240.197 65.919 239.888 65.3712 239.688C62.0351 238.337 59.3338 240.769 57.1862 243.875L57.0782 244.024H56.8621C56.6356 243.972 56.4052 243.941 56.1733 243.929C56.1573 243.739 56.1898 243.549 56.2678 243.375C57.1229 238.496 58.2777 233.674 59.7255 228.937C62.8261 229.33 65.9743 229.087 68.9775 228.221C70.8329 227.734 72.4467 226.586 73.5157 224.993C74.1102 227.716 75.2445 230.293 76.8518 232.57C73.529 235.396 70.5138 238.565 67.8564 242.025L67.8429 242.011Z" fill="white"/>
<path d="M478.335 380.818C478.335 380.818 471.798 366.218 470.231 364.718C468.664 363.219 456.143 358.681 452.672 347.16C449.201 335.639 442.61 304.884 459.223 306.897C475.836 308.909 471.798 341.122 477.835 340.109C483.872 339.096 472.811 287.785 483.373 280.68C493.935 273.576 511.048 280.181 509.035 307.356C507.023 334.531 502.998 350.118 506.523 348.618C510.048 347.119 520.111 341.568 520.111 353.143C520.111 364.718 510.548 372.768 505.01 373.268C499.473 373.768 496.906 374.281 496.906 374.281V381.818L478.335 380.818Z" fill="#2E353A" stroke="#2E353A" stroke-linecap="round" stroke-linejoin="round"/>
<path d="M473.012 352.522C469.217 348.929 465.732 345.444 464.125 342.243C460.937 335.855 458.533 317.932 458.533 317.932" stroke="white" stroke-width="0.5" stroke-linecap="round" stroke-linejoin="round"/>
<path d="M452.874 326.684C455.386 337.151 455.737 345.039 463.328 354.224C467.38 359.194 478.104 363.408 479.306 367.798C480.382 373.08 481.189 378.413 481.724 383.776L487.721 384.181C487.721 384.181 488.937 373.781 485.506 366.366" stroke="white" stroke-width="0.5" stroke-linecap="round" stroke-linejoin="round"/>
<path d="M454.549 309.895C454.549 309.895 450.065 313.339 451.659 321.821" stroke="white" stroke-width="0.5" stroke-linecap="round" stroke-linejoin="round"/>
<path d="M483.278 340.785L480.9 344.634" stroke="white" stroke-width="0.5" stroke-linecap="round" stroke-linejoin="round"/>
<path d="M484.101 339.448L483.277 340.785" stroke="white" stroke-width="0.5" stroke-linecap="round" stroke-linejoin="round"/>
<path d="M492.084 281.937C492.084 281.937 482.899 281.545 482.899 290.324C482.899 297.739 485.169 323.051 484.682 334.626" stroke="white" stroke-width="0.5" stroke-linecap="round" stroke-linejoin="round"/>
<path d="M499.284 353.859C499.067 356.871 498.932 359.005 498.932 359.815C498.932 364.205 510.102 347.43 515.302 347.038C515.302 347.038 520.489 346.633 518.49 356.223C517.763 359.783 516.078 363.076 513.617 365.749C511.156 368.422 508.012 370.373 504.524 371.391C500.121 372.593 496.528 370.594 495.731 372.593C495.095 374.942 494.693 377.349 494.529 379.778" stroke="white" stroke-width="0.5" stroke-linecap="round" stroke-linejoin="round"/>
<path d="M501.89 290.27C502.584 293.166 502.911 296.139 502.862 299.117C502.862 308.463 501.079 330.506 499.891 345.39" stroke="white" stroke-width="0.5" stroke-linecap="round" stroke-linejoin="round"/>
<path d="M497.271 282.747C498.47 283.434 499.442 284.458 500.066 285.691" stroke="white" stroke-width="0.5" stroke-linecap="round" stroke-linejoin="round"/>
<path d="M490.774 351.428L490.49 357.02" stroke="white" stroke-width="0.5" stroke-linecap="round" stroke-linejoin="round"/>
<path d="M492.881 287.528C492.881 287.528 490.49 288.325 491.287 296.713C491.949 303.642 491.287 335.098 490.977 345.836" stroke="white" stroke-width="0.5" stroke-linecap="round" stroke-linejoin="round"/>
<path d="M518.044 349.429C514.618 355.839 509.132 360.907 502.47 363.813C491.665 368.203 491.287 366.204 491.287 370.567C491.287 374.929 490.882 382.952 490.882 382.952" stroke="white" stroke-width="0.5" stroke-linecap="round" stroke-linejoin="round"/>
<path d="M503.065 439.707H468.164L460.695 389.152H510.535L503.065 439.707Z" fill="#FF725E" stroke="#2E353A" stroke-linecap="round" stroke-linejoin="round"/>
<path d="M514.815 381.183H456.413V394.716H514.815V381.183Z" fill="#FF725E" stroke="#2E353A" stroke-linecap="round" stroke-linejoin="round"/>
<path d="M311.434 405.67V378.225H230.61V405.67C230.597 414.61 227.571 423.285 222.02 430.293L218.481 434.75H323.562L320.024 430.293C314.473 423.285 311.447 414.61 311.434 405.67Z" fill="white" stroke="#2E353A" stroke-linecap="round" stroke-linejoin="round"/>
<path d="M225.64 424.89H316.404C313.145 419.008 311.435 412.394 311.433 405.67V378.225H230.61V405.67C230.608 412.394 228.898 419.008 225.64 424.89Z" fill="#FF725E"/>
<path d="M421.985 143.238H120.045C113.72 143.238 108.592 148.366 108.592 154.691V375.429C108.592 381.755 113.72 386.883 120.045 386.883H421.985C428.31 386.883 433.438 381.755 433.438 375.429V154.691C433.438 148.366 428.31 143.238 421.985 143.238Z" fill="#2E353A" stroke="#2E353A" stroke-linecap="round" stroke-linejoin="round"/>
<path d="M108.592 349.01H433.452V375.415C433.452 378.453 432.245 381.366 430.097 383.514C427.949 385.662 425.036 386.869 421.998 386.869H120.059C117.021 386.869 114.108 385.662 111.96 383.514C109.812 381.366 108.605 378.453 108.605 375.415V349.01H108.592Z" fill="white" stroke="#2E353A" stroke-linecap="round" stroke-linejoin="round"/>
<path d="M417.109 158.405H124.935V330.533H417.109V158.405Z" fill="white" stroke="#2E353A" stroke-linecap="round" stroke-linejoin="round"/>
<path d="M277.019 367.946C277.019 366.76 276.668 365.601 276.009 364.615C275.35 363.628 274.413 362.86 273.317 362.406C272.221 361.952 271.016 361.833 269.852 362.065C268.689 362.296 267.621 362.867 266.782 363.706C265.943 364.545 265.372 365.613 265.141 366.776C264.909 367.94 265.028 369.146 265.482 370.241C265.936 371.337 266.704 372.274 267.691 372.933C268.677 373.592 269.836 373.943 271.022 373.943C272.613 373.943 274.138 373.311 275.263 372.187C276.387 371.062 277.019 369.537 277.019 367.946Z" fill="#2E353A" stroke="#2E353A" stroke-linecap="round" stroke-linejoin="round"/>
<path d="M323.576 434.804H218.481V439.707H323.576V434.804Z" fill="white" stroke="#2E353A" stroke-linecap="round" stroke-linejoin="round"/>
<path d="M414.367 170.534H127.23V185.621H414.367V170.534Z" fill="white" stroke="#2E353A" stroke-linecap="round" stroke-linejoin="round"/>
<path d="M174.612 185.621L171.167 176.302H127.23V185.621V197.98V323.199H414.367V185.621H174.612Z" fill="#FF725E" stroke="#2E353A" stroke-linecap="round" stroke-linejoin="round"/>
<path d="M204.516 253.843H339.149" stroke="#2E353A" stroke-width="2" stroke-linecap="round" stroke-linejoin="round"/>
<path d="M204.516 267.079H339.149" stroke="#2E353A" stroke-width="2" stroke-linecap="round" stroke-linejoin="round"/>
<path d="M204.516 280.316H339.149" stroke="#2E353A" stroke-width="2" stroke-linecap="round" stroke-linejoin="round"/>
<path d="M204.516 293.566H339.149" stroke="#2E353A" stroke-width="2" stroke-linecap="round" stroke-linejoin="round"/>
<path d="M332.031 218.55H210.026C208.771 218.552 207.527 218.306 206.366 217.828C205.205 217.349 204.15 216.646 203.261 215.759C202.371 214.872 201.665 213.819 201.183 212.66C200.701 211.5 200.452 210.257 200.45 209.001C200.448 207.745 200.694 206.502 201.173 205.341C201.652 204.18 202.355 203.125 203.241 202.235C204.128 201.346 205.181 200.64 206.341 200.158C207.5 199.676 208.744 199.427 209.999 199.425H332.031C333.289 199.423 334.535 199.67 335.698 200.15C336.861 200.631 337.917 201.336 338.806 202.226C339.696 203.115 340.401 204.172 340.882 205.334C341.363 206.497 341.609 207.743 341.607 209.001C341.606 210.257 341.356 211.5 340.874 212.66C340.392 213.819 339.686 214.872 338.797 215.759C337.908 216.646 336.853 217.349 335.692 217.828C334.531 218.306 333.287 218.552 332.031 218.55Z" fill="white" stroke="#2E353A" stroke-linecap="round" stroke-linejoin="round"/>
<path d="M332.03 218.55H315.363V199.398H332.03C333.288 199.396 334.535 199.643 335.697 200.123C336.86 200.604 337.916 201.309 338.806 202.199C339.695 203.088 340.401 204.145 340.881 205.307C341.362 206.47 341.608 207.716 341.607 208.974C341.608 210.232 341.362 211.478 340.881 212.641C340.401 213.803 339.695 214.86 338.806 215.749C337.916 216.639 336.86 217.344 335.697 217.825C334.535 218.306 333.288 218.552 332.03 218.55Z" fill="#2E353A" stroke="#2E353A" stroke-linecap="round" stroke-linejoin="round"/>
<path d="M328.316 201.829C327.523 201.086 326.526 200.594 325.453 200.417C324.381 200.24 323.279 200.385 322.289 200.834C321.298 201.283 320.463 202.015 319.889 202.939C319.315 203.862 319.028 204.935 319.064 206.022C319.099 207.109 319.457 208.161 320.091 209.045C320.725 209.928 321.606 210.604 322.624 210.987C323.642 211.369 324.751 211.441 325.81 211.193C326.868 210.946 327.83 210.39 328.573 209.595C329.068 209.071 329.454 208.455 329.71 207.781C329.966 207.107 330.086 206.389 330.063 205.668C330.04 204.948 329.876 204.239 329.578 203.583C329.281 202.926 328.856 202.335 328.33 201.843L328.316 201.829ZM327.776 208.853C327.179 209.486 326.409 209.928 325.561 210.124C324.714 210.319 323.827 210.259 323.013 209.952C322.2 209.644 321.496 209.102 320.99 208.395C320.484 207.687 320.198 206.846 320.17 205.976C320.142 205.107 320.372 204.248 320.831 203.51C321.29 202.771 321.958 202.184 322.75 201.825C323.542 201.465 324.422 201.348 325.281 201.488C326.139 201.628 326.937 202.019 327.573 202.613C328.427 203.413 328.928 204.521 328.966 205.691C329.004 206.861 328.576 207.998 327.776 208.853Z" fill="white"/>
<path d="M332.45 211.594C332.329 211.477 332.177 211.396 332.012 211.363C331.847 211.329 331.675 211.344 331.518 211.405L329.533 209.541C329.432 209.442 329.296 209.387 329.155 209.387C329.013 209.387 328.877 209.442 328.776 209.541L328.601 209.73C328.504 209.835 328.45 209.973 328.45 210.115C328.45 210.258 328.504 210.396 328.601 210.5L330.559 212.337C330.501 212.504 330.492 212.685 330.533 212.857C330.573 213.029 330.662 213.186 330.789 213.31L334.166 216.619C334.388 216.84 334.689 216.964 335.003 216.964C335.317 216.964 335.618 216.84 335.84 216.619C336.061 216.396 336.185 216.095 336.185 215.781C336.185 215.468 336.061 215.167 335.84 214.944L332.45 211.594Z" fill="white"/>
<path d="M367.324 276.318C367.718 277.296 368.305 278.185 369.05 278.932C369.795 279.68 370.682 280.269 371.659 280.667C373.185 281.288 375.225 281.153 377.575 282.477C382.883 285.462 396.133 282.801 405.736 283.827C415.339 284.854 428.279 274.224 428.279 274.224L466.381 276.318V238.499C466.381 238.499 426.617 240.161 418 236.838C409.383 233.516 399.78 226.573 395.471 226.897C391.163 227.221 355.708 231.206 355.708 231.206L367.31 276.318H367.324Z" fill="white" stroke="#2E353A" stroke-linecap="round" stroke-linejoin="round"/>
<path d="M357.465 123.829C349.597 124.7 342.165 127.884 336.108 132.979C330.05 138.073 325.64 144.85 323.433 152.452C321.227 160.053 321.325 168.138 323.714 175.684C326.103 183.23 330.676 189.899 336.855 194.846C343.033 199.793 350.54 202.797 358.426 203.477C366.312 204.158 374.223 202.485 381.158 198.67C388.093 194.855 393.741 189.069 397.387 182.043C401.034 175.018 402.515 167.07 401.645 159.202C401.07 153.977 399.471 148.917 396.938 144.311C394.406 139.704 390.991 135.642 386.888 132.357C382.784 129.072 378.074 126.627 373.025 125.164C367.976 123.701 362.689 123.247 357.465 123.829ZM365.406 195.522C359.096 196.223 352.718 195.037 347.082 192.113C341.445 189.19 336.801 184.661 333.738 179.099C330.675 173.537 329.331 167.191 329.874 160.865C330.418 154.538 332.825 148.515 336.792 143.557C340.758 138.599 346.106 134.928 352.159 133.009C358.212 131.09 364.698 131.009 370.797 132.776C376.896 134.543 382.333 138.079 386.423 142.937C390.512 147.795 393.069 153.756 393.77 160.067C394.236 164.257 393.872 168.498 392.698 172.548C391.525 176.598 389.565 180.376 386.931 183.669C384.298 186.961 381.041 189.702 377.348 191.736C373.655 193.77 369.597 195.056 365.406 195.522Z" fill="white" stroke="#2E353A" stroke-linecap="round" stroke-linejoin="round"/>
<path d="M357.248 121.546C349.381 122.417 341.948 125.601 335.891 130.696C329.833 135.791 325.423 142.567 323.217 150.169C321.011 157.771 321.108 165.856 323.497 173.402C325.886 180.948 330.459 187.616 336.638 192.563C342.816 197.51 350.323 200.514 358.209 201.195C366.095 201.875 374.006 200.202 380.941 196.387C387.876 192.572 393.524 186.786 397.17 179.761C400.817 172.736 402.299 164.787 401.428 156.92C400.257 146.372 394.945 136.721 386.66 130.087C378.376 123.454 367.797 120.382 357.248 121.546ZM365.19 193.239C358.879 193.94 352.502 192.754 346.865 189.831C341.228 186.908 336.584 182.379 333.522 176.816C330.459 171.254 329.114 164.909 329.657 158.582C330.201 152.256 332.608 146.233 336.575 141.274C340.542 136.316 345.889 132.645 351.942 130.726C357.995 128.807 364.481 128.726 370.58 130.493C376.679 132.261 382.117 135.797 386.206 140.654C390.295 145.512 392.852 151.473 393.553 157.784C394.019 161.975 393.655 166.216 392.481 170.265C391.308 174.315 389.348 178.094 386.715 181.386C384.081 184.678 380.824 187.42 377.131 189.453C373.438 191.487 369.38 192.773 365.19 193.239Z" fill="white" stroke="#2E353A" stroke-linecap="round" stroke-linejoin="round"/>
<path d="M367.372 201.843L365.48 202.053C363.344 202.289 361.805 204.212 362.041 206.347L365.113 234.082C365.35 236.217 367.272 237.757 369.408 237.52L371.301 237.31C373.436 237.074 374.975 235.151 374.739 233.016L371.667 205.281C371.43 203.146 369.508 201.606 367.372 201.843Z" fill="#FF725E" stroke="#2E353A" stroke-linecap="round" stroke-linejoin="round"/>
<path d="M366.757 224.993L370.809 224.561C372.551 224.374 374.297 224.882 375.667 225.975C377.038 227.067 377.922 228.655 378.129 230.396L384.194 285.246C384.44 287.488 383.786 289.736 382.375 291.497C380.965 293.257 378.913 294.385 376.67 294.633H376.4C375.29 294.757 374.166 294.66 373.092 294.349C372.019 294.038 371.018 293.518 370.146 292.819C369.274 292.12 368.548 291.256 368.011 290.276C367.473 289.297 367.134 288.22 367.013 287.11L360.949 232.273C360.851 231.405 360.926 230.525 361.168 229.686C361.411 228.846 361.817 228.063 362.363 227.38C362.908 226.698 363.583 226.13 364.349 225.709C365.114 225.287 365.956 225.021 366.824 224.925L366.757 224.993Z" fill="#2E353A" stroke="#2E353A" stroke-linecap="round" stroke-linejoin="round"/>
<path d="M372.645 270.699C372.645 270.699 363.042 271.05 361.691 272.712C360.341 274.373 360.584 280.154 363.19 280.816C369.836 282.558 383.964 281.545 384.517 280.356C385.071 279.168 386.206 272.252 383.288 271.51C379.766 270.97 376.208 270.699 372.645 270.699Z" fill="white" stroke="#2E353A" stroke-linecap="round" stroke-linejoin="round"/>
<path d="M369.877 257.301C369.877 257.301 358.707 256.882 356.965 258.894C355.222 260.907 354.885 268.43 357.829 269.565C365.339 272.441 382.236 271.32 383.005 269.835C383.775 268.349 385.45 260.637 382.141 259.394C378.832 258.152 369.877 257.301 369.877 257.301Z" fill="white" stroke="#2E353A" stroke-linecap="round" stroke-linejoin="round"/>
<path d="M368.269 242.173C368.269 242.173 356.33 241.714 354.466 243.875C352.602 246.036 352.237 254.059 355.384 255.275C363.488 258.354 381.047 258.354 381.871 256.76C382.694 255.167 384.91 245.739 381.371 244.402C377.832 243.065 368.269 242.173 368.269 242.173Z" fill="white" stroke="#2E353A" stroke-linecap="round" stroke-linejoin="round"/>
<path d="M361.381 228.018C361.381 228.018 349.441 227.573 347.577 229.72C345.714 231.868 345.268 240.147 348.496 241.12C351.724 242.092 374.158 244.199 374.982 242.619C375.806 241.039 378.021 231.584 374.483 230.247C370.944 228.91 361.381 228.018 361.381 228.018Z" fill="white" stroke="#2E353A" stroke-linecap="round" stroke-linejoin="round"/>
<path d="M400.483 267.741C398.34 267.152 396.309 266.212 394.472 264.959C384.869 258.327 385.193 243.092 385.193 243.092L382.884 242.43C380.976 241.704 379.187 240.698 377.576 239.445C378.349 242.592 378.802 245.81 378.926 249.048C378.892 250.828 378.196 252.531 376.976 253.827C375.755 255.122 374.096 255.918 372.322 256.058C369.337 256.396 368.013 256.72 367.014 252.749C366.014 248.778 361.057 232.867 360.72 230.544C360.422 228.437 363.961 224.682 369.593 223.791C378.251 224.493 386.787 226.911 395.512 226.911C398.548 227.196 401.458 228.266 403.954 230.017" fill="white"/>
<path d="M400.483 267.741C398.34 267.152 396.309 266.212 394.472 264.959C384.869 258.327 385.193 243.092 385.193 243.092L382.884 242.43C380.976 241.704 379.187 240.698 377.576 239.445C378.349 242.592 378.802 245.81 378.926 249.048C378.892 250.828 378.196 252.531 376.976 253.827C375.755 255.122 374.096 255.918 372.322 256.058C369.337 256.396 368.013 256.72 367.014 252.749C366.014 248.778 361.057 232.867 360.72 230.544C360.422 228.437 363.961 224.682 369.593 223.791C378.251 224.493 386.787 226.911 395.512 226.911C398.548 227.196 401.458 228.266 403.954 230.017" stroke="#2E353A" stroke-linecap="round" stroke-linejoin="round"/>
<path d="M409.613 268.579C408.56 268.633 407.505 268.633 406.452 268.579H409.613Z" fill="white"/>
<path d="M409.613 268.579C408.56 268.633 407.505 268.633 406.452 268.579" stroke="#2E353A" stroke-linecap="round" stroke-linejoin="round"/>
<path d="M416.677 267.268C414.384 267.994 412.013 268.448 409.613 268.619L416.677 267.268Z" fill="white"/>
<path d="M416.677 267.268C414.384 267.994 412.013 268.448 409.613 268.619" stroke="#2E353A" stroke-linecap="round" stroke-linejoin="round"/>
<path d="M428.604 262.973H440.53" stroke="#2E353A" stroke-linecap="round" stroke-linejoin="round"/>
<path d="M429.603 266.283H434.573" stroke="#2E353A" stroke-linecap="round" stroke-linejoin="round"/>
<path d="M385.193 243.092C385.193 243.092 391.785 243.092 396.107 239.161" stroke="#2E353A" stroke-linecap="round" stroke-linejoin="round"/>
<path d="M377.427 239.013C377.237 237.214 376.861 235.44 376.306 233.718" stroke="#2E353A" stroke-linecap="round" stroke-linejoin="round"/>
<path d="M366.919 251.007C366.919 251.007 365.663 247.522 367.189 246.266C368.715 245.01 372.767 243.2 373.469 244.591C374.172 245.982 375.698 252.398 375.279 253.654L374.861 254.91" stroke="#2E353A" stroke-width="0.5" stroke-linecap="round" stroke-linejoin="round"/>
<path d="M550 293.269H435.802V237.135H550" fill="#FF725E"/>
<path d="M550 293.269H435.802V237.135H550" stroke="#2E353A" stroke-linecap="round" stroke-linejoin="round"/>
<path d="M444.176 289.514C445.593 289.514 446.742 288.365 446.742 286.948C446.742 285.53 445.593 284.381 444.176 284.381C442.758 284.381 441.609 285.53 441.609 286.948C441.609 288.365 442.758 289.514 444.176 289.514Z" fill="white" stroke="#2E353A" stroke-linecap="round" stroke-linejoin="round"/>
<path d="M262.689 183.676C263.667 183.282 264.556 182.695 265.303 181.95C266.051 181.205 266.64 180.318 267.038 179.341C267.659 177.814 267.511 175.789 268.848 173.425C271.819 168.13 269.172 154.88 270.198 145.264C271.225 135.647 260.582 122.735 260.582 122.735L262.648 84.6327H224.83C224.83 84.6327 226.478 124.396 223.169 133C219.859 141.603 212.904 151.234 213.228 155.542C213.552 159.851 217.563 195.278 217.563 195.278L262.621 183.676H262.689Z" fill="white" stroke="#2E353A" stroke-linecap="round" stroke-linejoin="round"/>
<path d="M110.294 193.509C111.159 201.377 114.338 208.812 119.428 214.873C124.519 220.935 131.292 225.35 138.893 227.562C146.493 229.773 154.578 229.682 162.126 227.298C169.674 224.914 176.346 220.345 181.297 214.17C186.249 207.994 189.258 200.489 189.943 192.603C190.629 184.718 188.961 176.806 185.15 169.868C181.339 162.93 175.557 157.278 168.534 153.627C161.51 149.976 153.562 148.49 145.694 149.356H145.6C135.068 150.541 125.436 155.855 118.817 164.132C112.198 172.41 109.133 182.974 110.294 193.509ZM181.878 185.554C182.582 191.867 181.398 198.247 178.475 203.887C175.553 209.527 171.023 214.174 165.46 217.24C159.897 220.306 153.549 221.654 147.22 221.112C140.891 220.571 134.864 218.165 129.902 214.198C124.941 210.232 121.266 204.883 119.344 198.829C117.422 192.774 117.339 186.286 119.104 180.184C120.87 174.082 124.405 168.64 129.263 164.547C134.121 160.455 140.084 157.894 146.397 157.19C154.863 156.249 163.356 158.708 170.009 164.027C176.662 169.346 180.932 177.089 181.878 185.554Z" fill="white" stroke="#2E353A" stroke-linecap="round" stroke-linejoin="round"/>
<path d="M107.957 193.752C108.83 201.615 112.015 209.043 117.109 215.096C122.203 221.15 128.977 225.557 136.576 227.76C144.174 229.964 152.255 229.865 159.797 227.477C167.339 225.089 174.004 220.518 178.949 214.342C183.894 208.166 186.896 200.663 187.577 192.781C188.258 184.899 186.587 176.992 182.775 170.06C178.963 163.127 173.181 157.481 166.16 153.834C159.139 150.188 151.195 148.704 143.331 149.572C138.107 150.149 133.047 151.749 128.442 154.282C123.836 156.814 119.775 160.23 116.49 164.333C113.205 168.436 110.76 173.146 109.296 178.193C107.832 183.241 107.377 188.528 107.957 193.752ZM179.65 185.824C180.351 192.135 179.165 198.512 176.242 204.149C173.319 209.786 168.79 214.429 163.228 217.492C157.665 220.555 151.32 221.9 144.993 221.356C138.667 220.813 132.644 218.405 127.685 214.439C122.727 210.472 119.056 205.124 117.137 199.071C115.218 193.018 115.137 186.532 116.905 180.434C118.672 174.335 122.208 168.897 127.066 164.808C131.923 160.718 137.884 158.161 144.195 157.46C148.386 156.994 152.627 157.359 156.676 158.532C160.726 159.705 164.505 161.665 167.797 164.299C171.09 166.933 173.831 170.189 175.865 173.883C177.898 177.576 179.185 181.633 179.65 185.824Z" fill="white" stroke="#2E353A" stroke-linecap="round" stroke-linejoin="round"/>
<path d="M219.436 176.283L191.701 179.354C189.566 179.591 188.027 181.513 188.263 183.649L188.473 185.542C188.709 187.677 190.632 189.216 192.767 188.98L220.502 185.908C222.638 185.671 224.177 183.749 223.94 181.613L223.731 179.721C223.494 177.585 221.571 176.046 219.436 176.283Z" fill="#FF725E" stroke="#2E353A" stroke-linecap="round" stroke-linejoin="round"/>
<path d="M211.404 184.257L210.958 180.205C210.765 178.45 211.277 176.69 212.381 175.312C213.485 173.934 215.092 173.051 216.847 172.857L271.684 166.793C272.799 166.663 273.929 166.755 275.008 167.064C276.088 167.372 277.096 167.891 277.974 168.59C278.853 169.289 279.585 170.155 280.128 171.137C280.671 172.12 281.014 173.2 281.138 174.316V174.586C281.268 175.702 281.176 176.831 280.868 177.911C280.559 178.991 280.041 179.999 279.341 180.877C278.642 181.756 277.777 182.487 276.794 183.03C275.811 183.573 274.731 183.917 273.615 184.041L218.778 190.105C217.026 190.303 215.266 189.799 213.884 188.703C212.502 187.607 211.61 186.009 211.404 184.257Z" fill="#2E353A" stroke="#2E353A" stroke-linecap="round" stroke-linejoin="round"/>
<path d="M257.097 178.368C257.097 178.368 257.461 187.958 259.109 189.309C260.757 190.659 266.565 190.416 267.213 187.809C268.969 181.178 267.942 167.036 266.754 166.496C265.565 165.956 258.65 164.794 257.921 167.725C257.376 171.247 257.101 174.805 257.097 178.368Z" fill="white" stroke="#2E353A" stroke-linecap="round" stroke-linejoin="round"/>
<path d="M243.712 181.124C243.712 181.124 243.28 192.293 245.292 194.036C247.305 195.778 254.828 196.129 255.962 193.171C258.853 185.662 257.718 168.765 256.232 168.009C254.747 167.252 247.034 165.564 245.792 168.873C244.549 172.182 243.712 181.124 243.712 181.124Z" fill="white" stroke="#2E353A" stroke-linecap="round" stroke-linejoin="round"/>
<path d="M228.584 182.758C228.584 182.758 228.125 194.698 230.272 196.562C232.42 198.425 240.47 198.79 241.686 195.63C244.765 187.607 244.765 169.967 243.171 169.157C241.577 168.346 232.136 166.118 230.813 169.656C229.489 173.195 228.584 182.758 228.584 182.758Z" fill="white" stroke="#2E353A" stroke-linecap="round" stroke-linejoin="round"/>
<path d="M214.43 189.633C214.43 189.633 213.97 201.572 216.131 203.436C218.292 205.3 226.558 205.746 227.531 202.504C228.503 199.263 230.61 176.842 229.017 176.018C227.423 175.194 217.995 172.993 216.658 176.531C215.321 180.07 214.43 189.633 214.43 189.633Z" fill="white" stroke="#2E353A" stroke-linecap="round" stroke-linejoin="round"/>
<path d="M254.977 141.36C255.527 146.681 254.251 152.03 251.357 156.528C244.739 166.145 229.49 165.807 229.49 165.807L228.828 168.13C228.107 170.036 227.101 171.822 225.843 173.425C228.995 172.651 232.217 172.199 235.46 172.074C237.233 172.126 238.925 172.832 240.21 174.056C241.494 175.28 242.28 176.937 242.416 178.706C242.753 181.691 243.077 183.014 239.107 184C235.136 184.986 219.225 189.97 216.902 190.308C214.795 190.605 211.04 187.066 210.148 181.434C210.864 172.777 213.282 164.227 213.282 155.515C213.565 152.475 214.635 149.56 216.388 147.06" fill="white"/>
<path d="M254.977 141.36C255.527 146.681 254.251 152.03 251.357 156.528C244.739 166.145 229.49 165.807 229.49 165.807L228.828 168.13C228.107 170.036 227.101 171.822 225.843 173.425C228.995 172.651 232.217 172.199 235.46 172.074C237.233 172.126 238.925 172.832 240.21 174.056C241.494 175.28 242.28 176.937 242.416 178.706C242.753 181.691 243.077 183.014 239.107 184C235.136 184.986 219.225 189.97 216.902 190.308C214.795 190.605 211.04 187.066 210.148 181.434C210.864 172.777 213.282 164.227 213.282 155.515C213.565 152.475 214.635 149.56 216.388 147.06" stroke="#2E353A" stroke-linecap="round" stroke-linejoin="round"/>
<path d="M253.68 134.337C254.079 135.6 254.386 136.891 254.598 138.2L253.68 134.337Z" fill="white"/>
<path d="M253.68 134.337C254.079 135.6 254.386 136.891 254.598 138.2" stroke="#2E353A" stroke-linecap="round" stroke-linejoin="round"/>
<path d="M249.371 122.397V110.471" stroke="#2E353A" stroke-linecap="round" stroke-linejoin="round"/>
<path d="M252.68 121.411V116.441" stroke="#2E353A" stroke-linecap="round" stroke-linejoin="round"/>
<path d="M229.489 165.807C229.489 165.807 229.489 159.216 225.559 154.894" stroke="#2E353A" stroke-linecap="round" stroke-linejoin="round"/>
<path d="M225.423 173.587C223.625 173.772 221.851 174.143 220.129 174.694" stroke="#2E353A" stroke-linecap="round" stroke-linejoin="round"/>
<path d="M237.418 184.041C237.418 184.041 233.933 185.297 232.677 183.757C231.421 182.218 229.611 178.179 231.002 177.49C232.393 176.801 238.809 175.262 240.065 175.68L241.321 176.086" stroke="#2E353A" stroke-width="0.5" stroke-linecap="round" stroke-linejoin="round"/>
<path d="M279.68 1V115.198H223.533V1" fill="#FF725E"/>
<path d="M279.68 1V115.198H223.533V1" stroke="#2E353A" stroke-linecap="round" stroke-linejoin="round"/>
<path d="M273.346 109.39C274.763 109.39 275.912 108.241 275.912 106.824C275.912 105.407 274.763 104.258 273.346 104.258C271.928 104.258 270.779 105.407 270.779 106.824C270.779 108.241 271.928 109.39 273.346 109.39Z" fill="white" stroke="#2E353A" stroke-linecap="round" stroke-linejoin="round"/>
<path d="M206.191 387.072C205.798 388.051 205.212 388.941 204.467 389.689C203.722 390.436 202.833 391.025 201.855 391.421C200.329 392.056 198.303 391.907 195.939 393.231C190.645 396.216 177.395 393.568 167.778 394.581C158.161 395.594 145.249 384.978 145.249 384.978L107.106 387.072V349.253C107.106 349.253 146.87 350.915 155.487 347.605C164.104 344.296 173.707 337.327 178.016 337.665C182.325 338.002 217.779 341.973 217.779 341.973L206.191 387.072Z" fill="white" stroke="#2E353A" stroke-linecap="round" stroke-linejoin="round"/>
<path d="M215.983 234.664C223.85 235.534 231.282 238.719 237.339 243.813C243.397 248.908 247.808 255.685 250.014 263.287C252.22 270.888 252.122 278.973 249.733 286.519C247.344 294.065 242.771 300.734 236.593 305.681C230.414 310.628 222.907 313.632 215.021 314.312C207.135 314.993 199.225 313.32 192.29 309.505C185.354 305.689 179.707 299.903 176.06 292.878C172.413 285.853 170.932 277.904 171.803 270.037C172.97 259.491 178.28 249.841 186.563 243.21C194.845 236.579 205.423 233.509 215.969 234.677L215.983 234.664ZM208.041 306.356C214.354 307.06 220.734 305.876 226.374 302.953C232.014 300.031 236.661 295.501 239.727 289.938C242.793 284.375 244.141 278.027 243.599 271.698C243.058 265.369 240.652 259.342 236.685 254.38C232.719 249.419 227.37 245.744 221.316 243.822C215.261 241.9 208.773 241.817 202.671 243.582C196.569 245.348 191.127 248.883 187.034 253.741C182.942 258.599 180.381 264.562 179.677 270.875C178.736 279.341 181.195 287.834 186.514 294.487C191.833 301.14 199.576 305.41 208.041 306.356Z" fill="white" stroke="#2E353A" stroke-linecap="round" stroke-linejoin="round"/>
<path d="M216.226 232.381C224.089 233.254 231.517 236.44 237.57 241.535C243.624 246.629 248.03 253.404 250.234 261.003C252.437 268.602 252.337 276.684 249.947 284.226C247.558 291.769 242.985 298.433 236.808 303.377C230.631 308.321 223.127 311.322 215.244 312.002C207.361 312.681 199.454 311.008 192.522 307.193C185.591 303.379 179.945 297.595 176.301 290.573C172.656 283.55 171.175 275.605 172.046 267.741C172.624 262.518 174.225 257.46 176.759 252.856C179.292 248.252 182.708 244.192 186.81 240.909C190.913 237.625 195.623 235.182 200.67 233.719C205.717 232.255 211.003 231.801 216.226 232.381ZM208.284 304.074C214.597 304.777 220.977 303.593 226.617 300.67C232.257 297.748 236.904 293.219 239.97 287.655C243.036 282.092 244.384 275.744 243.842 269.415C243.301 263.086 240.895 257.06 236.928 252.098C232.962 247.136 227.613 243.462 221.559 241.54C215.504 239.618 209.016 239.534 202.914 241.3C196.812 243.065 191.37 246.6 187.277 251.458C183.185 256.316 180.624 262.279 179.92 268.592C178.983 277.054 181.445 285.542 186.763 292.19C192.082 298.839 199.822 303.103 208.284 304.047V304.074Z" fill="white" stroke="#2E353A" stroke-linecap="round" stroke-linejoin="round"/>
<path d="M201.798 316.117L198.726 343.852C198.49 345.987 200.029 347.91 202.164 348.147L204.057 348.356C206.192 348.593 208.115 347.053 208.351 344.918L211.423 317.183C211.66 315.048 210.12 313.125 207.985 312.889L206.092 312.679C203.957 312.443 202.034 313.982 201.798 316.117Z" fill="#FF725E" stroke="#2E353A" stroke-linecap="round" stroke-linejoin="round"/>
<path d="M197.101 405.522H196.831C195.714 405.399 194.633 405.057 193.649 404.515C192.666 403.972 191.799 403.24 191.1 402.361C190.4 401.483 189.882 400.474 189.574 399.393C189.267 398.313 189.176 397.183 189.308 396.067L195.372 341.23C195.466 340.361 195.731 339.518 196.152 338.751C196.572 337.984 197.14 337.307 197.823 336.76C198.505 336.213 199.289 335.806 200.13 335.563C200.97 335.319 201.85 335.244 202.72 335.342L206.772 335.787C208.527 335.981 210.133 336.864 211.238 338.242C212.342 339.62 212.854 341.38 212.66 343.135L206.596 398.039C206.47 399.154 206.126 400.234 205.582 401.216C205.039 402.197 204.307 403.062 203.429 403.761C202.551 404.46 201.543 404.979 200.464 405.288C199.385 405.597 198.256 405.69 197.141 405.562L197.101 405.522Z" fill="#2E353A" stroke="#2E353A" stroke-linecap="round" stroke-linejoin="round"/>
<path d="M200.788 381.521C200.788 381.521 210.378 381.885 211.728 383.533C213.079 385.181 212.836 390.975 210.229 391.637C203.597 393.393 189.456 392.366 188.916 391.178C188.376 389.989 187.214 383.074 190.145 382.331C193.667 381.791 197.225 381.52 200.788 381.521Z" fill="white" stroke="#2E353A" stroke-linecap="round" stroke-linejoin="round"/>
<path d="M203.597 368.162C203.597 368.162 214.767 367.73 216.509 369.743C218.252 371.755 218.603 379.278 215.645 380.413C208.135 383.29 191.239 382.169 190.482 380.683C189.726 379.197 188.038 371.485 191.347 370.242C194.656 369 203.597 368.162 203.597 368.162Z" fill="white" stroke="#2E353A" stroke-linecap="round" stroke-linejoin="round"/>
<path d="M205.231 352.995C205.231 352.995 217.171 352.549 219.035 354.696C220.899 356.844 221.264 364.894 218.117 366.096C210.013 369.189 192.454 369.175 191.63 367.595C190.806 366.015 188.591 356.56 192.13 355.223C195.669 353.886 205.231 352.995 205.231 352.995Z" fill="white" stroke="#2E353A" stroke-linecap="round" stroke-linejoin="round"/>
<path d="M212.107 338.853C212.107 338.853 224.046 338.394 225.91 340.542C227.774 342.689 228.22 350.982 224.978 351.955C221.737 352.927 199.316 355.021 198.492 353.44C197.668 351.86 195.467 342.405 199.005 341.082C202.544 339.758 212.107 338.853 212.107 338.853Z" fill="white" stroke="#2E353A" stroke-linecap="round" stroke-linejoin="round"/>
<path d="M165.671 379.467C170.381 379.653 175.032 378.364 178.975 375.78C188.592 369.148 188.254 353.913 188.254 353.913L190.577 353.251C192.483 352.531 194.268 351.524 195.872 350.266C195.098 353.413 194.646 356.631 194.521 359.869C194.572 361.645 195.278 363.338 196.502 364.625C197.726 365.911 199.382 366.7 201.153 366.839C204.138 367.163 205.461 367.501 206.461 363.516C207.46 359.532 212.417 343.635 212.755 341.325C213.092 339.015 209.513 335.45 203.881 334.572C195.223 335.288 186.674 337.705 177.962 337.705C174.924 337.989 172.011 339.054 169.507 340.798" fill="white"/>
<path d="M165.671 379.467C170.381 379.653 175.032 378.364 178.975 375.78C188.592 369.148 188.254 353.913 188.254 353.913L190.577 353.251C192.483 352.531 194.268 351.524 195.872 350.266C195.098 353.413 194.646 356.631 194.521 359.869C194.572 361.645 195.278 363.338 196.502 364.625C197.726 365.911 199.382 366.7 201.153 366.839C204.138 367.163 205.461 367.501 206.461 363.516C207.46 359.532 212.417 343.635 212.755 341.325C213.092 339.015 209.513 335.45 203.881 334.572C195.223 335.288 186.674 337.705 177.962 337.705C174.924 337.989 172.011 339.054 169.507 340.798" stroke="#2E353A" stroke-linecap="round" stroke-linejoin="round"/>
<path d="M156.811 378.103C158.699 378.684 160.64 379.077 162.605 379.278L156.811 378.103Z" fill="white"/>
<path d="M156.811 378.103C158.699 378.684 160.64 379.077 162.605 379.278" stroke="#2E353A" stroke-linecap="round" stroke-linejoin="round"/>
<path d="M144.871 373.795H132.944" stroke="#2E353A" stroke-linecap="round" stroke-linejoin="round"/>
<path d="M143.884 377.104H138.914" stroke="#2E353A" stroke-linecap="round" stroke-linejoin="round"/>
<path d="M188.28 353.913C188.28 353.913 181.689 353.913 177.367 349.983" stroke="#2E353A" stroke-linecap="round" stroke-linejoin="round"/>
<path d="M196.061 349.834C196.246 348.036 196.617 346.261 197.168 344.539" stroke="#2E353A" stroke-linecap="round" stroke-linejoin="round"/>
<path d="M206.515 361.828C206.515 361.828 207.771 358.343 206.231 357.087C204.691 355.831 200.653 354.021 199.964 355.412C199.275 356.803 197.735 363.233 198.154 364.475L198.573 365.731" stroke="#2E353A" stroke-width="0.5" stroke-linecap="round" stroke-linejoin="round"/>
<path d="M23.4736 404.103H137.672V347.957H23.4736" fill="#FF725E"/>
<path d="M23.4736 404.103H137.672V347.957H23.4736" stroke="#2E353A" stroke-linecap="round" stroke-linejoin="round"/>
<path d="M126.731 397.769C126.731 398.276 126.882 398.773 127.164 399.195C127.446 399.617 127.847 399.946 128.316 400.14C128.785 400.334 129.301 400.385 129.798 400.286C130.296 400.187 130.753 399.942 131.112 399.583C131.471 399.225 131.716 398.767 131.815 398.27C131.914 397.772 131.863 397.256 131.669 396.787C131.474 396.318 131.145 395.917 130.723 395.635C130.301 395.353 129.805 395.203 129.298 395.203C128.617 395.203 127.964 395.473 127.483 395.954C127.002 396.436 126.731 397.088 126.731 397.769Z" fill="white" stroke="#2E353A" stroke-linecap="round" stroke-linejoin="round"/>
</svg>
