<svg width="336" height="302" viewBox="0 0 336 302" fill="none" xmlns="http://www.w3.org/2000/svg">
<path d="M306.145 46.3276C317.385 46.3276 326.498 37.685 326.498 27.0238C326.498 16.3627 317.385 7.72006 306.145 7.72006C294.905 7.72006 285.792 16.3627 285.792 27.0238C285.792 37.685 294.905 46.3276 306.145 46.3276Z" fill="#EBEBEB"/>
<path d="M307.077 45.8749C317.803 45.8749 326.498 37.628 326.498 27.4549C326.498 17.2817 317.803 9.03482 307.077 9.03482C296.351 9.03482 287.656 17.2817 287.656 27.4549C287.656 37.628 296.351 45.8749 307.077 45.8749Z" fill="#DBDBDB"/>
<path d="M325.193 28.8718C326.018 19.3763 318.571 11.0444 308.559 10.2621C298.548 9.47974 289.763 16.5432 288.938 26.0387C288.113 35.5342 295.561 43.8661 305.572 44.6484C315.584 45.4308 324.368 38.3673 325.193 28.8718Z" fill="white"/>
<path opacity="0.5" d="M324.857 23.7956C316.579 28.5503 302.964 36.3653 295.349 40.6453C293.2 38.9232 291.5 36.7536 290.382 34.3057L315.547 12.1826C317.899 13.3558 319.952 15.0034 321.56 17.0098C323.169 19.0161 324.294 21.3324 324.857 23.7956Z" fill="#EBEBEB"/>
<path opacity="0.5" d="M325.258 28.0902C325.194 30.0109 324.788 31.9075 324.056 33.6995L301.37 43.8736C300.381 43.568 299.422 43.1793 298.506 42.7123C305.359 38.9144 317.881 32.0781 325.258 28.0902Z" fill="#EBEBEB"/>
<path d="M307.261 11.4523H306.907V14.0671H307.261V11.4523Z" fill="#C7C7C7"/>
<path d="M298.798 13.4993L298.491 13.6673L299.87 15.9317L300.177 15.7637L298.798 13.4993Z" fill="#C7C7C7"/>
<path d="M292.539 19.2915L292.362 19.5825L294.749 20.8899L294.927 20.5989L292.539 19.2915Z" fill="#C7C7C7"/>
<path d="M292.969 27.2869H290.212V27.6228H292.969V27.2869Z" fill="#C7C7C7"/>
<path d="M294.762 33.9895L292.374 35.2969L292.551 35.5878L294.939 34.2805L294.762 33.9895Z" fill="#C7C7C7"/>
<path d="M299.886 38.9786L298.509 41.2438L298.816 41.4116L300.193 39.1465L299.886 38.9786Z" fill="#C7C7C7"/>
<path d="M307.261 40.8426H306.907V43.4573H307.261V40.8426Z" fill="#C7C7C7"/>
<path d="M314.295 38.9619L313.988 39.1299L315.367 41.3943L315.673 41.2263L314.295 38.9619Z" fill="#C7C7C7"/>
<path d="M319.375 33.9859L319.198 34.2769L321.586 35.5842L321.763 35.2933L319.375 33.9859Z" fill="#C7C7C7"/>
<path d="M323.949 27.2869H321.192V27.6228H323.949V27.2869Z" fill="#C7C7C7"/>
<path d="M321.602 19.298L319.214 20.6057L319.392 20.8966L321.779 19.5889L321.602 19.298Z" fill="#C7C7C7"/>
<path d="M315.36 13.514L313.983 15.7791L314.29 15.947L315.667 13.6819L315.36 13.514Z" fill="#C7C7C7"/>
<path d="M307.346 12.6355L307.947 28.6161L306.214 28.5942L306.876 12.6282L307.346 12.6355Z" fill="#C7C7C7"/>
<path d="M317.842 21.8821L306.507 28.7403L305.683 27.3088L317.619 21.4877L317.842 21.8821Z" fill="#A6A6A6"/>
<path d="M307.67 27.4548C307.67 27.5661 307.635 27.6748 307.57 27.7673C307.505 27.8598 307.412 27.9319 307.304 27.9744C307.195 28.017 307.076 28.0281 306.961 28.0064C306.846 27.9847 306.74 27.9312 306.657 27.8525C306.575 27.7739 306.518 27.6737 306.495 27.5646C306.472 27.4555 306.484 27.3424 306.529 27.2396C306.574 27.1369 306.65 27.049 306.747 26.9872C306.845 26.9254 306.959 26.8925 307.077 26.8925C307.234 26.8925 307.385 26.9517 307.496 27.0572C307.607 27.1626 307.67 27.3057 307.67 27.4548Z" fill="#C7C7C7"/>
<path d="M238.618 201.415C238.618 201.415 250.677 198.822 257.285 193.053C263.892 187.283 267.58 176.933 267.58 176.933C262.998 177.764 258.48 178.888 254.058 180.3C252.403 181.916 251.023 183.767 249.969 185.785C249.867 184.48 249.867 183.169 249.969 181.863C248.427 182.496 246.984 183.327 245.68 184.332C240.166 188.882 238.618 201.415 238.618 201.415Z" fill="#DBDBDB"/>
<path d="M260.057 181.958C261.697 180.877 263.368 179.84 265.008 178.752C265.03 178.739 265.045 178.719 265.051 178.696C265.057 178.673 265.052 178.648 265.039 178.628C265.026 178.607 265.004 178.593 264.98 178.587C264.955 178.582 264.93 178.586 264.908 178.598C261.828 180.359 258.748 182.25 255.775 184.208C254.743 184.894 253.727 185.61 252.695 186.34L252.903 185.997C253.265 185.427 253.673 184.865 254.027 184.303C254.784 183.155 255.642 182.07 256.591 181.06C256.591 181.023 256.591 180.965 256.53 181.009C255.59 182.031 254.651 183.046 253.796 184.135C253.388 184.653 253.026 185.194 252.649 185.742C252.464 186.026 252.279 186.311 252.11 186.603L251.925 186.896C250.385 188.057 248.845 189.269 247.405 190.547C246.511 191.341 245.646 192.159 244.81 193.001C245.279 191.621 245.687 190.219 246.226 188.86C246.226 188.851 246.222 188.841 246.215 188.834C246.208 188.828 246.198 188.824 246.188 188.824C246.178 188.824 246.168 188.828 246.161 188.834C246.153 188.841 246.149 188.851 246.149 188.86C245.626 190.321 245.048 191.723 244.609 193.199C243.685 194.143 242.807 195.117 241.976 196.12C241.976 196.062 241.976 195.996 242.014 195.938C242.153 195.397 242.299 194.857 242.445 194.323C242.738 193.286 243.062 192.264 243.431 191.249C244.124 189.141 245.22 187.173 246.665 185.442C246.704 185.406 246.665 185.354 246.611 185.391C244.35 188.061 242.769 191.19 241.991 194.535C241.858 195.022 241.734 195.509 241.621 195.996C241.56 196.252 241.491 196.522 241.444 196.785C241.075 197.272 240.721 197.746 240.382 198.209C238.324 201.19 236.612 204.374 235.276 207.704C233.777 211.443 232.492 215.256 231.426 219.127C231.426 219.142 231.432 219.157 231.444 219.168C231.456 219.179 231.471 219.185 231.487 219.185C231.504 219.185 231.52 219.179 231.531 219.168C231.543 219.157 231.549 219.142 231.549 219.127C233.913 212.437 236.316 205.652 240.351 199.67C241.205 198.41 242.125 197.191 243.108 196.018C245.104 195.89 247.073 195.517 248.968 194.908C251.038 194.247 253.012 193.341 254.843 192.213C255.889 191.549 256.895 190.83 257.854 190.058C257.901 190.022 257.854 189.963 257.808 190C256.123 191.286 254.263 192.352 252.279 193.169C250.329 194.017 248.29 194.666 246.196 195.105C245.31 195.288 244.409 195.426 243.5 195.543C244.617 194.239 245.804 192.99 247.058 191.804C247.466 191.417 247.882 191.073 248.306 190.679C249.709 189.747 251.199 188.938 252.757 188.261C254.736 187.356 256.676 186.392 258.632 185.449C259.741 184.916 260.834 184.376 261.943 183.857C261.99 183.857 261.943 183.77 261.905 183.791C259.918 184.697 257.908 185.552 255.906 186.421C254.027 187.231 252.125 188.057 250.315 189.021L250.084 189.145C251.717 187.801 253.411 186.516 255.144 185.274C256.771 184.149 258.409 183.044 260.057 181.958Z" fill="#A6A6A6"/>
<path d="M259.372 187.852C258.386 188.261 257.392 188.619 256.422 189.05C255.452 189.481 254.474 190.014 253.527 190.547C253.488 190.547 253.527 190.62 253.565 190.606C254.528 190.168 255.498 189.759 256.453 189.306C257.408 188.853 258.394 188.342 259.395 187.925C259.441 187.911 259.418 187.83 259.372 187.852Z" fill="#A6A6A6"/>
<path d="M199.469 143.796C201.694 146.522 202.953 149.845 203.065 153.291C203.111 154.314 202.934 155.745 202.811 157.425C205.82 159.08 208.487 161.24 210.681 163.801C208.272 162.476 205.506 161.848 202.726 161.997C202.793 163.145 202.948 164.288 203.188 165.415C204.942 165.413 206.68 165.738 208.301 166.372C206.714 166.353 205.14 166.649 203.681 167.241C205.829 173.727 212.221 180.388 229.863 183.214C231.73 175.261 230.625 166.94 226.736 159.674C221.454 149.814 199.469 143.796 199.469 143.796Z" fill="#DBDBDB"/>
<path d="M235.962 210.961C235.664 208.191 235.284 205.43 234.822 202.679C233.93 197.167 232.742 191.701 231.264 186.304C230.579 183.77 229.733 181.277 228.731 178.84C228.785 178.396 228.808 177.949 228.8 177.503C228.8 176.962 228.8 176.429 228.8 175.889C228.8 174.822 228.738 173.749 228.638 172.682C228.458 170.566 228.095 168.468 227.553 166.409C227.229 165.218 226.859 164.042 226.49 162.866C226.49 162.857 226.486 162.847 226.479 162.84C226.471 162.834 226.462 162.83 226.451 162.83C226.441 162.83 226.431 162.834 226.424 162.84C226.417 162.847 226.413 162.857 226.413 162.866C226.996 164.922 227.431 167.013 227.714 169.126C228.027 171.208 228.225 173.305 228.307 175.407C228.307 175.984 228.307 176.553 228.307 177.13C228.307 177.371 228.307 177.62 228.307 177.861C227.444 175.858 226.454 173.907 225.342 172.018C223.548 169.028 221.527 166.165 219.297 163.451C219.294 163.135 219.247 162.82 219.159 162.516C219.074 162.143 218.989 161.785 218.897 161.398C218.717 160.634 218.517 159.874 218.296 159.119C217.857 157.6 217.28 156.139 216.756 154.642C216.756 154.633 216.752 154.623 216.745 154.616C216.738 154.61 216.728 154.606 216.718 154.606C216.708 154.606 216.698 154.61 216.691 154.616C216.683 154.623 216.679 154.633 216.679 154.642C217.149 156.103 217.449 157.659 217.811 159.163C217.988 159.894 218.165 160.624 218.335 161.405L218.589 162.53C218.586 162.557 218.586 162.584 218.589 162.611C217.873 161.756 217.149 160.916 216.402 160.091C213.037 156.344 209.341 152.889 205.621 149.457C205.167 149.033 204.697 148.624 204.235 148.208C204.197 148.171 204.143 148.208 204.181 148.266C207.731 151.779 211.227 155.336 214.539 159.054C215.309 159.937 216.079 160.836 216.849 161.741C216.448 161.479 216.079 161.23 215.647 161.011C214.623 160.376 213.584 159.755 212.513 159.185C211.443 158.615 210.365 158.06 209.264 157.549C208.162 157.038 206.953 156.578 205.829 155.979C205.783 155.979 205.744 156.03 205.791 156.045C206.905 156.536 207.981 157.102 209.01 157.739C210.08 158.345 211.158 158.951 212.205 159.587C213.253 160.222 214.284 160.821 215.285 161.457C216.148 161.99 216.987 162.567 217.881 163.049C219.925 165.544 221.812 168.151 223.533 170.857C224.598 172.559 225.572 174.312 226.451 176.108L225.82 175.845L224.203 175.166L221.084 173.873C219.105 173.062 217.095 172.31 215.155 171.412C214.061 170.926 213.003 170.369 211.99 169.746C211.943 169.746 211.905 169.783 211.951 169.812C215.563 172.179 219.652 173.844 223.625 175.524L225.358 176.254C225.835 176.451 226.313 176.678 226.806 176.853C227.99 179.366 228.986 181.956 229.786 184.602C231.368 189.929 232.653 195.332 233.636 200.787C234.645 206.25 235.33 211.743 235.861 217.279C235.923 217.966 235.992 218.659 236.069 219.346C236.069 219.404 236.094 219.46 236.137 219.501C236.18 219.542 236.239 219.565 236.3 219.565C236.362 219.565 236.42 219.542 236.464 219.501C236.507 219.46 236.531 219.404 236.531 219.346C236.578 216.527 236.27 213.751 235.962 210.961Z" fill="#A6A6A6"/>
<path d="M225.235 164.758C224.911 163.063 224.465 161.398 223.949 159.733C223.949 159.723 223.945 159.714 223.937 159.707C223.93 159.7 223.92 159.696 223.91 159.696C223.9 159.696 223.89 159.7 223.883 159.707C223.876 159.714 223.872 159.723 223.872 159.733C224.318 161.369 224.642 163.034 224.957 164.692C225.273 166.35 225.581 168.081 225.835 169.805H225.882C225.766 168.112 225.55 166.427 225.235 164.758Z" fill="#A6A6A6"/>
<path d="M217.634 169.374C216.401 168.61 215.115 167.926 213.784 167.329C213.137 167.015 212.483 166.715 211.836 166.416C211.189 166.116 210.465 165.846 209.803 165.532C209.757 165.532 209.71 165.576 209.764 165.598C210.403 165.904 211.019 166.277 211.651 166.606L213.607 167.621C214.876 168.321 216.182 168.959 217.519 169.534C217.541 169.549 217.569 169.554 217.596 169.55C217.622 169.545 217.646 169.53 217.661 169.509C217.677 169.488 217.682 169.461 217.677 169.436C217.672 169.411 217.657 169.388 217.634 169.374Z" fill="#A6A6A6"/>
<path opacity="0.1" d="M238.842 181.607C238.842 181.607 249.992 179.08 255.113 171.981C260.011 165.203 261.589 153.649 261.713 152.634C261.512 153.568 259.21 163.662 251.617 168.366C245.803 171.974 240.182 174.939 238.842 181.607Z" fill="#A6A6A6"/>
<path d="M249.137 163.326C247.154 165.057 245.728 167.286 245.025 169.754C245.025 169.754 245.025 169.754 245.025 169.754C245.848 167.346 247.266 165.16 249.16 163.377C249.23 163.348 249.176 163.29 249.137 163.326Z" fill="#A6A6A6"/>
<path d="M238.842 181.608C238.842 181.608 249.992 179.08 255.113 171.981C260.011 165.203 261.589 153.649 261.712 152.634C261.716 152.609 261.716 152.585 261.712 152.561C261.712 152.561 256.322 159.777 250.739 161.617C245.156 163.458 237.202 169.819 238.842 181.608Z" fill="#DBDBDB"/>
<path d="M259.749 156.541C258.751 158.487 257.598 160.357 256.299 162.136C254.988 163.826 253.432 165.333 251.678 166.613C250.138 167.752 248.598 168.804 247.058 169.907L247.097 169.856C247.382 169.447 247.69 169.06 248.013 168.673C248.644 167.898 249.345 167.168 250.046 166.445C251.432 165.021 252.849 163.618 254.089 162.063C254.781 161.208 255.382 160.291 255.883 159.324C255.883 159.28 255.829 159.258 255.806 159.324C253.996 162.903 250.377 165.167 247.805 168.205C247.436 168.633 247.092 169.079 246.773 169.542C246.516 169.878 246.299 170.241 246.126 170.623C244.715 171.698 243.439 172.923 242.322 174.275C242.42 173.581 242.569 172.896 242.769 172.222C243.027 171.28 243.426 170.377 243.955 169.542C243.955 169.498 243.909 169.454 243.885 169.498C243.344 170.335 242.907 171.23 242.584 172.164C242.349 172.907 242.212 173.675 242.176 174.45C241.628 175.15 241.126 175.882 240.674 176.641L240.813 175.962C241.029 174.91 241.275 173.858 241.583 172.814C242.108 170.696 243.014 168.679 244.263 166.854C244.263 166.854 244.224 166.774 244.194 166.81C242.917 168.615 241.916 170.582 241.221 172.653C240.867 173.69 240.582 174.749 240.336 175.808C240.212 176.334 240.097 176.853 239.997 177.379C239.943 177.649 239.881 177.927 239.835 178.204C238.729 180.509 237.865 182.911 237.255 185.376C236.167 189.789 235.377 194.263 234.891 198.771C234.311 203.486 234.054 208.231 234.121 212.977C234.121 213.569 234.167 214.168 234.198 214.759C234.198 214.913 234.452 214.935 234.46 214.759C234.568 212.407 234.629 210.063 234.776 207.718C234.922 205.374 235.138 203.022 235.407 200.685C235.907 196.088 236.679 191.521 237.717 187.005C238.618 183.141 239.789 179.241 242.022 175.852C243.132 174.168 244.488 172.64 246.049 171.317C247.589 169.987 249.322 168.819 250.97 167.584C252.64 166.382 254.156 164.999 255.49 163.465C256.851 161.755 258.037 159.925 259.033 158.002L259.803 156.541C259.841 156.541 259.772 156.497 259.749 156.541Z" fill="#A6A6A6"/>
<path d="M197.928 176.933C197.928 176.933 197.751 191.964 207.231 196.303C216.71 200.641 221.785 197.033 228.23 198.494C227.984 198.136 223.387 191.869 216.071 190.138C208.517 188.349 200.185 183.192 197.928 176.933Z" fill="#DBDBDB"/>
<path opacity="0.1" d="M197.928 176.933C197.928 176.933 197.751 191.964 207.231 196.303C216.71 200.641 221.785 197.033 228.23 198.494C224.828 196.953 221.189 195.935 217.449 195.477C211.443 194.783 200.023 191.088 197.928 176.933Z" fill="#A6A6A6"/>
<path d="M228.831 198.749C227.702 197.776 226.431 196.962 225.058 196.332C224.857 196.237 224.65 196.164 224.442 196.084C224.234 196.003 224.234 195.85 224.126 195.733C223.841 195.455 223.541 195.185 223.233 194.93C222.638 194.444 221.999 194.009 221.323 193.629C219.783 192.753 218.035 192.169 216.425 191.329C216.379 191.329 216.341 191.373 216.425 191.395C217.195 191.782 217.965 192.213 218.735 192.643C219.506 193.074 220.276 193.454 220.984 193.9C221.645 194.299 222.274 194.746 222.863 195.236C223.032 195.375 223.186 195.528 223.348 195.682C222.301 195.343 221.231 195.072 220.145 194.871C218.412 194.535 216.656 194.301 214.924 193.951C214.073 193.779 213.232 193.565 212.406 193.308C211.636 192.709 210.865 192.11 210.095 191.46C209.193 190.676 208.371 189.812 207.639 188.882C207.639 188.882 207.539 188.882 207.57 188.926C208.721 190.401 210.024 191.763 211.458 192.994C211.05 192.841 210.642 192.687 210.249 192.512C206.993 191.131 204.199 188.928 202.172 186.143C202.172 186.099 202.071 186.143 202.102 186.18C203.821 188.571 206.045 190.598 208.632 192.132C209.927 192.901 211.313 193.523 212.76 193.987C214.443 194.479 216.159 194.863 217.896 195.134C219.596 195.398 221.274 195.776 222.917 196.266C224.428 196.755 225.849 197.465 227.129 198.37C229.545 200.148 231.491 202.437 232.812 205.053C234.503 208.51 235.56 212.214 235.939 216.008C235.939 216.169 236.224 216.169 236.208 216.008C235.746 209.72 233.967 203.139 228.831 198.749Z" fill="#A6A6A6"/>
<path d="M217.827 193.885C217.333 193.184 216.663 192.609 215.879 192.213C214.983 191.766 214.196 191.146 213.568 190.394C213.568 190.35 213.468 190.394 213.499 190.43C214.069 191.119 214.763 191.708 215.547 192.169C216.409 192.604 217.169 193.2 217.781 193.922L217.827 193.885Z" fill="#A6A6A6"/>
<path d="M222.863 209.851L223.294 218.119L224.611 243.383H244.494L245.819 218.119L246.25 209.851H222.863Z" fill="#EBEBEB"/>
<path d="M222.863 209.851L223.294 218.119H245.819L246.25 209.851H222.863Z" fill="#DBDBDB"/>
<path d="M221.469 214.292H247.651V206.404H221.469V214.292Z" fill="#EBEBEB"/>
<path d="M35.4458 81.6486L32.0267 88.799L34.3369 89.785C34.668 89.9309 34.9498 90.1611 35.151 90.4499C35.3522 90.7388 35.465 91.075 35.4766 91.421C35.4766 91.8081 35.5382 92.1952 35.5998 92.5896C35.6567 92.9283 35.6151 93.2753 35.4794 93.5932C35.3437 93.9111 35.119 94.1879 34.8297 94.3937L32.766 95.7887L37.5866 102.172L39.6503 100.777C39.9465 100.577 40.2957 100.458 40.6587 100.435C41.0218 100.412 41.3845 100.485 41.7064 100.646C42.0716 100.828 42.4469 100.991 42.8307 101.135C43.171 101.258 43.469 101.468 43.6918 101.741C43.9146 102.014 44.0536 102.34 44.0936 102.683L44.34 105.079L52.5719 104.305L52.3255 101.902C52.2924 101.559 52.3605 101.214 52.5224 100.906C52.6842 100.597 52.9334 100.338 53.2419 100.156L53.7501 99.8276C53.9118 99.7181 54.0812 99.6012 54.2353 99.4771C54.5152 99.259 54.8535 99.1189 55.2125 99.0725C55.5714 99.0261 55.9369 99.0751 56.2682 99.2141L58.5784 100.215L61.9975 93.0644L59.6873 92.0711C59.3564 91.9242 59.0744 91.6939 58.8721 91.4054C58.6697 91.1169 58.5548 90.7813 58.5399 90.435C58.5243 90.0462 58.4858 89.6585 58.4244 89.2737C58.3666 88.935 58.4079 88.5877 58.5436 88.2697C58.6794 87.9516 58.9045 87.6749 59.1944 87.4697L61.2582 86.0674L56.4376 79.6839L54.3739 81.0862C54.0769 81.2855 53.7274 81.4027 53.3644 81.4246C53.0013 81.4465 52.639 81.3724 52.3178 81.2104C51.9543 81.0343 51.5816 80.8759 51.2012 80.7357C50.8681 80.6139 50.5764 80.4079 50.3578 80.1401C50.1393 79.8723 50.0022 79.5529 49.9614 79.2165L49.7073 76.8209L41.4754 77.5951L41.7218 79.9907C41.7508 80.3249 41.6838 80.6603 41.5279 80.9612C41.3719 81.2622 41.1329 81.5174 40.8362 81.6998C40.6609 81.8009 40.4912 81.9106 40.328 82.0284C40.1586 82.138 39.9968 82.2548 39.8351 82.3717C39.5556 82.5932 39.2163 82.7359 38.8556 82.7836C38.4949 82.8314 38.1273 82.7823 37.7945 82.6419L35.4458 81.6486ZM43.0617 85.7022C44.1502 84.9568 45.4475 84.5345 46.7892 84.4887C48.1309 84.4429 49.4568 84.7758 50.599 85.4451C51.7412 86.1144 52.6483 87.0902 53.2054 88.2487C53.7626 89.4073 53.9448 90.6966 53.729 91.9535C53.5132 93.2103 52.909 94.3782 51.9931 95.3092C51.0771 96.2402 49.8904 96.8925 48.5833 97.1835C47.2762 97.4745 45.9075 97.3911 44.6504 96.9439C43.3934 96.4966 42.3045 95.7057 41.5216 94.6712C40.4731 93.2871 40.0471 91.5647 40.3374 89.8827C40.6276 88.2008 41.6104 86.697 43.0694 85.7022H43.0617Z" fill="#EBEBEB"/>
<path d="M309.587 153.554L304.566 156.3L305.452 157.761C305.579 157.971 305.642 158.211 305.634 158.454C305.626 158.696 305.547 158.932 305.406 159.134C305.252 159.36 305.105 159.601 304.974 159.864C304.861 160.081 304.687 160.264 304.471 160.393C304.255 160.522 304.005 160.592 303.75 160.595H301.971V166.094H303.75C304.005 166.097 304.255 166.167 304.471 166.296C304.687 166.425 304.861 166.608 304.974 166.825C305.104 167.076 305.248 167.319 305.406 167.555C305.547 167.757 305.626 167.993 305.634 168.235C305.642 168.478 305.579 168.718 305.452 168.928L304.566 170.389L309.587 173.135L310.48 171.674C310.61 171.466 310.799 171.296 311.024 171.182C311.25 171.069 311.504 171.017 311.759 171.032H312.182H312.613C312.866 171.017 313.118 171.069 313.342 171.181C313.566 171.293 313.754 171.461 313.884 171.667L314.777 173.128L319.798 170.382L318.913 168.921C318.784 168.71 318.722 168.47 318.731 168.227C318.741 167.984 318.822 167.749 318.966 167.548C319.124 167.312 319.268 167.068 319.398 166.817C319.51 166.6 319.684 166.416 319.9 166.287C320.116 166.158 320.366 166.088 320.622 166.087H322.393V160.587H320.622C320.366 160.586 320.116 160.517 319.9 160.388C319.684 160.259 319.51 160.075 319.398 159.857C319.267 159.616 319.12 159.382 318.966 159.127C318.823 158.927 318.742 158.693 318.732 158.451C318.723 158.21 318.785 157.97 318.913 157.761L319.798 156.3L314.777 153.554L313.892 155.015C313.762 155.223 313.574 155.393 313.348 155.507C313.122 155.62 312.868 155.672 312.613 155.657H312.182H311.759C311.504 155.672 311.25 155.62 311.024 155.507C310.799 155.393 310.61 155.223 310.48 155.015L309.587 153.554ZM312.182 158.813C313.122 158.813 314.041 159.077 314.823 159.573C315.604 160.068 316.213 160.772 316.573 161.596C316.932 162.42 317.026 163.326 316.842 164.201C316.658 165.075 316.204 165.878 315.539 166.508C314.874 167.138 314.027 167.567 313.104 167.74C312.182 167.913 311.227 167.822 310.359 167.48C309.491 167.138 308.749 166.559 308.228 165.817C307.707 165.075 307.429 164.203 307.431 163.312C307.433 162.719 307.558 162.133 307.8 161.586C308.042 161.039 308.395 160.544 308.839 160.127C309.284 159.71 309.81 159.381 310.389 159.158C310.968 158.935 311.588 158.822 312.213 158.827L312.182 158.813Z" fill="#EBEBEB"/>
<path d="M16.6332 67.7496L20.1524 72.1318L21.5616 71.1093C21.764 70.9606 22.0067 70.8693 22.2615 70.8461C22.5164 70.8228 22.773 70.8685 23.0016 70.9778C23.2634 71.0947 23.5329 71.1969 23.7716 71.2919C24.0123 71.3715 24.2251 71.5124 24.3868 71.6992C24.5484 71.8861 24.6527 72.1116 24.688 72.3509L24.919 74.0235L30.6714 73.2931L30.4403 71.6279C30.4085 71.3873 30.4479 71.1432 30.5539 70.9226C30.66 70.7021 30.8286 70.5138 31.041 70.3789C31.2797 70.2255 31.503 70.0576 31.7263 69.8823C31.9185 69.7232 32.1534 69.6179 32.4049 69.5779C32.6564 69.5379 32.9147 69.5649 33.151 69.6558L34.7912 70.3059L37.0167 65.1933L35.3995 64.609C35.1661 64.513 34.9651 64.358 34.8184 64.1609C34.6717 63.9638 34.585 63.7322 34.5679 63.4915C34.5679 63.3527 34.5679 63.2213 34.5217 63.0825C34.4755 62.9437 34.5217 62.8195 34.4601 62.6881C34.4081 62.4508 34.4275 62.2046 34.516 61.9773C34.6045 61.75 34.7585 61.5509 34.9606 61.4026L36.3775 60.3728L32.8583 55.9905L31.4414 57.0131C31.2382 57.1602 30.9957 57.2504 30.7412 57.2737C30.4867 57.2969 30.2305 57.2522 30.0014 57.1445C29.7514 57.0257 29.4943 56.9208 29.2314 56.8305C28.9907 56.7509 28.7779 56.61 28.6162 56.4231C28.4546 56.2363 28.3503 56.0108 28.315 55.7714L28.084 54.0989L22.3316 54.8293L22.5626 56.5018C22.5935 56.7415 22.5545 56.9846 22.45 57.2048C22.3455 57.425 22.1794 57.6138 21.9697 57.7507C21.7316 57.904 21.5028 58.0698 21.2843 58.2474C21.0906 58.4063 20.8544 58.5115 20.6017 58.5515C20.349 58.5914 20.0897 58.5646 19.852 58.4738L18.2118 57.8238L15.9863 62.9364L17.6266 63.5864C17.8428 63.6764 18.0308 63.8178 18.1725 63.9969C18.3141 64.1761 18.4046 64.3869 18.4351 64.609L18.4813 65.0107C18.4813 65.1494 18.5198 65.2809 18.5506 65.4124C18.5999 65.6503 18.5785 65.8965 18.4887 66.1235C18.399 66.3505 18.2444 66.5493 18.0424 66.6978L16.6332 67.7496ZM21.7926 64.6236C21.6724 63.7397 21.8313 62.8418 22.2491 62.0435C22.6669 61.2452 23.3249 60.5823 24.1398 60.1387C24.9548 59.6951 25.8902 59.4907 26.8277 59.5512C27.7652 59.6118 28.6627 59.9346 29.4067 60.479C30.1508 61.0233 30.7079 61.7647 31.0077 62.6093C31.3076 63.454 31.3366 64.364 31.0912 65.2243C30.8457 66.0846 30.3368 66.8565 29.6289 67.4425C28.9209 68.0285 28.0456 68.4023 27.1137 68.5165C26.4935 68.5932 25.8634 68.5528 25.2597 68.3977C24.656 68.2426 24.0906 67.9758 23.5961 67.6126C23.1015 67.2495 22.6876 66.7971 22.3781 66.2816C22.0685 65.7661 21.8696 65.1977 21.7926 64.609V64.6236Z" fill="#EBEBEB"/>
<path d="M2.00989 243.383L43.1003 243.2L84.1829 243.142L166.356 243.017L248.529 243.134L289.612 243.2L330.702 243.383L289.612 243.558L248.529 243.624L166.356 243.748L84.1829 243.624L43.1003 243.558L2.00989 243.383Z" fill="#263238"/>
<path d="M271.923 274.35C307.312 274.35 336 270.027 336 264.695C336 259.362 307.312 255.039 271.923 255.039C236.535 255.039 207.847 259.362 207.847 264.695C207.847 270.027 236.535 274.35 271.923 274.35Z" fill="#EBEBEB"/>
<path d="M143.562 301.44C219.141 301.44 280.409 293.402 280.409 283.487C280.409 273.572 219.141 265.535 143.562 265.535C67.9835 265.535 6.71484 273.572 6.71484 283.487C6.71484 293.402 67.9835 301.44 143.562 301.44Z" fill="#EBEBEB"/>
<path d="M270.876 6.42731H61.7125V137.551H270.876V6.42731Z" fill="#EBEBEB"/>
<path d="M275.982 0H56.738V6.41999H275.982V0Z" fill="#455A64"/>
<path d="M104.82 24.3871H71.7926V61.5048H104.82V24.3871Z" fill="white"/>
<path d="M89.4963 26.9144C89.4978 27.1389 89.4289 27.3587 89.2984 27.546C89.1678 27.7333 88.9815 27.8795 88.763 27.9661C88.5446 28.0527 88.304 28.0758 88.0718 28.0323C87.8395 27.9889 87.6261 27.8809 87.4587 27.7221C87.2913 27.5634 87.1775 27.361 87.1317 27.1407C87.0859 26.9204 87.1102 26.6922 87.2015 26.485C87.2928 26.2779 87.4469 26.1012 87.6444 25.9773C87.8419 25.8535 88.0737 25.7881 88.3104 25.7896C88.4661 25.7896 88.6203 25.8187 88.7642 25.8752C88.9081 25.9317 89.0388 26.0146 89.149 26.119C89.2591 26.2235 89.3464 26.3475 89.406 26.4839C89.4656 26.6204 89.4963 26.7666 89.4963 26.9144Z" fill="#455A64"/>
<path d="M78.0763 31.8224C81.4184 31.5814 84.7604 31.5668 88.0871 31.5302C91.4137 31.4937 94.7635 31.5814 98.0978 31.8224C94.7558 32.0707 91.4214 32.0853 88.0871 32.1218C84.7527 32.1584 81.4184 32.0707 78.0763 31.8224Z" fill="#EBEBEB"/>
<path d="M78.0763 34.7584C81.6962 34.3592 85.3527 34.3592 88.9726 34.7584C85.3521 35.148 81.6968 35.148 78.0763 34.7584Z" fill="#EBEBEB"/>
<path d="M78.0763 37.6873C80.3865 37.4609 82.6967 37.4098 85.0068 37.3952C87.317 37.3805 89.6272 37.4609 91.9374 37.6873C89.6272 37.921 87.317 37.9722 85.0068 37.9868C82.6967 38.0014 80.4019 37.921 78.0763 37.6873Z" fill="#EBEBEB"/>
<path d="M78.0763 40.6234C80.9794 40.397 83.8825 40.3385 86.7857 40.3312C89.6888 40.3239 92.5919 40.3897 95.4873 40.6234C92.5919 40.8571 89.6888 40.9082 86.7857 40.9155C83.8825 40.9228 80.9794 40.8498 78.0763 40.6234Z" fill="#EBEBEB"/>
<path d="M78.0763 43.5595C80.6021 43.3258 83.1202 43.2746 85.6383 43.26C88.1564 43.2454 90.6822 43.3258 93.208 43.5595C90.6822 43.7859 88.1641 43.8443 85.6383 43.8516C83.1125 43.8589 80.6021 43.7859 78.0763 43.5595Z" fill="#EBEBEB"/>
<path d="M78.0763 46.4883C81.3028 46.2473 84.5294 46.2327 87.7559 46.1961C90.9825 46.1596 94.2167 46.2473 97.4433 46.4883C94.2167 46.7366 90.9902 46.7512 87.7559 46.7877C84.5217 46.8243 81.3028 46.7366 78.0763 46.4883Z" fill="#EBEBEB"/>
<path d="M78.0763 49.4245C82.2343 49.0252 86.4241 49.0252 90.5821 49.4245C86.4236 49.814 82.2348 49.814 78.0763 49.4245Z" fill="#EBEBEB"/>
<path d="M78.0763 52.3532C81.4184 52.1122 84.7604 52.0976 88.0871 52.0611C91.4137 52.0245 94.7635 52.1122 98.0978 52.3532C94.7558 52.6015 91.4214 52.6162 88.0871 52.6527C84.7527 52.6892 81.4184 52.6015 78.0763 52.3532Z" fill="#EBEBEB"/>
<path d="M78.0763 55.2893C81.4184 55.0483 84.7604 55.0337 88.0871 54.9971C91.4137 54.9606 94.7635 55.041 98.0978 55.2893C94.7558 55.5376 91.4214 55.5522 88.0871 55.5814C84.7527 55.6107 81.4184 55.5303 78.0763 55.2893Z" fill="#EBEBEB"/>
<path d="M261.112 56.2753H235.253V85.3369H261.112V56.2753Z" fill="white"/>
<path d="M249.076 58.817C249.077 58.9849 249.026 59.1494 248.929 59.2897C248.832 59.43 248.693 59.5397 248.53 59.6049C248.367 59.6702 248.187 59.688 248.013 59.6562C247.839 59.6243 247.679 59.5442 247.554 59.426C247.428 59.3078 247.342 59.1569 247.307 58.9923C247.272 58.8278 247.289 58.657 247.357 58.5018C247.424 58.3466 247.538 58.2138 247.685 58.1204C247.833 58.027 248.006 57.9771 248.183 57.9771C248.299 57.9761 248.415 57.9971 248.524 58.0389C248.632 58.0807 248.731 58.1424 248.814 58.2205C248.897 58.2986 248.963 58.3915 249.008 58.4939C249.053 58.5963 249.076 58.7061 249.076 58.817Z" fill="#455A64"/>
<path d="M239.396 64.1998C241.184 63.9601 242.999 63.9601 244.787 64.1998C242.999 64.4396 241.184 64.4396 239.396 64.1998Z" fill="#EBEBEB"/>
<path d="M239.396 66.2742C241.73 66.021 244.086 66.021 246.419 66.2742C244.085 66.5176 241.73 66.5176 239.396 66.2742Z" fill="#EBEBEB"/>
<path d="M239.396 68.3411C241.558 68.0977 243.742 68.0977 245.903 68.3411C243.742 68.5943 241.557 68.5943 239.396 68.3411Z" fill="#EBEBEB"/>
<path d="M239.396 70.4519C241.558 70.2084 243.742 70.2084 245.903 70.4519C243.742 70.6953 241.558 70.6953 239.396 70.4519Z" fill="#EBEBEB"/>
<path d="M239.396 72.4896C241.271 72.2361 243.174 72.2361 245.048 72.4896C243.173 72.7331 241.272 72.7331 239.396 72.4896Z" fill="#EBEBEB"/>
<path d="M239.396 74.5566C241.802 74.3131 244.229 74.3131 246.635 74.5566C244.229 74.8098 241.802 74.8098 239.396 74.5566Z" fill="#EBEBEB"/>
<path d="M239.396 76.6309C241.38 76.3874 243.388 76.3874 245.372 76.6309C243.388 76.8743 241.38 76.8743 239.396 76.6309Z" fill="#EBEBEB"/>
<path d="M239.396 78.7052C241.884 78.452 244.393 78.452 246.881 78.7052C244.393 78.9486 241.885 78.9486 239.396 78.7052Z" fill="#EBEBEB"/>
<path d="M239.396 80.7721C241.885 80.5286 244.393 80.5286 246.881 80.7721C244.393 81.0253 241.884 81.0253 239.396 80.7721Z" fill="#EBEBEB"/>
<path d="M250.084 64.1999C252.444 63.9565 254.825 63.9565 257.184 64.1999C254.825 64.4434 252.444 64.4434 250.084 64.1999Z" fill="#EBEBEB"/>
<path d="M250.084 66.2742C251.629 66.0211 253.207 66.0211 254.751 66.2742C253.206 66.5176 251.629 66.5176 250.084 66.2742Z" fill="#EBEBEB"/>
<path d="M250.084 68.3411C252.305 68.0976 254.548 68.0976 256.769 68.3411C254.549 68.5943 252.305 68.5943 250.084 68.3411Z" fill="#EBEBEB"/>
<path d="M250.084 70.4519C252.243 70.2084 254.425 70.2084 256.584 70.4519C254.425 70.6954 252.243 70.6954 250.084 70.4519Z" fill="#EBEBEB"/>
<path d="M250.084 72.4896C252.444 72.2364 254.825 72.2364 257.184 72.4896C254.825 72.733 252.444 72.733 250.084 72.4896Z" fill="#EBEBEB"/>
<path d="M250.084 74.5566C251.96 74.3131 253.861 74.3131 255.737 74.5566C253.862 74.8101 251.959 74.8101 250.084 74.5566Z" fill="#EBEBEB"/>
<path d="M250.084 76.6309C252.305 76.3874 254.548 76.3874 256.769 76.6309C254.548 76.8743 252.305 76.8743 250.084 76.6309Z" fill="#EBEBEB"/>
<path d="M250.084 78.7051C251.796 78.452 253.54 78.452 255.252 78.7051C253.539 78.9485 251.797 78.9485 250.084 78.7051Z" fill="#EBEBEB"/>
<path d="M250.084 80.7721C251.728 80.5286 253.401 80.5286 255.044 80.7721C253.401 81.0253 251.727 81.0253 250.084 80.7721Z" fill="#EBEBEB"/>
<path d="M118.697 47.2625H98.8295V66.1062H118.697V47.2625Z" fill="#DD6A57"/>
<path d="M109.949 49.176C109.949 49.3985 109.88 49.616 109.749 49.8009C109.619 49.9859 109.434 50.1301 109.217 50.2152C109 50.3003 108.762 50.3226 108.532 50.2792C108.302 50.2358 108.091 50.1287 107.925 49.9714C107.759 49.8141 107.646 49.6137 107.6 49.3955C107.554 49.1773 107.578 48.9511 107.668 48.7456C107.757 48.5401 107.909 48.3644 108.104 48.2408C108.299 48.1172 108.529 48.0513 108.763 48.0513C108.919 48.0513 109.073 48.0804 109.217 48.1369C109.361 48.1934 109.492 48.2763 109.602 48.3807C109.712 48.4852 109.799 48.6091 109.859 48.7456C109.919 48.8821 109.949 49.0283 109.949 49.176Z" fill="#455A64"/>
<path d="M270.876 6.42731H61.7125V14.7682H270.876V6.42731Z" fill="#DBDBDB"/>
<path d="M128.007 25.1021L161.543 25.0372L195.087 25.1021L161.543 25.1669L128.007 25.1021Z" fill="#C7C7C7"/>
<path d="M128.007 27.695L161.543 27.6301L195.087 27.695L161.543 27.767L128.007 27.695Z" fill="#C7C7C7"/>
<path d="M128.007 30.2949L161.543 30.2229L195.087 30.2949L161.543 30.3598L128.007 30.2949Z" fill="#C7C7C7"/>
<path d="M128.007 32.8878L161.543 32.8157L195.087 32.8878L161.543 32.9526L128.007 32.8878Z" fill="#C7C7C7"/>
<path d="M128.007 35.4807L161.543 35.4158L195.087 35.4807L161.543 35.5455L128.007 35.4807Z" fill="#C7C7C7"/>
<path d="M128.007 38.0735L161.543 38.0087L195.087 38.0735L161.543 38.1456L128.007 38.0735Z" fill="#C7C7C7"/>
<path d="M128.007 40.6663L161.543 40.6015L195.087 40.6663L161.543 40.7384L128.007 40.6663Z" fill="#C7C7C7"/>
<path d="M128.007 43.2664L161.543 43.1944L195.087 43.2664L161.543 43.3313L128.007 43.2664Z" fill="#C7C7C7"/>
<path d="M128.007 45.8592L161.543 45.7872L195.087 45.8592L161.543 45.9241L128.007 45.8592Z" fill="#C7C7C7"/>
<path d="M128.007 48.4522L161.543 48.3873L195.087 48.4522L161.543 48.517L128.007 48.4522Z" fill="#C7C7C7"/>
<path d="M128.007 51.0449L161.543 50.9801L195.087 51.0449L161.543 51.117L128.007 51.0449Z" fill="#C7C7C7"/>
<path d="M128.007 53.6451L161.543 53.573L195.087 53.6451L161.543 53.7099L128.007 53.6451Z" fill="#C7C7C7"/>
<path d="M128.007 56.2378L161.543 56.1657L195.087 56.2378L161.543 56.3026L128.007 56.2378Z" fill="#C7C7C7"/>
<path d="M128.007 58.8308L161.543 58.7659L195.087 58.8308L161.543 58.8956L128.007 58.8308Z" fill="#C7C7C7"/>
<path d="M128.007 61.4235L161.543 61.3587L195.087 61.4235L161.543 61.4956L128.007 61.4235Z" fill="#C7C7C7"/>
<path d="M140.189 43.2673H135.099V64.4555H140.189V43.2673Z" fill="#DD6A57"/>
<path d="M149.623 34.3057H144.532V64.4555H149.623V34.3057Z" fill="white"/>
<path d="M159.064 30.2375H153.974V64.4555H159.064V30.2375Z" fill="#DD6A57"/>
<path d="M168.497 35.54H163.407V64.4482H168.497V35.54Z" fill="white"/>
<path d="M177.938 37.1176H172.847V64.4482H177.938V37.1176Z" fill="#DD6A57"/>
<path d="M187.371 52.6088H182.281V64.4555H187.371V52.6088Z" fill="white"/>
<path d="M129.824 23.2844L129.94 33.5753L130.017 43.8663C130.068 50.7318 130.094 57.5925 130.094 64.4482L129.824 64.1999H146.142H162.452L178.769 64.2876L195.087 64.4336L178.769 64.587L162.452 64.6747H146.142H129.824H129.555V64.419C129.555 57.5584 129.58 50.6977 129.632 43.8371L129.709 33.5461L129.824 23.2844Z" fill="#C7C7C7"/>
<path d="M140.189 66.6248H135.099V67.063H140.189V66.6248Z" fill="#C7C7C7"/>
<path d="M149.623 66.6248H144.532V67.063H149.623V66.6248Z" fill="#C7C7C7"/>
<path d="M159.064 66.6248H153.974V67.063H159.064V66.6248Z" fill="#C7C7C7"/>
<path d="M168.497 66.6248H163.407V67.063H168.497V66.6248Z" fill="#C7C7C7"/>
<path d="M177.938 66.6248H172.847V67.063H177.938V66.6248Z" fill="#C7C7C7"/>
<path d="M187.371 66.6248H182.281V67.063H187.371V66.6248Z" fill="#C7C7C7"/>
<path d="M100.724 121.059H80.5251V122.703H100.724V121.059Z" fill="#C7C7C7"/>
<path d="M107.816 124.492H80.5251V126.136H107.816V124.492Z" fill="#C7C7C7"/>
<path d="M95.01 127.932H80.5251V129.576H95.01V127.932Z" fill="#C7C7C7"/>
<path d="M76.0203 121.059H71.8081V125.055H76.0203V121.059Z" fill="#DD6A57"/>
<path d="M231.157 25.0299H210.958V26.6732H231.157V25.0299Z" fill="#C7C7C7"/>
<path d="M238.249 28.4626H210.958V30.106H238.249V28.4626Z" fill="#C7C7C7"/>
<path d="M225.443 31.9027H210.958V33.5461H225.443V31.9027Z" fill="#C7C7C7"/>
<path d="M206.453 25.0299H202.241V29.0251H206.453V25.0299Z" fill="#DD6A57"/>
<path d="M234.968 38.3301H210.958V39.9734H234.968V38.3301Z" fill="#C7C7C7"/>
<path d="M229.948 41.7628H210.958V43.4062H229.948V41.7628Z" fill="#C7C7C7"/>
<path d="M238.249 45.2029H210.958V46.8462H238.249V45.2029Z" fill="#C7C7C7"/>
<path d="M206.453 38.3301H202.241V42.3252H206.453V38.3301Z" fill="white"/>
<path d="M162.321 78.8585H71.7926V116.414H162.321V78.8585Z" fill="#DBDBDB"/>
<path d="M157.516 83.5986H76.6055V86.8414H157.516V83.5986Z" fill="white"/>
<path d="M117.973 83.5986H76.6055V86.8414H117.973V83.5986Z" fill="#DD6A57"/>
<path d="M157.516 89.8068H76.6055V93.0496H157.516V89.8068Z" fill="white"/>
<path d="M150.824 89.8068H76.6055V93.0496H150.824V89.8068Z" fill="#DD6A57"/>
<path d="M157.516 96.015H76.6055V99.2578H157.516V96.015Z" fill="white"/>
<path d="M100.547 96.015H76.6055V99.2578H100.547V96.015Z" fill="#DD6A57"/>
<path d="M157.516 102.223H76.6055V105.466H157.516V102.223Z" fill="white"/>
<path d="M140.189 102.223H76.6055V105.466H140.189V102.223Z" fill="#DD6A57"/>
<path d="M157.516 108.431H76.6055V111.674H157.516V108.431Z" fill="white"/>
<path d="M123.356 108.431H76.6055V111.674H123.356V108.431Z" fill="#DD6A57"/>
<path d="M220.984 99.3236C220.702 102.917 219.491 106.389 217.457 109.432L211.528 106.182C212.945 104.12 213.831 101.77 214.115 99.3236H220.984Z" fill="#455A64"/>
<path d="M221.03 97.6291C221.03 97.8701 221.03 98.1038 221.03 98.3595H214.177C214.177 98.1258 214.177 97.892 214.177 97.6291C214.179 95.0373 213.5 92.4858 212.203 90.2047C210.906 87.9236 209.03 85.9847 206.746 84.5627L210.18 78.9315C213.503 80.9283 216.241 83.6894 218.138 86.9583C220.035 90.2272 221.03 93.8978 221.03 97.6291Z" fill="#A6A6A6"/>
<path d="M209.318 78.4202L205.898 84.0514C203.55 82.7745 200.904 82.0694 198.198 81.9991V75.506C202.104 75.5734 205.929 76.5758 209.318 78.4202Z" fill="#455A64"/>
<path d="M197.197 75.506V81.9991C194.414 82.0806 191.698 82.8302 189.304 84.1778C186.909 85.5253 184.914 87.4269 183.505 89.7045L177.568 86.4617C179.579 83.1956 182.439 80.4734 185.876 78.5553C189.312 76.6372 193.21 75.5873 197.197 75.506Z" fill="#DD6A57"/>
<path d="M183.005 90.5663C181.873 92.6716 181.267 94.9958 181.234 97.3588H174.388C174.418 93.8558 175.337 90.4112 177.068 87.3162L183.005 90.5663Z" fill="#A6A6A6"/>
<path d="M188.526 110.623L185.099 116.254C181.914 114.318 179.275 111.674 177.409 108.552C175.544 105.43 174.51 101.924 174.395 98.3376H181.241C181.355 100.784 182.074 103.17 183.339 105.304C184.605 107.438 186.381 109.26 188.526 110.623Z" fill="#455A64"/>
<path d="M216.88 110.25C213.535 114.822 208.498 118.031 202.771 119.238C197.044 120.446 191.048 119.563 185.977 116.765L189.404 111.141C192.907 113.088 197.044 113.74 201.022 112.974C205.001 112.207 208.542 110.074 210.965 106.985L216.88 110.25Z" fill="#DBDBDB"/>
<path d="M209.918 98.3376C209.916 100.352 209.289 102.322 208.116 104.001C206.942 105.68 205.274 106.995 203.319 107.781L199.091 98.3376H209.918Z" fill="#DD6A57"/>
<path d="M197.721 97.6364L201.94 107.08C201.609 107.204 201.278 107.328 200.947 107.423C199.907 107.729 198.825 107.884 197.736 107.884C196.647 107.882 195.565 107.727 194.525 107.423C192.307 106.79 190.363 105.495 188.981 103.732C187.6 101.968 186.854 99.8298 186.854 97.6327C186.854 95.4357 187.6 93.2971 188.981 91.5336C190.363 89.7702 192.307 88.4758 194.525 87.8421C196.617 87.2288 198.855 87.2288 200.947 87.8421C202.621 88.3326 204.145 89.2029 205.384 90.3776C206.624 91.5522 207.543 92.9959 208.062 94.5834C208.381 95.5705 208.545 96.5968 208.548 97.6291L197.721 97.6364Z" fill="#DD6A57"/>
<path d="M197.72 97.6364L201.94 107.08C201.609 107.204 201.278 107.328 200.947 107.423C199.907 107.729 198.825 107.884 197.736 107.884C195.429 107.887 193.182 107.189 191.325 105.891C189.467 104.594 188.098 102.765 187.417 100.675C186.76 98.6921 186.76 96.5661 187.417 94.5834C188.099 92.4942 189.469 90.6674 191.326 89.3712C193.184 88.0751 195.43 87.3778 197.736 87.3819C200.595 87.3819 203.337 88.4592 205.359 90.3768C207.381 92.2944 208.517 94.8953 208.517 97.6072L197.72 97.6364Z" fill="#DBDBDB"/>
<path d="M197.721 97.6364L190.675 105.408C189.315 104.286 188.274 102.858 187.646 101.256C187.018 99.6544 186.824 97.9287 187.081 96.237C187.337 94.5454 188.037 92.9417 189.116 91.5727C190.195 90.2037 191.618 89.113 193.256 88.4002C194.894 87.6875 196.694 87.3755 198.491 87.4928C200.289 87.6101 202.027 88.1528 203.547 89.0715C205.066 89.9902 206.319 91.2555 207.189 92.7517C208.06 94.2479 208.522 95.9273 208.532 97.6364H197.721Z" fill="#A6A6A6"/>
<path d="M228.685 122.089H213.615L194.948 104.385L195.226 104.129L213.776 121.724H228.685V122.089Z" fill="#263238"/>
<path d="M196.142 103.26H194.04V105.254H196.142V103.26Z" fill="#263238"/>
<path d="M228.685 108.395H211.705L203.642 100.748L203.912 100.485L211.859 108.03H228.685V108.395Z" fill="#263238"/>
<path d="M204.821 99.623H202.726V101.617H204.821V99.623Z" fill="#263238"/>
<path d="M228.685 94.8391H203.003V95.2042H228.685V94.8391Z" fill="#263238"/>
<path d="M203.781 94.0283H201.679V96.0222H203.781V94.0283Z" fill="#263238"/>
<path d="M255.498 93.0277H235.299V94.6711H255.498V93.0277Z" fill="#DBDBDB"/>
<path d="M262.59 96.4605H235.299V98.1039H262.59V96.4605Z" fill="#DBDBDB"/>
<path d="M249.784 99.9006H235.299V101.544H249.784V99.9006Z" fill="#DBDBDB"/>
<path d="M230.795 93.0277H226.582V97.0229H230.795V93.0277Z" fill="#DD6A57"/>
<path d="M259.31 106.328H235.299V107.971H259.31V106.328Z" fill="#DBDBDB"/>
<path d="M254.289 109.761H235.299V111.404H254.289V109.761Z" fill="#DBDBDB"/>
<path d="M262.59 113.201H235.299V114.844H262.59V113.201Z" fill="#DBDBDB"/>
<path d="M230.795 106.328H226.582V110.323H230.795V106.328Z" fill="#A6A6A6"/>
<path d="M259.31 119.628H235.299V121.271H259.31V119.628Z" fill="#DBDBDB"/>
<path d="M254.289 123.061H235.299V124.704H254.289V123.061Z" fill="#DBDBDB"/>
<path d="M262.59 126.501H235.299V128.144H262.59V126.501Z" fill="#DBDBDB"/>
<path d="M230.795 119.628H226.582V123.623H230.795V119.628Z" fill="#C7C7C7"/>
<path d="M170.915 206.024L172.409 214.547L182.566 266.543H184.198L176.813 214.547L175.728 206.024H170.915Z" fill="#DBDBDB"/>
<path d="M175.728 206.024H170.915L172.409 214.547H176.813L175.728 206.024Z" fill="#A6A6A6"/>
<path d="M139.034 266.543H140.675L150.824 214.547L152.326 206.024H147.513L146.419 214.547L139.034 266.543Z" fill="#DBDBDB"/>
<path d="M147.513 206.024L146.419 214.547H150.824L152.326 206.024H147.513Z" fill="#A6A6A6"/>
<path d="M108.594 266.543H110.226L120.376 214.547L121.877 206.024H117.065L115.971 214.547L108.594 266.543Z" fill="#DBDBDB"/>
<path d="M115.971 214.547H120.376L121.877 206.024H117.064L115.971 214.547Z" fill="#A6A6A6"/>
<path d="M111.181 210.034H185.561V202.599H157.724L148.36 150.961H114.023L111.181 210.034Z" fill="#DBDBDB"/>
<path d="M111.181 210.034H115.239L117.881 150.961H114.023L111.181 210.034Z" fill="#A6A6A6"/>
<path d="M280.209 249.138C282.905 248.714 286.177 249.174 288.195 251.03C288.272 251.103 288.195 251.205 288.072 251.176C285.526 250.338 282.893 249.762 280.217 249.459C280.172 249.46 280.129 249.444 280.096 249.415C280.064 249.385 280.045 249.345 280.044 249.302C280.043 249.26 280.06 249.218 280.091 249.188C280.122 249.157 280.164 249.139 280.209 249.138Z" fill="#263238"/>
<path d="M278.246 250.204C280.941 249.781 284.221 250.241 286.231 252.096C286.308 252.169 286.231 252.271 286.108 252.242C283.561 251.407 280.928 250.832 278.253 250.526C278.231 250.526 278.209 250.522 278.188 250.515C278.167 250.507 278.148 250.496 278.132 250.481C278.116 250.467 278.103 250.449 278.094 250.43C278.085 250.411 278.081 250.39 278.08 250.369C278.079 250.347 278.083 250.326 278.091 250.307C278.099 250.287 278.112 250.269 278.127 250.254C278.142 250.239 278.161 250.226 278.181 250.218C278.201 250.209 278.223 250.205 278.246 250.204Z" fill="#263238"/>
<path d="M276.282 251.271C278.977 250.854 282.258 251.307 284.267 253.162C284.344 253.235 284.267 253.338 284.152 253.316C281.604 252.474 278.968 251.893 276.29 251.585C276.252 251.578 276.217 251.559 276.192 251.531C276.167 251.503 276.153 251.467 276.152 251.431C276.151 251.394 276.164 251.358 276.187 251.329C276.211 251.3 276.244 251.279 276.282 251.271Z" fill="#263238"/>
<path d="M264.577 262.832C266.002 263.249 306.468 262.248 307.985 261.284C308.571 260.926 308.756 255.324 308.756 248.554V248.334L282.635 248.707V249.123C282.635 249.123 267.326 256.076 265.778 257.303C264.231 258.53 263.153 262.416 264.577 262.832Z" fill="#37474F"/>
<path d="M308.817 248.334V248.554C308.817 255.324 308.601 260.926 308.047 261.284C307.493 261.642 298.591 262.168 289.111 262.489C277.768 262.869 265.417 263.059 264.639 262.832C263.214 262.416 264.362 258.53 265.894 257.303C267.426 256.076 282.751 249.123 282.751 249.123V248.707L291.46 248.583L308.817 248.334Z" fill="#37474F"/>
<path d="M264.993 261.328C271.816 260.999 299.345 260.298 306.106 260.466C306.16 260.466 306.16 260.466 306.106 260.466C299.361 260.933 271.823 261.43 265.001 261.401C264.854 261.437 264.854 261.335 264.993 261.328Z" fill="#263238"/>
<path d="M291.375 248.583C290.736 252.731 289.766 258.845 289.065 262.46C277.722 262.84 265.37 263.03 264.593 262.803C263.168 262.387 264.315 258.501 265.848 257.274C267.38 256.047 282.704 249.094 282.704 249.094V248.678L291.375 248.583Z" fill="#263238"/>
<path d="M312.213 248.663L281.703 248.926C281.703 248.926 273.564 146.542 280.802 119.723H302.695C302.695 119.723 308.578 131.109 305.213 143.927L312.213 248.663Z" fill="#455A64"/>
<path d="M310.103 243.828C309.303 243.73 308.499 243.671 307.693 243.653C306.8 243.594 305.906 243.536 305.005 243.499C303.288 243.434 301.563 243.405 299.838 243.397C296.365 243.397 292.908 243.397 289.412 243.507C287.433 243.565 285.454 243.638 283.482 243.74C283.466 243.74 283.45 243.747 283.439 243.758C283.427 243.769 283.421 243.783 283.421 243.799C283.421 243.814 283.427 243.829 283.439 243.84C283.45 243.851 283.466 243.857 283.482 243.857C286.932 243.974 290.413 244.018 293.824 244.084C297.235 244.15 300.755 244.208 304.166 244.142C305.152 244.142 306.137 244.142 307.131 244.069C308.124 243.996 309.125 244.069 310.088 243.938C310.149 243.93 310.172 243.843 310.103 243.828Z" fill="#263238"/>
<path d="M283.967 218.864C283.621 211.385 283.374 203.906 283.151 196.42C282.72 181.461 282.607 166.494 282.812 151.516C282.928 143.117 283.159 134.718 283.428 126.326C283.428 126.231 283.274 126.238 283.266 126.326C282.427 141.349 282.111 156.41 282.096 171.463C282.08 186.516 282.404 201.408 283.182 216.359C283.621 224.751 284.16 233.157 284.991 241.513C284.991 241.586 285.115 241.586 285.115 241.513C284.76 233.968 284.306 226.416 283.967 218.864Z" fill="#263238"/>
<path d="M255.768 252.395C258.463 251.972 261.743 252.432 263.753 254.287C263.83 254.36 263.753 254.462 263.63 254.433C261.084 253.595 258.451 253.02 255.775 252.717C255.73 252.718 255.687 252.702 255.654 252.672C255.622 252.643 255.603 252.602 255.602 252.56C255.601 252.517 255.618 252.476 255.649 252.445C255.68 252.414 255.723 252.396 255.768 252.395Z" fill="#263238"/>
<path d="M253.804 253.462C256.499 253.045 259.779 253.498 261.789 255.353C261.866 255.426 261.789 255.529 261.674 255.499C259.125 254.663 256.489 254.085 253.812 253.776C253.773 253.769 253.739 253.75 253.714 253.722C253.689 253.694 253.675 253.658 253.674 253.622C253.673 253.585 253.685 253.549 253.709 253.52C253.733 253.491 253.766 253.47 253.804 253.462Z" fill="#263238"/>
<path d="M251.833 254.506C254.528 254.09 257.8 254.543 259.81 256.398C259.887 256.471 259.81 256.58 259.695 256.551C257.145 255.722 254.51 255.154 251.833 254.857C251.783 254.857 251.736 254.838 251.702 254.805C251.667 254.773 251.648 254.728 251.648 254.682C251.648 254.635 251.667 254.59 251.702 254.558C251.736 254.525 251.783 254.506 251.833 254.506Z" fill="#263238"/>
<path d="M240.135 266.09C241.56 266.506 282.027 265.506 283.544 264.542C284.129 264.184 284.314 258.582 284.314 251.811V251.585L258.193 251.95V252.366C258.193 252.366 242.884 259.319 241.337 260.546C239.789 261.773 238.741 265.674 240.135 266.09Z" fill="#37474F"/>
<path d="M240.551 264.585C247.374 264.264 274.904 263.556 281.665 263.724C281.719 263.724 281.719 263.76 281.665 263.76C274.919 264.228 247.382 264.724 240.559 264.695C240.413 264.732 240.413 264.593 240.551 264.585Z" fill="#263238"/>
<path d="M289.358 146.338C289.358 146.338 287.209 187.867 287.132 188.853C287.132 189.233 286.131 253.316 286.131 253.316L255.629 253.579C255.629 253.579 259.803 193.505 260.249 187.64C260.303 186.961 262.028 146.572 269.267 119.752H302.056C302.056 119.752 301.771 133.797 295.041 143.957C293.101 144.648 291.203 145.443 289.358 146.338Z" fill="#455A64"/>
<path d="M286.986 147.141C288.603 146.309 290.251 145.556 291.945 144.87C293.639 144.183 295.364 143.562 297.051 142.854C297.112 142.854 297.166 142.912 297.105 142.942C295.449 143.752 293.824 144.621 292.145 145.388C290.499 146.14 288.801 146.784 287.063 147.316C287.038 147.326 287.011 147.326 286.986 147.317C286.962 147.307 286.942 147.289 286.932 147.265C286.922 147.242 286.922 147.216 286.932 147.193C286.942 147.169 286.961 147.151 286.986 147.141Z" fill="#263238"/>
<path d="M289.234 146.294C289.234 146.236 289.342 146.25 289.334 146.294C288.233 154.08 286.747 246.611 286.493 248.824C286.493 248.859 286.478 248.892 286.452 248.917C286.426 248.942 286.391 248.955 286.354 248.955C286.318 248.955 286.282 248.942 286.256 248.917C286.23 248.892 286.216 248.859 286.216 248.824C286.162 244.909 286.354 172.186 289.234 146.294Z" fill="#263238"/>
<path d="M274.164 122.696C273.325 126.698 272.74 130.73 272.108 134.791C271.477 138.851 270.868 142.883 270.299 146.937C269.174 154.912 268.173 162.9 267.295 170.9C265.529 187.09 264.246 203.319 263.445 219.587C262.988 228.731 262.711 237.885 262.613 247.049C262.613 247.122 262.737 247.115 262.737 247.049C263.322 230.776 264.154 214.511 265.455 198.275C266.756 182.039 268.466 165.89 270.553 149.763C271.133 145.293 271.739 140.828 272.37 136.368C273.025 131.825 273.795 127.297 274.349 122.739C274.326 122.63 274.164 122.586 274.164 122.696Z" fill="#263238"/>
<path d="M284.475 249.321C283.676 249.219 282.871 249.158 282.065 249.138C281.172 249.08 280.279 249.021 279.385 248.985C277.66 248.919 275.943 248.89 274.218 248.89C270.738 248.89 267.288 248.89 263.784 248.999C261.813 249.058 259.834 249.131 257.854 249.233C257.777 249.233 257.785 249.342 257.854 249.342C261.297 249.459 264.746 249.51 268.196 249.569C271.646 249.627 275.088 249.693 278.531 249.635C279.524 249.635 280.51 249.635 281.495 249.554C282.481 249.474 283.497 249.554 284.46 249.423C284.522 249.394 284.545 249.328 284.475 249.321Z" fill="#263238"/>
<path d="M261.728 112.529C264.924 111.002 277.398 105.459 277.899 104.604C278.4 103.75 283.205 87.2432 284.491 84.1976C285.777 81.1519 289.589 82.8317 289.565 87.6376C289.542 92.4435 289.889 109.081 289.157 111.74C288.426 114.399 274.742 124.887 272.216 127.136C270.314 128.926 259.941 113.376 261.728 112.529Z" fill="#AD6359"/>
<path d="M274.765 124.909C273.016 126.566 271.153 128.113 269.19 129.539C267.596 130.606 262.906 133.549 261.489 131.993C260.527 130.934 263.029 128.904 264.824 127.421C265.755 126.647 266.702 125.135 266.14 124.58C265.17 123.609 262.798 125.668 261.335 127.275C258.494 130.379 255.044 135.419 252.264 134.418C251.217 134.038 251.74 132.556 252.711 130.956C250.939 133.03 248.937 134.907 247.751 134.528C247.442 134.432 247.185 134.226 247.032 133.954C246.88 133.681 246.845 133.363 246.935 133.067C246.696 133.285 246.394 133.43 246.068 133.485C245.742 133.539 245.405 133.501 245.102 133.374C244.109 132.884 244.078 131.694 244.479 130.328C244.336 130.359 244.187 130.358 244.045 130.324C243.903 130.289 243.772 130.223 243.662 130.131C241.306 128.393 246.743 119.424 249.222 117.948C254.187 115.127 259.538 112.966 265.124 111.528C269.097 112.894 274.773 124.901 274.765 124.909Z" fill="#AD6359"/>
<path d="M260.619 121.688C258.829 122.57 257.267 123.817 256.045 125.34C254.628 127.144 253.735 129.254 252.541 131.183C252.541 131.234 252.603 131.285 252.626 131.226C253.18 130.27 253.835 129.349 254.42 128.407C255.005 127.465 255.544 126.545 256.183 125.668C257.337 124.057 258.862 122.716 260.642 121.746C260.642 121.746 260.642 121.68 260.619 121.688Z" fill="#263238"/>
<path d="M257.993 118.985C256.055 120.141 254.248 121.485 252.603 122.995C250.854 124.697 249.807 126.895 248.752 129.021C248.121 130.301 247.523 131.591 246.958 132.892C246.958 132.95 247.012 132.994 247.043 132.935C248.098 130.744 249.214 128.553 250.4 126.472C251.491 124.493 252.983 122.739 254.79 121.308C255.829 120.497 256.923 119.752 258.024 119.022C258.039 119.007 257.993 118.971 257.993 118.985Z" fill="#263238"/>
<path d="M254.782 116.926C252.924 117.82 251.252 119.025 249.846 120.483C248.295 122.4 247.002 124.492 245.996 126.713C245.433 127.896 244.918 129.094 244.417 130.306C244.417 130.35 244.486 130.386 244.509 130.306C245.688 127.632 247.049 125.034 248.583 122.528C249.294 121.323 250.195 120.23 251.255 119.285C252.36 118.401 253.54 117.604 254.782 116.904C254.782 116.904 254.79 116.918 254.782 116.926Z" fill="#263238"/>
<path d="M263.892 109.929L279.377 124.704C279.377 124.704 288.757 116.108 289.766 111.769C290.774 107.431 290.805 90.7417 289.766 85.7167C288.726 80.6917 285.307 79.0411 283.012 85.965C280.717 92.889 277.93 103.735 277.714 104.137C277.499 104.538 263.892 109.929 263.892 109.929Z" fill="#DD6A57"/>
<path d="M282.073 120.117C281.102 119.074 280.073 118.079 278.993 117.137C277.945 116.159 276.867 115.224 275.782 114.282C273.61 112.405 271.377 110.579 269.09 108.826C269.02 108.767 268.913 108.826 268.982 108.921C271.038 110.944 273.171 112.916 275.343 114.822C276.421 115.764 277.507 116.699 278.623 117.605C279.693 118.535 280.813 119.41 281.981 120.227C282.058 120.249 282.127 120.154 282.073 120.117Z" fill="#263238"/>
<path d="M280.24 88.777C282.011 88.9084 285.8 85.8555 287.325 83.2845C287.274 81.8186 287.146 80.3559 286.94 78.9023C286.809 77.5 286.701 75.937 286.716 74.5201C286.716 74.2206 285.654 74.7538 285.654 74.7538L283.698 75.192L277.214 76.6527C277.741 78.4501 278.033 80.3021 278.084 82.1671C278.077 82.3633 278.054 82.5587 278.015 82.7514C278.015 82.7514 278.015 82.8098 278.015 82.8536C277.799 83.9346 277.476 88.5724 280.24 88.777Z" fill="#AD6359"/>
<path d="M278.015 82.7222C278.015 82.7222 278.015 82.7806 278.015 82.8244C278.339 82.8647 278.666 82.8818 278.993 82.8756C285.376 82.7879 286.239 75.0898 286.239 75.0898L283.713 75.1774L277.229 76.6382C277.757 78.4355 278.049 80.2875 278.099 82.1525C278.087 82.3442 278.059 82.5347 278.015 82.7222Z" fill="#263238"/>
<path d="M286.978 62.3447C288.38 65.405 287.748 74.7611 285.584 77.0544C282.504 80.3849 276.89 81.276 273.764 77.6314C270.738 74.1037 271.831 61.9357 274.264 59.7957C277.845 56.6405 284.945 57.8237 286.978 62.3447Z" fill="#AD6359"/>
<path d="M272.324 64.9083C272.324 64.9083 271.554 68.4141 270.784 71.898L272.031 71.7446L271.746 73.3222C272.194 73.418 272.658 73.4233 273.107 73.3378C273.557 73.2522 273.983 73.0777 274.357 72.8256L272.324 64.9083Z" fill="#AD6359"/>
<path d="M273.664 68.7136C273.664 68.7136 273.718 68.7136 273.71 68.7721C273.618 69.4002 273.625 70.1305 274.203 70.4008C273.471 70.262 273.471 69.2906 273.664 68.7136Z" fill="#263238"/>
<path d="M274.334 68.1147C275.404 68.1147 275.258 70.1817 274.265 70.1525C273.271 70.1233 273.433 68.0928 274.334 68.1147Z" fill="#263238"/>
<path d="M275.242 67.3843C274.958 67.2966 274.703 67.1652 274.472 67.0556C274.166 66.9765 273.896 66.8046 273.702 66.5663C273.659 66.4811 273.646 66.3844 273.667 66.2917C273.688 66.199 273.741 66.1157 273.818 66.055C273.986 65.9512 274.181 65.8924 274.381 65.8847C274.582 65.8769 274.781 65.9207 274.958 66.0112C275.343 66.1409 275.664 66.401 275.859 66.7416C275.906 66.8255 275.926 66.9214 275.914 67.0161C275.901 67.1108 275.859 67.1996 275.791 67.2702C275.723 67.3408 275.634 67.3897 275.536 67.4101C275.438 67.4306 275.335 67.4215 275.242 67.3843Z" fill="#263238"/>
<path d="M274.542 72.7088C274.263 73.0179 273.9 73.2491 273.493 73.3778C273.086 73.5065 272.65 73.5277 272.231 73.4392C272.185 73.4392 272.162 73.3807 272.178 73.3807C273.008 73.3654 273.814 73.1107 274.488 72.6504C274.565 72.643 274.588 72.643 274.542 72.7088Z" fill="#263238"/>
<path d="M273.063 61.9138C270.83 61.2784 269.275 56.604 270.052 54.873C270.83 53.142 272.663 55.8736 272.663 55.8736C272.663 55.8736 272.848 54.2376 273.633 54.055C274.419 53.8724 275.882 56.1219 275.882 56.1219C275.882 56.1219 283.382 56.5748 284.984 57.1225C286.585 57.6703 287.071 59.7154 287.071 59.7154C287.739 59.9964 288.334 60.4127 288.814 60.9351C289.294 61.4574 289.648 62.0732 289.851 62.7391C290.621 65.1055 288.141 73.9942 286.593 75.1993C285.045 76.4044 280.756 69.6412 280.756 69.6412C280.756 69.6412 279.601 69.7872 279.124 67.5961C278.423 64.3459 278.23 62.279 276.528 61.9503C275.378 61.8281 274.217 61.8159 273.063 61.9138Z" fill="#263238"/>
<path d="M280.402 70.0283C280.402 70.0283 282.296 66.8731 283.79 67.4866C285.284 68.1001 284.06 72.5408 282.45 73.2785C282.251 73.3866 282.031 73.4555 281.803 73.4809C281.575 73.5063 281.344 73.4877 281.124 73.4263C280.904 73.3649 280.699 73.2619 280.522 73.1236C280.345 72.9852 280.2 72.8143 280.094 72.6211L280.402 70.0283Z" fill="#AD6359"/>
<path d="M283.405 68.7501C283.405 68.7501 283.443 68.7501 283.405 68.7939C282.893 69.0943 282.454 69.4934 282.116 69.9653C281.778 70.4371 281.548 70.9712 281.441 71.5328C281.498 71.415 281.58 71.3103 281.684 71.2258C281.787 71.1413 281.908 71.0792 282.04 71.0438C282.171 71.0083 282.308 71.0004 282.443 71.0205C282.578 71.0407 282.706 71.0884 282.82 71.1604V71.2261C282.609 71.1809 282.389 71.1996 282.19 71.2795C281.991 71.3595 281.823 71.4966 281.711 71.6716C281.52 71.963 281.365 72.2743 281.249 72.5992C281.203 72.7088 281.01 72.6722 281.033 72.5481C280.856 71.1165 281.819 69.035 283.405 68.7501Z" fill="#263238"/>
<path d="M279.824 91.8518C273.926 102.618 263.491 114.713 253.319 119.226C247.12 121.965 242.538 120.49 240.698 118.306C238.025 115.173 243.231 95.0363 247.243 88.9669C248.552 87.0022 267.942 92.1586 266.641 94.3132C265.339 96.4678 271.261 90.0186 277.66 85.1762C284.229 80.1732 283.405 85.3515 279.824 91.8518Z" fill="#AD6359"/>
<path d="M253.45 78.2305C255.76 76.5944 258.324 74.5348 261.25 73.7387C264.177 72.9426 267.773 75.886 268.112 76.9231C268.45 77.9602 269.459 84.8038 266.571 85.6511C263.684 86.4983 263.799 80.984 263.491 80.4435C263.183 79.903 262.844 79.2019 262.313 79.4137C261.782 79.6255 253.565 86.7174 253.565 86.7174L253.45 78.2305Z" fill="#AD6359"/>
<path d="M253.758 78.5591C253.919 78.5153 260.773 73.3223 263.707 72.5262C266.641 71.7301 270.229 74.6735 270.568 75.7179C270.907 76.7624 271.916 83.5914 269.028 84.4386C266.14 85.2858 266.256 79.7715 265.948 79.231C265.64 78.6906 265.309 77.9894 264.777 78.2085C264.246 78.4276 256.029 85.5122 256.029 85.5122L253.758 78.5591Z" fill="#AD6359"/>
<path d="M267.904 84.3802C267.439 83.9837 267.089 83.4808 266.887 82.9194C266.634 82.3474 266.478 81.741 266.425 81.1227C266.426 80.5796 266.379 80.0373 266.287 79.5013C266.116 78.9914 265.814 78.5296 265.409 78.1574C265.055 77.836 264.639 78.0917 264.346 78.3254C263.865 78.6756 263.41 79.0563 262.983 79.4648L261.582 80.7502C261.084 81.1787 260.615 81.6373 260.18 82.1233C260.18 82.1598 260.18 82.2183 260.242 82.1891C260.685 81.8577 261.109 81.5042 261.512 81.13C261.985 80.721 262.462 80.3193 262.945 79.9249C263.391 79.5524 263.822 79.158 264.277 78.7928C264.438 78.6614 264.747 78.3692 264.978 78.3473C265.209 78.3254 265.493 78.822 265.594 78.9754C265.878 79.4343 266.012 79.9632 265.979 80.4946C265.982 81.0324 266.044 81.5684 266.163 82.0941C266.271 82.5904 266.469 83.0651 266.749 83.4964C267.067 83.8631 267.429 84.1939 267.827 84.4824C267.881 84.5044 267.958 84.4167 267.904 84.3802Z" fill="#263238"/>
<path d="M247.151 89.1787C247.151 89.1787 250.624 81.2249 253.912 77.3028C256.815 73.8262 260.55 71.0508 263.691 70.1013C266.833 69.1519 274.626 76.8938 272.039 78.1355C269.313 79.4209 265.678 75.4769 264.554 76.4556C263.299 77.5512 261.828 79.3771 262.421 80.9109C263.014 82.4447 265.501 84.8111 268.158 83.9492C270.815 83.0874 270.537 79.6546 272.894 78.5152C275.25 77.3759 275.858 81.3564 274.911 84.3582C273.851 87.3128 271.928 89.9213 269.367 91.8811C267.295 93.393 260.996 98.4545 260.996 98.4545L247.151 89.1787Z" fill="#AD6359"/>
<path d="M271.015 78.3837C269.988 78.4215 268.969 78.197 268.065 77.7337C267.195 77.2761 266.295 76.8712 265.37 76.5213C265.28 76.4896 265.183 76.4777 265.087 76.4865C264.991 76.4954 264.898 76.5248 264.816 76.5724C264.626 76.6963 264.451 76.8383 264.292 76.996C263.953 77.3313 263.644 77.6929 263.368 78.077C262.844 78.8074 262.336 79.7349 262.598 80.531C262.887 81.3952 263.42 82.1681 264.138 82.766C264.839 83.3942 265.731 83.7957 266.687 83.9127C267.163 83.9396 267.64 83.8852 268.096 83.752C268.555 83.5904 268.974 83.3419 269.328 83.0216C270.042 82.3549 270.592 81.5468 270.938 80.6552C270.688 81.6033 270.205 82.4818 269.529 83.2188C269.159 83.5794 268.713 83.8608 268.219 84.0441C267.728 84.2216 267.205 84.3084 266.679 84.2998C265.61 84.2209 264.601 83.8013 263.815 83.1093C262.99 82.4622 262.371 81.6099 262.028 80.6479C261.884 80.1254 261.931 79.5722 262.159 79.0776C262.359 78.6114 262.617 78.1699 262.929 77.7629C263.229 77.3595 263.563 76.9808 263.93 76.6308C264.125 76.4476 264.339 76.2837 264.569 76.1415C264.709 76.075 264.861 76.0357 265.017 76.0256C265.173 76.0156 265.33 76.0351 265.478 76.0831C265.968 76.2588 266.437 76.4815 266.88 76.7477L268.189 77.4781C269.035 78.0006 270.007 78.3121 271.015 78.3837Z" fill="#263238"/>
<path d="M244.802 89.8871L267.064 93.8238L266.756 94.4885C266.756 94.4885 275.882 85.5122 279.847 82.6856C284.468 79.3844 284.237 84.0807 282.058 88.9157C279.878 93.7508 266.656 115.633 254.436 121.593C250.169 123.667 241.006 120.957 239.989 117.875C238.141 112.353 244.802 89.8871 244.802 89.8871Z" fill="#DD6A57"/>
<path d="M266.81 94.3716C265.8 95.111 264.84 95.9112 263.938 96.7672C262.752 97.8262 261.589 98.8999 260.427 99.9808C258.101 102.128 255.791 104.302 253.496 106.503C253.211 106.781 252.934 107.065 252.657 107.343C252.171 107.548 251.709 107.789 251.24 108.015C250.77 108.241 250.115 108.57 249.538 108.833C249.527 108.841 249.519 108.853 249.516 108.866C249.513 108.879 249.515 108.893 249.521 108.905C249.527 108.917 249.538 108.926 249.551 108.932C249.564 108.937 249.578 108.939 249.592 108.935C250.162 108.702 250.739 108.475 251.294 108.205C251.612 108.059 251.928 107.905 252.241 107.745C251.378 108.592 250.516 109.439 249.669 110.301C249.623 110.352 249.669 110.425 249.761 110.381C254.528 106.284 259.148 102.011 263.622 97.6217C264.261 96.9936 266.294 95.1312 266.849 94.4373C266.91 94.4081 266.864 94.3351 266.81 94.3716Z" fill="#263238"/>
<path d="M263.075 97.2712C261.673 96.8634 260.249 96.5246 258.809 96.256C257.377 95.9419 255.937 95.6717 254.497 95.416C251.609 94.8902 248.698 94.4447 245.788 94.0795C245.687 94.0795 245.649 94.1963 245.788 94.2182C248.652 94.9486 251.555 95.5402 254.458 96.088C255.898 96.3582 257.339 96.6212 258.794 96.8184C260.217 97.0808 261.654 97.2709 263.099 97.3881C263.145 97.41 263.145 97.2931 263.075 97.2712Z" fill="#263238"/>
<path d="M279.755 93.225C276.405 98.2207 272.994 103.173 269.313 107.957C268.235 109.352 267.188 110.769 266.094 112.164C266.094 112.222 266.133 112.302 266.187 112.244C270.192 107.656 273.834 102.793 277.083 97.6949C278.03 96.2341 278.946 94.7734 279.801 93.2542L279.755 93.225Z" fill="#263238"/>
<path d="M307.6 132.614C307.5 132.716 265.494 133.483 265.101 133.081C264.554 132.512 271.423 92.5676 278.099 83.8615C279.77 81.6704 285.731 80.2097 288.21 82.4008C295.403 88.8062 296.912 94.1817 298.783 98.5786C300.607 103.327 302.134 108.173 303.357 113.091C305.868 122.484 307.939 132.234 307.6 132.614Z" fill="#DD6A57"/>
<path d="M275.004 90.7417C273.772 93.7873 272.694 96.8987 271.7 100.025C270.707 103.151 269.821 106.248 269.167 109.425C268.982 110.323 268.805 111.221 268.643 112.12C268.481 113.018 268.351 113.989 268.104 114.902C268.104 114.975 268.204 114.997 268.22 114.902C268.52 113.308 268.921 111.733 269.421 110.184C269.86 108.592 270.322 107.007 270.745 105.408C271.562 102.267 272.463 99.1483 273.418 96.0442C273.972 94.2694 274.557 92.5092 275.135 90.7417C275.158 90.6906 275.035 90.6686 275.004 90.7417Z" fill="#263238"/>
<path d="M83.8364 217.637L85.4613 226.912L96.5116 283.495H98.2904L90.2587 226.912L89.0728 217.637H83.8364Z" fill="#DBDBDB"/>
<path d="M89.0728 217.637H83.8364L85.4613 226.912H90.2587L89.0728 217.637Z" fill="#A6A6A6"/>
<path d="M49.1453 283.495H50.9241L61.9745 226.912L63.5993 217.637H58.3629L57.177 226.912L49.1453 283.495Z" fill="#DBDBDB"/>
<path d="M58.3628 217.637L57.1769 226.912H61.9743L63.5992 217.637H58.3628Z" fill="#A6A6A6"/>
<path d="M16.0172 283.495H17.7961L28.8387 226.912L30.4712 217.637H25.2348L24.0489 226.912L16.0172 283.495Z" fill="#DBDBDB"/>
<path d="M24.0488 226.912H28.8386L30.4711 217.637H25.2347L24.0488 226.912Z" fill="#A6A6A6"/>
<path d="M18.8356 221.997H99.7765V213.905H69.4747L59.2945 157.717H21.9235L18.8356 221.997Z" fill="#DBDBDB"/>
<path d="M18.8356 221.997H23.248L26.128 157.717H21.9235L18.8356 221.997Z" fill="#A6A6A6"/>
<path d="M186.324 276.98C184.822 277.469 141.914 277.608 140.274 276.629C139.643 276.264 139.258 270.333 139.011 263.161L116.903 238.511L149.8 238.336L166.679 262.993C166.679 262.993 183.128 269.91 184.814 271.166C186.501 272.422 187.817 276.505 186.324 276.98Z" fill="#DD6A57"/>
<path d="M186.324 276.98C184.822 277.469 141.914 277.608 140.274 276.629C139.712 276.308 139.35 271.619 139.104 265.564C143.223 266.243 177.992 271.911 179.64 271.042C181.287 270.173 176.051 267.039 176.051 267.039H176.113C180.117 268.792 184.037 270.582 184.814 271.159C186.478 272.415 187.818 276.505 186.324 276.98Z" fill="#263238"/>
<path d="M163.414 269.924C163.414 269.924 167.827 265.067 176.051 267.039L163.414 269.924Z" fill="#263238"/>
<path d="M169.544 262.716L152.826 264.271L136.324 265.812C136.324 265.812 103.211 221.165 101.201 219.214C96.5808 214.832 59.3947 207.718 49.3608 198.26C38.734 188.247 43.3697 175.582 43.3697 175.582H71.0919C71.0919 175.582 74.6033 184.025 76.0819 184.463C92.0914 189.181 113.414 195.112 120.345 200.911C132.774 211.334 169.544 262.716 169.544 262.716Z" fill="#263238"/>
<path d="M164.338 257.88C159.633 258.297 160.973 258.114 156.284 258.611C153.973 258.837 138.888 260.364 136.786 260.941C136.732 260.941 136.786 261.028 136.786 261.028C138.973 261.131 154.035 259.356 156.33 259.086C161.019 258.523 159.664 258.64 164.346 258.034C164.368 258.033 164.388 258.024 164.402 258.009C164.417 257.994 164.424 257.974 164.423 257.953C164.422 257.933 164.413 257.914 164.397 257.9C164.381 257.887 164.36 257.879 164.338 257.88Z" fill="#455A64"/>
<path d="M137.209 258.253C131.773 251.205 126.213 243.923 120.653 236.955L112.313 226.504C110.917 224.756 109.521 223.015 108.124 221.281C106.95 219.718 105.622 218.263 104.158 216.936C102.635 215.725 100.926 214.74 99.0914 214.014C97.1585 213.196 95.1718 212.495 93.1696 211.823C89.0113 210.465 84.776 209.362 80.5637 208.171C72.7476 205.98 64.8314 203.577 58.1011 199.107C52.0484 195.083 46.9968 189.108 45.5568 182.104C45.3787 181.215 45.2808 180.314 45.2642 179.409C45.2642 179.394 45.2577 179.379 45.2462 179.368C45.2346 179.357 45.2189 179.351 45.2026 179.351C45.1863 179.351 45.1706 179.357 45.159 179.368C45.1475 179.379 45.141 179.394 45.141 179.409C45.2923 182.811 46.2225 186.14 47.867 189.167C49.5928 192.265 51.9087 195.034 54.6974 197.332C60.7039 202.379 68.3044 205.294 75.8664 207.558C80.0555 208.807 84.337 209.888 88.503 211.1C90.6361 211.721 92.7461 212.371 94.8329 213.101C96.8339 213.758 98.7822 214.551 100.662 215.475C102.491 216.414 104.121 217.667 105.467 219.171C106.892 220.756 108.155 222.479 109.472 224.144C112.244 227.636 115.024 231.122 117.812 234.603C123.41 241.622 128.97 248.678 134.653 255.638C135.361 256.507 136.077 257.362 136.786 258.224C136.978 258.501 137.44 258.552 137.209 258.253Z" fill="#455A64"/>
<path d="M115.578 285.43C114.077 285.89 71.169 285.364 69.5519 284.356C68.9282 283.991 75.4968 244.354 75.4968 244.354L104.205 244.624L96.1883 271.144C96.1883 271.144 112.514 278.309 114.169 279.594C115.825 280.88 117.072 284.977 115.578 285.43Z" fill="#DD6A57"/>
<path d="M115.578 285.43C114.077 285.89 71.1689 285.364 69.5518 284.356C69.3516 284.24 69.8983 280.018 70.7377 274.358C72.4857 262.54 75.489 244.354 75.489 244.354L104.197 244.624L96.1804 271.144C96.1804 271.144 101.255 273.372 106.03 275.563C109.818 277.301 113.414 279.017 114.146 279.587C115.817 280.873 117.072 284.977 115.578 285.43Z" fill="#DD6A57"/>
<path d="M115.578 285.43C114.077 285.89 71.1689 285.364 69.5518 284.356C69.3516 284.24 69.8983 280.018 70.7377 274.358C74.973 275.044 85.0916 276.673 93.9627 277.951L94.9946 278.097C102.541 279.164 108.948 279.93 109.626 279.558C111.328 278.652 106.322 275.716 106.045 275.563C109.834 277.301 113.43 279.017 114.161 279.587C115.817 280.873 117.072 284.977 115.578 285.43Z" fill="#263238"/>
<path d="M93.416 278.455C93.416 278.455 97.8285 273.591 106.045 275.534L93.416 278.455Z" fill="#263238"/>
<path d="M98.1441 270.786L68.0348 270.647C68.0348 270.647 82.1346 220.047 81.4569 216.227C81.1412 214.46 47.6898 217.118 35.6769 205.169C25.3427 194.886 34.8606 175.626 34.8606 175.626L67.0799 174.895C67.0799 174.895 64.1075 183.163 62.0822 188.29C62.0822 188.29 106.261 191.248 111.22 200.437C116.51 210.253 98.1441 270.786 98.1441 270.786Z" fill="#263238"/>
<path d="M66.2481 176.926C65.9247 178.547 65.6475 180.176 65.2548 181.783C65.07 182.513 64.9005 183.309 64.6618 184.054C64.5882 184.382 64.3979 184.676 64.1228 184.887C63.797 185.06 63.4249 185.139 63.0524 185.113C62.8811 185.137 62.7065 185.122 62.542 185.072C62.3774 185.021 62.2272 184.935 62.1031 184.821C61.9789 184.707 61.884 184.567 61.8256 184.413C61.7672 184.258 61.747 184.093 61.7664 183.93C61.7664 182.425 62.8291 177.298 62.8907 176.875C62.8907 176.794 62.6135 176.758 62.5904 176.875C61.8203 180.096 60.7653 184.178 61.4122 184.989C61.7622 185.394 62.2536 185.667 62.7975 185.758C63.3414 185.849 63.9017 185.753 64.3769 185.486C64.7865 185.17 65.0604 184.723 65.147 184.229C65.3395 183.499 65.455 182.769 65.5936 182.09C65.917 180.395 66.2635 178.708 66.4946 176.977C66.4866 176.954 66.4725 176.933 66.4536 176.917C66.4347 176.901 66.4117 176.89 66.3868 176.884C66.3619 176.879 66.336 176.88 66.3117 176.888C66.2874 176.895 66.2655 176.908 66.2481 176.926Z" fill="#455A64"/>
<path d="M62.5518 185.705C62.4964 185.909 62.4527 186.117 62.4209 186.326C62.3747 186.537 62.3285 186.742 62.2746 186.946C62.2207 187.151 62.1745 187.363 62.1129 187.575C62.0513 187.786 62.0205 187.984 61.9743 188.195C61.9731 188.213 61.978 188.23 61.9882 188.245C61.9984 188.26 62.0134 188.271 62.0308 188.276C62.0483 188.282 62.0673 188.282 62.0849 188.277C62.1025 188.272 62.1177 188.261 62.1283 188.247C62.2292 188.057 62.3192 187.861 62.3978 187.662C62.4671 187.45 62.5364 187.246 62.598 187.034C62.6597 186.822 62.7059 186.618 62.7521 186.406C62.8179 186.195 62.8566 185.976 62.8676 185.756C62.8676 185.61 62.6057 185.551 62.5518 185.705Z" fill="#455A64"/>
<path d="M86.7472 214.847C86.1311 213.269 84.3677 213.05 82.8199 212.955C80.6021 212.819 78.3869 212.641 76.1743 212.422C71.7541 211.984 67.3545 211.38 62.9755 210.611C58.8114 209.959 54.6959 209.054 50.6545 207.901C46.9213 206.875 43.4719 205.082 40.5513 202.65C37.8149 200.362 36.0087 197.238 35.4458 193.819C35.2391 191.736 35.2985 189.637 35.623 187.567C35.8771 185.486 36.1928 183.419 36.6317 181.366C36.855 180.351 37.1015 179.351 37.4018 178.357C37.3974 178.346 37.3895 178.336 37.3792 178.33C37.3689 178.323 37.3566 178.319 37.344 178.319C37.3315 178.319 37.3192 178.323 37.3089 178.33C37.2985 178.336 37.2907 178.346 37.2863 178.357C36.171 182.352 35.3984 186.427 34.9761 190.54C34.7846 192.421 34.9436 194.32 35.4458 196.149C35.9475 197.724 36.7288 199.206 37.756 200.531C42.3148 206.521 50.1617 208.69 57.4156 210.172C61.7588 211.063 66.1224 211.794 70.5066 212.364C72.6397 212.634 74.7805 212.875 76.9212 213.094C79.062 213.313 81.2567 213.401 83.4206 213.583C83.8825 213.57 84.3422 213.648 84.7704 213.813C85.1987 213.978 85.5861 214.225 85.9078 214.54C86.1406 214.906 86.2951 215.311 86.3625 215.734C86.4299 216.156 86.4088 216.587 86.3006 217.001C86.1388 217.958 85.8385 218.9 85.5921 219.843C85.3457 220.785 85.0608 221.851 84.822 222.852C83.7132 227.034 82.612 231.224 81.5185 235.421C79.3392 243.77 77.1061 252.118 75.0731 260.502C74.819 261.54 74.5726 262.577 74.3415 263.621C74.3364 263.641 74.3397 263.661 74.3505 263.678C74.3613 263.695 74.3789 263.708 74.3993 263.712C74.4197 263.717 74.4413 263.714 74.4594 263.704C74.4774 263.694 74.4905 263.677 74.4956 263.658C75.7739 259.516 76.8057 255.31 77.9531 251.124C79.1005 246.939 80.2017 242.754 81.3029 238.569C82.4041 234.384 83.5053 230.25 84.591 226.087C85.1044 223.989 85.6486 221.892 86.2236 219.799C86.6009 218.258 87.3555 216.388 86.7472 214.847Z" fill="#455A64"/>
<path d="M98.4675 265.936C94.9791 265.732 91.483 265.652 87.987 265.542C84.4909 265.432 81.0102 265.389 77.5219 265.447C75.5351 265.447 73.5561 265.608 71.5693 265.637C71.4923 265.637 71.5 265.747 71.5693 265.747C75.0654 265.747 78.5538 266.009 82.0498 266.024C85.5459 266.039 89.0266 266.024 92.5149 266.024C94.494 266.024 96.4807 266.09 98.4675 266.075C98.5907 266.061 98.5907 265.944 98.4675 265.936Z" fill="#455A64"/>
<path d="M49.8074 180.088C49.7644 180.233 49.705 180.372 49.6302 180.505C49.6215 180.515 49.6167 180.528 49.6167 180.541C49.6167 180.554 49.6215 180.567 49.6302 180.578C48.9141 182.842 48.0131 185.172 45.9186 186.603C44.8428 187.328 43.6449 187.874 42.3763 188.217C40.8978 188.626 39.3576 188.743 37.8714 189.13C37.839 189.145 37.8124 189.168 37.7958 189.198C37.7793 189.228 37.7736 189.263 37.7798 189.296C37.7859 189.329 37.8035 189.36 37.8299 189.383C37.8562 189.406 37.8898 189.42 37.9253 189.423C39.5944 189.493 41.2652 189.33 42.8845 188.94C44.2809 188.643 45.5938 188.065 46.7348 187.246C49.045 185.471 49.6995 182.798 50.0076 180.103C49.9999 180.008 49.8382 180.008 49.8074 180.088Z" fill="#455A64"/>
<path d="M110.326 198.917C108.933 197.143 106.884 196.186 104.713 195.514C90.0816 190.956 72.1469 188.94 62.3595 188.174C62.2824 188.174 62.2516 188.276 62.3595 188.283C72.9401 189.795 100.023 193.235 107.677 197.566C110.958 199.421 112.398 203.869 111.482 211.188C110.75 217.031 109.941 223.312 108.933 229.089C108.933 229.294 109.04 229.279 109.087 229.089C110.249 223.874 111.251 218.17 111.959 212.882C112.529 208.31 113.438 202.876 110.326 198.917Z" fill="#455A64"/>
<path d="M50.6699 116.305C47.2047 120.475 46.8196 126.727 46.8196 126.727C46.8196 126.727 43.8318 133.301 45.2795 136.536C45.6803 137.454 46.3102 138.266 47.115 138.902C47.9198 139.538 48.8755 139.98 49.8999 140.188L49.3454 138.377C49.3454 138.377 50.8856 140.612 55.2672 141.086C59.6488 141.561 65.0624 139.684 67.7961 137.953C69.4301 136.94 70.7572 135.54 71.6464 133.892L70.8763 136.704C72.2354 136.4 73.4943 135.783 74.5409 134.906C75.5874 134.029 76.3893 132.921 76.8751 131.679C78.7848 127.253 71.0226 122.097 70.268 120.884C69.5133 119.672 67.565 110.411 57.4003 113.208C57.3926 113.215 53.0571 113.442 50.6699 116.305Z" fill="#263238"/>
<path d="M48.4289 140.122C47.1657 139.638 46.0903 138.796 45.3487 137.712C44.5573 136.663 44.1612 135.392 44.2244 134.104C44.4126 132.574 44.8927 131.089 45.6413 129.722C46.319 128.261 47.1044 126.881 47.7513 125.427C47.7513 125.347 47.6589 125.296 47.605 125.361C46.819 126.495 46.1017 127.671 45.4565 128.882C44.7719 129.995 44.229 131.182 43.8394 132.417C43.4853 133.559 43.4853 134.773 43.8394 135.915C44.1415 136.846 44.6811 137.691 45.4103 138.377C46.3134 139.111 47.3124 139.732 48.3827 140.224C48.4443 140.246 48.5367 140.144 48.4289 140.122Z" fill="#263238"/>
<path d="M77.1985 127.319C75.5198 124.017 71.9775 122.206 69.6134 119.438C68.3274 117.933 67.2648 116.232 65.6861 114.983C65.6861 114.946 65.586 114.983 65.6245 115.048C66.8324 116.254 67.9012 117.579 68.8126 119C69.876 120.346 71.0809 121.587 72.4088 122.703C74.7651 124.806 77.5759 127.29 77.522 130.613C77.522 132.154 76.7519 133.929 75.2118 134.586C75.1502 134.586 75.2118 134.71 75.2657 134.674C75.878 134.355 76.4152 133.922 76.8443 133.399C77.2733 132.876 77.5852 132.276 77.7607 131.635C78.1296 130.179 77.9299 128.646 77.1985 127.319Z" fill="#263238"/>
<path d="M77.4678 128.232C77.4199 126.908 76.938 125.632 76.0894 124.58C75.1744 123.601 74.0476 122.822 72.7859 122.294C71.3844 121.622 69.9212 121.008 68.9356 119.803C68.9356 119.752 68.8201 119.803 68.8586 119.869C70.4449 121.856 73.0554 122.571 74.9651 124.178C77.1521 126.019 77.5294 129.013 76.5053 131.482C75.8452 133.013 74.8136 134.374 73.4943 135.455C73.4943 135.455 73.4943 135.506 73.4943 135.455C75.7814 133.731 77.645 131.146 77.4678 128.232Z" fill="#263238"/>
<path d="M67.6343 149.332C73.3481 154.226 93.7085 169.162 101.17 167.438C106.06 166.306 123.109 156.417 124.134 150.976C124.58 148.609 116.056 137.456 113.923 139.041C111.79 140.626 98.3597 149.04 96.3498 149.369C94.3399 149.697 73.7409 141.335 66.972 140.064C55.2979 137.814 64.5617 146.696 67.6343 149.332Z" fill="#DD6A57"/>
<path d="M116.194 133.68C118.674 132.219 121.4 130.415 124.395 129.875C127.391 129.335 130.687 132.577 130.926 133.644C131.164 134.71 131.511 141.605 128.523 142.196C125.535 142.788 126.213 137.31 125.974 136.748C125.735 136.185 125.45 135.455 124.904 135.623C124.357 135.791 115.486 142.196 115.486 142.196L116.194 133.68Z" fill="#DD6A57"/>
<path d="M116.472 134.031C116.641 134.031 123.964 129.422 126.96 128.882C129.955 128.341 133.251 131.584 133.482 132.658C133.713 133.731 134.067 140.612 131.087 141.203C128.107 141.795 128.777 136.317 128.531 135.755C128.284 135.192 128.015 134.462 127.46 134.63C126.906 134.798 118.05 141.203 118.05 141.203L116.472 134.031Z" fill="#DD6A57"/>
<path d="M129.994 141.05C129.567 140.606 129.27 140.065 129.131 139.48C128.935 138.889 128.836 138.273 128.839 137.654C128.885 137.112 128.885 136.567 128.839 136.025C128.712 135.501 128.447 135.016 128.069 134.615C127.753 134.257 127.345 134.484 126.991 134.681C126.482 134.994 125.993 135.335 125.527 135.703C125.011 136.083 124.511 136.478 123.987 136.865C123.448 137.249 122.933 137.663 122.447 138.106C122.447 138.143 122.447 138.209 122.501 138.179C122.986 137.902 123.417 137.551 123.872 137.23C124.326 136.909 124.896 136.5 125.412 136.156C125.928 135.813 126.359 135.47 126.852 135.141C127.021 135.032 127.36 134.761 127.622 134.761C127.884 134.761 128.084 135.273 128.176 135.441C128.414 135.923 128.495 136.463 128.407 136.989C128.362 137.524 128.375 138.063 128.446 138.596C128.495 139.105 128.646 139.601 128.893 140.057C129.174 140.451 129.502 140.814 129.871 141.137C129.963 141.167 130.048 141.094 129.994 141.05Z" fill="#263238"/>
<path d="M108.655 143.329C108.655 143.329 115.332 134.564 116.741 132.789C119.559 129.262 132.851 120.745 134.83 120.139C136.809 119.533 138.41 123.324 129.439 129.371C124.711 132.563 124.411 135.572 124.819 137.113C125.227 138.654 127.483 141.262 130.209 140.641C132.935 140.02 133.921 135.82 136.37 134.885C138.819 133.951 138.118 138.72 136.886 141.634C135.547 144.486 133.381 146.917 130.641 148.646C128.431 149.975 121.677 154.489 121.677 154.489L108.655 143.329Z" fill="#DD6A57"/>
<path d="M133.328 138.106C132.458 139.078 131.488 140.298 130.125 140.634C128.762 140.969 127.599 140.276 126.698 139.304C125.733 138.37 125.181 137.121 125.158 135.813C125.226 134.612 125.66 133.455 126.405 132.483C127.319 131.3 128.408 130.249 129.64 129.364C129.647 129.36 129.654 129.355 129.659 129.349C129.664 129.343 129.667 129.335 129.669 129.328C129.67 129.32 129.67 129.312 129.668 129.304C129.666 129.297 129.662 129.29 129.656 129.284C129.65 129.278 129.644 129.273 129.636 129.27C129.628 129.267 129.62 129.266 129.611 129.267C129.603 129.268 129.595 129.27 129.588 129.274C129.581 129.278 129.575 129.284 129.57 129.291C128.407 130.08 124.78 132.417 124.719 135.901C124.752 137.234 125.323 138.504 126.313 139.45C127.16 140.378 128.277 141.21 129.647 141.05C131.311 140.845 132.443 139.304 133.413 138.128C133.467 138.07 133.374 138.055 133.328 138.106Z" fill="#263238"/>
<path d="M108.055 140.663L117.842 158.827C117.842 158.827 104.921 167.825 97.7129 168.395C88.965 169.125 67.4727 151.472 64.2384 148.448C58.9404 143.482 57.9316 139.552 61.882 138.954C63.4222 138.713 65.7323 138.954 68.8126 139.896C72.0237 140.853 91.1443 147.776 96.4731 148.375C99.3993 148.704 108.055 140.663 108.055 140.663Z" fill="#455A64"/>
<path d="M108.047 140.663L117.842 158.827C117.842 158.827 115.701 160.288 112.667 162.121C108.255 164.75 101.979 168.052 97.7129 168.388C88.9727 169.118 67.4649 151.465 64.2384 148.441C60.3881 144.848 58.848 141.795 59.7335 140.159C59.9647 139.81 60.28 139.518 60.6536 139.307C61.0271 139.096 61.4482 138.972 61.882 138.946C63.4221 138.713 65.7323 138.946 68.8125 139.896C72.0237 140.853 91.1443 147.777 96.4731 148.375C99.3993 148.704 108.047 140.663 108.047 140.663Z" fill="#455A64"/>
<path d="M117.842 158.827C117.842 158.827 115.701 160.288 112.667 162.121C110.734 163.268 108.463 164.546 106.145 165.649C103.157 167.066 100.115 168.198 97.6742 168.388C88.934 169.118 67.4262 151.465 64.1997 148.441C60.3494 144.848 58.8093 141.795 59.6948 140.159C59.8037 139.956 59.9558 139.777 60.1415 139.633C60.6267 139.252 61.2179 139.014 61.8433 138.946C63.3834 138.713 65.6936 138.946 68.7738 139.896C71.985 140.853 91.1056 147.777 96.4344 148.375C99.3991 148.711 108.047 140.67 108.047 140.67L117.842 158.827Z" fill="#455A64"/>
<path d="M113.845 159.696C112.305 157.052 106.468 146.031 105.375 143.562C105.298 143.394 105.375 143.307 105.498 143.475C110.288 151.282 112.59 156.972 113.969 159.638C113.992 159.704 113.884 159.762 113.845 159.696Z" fill="#263238"/>
<path d="M106.137 165.641C103.149 167.058 100.108 168.19 97.6666 168.38C88.9264 169.111 67.4187 151.458 64.1921 148.434C60.3418 144.84 58.8017 141.787 59.6873 140.151C59.7962 139.949 59.9483 139.77 60.1339 139.626L106.137 165.641Z" fill="#263238"/>
<path d="M31.3876 183.572C34.4678 183.996 41.8219 184.624 49.6534 185.252C62.1437 186.231 75.9124 187.18 75.9124 187.18L73.6022 164.539C73.6022 164.539 76.798 160.156 76.2127 155.913C75.5351 151.122 67.4649 141.269 66.6024 140.509C63.6839 137.931 59.4716 136.397 55.4365 138.457C54.5926 138.893 53.8153 139.436 53.1264 140.071C53.0764 140.111 53.03 140.155 52.9877 140.202C52.7644 140.407 52.5257 140.626 52.3024 140.867C42.2685 151.143 31.3876 183.572 31.3876 183.572Z" fill="#455A64"/>
<path d="M49.4378 143.416C41.1981 154.05 30.4712 173.866 34.2368 177.013C42.4764 183.923 59.6487 192.081 67.9423 192.753C70.368 192.95 74.8728 177.897 73.2326 175.954C71.5924 174.012 50.9009 168.541 50.7161 167.044C50.5928 166.189 53.2957 156.716 55.6213 147.572C58.3088 137.077 51.7941 140.371 49.4378 143.416Z" fill="#DD6A57"/>
<path d="M68.9742 174.851C68.9742 174.851 76.3899 174.654 81.2413 174.742C83.9442 174.793 88.5799 175.268 90.5513 176.166C93.5006 177.51 104.921 184.931 103.088 187.589C101.425 189.999 92.461 182.477 92.461 182.477C92.461 182.477 102.218 189.327 99.6534 191.891C97.0891 194.455 88.1641 184.638 88.1641 184.638C88.1641 184.638 98.0209 191.898 94.9329 194.133C92.6227 195.828 83.9904 187.377 83.9904 187.377C83.9904 187.377 92.4302 193.659 90.12 195.499C87.5403 197.537 79.0697 190.233 79.0697 190.233C72.3471 193.973 67.5188 193.155 64.1921 192.169C63.3836 191.898 68.9742 174.851 68.9742 174.851Z" fill="#DD6A57"/>
<path d="M89.2499 179.876C90.4281 180.643 91.6217 181.41 92.7229 182.272C93.8241 183.134 94.8945 184.032 95.9032 184.989C97.2499 186.216 98.4459 187.583 99.4686 189.065C97.3527 186.69 95.0066 184.509 92.4611 182.55C91.3676 181.688 90.3126 180.775 89.2114 179.913L89.2499 179.876Z" fill="#263238"/>
<path d="M85.8925 183.587C87.3556 184.631 88.8418 185.61 90.251 186.713C91.6602 187.816 92.8846 188.962 94.2014 190.146C94.3015 190.241 94.2014 190.262 94.109 190.146C92.746 189.013 91.383 188.064 90.0046 186.947C88.6262 185.829 87.2863 184.653 85.8617 183.587C85.8463 183.601 85.8694 183.572 85.8925 183.587Z" fill="#263238"/>
<path d="M82.4194 186.282C84.6933 187.826 86.7937 189.589 88.6877 191.541C88.7878 191.636 88.6877 191.65 88.5722 191.541C86.5161 189.758 84.9221 188.342 82.3655 186.34C82.3116 186.326 82.3578 186.253 82.4194 186.282Z" fill="#263238"/>
<path d="M59.6796 192.768L70.8686 174.012C70.8686 174.012 51.7634 167.679 51.286 167.095C50.8085 166.511 54.6126 154.679 56.2143 146.893C57.8161 139.107 54.1044 137.252 48.0209 144.599C41.9374 151.947 30.7408 171.375 32.6197 176.108C34.4987 180.841 59.6796 192.768 59.6796 192.768Z" fill="#455A64"/>
<path d="M66.8027 173.822C66.35 174.4 65.9409 175.008 65.5783 175.64L64.3 177.627C63.4375 178.978 62.6058 180.344 61.7896 181.717C60.1801 184.441 58.5861 187.18 56.969 189.897C56.969 189.963 57.0306 190.014 57.0768 189.956C58.8479 187.312 60.596 184.668 62.2824 181.973C63.1218 180.643 63.9303 179.299 64.6927 177.934C65.0777 177.247 65.4628 176.561 65.8324 175.874C66.2254 175.226 66.5702 174.552 66.8643 173.858C66.8797 173.822 66.8258 173.8 66.8027 173.822Z" fill="#263238"/>
<path d="M59.6027 192.629C56.0989 190.869 52.6722 188.977 49.2223 187.078C45.7724 185.179 42.2918 183.265 39.0344 181.125C38.1103 180.519 37.1786 179.92 36.2699 179.292C35.3612 178.664 34.5296 177.978 33.5901 177.43C33.5208 177.386 33.4592 177.481 33.5131 177.525C34.2052 178.196 34.9547 178.811 35.754 179.365C36.524 179.964 37.3557 180.548 38.1719 181.125C39.7121 182.243 41.3985 183.317 43.0618 184.288C46.4039 186.318 49.8845 188.137 53.4191 189.846C55.4521 190.825 57.5235 191.738 59.5796 192.731C59.5907 192.728 59.6008 192.723 59.6087 192.715C59.6166 192.707 59.6221 192.697 59.6245 192.687C59.6269 192.676 59.6261 192.665 59.6223 192.655C59.6184 192.645 59.6117 192.636 59.6027 192.629Z" fill="#263238"/>
<path d="M70.8685 173.88C69.1436 173.245 52.2254 167.131 51.5246 167.007C51.5246 166.511 53.0186 160.777 53.3497 159.448C53.4267 159.134 53.496 158.827 53.5653 158.52C53.8194 157.914 54.0658 157.301 54.3354 156.687C54.6823 155.856 55.0835 155.046 55.5366 154.262C55.5448 154.249 55.547 154.233 55.5426 154.218C55.5383 154.202 55.5278 154.19 55.5135 154.182C55.4992 154.174 55.4823 154.172 55.4664 154.176C55.4505 154.18 55.437 154.19 55.4288 154.204C54.9899 155.007 54.5433 155.818 54.1428 156.636L53.9349 157.067L54.3046 155.533C54.6203 154.175 54.9899 152.809 55.1978 151.428C55.1931 151.416 55.1842 151.404 55.1725 151.396C55.1608 151.389 55.1468 151.384 55.1324 151.384C55.118 151.384 55.1039 151.389 55.0922 151.396C55.0805 151.404 55.0716 151.416 55.0669 151.428C54.551 152.802 54.189 154.226 53.7809 155.628C53.3728 157.03 51.0241 167.139 51.1088 167.204C51.7326 167.643 69.1898 173.427 70.8608 174.019C70.8685 174.012 70.9147 173.902 70.8685 173.88Z" fill="#263238"/>
<path d="M101.917 195.295H62.3364V196.982H101.917V195.295Z" fill="#DD6A57"/>
<path opacity="0.1" d="M101.917 195.295H81.996V196.982H101.917V195.295Z" fill="black"/>
<path d="M84.1443 196.974H122.717L127.76 172.127H89.1805L84.1443 196.974Z" fill="#DD6A57"/>
<path d="M103.604 184.551C103.577 184.831 103.612 185.114 103.708 185.381C103.804 185.648 103.957 185.892 104.159 186.099C104.361 186.306 104.607 186.47 104.88 186.58C105.153 186.691 105.448 186.746 105.745 186.742C106.378 186.731 106.985 186.502 107.455 186.1C107.925 185.697 108.225 185.147 108.301 184.551C108.333 184.267 108.301 183.98 108.207 183.709C108.113 183.438 107.959 183.189 107.756 182.978C107.553 182.768 107.305 182.6 107.028 182.487C106.752 182.375 106.454 182.319 106.153 182.323C105.514 182.335 104.902 182.567 104.432 182.978C103.962 183.388 103.668 183.948 103.604 184.551Z" fill="white"/>
<path d="M56.6379 139.107C56.8766 139.684 60.4882 143.146 63.3143 142.627C64.2383 142.452 63.4837 137.61 63.4837 137.61V137.237L63.9072 132.059L57.123 129.137L56.145 128.758C56.145 128.758 56.145 130.182 56.145 131.957V132.212C56.145 132.307 56.145 132.402 56.145 132.497C56.145 132.76 56.145 133.03 56.145 133.3C56.145 133.571 56.145 133.709 56.145 133.921C56.145 134.133 56.145 134.352 56.145 134.564C56.2047 136.087 56.3694 137.604 56.6379 139.107Z" fill="#DD6A57"/>
<path d="M56.1604 131.942C56.9065 133.279 57.9511 134.445 59.2212 135.36C60.4913 136.274 61.9564 136.915 63.5145 137.237L63.938 132.059L57.1538 129.137L56.1758 128.758C56.1758 128.758 56.1604 130.167 56.1604 131.942Z" fill="#263238"/>
<path d="M69.9292 123.039C72.1546 131.906 66.8027 134.17 64.7852 134.623C62.9524 135.032 56.6687 136.215 53.4884 127.611C50.3081 119.007 53.9504 115.195 58.1088 114.07C62.2671 112.945 67.7037 114.187 69.9292 123.039Z" fill="#DD6A57"/>
<path d="M68.6663 121.578C68.4457 121.589 68.2247 121.589 68.0041 121.578C67.7691 121.598 67.5337 121.544 67.3341 121.425C67.2791 121.376 67.2424 121.312 67.2299 121.242C67.2173 121.172 67.2296 121.1 67.2648 121.037C67.3529 120.926 67.4704 120.838 67.6055 120.783C67.7407 120.728 67.8887 120.707 68.0349 120.723C68.3457 120.717 68.6478 120.821 68.8819 121.016C68.9238 121.062 68.9519 121.118 68.9634 121.178C68.975 121.238 68.9695 121.299 68.9475 121.357C68.9256 121.414 68.888 121.465 68.8385 121.503C68.7891 121.542 68.7297 121.568 68.6663 121.578Z" fill="#263238"/>
<path d="M62.6136 122.666C62.8231 122.602 63.0288 122.526 63.2296 122.44C63.4597 122.391 63.6657 122.27 63.8149 122.097C63.852 122.033 63.8653 121.96 63.8527 121.888C63.8402 121.816 63.8024 121.751 63.7455 121.702C63.6214 121.621 63.4768 121.573 63.3265 121.563C63.1763 121.553 63.0259 121.581 62.8908 121.644C62.5979 121.737 62.3495 121.926 62.19 122.177C62.1567 122.237 62.1427 122.305 62.1499 122.372C62.1571 122.439 62.185 122.503 62.2303 122.555C62.2755 122.607 62.336 122.646 62.4042 122.666C62.4724 122.685 62.5452 122.686 62.6136 122.666Z" fill="#263238"/>
<path d="M64.2692 124.74C64.2692 124.74 64.2307 124.74 64.2307 124.806C64.377 125.412 64.4309 126.128 63.8918 126.435C64.5926 126.245 64.5079 125.296 64.2692 124.74Z" fill="#263238"/>
<path d="M63.5684 124.207C62.5212 124.317 62.7984 126.304 63.8072 126.194C64.8159 126.084 64.4463 124.112 63.5684 124.207Z" fill="#263238"/>
<path d="M63.1678 124.368C63.0061 124.507 62.8598 124.733 62.6365 124.784C62.4132 124.835 62.1668 124.66 61.9666 124.485C62.0205 124.865 62.2361 125.215 62.675 125.215C63.1139 125.215 63.2988 124.835 63.3373 124.441C63.3219 124.412 63.2448 124.317 63.1678 124.368Z" fill="#263238"/>
<path d="M67.7883 123.988C67.7883 123.988 67.8422 123.988 67.8422 124.032C67.9115 124.653 68.1041 125.347 68.7201 125.493C68.0193 125.507 67.7883 124.58 67.7883 123.988Z" fill="#263238"/>
<path d="M68.2889 123.265C69.3208 123.053 69.6981 125.025 68.7432 125.223C67.7883 125.42 67.4264 123.448 68.2889 123.265Z" fill="#263238"/>
<path d="M68.7509 123.324C68.9357 123.397 69.1359 123.557 69.3284 123.535C69.5209 123.514 69.6903 123.273 69.7982 123.039C69.8829 123.411 69.7982 123.828 69.4593 123.966C69.1205 124.105 68.8048 123.813 68.6431 123.448C68.6431 123.404 68.6739 123.294 68.7509 123.324Z" fill="#263238"/>
<path d="M64.8545 129.503C65.0316 129.634 65.2087 129.817 65.4474 129.809C65.6872 129.783 65.9182 129.708 66.1251 129.59C66.1251 129.59 66.1713 129.59 66.1251 129.59C66.0484 129.719 65.9363 129.826 65.8007 129.899C65.6651 129.973 65.5111 130.01 65.355 130.006C65.2187 129.987 65.0917 129.929 64.9902 129.841C64.8887 129.752 64.8173 129.637 64.7852 129.51C64.7852 129.503 64.8314 129.488 64.8545 129.503Z" fill="#263238"/>
<path d="M67.18 126.873C67.3244 127.31 67.4452 127.754 67.5419 128.203C67.5419 128.246 67.4418 128.276 67.2878 128.312C66.9083 128.439 66.4992 128.465 66.1053 128.386C65.7115 128.308 65.348 128.128 65.0546 127.867C65.0161 127.83 65.0546 127.779 65.1162 127.801C65.7605 128.085 66.4833 128.167 67.18 128.035C67.18 127.91 66.6332 126.515 66.7025 126.501C67.0608 126.477 67.4208 126.499 67.7729 126.566C67.2339 124.682 66.3714 122.915 65.8632 121.023C65.8619 121.011 65.8649 120.998 65.8715 120.988C65.8782 120.977 65.8882 120.969 65.9002 120.964C65.9122 120.959 65.9255 120.958 65.9382 120.961C65.9509 120.963 65.9624 120.97 65.971 120.979C66.9459 122.863 67.7199 124.836 68.2812 126.866C68.3659 127.1 67.3802 126.924 67.18 126.873Z" fill="#263238"/>
<path d="M67.1953 127.983C67.0364 128.386 66.7713 128.743 66.4253 129.021C66.2245 129.163 65.9828 129.245 65.7322 129.254C65.1855 129.254 65.0392 128.816 65.0238 128.414C65.0162 128.199 65.0343 127.983 65.0777 127.772C65.7429 128.05 66.4834 128.124 67.1953 127.983Z" fill="#263238"/>
<path d="M66.3867 129.021C66.186 129.163 65.9443 129.245 65.6937 129.254C65.1469 129.254 65.0006 128.816 64.9852 128.414C65.2567 128.351 65.5429 128.376 65.7973 128.486C66.0517 128.596 66.2594 128.784 66.3867 129.021Z" fill="#FFA2BE"/>
<path d="M53.5653 127.662C54.6434 127.436 56.9766 124.164 56.1989 119.175C56.1989 119.175 56.5685 123.696 56.3298 124.405C56.0911 125.113 57.6312 122.564 57.0613 118.562C58.5505 119.26 60.1376 119.752 61.7741 120.022C63.861 120.241 65.0777 120.022 65.1932 119.876C65.3087 119.73 62.2284 119.292 61.2813 118.547C61.2813 118.547 66.9951 120.059 69.4747 119.854C69.7596 119.854 69.1436 114.26 64.9468 112.507C60.7499 110.754 55.2055 114.223 53.8502 115.947C53.8502 115.947 52.0021 116.502 50.408 119.474C48.814 122.447 52.3871 127.91 53.5653 127.662Z" fill="#263238"/>
<path d="M67.3879 124.499C67.0568 122.973 67.6497 121.578 68.7201 121.344C69.7905 121.111 70.9302 122.206 71.269 123.74C71.6078 125.274 71.0072 126.661 69.9368 126.902C68.8664 127.143 67.7267 125.997 67.3879 124.499ZM67.7806 124.426C68.0732 125.748 69.005 126.691 69.8521 126.53C70.6991 126.369 71.1612 125.142 70.8763 123.813C70.5913 122.484 69.6519 121.549 68.7971 121.717C67.9423 121.885 67.4957 123.039 67.7883 124.39L67.7806 124.426Z" fill="#DD6A57"/>
<path d="M60.0261 125.916C59.9517 125.403 60.0372 124.88 60.2721 124.412C60.5069 123.944 60.8809 123.551 61.3479 123.282C61.815 123.013 62.3548 122.88 62.9009 122.898C63.447 122.916 63.9756 123.085 64.4218 123.384C64.8679 123.684 65.212 124.1 65.4119 124.582C65.6117 125.065 65.6585 125.592 65.5466 126.099C65.4346 126.607 65.1688 127.072 64.7817 127.438C64.3947 127.804 63.9034 128.054 63.3681 128.159C62.6115 128.281 61.8344 128.114 61.2077 127.694C60.581 127.273 60.1559 126.634 60.0261 125.916ZM60.4188 125.836C60.5495 126.26 60.8074 126.638 61.161 126.925C61.5146 127.211 61.9487 127.394 62.4101 127.451C62.8715 127.507 63.3403 127.435 63.7593 127.243C64.1782 127.051 64.5291 126.748 64.7691 126.37C65.009 125.992 65.1277 125.555 65.1106 125.114C65.0934 124.674 64.9412 124.247 64.6726 123.887C64.4039 123.526 64.0304 123.248 63.5977 123.086C63.1651 122.924 62.6919 122.884 62.2361 122.973C61.5964 123.127 61.0466 123.514 60.7062 124.05C60.3659 124.586 60.2626 125.228 60.4188 125.836Z" fill="#DD6A57"/>
<path d="M65.3086 124.616C66.6716 123.835 67.434 124.163 67.4417 124.163L67.6188 123.828C67.6188 123.828 66.6716 123.389 65.1007 124.288L65.3086 124.616Z" fill="#DD6A57"/>
<path d="M60.1648 125.632V125.23C59.9029 125.23 55.452 125.288 54.7743 125.383C54.0967 125.478 52.6644 126.647 52.5104 126.778L52.7722 127.063C53.3715 126.529 54.058 126.09 54.8052 125.763C55.3519 125.705 57.9393 125.683 60.1648 125.632Z" fill="#DD6A57"/>
<path d="M55.144 127.976C55.144 127.976 52.6259 125.456 51.3938 126.347C50.1617 127.238 52.3487 131.095 54.0197 131.46C54.2301 131.518 54.4507 131.535 54.6682 131.51C54.8857 131.485 55.0955 131.418 55.2849 131.313C55.4744 131.209 55.6394 131.069 55.77 130.902C55.9007 130.735 55.9942 130.545 56.0449 130.343L55.144 127.976Z" fill="#DD6A57"/>
<path d="M52.0482 127.421C52.0482 127.421 52.0482 127.421 52.0482 127.465C52.5949 127.634 53.0981 127.909 53.5252 128.274C53.9524 128.639 54.2939 129.085 54.5278 129.583C54.4474 129.486 54.3457 129.408 54.2298 129.352C54.114 129.296 53.9868 129.265 53.857 129.261C53.7273 129.257 53.5981 129.28 53.4786 129.328C53.3591 129.376 53.252 129.448 53.1648 129.539C53.1648 129.539 53.1648 129.598 53.1648 129.59C53.3501 129.502 53.5599 129.472 53.7645 129.503C53.9691 129.535 54.1581 129.626 54.3045 129.766C54.5472 129.986 54.7641 130.231 54.9513 130.496C55.0207 130.584 55.1901 130.496 55.1362 130.401C54.9821 129.079 53.5883 127.355 52.0482 127.421Z" fill="#263238"/>
<path d="M63.5299 137.58L62.5134 142.547L56.3991 137.486L54.6973 139.443C54.6973 139.443 61.7664 148.207 61.7202 147.762L62.9138 143.423L66.3637 145.658L64.8621 139.414L63.5299 137.58Z" fill="#EBEBEB"/>
<path d="M64.9237 139.465C64.9237 139.428 64.8313 139.421 64.839 139.465C64.9699 140.531 65.894 144.271 66.1019 145.308C65.9556 145.206 62.9292 143.365 62.9138 143.409C62.6058 144.139 61.728 147.28 61.6818 147.557C60.442 146.257 56.0218 140.626 54.628 139.436C54.6194 139.432 54.6097 139.43 54.6003 139.432C54.5909 139.434 54.5822 139.438 54.5754 139.444C54.5687 139.451 54.5642 139.459 54.5626 139.468C54.5609 139.477 54.5623 139.486 54.5664 139.494C55.7061 140.896 61.6663 148.171 61.7357 148.134C62.2362 146.63 62.6501 145.102 62.9755 143.555C64.1273 144.426 65.339 145.224 66.6024 145.943C66.4099 144.797 65.2933 140.568 64.9237 139.465Z" fill="#263238"/>
</svg>
