<svg width="336" height="305" viewBox="0 0 336 305" fill="none" xmlns="http://www.w3.org/2000/svg">
<path d="M211.745 185.075L209.937 195.928L197.674 262.139H195.699L204.614 195.928L205.933 185.075H211.745Z" fill="#DBDBDB"/>
<path d="M205.933 185.075H211.745L209.937 195.928H204.614L205.933 185.075Z" fill="#A6A6A6"/>
<path d="M250.242 262.139H248.267L236.011 195.928L234.196 185.075H240.015L241.327 195.928L250.242 262.139Z" fill="#DBDBDB"/>
<path d="M240.015 185.075L241.327 195.928H236.011L234.196 185.075H240.015Z" fill="#A6A6A6"/>
<path d="M287.016 262.139H285.041L272.786 195.928L270.971 185.075H276.789L278.101 195.928L287.016 262.139Z" fill="#DBDBDB"/>
<path d="M278.101 195.928H272.786L270.971 185.075H276.789L278.101 195.928Z" fill="#A6A6A6"/>
<path d="M283.882 190.17H194.044V180.705H227.676L238.978 114.944H280.458L283.882 190.17Z" fill="#DBDBDB"/>
<path d="M283.882 190.17H278.986L275.798 114.944H280.458L283.882 190.17Z" fill="#A6A6A6"/>
<path d="M198.604 126.993L206.635 131.973L208.16 129.518C208.38 129.164 208.694 128.879 209.068 128.694C209.441 128.509 209.858 128.433 210.273 128.473C210.738 128.511 211.211 128.526 211.684 128.519C212.099 128.506 212.509 128.609 212.869 128.816C213.228 129.024 213.523 129.327 213.72 129.693L215.093 132.24L223.42 127.771L222.055 125.224C221.86 124.857 221.77 124.443 221.797 124.028C221.824 123.613 221.966 123.214 222.208 122.875C222.484 122.488 222.738 122.085 222.97 121.67C223.171 121.306 223.468 121.003 223.828 120.795C224.188 120.587 224.598 120.481 225.014 120.488L227.905 120.58L228.195 111.131L225.297 111.047C224.881 111.026 224.478 110.892 224.133 110.66C223.788 110.427 223.512 110.105 223.337 109.727C223.237 109.521 223.138 109.315 223.024 109.11C222.909 108.904 222.803 108.698 222.681 108.507C222.463 108.154 222.348 107.747 222.348 107.333C222.348 106.918 222.463 106.511 222.681 106.158L224.206 103.68L216.175 98.6997L214.65 101.163C214.43 101.516 214.116 101.8 213.742 101.983C213.369 102.167 212.952 102.242 212.538 102.2C212.072 102.162 211.6 102.147 211.134 102.154C210.72 102.163 210.311 102.059 209.951 101.854C209.591 101.648 209.294 101.349 209.091 100.988L207.657 98.4327L199.329 102.902L200.694 105.449C200.89 105.816 200.979 106.23 200.952 106.645C200.925 107.06 200.783 107.459 200.542 107.798C200.275 108.187 200.031 108.56 199.779 108.995C199.584 109.363 199.289 109.669 198.93 109.879C198.57 110.09 198.159 110.195 197.743 110.185L194.845 110.093L194.555 119.535L197.453 119.626C197.867 119.645 198.269 119.778 198.612 120.011C198.955 120.244 199.227 120.567 199.398 120.946C199.497 121.152 199.603 121.357 199.718 121.571C199.832 121.784 199.939 121.975 200.061 122.173C200.28 122.528 200.396 122.936 200.396 123.352C200.396 123.768 200.28 124.176 200.061 124.53L198.604 126.993ZM204.606 118.993C203.884 117.643 203.578 116.11 203.728 114.586C203.877 113.063 204.475 111.618 205.446 110.434C206.416 109.25 207.716 108.38 209.181 107.935C210.646 107.49 212.209 107.489 213.675 107.933C215.14 108.377 216.441 109.245 217.412 110.427C218.384 111.61 218.984 113.055 219.135 114.578C219.285 116.102 218.981 117.636 218.26 118.986C217.54 120.337 216.435 121.443 215.085 122.166C214.189 122.648 213.207 122.948 212.195 123.049C211.182 123.151 210.16 123.051 209.187 122.756C208.213 122.461 207.307 121.977 206.521 121.331C205.735 120.686 205.084 119.891 204.606 118.993Z" fill="#EBEBEB"/>
<path d="M269.979 101.704L273.289 107.439L275.043 106.425C275.296 106.281 275.584 106.21 275.875 106.221C276.166 106.232 276.449 106.324 276.69 106.486C276.972 106.662 277.255 106.829 277.552 106.982C277.812 107.112 278.03 107.311 278.184 107.557C278.337 107.803 278.42 108.087 278.421 108.378V110.406H285.041V108.378C285.038 108.085 285.119 107.798 285.275 107.551C285.43 107.304 285.654 107.106 285.918 106.982C286.208 106.829 286.498 106.662 286.772 106.486C287.014 106.324 287.296 106.232 287.587 106.221C287.878 106.21 288.166 106.281 288.419 106.425L290.181 107.439L293.483 101.704L291.722 100.69C291.473 100.541 291.27 100.326 291.136 100.069C291.001 99.812 290.94 99.523 290.959 99.2336C290.959 99.0734 290.959 98.9056 290.959 98.7455C290.959 98.5853 290.959 98.4175 290.959 98.2574C290.938 97.9677 290.999 97.678 291.133 97.4207C291.268 97.1634 291.472 96.9488 291.722 96.8008L293.483 95.7788L290.181 90.0439L288.419 91.0582C288.168 91.2095 287.878 91.285 287.584 91.2756C287.291 91.2661 287.006 91.1721 286.765 91.0048C286.49 90.8233 286.204 90.6578 285.91 90.5091C285.651 90.3794 285.432 90.1804 285.279 89.9341C285.125 89.6877 285.043 89.4037 285.041 89.1134V87.0848H278.421V89.1134C278.42 89.4037 278.337 89.6877 278.184 89.9341C278.03 90.1804 277.812 90.3794 277.552 90.5091C277.259 90.6595 276.974 90.8249 276.698 91.0048C276.457 91.1705 276.174 91.2636 275.882 91.2731C275.59 91.2826 275.301 91.208 275.051 91.0582L273.289 90.0439L269.979 95.7788L271.741 96.8008C271.99 96.9494 272.193 97.1642 272.328 97.4213C272.462 97.6785 272.523 97.9678 272.503 98.2574C272.503 98.4175 272.503 98.5777 272.503 98.7455C272.503 98.9133 272.503 99.0734 272.503 99.2336C272.522 99.523 272.461 99.812 272.327 100.069C272.192 100.326 271.989 100.541 271.741 100.69L269.979 101.704ZM276.309 98.7455C276.309 97.673 276.627 96.6247 277.223 95.733C277.819 94.8413 278.665 94.1463 279.656 93.7359C280.647 93.3255 281.737 93.2181 282.789 93.4274C283.841 93.6366 284.807 94.153 285.565 94.9113C286.324 95.6696 286.84 96.6358 287.049 97.6876C287.259 98.7395 287.151 99.8297 286.741 100.82C286.33 101.811 285.635 102.658 284.744 103.254C283.852 103.85 282.804 104.168 281.731 104.168C281.018 104.17 280.311 104.031 279.651 103.759C278.992 103.488 278.392 103.089 277.887 102.585C277.382 102.081 276.981 101.483 276.708 100.824C276.434 100.165 276.294 99.4588 276.294 98.7455H276.309Z" fill="#EBEBEB"/>
<path d="M23.3747 161.533L26.6845 167.237L28.4386 166.231C28.6903 166.079 28.9803 166.004 29.2739 166.013C29.5675 166.023 29.8521 166.117 30.0935 166.284C30.368 166.46 30.6502 166.627 30.9476 166.78C31.2107 166.905 31.4324 167.103 31.5865 167.35C31.7406 167.598 31.8206 167.884 31.817 168.175V170.204H38.4443V168.175C38.4408 167.884 38.5207 167.598 38.6748 167.35C38.8289 167.103 39.0506 166.905 39.3137 166.78C39.6111 166.627 39.8933 166.46 40.1678 166.284C40.4092 166.117 40.6938 166.023 40.9874 166.013C41.281 166.004 41.571 166.079 41.8227 166.231L43.5768 167.237L46.8866 161.51L45.1249 160.488C44.8751 160.34 44.6714 160.125 44.5367 159.868C44.402 159.611 44.3416 159.321 44.3623 159.031C44.3623 158.871 44.3623 158.704 44.3623 158.543C44.3623 158.383 44.3623 158.215 44.3623 158.055C44.3425 157.766 44.4032 157.476 44.5378 157.219C44.6725 156.962 44.8757 156.747 45.1249 156.599L46.8942 155.577L43.5844 149.849L41.8227 150.864C41.5697 151.008 41.2815 151.079 40.9904 151.068C40.6994 151.057 40.4171 150.965 40.1755 150.803C39.8995 150.623 39.6144 150.457 39.3213 150.307C39.0603 150.184 38.8394 149.99 38.6842 149.747C38.529 149.505 38.4458 149.223 38.4443 148.934V146.906H31.817V148.934C31.8206 149.226 31.7406 149.512 31.5865 149.759C31.4324 150.007 31.2107 150.205 30.9476 150.33C30.6546 150.48 30.3695 150.646 30.0935 150.826C29.8518 150.988 29.5696 151.08 29.2785 151.091C28.9875 151.102 28.6992 151.031 28.4462 150.887L26.6845 149.872L23.3747 155.6L25.1364 156.622C25.3862 156.77 25.5899 156.984 25.7246 157.242C25.8593 157.499 25.9197 157.789 25.899 158.078C25.899 158.238 25.899 158.398 25.899 158.566C25.899 158.734 25.899 158.894 25.899 159.054C25.9185 159.345 25.8577 159.635 25.7232 159.894C25.5887 160.152 25.3856 160.368 25.1364 160.519L23.3747 161.533ZM29.7045 158.566C29.703 157.492 30.0204 156.441 30.6165 155.547C31.2125 154.653 32.0605 153.955 33.053 153.544C34.0455 153.132 35.1379 153.023 36.1919 153.233C37.2459 153.442 38.2142 153.959 38.974 154.719C39.7338 155.479 40.2512 156.447 40.4604 157.501C40.6697 158.555 40.5615 159.648 40.1496 160.64C39.7377 161.633 39.0405 162.481 38.1464 163.077C37.2523 163.673 36.2014 163.99 35.1268 163.989C33.6888 163.989 32.3096 163.417 31.2927 162.4C30.2758 161.384 29.7045 160.004 29.7045 158.566Z" fill="#EBEBEB"/>
<path d="M130.395 153.518L113.853 262.086H110.589L120.801 153.518H130.395Z" fill="#EBEBEB"/>
<path d="M130.387 153.518L128.808 163.889H119.825L120.801 153.518H130.387Z" fill="#A6A6A6"/>
<path d="M281.869 153.518L298.41 262.086H301.674L291.462 153.518H281.869Z" fill="#EBEBEB"/>
<path d="M281.876 153.518L283.455 163.889H292.439L291.462 153.518H281.876Z" fill="#A6A6A6"/>
<path d="M307.828 142.04H104.442V151.26H307.828V142.04Z" fill="#EBEBEB"/>
<path d="M304.732 151.26H107.523V153.518H304.732V151.26Z" fill="#C7C7C7"/>
<path d="M168 304.206C253.501 304.206 322.814 296.329 322.814 286.612C322.814 276.895 253.501 269.018 168 269.018C82.4985 269.018 13.1859 276.895 13.1859 286.612C13.1859 296.329 82.4985 304.206 168 304.206Z" fill="#EBEBEB"/>
<path d="M0 262.17L41.9981 261.987L83.9962 261.918L168 261.788L252.004 261.918L294.002 261.979L336 262.17L294.002 262.353L252.004 262.421L168 262.551L83.9962 262.421L41.9981 262.353L0 262.17Z" fill="#263238"/>
<path d="M105.281 76.9571C121.644 76.9571 134.91 63.6921 134.91 47.3289C134.91 30.9657 121.644 17.7007 105.281 17.7007C88.9181 17.7007 75.6531 30.9657 75.6531 47.3289C75.6531 63.6921 88.9181 76.9571 105.281 76.9571Z" fill="#AD6359"/>
<path d="M105.281 69.9409C117.77 69.9409 127.893 59.8172 127.893 47.3289C127.893 34.8407 117.77 24.7169 105.281 24.7169C92.793 24.7169 82.6693 34.8407 82.6693 47.3289C82.6693 59.8172 92.793 69.9409 105.281 69.9409Z" fill="white"/>
<path d="M121.013 51.087C123.083 42.4054 117.723 33.6895 109.042 31.6196C100.36 29.5498 91.6441 34.9097 89.5742 43.5914C87.5044 52.273 92.8643 60.9889 101.546 63.0587C110.228 65.1286 118.943 59.7687 121.013 51.087Z" fill="#AD6359"/>
<path d="M113.997 49.3306C115.101 44.5192 112.095 39.7241 107.284 38.6204C102.472 37.5166 97.6772 40.5223 96.5735 45.3337C95.4698 50.145 98.4754 54.9401 103.287 56.0439C108.098 57.1476 112.893 54.1419 113.997 49.3306Z" fill="white"/>
<path d="M109.323 47.3289C109.323 48.1284 109.086 48.9098 108.642 49.5745C108.198 50.2392 107.567 50.7573 106.828 51.0632C106.089 51.3691 105.277 51.4492 104.493 51.2932C103.709 51.1373 102.988 50.7523 102.423 50.187C101.858 49.6218 101.473 48.9015 101.317 48.1175C101.161 47.3334 101.241 46.5207 101.547 45.7822C101.853 45.0436 102.371 44.4123 103.036 43.9682C103.7 43.5241 104.482 43.287 105.281 43.287C105.812 43.286 106.338 43.3899 106.829 43.5926C107.32 43.7954 107.766 44.0931 108.142 44.4686C108.517 44.8441 108.815 45.2901 109.018 45.781C109.22 46.2718 109.324 46.7979 109.323 47.3289Z" fill="#AD6359"/>
<path d="M145.748 5.94754L107.46 44.2351L108.377 45.1519L146.665 6.86428L145.748 5.94754Z" fill="#455A64"/>
<path d="M110.284 45.9866L105.281 47.3288L106.624 42.3184L110.284 45.9866Z" fill="#263238"/>
<path d="M152.61 3.9123L145.434 11.0887L139.798 12.8046L141.522 7.17636L148.698 0L146.982 5.62822L152.61 3.9123Z" fill="#263238"/>
<path d="M58.2727 181.628C58.2727 181.11 58.2193 180.591 58.2193 180.103H58.7913C58.7913 180.599 58.7913 181.102 58.8447 181.628H58.2727Z" fill="#263238"/>
<path d="M117.361 225.96H117.262V225.388H117.369C118.33 225.388 119.321 225.388 120.305 225.312V225.884C119.337 225.914 118.338 225.96 117.361 225.96ZM113.426 225.83C112.412 225.769 111.382 225.678 110.376 225.571L110.437 224.999C111.436 225.113 112.458 225.197 113.487 225.266L113.426 225.83ZM124.156 225.594L124.095 225.022C125.094 224.915 126.109 224.778 127.108 224.625L127.192 225.19C126.185 225.327 125.163 225.457 124.156 225.571V225.594ZM106.616 225.03C105.617 224.854 104.61 224.656 103.565 224.427L103.695 223.87C104.686 224.092 105.685 224.29 106.677 224.465L106.616 225.03ZM131.02 224.488L130.898 223.931C131.882 223.718 132.881 223.474 133.857 223.222L134.002 223.771C132.965 224.008 131.958 224.252 130.967 224.435L131.02 224.488ZM99.9047 223.481C98.9286 223.199 97.9448 222.894 96.9762 222.566L97.1592 222.025C98.1202 222.353 99.0963 222.658 100.065 222.932L99.9047 223.481ZM137.678 222.719L137.502 222.177C138.448 221.865 139.417 221.529 140.378 221.171L140.576 221.705C139.554 222.017 138.578 222.353 137.624 222.665L137.678 222.719ZM93.3842 221.255C92.4386 220.873 91.4929 220.492 90.5701 220.042L90.8065 219.516C91.7217 219.943 92.6674 220.347 93.5978 220.728L93.3842 221.255ZM144.13 220.271L143.901 219.745C144.831 219.348 145.754 218.913 146.646 218.456L146.906 218.967C145.945 219.371 145.014 219.813 144.076 220.217L144.13 220.271ZM87.1307 218.334C86.2231 217.846 85.3232 217.342 84.4614 216.808L84.7512 216.32C85.613 216.831 86.5053 217.335 87.4052 217.846L87.1307 218.334ZM150.254 217.113L149.956 216.625C150.818 216.107 151.68 215.55 152.519 214.978L152.839 215.451C151.939 215.977 151.07 216.534 150.2 217.06L150.254 217.113ZM81.2203 214.772C80.3661 214.2 79.5272 213.605 78.7112 213.003L79.0544 212.545C79.817 213.14 80.694 213.735 81.5406 214.299L81.2203 214.772ZM155.958 213.178L155.607 212.736C156.37 212.111 157.178 211.455 157.933 210.784L158.315 211.218C157.46 211.836 156.667 212.5 155.867 213.125L155.958 213.178ZM75.7446 210.623C74.9819 209.96 74.2193 209.281 73.4567 208.595L73.8456 208.175C74.6082 208.854 75.3709 209.533 76.1335 210.181L75.7446 210.623ZM161.113 208.602L160.709 208.198C161.411 207.497 162.12 206.765 162.814 206.01L163.234 206.391C162.44 207.1 161.731 207.847 161.022 208.549L161.113 208.602ZM70.6121 205.842C69.9104 205.079 69.2164 204.317 68.553 203.554L68.9877 203.18C69.6435 203.943 70.3299 204.705 71.0239 205.468L70.6121 205.842ZM165.666 203.455L165.232 203.089C165.872 202.326 166.513 201.525 167.131 200.717L167.581 201.068C166.955 201.876 166.315 202.684 165.666 203.455ZM66.1507 200.572C65.5406 199.748 64.9457 198.902 64.389 198.055L64.8694 197.743C65.4185 198.574 66.0058 199.413 66.6159 200.229L66.1507 200.572ZM169.868 197.994L169.396 197.659C169.983 196.835 170.562 196.004 171.127 195.157L171.607 195.47C171.051 196.324 170.456 197.163 169.868 197.994ZM62.4214 194.761C61.9181 193.846 61.4605 192.915 61.0487 192.008L61.5673 191.771C61.9791 192.671 62.429 193.586 62.9171 194.486L62.4214 194.761ZM173.689 192.259L173.201 191.954C173.743 191.1 174.269 190.231 174.795 189.354L175.283 189.651C174.757 190.528 174.231 191.398 173.689 192.259ZM59.6531 188.446C59.3251 187.447 59.0506 186.448 58.837 185.48L59.3938 185.358C59.6073 186.311 59.8742 187.287 60.1564 188.271L59.6531 188.446ZM177.22 186.379L176.717 186.097C177.22 185.213 177.716 184.328 178.242 183.436L178.746 183.71C178.219 184.58 177.716 185.464 177.22 186.349V186.379ZM180.53 180.347L180.027 180.072C180.505 179.178 180.977 178.278 181.445 177.373L181.956 177.64C181.483 178.517 181.011 179.439 180.53 180.316V180.347ZM183.703 174.246L183.199 173.987C183.657 173.079 184.114 172.172 184.58 171.264L185.091 171.516L183.703 174.246ZM186.799 168.099L186.288 167.847L187.653 165.11L188.164 165.369L186.799 168.099ZM189.849 161.952L189.338 161.693L190.719 158.963L191.23 159.222L189.849 161.952ZM192.961 155.851L192.458 155.592L193.861 152.877L194.372 153.144L192.961 155.851ZM196.156 149.75L195.653 149.476C196.134 148.583 196.622 147.691 197.11 146.799L197.613 147.073C197.14 147.92 196.66 148.812 196.217 149.697L196.156 149.75ZM199.474 143.756L198.97 143.474C199.474 142.589 199.985 141.712 200.496 140.835L200.991 141.125C200.503 141.956 200.031 142.833 199.497 143.71L199.474 143.756ZM202.959 137.868L202.471 137.563C203.005 136.702 203.539 135.84 204.088 134.986L204.576 135.291C204.05 136.099 203.508 136.961 202.982 137.823L202.959 137.868ZM206.658 132.111L206.177 131.79C206.749 130.944 207.329 130.105 207.916 129.266L208.381 129.602C207.817 130.387 207.245 131.226 206.681 132.065L206.658 132.111ZM210.616 126.505L210.151 126.17C210.761 125.354 211.378 124.538 212.011 123.737L212.461 124.088C211.859 124.843 211.241 125.651 210.639 126.459L210.616 126.505ZM214.848 121.121L214.406 120.755C215.062 119.992 215.725 119.192 216.397 118.429L216.824 118.803C216.175 119.52 215.52 120.297 214.871 121.075L214.848 121.121ZM219.424 115.989L219.005 115.592C219.706 114.829 220.408 114.12 221.133 113.396L221.537 113.8C220.805 114.471 220.103 115.203 219.409 115.943L219.424 115.989ZM224.275 111.146L223.878 110.726C224.641 110.032 225.403 109.346 226.166 108.675L226.54 109.102C225.746 109.727 224.991 110.414 224.259 111.1L224.275 111.146ZM229.43 106.646L229.072 106.204C229.834 105.556 230.673 104.923 231.474 104.313L231.825 104.763C231.016 105.327 230.208 105.96 229.415 106.601L229.43 106.646ZM234.89 102.521L234.562 102.055C235.394 101.476 236.248 100.896 237.102 100.339L237.415 100.82C236.553 101.323 235.706 101.903 234.875 102.475L234.89 102.521ZM240.641 98.7989L240.343 98.3108C241.22 97.7846 242.113 97.266 242.997 96.7855L243.272 97.2812C242.379 97.7236 241.495 98.2345 240.625 98.7531L240.641 98.7989Z" fill="#263238"/>
<path d="M246.772 95.3669L246.513 94.856L247.886 94.1772L248.137 94.6882L246.772 95.3669Z" fill="#263238"/>
<path d="M239.642 90.0895L235.462 101.56L244.24 94.7111L277.781 82.5471L239.642 90.0895Z" fill="#AD6359"/>
<path opacity="0.1" d="M239.642 90.0895L235.462 101.56L244.24 94.7111L277.781 82.5471L239.642 90.0895Z" fill="#17153E"/>
<path d="M245.361 97.388L235.462 101.56L244.24 94.7112L245.361 97.388Z" fill="#263238"/>
<path d="M244.24 94.7111L277.781 82.5471L250.265 109.392L244.24 94.7111Z" fill="#AD6359"/>
<path d="M239.642 90.0896L225.708 81.0829L277.781 82.5471L239.642 90.0896Z" fill="#AD6359"/>
<path d="M107.554 255.55H27.7521V258.425H107.554V255.55Z" fill="#455A64"/>
<path d="M107.554 273.983H27.7521V276.858H107.554V273.983Z" fill="#455A64"/>
<path d="M107.554 275.851H27.7521V276.85H107.554V275.851Z" fill="#37474F"/>
<path d="M110.2 276.858H25.1058V281.479H110.2V276.858Z" fill="#455A64"/>
<path d="M103.611 258.425H31.6949V273.983H103.611V258.425Z" fill="#455A64"/>
<path d="M103.611 258.425H31.6949V262.147H103.611V258.425Z" fill="#37474F"/>
<path d="M103.611 270.261H31.6949V273.983H103.611V270.261Z" fill="#37474F"/>
<path d="M51.3174 179.714C51.3174 179.714 46.4365 173.46 46.6272 172.85C46.8179 172.24 59.1801 166.559 66.7912 168.275C74.4022 169.99 95.9542 180.698 100.202 197.819C104.45 214.94 92.0876 239.474 91.775 245.178C91.6155 248.732 92.2188 252.279 93.5443 255.581H87.2678C87.2678 255.581 83.9122 249.174 86.0018 239.565C88.0914 229.956 93.5443 211.859 91.1343 201.968C88.7244 192.076 72.3736 178.89 67.4928 177.113C62.6119 175.337 51.3174 179.714 51.3174 179.714Z" fill="#263238"/>
<path d="M90.6997 255.55H39.4814C39.4814 255.55 39.4814 242.28 44.5529 233.914C49.6244 225.548 61.7883 216.923 64.244 212.949C65.7089 210.572 66.3669 207.785 66.1201 205.003C63.8186 208.122 60.4876 210.327 56.7168 211.226C53.1261 212.105 49.3621 211.973 45.8417 210.845C45.8417 210.845 37.2774 213.636 36.6902 214.223C36.1029 214.81 34.1582 216.511 32.633 216.58C31.1077 216.648 26.3184 211.47 26.3184 206.894C26.3184 203.081 42.6005 188.911 42.6005 188.911C42.6005 188.911 44.7969 183.664 45.3918 182.482C45.9866 181.3 61.0257 174.093 64.999 174.368C68.9723 174.642 86.4213 184.282 92.225 196.858C97.7998 208.946 91.775 228.187 89.6854 236.515C86.6425 248.747 90.6997 255.55 90.6997 255.55Z" fill="#455A64"/>
<path d="M45.8417 195.668L54.4747 190.94C54.4747 190.94 51.3098 190.177 49.3727 191.062C47.4356 191.947 45.8417 195.668 45.8417 195.668Z" fill="#263238"/>
<path d="M58.4937 180.652C58.4937 180.652 51.4318 169.136 51.3174 167.847C51.2487 167.024 61.1401 169.182 63.8016 171.02C66.4632 172.858 71.6034 178.509 71.6034 178.509L58.4937 180.652Z" fill="#455A64"/>
<path d="M54.4747 170.227C54.4747 170.227 59.3937 171.691 60.3622 172.82C61.416 174.265 62.3861 175.77 63.2678 177.327" fill="#263238"/>
<path d="M39.6262 252.309L88.6177 247.199C88.9609 252.629 90.6997 255.55 90.6997 255.55H39.4814L39.6262 252.309Z" fill="#37474F"/>
<path d="M304.77 9.31177H209.907V69.0715H304.77V9.31177Z" fill="#EBEBEB"/>
<path d="M217.724 22.9933C230.887 22.9094 244.05 22.9323 257.205 22.9018C270.36 22.8713 283.531 22.9018 296.686 22.9933C283.531 23.0772 270.368 23.0544 257.205 23.0849C244.042 23.1154 230.887 23.1001 217.724 22.9933Z" fill="#A6A6A6"/>
<path d="M217.724 30.7951C230.887 30.7264 244.05 30.7264 257.228 30.7264C270.406 30.7264 283.554 30.7264 296.709 30.818C283.554 30.9018 270.391 30.879 257.228 30.9171C244.065 30.9552 230.887 30.879 217.724 30.7951Z" fill="#A6A6A6"/>
<path d="M217.724 38.5967C230.887 38.5128 244.05 38.5357 257.205 38.5052C270.36 38.4747 283.531 38.5052 296.686 38.5967C283.531 38.6806 270.368 38.6577 257.205 38.6959C244.042 38.734 230.887 38.6806 217.724 38.5967Z" fill="#A6A6A6"/>
<path d="M217.724 46.3985C230.887 46.3146 244.05 46.3375 257.205 46.307C270.36 46.2765 283.531 46.307 296.686 46.3985C283.531 46.4824 270.368 46.4595 257.205 46.4976C244.042 46.5358 230.887 46.4824 217.724 46.3985Z" fill="#A6A6A6"/>
<path d="M217.724 54.2002C230.887 54.1164 244.05 54.1392 257.205 54.1087C270.36 54.0782 283.531 54.1087 296.686 54.2002C283.531 54.2841 270.368 54.2613 257.205 54.2994C244.042 54.3375 230.887 54.2841 217.724 54.2002Z" fill="#A6A6A6"/>
<path d="M233.624 17.9219C233.739 25.2126 233.708 32.5034 233.754 39.7941C233.8 47.0849 233.754 54.368 233.624 61.6588C233.51 54.368 233.533 47.0773 233.487 39.7941C233.441 32.511 233.51 25.2126 233.624 17.9219Z" fill="#A6A6A6"/>
<path d="M247.314 17.9219C247.436 25.2126 247.405 32.5034 247.451 39.7941C247.497 47.0849 247.451 54.368 247.314 61.6588C247.199 54.368 247.23 47.0773 247.184 39.7941C247.138 32.511 247.161 25.2126 247.314 17.9219Z" fill="#A6A6A6"/>
<path d="M260.934 17.9219C261.049 25.2126 261.018 32.5034 261.072 39.7941C261.125 47.0849 261.072 54.368 260.934 61.6588C260.82 54.368 260.843 47.0773 260.797 39.7941C260.751 32.511 260.82 25.2126 260.934 17.9219Z" fill="#A6A6A6"/>
<path d="M274.585 17.9219C274.707 25.2126 274.677 32.5034 274.723 39.7941C274.768 47.0849 274.723 54.368 274.585 61.6588C274.471 54.368 274.501 47.0773 274.456 39.7941C274.41 32.511 274.471 25.2126 274.585 17.9219Z" fill="#A6A6A6"/>
<path d="M288.244 17.9219C288.359 25.2126 288.328 32.5034 288.381 39.7941C288.435 47.0849 288.381 54.368 288.244 61.6588C288.13 54.368 288.16 47.0773 288.107 39.7941C288.053 32.511 288.13 25.2126 288.244 17.9219Z" fill="#A6A6A6"/>
<path opacity="0.5" d="M219.714 48.5415C222.124 48.5415 223.527 40.6177 226.974 40.6177C230.421 40.6177 230.749 46.3985 233.624 46.3985C236.5 46.3985 236.408 36.2402 240.275 36.2402C244.141 36.2402 243.234 40.3661 247.276 40.3661C251.317 40.3661 249.792 30.795 254.017 30.795C258.242 30.795 256.534 43.9809 260.934 43.9809C263.718 43.9809 264.793 39.7941 268.118 39.7941C270.322 39.7941 271.619 41.8837 274.494 41.8837C277.369 41.8837 278.002 33.8303 281.594 33.8303C285.186 33.8303 285.598 38.5968 288.244 38.5968C290.89 38.5968 291.836 30.795 296.686 30.795V61.6587H219.714V48.5415Z" fill="#AD6359"/>
<path d="M219.714 48.9228V48.1601C220.477 48.1601 221.445 46.3069 222.185 44.9571C223.443 42.6692 224.747 40.2364 226.974 40.2364C229.201 40.2364 230.177 41.9904 231.108 43.5462C231.87 44.7588 232.633 46.0171 233.624 46.0171C234.524 46.0171 235.302 43.5767 235.867 41.7998C236.805 38.8789 237.766 35.8589 240.275 35.8589C242.509 35.8589 243.386 37.0486 244.156 38.0934C244.927 39.1382 245.56 39.9847 247.276 39.9847C248.801 39.9847 249.441 37.7502 250.029 35.5843C250.723 33.0448 251.44 30.4137 254.017 30.4137C256.595 30.4137 257.228 33.7235 257.922 37.2316C258.486 40.0686 259.18 43.5996 260.934 43.5996C261.979 43.5996 262.841 42.7226 263.748 41.8074C264.847 40.6787 266.105 39.4127 268.118 39.4127C269.207 39.4801 270.259 39.8325 271.169 40.4347C272.154 41.0799 273.294 41.4487 274.471 41.5024C275.47 41.5024 276.378 39.5881 277.11 38.0476C278.185 35.7597 279.298 33.4718 281.571 33.4718C283.844 33.4718 284.95 34.9971 285.933 36.3393C286.65 37.3155 287.329 38.2383 288.221 38.2383C288.984 38.2383 289.846 36.7588 290.601 35.4471C291.897 33.2126 293.514 30.4366 296.664 30.4366V31.1992C294.238 31.1992 292.85 33.6091 291.6 35.775C290.54 37.5977 289.708 39.0391 288.221 39.0391C286.734 39.0391 285.849 37.918 284.972 36.7512C284.095 35.5843 283.18 34.3031 281.571 34.3031C280.046 34.3031 279.047 36.469 278.132 38.3832C277.125 40.5186 276.248 42.3565 274.471 42.3565C273.063 42.3118 271.693 41.8875 270.505 41.1287C269.79 40.6383 268.96 40.3414 268.095 40.2669C266.646 40.2669 265.609 41.3117 264.61 42.3336C263.611 43.3555 262.521 44.4537 260.911 44.4537C258.219 44.4537 257.541 41.0371 256.831 37.4299C256.29 34.6844 255.611 31.2678 253.994 31.2678C252.378 31.2678 251.645 33.6854 251.066 35.8436C250.364 38.4213 249.701 40.8617 247.253 40.8617C244.805 40.8617 243.981 39.6339 243.18 38.5739C242.379 37.5138 241.83 36.7512 240.252 36.7512C238.673 36.7512 237.659 39.7178 236.904 42.0896C236.042 44.7817 235.378 46.9018 233.602 46.9018C231.825 46.9018 231.009 45.4757 230.093 43.9657C229.247 42.57 228.378 41.121 226.951 41.121C225.525 41.121 224.191 43.4699 223.138 45.3536C222.071 47.2907 221.186 48.9228 219.714 48.9228Z" fill="#AD6359"/>
<path d="M219.714 18.3947C219.798 25.6091 219.874 32.816 219.882 40.0305L219.966 61.6587L219.714 61.4833L258.204 61.5291H277.445L296.686 61.6282L277.445 61.7273L258.204 61.7655L219.714 61.8112H219.462V61.6282L219.546 40C219.554 32.816 219.623 25.6091 219.714 18.3947Z" fill="#A6A6A6"/>
<path d="M117.735 83.1191H25.2965V134.055H117.735V83.1191Z" fill="#EBEBEB"/>
<path d="M112.366 89.5481H39.2525V93.9485H112.366V89.5481Z" fill="white"/>
<path d="M89.8531 89.5481H39.2525V93.9485H89.8531V89.5481Z" fill="#455A64"/>
<path d="M112.366 97.9675H39.2525V102.368H112.366V97.9675Z" fill="white"/>
<path d="M104.892 97.9675H39.2525V102.368H104.892V97.9675Z" fill="#AD6359"/>
<path d="M112.366 106.387H39.2525V110.787H112.366V106.387Z" fill="white"/>
<path d="M85.8493 106.387H39.2525V110.787H85.8493V106.387Z" fill="#455A64"/>
<path d="M112.366 114.806H39.2525V119.207H112.366V114.806Z" fill="white"/>
<path d="M93.0257 114.806H39.2525V119.207H93.0257V114.806Z" fill="#AD6359"/>
<path d="M112.366 123.226H39.2525V127.626H112.366V123.226Z" fill="white"/>
<path d="M74.2421 123.226H39.2525V127.626H74.2421V123.226Z" fill="#455A64"/>
<path d="M36.9342 105.914H31.5881V111.26H36.9342V105.914Z" fill="#455A64"/>
<path d="M33.7769 109.155H33.06V108.332H33.7769C33.7769 108.271 33.7769 108.225 33.7769 108.172C33.7769 107.958 33.7769 107.737 33.7769 107.523C33.7816 107.312 33.8606 107.109 34 106.95C34.1395 106.791 34.3305 106.686 34.5395 106.654C34.8392 106.635 35.1397 106.635 35.4394 106.654V107.417H35.1496C35.0557 107.409 34.9613 107.409 34.8674 107.417C34.8041 107.424 34.7457 107.455 34.7035 107.503C34.6613 107.55 34.6382 107.612 34.6386 107.676C34.6386 107.889 34.6386 108.095 34.6386 108.324H35.4547C35.4547 108.591 35.386 108.843 35.3479 109.087C35.3479 109.087 35.2793 109.14 35.2488 109.14H34.6386V111.253H33.7769V109.155Z" fill="white"/>
<path d="M36.9342 114.334H31.5881V119.68H36.9342V114.334Z" fill="#AD6359"/>
<path d="M34.3488 117.285H33.5862V116.82H34.8979V117.094C34.9041 117.428 34.7787 117.75 34.5488 117.991C34.3189 118.232 34.0032 118.373 33.6701 118.383C33.3528 118.414 33.0347 118.333 32.7705 118.154C32.5063 117.976 32.3125 117.711 32.2223 117.405C32.1321 117.099 32.1512 116.772 32.2762 116.478C32.4012 116.185 32.6244 115.945 32.9075 115.798C33.1583 115.665 33.4434 115.612 33.7252 115.644C34.007 115.677 34.2723 115.794 34.4861 115.981C34.3794 116.088 34.2726 116.202 34.1658 116.301C34.0591 116.4 34.1048 116.301 34.0743 116.301C33.9604 116.25 33.8432 116.207 33.7235 116.172C33.6132 116.148 33.4993 116.148 33.3887 116.17C33.2781 116.191 33.173 116.235 33.0798 116.299C32.9865 116.362 32.907 116.443 32.8459 116.538C32.7849 116.633 32.7436 116.739 32.7244 116.85C32.7012 116.962 32.7004 117.076 32.722 117.188C32.7437 117.299 32.7874 117.406 32.8506 117.5C32.9139 117.595 32.9953 117.675 33.0902 117.738C33.1851 117.801 33.2915 117.844 33.4032 117.865C33.5034 117.892 33.6082 117.898 33.7109 117.883C33.8137 117.869 33.9124 117.833 34.001 117.779C34.0895 117.724 34.166 117.653 34.2259 117.568C34.2857 117.483 34.3275 117.387 34.3488 117.285Z" fill="white"/>
<path d="M36.347 116.805V117.094C36.347 117.094 36.347 117.155 36.347 117.201H35.9656V117.59H35.5691V117.209H35.1801V116.812H35.5691V116.423H35.958V116.805H36.347Z" fill="white"/>
<path d="M36.9342 122.753H31.5881V128.099H36.9342V122.753Z" fill="#455A64"/>
<path d="M32.2516 126.749C32.6784 126.767 33.0982 126.638 33.4413 126.383C32.9456 126.238 32.7473 126.086 32.6787 125.804H33.0066C32.8257 125.75 32.6663 125.641 32.5512 125.492C32.4361 125.343 32.3713 125.161 32.366 124.972L32.7016 125.056C32.3431 124.614 32.2745 124.294 32.488 123.943C32.7022 124.2 32.9672 124.41 33.2665 124.559C33.5657 124.709 33.8927 124.795 34.2268 124.812C34.2309 124.767 34.2309 124.721 34.2268 124.675C34.2168 124.509 34.2558 124.344 34.3391 124.2C34.4223 124.056 34.5461 123.94 34.6949 123.866C34.8437 123.792 35.011 123.763 35.176 123.784C35.3409 123.804 35.4962 123.873 35.6224 123.981C35.6479 124.004 35.679 124.019 35.7125 124.026C35.7461 124.033 35.7808 124.03 35.8131 124.019L36.2249 123.867C36.1631 124.036 36.048 124.18 35.897 124.278L36.3088 124.172C36.202 124.278 36.1029 124.385 35.9885 124.484C35.9615 124.506 35.9399 124.534 35.9253 124.566C35.9108 124.598 35.9037 124.632 35.9046 124.667C35.9072 125.266 35.6854 125.844 35.2831 126.287C34.8808 126.73 34.3271 127.007 33.7311 127.062C33.24 127.108 32.7462 127.007 32.3126 126.772L32.2516 126.749Z" fill="white"/>
<path d="M36.9723 89.0753H31.6262V94.4214H36.9723V89.0753Z" fill="#455A64"/>
<path d="M36.263 90.6692C36.273 90.5521 36.2578 90.4343 36.2184 90.3236C36.179 90.2129 36.1164 90.1119 36.0348 90.0273C35.9532 89.9428 35.8544 89.8767 35.7451 89.8336C35.6359 89.7904 35.5186 89.771 35.4013 89.7769C34.6386 89.7769 33.9294 89.7769 33.1973 89.7769C33.082 89.7714 32.9668 89.7901 32.8592 89.832C32.7517 89.8738 32.6541 89.9378 32.5728 90.0198C32.4916 90.1017 32.4285 90.1999 32.3876 90.3078C32.3467 90.4158 32.3289 90.5311 32.3355 90.6463C32.3355 91.0124 32.3355 91.4089 32.3355 91.7445C32.3355 92.0801 32.3355 92.4614 32.3355 92.8198C32.3256 92.9389 32.3412 93.0587 32.3813 93.1713C32.4215 93.2838 32.4852 93.3865 32.5683 93.4724C32.6513 93.5583 32.7517 93.6255 32.8628 93.6695C32.9739 93.7135 33.0932 93.7332 33.2125 93.7273H35.3936C35.5106 93.733 35.6274 93.7138 35.7365 93.6711C35.8456 93.6285 35.9444 93.5632 36.0264 93.4797C36.1085 93.3962 36.172 93.2962 36.2128 93.1865C36.2536 93.0767 36.2707 92.9595 36.263 92.8427C36.2681 92.1055 36.2681 91.381 36.263 90.6692ZM35.9122 92.8503C35.9206 92.9208 35.9131 92.9922 35.8901 93.0594C35.8671 93.1265 35.8293 93.1876 35.7795 93.2381C35.7297 93.2887 35.6691 93.3274 35.6023 93.3513C35.5355 93.3753 35.4642 93.3839 35.3936 93.3765H33.2125C33.1413 93.3851 33.0691 93.3775 33.0014 93.3541C32.9336 93.3307 32.8721 93.2922 32.8214 93.2415C32.7707 93.1908 32.7322 93.1292 32.7088 93.0614C32.6854 92.9937 32.6777 92.9215 32.6863 92.8503C32.6863 92.1182 32.6863 91.3861 32.6863 90.6539C32.6779 90.5825 32.6857 90.51 32.7091 90.442C32.7325 90.3739 32.7708 90.312 32.8213 90.2608C32.8718 90.2095 32.9332 90.1703 33.0009 90.1459C33.0686 90.1216 33.1409 90.1128 33.2125 90.1201H35.386C35.4569 90.113 35.5285 90.1217 35.5955 90.1456C35.6626 90.1695 35.7236 90.208 35.7739 90.2584C35.8243 90.3088 35.8628 90.3697 35.8867 90.4368C35.9107 90.5039 35.9194 90.5754 35.9122 90.6463C35.9122 91.0124 35.9122 91.4089 35.9122 91.7521C35.9122 92.0953 35.9199 92.4995 35.9122 92.8503Z" fill="white"/>
<path d="M34.3031 90.7226C34.0976 90.7165 33.8951 90.7721 33.7215 90.8822C33.5479 90.9922 33.4112 91.1517 33.329 91.3401C33.2468 91.5286 33.2229 91.7373 33.2604 91.9394C33.2979 92.1415 33.395 92.3277 33.5392 92.4742C33.6834 92.6206 33.8682 92.7206 34.0697 92.7611C34.2713 92.8016 34.4803 92.7809 34.6699 92.7016C34.8596 92.6222 35.0211 92.488 35.1338 92.3161C35.2465 92.1442 35.3051 91.9424 35.3021 91.7369C35.3002 91.4711 35.1948 91.2165 35.0083 91.0272C34.8218 90.8378 34.5688 90.7286 34.3031 90.7226ZM34.3031 92.4309C34.125 92.427 33.9555 92.3539 33.8302 92.2273C33.705 92.1006 33.6339 91.9303 33.632 91.7522C33.6498 91.5836 33.7294 91.4276 33.8555 91.3142C33.9815 91.2008 34.145 91.1381 34.3145 91.1381C34.4841 91.1381 34.6476 91.2008 34.7736 91.3142C34.8996 91.4276 34.9792 91.5836 34.9971 91.7522C34.9961 91.8436 34.9769 91.934 34.9405 92.0179C34.9042 92.1018 34.8514 92.1776 34.7853 92.2408C34.7192 92.304 34.6412 92.3534 34.5558 92.3861C34.4703 92.4187 34.3792 92.434 34.2878 92.4309H34.3031Z" fill="white"/>
<path d="M35.6377 90.692C35.6377 90.7547 35.6128 90.8149 35.5684 90.8592C35.5241 90.9035 35.464 90.9284 35.4013 90.9284C35.3386 90.9284 35.2784 90.9035 35.2341 90.8592C35.1898 90.8149 35.1649 90.7547 35.1649 90.692C35.1668 90.661 35.1748 90.6306 35.1886 90.6026C35.2023 90.5747 35.2214 90.5497 35.2447 90.5292C35.2681 90.5086 35.2953 90.4929 35.3248 90.4829C35.3543 90.4729 35.3855 90.4688 35.4165 90.4709C35.4746 90.4728 35.5297 90.4967 35.5708 90.5377C35.6119 90.5788 35.6358 90.634 35.6377 90.692Z" fill="white"/>
<path d="M36.9342 97.4185H31.5881V102.765H36.9342V97.4185Z" fill="#AD6359"/>
<path d="M32.2516 102.07C32.3431 101.765 32.4194 101.483 32.5033 101.201C32.5336 101.117 32.5336 101.026 32.5033 100.942C32.3729 100.673 32.3053 100.378 32.3055 100.079C32.3057 99.7801 32.3737 99.4852 32.5045 99.2164C32.6352 98.9476 32.8252 98.7121 33.0601 98.5274C33.2951 98.3427 33.5689 98.2137 33.861 98.1502C34.153 98.0867 34.4557 98.0903 34.7461 98.1607C35.0366 98.2311 35.3072 98.3665 35.5378 98.5567C35.7683 98.7469 35.9527 98.987 36.077 99.2587C36.2013 99.5305 36.2623 99.827 36.2554 100.126C36.2339 100.618 36.0312 101.085 35.6863 101.437C35.3414 101.789 34.8787 102.001 34.387 102.032C34.0493 102.049 33.7124 101.986 33.4032 101.849C33.3417 101.827 33.274 101.827 33.2125 101.849L32.2516 102.07ZM32.7321 101.605C32.9303 101.56 33.0981 101.506 33.2659 101.476C33.2924 101.464 33.321 101.458 33.3498 101.458C33.3786 101.458 33.4072 101.464 33.4337 101.476C33.6815 101.604 33.9553 101.675 34.2344 101.682C34.4759 101.685 34.7152 101.635 34.9353 101.536C35.1555 101.436 35.351 101.29 35.5082 101.106C35.6654 100.923 35.7803 100.707 35.8449 100.475C35.9094 100.242 35.922 99.9978 35.8817 99.7597C35.8373 99.4423 35.694 99.147 35.4723 98.9156C35.2505 98.6843 34.9615 98.5287 34.6463 98.4709C34.333 98.399 34.0055 98.42 33.704 98.5312C33.4024 98.6424 33.1397 98.839 32.948 99.097C32.7564 99.355 32.644 99.6632 32.6246 99.9841C32.6052 100.305 32.6796 100.624 32.8388 100.904C32.8616 100.965 32.8616 101.033 32.8388 101.094C32.8178 101.266 32.7873 101.437 32.7473 101.605H32.7321Z" fill="white"/>
<path d="M33.4032 99.2869C33.5404 99.1038 33.7158 99.1343 33.815 99.3403C33.8463 99.4013 33.8718 99.4651 33.8913 99.5309C33.9245 99.5798 33.9375 99.6397 33.9275 99.698C33.9176 99.7563 33.8855 99.8085 33.8379 99.8436C33.8247 99.8557 33.8142 99.8705 33.807 99.8869C33.7998 99.9033 33.7961 99.921 33.7961 99.9389C33.7961 99.9568 33.7998 99.9746 33.807 99.991C33.8142 100.007 33.8247 100.022 33.8379 100.034C33.9856 100.259 34.1947 100.436 34.4403 100.545C34.4709 100.562 34.5069 100.567 34.541 100.559C34.575 100.55 34.6045 100.529 34.6234 100.499C34.7988 100.294 34.7988 100.294 35.0428 100.408L35.1267 100.454C35.1692 100.464 35.2076 100.487 35.2371 100.519C35.2666 100.552 35.2858 100.592 35.2924 100.635C35.2989 100.679 35.2924 100.723 35.2738 100.763C35.2552 100.802 35.2252 100.835 35.1877 100.858C35.1178 100.929 35.0294 100.98 34.9325 101.004C34.8356 101.028 34.7339 101.025 34.6386 100.995C34.1336 100.858 33.7017 100.53 33.4337 100.08C33.3405 99.9513 33.2898 99.7966 33.2888 99.6377C33.2917 99.5121 33.3315 99.3901 33.4032 99.2869Z" fill="white"/>
<path d="M104.404 294.696C106.074 295.237 153.846 294.612 155.645 293.438C156.339 293.003 156.652 286.032 156.797 277.605V277.346C156.797 275.607 156.85 273.815 156.85 272.008C156.85 271.756 156.85 271.504 156.85 271.245L154.562 246.459L122.608 246.78L125.758 271.329V272.305L125.949 277.384V277.903C125.949 277.903 107.767 286.292 105.922 287.817C104.076 289.342 102.726 294.162 104.404 294.696Z" fill="#DD6A57"/>
<path d="M104.404 294.696C106.074 295.237 153.846 294.612 155.645 293.438C156.339 293.003 156.652 286.032 156.797 277.605V277.346C156.797 275.607 156.85 273.815 156.85 272.008C156.85 271.756 156.85 271.504 156.85 271.245L125.727 271.329V272.305L125.918 277.384V277.903C125.918 277.903 107.737 286.292 105.891 287.817C104.046 289.342 102.726 294.162 104.404 294.696Z" fill="#EBEBEB"/>
<path d="M104.397 294.688C105.258 294.97 118.238 294.94 130.921 294.688C133.476 294.642 136.008 294.581 138.425 294.513C147.47 294.269 154.951 293.895 155.645 293.445C156.339 292.995 156.644 286.238 156.782 277.964C156.782 277.849 156.782 277.735 156.782 277.613C156.782 277.491 156.782 277.43 156.782 277.346H156.744L125.964 277.399V277.926C125.964 277.926 107.79 286.314 105.945 287.84C104.099 289.365 102.726 294.154 104.397 294.688Z" fill="#AD6359"/>
<path d="M104.923 292.835C112.969 292.53 145.464 292.072 153.441 292.385C153.51 292.385 153.51 292.431 153.441 292.438C145.472 292.911 112.976 293.11 104.923 292.965C104.747 292.965 104.747 292.843 104.923 292.835Z" fill="#263238"/>
<path d="M122.547 277.529C125.704 276.896 129.586 277.338 132.042 279.558C132.133 279.649 132.042 279.779 131.905 279.748C128.865 278.808 125.733 278.2 122.562 277.933C122.515 277.926 122.472 277.902 122.44 277.867C122.408 277.831 122.39 277.785 122.388 277.737C122.386 277.69 122.401 277.643 122.43 277.605C122.459 277.566 122.5 277.54 122.547 277.529Z" fill="#263238"/>
<path d="M120.275 278.94C123.439 278.307 127.321 278.742 129.769 280.968C129.861 281.052 129.769 281.19 129.64 281.159C126.599 280.224 123.467 279.616 120.297 279.344C120.244 279.347 120.191 279.329 120.151 279.293C120.111 279.257 120.087 279.207 120.084 279.153C120.081 279.1 120.099 279.047 120.135 279.007C120.171 278.967 120.221 278.943 120.275 278.94Z" fill="#263238"/>
<path d="M118.01 280.351C121.167 279.718 125.049 280.152 127.497 282.379C127.596 282.463 127.497 282.593 127.367 282.562C124.326 281.629 121.194 281.021 118.025 280.747C117.972 280.749 117.921 280.73 117.882 280.695C117.844 280.659 117.821 280.609 117.819 280.557C117.817 280.504 117.836 280.453 117.872 280.414C117.907 280.376 117.957 280.353 118.01 280.351Z" fill="#263238"/>
<path d="M130.921 294.681C133.476 294.635 136.008 294.574 138.425 294.505C147.47 294.261 154.951 293.887 155.645 293.438C156.339 292.988 156.644 286.231 156.782 277.956C156.782 277.842 156.782 277.727 156.782 277.605C156.782 277.483 156.782 277.422 156.782 277.338H156.744C152.541 280.297 137.678 290.189 130.921 294.681Z" fill="#263238"/>
<path d="M123.882 277.506H158.276C158.276 277.506 151.352 197.155 151.626 195.752C151.97 193.96 153.998 185.838 156.698 175.199C157.552 171.874 158.46 168.336 159.413 164.614C161.975 154.616 164.805 143.695 167.268 134.185C170.967 119.947 173.849 108.881 173.849 108.881H144.694C144.694 108.881 141.308 119.649 137.014 133.682C130.036 156.461 120.717 187.828 119.794 195.455C118.307 207.718 123.882 277.506 123.882 277.506Z" fill="#37474F"/>
<path d="M125.399 271.634C130.654 271.527 129.144 271.481 134.398 271.436C136.976 271.436 153.868 271.26 156.271 271.657C156.285 271.657 156.298 271.662 156.308 271.672C156.318 271.682 156.324 271.696 156.324 271.71C156.324 271.724 156.318 271.738 156.308 271.748C156.298 271.758 156.285 271.764 156.271 271.764C153.868 272.16 136.976 272.015 134.398 271.992C129.144 271.939 130.654 271.901 125.399 271.786C125.379 271.786 125.36 271.778 125.346 271.764C125.331 271.75 125.323 271.73 125.323 271.71C125.323 271.69 125.331 271.671 125.346 271.656C125.36 271.642 125.379 271.634 125.399 271.634Z" fill="#263238"/>
<path d="M145.121 190.879C146.25 185.907 147.935 181.033 149.399 176.153C152.379 166.238 155.378 156.324 158.398 146.41C159.924 141.453 161.449 136.501 162.974 131.554C163.742 129.052 164.505 126.554 165.262 124.057C166.025 121.617 166.902 119.199 167.588 116.736C167.87 115.729 168.023 116.278 167.664 117.552C166.902 120.122 166.223 122.684 165.476 125.247C163.996 130.331 162.507 135.398 161.007 140.446C158.043 150.503 155.035 160.564 151.985 170.631C150.46 175.675 148.934 180.721 147.409 185.769C146.64 188.17 146.019 190.615 145.548 193.091C145.146 195.681 145.043 198.309 145.243 200.923C145.579 206.185 146.189 211.44 146.669 216.694L148.133 232.48C149.105 242.949 150.065 253.422 151.016 263.901C151.138 265.228 151.253 266.555 151.352 267.882C151.39 268.324 150.711 268.294 150.665 267.882C149.537 257.525 148.667 247.138 147.691 236.766C146.715 226.395 145.762 216.13 144.793 205.804C144.549 203.218 144.275 200.618 144.275 198.017C144.291 195.614 144.575 193.22 145.121 190.879Z" fill="#263238"/>
<path d="M148.004 108.881C150.032 124.538 153.891 153.876 156.698 175.23C163.279 149.422 173.849 108.881 173.849 108.881H148.004Z" fill="#263238"/>
<path d="M140.843 295.154C142.52 295.703 190.284 295.253 192.091 294.086C192.785 293.651 193.129 286.688 193.296 278.261C193.296 278.17 193.296 278.086 193.296 277.994C193.335 276.256 193.365 274.471 193.373 272.656C193.373 272.412 193.373 272.16 193.373 271.893C193.487 259.737 192.61 247.115 192.61 247.115L161.388 247.321L162.257 271.87V272.839L162.433 277.926V278.444C162.433 278.444 144.229 286.833 142.376 288.29C140.522 289.746 139.173 294.597 140.843 295.154Z" fill="#DD6A57"/>
<path d="M140.843 295.153C142.52 295.703 190.284 295.253 192.091 294.086C192.785 293.651 193.129 286.688 193.296 278.261C193.296 278.17 193.296 278.086 193.296 277.994C193.335 276.255 193.365 274.471 193.373 272.656C193.373 272.412 193.373 272.16 193.373 271.893H162.257V272.862L162.433 277.948V278.467C162.433 278.467 144.229 286.856 142.376 288.313C140.522 289.769 139.173 294.597 140.843 295.153Z" fill="#EBEBEB"/>
<path d="M140.843 295.153C142.52 295.702 190.284 295.253 192.092 294.086C192.786 293.651 193.129 286.688 193.296 278.261C193.296 278.17 193.296 278.086 193.296 277.994L162.471 277.941V278.459C162.471 278.459 144.267 286.848 142.414 288.305C140.561 289.762 139.173 294.597 140.843 295.153Z" fill="#AD6359"/>
<path d="M141.369 293.3C149.422 293.026 181.918 292.683 189.895 293.026C189.956 293.026 189.956 293.072 189.895 293.079C181.918 293.521 149.422 293.598 141.369 293.43C141.201 293.422 141.201 293.3 141.369 293.3Z" fill="#263238"/>
<path d="M159.054 278.055C162.212 277.437 166.093 277.887 168.534 280.122C168.633 280.206 168.534 280.343 168.404 280.313C165.368 279.361 162.239 278.74 159.07 278.459C159.022 278.452 158.979 278.429 158.947 278.393C158.915 278.357 158.897 278.311 158.895 278.264C158.893 278.216 158.908 278.169 158.937 278.131C158.966 278.093 159.008 278.066 159.054 278.055Z" fill="#263238"/>
<path d="M156.774 279.458C159.939 278.833 163.821 279.283 166.261 281.525C166.36 281.609 166.261 281.739 166.132 281.708C163.095 280.76 159.966 280.139 156.797 279.855C156.744 279.858 156.693 279.84 156.653 279.805C156.614 279.77 156.59 279.721 156.587 279.668C156.584 279.616 156.602 279.564 156.637 279.525C156.672 279.485 156.722 279.461 156.774 279.458Z" fill="#263238"/>
<path d="M154.501 280.869C157.666 280.252 161.548 280.702 163.989 282.936C164.08 283.02 163.989 283.157 163.851 283.127C160.816 282.174 157.686 281.553 154.517 281.274C154.469 281.266 154.426 281.243 154.394 281.207C154.362 281.171 154.344 281.126 154.342 281.078C154.34 281.03 154.355 280.983 154.384 280.945C154.413 280.907 154.455 280.88 154.501 280.869Z" fill="#263238"/>
<path d="M145.64 108.881C145.64 108.881 146.311 122.829 149.506 133.88C149.758 134.795 150.04 135.695 150.337 136.557C153.259 137.738 156.067 139.183 158.726 140.873C158.726 140.873 159.062 152.099 159.398 164.614C159.771 178.608 160.16 194.212 160.076 197.521C159.786 209.907 161.602 278.01 161.602 278.01L195.996 278.147C195.996 278.147 189.781 202.097 189.819 197.56C189.888 190.269 188.156 158.032 186.822 134.528C185.998 120.038 185.296 108.881 185.296 108.881H145.64Z" fill="#37474F"/>
<path d="M162.822 271.893C168.076 271.802 166.566 271.756 171.821 271.725C174.391 271.725 191.291 271.634 193.693 272.046C193.739 272.046 193.739 272.145 193.693 272.153C191.283 272.541 174.391 272.32 171.821 272.282C166.566 272.214 168.069 272.175 162.822 272.046C162.802 272.046 162.782 272.038 162.768 272.023C162.753 272.009 162.745 271.99 162.745 271.969C162.745 271.949 162.753 271.93 162.768 271.916C162.782 271.901 162.802 271.893 162.822 271.893Z" fill="#263238"/>
<path d="M182.49 113.853C183.123 133.041 183.794 152.229 184.656 171.409C185.518 190.589 186.677 209.899 188.286 229.094C189.186 239.825 190.032 254.909 191.192 265.609C191.187 265.621 191.18 265.631 191.169 265.638C191.159 265.645 191.147 265.649 191.134 265.649C191.122 265.649 191.11 265.645 191.1 265.638C191.089 265.631 191.082 265.621 191.077 265.609C188.576 246.543 187.18 223.039 185.945 203.889C184.709 184.74 183.878 165.552 183.23 146.372C182.856 135.519 182.574 124.667 182.254 113.815C182.231 113.701 182.49 113.716 182.49 113.853Z" fill="#263238"/>
<path d="M148.934 135.725C152.357 137.152 155.649 138.875 158.772 140.873C158.793 140.89 158.808 140.913 158.813 140.94C158.818 140.966 158.814 140.993 158.802 141.017C158.789 141.041 158.768 141.059 158.743 141.069C158.719 141.079 158.691 141.08 158.665 141.071C155.348 139.462 151.962 137.914 148.751 136.122C148.708 136.093 148.676 136.049 148.662 135.998C148.647 135.947 148.652 135.893 148.674 135.846C148.696 135.798 148.734 135.76 148.782 135.738C148.83 135.715 148.884 135.711 148.934 135.725Z" fill="#263238"/>
<path d="M148.713 123.889C148.942 125.11 149.239 126.322 149.476 127.535C149.712 128.747 149.91 129.823 150.238 130.967C150.488 132.058 151.044 133.055 151.84 133.842C152.29 134.254 152.778 134.604 153.258 135.009C153.51 135.214 153.792 135.405 154.059 135.619C154.021 135.451 153.998 135.291 153.968 135.123C153.884 134.658 153.807 134.2 153.731 133.735C153.556 132.705 153.388 131.668 153.235 130.639C152.923 128.61 152.641 126.559 152.214 124.538C152.218 124.524 152.227 124.513 152.239 124.504C152.25 124.496 152.264 124.492 152.278 124.492C152.293 124.492 152.307 124.496 152.318 124.504C152.33 124.513 152.339 124.524 152.343 124.538C152.847 126.528 153.403 128.496 153.868 130.501C154.082 131.485 154.852 136.343 154.89 136.694C154.929 137.045 154.951 137.403 154.967 137.762C155.009 138.124 155.009 138.49 154.967 138.852C154.967 138.936 154.837 138.921 154.799 138.852C154.652 138.516 154.55 138.162 154.494 137.8C154.402 137.449 154.326 137.098 154.265 136.747C154.265 136.618 154.219 136.488 154.204 136.358C153.724 136.069 153.281 135.68 152.831 135.359C152.381 135.039 151.863 134.665 151.405 134.284C150.56 133.572 149.951 132.62 149.659 131.554C149.365 130.411 149.174 129.245 149.087 128.069C148.934 126.681 148.82 125.293 148.629 123.92C148.576 123.836 148.698 123.806 148.713 123.889Z" fill="#263238"/>
<path d="M159.169 70.5967C157.872 75.9351 143.802 104.656 143.916 106.44C143.916 106.867 152.427 112.541 152.633 113.235C153.48 115.973 139.516 127.542 136.458 128.229C127.474 130.257 119.626 129.838 119.786 122.463C120.038 110.894 140.378 82.2421 150.795 72.1296C157.643 65.4566 160.45 65.365 159.169 70.5967Z" fill="#DD6A57"/>
<path d="M133.033 129.609L149.56 108.881C149.56 108.881 144.625 107.096 144.519 105.945C144.412 104.793 156.362 80.2059 158.948 72.9761C161.533 65.7464 159.527 64.2516 151.779 70.4518C144.031 76.652 115.279 116.827 119.542 125.773C122.479 131.943 133.033 129.609 133.033 129.609Z" fill="#AD6359"/>
<path d="M144.511 106.082C143.778 106.265 143.065 106.52 142.383 106.845C141.692 107.15 141.005 107.462 140.324 107.783C138.974 108.408 137.632 109.056 136.328 109.773C135.024 110.49 133.758 111.253 132.515 112.061L131.63 112.61L131.279 112.732C130.784 112.908 130.288 113.098 129.815 113.319C128.892 113.751 127.997 114.243 127.138 114.791C127.077 114.829 127.138 114.921 127.199 114.89C128.094 114.386 129.024 113.947 129.983 113.579L130.364 113.441C129.861 113.777 129.373 114.128 128.9 114.501C127.632 115.48 126.427 116.537 125.293 117.666C125.239 117.72 125.293 117.796 125.377 117.743C127.42 115.76 130.006 114.326 132.469 112.93C134.932 111.535 137.518 109.926 140.095 108.5C140.858 108.088 141.567 107.699 142.322 107.325C143.091 106.991 143.842 106.617 144.572 106.204C144.586 106.195 144.596 106.181 144.601 106.164C144.605 106.148 144.604 106.131 144.596 106.116C144.588 106.101 144.576 106.089 144.56 106.083C144.544 106.076 144.527 106.076 144.511 106.082Z" fill="#263238"/>
<path d="M188.949 129.609C188.827 129.731 138.433 126.284 138.006 125.727C137.418 124.965 152.694 71.184 158.353 64.8084C159.558 63.4433 166.65 61.9943 170.44 65.571C178.479 73.1973 184.114 97.6778 185.296 105.03C187.256 117.163 189.399 129.159 188.949 129.609Z" fill="#AD6359"/>
<path d="M152.747 76.2479C152.747 76.164 152.633 76.103 152.602 76.1868C151.771 78.2612 151.001 80.3584 150.246 82.4557C150.284 82.1582 150.315 81.8532 150.337 81.5558C150.398 80.755 150.391 79.9542 150.46 79.1611C150.46 79.0848 150.345 79.0848 150.345 79.1611C150.299 79.9847 150.147 80.7931 150.025 81.6091C149.903 82.4252 149.819 83.0734 149.697 83.8055L149.628 84.1945C148.408 87.6949 147.264 91.2259 146.143 94.7569C144.16 101.049 142.33 107.401 140.614 113.769C139.638 117.361 138.784 120.976 137.983 124.606C137.987 124.618 137.995 124.628 138.005 124.635C138.015 124.642 138.028 124.646 138.04 124.646C138.053 124.646 138.065 124.642 138.075 124.635C138.085 124.628 138.093 124.618 138.097 124.606C139.966 118.307 141.773 111.985 143.634 105.685C145.342 99.8818 147.142 94.1087 148.972 88.3355C148.981 88.3406 148.991 88.3436 149.001 88.3443C149.011 88.3451 149.021 88.3436 149.031 88.34C149.04 88.3363 149.049 88.3306 149.056 88.3233C149.063 88.3159 149.068 88.3071 149.072 88.2974L149.46 86.7722C150.574 83.3022 151.703 79.7865 152.747 76.2479Z" fill="#263238"/>
<path d="M157.056 67.0429C156.759 69.3308 156.217 74.6082 159.825 74.5319C161.286 74.3761 162.671 73.8014 163.813 72.877C165.003 72.0432 166.095 71.0788 167.07 70.0019C168.207 68.8346 169.245 67.5744 170.174 66.2345C170.174 66.1811 170.303 66.2345 170.257 66.3031C169.312 67.6454 168.503 69.0486 167.428 70.2917C166.405 71.5099 165.222 72.5848 163.912 73.4871C162.692 74.4329 161.213 74.986 159.672 75.0734C159.004 75.0595 158.361 74.8151 157.852 74.3815C157.343 73.9478 157 73.3517 156.881 72.694C156.52 70.8205 156.58 68.8904 157.056 67.0429Z" fill="#263238"/>
<path d="M173.75 76.7359C186.013 85.8875 200.259 90.8217 206.147 88.5185C210.723 86.7187 225.541 73.1515 227.966 62.1849C228.5 59.7673 209.914 57.6091 209.182 59.2335C207.039 63.9008 198.658 72.0076 197.804 71.8855C196.69 71.733 184.008 69.018 173.994 66.6615C161.899 63.8169 167.047 71.7483 173.75 76.7359Z" fill="#DD6A57"/>
<path d="M231.298 58.265C230.33 62.1926 225.197 69.4604 223.283 70.734C221.369 72.0076 208.74 63.6949 208.557 61.346C208.374 58.9971 212.675 46.0095 215.954 43.5005C219.234 40.9914 232.336 54.1926 231.298 58.265Z" fill="#DD6A57"/>
<path d="M208.93 59.0048C208.475 55.7662 207.551 52.6113 206.185 49.6397C204.431 46.1544 201.434 41.1745 203.272 40.1602C207.047 38.0782 214.52 50.4938 214.52 50.4938C214.52 50.4938 216.938 56.5033 213.377 58.8828C212.719 59.3112 211.955 59.5493 211.171 59.5709C210.386 59.5924 209.611 59.3965 208.93 59.0048Z" fill="#DD6A57"/>
<path d="M211.714 48.3814C213.239 49.8532 214.398 48.5034 214.398 48.5034C214.398 48.5034 212.111 51.981 213.59 53.8418C215.07 55.7026 217.403 53.2164 217.586 53.0792C217.464 53.2622 215.451 56.511 217.121 58.2269C218.791 59.9428 220.85 57.1745 220.98 56.9915C220.919 57.205 220.217 59.9962 221.743 61.0029C224.435 62.7493 226.463 55.6645 228.782 54.4977C228.782 54.4977 231.207 58.204 231.298 58.3108C231.39 58.4176 233.365 51.6073 231.619 48.5644C231.371 48.1179 230.978 47.7695 230.505 47.5768C230.032 47.384 229.508 47.3585 229.018 47.5043C229.018 47.5043 229.926 45.4147 228.652 44.0191C227.989 43.3099 226.265 43.7293 226.265 43.7293C226.445 43.2451 226.488 42.7208 226.39 42.2136C226.292 41.7065 226.056 41.2362 225.708 40.8542C224.747 39.9238 223.169 40.4881 223.169 40.4881C223.169 40.4881 229.514 32.0992 227.615 30.5739C224.336 27.8971 213.224 45.8265 211.363 45.9791C210.479 46.0172 211.035 47.7331 211.714 48.3814Z" fill="#DD6A57"/>
<path d="M226.326 43.6225C226.326 43.6225 226.326 43.5386 226.28 43.5614C222.289 45.5611 219.145 48.9239 217.419 53.041C217.365 53.1859 217.457 53.3765 217.533 53.2164C218.837 50.4709 223.283 45.7655 226.326 43.6225Z" fill="#263238"/>
<path d="M220.965 57.2964C222.696 53.285 225.541 50.2345 228.896 47.5195C228.942 47.5195 228.896 47.428 228.843 47.4432C226.829 48.3279 224.869 50.2802 223.504 51.9275C222.171 53.4443 221.261 55.2855 220.866 57.2659C220.812 57.3117 220.927 57.4185 220.965 57.2964Z" fill="#263238"/>
<path d="M214.33 48.511C214.254 48.6483 214.726 48.5644 214.658 48.7016C213.933 50.2269 212.774 52.9876 213.895 53.857C214.78 54.5434 216.32 53.857 216.808 53.3384L218.029 52.0725L217.319 53.6893C216.994 54.4137 216.791 55.1866 216.717 55.9771C216.663 56.3354 216.684 56.701 216.78 57.0504C216.876 57.3998 217.044 57.7253 217.274 58.0057C217.491 58.2646 217.791 58.4408 218.123 58.5047C218.455 58.5686 218.798 58.5163 219.096 58.3566C219.755 57.9946 220.309 57.4694 220.705 56.8313L221.865 55.1001L221.338 57.1058C221.188 57.6653 221.114 58.2425 221.117 58.8218C221.102 59.3586 221.242 59.8884 221.521 60.347C221.658 60.5507 221.849 60.7121 222.073 60.8131C222.297 60.9142 222.544 60.9508 222.787 60.919C223.324 60.7695 223.807 60.4675 224.175 60.0496C224.991 59.1615 225.736 58.2103 226.402 57.205C226.761 56.7093 227.119 56.2136 227.493 55.7331C227.847 55.2282 228.305 54.8045 228.835 54.49C228.351 54.8558 227.942 55.3115 227.63 55.8322C227.295 56.3356 226.982 56.8542 226.662 57.3575C226.05 58.4374 225.34 59.4586 224.541 60.408C224.115 60.9245 223.548 61.306 222.909 61.5062C222.552 61.5792 222.181 61.5458 221.842 61.4103C221.503 61.2748 221.211 61.043 221.003 60.7436C220.628 60.1737 220.434 59.5038 220.446 58.8218C220.44 58.1795 220.514 57.5389 220.667 56.9152L221.3 57.1897C220.841 57.9542 220.192 58.5872 219.417 59.0277C218.976 59.2587 218.469 59.3288 217.983 59.226C217.507 59.1033 217.081 58.837 216.763 58.4633C216.467 58.1106 216.25 57.6989 216.127 57.2557C216.003 56.8125 215.975 56.348 216.046 55.8933C216.144 55.0369 216.381 54.2023 216.747 53.4223L217.258 53.7731C216.618 54.3909 214.97 55.367 213.483 54.4595C211.684 52.9876 213.88 49.1821 214.33 48.511Z" fill="#263238"/>
<path d="M206.528 61.5215L224.869 72.8771C224.869 72.8771 211.47 90.0973 202.692 90.2956C193.914 90.4938 173.712 80.9609 167.291 73.8837C161.739 67.7827 167.962 64.5491 173.712 66.2574C179.462 67.9657 197.468 71.5043 197.971 71.245C198.475 70.9857 206.528 61.5215 206.528 61.5215Z" fill="#AD6359"/>
<path d="M221.499 76.2707C220.874 75.7712 220.219 75.3102 219.539 74.8904L217.418 73.4337C216.061 72.5109 214.65 71.6644 213.247 70.8103C210.395 69.0715 207.55 67.2793 204.568 65.7693C204.515 65.7693 204.446 65.8227 204.5 65.8608C207.146 67.8284 209.968 69.5596 212.759 71.306C214.147 72.183 215.535 73.0677 216.953 73.8837L219.104 75.081C219.854 75.5509 220.633 75.9713 221.438 76.3394C221.483 76.3699 221.544 76.3089 221.499 76.2707Z" fill="#263238"/>
<path d="M179.699 82.5091C177.593 81.2956 175.253 80.5443 172.835 80.3051C172.823 80.3094 172.813 80.3172 172.806 80.3274C172.799 80.3376 172.795 80.3498 172.795 80.3623C172.795 80.3747 172.799 80.3869 172.806 80.3971C172.813 80.4073 172.823 80.4151 172.835 80.4195C173.735 80.6787 174.597 81.0448 175.497 81.3346L176.038 81.5024H175.565L174.04 81.4261C173.987 81.4261 173.979 81.5024 174.04 81.51C174.537 81.6573 175.048 81.7469 175.565 81.7769C175.952 81.792 176.34 81.7767 176.725 81.7312H176.824C177.22 81.8379 179.295 82.5853 179.699 82.6158C179.714 82.6311 179.729 82.5853 179.699 82.5091Z" fill="#263238"/>
<path d="M159.84 72.0915C162.402 72.5185 167.009 68.019 168.519 64.7855C168.618 64.5643 168.145 62.3222 167.695 59.5767C167.42 57.9142 167.169 56.0457 167.054 54.3298C167.054 53.979 165.872 54.7035 165.872 54.7035L163.691 55.3898L156.454 57.6777C157.21 59.7856 157.707 61.9778 157.933 64.2059C157.953 64.4419 157.953 64.6791 157.933 64.9151C157.933 64.9151 157.933 64.9837 157.933 65.0295C157.765 66.3565 157.361 71.672 159.84 72.0915Z" fill="#DD6A57"/>
<path d="M157.903 64.8922C157.903 64.8922 157.903 64.9609 157.903 65.0066C158.273 65.0368 158.646 65.0368 159.016 65.0066C166.254 64.366 166.551 55.0924 166.551 55.0924L163.699 55.4051L156.461 57.693C157.218 59.8009 157.715 61.993 157.941 64.2211C157.946 64.4455 157.933 64.6698 157.903 64.8922Z" fill="#263238"/>
<path d="M155.234 37.9409C155.234 37.9409 151.725 39.2984 151.001 42.8065C150.276 46.3146 151.001 50.0362 151.298 50.2193C151.596 50.4023 155.234 37.9409 155.234 37.9409Z" fill="#263238"/>
<path d="M169.281 43.1954C170.295 47.0619 167.847 58.0285 165.033 60.3851C160.953 63.8017 154.486 63.8932 151.634 59.0352C148.873 54.3221 152.32 40.0915 155.447 37.9713C160.046 34.8522 167.779 37.4756 169.281 43.1954Z" fill="#DD6A57"/>
<path d="M159.337 49.9447C159.337 49.9447 159.39 49.9905 159.382 50.021C159.207 50.7836 159.131 51.6301 159.748 52.0191C158.94 51.775 159.054 50.6158 159.337 49.9447Z" fill="#263238"/>
<path d="M160.16 49.3041C161.373 49.4566 160.976 51.8741 159.855 51.7292C158.734 51.5843 159.146 49.182 160.16 49.3041Z" fill="#263238"/>
<path d="M155.035 49.1211C155.035 49.1211 154.974 49.1211 154.967 49.1745C154.867 49.9371 154.631 50.7684 153.914 50.9056V50.9514C154.723 50.9743 155.035 49.8456 155.035 49.1211Z" fill="#263238"/>
<path d="M154.471 48.2668C153.281 47.9847 152.793 50.3793 153.891 50.6463C154.99 50.9132 155.462 48.4728 154.471 48.2668Z" fill="#263238"/>
<path d="M161.289 48.3585C160.989 48.2134 160.696 48.053 160.412 47.878C160.076 47.6873 159.786 47.5729 159.611 47.2145C159.569 47.1082 159.563 46.9906 159.597 46.8811C159.63 46.7716 159.7 46.6767 159.794 46.612C159.998 46.5096 160.225 46.4627 160.453 46.4761C160.68 46.4895 160.9 46.5627 161.091 46.6883C161.513 46.8898 161.847 47.24 162.029 47.6721C162.065 47.7732 162.07 47.8828 162.045 47.9871C162.019 48.0914 161.964 48.1859 161.885 48.259C161.806 48.332 161.708 48.3804 161.602 48.3981C161.496 48.4158 161.387 48.402 161.289 48.3585Z" fill="#263238"/>
<path d="M153.731 46.8636C154.066 46.8524 154.399 46.8218 154.73 46.7721C155.087 46.7893 155.441 46.6903 155.737 46.4899C155.816 46.4064 155.865 46.2993 155.878 46.185C155.89 46.0707 155.865 45.9555 155.806 45.857C155.66 45.6806 155.471 45.5465 155.256 45.4687C155.041 45.3909 154.81 45.3722 154.585 45.4146C154.117 45.4278 153.671 45.6155 153.335 45.9408C153.262 46.0188 153.214 46.1161 153.196 46.2209C153.178 46.3258 153.19 46.4336 153.232 46.5314C153.274 46.6291 153.344 46.7126 153.432 46.7715C153.521 46.8305 153.625 46.8625 153.731 46.8636Z" fill="#263238"/>
<path d="M158.848 56.7397C158.635 56.8846 158.421 57.0981 158.147 57.0752C157.873 57.0222 157.614 56.9131 157.384 56.7549C157.384 56.7549 157.331 56.7549 157.346 56.7549C157.427 56.9196 157.552 57.059 157.706 57.1584C157.861 57.2578 158.039 57.3134 158.223 57.3193C158.383 57.3103 158.537 57.2509 158.662 57.1495C158.786 57.0482 158.876 56.9101 158.917 56.7549C158.963 56.7397 158.909 56.7168 158.848 56.7397Z" fill="#263238"/>
<path d="M158.459 54.3679C158.221 54.6319 157.931 54.844 157.606 54.9909C157.282 55.1379 156.932 55.2166 156.576 55.2221C156.264 55.2292 155.953 55.1907 155.653 55.1077C155.595 55.1016 155.538 55.0861 155.485 55.0619L155.325 55.0085C155.286 54.9963 155.252 54.9704 155.229 54.9355C155.207 54.9006 155.198 54.8589 155.203 54.8179C155.2 54.7925 155.2 54.7669 155.203 54.7416V54.673C155.279 54.0934 155.478 53.2316 155.478 53.2316C155.256 53.3002 154.105 53.6053 154.166 53.3079C154.662 50.7272 155.415 48.203 156.416 45.7731C156.425 45.7603 156.439 45.7508 156.454 45.746C156.469 45.7413 156.486 45.7414 156.501 45.7465C156.516 45.7515 156.529 45.7612 156.539 45.7742C156.548 45.7872 156.553 45.8028 156.553 45.8188C156.111 48.2059 155.249 50.5014 154.768 52.8884C155.181 52.7767 155.607 52.7202 156.034 52.7206C156.111 52.7206 155.615 54.3908 155.6 54.6501C156.064 54.7744 156.548 54.8041 157.023 54.7373C157.499 54.6705 157.956 54.5085 158.368 54.2611C158.459 54.2611 158.513 54.3222 158.459 54.3679Z" fill="#263238"/>
<path d="M156.042 54.8789C156.289 55.3419 156.652 55.7333 157.094 56.0152C157.339 56.1637 157.625 56.2305 157.91 56.2059C158.536 56.1448 158.635 55.5957 158.604 55.1153C158.586 54.8556 158.535 54.5993 158.452 54.3527C157.726 54.7823 156.881 54.9668 156.042 54.8789Z" fill="#263238"/>
<path d="M157.094 56.0152C157.339 56.1637 157.625 56.2305 157.91 56.2059C158.536 56.1448 158.635 55.5958 158.604 55.1153C158.288 55.0751 157.968 55.1418 157.694 55.3049C157.421 55.468 157.209 55.7181 157.094 56.0152Z" fill="#FF98B9"/>
<path d="M167.52 52.0801C165.232 52.0801 165.521 42.1125 165.521 42.1125C164.193 42.7298 162.779 43.1413 161.327 43.3327C159.851 43.4232 158.37 43.3465 156.911 43.1039C156.599 43.0124 160.519 41.4871 160.519 41.4871C160.519 41.4871 150.688 43.3251 150.17 41.4871C149.994 40.8541 154.479 34.1125 161.266 34.6234C166.284 34.9742 169.075 40.1449 169.075 40.1449C169.075 40.1449 171.485 42.8446 171.363 44.4232C171.226 46.4747 169.914 52.0801 167.52 52.0801Z" fill="#263238"/>
<path d="M166.566 52.0801C166.566 52.0801 169.274 48.6635 170.845 49.6473C172.416 50.6311 170.227 55.695 168.282 56.2898C168.038 56.3836 167.777 56.4268 167.515 56.417C167.254 56.4071 166.997 56.3443 166.76 56.2324C166.524 56.1205 166.312 55.9618 166.139 55.7659C165.965 55.5699 165.833 55.3409 165.75 55.0925L166.566 52.0801Z" fill="#DD6A57"/>
<path d="M170.181 51.1039C170.181 51.1039 170.181 51.1039 170.181 51.1573C169.551 51.4248 168.985 51.8217 168.519 52.3223C168.052 52.8228 167.696 53.4159 167.474 54.0629C167.558 53.9335 167.67 53.8241 167.801 53.7424C167.932 53.6606 168.079 53.6085 168.232 53.5896C168.386 53.5707 168.541 53.5855 168.688 53.633C168.835 53.6805 168.97 53.7596 169.083 53.8646C169.083 53.8646 169.083 53.9409 169.045 53.9332C168.815 53.8462 168.563 53.8318 168.325 53.8918C168.086 53.9517 167.872 54.0833 167.71 54.2688C167.448 54.5854 167.218 54.9278 167.024 55.2907C166.955 55.4127 166.742 55.3289 166.795 55.1992C166.887 53.468 168.343 51.1649 170.181 51.1039Z" fill="#263238"/>
<path d="M157.857 64.8236L160.48 71.1534L168.297 63.0161L170.585 65.5709C170.585 65.5709 162.959 78.4441 162.959 77.8722L160.275 72.4194L156.538 76.2783L156.736 66.692L157.857 64.8236Z" fill="#EBEBEB"/>
<path d="M156.324 71.5348C156.416 69.9562 156.454 68.3623 156.614 66.7836C156.614 66.7302 156.705 66.6997 156.721 66.7836C157.056 68.3089 156.721 74.3489 156.721 75.7979C156.873 75.6301 160.191 72.3966 160.221 72.45C160.801 73.3117 162.768 77.2851 162.906 77.6435C164.103 75.5996 168.709 68.164 170.135 66.204C170.138 66.1971 170.143 66.1908 170.148 66.1857C170.154 66.1806 170.161 66.1767 170.168 66.1743C170.175 66.172 170.183 66.1711 170.19 66.1719C170.198 66.1727 170.205 66.1751 170.211 66.1789C170.218 66.1827 170.224 66.1879 170.228 66.194C170.232 66.2002 170.235 66.2072 170.237 66.2147C170.238 66.2221 170.238 66.2297 170.236 66.2371C170.235 66.2445 170.232 66.2514 170.227 66.2574C169.174 68.4157 163.089 78.4595 162.99 78.3985C161.955 76.5263 161.019 74.6019 160.183 72.633C159.626 73.3346 156.286 76.98 156.271 76.7436C156.197 75.0076 156.215 73.2689 156.324 71.5348Z" fill="#263238"/>
<path d="M181.3 118.879H146.021V120.938H181.3V118.879Z" fill="#455A64"/>
<path d="M167.466 118.879H146.021V120.938H167.466V118.879Z" fill="#263238"/>
<path d="M163.76 120.969L119.108 120.976L112.717 90.4938H157.377L163.76 120.969Z" fill="#455A64"/>
<path d="M140.957 105.731C141.005 106.076 140.977 106.426 140.876 106.759C140.774 107.091 140.602 107.398 140.371 107.658C140.14 107.917 139.855 108.124 139.536 108.262C139.217 108.401 138.872 108.469 138.524 108.461C137.779 108.443 137.065 108.157 136.514 107.656C135.962 107.154 135.609 106.471 135.52 105.731C135.473 105.387 135.502 105.037 135.604 104.705C135.705 104.373 135.878 104.066 136.109 103.807C136.34 103.548 136.624 103.342 136.942 103.202C137.261 103.063 137.605 102.995 137.952 103.001C138.698 103.018 139.413 103.303 139.965 103.805C140.517 104.306 140.869 104.99 140.957 105.731Z" fill="#263238"/>
<path d="M128.069 122.784C130.822 124.309 134.17 127.84 136.458 128.236C137.019 128.358 137.605 128.294 138.127 128.055C138.65 127.815 139.08 127.414 139.356 126.909C139.356 126.909 140.385 129.274 142.528 129.289C143.634 129.289 144.618 127.55 144.618 127.55C144.879 128.072 145.279 128.512 145.774 128.822C146.269 129.131 146.84 129.298 147.424 129.304C148.949 129.228 149.712 127.481 149.712 127.481C149.712 127.481 151.413 128.862 152.938 128.244C155.989 127.07 156.705 114.029 152.008 111.764C149.819 110.703 149.827 113.899 149.827 113.899C149.827 113.899 148.713 109.323 146.013 109.102C143.314 108.881 143.596 113.091 143.596 113.091C143.596 113.091 142.475 108.652 139.668 108.713C136.747 108.782 137.716 112.885 137.716 112.885C137.716 112.885 135.909 109.88 133.766 110.421C130.242 111.314 134.246 118.124 133.415 120.953H128.747L128.069 122.784Z" fill="#DD6A57"/>
<path d="M132.034 125.331C129.304 124.149 127.992 126.093 125.171 125.727C121.998 125.316 123.028 121.594 128.602 120.93H133.43L132.034 125.331Z" fill="#DD6A57"/>
<path d="M144.633 127.581C144.633 127.634 144.709 127.642 144.725 127.581C146.15 122.72 145.79 117.511 143.71 112.892C143.634 112.732 143.405 112.664 143.474 112.892C144.74 116.095 145.213 123.432 144.633 127.581Z" fill="#263238"/>
<path d="M137.434 112.587C139.424 117.117 139.76 121.838 139.409 126.726C139.409 126.741 139.415 126.754 139.425 126.764C139.435 126.774 139.448 126.78 139.462 126.78C139.477 126.78 139.49 126.774 139.5 126.764C139.51 126.754 139.516 126.741 139.516 126.726C140.339 124.377 140.24 121.235 139.95 118.795C139.725 116.526 138.913 114.355 137.594 112.496C137.541 112.442 137.388 112.488 137.434 112.587Z" fill="#263238"/>
<path d="M272.808 195.455C273.04 191.604 273.586 187.778 274.44 184.015C275.249 180.614 276.4 177.152 278.543 174.337C280.496 171.775 283.31 169.762 286.574 169.335C289.716 168.946 292.675 170.349 295.024 172.332C297.945 174.787 300.179 178.036 302.269 181.186C304.566 184.715 306.657 188.374 308.53 192.145C308.591 192.267 308.4 192.374 308.339 192.244C306.718 189.05 304.846 185.99 302.742 183.092C300.827 180.307 298.671 177.697 296.297 175.291C294.139 173.178 291.394 171.211 288.267 171.112C285.14 171.012 282.28 172.759 280.404 175.153C278.307 177.838 277.247 181.194 276.446 184.458C275.622 188.05 275.081 191.701 274.829 195.378C274.219 202.928 274.067 210.532 273.876 218.112C273.785 222.398 273.721 226.684 273.685 230.97C273.685 233.146 273.668 235.32 273.632 237.491C273.713 239.589 273.628 241.69 273.38 243.775C273.312 244.202 272.618 244.156 272.549 243.775C272.296 241.8 272.199 239.809 272.259 237.819C272.259 235.76 272.206 233.701 272.191 231.642C272.153 227.638 272.13 223.626 272.145 219.622C272.168 211.569 272.267 203.5 272.808 195.455Z" fill="#263238"/>
<path d="M283.607 189.788C284.011 187.653 284.728 184.862 285.949 183.207C288.137 180.233 290.524 181.529 288.313 184.824C286.701 187.269 285.659 190.044 285.262 192.946C285.262 192.946 288.938 198.2 293.377 200.786C293.186 198.765 292.614 195.661 293.011 192.664C293.857 186.174 297.785 186.562 296.824 191.695C296.061 195.828 295.725 200.214 295.931 202.12C297.416 203.069 299.008 203.837 300.675 204.408C300.423 203.645 300.156 202.753 299.851 201.663C298.28 195.844 302.139 194.036 302.284 197.3C302.536 200.092 303.047 202.854 303.809 205.552C305.937 206.269 307.699 206.757 308.782 207.138C311.579 208.171 314.079 209.879 316.057 212.111C318.076 210.283 319.755 208.111 321.014 205.697C319.657 204.53 317.514 202.791 314.54 200.694C308.957 196.751 310.902 191.779 315.302 194.875C318.498 197.102 320.969 201.235 322.09 203.363C323.599 199.667 324.456 195.737 324.622 191.748C320.236 187.63 309.369 181.903 312.671 181.903C315.607 181.903 322.189 186.212 324.599 187.874C324.534 186.742 324.41 185.614 324.225 184.496C320.099 181.796 306.684 177.586 308.827 176.374C311.176 175.047 320.534 179.378 323.356 180.751C322.825 178.913 321.987 177.177 320.877 175.619C315.18 167.992 304.9 165.354 300.416 166.81C297.235 167.84 298.166 175.893 297.487 175.619C284.721 170.517 278.917 174.147 283.607 189.788ZM314.875 188.904C315.775 187.813 319.962 191.024 318.749 192.786C317.537 194.547 313.701 190.307 314.867 188.904H314.875ZM293.011 182.04C294.109 182.742 292.484 186.814 290.784 185.579C289.335 184.519 291.889 181.331 293.003 182.032L293.011 182.04Z" fill="#AD6359"/>
<path d="M294.665 183.253C295.245 182.116 295.847 180.965 296.503 179.889C297.107 178.808 297.812 177.787 298.608 176.839L298.067 176.168C297.99 176.084 298.12 175.954 298.196 176.046C298.41 176.29 298.616 176.534 298.822 176.808C298.861 176.83 298.891 176.865 298.906 176.908C299.668 177.853 300.431 178.829 301.148 179.821C302.403 180.107 303.641 180.466 304.854 180.896C306.105 181.316 307.34 181.75 308.561 182.261C308.683 182.315 308.622 182.521 308.492 182.467C307.287 181.933 306.067 181.415 304.824 180.995C303.581 180.576 302.437 180.294 301.239 179.95C301.628 180.5 302.002 181.056 302.383 181.621C304.633 182.331 306.822 183.224 308.927 184.29C311.138 185.342 313.274 186.578 315.394 187.79C315.508 187.859 315.394 188.042 315.279 187.973C313.195 186.755 311.049 185.645 308.85 184.648C306.799 183.687 304.679 182.894 302.612 181.979C307.813 190.109 310.94 199.481 315.112 208.168C315.173 208.29 314.974 208.397 314.921 208.267C313.647 205.216 312.183 202.257 310.795 199.26C309.544 196.576 308.332 193.868 307.081 191.184C306.715 190.401 306.341 189.616 305.96 188.827C306.189 193.167 306.097 197.582 306.806 201.876C306.806 201.89 306.804 201.904 306.798 201.917C306.793 201.93 306.785 201.942 306.775 201.952C306.765 201.961 306.754 201.969 306.741 201.975C306.728 201.98 306.714 201.983 306.7 201.983C306.686 201.983 306.672 201.98 306.659 201.975C306.646 201.969 306.634 201.961 306.624 201.952C306.614 201.942 306.606 201.93 306.601 201.917C306.596 201.904 306.593 201.89 306.593 201.876C306.296 197.239 305.479 192.671 305.51 188.004C305.51 188.004 305.51 187.966 305.51 187.943C304.625 186.174 303.687 184.419 302.673 182.719C300.942 186.784 299.134 190.909 298.326 195.264C298.326 195.401 298.082 195.34 298.12 195.203C299.295 190.833 300.408 186.456 302.49 182.414C301.381 180.576 300.155 178.811 298.822 177.129C298.242 178.212 297.495 179.226 296.839 180.263C296.183 181.3 295.565 182.284 294.97 183.314C293.692 185.505 292.603 187.801 291.714 190.177C291.668 190.307 291.455 190.238 291.508 190.109C292.522 187.828 293.529 185.541 294.665 183.253Z" fill="#263238"/>
<path d="M253.621 193.167C256.969 189.819 260.85 185.419 266.013 185.426C270.993 185.426 274.662 189.453 276.774 193.594C278.978 197.918 279.771 202.822 280.389 207.588C281.122 213.3 281.562 219.045 281.708 224.801C281.8 227.996 281.792 231.199 281.708 234.395C281.706 237.636 281.452 240.871 280.946 244.072C280.854 244.591 280.03 244.606 280 244.072C279.847 241.38 279.954 238.681 280 235.989C280.046 233.296 280 230.65 279.878 228.027C279.68 222.688 279.291 217.312 278.658 212.011C278.109 207.359 277.674 202.57 276.278 198.078C275.02 194.021 272.663 189.384 268.553 187.6C262.948 185.167 257.464 189.605 253.788 193.358C253.697 193.396 253.529 193.258 253.621 193.167Z" fill="#263238"/>
<path d="M236.576 200.648C236.576 201.335 236.644 202.013 236.69 202.677C238.297 201.471 240.179 200.684 242.166 200.389C246.909 199.886 246.604 203.493 243.439 203.645C241.207 203.673 238.998 204.116 236.927 204.95C237.689 211.211 239.428 216.244 239.68 216.313C243.888 216.073 248.074 215.543 252.21 214.726C251.035 212.217 248.351 208.877 249.716 208.625C251.081 208.374 252.583 211.333 253.338 214.521C256.451 213.928 259.511 213.089 262.49 212.011C260.408 210.204 257.152 207.962 258.418 207.001C259.683 206.04 262.231 209.213 263.756 211.508C265.154 210.942 266.476 210.204 267.691 209.312C264.885 205.186 258.036 204.347 258.928 201.357C259.821 198.368 266.227 202.517 269.11 208.038C272.488 204.538 273.479 199.573 273.121 195.34C270.177 194.997 264.511 195.615 264.923 193.502C265.335 191.39 269.422 191.794 272.778 193.03C272.468 191.352 271.796 189.762 270.81 188.37C267.706 184.389 258.242 189.453 258.242 189.453C258.242 189.453 259.256 179.935 255.642 178.288C253.56 177.342 249.891 177.35 246.208 179.523C248.275 179.691 250.784 180.347 251.775 181.811C253.056 183.642 251.012 184.633 249.746 183.794C248.839 183.192 247.146 181.308 244.088 181.064C242.778 182.171 241.628 183.454 240.671 184.877C240.31 185.382 239.977 185.907 239.672 186.448C241.42 185.664 243.319 185.275 245.235 185.309C247.15 185.343 249.034 185.8 250.753 186.646C254.856 188.69 252.568 192.953 249.037 191.291C245.506 189.628 242.173 188.011 238.398 188.949C237.079 192.325 236.467 195.936 236.599 199.558C238.437 198.222 240.505 197.234 242.7 196.644C246.78 195.569 248.038 198.01 243.531 198.46C241.088 198.708 238.721 199.453 236.576 200.648ZM241.54 194.097C241.258 192.778 244.156 192.397 244.637 193.472C245.026 194.387 241.815 195.455 241.54 194.097ZM266.303 201.419C266.57 200.702 268.507 201.518 268.332 202.418C268.088 203.623 266.036 202.143 266.303 201.419ZM252.652 206.055C254.063 205.499 256.267 208.999 254.726 209.807C253.186 210.616 251.478 206.521 252.652 206.055Z" fill="#AD6359"/>
<path d="M240.236 215.611C242.364 212.057 244.461 208.48 246.696 204.988C247.741 203.363 248.824 201.769 249.96 200.206C249.785 200.206 249.617 200.122 249.449 200.092L248.602 199.924C247.954 199.809 247.291 199.718 246.635 199.649C245.979 199.581 245.392 199.558 244.766 199.55C244.099 199.514 243.429 199.548 242.768 199.649C242.692 199.649 242.677 199.542 242.768 199.542C243.432 199.542 244.111 199.489 244.782 199.474C245.453 199.459 246.071 199.474 246.719 199.52C247.367 199.565 247.924 199.619 248.526 199.71C248.862 199.764 249.19 199.817 249.518 199.886C249.716 199.924 249.922 199.954 250.112 200.008C251.264 198.429 252.461 196.873 253.697 195.356C250.012 193.561 246.087 192.31 242.044 191.642C242.03 191.642 242.016 191.636 242.006 191.626C241.996 191.616 241.99 191.602 241.99 191.588C241.99 191.574 241.996 191.56 242.006 191.55C242.016 191.54 242.03 191.535 242.044 191.535C246.145 192.103 250.132 193.312 253.857 195.119C254.536 194.28 255.222 193.449 255.908 192.625C256.595 191.802 257.502 190.795 258.196 189.811C258.242 189.75 258.334 189.811 258.28 189.872C257.325 190.929 256.424 192.034 255.581 193.182C257.099 194.243 258.543 195.404 259.905 196.66C261.323 197.91 262.704 199.204 264.046 200.542C264.091 200.587 264.046 200.671 263.969 200.618C262.642 199.298 261.27 198.048 259.828 196.85C258.387 195.653 256.885 194.562 255.436 193.38L254.444 194.677L253.941 195.333C253.941 195.333 253.941 195.333 253.903 195.378L252.255 197.544C252.899 198.476 253.448 199.47 253.895 200.511C254.376 201.518 254.787 202.555 255.169 203.562C255.931 205.735 256.525 207.963 256.946 210.227C256.946 210.296 256.854 210.326 256.839 210.227C256.388 207.999 255.742 205.814 254.909 203.699C254.49 202.608 254.025 201.548 253.537 200.488C253.049 199.428 252.561 198.604 252.149 197.636C251.668 198.269 251.195 198.902 250.73 199.542C250.593 199.733 250.463 199.924 250.326 200.107C250.326 200.153 250.326 200.206 250.28 200.206C248.821 202.24 247.42 204.319 246.078 206.444C246.159 206.591 246.221 206.747 246.261 206.909C246.353 207.169 246.429 207.42 246.505 207.672C246.657 208.192 246.781 208.718 246.879 209.251C246.97 209.754 247.039 210.257 247.092 210.776C247.097 211.35 247.14 211.924 247.222 212.492C247.222 212.583 247.1 212.583 247.115 212.492C247.155 211.952 247.114 211.41 246.993 210.883C246.917 210.334 246.818 209.785 246.688 209.251C246.559 208.717 246.444 208.275 246.299 207.794C246.223 207.55 246.147 207.314 246.063 207.077C245.979 206.841 245.964 206.818 245.918 206.681C245.288 207.672 244.662 208.669 244.042 209.67C242.814 211.661 241.602 213.659 240.381 215.649C240.336 215.802 240.175 215.71 240.236 215.611Z" fill="#263238"/>
<path d="M273.037 242.913C273.091 240.9 273.411 238.871 273.624 236.866C273.838 234.86 274.074 232.839 274.288 230.826C274.7 226.951 274.928 222.978 275.813 219.18C276.488 215.866 278.14 212.83 280.557 210.463C281.806 209.214 283.445 208.431 285.201 208.244C286.97 208.191 288.706 208.727 290.135 209.769C291.77 210.967 293.177 212.447 294.292 214.139C295.493 215.811 296.574 217.567 297.525 219.394C297.563 219.47 297.457 219.508 297.418 219.447C295.623 216.395 293.241 213.727 290.41 211.6C289.155 210.562 287.621 209.92 286.002 209.754C284.403 209.733 282.862 210.347 281.716 211.462C279.367 213.506 278.01 216.511 277.201 219.462C276.24 222.963 275.928 226.639 275.447 230.223C275.165 232.358 274.89 234.494 274.608 236.622C274.326 238.749 274.158 240.923 273.701 243.012C273.668 243.08 273.615 243.136 273.549 243.171C273.482 243.206 273.407 243.219 273.332 243.208C273.258 243.197 273.189 243.162 273.136 243.109C273.083 243.056 273.048 242.987 273.037 242.913Z" fill="#263238"/>
<path d="M282.944 227.264C283.566 228.112 284.305 228.867 285.14 229.506C284.805 227.539 284.378 224.046 285.399 222.185C286.925 219.295 288.763 220.736 287.847 223.245C286.928 225.511 286.424 227.924 286.36 230.368C288.456 231.688 290.705 232.748 293.056 233.525C292.805 232.394 292.731 231.232 292.835 230.078C293.14 227.028 295.504 227.028 294.894 230.261C294.663 231.506 294.553 232.77 294.566 234.036C297.978 235.087 301.466 235.873 304.999 236.385C306.803 234.048 308.257 231.461 309.316 228.705C306.806 228.072 301.689 227.943 301.827 226.135C301.971 223.718 306.898 225.579 309.781 227.333C310.442 225.23 310.736 223.03 310.65 220.827C308.387 220.197 306.063 219.811 303.718 219.676C298.547 219.234 298.799 216.297 302.551 216.366C305.319 216.412 308.82 218.112 310.475 218.989C309.399 211.95 304.023 207.436 299.722 207.268C292.484 206.97 295.085 215.985 295.085 215.985C295.085 215.985 290.181 212.53 285.552 212.622C280.923 212.713 277.994 220.377 282.944 227.264ZM302.284 214.246C302.116 213.232 305.335 212.988 305.518 214.284C305.708 215.748 302.444 215.283 302.284 214.246ZM307.478 224.816C307.409 224.152 308.805 224.053 309.125 224.869C309.331 225.411 307.562 225.464 307.478 224.816ZM290.097 225.426C291.188 225.586 291.806 229.483 289.929 229.407C288.496 229.346 289.174 225.296 290.097 225.426Z" fill="#AD6359"/>
<path d="M291.607 229.773C291.783 229.293 291.943 228.797 292.103 228.301C291.961 228.81 291.839 229.318 291.737 229.827C291.733 229.835 291.728 229.843 291.722 229.849C291.715 229.856 291.707 229.861 291.699 229.865C291.69 229.868 291.681 229.87 291.672 229.87C291.663 229.87 291.654 229.868 291.645 229.865C291.637 229.861 291.629 229.856 291.623 229.85C291.616 229.843 291.611 229.835 291.607 229.827C291.604 229.818 291.602 229.809 291.602 229.8C291.602 229.791 291.604 229.782 291.607 229.773Z" fill="#263238"/>
<path d="M293.514 223.489C293.857 222.49 294.238 221.506 294.627 220.522C294.833 219.996 295.047 219.478 295.275 218.959C295.444 218.502 295.661 218.065 295.924 217.655C295.699 217.247 295.502 216.824 295.336 216.389C295.336 216.351 295.336 216.32 295.405 216.351C295.934 217.041 296.406 217.773 296.816 218.54L297.403 219.577C297.813 219.615 298.22 219.676 298.623 219.76C299.058 219.844 299.485 219.928 299.92 220.027L301.209 220.324C301.636 220.431 302.055 220.568 302.49 220.637C302.499 220.639 302.507 220.644 302.515 220.649C302.522 220.655 302.528 220.662 302.533 220.67C302.537 220.679 302.54 220.688 302.542 220.697C302.543 220.706 302.542 220.716 302.54 220.725C302.537 220.734 302.533 220.742 302.527 220.749C302.521 220.757 302.514 220.763 302.506 220.767C302.498 220.772 302.489 220.775 302.48 220.776C302.47 220.777 302.461 220.777 302.452 220.774C302.013 220.616 301.561 220.496 301.102 220.416C300.682 220.332 300.271 220.256 299.851 220.194C299.432 220.133 299.005 220.08 298.585 220.042L297.624 219.966C297.8 220.263 297.975 220.568 298.143 220.873C298.171 220.92 298.197 220.968 298.219 221.018C298.571 221.013 298.923 221.054 299.264 221.14C299.638 221.209 300.027 221.277 300.377 221.361C301.14 221.529 301.903 221.705 302.665 221.918C304.191 222.353 305.777 222.856 307.325 223.359C307.409 223.359 307.325 223.52 307.272 223.489C305.736 222.97 304.173 222.537 302.589 222.193C301.826 222.025 301.11 221.849 300.362 221.697L299.249 221.46C298.957 221.417 298.67 221.353 298.387 221.27C299.18 222.739 299.925 224.236 300.621 225.762C302.147 229.087 303.382 232.503 304.671 235.912C304.671 235.996 304.572 236.057 304.541 235.966C303.296 232.581 301.857 229.271 300.233 226.051C299.943 225.464 299.645 224.877 299.348 224.29C299.348 224.412 299.295 224.526 299.272 224.648C299.203 225.052 299.127 225.457 299.058 225.861C298.928 226.669 298.791 227.47 298.669 228.286C298.325 229.941 298.129 231.622 298.082 233.312C298.082 233.33 298.075 233.347 298.062 233.36C298.049 233.373 298.031 233.38 298.013 233.38C297.995 233.38 297.978 233.373 297.965 233.36C297.952 233.347 297.945 233.33 297.945 233.312C298.074 232.511 298.074 231.672 298.128 230.864C298.181 230.055 298.242 229.171 298.341 228.324C298.44 227.478 298.539 226.7 298.669 225.891C298.738 225.487 298.806 225.083 298.883 224.686C298.903 224.382 298.98 224.085 299.111 223.809C298.684 222.955 298.265 222.101 297.838 221.255C297.411 220.408 297.029 219.668 296.618 218.875C296.442 218.547 296.252 218.204 296.061 217.868C295.933 218.287 295.773 218.695 295.58 219.089C295.397 219.539 295.214 219.996 295.024 220.454C294.612 221.46 294.261 222.482 293.834 223.504C293.293 224.953 292.682 226.44 292.233 227.943C292.644 226.456 293.018 224.953 293.514 223.489Z" fill="#263238"/>
<path d="M292.103 228.286C292.103 228.172 292.172 228.057 292.202 227.935L292.103 228.286Z" fill="#263238"/>
<path d="M260.927 238.993L261.438 249.777L262.749 277.544H291.401L292.713 249.777L293.224 238.993H260.927Z" fill="#37474F"/>
<path d="M260.927 238.993L261.438 249.777H292.713L293.224 238.993H260.927Z" fill="#263238"/>
<path d="M258.89 243.356H295.26V234.639H258.89V243.356Z" fill="#37474F"/>
<path d="M289.091 277.544H284.057V282.105H289.091V277.544Z" fill="#37474F"/>
<path d="M289.091 277.544H284.057V279.825H289.091V277.544Z" fill="#263238"/>
<path d="M270.093 277.544H265.068V282.105H270.093V277.544Z" fill="#37474F"/>
<path d="M270.093 277.544H265.068V279.825H270.093V277.544Z" fill="#263238"/>
</svg>
