<svg width="344" height="346" viewBox="0 0 344 346" fill="none" xmlns="http://www.w3.org/2000/svg">
<path d="M58.5939 201.246H57.6475V200.62H57.9604V200.308H58.5939V201.246Z" fill="#EBEBEB"/>
<path d="M56.3962 201.246H55.1449V200.621H56.3962V201.246ZM53.8936 201.246H52.6422V200.621H53.8936V201.246ZM51.3831 201.246H50.1317V200.621H51.3831V201.246ZM48.8804 201.246H47.6291V200.621H48.8804V201.246ZM46.3777 201.246H45.1186V200.621H46.3777V201.246ZM43.8672 201.246H42.6159V200.621H43.8672V201.246ZM41.3646 201.246H40.1132V200.621H41.3646V201.246ZM38.8541 201.246H37.6027V200.621H38.8541V201.246ZM36.3514 201.246H35.1001V200.621H36.3514V201.246ZM33.8487 201.246H32.5896V200.621H33.8487V201.246ZM31.3382 201.246H30.0869V200.621H31.3382V201.246ZM28.8356 201.246H27.5842V200.621H28.8356V201.246ZM26.3251 201.246H25.0737V200.621H26.3251V201.246ZM23.8224 201.246H22.5711V200.621H23.8224V201.246ZM21.3197 201.246H20.0606V200.621H21.3197V201.246ZM18.8092 201.246H17.5579V200.621H18.8092V201.246ZM16.3066 201.246H15.0552V200.621H16.3066V201.246Z" fill="#EBEBEB"/>
<path d="M13.796 201.246H12.8575V200.308H13.4832V200.62H13.796V201.246Z" fill="#EBEBEB"/>
<path d="M13.4832 199.056H12.8575V197.805H13.4832V199.056ZM13.4832 196.546H12.8575V195.295H13.4832V196.546ZM13.4832 194.043H12.8575V192.792H13.4832V194.043ZM13.4832 191.541H12.8575V190.281H13.4832V191.541ZM13.4832 189.03H12.8575V187.779H13.4832V189.03ZM13.4832 186.527H12.8575V185.276H13.4832V186.527ZM13.4832 184.017H12.8575V182.766H13.4832V184.017ZM13.4832 181.514H12.8575V180.263H13.4832V181.514ZM13.4832 179.012H12.8575V177.752H13.4832V179.012ZM13.4832 176.501H12.8575V175.25H13.4832V176.501ZM13.4832 173.998H12.8575V172.747H13.4832V173.998ZM13.4832 171.488H12.8575V170.237H13.4832V171.488ZM13.4832 168.985H12.8575V167.734H13.4832V168.985ZM13.4832 166.483H12.8575V165.223H13.4832V166.483ZM13.4832 163.972H12.8575V162.721H13.4832V163.972ZM13.4832 161.469H12.8575V160.187H13.4832V161.469ZM13.4832 158.959H12.8575V157.708H13.4832V158.959Z" fill="#EBEBEB"/>
<path d="M13.4832 156.456H12.8575V155.518H13.796V156.143H13.4832V156.456Z" fill="#EBEBEB"/>
<path d="M56.3962 156.143H55.1449V155.494H56.3962V156.143ZM53.8936 156.143H52.6422V155.494H53.8936V156.143ZM51.3831 156.143H50.1317V155.494H51.3831V156.143ZM48.8804 156.143H47.6291V155.494H48.8804V156.143ZM46.3777 156.143H45.1186V155.494H46.3777V156.143ZM43.8672 156.143H42.6159V155.494H43.8672V156.143ZM41.3646 156.143H40.1132V155.494H41.3646V156.143ZM38.8541 156.143H37.6027V155.494H38.8541V156.143ZM36.3514 156.143H35.1001V155.494H36.3514V156.143ZM33.8487 156.143H32.5896V155.494H33.8487V156.143ZM31.3382 156.143H30.0869V155.494H31.3382V156.143ZM28.8356 156.143H27.5842V155.494H28.8356V156.143ZM26.3251 156.143H25.0737V155.494H26.3251V156.143ZM23.8224 156.143H22.5711V155.494H23.8224V156.143ZM21.3197 156.143H20.0606V155.494H21.3197V156.143ZM18.8092 156.143H17.5579V155.494H18.8092V156.143ZM16.3066 156.143H15.0552V155.494H16.3066V156.143Z" fill="#EBEBEB"/>
<path d="M58.5939 156.456H57.9604V156.143H57.6475V155.518H58.5939V156.456Z" fill="#EBEBEB"/>
<path d="M58.5938 199.056H57.9603V197.805H58.5938V199.056ZM58.5938 196.546H57.9603V195.295H58.5938V196.546ZM58.5938 194.043H57.9603V192.792H58.5938V194.043ZM58.5938 191.541H57.9603V190.281H58.5938V191.541ZM58.5938 189.03H57.9603V187.779H58.5938V189.03ZM58.5938 186.527H57.9603V185.276H58.5938V186.527ZM58.5938 184.017H57.9603V182.766H58.5938V184.017ZM58.5938 181.514H57.9603V180.263H58.5938V181.514ZM58.5938 179.012H57.9603V177.752H58.5938V179.012ZM58.5938 176.501H57.9603V175.25H58.5938V176.501ZM58.5938 173.998H57.9603V172.747H58.5938V173.998ZM58.5938 171.488H57.9603V170.237H58.5938V171.488ZM58.5938 168.985H57.9603V167.734H58.5938V168.985ZM58.5938 166.483H57.9603V165.223H58.5938V166.483ZM58.5938 163.972H57.9603V162.721H58.5938V163.972ZM58.5938 161.469H57.9603V160.187H58.5938V161.469ZM58.5938 158.967H57.9603V157.708H58.5938V158.967Z" fill="#EBEBEB"/>
<path d="M15.986 198.125H10.3628V203.749H15.986V198.125Z" fill="white"/>
<path d="M16.2674 204.054H10.0107V197.797H16.2674V204.054ZM10.6442 203.428H15.6418V198.438H10.6755L10.6442 203.428Z" fill="#EBEBEB"/>
<path d="M16.0093 175.57H10.3861V181.193H16.0093V175.57Z" fill="white"/>
<path d="M16.2674 181.506H10.0107V175.25H16.2674V181.506ZM10.6442 180.881H15.6418V175.883H10.6755L10.6442 180.881Z" fill="#EBEBEB"/>
<path d="M16.0093 153.023H10.3861V158.646H16.0093V153.023Z" fill="white"/>
<path d="M16.2674 158.951H10.0107V152.694H16.2674V158.951ZM10.6442 158.325H15.6418V153.335H10.6755L10.6442 158.325Z" fill="#EBEBEB"/>
<path d="M61.1122 198.125H55.4891V203.749H61.1122V198.125Z" fill="white"/>
<path d="M61.4015 204.054H55.1448V197.797H61.4015V204.054ZM55.7783 203.428H60.7758V198.438H55.7783V203.428Z" fill="#EBEBEB"/>
<path d="M61.1122 175.57H55.4891V181.193H61.1122V175.57Z" fill="white"/>
<path d="M61.4015 181.506H55.1448V175.25H61.4015V181.506ZM55.7783 180.881H60.7758V175.883H55.7783V180.881Z" fill="#EBEBEB"/>
<path d="M61.1122 153.023H55.4891V158.646H61.1122V153.023Z" fill="white"/>
<path d="M61.4015 158.951H55.1448V152.694H61.4015V158.951ZM55.7783 158.325H60.7758V153.335H55.7783V158.325Z" fill="#EBEBEB"/>
<path d="M38.5647 153.023H32.9415V158.646H38.5647V153.023Z" fill="white"/>
<path d="M38.8462 158.951H32.5896V152.694H38.8462V158.951ZM33.2309 158.325H38.2206V153.335H33.2309V158.325Z" fill="#EBEBEB"/>
<path d="M38.5412 198.125H32.918V203.749H38.5412V198.125Z" fill="white"/>
<path d="M38.8462 204.054H32.5896V197.797H38.8462V204.054ZM33.2309 203.428H38.2206V198.438H33.2309V203.428Z" fill="#EBEBEB"/>
<path d="M328.749 105.315H327.811V104.682H328.124V104.369H328.749V105.315Z" fill="#EBEBEB"/>
<path d="M326.56 105.316H325.3V104.659H326.56V105.316ZM324.049 105.316H322.798V104.659H324.049V105.316ZM321.546 105.316H320.295V104.659H321.546V105.316ZM319.036 105.316H317.785V104.659H319.036V105.316ZM316.533 105.316H315.282V104.659H316.533V105.316ZM314.031 105.316H312.771V104.659H314.031V105.316ZM311.52 105.316H310.269V104.659H311.52V105.316ZM309.017 105.316H307.766V104.659H309.017V105.316ZM306.507 105.316H305.256V104.659H306.507V105.316ZM304.004 105.316H302.753V104.659H304.004V105.316ZM301.502 105.316H300.242V104.659H301.502V105.316ZM298.991 105.316H297.74V104.659H298.991V105.316ZM296.488 105.316H295.237V104.659H296.488V105.316ZM293.978 105.316H292.727V104.659H293.978V105.316ZM291.475 105.316H290.224V104.659H291.475V105.316ZM288.973 105.316H287.713V104.659H288.973V105.316ZM286.462 105.316H285.211V104.659H286.462V105.316Z" fill="#EBEBEB"/>
<path d="M283.959 105.315H283.021V104.369H283.647V104.682H283.959V105.315Z" fill="#EBEBEB"/>
<path d="M283.647 103.095H283.021V101.843H283.647V103.095ZM283.647 100.592H283.021V99.3405H283.647V100.592ZM283.647 98.0814H283.021V96.8379H283.647V98.0814ZM283.647 95.5787H283.021V94.3274H283.647V95.5787ZM283.647 93.076H283.021V91.8169H283.647V93.076ZM283.647 90.5655H283.021V89.3142H283.647V90.5655ZM283.647 88.0629H283.021V86.8115H283.647V88.0629ZM283.647 85.5524H283.021V84.3245H283.647V85.5524ZM283.647 83.0497H283.021V81.7984H283.647V83.0497ZM283.647 80.547H283.021V79.2879H283.647V80.547ZM283.647 78.0365H283.021V76.7852H283.647V78.0365ZM283.647 75.5339H283.021V74.2825H283.647V75.5339ZM283.647 73.0312H283.021V71.8112H283.647V73.0312ZM283.647 70.5207H283.021V69.2694H283.647V70.5207ZM283.647 68.018H283.021V66.7667H283.647V68.018ZM283.647 65.5075H283.021V64.2562H283.647V65.5075ZM283.647 63.0049H283.021V61.7535H283.647V63.0049Z" fill="#EBEBEB"/>
<path d="M283.647 60.5254H283.021V59.5791H283.959V60.2126H283.647V60.5254Z" fill="#EBEBEB"/>
<path d="M326.56 60.2048H325.3V59.5791H326.56V60.2048ZM324.049 60.2048H322.798V59.5791H324.049V60.2048ZM321.546 60.2048H320.295V59.5791H321.546V60.2048ZM319.036 60.2048H317.785V59.5791H319.036V60.2048ZM316.533 60.2048H315.282V59.5791H316.533V60.2048ZM314.031 60.2048H312.771V59.5791H314.031V60.2048ZM311.52 60.2048H310.269V59.5791H311.52V60.2048ZM309.017 60.2048H307.766V59.5791H309.017V60.2048ZM306.507 60.2048H305.256V59.5791H306.507V60.2048ZM304.004 60.2048H302.753V59.5791H304.004V60.2048ZM301.502 60.2048H300.242V59.5791H301.502V60.2048ZM298.991 60.2048H297.74V59.5791H298.991V60.2048ZM296.488 60.2048H295.237V59.5791H296.488V60.2048ZM293.978 60.2048H292.727V59.5791H293.978V60.2048ZM291.475 60.2048H290.224V59.5791H291.475V60.2048ZM288.973 60.2048H287.713V59.5791H288.973V60.2048ZM286.462 60.2048H285.211V59.5791H286.462V60.2048Z" fill="#EBEBEB"/>
<path d="M328.749 60.5254H328.124V60.2126H327.811V59.5791H328.749V60.5254Z" fill="#EBEBEB"/>
<path d="M328.749 103.095H328.124V101.843H328.749V103.095ZM328.749 100.592H328.124V99.3405H328.749V100.592ZM328.749 98.0814H328.124V96.8379H328.749V98.0814ZM328.749 95.5787H328.124V94.3274H328.749V95.5787ZM328.749 93.076H328.124V91.8169H328.749V93.076ZM328.749 90.5655H328.124V89.3142H328.749V90.5655ZM328.749 88.0629H328.124V86.8115H328.749V88.0629ZM328.749 85.5524H328.124V84.3245H328.749V85.5524ZM328.749 83.0497H328.124V81.7984H328.749V83.0497ZM328.749 80.547H328.124V79.2879H328.749V80.547ZM328.749 78.0365H328.124V76.7852H328.749V78.0365ZM328.749 75.5339H328.124V74.2825H328.749V75.5339ZM328.749 73.0312H328.124V71.8112H328.749V73.0312ZM328.749 70.5207H328.124V69.2694H328.749V70.5207ZM328.749 68.018H328.124V66.7667H328.749V68.018ZM328.749 65.5075H328.124V64.2562H328.749V65.5075ZM328.749 63.0049H328.124V61.7535H328.749V63.0049Z" fill="#EBEBEB"/>
<path d="M286.141 102.187H280.518V107.81H286.141V102.187Z" fill="white"/>
<path d="M286.454 108.123H280.198V101.866H286.454V108.123ZM280.831 107.497H285.829V102.5H280.831V107.497Z" fill="#EBEBEB"/>
<path d="M286.165 79.6395H280.542V85.2627H286.165V79.6395Z" fill="white"/>
<path d="M286.454 85.568H280.198V79.3113H286.454V85.568ZM280.831 84.9423H285.829V79.9526H280.831V84.9423Z" fill="#EBEBEB"/>
<path d="M286.165 57.0844H280.542V62.7075H286.165V57.0844Z" fill="white"/>
<path d="M286.454 63.0204H280.198V56.7637H286.454V63.0204ZM280.831 62.3947H285.829V57.3972H280.831V62.3947Z" fill="#EBEBEB"/>
<path d="M331.276 102.187H325.652V107.81H331.276V102.187Z" fill="white"/>
<path d="M331.557 108.123H325.3V101.866H331.557V108.123ZM325.942 107.497H330.931V102.5H325.973L325.942 107.497Z" fill="#EBEBEB"/>
<path d="M331.276 79.6395H325.652V85.2627H331.276V79.6395Z" fill="white"/>
<path d="M331.557 85.568H325.3V79.3113H331.557V85.568ZM325.942 84.9423H330.931V79.9526H325.973L325.942 84.9423Z" fill="#EBEBEB"/>
<path d="M331.276 57.0844H325.652V62.7075H331.276V57.0844Z" fill="white"/>
<path d="M331.557 63.0204H325.3V56.7637H331.557V63.0204ZM325.973 62.426H330.963V57.4284H325.973V62.426Z" fill="#EBEBEB"/>
<path d="M308.72 57.0844H303.097V62.7075H308.72V57.0844Z" fill="white"/>
<path d="M309.01 63.0204H302.753V56.7637H309.01V63.0204ZM303.386 62.3947H308.384V57.3972H303.386V62.3947Z" fill="#EBEBEB"/>
<path d="M308.697 102.187H303.074V107.81H308.697V102.187Z" fill="white"/>
<path d="M309.01 108.123H302.753V101.866H309.01V108.123ZM303.386 107.497H308.384V102.5H303.386V107.497Z" fill="#EBEBEB"/>
<path d="M118.971 74.2042H19.9276V6.44434H118.971V74.2042ZM20.7097 73.4221H118.189V7.22642H20.7097V73.4221Z" fill="#EBEBEB"/>
<path d="M27.6702 10.8084C27.6702 11.1982 27.5546 11.5792 27.3381 11.9033C27.1215 12.2274 26.8137 12.48 26.4536 12.6292C26.0935 12.7784 25.6972 12.8174 25.3149 12.7414C24.9326 12.6653 24.5814 12.4776 24.3058 12.202C24.0301 11.9264 23.8424 11.5752 23.7664 11.1929C23.6903 10.8106 23.7294 10.4143 23.8785 10.0542C24.0277 9.69404 24.2803 9.38623 24.6044 9.16967C24.9285 8.95311 25.3096 8.83752 25.6994 8.83752C26.2221 8.83752 26.7234 9.04517 27.093 9.41477C27.4626 9.78438 27.6702 10.2857 27.6702 10.8084Z" fill="#A6A6A6"/>
<path d="M35.7179 10.8084C35.7179 11.1982 35.6023 11.5792 35.3858 11.9033C35.1692 12.2274 34.8614 12.48 34.5013 12.6292C34.1412 12.7784 33.7449 12.8174 33.3626 12.7414C32.9803 12.6653 32.6291 12.4776 32.3535 12.202C32.0778 11.9264 31.8901 11.5752 31.8141 11.1929C31.738 10.8106 31.7771 10.4143 31.9262 10.0542C32.0754 9.69404 32.328 9.38623 32.6521 9.16967C32.9762 8.95311 33.3573 8.83752 33.7471 8.83752C34.2698 8.83752 34.7711 9.04517 35.1407 9.41477C35.5103 9.78438 35.7179 10.2857 35.7179 10.8084Z" fill="#EBEBEB"/>
<path d="M43.7734 10.8084C43.7734 11.1982 43.6578 11.5792 43.4412 11.9033C43.2246 12.2274 42.9168 12.48 42.5567 12.6292C42.1966 12.7784 41.8003 12.8174 41.418 12.7414C41.0357 12.6653 40.6845 12.4776 40.4089 12.202C40.1333 11.9264 39.9456 11.5752 39.8695 11.1929C39.7935 10.8106 39.8325 10.4143 39.9817 10.0542C40.1308 9.69404 40.3835 9.38623 40.7076 9.16967C41.0317 8.95311 41.4127 8.83752 41.8025 8.83752C42.3252 8.83752 42.8265 9.04517 43.1961 9.41477C43.5657 9.78438 43.7734 10.2857 43.7734 10.8084Z" fill="#AD6359"/>
<path d="M118.58 14.281H20.3186V15.0631H118.58V14.281Z" fill="#EBEBEB"/>
<path d="M16.9556 138.82C17.2208 138.655 17.527 138.568 17.8393 138.568C18.1517 138.568 18.4578 138.655 18.7231 138.82L19.1689 139.07L19.6381 139.313C19.9202 139.44 20.161 139.644 20.3337 139.901C20.5064 140.158 20.6041 140.458 20.6157 140.767L20.6861 142.926L27.7249 142.707L27.6545 140.548C27.6572 140.244 27.7423 139.946 27.9006 139.685C28.0589 139.425 28.2846 139.213 28.5539 139.07C28.8636 138.905 29.1638 138.722 29.4533 138.523C29.7054 138.342 30.003 138.235 30.3125 138.215C30.622 138.194 30.9312 138.26 31.2052 138.406L33.1056 139.43L36.4451 133.173L34.5368 132.157C34.2655 132.007 34.0403 131.785 33.8859 131.516C33.7315 131.248 33.6537 130.942 33.6609 130.632C33.6803 130.283 33.6803 129.933 33.6609 129.584C33.6344 129.276 33.6934 128.967 33.8314 128.691C33.9694 128.415 34.1811 128.183 34.443 128.019L36.2809 126.878L32.566 120.887L30.7125 122.029C30.4493 122.191 30.1459 122.278 29.8365 122.278C29.5271 122.278 29.2238 122.191 28.9606 122.029L28.5148 121.778C28.3584 121.695 28.202 121.617 28.0455 121.544C27.7634 121.414 27.5228 121.209 27.3502 120.951C27.1777 120.692 27.08 120.392 27.0679 120.081L26.9976 117.915L19.9588 118.134L20.0214 120.292C20.0389 120.61 19.965 120.927 19.8084 121.204C19.6518 121.481 19.419 121.708 19.1376 121.857C18.8297 122.024 18.532 122.209 18.246 122.412C17.9924 122.59 17.6946 122.694 17.3855 122.713C17.0764 122.733 16.7679 122.666 16.4942 122.521L14.5859 121.505L11.2542 127.761L13.139 128.669C13.4171 128.821 13.6467 129.048 13.8016 129.325C13.9565 129.601 14.0304 129.916 14.0149 130.233C13.9954 130.584 13.9954 130.937 14.0149 131.289C14.0415 131.596 13.9825 131.905 13.8444 132.181C13.7064 132.457 13.4948 132.689 13.2329 132.853L11.395 133.987L15.1099 139.985L16.9556 138.82ZM18.7231 127.683C19.2642 126.676 20.0921 125.851 21.1019 125.315C22.1117 124.778 23.2581 124.553 24.3959 124.668C25.5337 124.783 26.6118 125.233 27.4938 125.961C28.3757 126.689 29.0219 127.662 29.3505 128.757C29.6791 129.853 29.6754 131.021 29.3398 132.114C29.0042 133.207 28.3518 134.177 27.4652 134.899C26.5786 135.621 25.4976 136.064 24.3591 136.172C23.2206 136.28 22.0757 136.047 21.0693 135.504C19.7223 134.777 18.7187 133.545 18.2788 132.079C17.8389 130.613 17.9987 129.032 18.7231 127.683Z" fill="#EBEBEB"/>
<path d="M34.9905 111.838C35.0989 111.649 35.2584 111.495 35.4507 111.392C35.643 111.29 35.8603 111.244 36.0776 111.26H36.8127C37.0289 111.246 37.2446 111.292 37.4363 111.393C37.6281 111.493 37.7884 111.645 37.8998 111.83L38.6819 113.144L42.9599 110.681L42.1778 109.367C42.0698 109.177 42.017 108.961 42.0253 108.742C42.0336 108.524 42.1027 108.312 42.2248 108.131C42.3582 107.924 42.4809 107.71 42.5924 107.49C42.6897 107.297 42.8382 107.134 43.0216 107.02C43.205 106.905 43.4163 106.843 43.6325 106.841H45.1498V101.898H43.6403C43.424 101.896 43.2123 101.835 43.0287 101.72C42.8451 101.606 42.6968 101.442 42.6002 101.249C42.4829 101.03 42.3655 100.819 42.2326 100.615C42.1105 100.434 42.0414 100.223 42.0331 100.004C42.0248 99.7859 42.0776 99.5696 42.1857 99.3796L42.9677 98.0658L38.6897 95.5944L37.9077 96.9161C37.7976 97.103 37.6375 97.2555 37.4454 97.3563C37.2533 97.4572 37.0369 97.5025 36.8206 97.487H36.0932C35.8768 97.5025 35.6604 97.4572 35.4684 97.3563C35.2763 97.2555 35.1162 97.103 35.0061 96.9161L34.224 95.5944L29.9382 98.0658L30.7203 99.3796C30.8355 99.5637 30.8965 99.7765 30.8965 99.9936C30.8965 100.211 30.8355 100.423 30.7203 100.608C30.5873 100.819 30.4622 101.03 30.3527 101.249C30.2555 101.444 30.1059 101.608 29.9209 101.722C29.7358 101.837 29.5224 101.898 29.3047 101.898H27.7406V106.841H29.25C29.4683 106.843 29.6819 106.905 29.8669 107.021C30.0519 107.137 30.2011 107.302 30.298 107.498C30.4082 107.716 30.531 107.927 30.6656 108.131C30.7805 108.317 30.8414 108.531 30.8414 108.749C30.8414 108.967 30.7805 109.181 30.6656 109.367L29.8835 110.681L34.2553 113.144L34.9905 111.838ZM32.394 104.377C32.3924 103.576 32.6287 102.792 33.0729 102.124C33.5171 101.457 34.1493 100.937 34.8894 100.629C35.6295 100.321 36.4443 100.24 37.2307 100.395C38.0171 100.55 38.7397 100.936 39.307 101.502C39.8744 102.068 40.261 102.79 40.4179 103.576C40.5749 104.362 40.4951 105.177 40.1887 105.918C39.8823 106.659 39.3631 107.292 38.6967 107.737C38.0303 108.183 37.2467 108.421 36.4452 108.421C35.3721 108.421 34.3428 107.995 33.5833 107.237C32.8238 106.479 32.396 105.45 32.394 104.377Z" fill="#EBEBEB"/>
<path d="M316.588 243.291C316.399 243.181 316.245 243.02 316.142 242.826C316.04 242.633 315.994 242.414 316.009 242.196C316.009 242.079 316.009 241.961 316.009 241.836C316.009 241.711 316.009 241.594 316.009 241.469C315.994 241.252 316.039 241.036 316.14 240.844C316.241 240.652 316.393 240.492 316.58 240.382L317.894 239.599L315.43 235.321L314.117 236.104C313.926 236.21 313.71 236.262 313.492 236.253C313.274 236.245 313.063 236.177 312.881 236.057C312.675 235.92 312.461 235.798 312.24 235.689C312.047 235.59 311.885 235.44 311.772 235.255C311.659 235.07 311.599 234.858 311.598 234.641V233.132H306.655V234.641C306.655 234.859 306.594 235.072 306.48 235.257C306.365 235.442 306.201 235.592 306.006 235.689C305.788 235.799 305.577 235.922 305.373 236.057C305.191 236.177 304.98 236.245 304.762 236.253C304.544 236.262 304.328 236.21 304.137 236.104L302.823 235.321L300.352 239.599L301.674 240.382C301.859 240.491 302.011 240.65 302.112 240.84C302.213 241.031 302.259 241.246 302.245 241.461C302.245 241.586 302.245 241.703 302.245 241.828C302.245 241.954 302.245 242.071 302.245 242.188C302.259 242.405 302.213 242.622 302.112 242.816C302.012 243.009 301.86 243.17 301.674 243.283L300.352 244.065L302.823 248.343L304.137 247.561C304.326 247.455 304.541 247.403 304.758 247.411C304.975 247.419 305.185 247.487 305.365 247.608C305.576 247.741 305.787 247.866 306.006 247.976C306.201 248.073 306.365 248.222 306.48 248.407C306.594 248.593 306.655 248.806 306.655 249.024V250.533H311.606V249.031C311.606 248.814 311.667 248.6 311.782 248.415C311.897 248.23 312.06 248.081 312.255 247.983C312.473 247.873 312.685 247.75 312.889 247.616C313.071 247.495 313.282 247.427 313.5 247.419C313.718 247.411 313.934 247.463 314.124 247.569L315.438 248.351L317.902 244.073L316.588 243.291ZM309.127 245.887C308.325 245.889 307.541 245.653 306.874 245.208C306.207 244.764 305.686 244.132 305.379 243.392C305.071 242.652 304.989 241.837 305.145 241.051C305.3 240.264 305.685 239.542 306.252 238.974C306.818 238.407 307.54 238.02 308.326 237.863C309.112 237.706 309.927 237.786 310.668 238.093C311.408 238.399 312.041 238.918 312.487 239.585C312.932 240.251 313.17 241.035 313.17 241.836C313.17 242.908 312.746 243.936 311.989 244.695C311.233 245.455 310.206 245.883 309.135 245.887H309.127Z" fill="#EBEBEB"/>
<path d="M179.136 345.51C254.582 345.51 315.743 339.617 315.743 332.347C315.743 325.078 254.582 319.185 179.136 319.185C103.691 319.185 42.5297 325.078 42.5297 332.347C42.5297 339.617 103.691 345.51 179.136 345.51Z" fill="#EBEBEB"/>
<path d="M10.7772 314.359L50.4758 314.163L90.1666 314.101L169.556 313.968L248.945 314.101L288.636 314.163L328.327 314.359L288.636 314.547L248.945 314.617L169.556 314.75L90.1666 314.617L50.4758 314.547L10.7772 314.359Z" fill="#263238"/>
<path d="M303.386 18.5433H35.7255V307.664H303.386V18.5433Z" fill="white"/>
<path d="M303.582 307.86H35.53V18.3477H303.582V307.86ZM35.9211 307.469H303.191V18.7387H35.9211V307.469Z" fill="#DBDBDB"/>
<path d="M303.386 18.5433H35.7255V25.0581H303.386V18.5433Z" fill="#AD6359"/>
<path d="M40.903 21.8046C40.9045 22.1254 40.8107 22.4395 40.6334 22.7069C40.4561 22.9744 40.2034 23.1831 39.9072 23.3066C39.6111 23.4301 39.2849 23.4628 38.9702 23.4006C38.6554 23.3384 38.3662 23.184 38.1393 22.9571C37.9125 22.7303 37.7581 22.4411 37.6959 22.1263C37.6337 21.8116 37.6664 21.4854 37.7899 21.1893C37.9134 20.8931 38.1221 20.6404 38.3895 20.4631C38.657 20.2858 38.971 20.192 39.2919 20.1935C39.7192 20.1935 40.129 20.3632 40.4311 20.6654C40.7332 20.9675 40.903 21.3773 40.903 21.8046Z" fill="#263238"/>
<path d="M47.5037 21.8046C47.5053 22.1251 47.4116 22.4389 47.2347 22.7061C47.0578 22.9734 46.8055 23.1821 46.5098 23.3058C46.2141 23.4296 45.8884 23.4627 45.5738 23.4012C45.2592 23.3396 44.97 23.186 44.7429 22.9599C44.5157 22.7338 44.3607 22.4454 44.2976 22.1311C44.2345 21.8169 44.2661 21.491 44.3884 21.1947C44.5107 20.8984 44.7182 20.6451 44.9846 20.4669C45.251 20.2886 45.5643 20.1935 45.8848 20.1935C46.3128 20.1935 46.7234 20.363 47.0268 20.6649C47.3302 20.9668 47.5017 21.3766 47.5037 21.8046Z" fill="white"/>
<path d="M54.1045 21.8046C54.106 22.1251 54.0124 22.4389 53.8355 22.7061C53.6585 22.9734 53.4062 23.1821 53.1105 23.3058C52.8149 23.4296 52.4891 23.4627 52.1746 23.4012C51.86 23.3396 51.5708 23.186 51.3436 22.9599C51.1164 22.7338 50.9615 22.4454 50.8984 22.1311C50.8353 21.8169 50.8669 21.491 50.9892 21.1947C51.1114 20.8984 51.3189 20.6451 51.5853 20.4669C51.8517 20.2886 52.165 20.1935 52.4856 20.1935C52.9136 20.1935 53.3242 20.363 53.6276 20.6649C53.9309 20.9668 54.1024 21.3766 54.1045 21.8046Z" fill="#455A64"/>
<path d="M297.677 30.6344H227.399V40.2228H297.677V30.6344Z" fill="white"/>
<path d="M297.771 40.3244H227.297V30.5405H297.771V40.3244ZM227.493 40.1289H297.575V30.7439H227.493V40.1289Z" fill="#C7C7C7"/>
<path d="M297.779 30.5405H287.987V40.3322H297.779V30.5405Z" fill="#AD6359"/>
<path d="M295.917 38.1189L295.034 38.7915L293.391 36.6173L292.797 35.8352C292.919 35.7837 293.034 35.7181 293.141 35.6397C293.339 35.4825 293.495 35.2782 293.595 35.0453L294.228 35.8899L295.917 38.1189Z" fill="white"/>
<path d="M294.181 33.0197C293.901 32.6542 293.521 32.3765 293.088 32.2194C292.655 32.0624 292.185 32.0325 291.736 32.1334C291.286 32.2342 290.874 32.4616 290.55 32.7886C290.225 33.1157 290 33.5287 289.903 33.9792C289.805 34.4296 289.838 34.8986 289.998 35.3308C290.158 35.763 290.439 36.1404 290.806 36.4185C291.174 36.6966 291.613 36.8639 292.072 36.9005C292.532 36.9371 292.992 36.8416 293.399 36.6251C293.519 36.5642 293.631 36.4908 293.735 36.4062C294.245 36.0171 294.578 35.4419 294.663 34.8069C294.748 34.1718 294.578 33.529 294.189 33.0197H294.181ZM293.125 35.6397C293.019 35.7181 292.903 35.7838 292.781 35.8352C292.472 35.9635 292.128 35.9806 291.807 35.8835C291.487 35.7864 291.21 35.5813 291.024 35.3029C290.838 35.0246 290.754 34.6904 290.787 34.3572C290.82 34.024 290.967 33.7125 291.204 33.4757C291.441 33.239 291.752 33.0917 292.085 33.0589C292.418 33.0261 292.753 33.1099 293.031 33.296C293.309 33.4821 293.515 33.7589 293.612 34.0793C293.709 34.3997 293.692 34.7439 293.563 35.0532C293.467 35.2815 293.317 35.4829 293.125 35.6397Z" fill="white"/>
<path d="M229.917 32.519H229.401V38.3377H229.917V32.519Z" fill="#C7C7C7"/>
<path d="M223.794 30.6344H66.9308V40.2228H223.794V30.6344Z" fill="white"/>
<path d="M223.887 40.3244H66.829V30.5405H223.887V40.3244ZM67.0245 40.1289H223.692V30.7439H67.0245V40.1289Z" fill="#C7C7C7"/>
<path d="M69.4491 32.519H68.9329V38.3377H69.4491V32.519Z" fill="#C7C7C7"/>
<path d="M52.3997 30.5405H42.608V40.3322H52.3997V30.5405Z" fill="#AD6359"/>
<path d="M48.8333 38.7132L45.3373 35.4988L48.8254 32.1593L49.3651 32.7224L46.4792 35.491L49.3573 38.1344L48.8333 38.7132Z" fill="white"/>
<path d="M53.6901 40.3243H63.4818V30.5326H53.6901V40.3243Z" fill="#AD6359"/>
<path d="M57.2642 32.1514L60.7523 35.3657L57.2642 38.7052L56.7245 38.1421L59.6104 35.3736L56.7323 32.7223L57.2642 32.1514Z" fill="white"/>
<path d="M297.677 78.4197V45.4705L42.7487 45.4705V78.4197L297.677 78.4197Z" fill="white"/>
<path d="M297.873 78.6075H42.5531V45.275H297.873V78.6075ZM42.9129 78.2164H297.482V45.6661H42.9442L42.9129 78.2164Z" fill="#DBDBDB"/>
<path d="M42.7602 45.2776L42.7101 45.6654L297.64 78.5941L297.69 78.2062L42.7602 45.2776Z" fill="#DBDBDB"/>
<path d="M297.637 45.1664L42.7362 78.3175L42.7866 78.7053L297.688 45.5542L297.637 45.1664Z" fill="#DBDBDB"/>
<path d="M84.3556 300.399H42.5531V281.183H84.3556V300.399ZM42.9442 300.008H83.9645V281.574H42.9442V300.008Z" fill="#DBDBDB"/>
<path d="M42.823 281.221L42.6613 281.577L84.0715 300.396L84.2333 300.04L42.823 281.221Z" fill="#DBDBDB"/>
<path d="M84.0808 281.193L42.6771 300.027L42.8391 300.383L84.2428 281.549L84.0808 281.193Z" fill="#DBDBDB"/>
<path d="M297.873 300.399H256.07V281.183H297.873V300.399ZM256.461 300.008H297.482V281.574H256.461V300.008Z" fill="#DBDBDB"/>
<path d="M256.349 281.23L256.187 281.586L297.597 300.406L297.759 300.05L256.349 281.23Z" fill="#DBDBDB"/>
<path d="M297.591 281.187L256.19 300.028L256.352 300.384L297.753 281.543L297.591 281.187Z" fill="#DBDBDB"/>
<path d="M244.699 300.399H202.888V281.183H244.699V300.399ZM203.248 300.008H244.276V281.574H203.28L203.248 300.008Z" fill="#DBDBDB"/>
<path d="M203.167 281.221L203.005 281.577L244.415 300.396L244.577 300.04L203.167 281.221Z" fill="#DBDBDB"/>
<path d="M244.424 281.185L203.02 300.019L203.182 300.375L244.585 281.541L244.424 281.185Z" fill="#DBDBDB"/>
<path d="M136.982 300.399H95.1796V281.183H136.982V300.399ZM95.5707 300.008H136.591V281.574H95.5707V300.008Z" fill="#DBDBDB"/>
<path d="M95.4578 281.22L95.296 281.576L136.706 300.396L136.868 300.04L95.4578 281.22Z" fill="#DBDBDB"/>
<path d="M136.714 281.186L95.3132 300.027L95.4751 300.383L136.876 281.542L136.714 281.186Z" fill="#DBDBDB"/>
<path d="M190.461 300.399H148.651V281.183H190.461V300.399ZM149.011 300.008H190.039V281.574H149.042L149.011 300.008Z" fill="#DBDBDB"/>
<path d="M148.927 281.225L148.765 281.581L190.175 300.401L190.337 300.045L148.927 281.225Z" fill="#DBDBDB"/>
<path d="M190.176 281.194L148.776 300.035L148.938 300.391L190.338 281.55L190.176 281.194Z" fill="#DBDBDB"/>
<path d="M42.7488 135.762H100.412V83.5893H42.7488L42.7488 135.762Z" fill="#EBEBEB"/>
<path d="M50.1941 94.9921C49.9344 96.2923 50.0999 97.6416 50.6661 98.8405C51.2324 100.039 52.1693 101.024 53.3384 101.65C54.5075 102.275 55.8467 102.508 57.1583 102.314C58.4699 102.119 59.6842 101.508 60.6218 100.571C61.5593 99.6333 62.1704 98.419 62.3647 97.1075C62.559 95.7959 62.3262 94.4566 61.7007 93.2875C61.0753 92.1184 60.0903 91.1815 58.8914 90.6153C57.6925 90.0491 56.3432 89.8835 55.043 90.1432C53.8462 90.3822 52.747 90.9702 51.8841 91.8332C51.0211 92.6961 50.4331 93.7953 50.1941 94.9921Z" fill="#DBDBDB"/>
<path d="M58.9769 124.516H100.412L79.6944 96.439L58.9769 124.516Z" fill="#C7C7C7"/>
<path d="M42.7486 124.547H76.957L59.8528 106.254L42.7486 124.547Z" fill="#DBDBDB"/>
<path d="M100.412 124.516H42.7486V135.754H100.412V124.516Z" fill="#DBDBDB"/>
<path d="M147.024 83.6285H108.389V86.882H147.024V83.6285Z" fill="#A6A6A6"/>
<path d="M220.204 91.1755H108.389V94.429H220.204V91.1755Z" fill="#EBEBEB"/>
<path d="M220.204 98.3237H108.389V101.577H220.204V98.3237Z" fill="#EBEBEB"/>
<path d="M220.204 105.48H108.389V108.733H220.204V105.48Z" fill="#EBEBEB"/>
<path d="M220.204 112.628H108.389V115.882H220.204V112.628Z" fill="#EBEBEB"/>
<path d="M220.204 119.784H108.389V123.038H220.204V119.784Z" fill="#EBEBEB"/>
<path d="M205.133 143.114H166.498V146.367H205.133V143.114Z" fill="#A6A6A6"/>
<path d="M220.212 150.653H166.498V153.907H220.212V150.653Z" fill="#EBEBEB"/>
<path d="M220.212 157.809H166.498V161.063H220.212V157.809Z" fill="#EBEBEB"/>
<path d="M220.212 164.957H166.498V168.211H220.212V164.957Z" fill="#EBEBEB"/>
<path d="M220.212 172.114H166.498V175.367H220.212V172.114Z" fill="#EBEBEB"/>
<path d="M220.212 179.262H166.498V182.515H220.212V179.262Z" fill="#EBEBEB"/>
<path d="M220.204 126.885H108.389V135.754H220.204V126.885Z" fill="#AD6359"/>
<path d="M297.677 98.3237H227.399V275.137H297.677V98.3237Z" fill="white"/>
<path d="M297.873 275.333H227.203V98.1282H297.873V275.333ZM227.594 274.942H297.482V98.5192H227.594V274.942Z" fill="#DBDBDB"/>
<path d="M297.594 98.2805L227.087 275.008L227.45 275.153L297.957 98.4255L297.594 98.2805Z" fill="#DBDBDB"/>
<path d="M227.582 98.2322L227.219 98.3767L297.51 275.19L297.874 275.046L227.582 98.2322Z" fill="#DBDBDB"/>
<path d="M297.677 83.6285H227.399V98.3239H297.677V83.6285Z" fill="#AD6359"/>
<path d="M126.596 274.191V225.991H10.7849V274.191H126.596Z" fill="white"/>
<path d="M126.792 274.371H10.5894V225.796H126.792V274.371ZM10.9804 273.98H126.4V226.187H10.9804V273.98Z" fill="#DBDBDB"/>
<path d="M126.518 274.371L10.7067 226.171L10.8553 225.812L126.666 274.011L126.518 274.371Z" fill="#DBDBDB"/>
<path d="M10.8553 274.371L10.7067 274.011L126.518 225.812L126.666 226.171L10.8553 274.371Z" fill="#DBDBDB"/>
<path d="M328.327 230.895V182.742H234.586V230.895H328.327Z" fill="white"/>
<path d="M328.523 231.091H234.391V182.547H328.523V231.091ZM234.782 230.699H328.131V182.938H234.782V230.699Z" fill="#DBDBDB"/>
<path d="M240.256 224.63H279.634V188.999H240.256V224.63Z" fill="#EBEBEB"/>
<path d="M245.34 196.796C245.164 197.683 245.278 198.603 245.665 199.42C246.052 200.237 246.692 200.908 247.489 201.334C248.287 201.759 249.2 201.918 250.094 201.785C250.989 201.652 251.816 201.235 252.456 200.596C253.095 199.957 253.512 199.129 253.645 198.234C253.778 197.34 253.619 196.427 253.193 195.629C252.768 194.832 252.097 194.193 251.28 193.805C250.463 193.418 249.543 193.304 248.656 193.48C247.837 193.643 247.086 194.045 246.495 194.635C245.905 195.226 245.503 195.977 245.34 196.796Z" fill="#DBDBDB"/>
<path d="M251.339 216.95H279.634L265.487 197.781L251.339 216.95Z" fill="#C7C7C7"/>
<path d="M240.256 216.974H263.617L251.933 204.484L240.256 216.974Z" fill="#DBDBDB"/>
<path d="M279.634 216.95H240.256V224.631H279.634V216.95Z" fill="#DBDBDB"/>
<path d="M319.771 188.999H286.227V191.439H319.771V188.999Z" fill="#EBEBEB"/>
<path d="M319.771 194.051H286.227V196.491H319.771V194.051Z" fill="#EBEBEB"/>
<path d="M319.771 199.103H286.227V201.543H319.771V199.103Z" fill="#EBEBEB"/>
<path d="M319.771 204.156H286.227V206.596H319.771V204.156Z" fill="#EBEBEB"/>
<path d="M319.771 209.208H286.227V211.648H319.771V209.208Z" fill="#EBEBEB"/>
<path d="M190.508 284.538C190.508 284.538 190.508 316.166 190.508 316.189C190.508 322.235 190.453 327.537 190.156 330.267C190.16 330.282 190.16 330.298 190.156 330.314C190.158 330.962 190.008 331.603 189.718 332.183C189.721 332.196 189.721 332.209 189.718 332.222C187.927 333.45 139.602 335.1 137.897 334.568C136.192 334.036 137.506 329.164 139.328 327.6C141.151 326.036 159.381 317.135 159.381 317.135L159.686 285.524L190.508 284.538Z" fill="#AD6359"/>
<path d="M190.508 309.682C190.508 309.682 190.508 316.158 190.508 316.181C190.508 322.227 190.453 327.529 190.156 330.259C190.16 330.274 190.16 330.29 190.156 330.305C190.087 330.944 189.94 331.572 189.718 332.175C189.721 332.187 189.721 332.201 189.718 332.214C187.927 333.442 139.602 335.092 137.897 334.56C136.192 334.028 137.506 329.156 139.328 327.592C141.151 326.027 159.381 317.127 159.381 317.127L159.295 310.534L190.508 309.682Z" fill="white"/>
<path d="M137.85 334.591C139.563 335.108 187.904 333.45 189.679 332.245C190.375 331.784 190.539 324.729 190.461 316.205V315.931L159.311 316.603V317.135C159.311 317.135 141.127 326.067 139.289 327.631C137.451 329.195 136.145 334.091 137.85 334.591Z" fill="#AD6359"/>
<path d="M138.335 332.699C146.477 332.222 179.348 331.064 187.427 331.205C187.497 331.205 187.497 331.252 187.427 331.26C179.371 331.909 146.492 332.824 138.343 332.824C138.171 332.839 138.163 332.714 138.335 332.699Z" fill="#263238"/>
<path d="M156.722 317.338C159.913 316.634 163.847 316.994 166.373 319.192C166.474 319.278 166.373 319.411 166.248 319.387C163.151 318.501 159.968 317.95 156.753 317.745C156.699 317.749 156.646 317.732 156.605 317.697C156.564 317.661 156.538 317.611 156.534 317.557C156.53 317.503 156.547 317.45 156.583 317.409C156.618 317.368 156.668 317.342 156.722 317.338Z" fill="#263238"/>
<path d="M154.462 318.817C157.645 318.105 161.579 318.465 164.105 320.663C164.206 320.749 164.105 320.889 163.98 320.858C160.882 319.978 157.699 319.43 154.485 319.224C154.431 319.227 154.378 319.208 154.338 319.172C154.298 319.136 154.273 319.086 154.27 319.032C154.267 318.978 154.285 318.925 154.321 318.885C154.357 318.844 154.408 318.82 154.462 318.817Z" fill="#263238"/>
<path d="M152.194 320.287C155.377 319.583 159.318 319.935 161.845 322.141C161.938 322.227 161.845 322.36 161.712 322.336C158.615 321.449 155.432 320.899 152.217 320.694C152.163 320.697 152.11 320.678 152.07 320.643C152.03 320.607 152.005 320.556 152.002 320.502C151.999 320.448 152.017 320.395 152.053 320.355C152.089 320.315 152.14 320.29 152.194 320.287Z" fill="#263238"/>
<path d="M193.284 167.264L193.253 169.36L192.072 261.795L192.064 262.147L191.361 317.511L157.535 316.838L164.066 167.374L164.152 165.379L164.488 148.041H193.058L193.284 167.264Z" fill="#455A64"/>
<path d="M158.951 311.191C164.23 311.144 162.721 311.082 168 311.097C170.581 311.097 187.552 311.16 189.976 311.59C189.991 311.59 190.005 311.596 190.015 311.606C190.025 311.616 190.031 311.63 190.031 311.645C190.031 311.659 190.025 311.673 190.015 311.684C190.005 311.694 189.991 311.7 189.976 311.7C187.552 312.067 170.573 311.7 167.992 311.661C162.713 311.543 164.23 311.52 158.951 311.348C158.93 311.348 158.91 311.339 158.896 311.325C158.881 311.31 158.873 311.29 158.873 311.269C158.873 311.249 158.881 311.229 158.896 311.214C158.91 311.2 158.93 311.191 158.951 311.191Z" fill="#263238"/>
<path d="M185.628 292.421C185.69 287.364 185.771 282.304 185.87 277.241C186.068 267.126 186.256 257.011 186.433 246.896C186.809 226.765 187.132 206.635 187.403 186.504C187.575 175.148 187.575 163.823 187.865 152.436H187.911C188.099 162.548 187.982 172.676 187.966 182.789C187.951 192.901 187.904 203.029 187.81 213.149C187.614 233.28 187.333 253.411 186.856 273.542C186.723 279.22 186.582 284.898 186.386 290.568C186.191 296.238 186.066 301.932 185.667 307.594C185.667 307.613 185.659 307.63 185.646 307.644C185.633 307.657 185.615 307.664 185.596 307.664C185.578 307.664 185.56 307.657 185.547 307.644C185.534 307.63 185.526 307.613 185.526 307.594C185.432 302.526 185.557 297.474 185.628 292.421Z" fill="#263238"/>
<path d="M193.277 167.272L192.072 261.795L169.4 148.041H193.05L193.277 167.272Z" fill="#263238"/>
<path d="M242.243 268.708C242.243 268.708 258.565 295.229 258.573 295.252C261.224 300.688 263.453 305.498 264.368 308.094C264.372 308.11 264.372 308.126 264.368 308.141C264.654 308.725 264.796 309.368 264.783 310.018C264.786 310.034 264.786 310.05 264.783 310.065C263.696 311.95 220.869 334.396 219.109 334.677C217.349 334.959 216.418 329.985 217.38 327.772C218.342 325.558 230.911 309.643 230.911 309.643L214.917 282.974L242.243 268.708Z" fill="#AD6359"/>
<path d="M264.798 310.018C264.802 310.034 264.802 310.05 264.798 310.065C263.711 311.95 220.884 334.396 219.125 334.677C217.365 334.959 216.434 329.985 217.396 327.772C218.358 325.558 230.926 309.643 230.926 309.643L228.056 304.872C235.056 301.142 247.78 294.588 255.679 290.529L258.573 295.221C261.224 300.657 263.453 305.467 264.368 308.063C264.372 308.079 264.372 308.095 264.368 308.11C264.665 308.702 264.812 309.357 264.798 310.018Z" fill="white"/>
<path d="M219.117 334.678C220.876 334.396 263.696 311.95 264.791 310.065C265.213 309.354 262.303 302.917 258.573 295.253L258.456 295.01L230.66 309.182L230.918 309.651C230.918 309.651 218.405 325.566 217.396 327.772C216.387 329.977 217.357 334.967 219.117 334.678Z" fill="#AD6359"/>
<path d="M218.734 332.761C225.858 328.804 254.975 313.499 262.319 310.128C262.382 310.128 262.397 310.128 262.319 310.175C255.343 314.25 226.101 329.32 218.773 332.855C218.64 332.957 218.585 332.847 218.734 332.761Z" fill="#263238"/>
<path d="M228.643 310.949C231.208 308.931 234.899 307.547 238.137 308.431C238.262 308.431 238.215 308.642 238.137 308.658C234.962 309.205 231.855 310.091 228.869 311.301C228.823 311.331 228.766 311.341 228.712 311.33C228.657 311.318 228.61 311.285 228.58 311.238C228.55 311.192 228.54 311.135 228.551 311.081C228.563 311.027 228.596 310.979 228.643 310.949Z" fill="#263238"/>
<path d="M227.235 313.256C229.8 311.238 233.491 309.854 236.737 310.738C236.862 310.777 236.807 310.949 236.737 310.973C233.55 311.517 230.43 312.401 227.43 313.608C227.385 313.626 227.334 313.626 227.288 313.609C227.242 313.593 227.204 313.56 227.18 313.517C227.156 313.474 227.149 313.424 227.159 313.376C227.169 313.328 227.196 313.286 227.235 313.256Z" fill="#263238"/>
<path d="M225.866 315.571C228.431 313.545 232.123 312.161 235.361 313.053C235.486 313.053 235.439 313.264 235.361 313.279C232.188 313.827 229.084 314.713 226.101 315.923C226.054 315.954 225.997 315.965 225.942 315.954C225.887 315.943 225.839 315.911 225.807 315.864C225.776 315.818 225.765 315.76 225.776 315.705C225.787 315.65 225.819 315.602 225.866 315.571Z" fill="#263238"/>
<path d="M167.39 148.017C167.515 148.612 169.517 157.879 171.582 165.833C173.091 171.652 174.64 176.782 175.492 177.291C176.345 177.799 181.397 180.059 183.047 180.747C183.047 180.747 194.082 235.822 199.901 252.903C205.282 268.662 227.516 310.777 227.516 310.777L259.785 294.47C259.785 294.47 234.586 251.722 231.935 244.049C227.829 232.162 211.022 172.88 211.022 172.88C211.022 172.88 213.9 157.754 206.439 147.962L167.39 148.017Z" fill="#455A64"/>
<path d="M228.04 304.512C232.655 301.939 231.294 302.612 235.931 300.086C238.2 298.85 253.137 290.748 255.445 289.973C255.499 289.973 255.538 290.036 255.499 290.067C253.552 291.553 238.489 299.397 236.197 300.586C231.505 303.019 232.827 302.268 228.111 304.653C228.092 304.662 228.07 304.664 228.051 304.657C228.031 304.651 228.014 304.637 228.005 304.618C227.996 304.599 227.994 304.578 228.001 304.558C228.007 304.538 228.022 304.522 228.04 304.512Z" fill="#263238"/>
<path d="M204.21 169.071C203.326 168.844 202.38 168.774 201.481 168.633C200.753 168.516 200.026 168.39 199.306 168.226C197.925 167.98 196.616 167.43 195.474 166.615C194.328 165.562 193.472 164.231 192.987 162.752C192.627 161.907 192.26 161.078 191.884 160.241L191.329 159.029C191.076 158.56 190.848 158.077 190.649 157.582C190.649 157.512 190.508 157.582 190.539 157.582C190.661 157.925 190.763 158.275 190.844 158.63C190.969 159.029 191.087 159.412 191.212 159.842C191.431 160.57 191.65 161.289 191.892 162.009C192.257 163.335 192.782 164.611 193.456 165.81C194.794 167.929 197.171 168.782 199.557 169.087C200.237 169.173 200.925 169.219 201.614 169.259C202.477 169.337 203.346 169.337 204.21 169.259C204.225 169.248 204.237 169.234 204.245 169.217C204.253 169.201 204.257 169.183 204.257 169.165C204.257 169.147 204.253 169.129 204.245 169.112C204.237 169.096 204.225 169.082 204.21 169.071Z" fill="#263238"/>
<path d="M172.927 176.016C176.427 177.285 179.81 178.856 183.039 180.708C183.062 180.724 183.079 180.747 183.086 180.773C183.094 180.8 183.092 180.828 183.081 180.853C183.07 180.879 183.05 180.899 183.025 180.911C183 180.923 182.972 180.926 182.945 180.92C179.535 179.457 176.063 178.057 172.739 176.407C172.703 176.374 172.679 176.331 172.67 176.283C172.661 176.235 172.667 176.186 172.688 176.142C172.709 176.098 172.744 176.062 172.787 176.04C172.83 176.017 172.879 176.009 172.927 176.016Z" fill="#263238"/>
<path d="M171.902 152.678C171.902 152.561 172.113 152.538 172.113 152.678C172.113 156.722 172.348 160.28 172.684 164.066C172.841 165.817 174.248 175.515 177.299 174.811C177.807 174.694 178.081 174.186 178.151 173.419C178.135 172.416 177.999 171.418 177.744 170.447C177.408 168.414 177.134 166.381 176.962 164.331C176.605 160.513 176.647 156.668 177.087 152.858C177.094 152.837 177.106 152.818 177.124 152.805C177.142 152.792 177.163 152.785 177.185 152.785C177.207 152.785 177.229 152.792 177.246 152.805C177.264 152.818 177.277 152.837 177.283 152.858C177.191 158.153 177.5 163.447 178.206 168.696C178.589 171.222 179.856 175.015 177.22 175.406C174.585 175.797 172.794 169.438 172.465 167.702C171.628 162.74 171.439 157.69 171.902 152.678Z" fill="#263238"/>
<path d="M177.22 175.046C177.49 175.701 177.718 176.372 177.901 177.056C178.098 177.583 178.193 178.143 178.182 178.706C178.182 178.816 178.034 178.824 177.979 178.753C177.663 178.257 177.423 177.717 177.267 177.15C177.04 176.524 176.79 175.906 176.579 175.281C176.56 175.199 176.572 175.113 176.612 175.04C176.652 174.966 176.717 174.909 176.796 174.88C176.875 174.852 176.961 174.853 177.04 174.883C177.118 174.914 177.182 174.972 177.22 175.046Z" fill="#263238"/>
<path d="M251.12 289.152C246.529 280.503 241.797 271.947 237.042 263.344C234.696 259.128 232.256 254.952 230.003 250.674C227.897 246.438 226.187 242.016 224.896 237.464C222.06 228.225 219.37 218.947 216.825 209.63C214.281 200.313 211.896 190.949 209.669 181.538C209.106 179.191 208.496 176.845 208.042 174.499C207.64 172.102 207.64 169.654 208.042 167.257C208.389 165.022 208.408 162.748 208.097 160.507C207.744 158.276 207.221 156.074 206.533 153.922C206.181 152.78 205.751 151.662 205.399 150.536C205.399 150.411 205.164 150.465 205.203 150.59C206.596 155.142 208.019 159.749 207.722 164.566C207.573 166.913 206.94 169.165 207.002 171.496C207.152 173.812 207.545 176.105 208.175 178.339C210.365 187.797 212.711 197.213 215.214 206.588C217.717 215.962 220.379 225.298 223.199 234.594C224.568 239.107 225.851 243.698 227.79 248.015C229.73 252.332 232.201 256.414 234.524 260.528C239.318 269.061 244.151 277.562 249.094 286.001C249.72 287.075 250.348 288.144 250.979 289.207C251.057 289.285 251.159 289.231 251.12 289.152Z" fill="#263238"/>
<path d="M177.635 104.596C176.603 110.853 169.509 139.242 158.63 146.312C148.463 152.921 121.872 158.63 115.874 156.816C113.262 156.034 109.86 136.646 112.214 134.917C114.568 133.189 145.843 129.763 147.908 129.06C149.973 128.356 162.064 112.855 168.821 104.69C174.945 97.2991 179.051 95.9774 177.635 104.596Z" fill="#AD6359"/>
<path d="M154.775 120.456L170.925 129.787C170.925 129.787 177.612 114.27 178.448 106.137C179.285 98.0028 177.166 95.7191 169.063 103.571C163.807 108.763 159.026 114.414 154.775 120.456Z" fill="#37474F"/>
<path d="M162.345 160.241C163.127 161.023 211.929 158.442 212.172 158.13C212.805 157.269 195.748 106.004 184.337 97.7917C181.874 96.0242 174.851 97.7135 173.154 99.4185C172.09 100.49 169.767 107.239 168.258 112.823C165.223 123.992 161.649 159.545 162.345 160.241Z" fill="#AD6359"/>
<path d="M192.057 108.655C191.837 108.158 191.695 107.63 191.634 107.091C191.63 107.057 191.63 107.023 191.634 106.989C191.783 107.255 191.939 107.529 192.104 107.771C192.125 108.066 192.109 108.363 192.057 108.655Z" fill="white"/>
<path d="M176.798 143.192C176.724 143.711 176.724 144.237 176.798 144.756C176.863 145.282 177.005 145.796 177.22 146.281C177.293 145.762 177.293 145.236 177.22 144.717C177.157 144.19 177.014 143.676 176.798 143.192Z" fill="white"/>
<path d="M190.438 134.581C190.365 135.1 190.365 135.626 190.438 136.145C190.503 136.671 190.645 137.185 190.86 137.67C190.933 137.151 190.933 136.625 190.86 136.106C190.787 135.581 190.645 135.068 190.438 134.581Z" fill="white"/>
<path d="M191.345 155.603C191.272 156.122 191.272 156.649 191.345 157.168C191.417 157.69 191.559 158.2 191.767 158.685C191.84 158.166 191.84 157.639 191.767 157.121C191.694 156.598 191.552 156.088 191.345 155.603Z" fill="white"/>
<path d="M206.197 146.492C206.124 147.011 206.124 147.537 206.197 148.056C206.268 148.579 206.41 149.089 206.619 149.574C206.751 148.51 206.6 147.431 206.181 146.445L206.197 146.492Z" fill="white"/>
<path d="M173.584 117.813C173.458 118.877 173.612 119.955 174.029 120.942C174.103 120.423 174.103 119.896 174.029 119.377C173.961 118.836 173.811 118.309 173.584 117.813Z" fill="white"/>
<path d="M173.584 101.577C173.458 102.641 173.612 103.719 174.029 104.705C174.102 104.187 174.102 103.66 174.029 103.141C173.961 102.6 173.811 102.073 173.584 101.577Z" fill="white"/>
<path d="M198.493 123.1C198.42 123.619 198.42 124.145 198.493 124.664C198.557 125.188 198.7 125.7 198.915 126.182C198.988 125.663 198.988 125.136 198.915 124.617C198.844 124.095 198.702 123.584 198.493 123.1Z" fill="white"/>
<path d="M184.275 113.801C184.794 113.875 185.32 113.875 185.839 113.801C186.365 113.737 186.879 113.594 187.364 113.379C186.845 113.306 186.319 113.306 185.8 113.379C185.275 113.45 184.762 113.592 184.275 113.801Z" fill="white"/>
<path d="M177.916 98.1201C178.435 98.1937 178.962 98.1937 179.481 98.1201C180.007 98.0557 180.521 97.9134 181.006 97.6978C180.487 97.6248 179.96 97.6248 179.442 97.6978C178.916 97.7688 178.403 97.9109 177.916 98.1201Z" fill="white"/>
<path d="M169.924 112.409C169.442 112.625 168.93 112.767 168.406 112.831H168.25C168.25 112.698 168.32 112.565 168.359 112.433C168.877 112.35 169.404 112.342 169.924 112.409Z" fill="white"/>
<path d="M171.488 128.903C172.007 128.976 172.533 128.976 173.052 128.903C173.576 128.839 174.087 128.696 174.569 128.481C174.05 128.407 173.524 128.407 173.005 128.481C172.481 128.546 171.97 128.688 171.488 128.903Z" fill="white"/>
<path d="M186.527 127.613C187.046 127.686 187.573 127.686 188.091 127.613C188.618 127.547 189.132 127.405 189.617 127.19C189.098 127.114 188.571 127.114 188.052 127.19C187.526 127.256 187.012 127.398 186.527 127.613Z" fill="white"/>
<path d="M182.719 152.014C183.237 152.087 183.764 152.087 184.283 152.014C184.809 151.948 185.323 151.806 185.808 151.591C185.289 151.519 184.762 151.519 184.244 151.591C183.719 151.664 183.206 151.806 182.719 152.014Z" fill="white"/>
<path d="M197.891 141.135C198.954 141.267 200.033 141.116 201.019 140.697C200.5 140.624 199.974 140.624 199.455 140.697C198.916 140.769 198.389 140.917 197.891 141.135Z" fill="white"/>
<path d="M166.091 158.294C166.61 158.367 167.137 158.367 167.656 158.294C168.179 158.23 168.691 158.087 169.173 157.872C168.654 157.799 168.127 157.799 167.609 157.872C167.086 157.943 166.576 158.085 166.091 158.294Z" fill="white"/>
<path d="M164.949 145.491C165.468 145.564 165.995 145.564 166.514 145.491C167.036 145.418 167.546 145.276 168.031 145.069C167.512 144.996 166.986 144.996 166.467 145.069C165.944 145.141 165.434 145.283 164.949 145.491Z" fill="white"/>
<path d="M184.642 102.883C184.223 103.205 183.852 103.584 183.54 104.01C183.215 104.429 182.952 104.893 182.758 105.386C183.177 105.062 183.548 104.68 183.86 104.252C184.183 103.834 184.446 103.373 184.642 102.883Z" fill="white"/>
<path d="M167.64 119.776C167.444 120.266 167.18 120.727 166.858 121.145C166.736 121.308 166.606 121.465 166.467 121.614C166.506 121.348 166.553 121.082 166.6 120.832C166.894 120.432 167.245 120.077 167.64 119.776Z" fill="white"/>
<path d="M193.715 117.954C193.295 118.278 192.924 118.66 192.612 119.088C192.284 119.502 192.02 119.963 191.83 120.457C192.249 120.135 192.62 119.756 192.933 119.33C193.257 118.911 193.52 118.447 193.715 117.954Z" fill="white"/>
<path d="M180.677 132.54C180.26 132.863 179.889 133.242 179.575 133.666C179.25 134.086 178.987 134.549 178.792 135.043C179.627 134.388 180.275 133.525 180.669 132.54H180.677Z" fill="white"/>
<path d="M172.684 150.277C172.265 150.599 171.894 150.978 171.582 151.404C171.257 151.823 170.994 152.287 170.8 152.78C171.219 152.456 171.59 152.074 171.902 151.646C172.228 151.23 172.491 150.769 172.684 150.277Z" fill="white"/>
<path d="M193.98 145.538C193.561 145.862 193.19 146.244 192.878 146.672C192.555 147.09 192.292 147.551 192.096 148.041C192.515 147.719 192.886 147.34 193.198 146.914C193.523 146.495 193.786 146.031 193.98 145.538Z" fill="white"/>
<path d="M209.27 154.352C208.436 155.009 207.787 155.872 207.385 156.855C207.805 156.534 208.176 156.155 208.488 155.729C208.812 155.309 209.075 154.845 209.27 154.352Z" fill="white"/>
<path d="M165.716 132.399C165.444 132.3 165.182 132.174 164.934 132.024L164.981 131.633C165.253 131.86 165.5 132.117 165.716 132.399Z" fill="white"/>
<path d="M199.604 132.97C199.28 132.551 198.898 132.179 198.47 131.867C198.052 131.545 197.591 131.282 197.101 131.085C197.422 131.504 197.801 131.876 198.227 132.188C198.647 132.512 199.11 132.775 199.604 132.97Z" fill="white"/>
<path d="M200.839 154.157C200.18 153.326 199.318 152.68 198.337 152.28C198.991 153.115 199.855 153.762 200.839 154.157Z" fill="white"/>
<path d="M178.542 112.206C178.219 111.788 177.84 111.417 177.416 111.103C176.998 110.776 176.534 110.512 176.039 110.321C176.361 110.74 176.74 111.111 177.166 111.424C177.585 111.748 178.049 112.011 178.542 112.206Z" fill="white"/>
<path d="M185.823 142.793C185.497 142.375 185.116 142.004 184.689 141.69C184.271 141.368 183.811 141.104 183.321 140.908C183.642 141.327 184.021 141.698 184.447 142.011C184.867 142.335 185.33 142.598 185.823 142.793Z" fill="white"/>
<path d="M163.894 153.719C163.446 153.541 163.023 153.307 162.635 153.023C162.635 152.866 162.635 152.71 162.635 152.553L162.728 152.616C163.168 152.925 163.561 153.297 163.894 153.719Z" fill="white"/>
<path d="M182.961 122.834C182.64 122.415 182.261 122.044 181.835 121.731C181.418 121.403 180.954 121.139 180.458 120.949C180.779 121.368 181.159 121.74 181.584 122.052C182.004 122.376 182.468 122.64 182.961 122.834Z" fill="white"/>
<path d="M172.074 138.867C171.753 138.448 171.374 138.076 170.948 137.764C170.53 137.437 170.066 137.174 169.572 136.982C169.889 137.405 170.268 137.777 170.698 138.085C171.116 138.412 171.58 138.675 172.074 138.867Z" fill="white"/>
<path d="M179.551 158.482C179.23 158.062 178.851 157.691 178.425 157.379C178.007 157.052 177.543 156.788 177.048 156.597C177.374 157.014 177.756 157.385 178.182 157.699C178.6 158.022 179.061 158.285 179.551 158.482Z" fill="white"/>
<path d="M174.155 97.2288C172.223 98.6601 170.737 106.082 175.164 107.091C179.59 108.1 183.688 101.108 184.298 98.8478C184.908 96.5875 178.339 94.124 174.155 97.2288Z" fill="#37474F"/>
<path d="M175.484 106.074C178.229 106.426 182.39 101.851 183.86 98.3472C183.962 98.1048 183.36 95.7429 182.765 92.8726C182.414 91.1129 182.062 89.1421 181.874 87.3198L170.737 91.2928C171.629 93.5031 172.246 95.8145 172.575 98.1752C172.6 98.4352 172.6 98.6972 172.575 98.9573C172.575 98.9964 172.575 99.0354 172.575 99.0824C172.489 100.467 172.833 105.73 175.484 106.074Z" fill="#AD6359"/>
<path d="M181.342 87.4525C181.225 89.7988 180.349 98.0967 173.748 98.9413C173.359 98.9879 172.967 99.0088 172.575 99.0039C172.571 98.9597 172.571 98.9152 172.575 98.871C172.6 98.6109 172.6 98.3489 172.575 98.0889C172.245 95.7284 171.628 93.4172 170.737 91.2065L181.342 87.4525Z" fill="#263238"/>
<path d="M181.139 74.1573C182.891 78.0677 182.257 89.9866 179.715 92.9273C176.039 97.2366 169.267 98.4723 165.419 93.8736C161.688 89.4157 162.791 73.8679 165.693 71.0915C169.978 67.0559 178.558 68.448 181.139 74.1573Z" fill="#AD6359"/>
<path d="M171.801 82.7601C171.801 82.7601 171.855 82.8071 171.855 82.8383C171.793 83.6204 171.855 84.5746 172.567 84.8718C172.567 84.8718 172.567 84.9265 172.567 84.9187C171.675 84.7466 171.605 83.5422 171.801 82.7601Z" fill="#263238"/>
<path d="M172.559 81.978C173.857 81.978 173.834 84.5433 172.63 84.5824C171.425 84.6215 171.472 81.978 172.559 81.978Z" fill="#263238"/>
<path d="M167.163 82.7601C167.163 82.7601 167.1 82.7992 167.1 82.8305C167.1 83.6126 167.006 84.5667 166.271 84.8248V84.8718C167.21 84.731 167.311 83.4953 167.163 82.7601Z" fill="#263238"/>
<path d="M166.428 81.8919C165.129 81.7824 165.004 84.3789 166.209 84.4806C167.413 84.5823 167.538 81.9779 166.428 81.8919Z" fill="#263238"/>
<path d="M173.592 80.7736C173.24 80.6798 172.927 80.5312 172.591 80.4061C172.219 80.3281 171.884 80.1303 171.636 79.843C171.577 79.7371 171.555 79.6148 171.572 79.4948C171.588 79.3747 171.644 79.2636 171.73 79.1782C171.928 79.0366 172.159 78.9496 172.401 78.9263C172.642 78.9029 172.886 78.944 173.107 79.0452C173.584 79.1879 173.992 79.4992 174.256 79.9212C174.309 80.0222 174.331 80.1362 174.321 80.2496C174.311 80.363 174.268 80.4711 174.198 80.5609C174.128 80.6507 174.033 80.7185 173.926 80.7562C173.818 80.7939 173.702 80.8 173.592 80.7736Z" fill="#263238"/>
<path d="M165.458 80.5702C165.807 80.5044 166.151 80.4183 166.49 80.3121C166.869 80.2756 167.224 80.1131 167.499 79.8506C167.573 79.754 167.613 79.6358 167.613 79.5144C167.613 79.3929 167.573 79.2747 167.499 79.178C167.318 79.0166 167.097 78.9062 166.86 78.8581C166.622 78.81 166.376 78.826 166.146 78.9043C165.651 79.0021 165.211 79.2809 164.91 79.6864C164.856 79.7786 164.828 79.884 164.829 79.9911C164.83 80.0982 164.86 80.203 164.917 80.294C164.973 80.3851 165.053 80.459 165.149 80.5077C165.244 80.5563 165.351 80.578 165.458 80.5702Z" fill="#263238"/>
<path d="M169.337 88.9071C169.709 89.3172 170.18 89.6243 170.706 89.7987C170.993 89.8925 171.302 89.8925 171.589 89.7987C172.215 89.5876 172.184 89.0166 172.027 88.5083C171.945 88.2347 171.829 87.9721 171.683 87.7262C171.048 88.3615 170.226 88.7755 169.337 88.9071Z" fill="#263238"/>
<path d="M170.706 89.799C170.993 89.8927 171.302 89.8927 171.59 89.799C172.215 89.5878 172.184 89.0169 172.027 88.5085C171.695 88.5456 171.384 88.6927 171.145 88.9265C170.905 89.1603 170.751 89.4674 170.706 89.799Z" fill="#F392B9"/>
<path d="M181.287 84.559C178.276 84.4026 177.94 78.8967 177.94 78.8967C177.94 78.8967 172.802 77.8096 172.223 73.8757C172.223 73.8757 167.163 76.7851 163.362 75.2052C159.561 73.6254 160.57 69.2849 161.016 68.3698C161.461 67.4548 163.55 69.2927 163.55 69.2927C163.55 69.2927 163.909 66.8291 164.582 66.6101C165.255 66.3912 165.904 67.9162 165.904 67.9162C169.021 67.0711 172.248 66.6994 175.476 66.8135C180.012 67.1185 182.069 71.811 182.069 71.811C182.069 71.811 184.463 72.4367 185.198 74.1573C185.933 75.8778 183.203 84.6528 181.287 84.559Z" fill="#263238"/>
<path d="M172.317 73.1248C172.291 73.9223 172.413 74.7177 172.677 75.471C172.951 76.196 173.415 76.8337 174.022 77.3167C174.662 77.7642 175.377 78.0927 176.133 78.2865C176.509 78.3725 176.915 78.4351 177.299 78.5055C177.682 78.5759 178.081 78.5681 178.495 78.6228C178.096 78.6619 177.713 78.6697 177.283 78.6932C176.853 78.7167 176.501 78.6384 176.063 78.5759C175.241 78.4373 174.462 78.1108 173.787 77.6217C173.121 77.0966 172.635 76.378 172.395 75.5649C172.165 74.7709 172.138 73.9318 172.317 73.1248Z" fill="#263238"/>
<path d="M182.069 72.4287C181.84 71.1482 181.282 69.9491 180.45 68.9485C179.612 67.976 178.482 67.301 177.228 67.0245C176.92 66.9417 176.606 66.879 176.29 66.8368L175.328 66.7743C174.687 66.7743 174.045 66.8525 173.396 66.8994C172.747 66.9463 172.113 67.1027 171.48 67.267C170.846 67.4312 170.221 67.6111 169.579 67.7675C170.19 67.5251 170.807 67.3139 171.425 67.0793C172.043 66.8447 172.708 66.7586 173.349 66.6022C174.661 66.3409 176.011 66.3409 177.322 66.6022C178.646 66.9139 179.827 67.6601 180.677 68.7217C181.508 69.787 181.993 71.0802 182.069 72.4287Z" fill="#263238"/>
<path d="M179.066 83.73C179.066 83.73 181.287 79.6318 183.125 80.4139C184.963 81.196 183.548 86.8739 181.616 87.8437C181.377 87.985 181.112 88.077 180.837 88.1141C180.563 88.1512 180.283 88.1328 180.015 88.0599C179.748 87.9869 179.497 87.861 179.279 87.6895C179.061 87.518 178.88 87.3045 178.746 87.0616L179.066 83.73Z" fill="#AD6359"/>
<path d="M182.687 82.0405C182.687 82.0405 182.687 82.0405 182.687 82.0953C181.334 82.8148 180.732 84.2069 180.341 85.6225C180.403 85.4592 180.501 85.3123 180.629 85.1933C180.757 85.0743 180.91 84.9864 181.077 84.9365C181.245 84.8865 181.421 84.8758 181.593 84.9053C181.765 84.9348 181.928 85.0035 182.069 85.1063C182.08 85.1063 182.09 85.1104 182.097 85.1178C182.104 85.1251 182.108 85.135 182.108 85.1454C182.108 85.1558 182.104 85.1657 182.097 85.1731C182.09 85.1804 182.08 85.1845 182.069 85.1845C181.812 85.1331 181.546 85.1626 181.306 85.2691C181.067 85.3755 180.866 85.5537 180.732 85.7789C180.51 86.1545 180.329 86.553 180.192 86.9677C180.138 87.1006 179.903 87.0615 179.934 86.9129V86.8738C179.637 85.1063 180.771 82.4316 182.687 82.0405Z" fill="#263238"/>
<path d="M224.662 104.313L109.904 123.826L122.825 199.818L237.583 180.305L224.662 104.313Z" fill="white"/>
<path d="M122.631 200.073V199.877L109.672 123.702L109.867 123.663L224.834 104.111L237.816 180.482L237.597 180.521L122.631 200.073ZM110.118 124.015L122.975 199.619L237.347 180.177L224.49 104.573L110.118 124.015Z" fill="#DBDBDB"/>
<path d="M186.762 149.847C187.208 152.425 186.879 155.077 185.817 157.467C184.755 159.858 183.007 161.88 180.795 163.277C178.583 164.673 176.007 165.382 173.392 165.314C170.777 165.245 168.241 164.402 166.105 162.891C163.97 161.381 162.33 159.27 161.395 156.827C160.459 154.384 160.27 151.718 160.851 149.168C161.431 146.617 162.755 144.296 164.656 142.498C166.557 140.701 168.948 139.508 171.527 139.07C174.976 138.485 178.516 139.29 181.371 141.311C184.227 143.331 186.165 146.4 186.762 149.847Z" fill="#AD6359"/>
<path d="M169.181 158.505L167.304 147.493L182.015 150.661L169.181 158.505Z" fill="white"/>
<path d="M236.569 174.371L121.81 193.884L122.82 199.82L237.578 180.307L236.569 174.371Z" fill="#EBEBEB"/>
<path d="M225.711 178.356L129.118 194.78L129.416 196.538L226.01 180.114L225.711 178.356Z" fill="#C7C7C7"/>
<path d="M126.793 194.157L123.038 194.796L123.676 198.551L127.431 197.912L126.793 194.157Z" fill="#C7C7C7"/>
<path d="M124.735 195.209L124.026 195.33L124.436 197.743L125.145 197.623L124.735 195.209Z" fill="#A6A6A6"/>
<path d="M126.041 194.966L125.331 195.087L125.742 197.5L126.451 197.38L126.041 194.966Z" fill="#A6A6A6"/>
<path d="M230.83 176.468L227.075 177.107L227.714 180.862L231.469 180.223L230.83 176.468Z" fill="#C7C7C7"/>
<path d="M228.616 178.308L227.883 178.433L228.038 179.342L228.771 179.218L228.616 178.308Z" fill="#A6A6A6"/>
<path d="M229.691 179.66L228.486 179.261L228.33 178.354L229.339 177.58L229.691 179.66Z" fill="#A6A6A6"/>
<path d="M229.941 177.838L230.082 177.635C230.348 177.826 230.528 178.115 230.584 178.438C230.639 178.761 230.566 179.094 230.379 179.363L230.176 179.222C230.253 179.116 230.307 178.996 230.337 178.868C230.367 178.741 230.37 178.608 230.348 178.479C230.327 178.351 230.28 178.227 230.21 178.117C230.14 178.007 230.049 177.912 229.941 177.838Z" fill="#A6A6A6"/>
<path d="M229.98 179.082L229.777 178.957C229.855 178.845 229.886 178.708 229.863 178.573C229.851 178.507 229.826 178.444 229.79 178.388C229.754 178.332 229.707 178.283 229.652 178.245L229.792 178.049C229.946 178.168 230.05 178.339 230.085 178.529C230.12 178.72 230.082 178.917 229.98 179.082Z" fill="#A6A6A6"/>
<path d="M235.301 175.714L231.546 176.352L232.185 180.107L235.939 179.469L235.301 175.714Z" fill="#C7C7C7"/>
<path d="M233.801 176.584L232.251 176.847L232.515 178.397L234.064 178.133L233.801 176.584Z" fill="#A6A6A6"/>
<path d="M236.569 177.688L235.013 177.955L235.28 179.511L236.837 179.244L236.569 177.688Z" fill="white"/>
<path d="M147.368 192.588C147.415 192.894 147.536 193.184 147.72 193.433L129.419 196.561L129.122 194.794L147.423 191.666C147.333 191.965 147.314 192.281 147.368 192.588Z" fill="#A6A6A6"/>
<path d="M151.38 191.908C151.436 192.212 151.42 192.526 151.333 192.823C151.224 193.189 151.015 193.517 150.729 193.77C150.443 194.023 150.091 194.191 149.714 194.254C149.338 194.32 148.951 194.278 148.598 194.132C148.245 193.987 147.941 193.744 147.72 193.433C147.536 193.184 147.415 192.894 147.368 192.588C147.28 192.058 147.404 191.513 147.715 191.074C148.025 190.635 148.496 190.336 149.026 190.242C149.29 190.196 149.56 190.203 149.821 190.262C150.082 190.321 150.328 190.431 150.547 190.586C150.765 190.741 150.95 190.937 151.092 191.164C151.234 191.391 151.329 191.644 151.373 191.908H151.38Z" fill="#A6A6A6"/>
<path d="M193.019 101.82C198.493 105.026 222.456 119.925 225.342 132.571C228.04 144.412 217.631 162.439 214.909 168.093C213.728 170.565 196.874 163.659 196.053 160.851C195.232 158.044 205.391 138.875 205.438 136.693C205.485 134.511 193.746 118.4 187.544 109.82C181.647 101.71 182.765 95.8288 193.019 101.82Z" fill="#AD6359"/>
<path d="M190.477 176.829C188.834 179.832 184.22 182.429 185.972 184.251C187.536 185.87 190.594 183.758 190.594 183.758C190.594 183.758 187.935 187.247 190.14 188.506C192.346 189.765 195.193 186.777 195.193 186.777C195.193 186.777 192.846 189.577 195.138 190.688C197.429 191.798 200.315 189.687 200.315 189.687C200.315 189.687 200.198 190.946 202.161 191.001C204.969 191.071 208.84 186.402 210.287 183.485C211.734 180.568 214.87 168.797 215.316 166.991L196.647 157.551C196.647 157.551 191.681 161.555 189.413 163.893C187.145 166.232 181.803 176.016 184.142 177.51C186.48 179.003 190.133 172.035 191.4 170.51C192.667 168.985 193.23 169.04 193.191 170.166C193.167 170.893 191.196 175.5 190.477 176.829Z" fill="#AD6359"/>
<path d="M190.672 183.594C194.692 180.348 195.897 178.237 197.547 173.427C197.547 173.333 197.719 173.357 197.695 173.427C196.514 178.292 195.388 181.162 190.813 183.774C190.61 183.923 190.492 183.743 190.672 183.594Z" fill="#263238"/>
<path d="M194.989 186.871C198.9 183.141 200.198 180.857 202.294 175.922C202.294 175.86 202.443 175.922 202.419 175.969C200.769 180.967 199.58 183.79 195.208 187.02C195.013 187.184 194.81 187.043 194.989 186.871Z" fill="#263238"/>
<path d="M200.323 189.609C203.827 185.698 205.383 183.282 206.807 178.245C206.813 178.22 206.829 178.199 206.851 178.186C206.873 178.172 206.899 178.168 206.924 178.175C206.949 178.181 206.97 178.197 206.983 178.219C206.997 178.241 207.001 178.267 206.994 178.292C206.048 183.563 204.124 186.621 200.456 189.703C200.206 189.906 200.104 189.851 200.323 189.609Z" fill="#263238"/>
<path d="M198.931 127.339L212.227 114.286C212.227 114.286 199.08 103.673 191.47 100.678C183.86 97.6822 181.092 99.1134 186.472 109.046C190.075 115.501 194.244 121.622 198.931 127.339Z" fill="#37474F"/>
<path d="M109.453 130.365C108.217 134.002 104.604 138.773 104.596 141.628C104.569 142.332 104.77 143.027 105.169 143.608C105.567 144.19 106.143 144.628 106.809 144.858C106.809 144.858 104.166 146.586 104.588 149.182C104.799 150.512 107.122 151.341 107.122 151.341C107.122 151.341 105.065 152.819 105.558 155.103C105.972 156.925 108.241 157.449 108.241 157.449C108.241 157.449 106.927 159.795 107.935 161.508C109.992 164.996 125.923 163.119 127.66 156.972C128.442 154.11 124.625 154.774 124.625 154.774C124.625 154.774 129.943 152.475 129.638 149.19C129.333 145.906 124.375 147.071 124.375 147.071C124.375 147.071 129.513 144.795 128.848 141.416C128.168 137.905 123.374 139.923 123.374 139.923C123.374 139.923 126.627 137.107 125.532 134.636C123.726 130.561 115.616 137.24 112.018 136.826L111.025 130.467L109.453 130.365Z" fill="#AD6359"/>
<path d="M106.63 136.169C107.255 132.563 101.429 128.52 101.538 124.993C101.679 120.222 109.711 123.898 111.064 130.467L112.073 136.833L106.63 136.169Z" fill="#AD6359"/>
<path d="M108.608 157.621C108.553 157.621 108.546 157.7 108.608 157.7C114.2 158.406 119.873 157.394 124.876 154.798C125.032 154.712 124.954 154.415 124.766 154.477C119.561 156.303 114.118 157.362 108.608 157.621Z" fill="#263238"/>
<path d="M107.052 151.38C107.04 151.385 107.029 151.393 107.022 151.403C107.015 151.414 107.011 151.426 107.011 151.439C107.011 151.452 107.015 151.464 107.022 151.475C107.029 151.485 107.04 151.493 107.052 151.498C112.597 152.147 119.456 150.911 124.594 147.22C124.774 147.094 124.805 146.805 124.594 146.938C120.996 149.128 112.221 151.216 107.052 151.38Z" fill="#263238"/>
<path d="M123.718 139.571C118.65 142.918 113.019 144.302 107.036 144.889C106.958 144.889 106.974 145.006 107.036 145.022C110.039 145.53 113.817 144.756 116.71 143.903C119.405 143.16 121.858 141.725 123.827 139.743C123.913 139.665 123.827 139.492 123.718 139.571Z" fill="#263238"/>
<path d="M313.632 264.595C304.872 276.459 295.738 290.232 293.509 305.115C293.509 305.334 293.845 305.412 293.9 305.185C294.906 301.128 296.2 297.148 297.771 293.274C303.527 291.71 309.182 290.388 312.208 284.671C315.337 278.79 314.906 271.125 314.32 264.728C314.242 264.384 313.811 264.368 313.632 264.595Z" fill="#AD6359"/>
<path d="M297.857 293.141C301.767 284.303 306.843 275.435 313.272 268.177C313.311 268.122 313.381 268.177 313.342 268.247C309.135 273.417 305.936 279.048 302.815 284.781C305.717 281.84 308.9 279.196 311.645 276.076C311.7 276.013 311.786 276.076 311.739 276.162C309.009 279.439 306.03 282.997 302.471 285.422C301.517 287.184 300.555 288.946 299.585 290.709C299.82 290.576 300.07 290.451 300.313 290.333C300.352 290.333 300.391 290.372 300.352 290.396C300.078 290.537 299.812 290.677 299.531 290.795C299.069 291.632 298.616 292.468 298.139 293.305C298.029 293.509 297.771 293.344 297.857 293.141Z" fill="#263238"/>
<path d="M300.782 290.083C303.137 288.761 305.386 287.258 307.508 285.586C307.57 285.586 307.649 285.625 307.594 285.672C305.54 287.45 303.289 288.985 300.884 290.247C300.774 290.302 300.68 290.138 300.782 290.083Z" fill="#263238"/>
<path d="M292.5 302.901C292.5 303.081 292.82 303.073 292.812 302.901C292.859 297.998 292.812 293.078 292.891 288.151C294.15 285.625 296.848 284.241 298.717 282.192C300.067 280.708 301.24 279.073 302.213 277.319C304.47 273.137 305.849 268.539 306.264 263.805C306.788 258.565 304.794 241.265 302.588 241.867C301.439 242.18 297.732 250.744 296.746 253.599C295.152 258.27 293.984 263.076 293.258 267.958C291.467 279.454 291.616 291.295 292.5 302.901Z" fill="#AD6359"/>
<path d="M292.46 281.762C292.726 275.567 294.126 269.303 295.432 263.289C296.84 256.813 298.49 250.713 301.822 244.933C301.828 244.922 301.836 244.913 301.846 244.905C301.856 244.898 301.867 244.892 301.879 244.889C301.891 244.886 301.904 244.885 301.916 244.886C301.928 244.888 301.94 244.892 301.951 244.898C301.962 244.904 301.971 244.912 301.979 244.922C301.987 244.932 301.992 244.943 301.995 244.955C301.999 244.967 302 244.98 301.998 244.992C301.996 245.004 301.992 245.016 301.986 245.027C299.766 249.518 298.045 254.238 296.856 259.105C297.075 258.753 297.349 258.424 297.583 258.096C297.669 257.963 297.888 258.096 297.794 258.221C297.499 258.745 297.15 259.238 296.754 259.691C296.748 259.694 296.741 259.695 296.735 259.695C296.728 259.695 296.721 259.694 296.715 259.691C295.565 264.321 294.744 269.076 294.032 273.769C294.087 273.714 294.142 273.643 294.189 273.589C294.196 273.578 294.207 273.571 294.22 273.569C294.232 273.567 294.245 273.57 294.255 273.577C294.266 273.584 294.273 273.595 294.275 273.608C294.277 273.62 294.274 273.633 294.267 273.644C294.181 273.8 294.079 273.956 293.986 274.113C293.626 276.514 293.297 278.907 292.969 281.277C297.239 277.624 300.884 273.323 302.94 268.02C302.94 268.02 302.995 268.02 302.98 268.02C300.97 273.495 297.786 278.406 292.898 281.738C292.812 282.379 292.719 283.021 292.633 283.654C292.633 283.787 292.398 283.756 292.398 283.654C292.398 283.091 292.398 282.528 292.453 281.957C292.44 281.944 292.429 281.929 292.423 281.911C292.416 281.894 292.413 281.876 292.414 281.858C292.414 281.839 292.419 281.821 292.427 281.805C292.435 281.788 292.446 281.773 292.46 281.762Z" fill="#263238"/>
<path d="M294.47 272.807C297.806 268.077 300.719 263.063 303.175 257.822C303.175 257.767 303.3 257.822 303.277 257.869C301.267 263.219 298.451 268.638 294.635 272.932C294.618 272.954 294.594 272.968 294.566 272.972C294.539 272.975 294.512 272.968 294.49 272.952C294.468 272.935 294.454 272.91 294.45 272.883C294.447 272.856 294.454 272.829 294.47 272.807Z" fill="#263238"/>
<path d="M298.811 256.586C300.164 254.201 301.587 251.894 302.862 249.43C302.862 249.36 302.987 249.43 302.956 249.493C301.925 252.037 300.613 254.458 299.046 256.711C299.037 256.727 299.026 256.74 299.013 256.752C298.999 256.763 298.984 256.771 298.967 256.776C298.933 256.786 298.897 256.783 298.866 256.766C298.835 256.75 298.811 256.721 298.801 256.688C298.791 256.654 298.794 256.617 298.811 256.586Z" fill="#263238"/>
<path d="M298.279 257.626V257.673C298.279 257.673 298.256 257.626 298.279 257.626Z" fill="#263238"/>
<path d="M289.215 288.73C289.153 291.977 288.77 295.209 288.073 298.381C288.12 298.733 288.175 299.077 288.222 299.437C289.226 295.931 289.806 292.319 289.95 288.675C289.979 288.625 289.994 288.569 289.994 288.511C289.994 288.453 289.979 288.397 289.95 288.347C290.091 283.463 289.729 278.578 288.871 273.769C287.354 264.767 284.038 256.117 277.757 249.368C277.705 249.324 277.643 249.293 277.576 249.277C277.51 249.26 277.44 249.259 277.373 249.273C277.306 249.288 277.244 249.317 277.189 249.359C277.135 249.401 277.092 249.455 277.061 249.516C274.527 255.961 275.411 263.649 277.57 270.077C278.737 273.558 280.408 276.849 282.528 279.845C284.679 282.857 287.432 285.422 289.215 288.73Z" fill="#AD6359"/>
<path d="M278.477 252.371C284.428 262.03 288.566 273.487 289.074 284.898C289.074 285.101 288.746 285.156 288.714 284.945C288.574 283.92 288.417 282.904 288.253 281.895C285.789 279.548 283.263 277.046 281.496 274.074C281.496 274.019 281.543 273.957 281.582 274.003C283.627 276.511 285.818 278.895 288.143 281.144C287.713 278.626 287.213 276.139 286.579 273.691L286.11 273.135C286.008 273.018 286.18 272.838 286.29 272.963L286.431 273.12C285.588 269.767 284.544 266.468 283.302 263.242C281.785 261.435 280.096 259.871 278.993 257.689C278.993 257.642 278.993 257.595 279.071 257.65C279.955 258.894 280.815 260.145 281.824 261.302C282.223 261.764 282.661 262.194 283.075 262.64C281.727 259.136 280.12 255.737 278.266 252.473C278.267 252.449 278.274 252.425 278.287 252.405C278.301 252.385 278.319 252.369 278.341 252.359C278.362 252.348 278.387 252.344 278.411 252.346C278.434 252.348 278.457 252.357 278.477 252.371Z" fill="#263238"/>
<path d="M279.681 264.29C281.605 266.878 283.795 269.35 285.586 272.025C285.598 272.041 285.604 272.062 285.601 272.083C285.598 272.103 285.587 272.122 285.57 272.134C285.562 272.14 285.553 272.145 285.543 272.147C285.533 272.15 285.523 272.15 285.512 272.149C285.492 272.146 285.473 272.135 285.461 272.118C283.177 269.787 281.191 267.181 279.548 264.36C279.494 264.282 279.619 264.204 279.681 264.29Z" fill="#263238"/>
<path d="M285.852 272.627L285.938 272.705C285.949 272.718 285.955 272.734 285.955 272.751C285.954 272.768 285.946 272.784 285.934 272.795C285.922 272.806 285.905 272.812 285.888 272.812C285.871 272.811 285.856 272.804 285.844 272.791L285.766 272.713C285.711 272.658 285.797 272.564 285.852 272.627Z" fill="#263238"/>
<path d="M269.147 270.945C269.845 276.337 272.009 281.433 275.403 285.68C276.809 287.343 278.546 288.696 280.502 289.653C282.708 290.748 285.015 291.999 287.299 292.899C288.382 295.661 289.189 298.525 289.708 301.447C289.778 301.196 289.848 300.938 289.927 300.665C288.464 288.081 280.315 277.327 269.905 270.421C269.822 270.372 269.726 270.348 269.629 270.352C269.532 270.355 269.438 270.386 269.359 270.441C269.279 270.496 269.217 270.573 269.179 270.662C269.142 270.752 269.13 270.85 269.147 270.945Z" fill="#AD6359"/>
<path d="M272.744 274.66C272.674 274.598 272.744 274.465 272.854 274.52C278.586 278.774 283.158 284.4 286.149 290.881C286.227 291.053 285.985 291.201 285.891 291.029C285.406 290.185 284.913 289.356 284.413 288.55C282.067 288.097 279.783 286.423 278.015 284.835C277.969 284.796 278.015 284.726 278.086 284.765C278.997 285.595 280.008 286.307 281.097 286.884C282.067 287.369 283.107 287.666 284.116 288.081C283.235 286.684 282.317 285.336 281.363 284.037C278.793 283.061 276.384 281.706 274.215 280.018C274.207 280.013 274.201 280.007 274.196 280C274.191 279.993 274.188 279.985 274.186 279.977C274.184 279.968 274.184 279.96 274.186 279.951C274.187 279.943 274.19 279.935 274.195 279.928C274.2 279.92 274.206 279.914 274.213 279.909C274.22 279.904 274.228 279.901 274.236 279.899C274.244 279.897 274.253 279.897 274.261 279.899C274.27 279.9 274.278 279.903 274.285 279.908C276.435 281.206 278.651 282.391 280.925 283.459C279.475 281.539 277.908 279.711 276.232 277.984C275.45 277.554 274.606 277.124 273.824 276.67C273.761 276.631 273.824 276.522 273.87 276.545C274.522 276.777 275.144 277.084 275.724 277.46C274.754 276.514 273.784 275.575 272.744 274.66Z" fill="#263238"/>
<path d="M272.971 279.009C273.112 279.091 273.245 279.185 273.37 279.29C273.409 279.29 273.37 279.376 273.323 279.353C273.174 279.29 273.032 279.211 272.901 279.118C272.886 279.109 272.876 279.094 272.872 279.077C272.868 279.06 272.872 279.043 272.881 279.028C272.89 279.014 272.905 279.003 272.922 279C272.939 278.996 272.956 278.999 272.971 279.009Z" fill="#263238"/>
<path d="M306.202 328.702H277.664L279.971 302.706L280.471 296.973H303.394L303.902 302.706L306.202 328.702Z" fill="#455A64"/>
<path d="M303.902 302.706H279.971L280.471 296.973H303.394L303.902 302.706Z" fill="#263238"/>
<path d="M304.763 292.969H279.11V298.639H304.763V292.969Z" fill="#455A64"/>
</svg>
